<?xml version="1.0" encoding="utf-8"?>
<!-- Uploaded to: SVG Repo, www.svgrepo.com, Generator: SVG Repo Mixer Tools -->
<svg width="800px" height="800px" viewBox="-33.26 0 327.97 327.97" xmlns="http://www.w3.org/2000/svg"><defs><style>.a{fill:#211715;}.b{fill:#ffffff;}.c{fill:#f2635f;}.d{fill:#b5886a;}.e{fill:#79c6e0;}.f{fill:#a0a0a0;}</style></defs><path class="a" d="M37.822,138.525c-.154-7.657-.584-30.094-.731-37.616q2.342.175,4.809.122,2.261-.047,4.4-.266c.167,8.252.644,33.54.791,40.783q-.357-.174-.739-.339a24.152,24.152,0,0,0-8.517-2Z"/><path class="a" d="M43.9,100.759q.343,17,.655,34.007.062,3.232.125,6.465c.061,3.085,4.862,3.095,4.8,0q-.325-16.349-.627-32.7-.077-3.887-.153-7.774c-.062-3.085-4.862-3.095-4.8,0Z"/><path class="a" d="M34.691,100.909q.313,16.009.621,32.018.059,3.042.121,6.082c.063,3.085,4.863,3.1,4.8,0q-.318-15.385-.6-30.772-.071-3.663-.142-7.328c-.06-3.085-4.861-3.1-4.8,0Z"/><path class="b" d="M40.279,23.572C17.451,24.049,2.042,42.06,2.474,62.749c.5,23.95,15.751,38.777,39.426,38.282,24.226-.506,38.292-15.946,37.791-39.9C79.256,40.3,63.027,23.1,40.279,23.572Z"/><path class="a" d="M40.279,21.172A41.914,41.914,0,0,0,14.788,30.31,40.1,40.1,0,0,0,1.393,51.379c-4.112,16,.909,35.1,14.682,44.908,6.686,4.761,14.94,6.883,23.066,7.132,8.435.258,17.175-1.3,24.564-5.514A35.319,35.319,0,0,0,78.7,80.723a48.2,48.2,0,0,0,2.9-25.188,40.581,40.581,0,0,0-11.1-22.423A40.174,40.174,0,0,0,47.33,21.6a46.06,46.06,0,0,0-7.051-.431c-3.085.051-3.1,4.852,0,4.8a37.174,37.174,0,0,1,22.776,6.987,35.168,35.168,0,0,1,12.6,17.993,43.05,43.05,0,0,1,.23,23.138A31.88,31.88,0,0,1,65.22,91.111c-5.4,4.385-12.62,6.71-19.678,7.326-7.566.659-15.587-.17-22.373-3.512A31.034,31.034,0,0,1,8.953,80.752,42.635,42.635,0,0,1,5.03,58.268a35.237,35.237,0,0,1,29.1-31.7,39.035,39.035,0,0,1,6.151-.6C43.363,25.894,43.374,21.094,40.279,21.172Z"/><path class="c" d="M41.415,39.634A22.531,22.531,0,0,0,19.467,55.4c-2.623,8.485-.324,19.158,6.841,24.767,7.27,5.691,18.344,6.393,26.489,2.147,8.025-4.184,11.736-13.784,10.773-22.494a22.582,22.582,0,0,0-6.891-14.178,23.121,23.121,0,0,0-15.264-6.01,3.6,3.6,0,0,0,0,7.2c.541.014,1.079.039,1.618.09.092.009.822.1.4.039-.509-.071.606.111.551.1a19.408,19.408,0,0,1,2.928.8c.206.075.412.153.616.235-.141-.057-.579-.282.042.025.387.191.776.375,1.155.583q.632.348,1.233.745c.177.116.35.239.525.358.13.091.258.185.385.28q-.4-.314-.107-.075a19.639,19.639,0,0,1,1.935,1.837c.28.309.552.626.81.955-.433-.553.392.592.525.8A21.07,21.07,0,0,1,55.3,55.953c.237.5-.188-.508,0,.013.093.248.189.493.275.743q.234.679.416,1.373t.315,1.413q.059.318.107.639c-.023-.152-.056-.694-.008.013a27.445,27.445,0,0,1,.073,3.008c-.022.51-.061,1.017-.107,1.525-.009.1-.089.8-.031.344s-.035.226-.053.329a23.6,23.6,0,0,1-.677,2.9q-.177.576-.389,1.141c-.07.185-.142.369-.218.552.286-.687.08-.192.009-.056a22.655,22.655,0,0,1-1.342,2.358c-.106.154-.225.3-.325.459-.267.426.41-.415.05-.066-.3.286-.542.638-.828.936q-.384.4-.8.773c-.137.124-.282.24-.418.365-.667.611.6-.392-.149.123A19.608,19.608,0,0,1,49.163,76.1c-.129.067-1.121.538-.746.373.511-.225-.379.144-.388.148q-.35.129-.7.244a19.959,19.959,0,0,1-2.536.645c-.185.035-1.4.19-.636.111-.555.057-1.109.107-1.666.133a27.021,27.021,0,0,1-2.944-.025c-.5-.032-1.005-.075-1.5-.14.151.019.676.125-.014-.013-.314-.063-.631-.113-.945-.18a20.4,20.4,0,0,1-2.391-.662c-.19-.065-.377-.141-.568-.206-.908-.31.429.208-.1-.036-.4-.182-.8-.372-1.182-.581s-.752-.426-1.116-.66c-.182-.117-1.214-.874-.545-.346a16.021,16.021,0,0,1-1.858-1.722c-.255-.277-.5-.565-.734-.857.537.662-.23-.352-.35-.537a19.8,19.8,0,0,1-1.249-2.283c-.232-.481.2.547.016.042-.088-.234-.18-.466-.262-.7q-.2-.575-.367-1.162a20.842,20.842,0,0,1-.583-2.785c.1.728-.031-.456-.048-.688-.038-.512-.059-1.025-.066-1.538s0-1.026.023-1.538q.016-.329.044-.657c.015-.172.146-1.128.024-.34a19.9,19.9,0,0,1,.693-2.972q.122-.38.256-.753c.03-.082.35-.88.169-.454-.172.408.1-.2.139-.291.139-.283.276-.566.425-.843q.333-.623.712-1.22c.141-.22.29-.434.435-.651.159-.236.4-.554.09-.151a17.721,17.721,0,0,1,2.142-2.282c.156-.14.32-.272.475-.412.74-.665-.553.354.267-.214.436-.3.87-.6,1.325-.875s.931-.531,1.412-.765q.291-.141.588-.273c-.688.306.292-.1.353-.125A23.157,23.157,0,0,1,38.49,47c.115-.024.7-.1.071-.022.291-.037.583-.063.875-.085.66-.051,1.318-.064,1.979-.058a3.6,3.6,0,0,0,0-7.2Z"/><path class="b" d="M63.629,162.18q-.087-.3-.182-.564c-1.947-5.372-5.516-8.368-5.459-13.671.039-3.686-.766-8.722-4.445-9.8-2.437-.714-3.636,1-4.22,2.031,0,0-.421.745-1.109,1.97a16.8,16.8,0,0,0-1.861-.938c-6.194-2.672-13.587-2.867-14.586.424-.592,1.392-.6,2.771-.119,5.048a4.121,4.121,0,0,0-1.349.69c-1.331,1.036-2.657,4.138-1.9,4.98l.506,1.691a4.947,4.947,0,0,0-4.719.731c-1.584,1.252-3.127,4.26-1.694,5.683l.963,1.664c-2.468-.748-5.411,1.528-5.578,3.852a7.1,7.1,0,0,0,1.561,4.912,44,44,0,0,0,7.991,15.285c.951,1.176,1.962,2.3,2.863,3.519a24.469,24.469,0,0,1,3.472,6.586,38.09,38.09,0,0,1,.49,6.379c4.822-.414,17.687-1.563,25.558-2.843.008-.335.015-.528.015-.528.068-1.965.4-5.51.653-7.455C64.854,178.057,64.944,166.741,63.629,162.18Z"/><path class="b" d="M259.056,325.565c-2.97-58.96-5.53-109.59-11.13-128.26a25.244,25.244,0,0,0-7.44-11.89,53.968,53.968,0,0,0-9.34-6.07c-8.54-4.12-19.62-9.12-27.23-13.52l-12.4-6.215c-3.226,35.066-18.054,63.912-30.223,91.62a260.093,260.093,0,0,1-12.385-25.4c-4.87-11.57-12.02-31.81-14.2-37.75-2.942-8.012-5.608-19.923-6.944-28.155l-9.444,4.249c-9.2,4.71-20.38,7.85-29.65,12.33a29.752,29.752,0,0,0-8.59,5.73,26.617,26.617,0,0,0-5.63,8.67c-2.629,6.85-4.358,12.356-5.9,17.571-10.725,2.249-28.374,4.908-38.629,4.186.309,16.291.315,34.5,2.527,51.37,1.537,11.72,4.965,23.225,15.1,29.313a29.191,29.191,0,0,0,25.527,2.615c7.191-2.6,16.279-9.474,21.9-13.465,0,0,.753-.494,1.82-1.2-.037,7.126-2.547,30.188-3.579,44.284Z"/><path class="d" d="M122.912,129.883a48.318,48.318,0,0,1-7.261-13.647c-.976,6.421-4.5,9.127-8.3,11.74-3.456,2.381-7.209,4.625-9.426,9.186A26.73,26.73,0,0,0,95.8,149.183c.105,4.213,3.48,15.1,7.678,19.64l.931,1.257a110.619,110.619,0,0,0,13.912-5.915l10.188-3.312c4.58-2.84,8.83-5.93,9.68-8.03,1.12-2.78,1.07-6.44,1.05-9.685a41.466,41.466,0,0,1-15.241-11.907Q123.434,130.562,122.912,129.883Z"/><path class="b" d="M220.119,88.4a9.677,9.677,0,0,0-1.013-3.894,6.852,6.852,0,0,0-4.923-3.273,7.251,7.251,0,0,0-5.8,1.7s1.255-41.918-49.412-41.918-47.9,41.918-47.9,41.918a7.252,7.252,0,0,0-5.8-1.7,6.848,6.848,0,0,0-4.923,3.273A9.678,9.678,0,0,0,99.327,88.4a29.01,29.01,0,0,0,2.958,15.378,18.432,18.432,0,0,0,4.768,6.257,11.654,11.654,0,0,0,7.488,2.67,49.422,49.422,0,0,0,9.452,18.53,41.565,41.565,0,0,0,15.241,11.914v.008c.02,3.23.07,6.89-1.05,9.67-.883,2.181-5.434,5.431-10.213,8.359A197.64,197.64,0,0,0,132.64,181.7l1.956.521a109.8,109.8,0,0,0,25.058,3.6c7.99.019,19.36-1.244,27.165-4.348l1.246-.5a162.746,162.746,0,0,0,3.294-19.784c-4.365-2.935-8.561-6.192-9.445-8.376-1.15-2.83-1.08-6.6-1.06-9.88v-.006h0c12.151-5.212,21.927-21.568,23.632-26.2.257-.78.781-2.251,1.248-4l.973-.151a12.215,12.215,0,0,0,5.684-2.562,18.42,18.42,0,0,0,4.768-6.257A29.01,29.01,0,0,0,220.119,88.4Z"/><path class="d" d="M100.782,74.193c.387,2.131,1.3,5.72,1.979,7.928a6.852,6.852,0,0,1,2.5-.892,7.364,7.364,0,0,1,4.652.872c7.648-3.329,13.036-9.872,16.682-15.046C133.685,57,135.71,49.988,137.031,42.92c5.514,7.251,55.8,34.623,70.21,36.8L209.732,82a7.326,7.326,0,0,1,4.451-.768,7.037,7.037,0,0,1,3.645,1.71,128.058,128.058,0,0,0,1.246-22.272c-1.05-15.052-6.967-31.913-16.445-41.255C190.334,7.294,180.222,2.448,157.214,2.448A58.852,58.852,0,0,0,116.573,18.8C104.152,30.946,98.705,47.958,99.6,63.559A76.826,76.826,0,0,0,100.773,74"/><path class="e" d="M156.243,185.722a115.637,115.637,0,0,1-21.647-3.5l-1.957-.523c.661,2.281,1.355,4.442,2.065,6.376,2.181,5.941,9.334,26.176,14.2,37.742a259.014,259.014,0,0,0,12.382,25.411c9.6-21.857,20.854-44.423,26.76-70.2l-1.231.443c-7.8,3.1-19.175,4.367-27.165,4.348C158.564,185.823,157.422,185.787,156.243,185.722Z"/><path class="b" d="M109.429,263.007c-4.32-6.744-6.594-17.2-7.146-25.425-.569-8.459,1.3-25.8,6.411-38.535,1.364-7.73,2.888-14.464,4.03-20.986,1.7-9.723,6.1-17.022,14.559-21.3.192,1.419.442,3.027.745,4.763-5.387,8.114-8.38,30.8-7.938,38.426,5.223,15.347,16.886,29.811,18.762,46.905.551,5.019-1.077,9.8-3.822,14.037-2.547,3.932-6.463,6.045-10.632,7.991-1.822.851-3.991,1.709-5.741,2.7-1.319.747-2.506,1.807-3.984,2.144-3.242.738-5.713-2.409-6.116-5.3-.309-2.218.152-4.472,2.539-5.647,3.224-1.587,6.393-.561,9.828-2.375,3.217-1.7,5.8-2.434,7.4-8.13,2.116-7.542-2.875-16.831-5.785-23.661-1.531-3.595-7.036-16.33-8.286-18.553-1.362,5.553-3.877,20.308-2.919,27.152.787,5.622,2.919,16.452,6.671,22.706l1.925,3.679-8.593,2.963Z"/><path class="f" d="M132.092,272.555a4.538,4.538,0,0,0-2.376-4.17l-2.4-.94c-.948.5-1.924.976-2.915,1.438-1.342.627-2.873,1.258-4.285,1.942a17.334,17.334,0,0,0,2.064,3.71,5.288,5.288,0,0,0,3.222,2.021,6.116,6.116,0,0,0,2.428-.226,5.883,5.883,0,0,0,4.053-2.853A2.545,2.545,0,0,0,132.092,272.555Z"/><path class="f" d="M108.92,264.959a4.433,4.433,0,0,1,2.176-2.179,15.847,15.847,0,0,1,5.535-1.178,24.038,24.038,0,0,1,2.294,9.845,2.244,2.244,0,0,0-.268.136c-1.319.747-2.506,1.807-3.984,2.144-3.242.738-5.713-2.409-6.116-5.3A6.337,6.337,0,0,1,108.92,264.959Z"/><path class="a" d="M133.958,184.54a113.016,113.016,0,0,0,21.5,3.534,88.674,88.674,0,0,0,20.72-1.291,57.645,57.645,0,0,0,11.279-2.99,2.473,2.473,0,0,0,1.676-2.953,2.417,2.417,0,0,0-2.952-1.676,67.881,67.881,0,0,1-19.716,4.006,86.09,86.09,0,0,1-19.679-.867,113.092,113.092,0,0,1-11.552-2.392c-2.988-.792-4.264,3.837-1.276,4.629Z"/><path class="a" d="M210.078,84.624a4.753,4.753,0,0,1,6.778.793,8.138,8.138,0,0,1,.946,4.293,25.469,25.469,0,0,1-.3,5.263c-1.073,6.345-4.371,14.076-11.434,15.306a2.42,2.42,0,0,0-1.676,2.952,2.454,2.454,0,0,0,2.952,1.677c9.71-1.692,14.351-12.708,15.156-21.474.39-4.242.281-9.548-3.3-12.474a9.711,9.711,0,0,0-12.517.27,2.42,2.42,0,0,0,0,3.394,2.45,2.45,0,0,0,3.394,0Z"/><path class="a" d="M204.234,107.2a24.092,24.092,0,0,1-1.127,6.024c-.229.771-.481,1.535-.737,2.3-.078.233-.158.464-.237.7-.161.469-.1.235-.033.1a50.732,50.732,0,0,1-3.237,5.924,57.483,57.483,0,0,1-12.837,14.8,24.358,24.358,0,0,1-9.466,4.786c-3.008.694-1.735,5.323,1.276,4.628,7.307-1.685,13.426-6.942,18.242-12.459a62.657,62.657,0,0,0,10.015-14.913,32.125,32.125,0,0,0,2.941-11.878c.106-3.089-4.694-3.085-4.8,0Z"/><path class="a" d="M112.763,81.23a9.712,9.712,0,0,0-12.518-.27c-3.583,2.926-3.691,8.232-3.3,12.474.805,8.766,5.446,19.782,15.157,21.474a2.47,2.47,0,0,0,2.952-1.677,2.421,2.421,0,0,0-1.676-2.952c-7.064-1.23-10.361-8.961-11.435-15.306a25.612,25.612,0,0,1-.3-5.263,8.277,8.277,0,0,1,.947-4.293,4.747,4.747,0,0,1,6.778-.793,2.464,2.464,0,0,0,3.394,0,2.421,2.421,0,0,0,0-3.394Z"/><path class="a" d="M111.208,109.152c3.071,14.516,11.639,28.664,25.318,35.38a34.291,34.291,0,0,0,11.66,3.341,2.417,2.417,0,0,0,2.4-2.4,2.454,2.454,0,0,0-2.4-2.4c-13.461-1.4-24.471-13.04-29.313-25.052a60.77,60.77,0,0,1-3.036-10.145c-.639-3.02-5.267-1.742-4.629,1.276Z"/><path class="a" d="M178.454,142.943a50.576,50.576,0,0,0,.21,6.337,12.522,12.522,0,0,0,1.69,5.667c2.372,3.425,6.2,5.888,9.589,8.188a2.4,2.4,0,1,0,2.423-4.144c-1.614-1.1-3.219-2.214-4.729-3.45-.661-.541-1.308-1.1-1.921-1.7-.268-.26-.53-.526-.781-.8-.127-.141-.25-.283-.371-.429-.245-.293.265.433-.065-.09-.145-.23-.29-.45-.414-.694-.131-.259.132.389,0-.037-.072-.226-.153-.448-.218-.676a13.981,13.981,0,0,1-.45-2.294,54.158,54.158,0,0,1-.158-5.88c.02-3.089-4.78-3.093-4.8,0Z"/><path class="a" d="M136.834,143.153a51.2,51.2,0,0,1-.164,5.757,14.206,14.206,0,0,1-.482,2.362c-.067.222-.142.439-.219.658.053-.152.135-.232.016-.045-.084.133-.548.819-.212.393-2.189,2.771-5.51,4.655-8.48,6.5a2.4,2.4,0,1,0,2.423,4.144c1.938-1.206,3.852-2.459,5.667-3.846a20.659,20.659,0,0,0,4.278-4.045,11.2,11.2,0,0,0,1.7-5.211,48.078,48.078,0,0,0,.277-6.67c-.019-3.088-4.819-3.094-4.8,0Z"/><path class="a" d="M70.113,211.647c1.2-4.095,2.426-8.18,3.8-12.22,1.533-4.519,2.932-9.239,5.826-13.1,2.805-3.748,6.544-6.049,10.719-8.026,4.391-2.08,8.955-3.763,13.494-5.483a156.829,156.829,0,0,0,15.582-6.573c2.754-1.4.328-5.542-2.423-4.144-9.117,4.633-19.029,7.414-28.3,11.694-4.449,2.054-8.651,4.5-11.813,8.315a28.58,28.58,0,0,0-4.044,6.231c-1.129,2.454-2,5.041-2.9,7.586-1.677,4.767-3.148,9.6-4.566,14.448-.868,2.971,3.762,4.24,4.629,1.276Z"/><path class="a" d="M202.705,167.9c5.768,3.321,11.8,6.183,17.8,9.037,6.156,2.925,12.378,5.6,17.8,9.8,6.867,5.322,8.426,14.47,9.77,22.538,1.525,9.146,2.434,18.487,3.254,27.939,1.1,12.68,1.916,25.384,2.66,38.09.981,16.749,1.816,33.507,2.66,50.264.155,3.074,4.956,3.093,4.8,0-1.43-28.39-2.7-56.811-5.048-85.144-.836-10.1-1.8-20.207-3.344-30.225-1.339-8.663-2.887-17.82-8.924-24.593a37.274,37.274,0,0,0-8.456-6.491,104.548,104.548,0,0,0-10.017-5.025c-6.921-3.278-13.9-6.51-20.539-10.334-2.682-1.544-5.1,2.6-2.423,4.144Z"/><path class="a" d="M228.689,325.57c-.7-9.447-1.649-18.873-2.481-28.309-.566-6.41-1.47-12.987-.93-19.428,1.264-15.068,4.759-30.185,7.33-45.238,1.891-11.065,3.287-22.229,5.467-33.242A2.462,2.462,0,0,0,236.4,196.4a2.423,2.423,0,0,0-2.953,1.676c-1.927,9.736-3.213,19.6-4.821,29.389-1.285,7.821-2.852,15.589-4.213,23.395-1.413,8.1-2.786,16.226-3.681,24.4-.684,6.246-.146,12.373.383,18.617.9,10.566,2,21.116,2.775,31.693a2.459,2.459,0,0,0,2.4,2.4,2.421,2.421,0,0,0,2.4-2.4Z"/><path class="a" d="M82.283,199.877c1.362,10.655,2.76,21.308,4.423,31.921,1.2,7.692,2.658,15.337,4.018,23,1.32,7.444,2.691,14.936,3.413,22.258.6,6.035-.149,12.132-.668,18.149-.874,10.121-1.914,20.23-2.66,30.362a2.421,2.421,0,0,0,2.4,2.4,2.447,2.447,0,0,0,2.4-2.4c.665-9.038,1.567-18.057,2.372-27.083.353-3.957.7-7.915.965-11.879a56.222,56.222,0,0,0,.157-7.6,216.648,216.648,0,0,0-3.151-22.062c-1.23-7.1-2.606-14.174-3.788-21.282-1.977-11.887-3.553-23.836-5.081-35.787a2.478,2.478,0,0,0-2.4-2.4,2.414,2.414,0,0,0-2.4,2.4Z"/><path class="a" d="M135.493,44.826c2.269,2.687,5.548,4.7,8.443,6.625,4.71,3.139,9.59,6.027,14.511,8.82a324.1,324.1,0,0,0,34.31,17.155c4.425,1.858,9.07,3.865,13.846,4.6a2.476,2.476,0,0,0,2.952-1.677,2.419,2.419,0,0,0-1.676-2.952,54.029,54.029,0,0,1-11.694-3.716c-2.48-1-4.841-2.036-7.491-3.247q-4.233-1.935-8.4-4.006A322.689,322.689,0,0,1,148.117,48.46c-2.063-1.334-4.1-2.709-6.064-4.185l-.263-.2c-.355-.268.271.214.043.033-.178-.142-.358-.283-.535-.426-.323-.261-.641-.527-.953-.8a14.056,14.056,0,0,1-1.458-1.45,2.42,2.42,0,0,0-3.394,0,2.451,2.451,0,0,0,0,3.394Z"/><path class="a" d="M112.371,83.6c6.045-3.053,10.8-7.952,14.83-13.308a67.159,67.159,0,0,0,9.628-17.19,57.568,57.568,0,0,0,2.3-8.441,2.46,2.46,0,0,0-1.676-2.952,2.422,2.422,0,0,0-2.952,1.676,55.629,55.629,0,0,1-7.877,19.34c-4.278,6.673-9.481,13.094-16.68,16.731-2.758,1.393-.331,5.535,2.422,4.144Z"/><path class="a" d="M139.875,42.642q-3.225-3.671-6.337-7.438a2.41,2.41,0,0,0-1.7-.7,2.4,2.4,0,0,0-2.4,2.4,2.735,2.735,0,0,0,.7,1.7q3.112,3.768,6.338,7.439a2.414,2.414,0,0,0,3.394,0,2.459,2.459,0,0,0,0-3.395Z"/><path class="a" d="M113.018,117.222c-1,3.9-3.516,6.36-6.737,8.588-3.605,2.493-7.268,4.9-9.63,8.7-4.532,7.3-3.8,16.577-1.1,24.35,1.434,4.132,3.26,8.376,6.223,11.657,2.075,2.3,5.461-1.106,3.394-3.394-2.137-2.366-3.634-5.784-4.756-8.885a49.881,49.881,0,0,1-1.581-5.2,18.933,18.933,0,0,1-.631-3.676c-.208-4.325.388-9.08,2.808-12.767,2.114-3.221,5.586-5.119,8.639-7.309,3.865-2.772,6.79-6.092,8-10.793.768-2.994-3.86-4.271-4.629-1.276Z"/><path class="a" d="M185.341,244.182c-3.19,2.932-6.426,5.816-9.749,8.6a2.409,2.409,0,0,0,0,3.394,2.464,2.464,0,0,0,3.394,0c3.323-2.78,6.559-5.665,9.749-8.6a2.418,2.418,0,0,0,0-3.394,2.452,2.452,0,0,0-3.394,0Z"/><path class="a" d="M155.155,278.989a7.422,7.422,0,0,0-1.987,8.053,6.816,6.816,0,0,0,2.043,3.033,8.179,8.179,0,0,0,4.5,1.741,7.226,7.226,0,0,0,7.229-4.041,6.954,6.954,0,0,0,.322-4.835,8.872,8.872,0,0,0-2.223-3.747,7.551,7.551,0,0,0-4.849-1.962,7.133,7.133,0,0,0-5.038,1.758,2.411,2.411,0,0,0,0,3.394,2.46,2.46,0,0,0,3.394,0c.051-.045.1-.089.158-.132l-.486.375a4.472,4.472,0,0,1,.969-.565l-.574.242a5.181,5.181,0,0,1,1.186-.316l-.638.085a5.88,5.88,0,0,1,1.44,0l-.638-.086a5.779,5.779,0,0,1,1.461.395l-.573-.242a4.888,4.888,0,0,1,1,.583l-.486-.375a4.523,4.523,0,0,1,.725.745l-.375-.486a7.482,7.482,0,0,1,.938,1.571l-.242-.573a5.916,5.916,0,0,1,.405,1.442l-.086-.638a4.779,4.779,0,0,1,0,1.183l.085-.638a4.453,4.453,0,0,1-.261.976l.242-.574a4.741,4.741,0,0,1-.6,1.032l.375-.486a5.525,5.525,0,0,1-.9.9l.485-.375a4.454,4.454,0,0,1-.926.531l.573-.242a5.7,5.7,0,0,1-1.36.362l.638-.086a6.525,6.525,0,0,1-1.658,0l.638.085a6.134,6.134,0,0,1-1.42-.381l.573.242a5.217,5.217,0,0,1-1.091-.623l.486.375a4.322,4.322,0,0,1-.769-.76l.375.486a5.015,5.015,0,0,1-.584-1.031l.242.573a6,6,0,0,1-.4-1.457l.085.638a5.5,5.5,0,0,1,0-1.381l-.086.638a5.058,5.058,0,0,1,.343-1.238l-.242.573a5.3,5.3,0,0,1,.606-1.027l-.375.486a6.28,6.28,0,0,1,.749-.8,2.417,2.417,0,0,0,0-3.394A2.455,2.455,0,0,0,155.155,278.989Z"/><path class="a" d="M125.112,158.4a168.9,168.9,0,0,0,8.231,32.926c3.685,10.192,7.335,20.4,11.346,30.473a293.193,293.193,0,0,0,17.09,35.237c3.266,5.805,6.847,11.5,9.671,17.536a61.658,61.658,0,0,1,3.306,8.125,21.312,21.312,0,0,1,.521,2.2,28.919,28.919,0,0,1,.414,2.865,162.456,162.456,0,0,1,.625,18.538c-.044,6.422-.244,12.84-.43,19.258-.089,3.09,4.711,3.087,4.8,0,.333-11.5.873-23.09.083-34.586a67.073,67.073,0,0,0-.781-6.9,30.772,30.772,0,0,0-1.918-6.219,147.546,147.546,0,0,0-9.1-17.87c-6.644-11.685-13.058-23.472-18.208-35.907-4.259-10.285-8-20.784-11.785-31.251-1.844-5.108-3.654-10.192-5.039-15.451a184.961,184.961,0,0,1-4.2-20.258,2.416,2.416,0,0,0-2.953-1.676,2.462,2.462,0,0,0-1.676,2.952Z"/><path class="b" d="M208.308,240.814a10.446,10.446,0,0,1-8.795,2.048,9,9,0,0,1-3.587-1.514c-4.693-3.354-5.11-10.106-3.875-15.307.46-1.935,2.644-6.93,7.871-8.076,2.951-18.787,1.054-43.08-6.733-55.809l-1.77-1.558q.217-2.187.373-4.407c7.855,3.3,13.046,9.2,14.618,14.979a98.588,98.588,0,0,1,1.371,47.821c4.731,2.471,6.127,8.541,5.148,13.671A13.773,13.773,0,0,1,208.308,240.814Z"/><path class="a" d="M189.307,157.316c-2.024,25.842-11.133,50.108-21.56,73.6-2.761,6.222-5.587,12.416-8.33,18.647a2.477,2.477,0,0,0,.861,3.284,2.418,2.418,0,0,0,3.283-.861c10.272-23.327,21.491-46.4,27.058-71.431a167.144,167.144,0,0,0,3.488-23.244,2.419,2.419,0,0,0-2.4-2.4,2.448,2.448,0,0,0-2.4,2.4Z"/><path class="a" d="M200.151,240.548c-5.177-1.088-6.573-6.3-6.242-10.975a16.338,16.338,0,0,1,.482-3c.053-.2.111-.4.176-.593.055-.166.431-1.048.146-.428a14.267,14.267,0,0,1,.978-1.814c.081-.126.637-.882.364-.54a10.759,10.759,0,0,1,.978-1.069,7.331,7.331,0,0,1,4.132-1.968,9.353,9.353,0,0,1,6.407,1.507c3.314,2.476,3.784,7.553,2.834,11.29-1.215,4.778-5.078,8.493-10.255,7.587a2.469,2.469,0,0,0-2.952,1.676,2.419,2.419,0,0,0,1.676,2.952,13.484,13.484,0,0,0,9.536-1.507,14.644,14.644,0,0,0,5.68-6.745c2.392-5.551,2.138-12.618-1.847-17.387-3.817-4.569-11.558-5.569-16.544-2.413a14.426,14.426,0,0,0-6.326,10.171,19.831,19.831,0,0,0,.873,10.388,12.024,12.024,0,0,0,8.628,7.493C201.889,245.81,203.177,241.184,200.151,240.548Z"/><path class="a" d="M134.255,151.694c-7.348,1.84-14.014,5.581-18.438,11.849-4.589,6.5-5.437,14.4-6.952,21.986-.483,2.419-.972,4.836-1.441,7.257a46.814,46.814,0,0,1-1.728,7.4,88.212,88.212,0,0,0-3.516,12.646,99.471,99.471,0,0,0-2.36,23.529,70.571,70.571,0,0,0,2.008,13.933,46.68,46.68,0,0,0,5.528,13.923c1.644,2.606,5.8.2,4.145-2.423-4.333-6.868-6.14-15.479-6.765-23.483a84.284,84.284,0,0,1,1.471-21.059A99.786,99.786,0,0,1,109.2,204.79a51.617,51.617,0,0,0,1.983-6.066c.442-2.457.916-4.908,1.4-7.357q1.323-6.662,2.579-13.335a32.556,32.556,0,0,1,3.09-9.283c3.591-6.734,9.96-10.593,17.281-12.427,2.994-.75,1.726-5.38-1.276-4.628Z"/><path class="a" d="M120.077,258.708c-3.561-6.036-5.042-13.426-6.147-20.271a22.559,22.559,0,0,1-.384-3.5c-.057-1.521-.012-3.046.075-4.565.2-3.415.608-6.818,1.132-10.2.493-3.177,1.054-6.354,1.814-9.479l-4.387.573c2.5,4.515,4.364,9.472,6.414,14.2,2.656,6.131,5.938,12.271,7.37,18.827.766,3.5.7,7.326-1.247,10.461a5.731,5.731,0,0,1-1.09,1.3,8.2,8.2,0,0,1-1.411.97,17.357,17.357,0,0,1-4.045,1.877c-2.134.559-4.393.405-6.506,1.079a7.687,7.687,0,0,0-4.8,3.726,9.4,9.4,0,0,0,2.346,10.747,6.841,6.841,0,0,0,5.755,1.649c2.185-.393,3.88-1.951,5.808-2.934,3.7-1.888,7.666-3.235,11.068-5.686a23.009,23.009,0,0,0,7.807-10.3,23.873,23.873,0,0,0,1.212-13.211c-1.354-8.443-4.984-16.331-8.8-23.91-1.894-3.764-3.866-7.49-5.691-11.289-.86-1.79-1.7-3.593-2.451-5.431q-.557-1.363-1.063-2.747a3.582,3.582,0,0,1-.4-1.595,87.416,87.416,0,0,1,1.57-16.508c.561-3.277,1.238-6.539,2.105-9.75.4-1.48.839-2.95,1.344-4.4a27.7,27.7,0,0,1,1.39-3.419,17.739,17.739,0,0,1,1.714-2.865,2.415,2.415,0,0,0-.861-3.283,2.457,2.457,0,0,0-3.284.861c-3.265,4.355-4.665,10.3-5.841,15.515a125.223,125.223,0,0,0-2.773,18.8c-.155,2.218-.6,5.05.149,7.186a103.22,103.22,0,0,0,4.788,11.149c3.591,7.34,7.7,14.47,10.549,22.151a54.86,54.86,0,0,1,3.05,11.6,18.935,18.935,0,0,1-2.4,11.982,18.707,18.707,0,0,1-8.309,7.591c-1.818.94-3.7,1.741-5.558,2.587-.895.407-1.792.824-2.646,1.314a24.329,24.329,0,0,1-2.831,1.727c-2.607,1.051-4.1-2.736-3.67-4.78.341-1.634,2.257-2.013,3.689-2.234,2.168-.336,4.3-.376,6.362-1.228,2.762-1.143,5.569-2.656,7.376-5.1a16.66,16.66,0,0,0,2.818-10.779c-.507-7.474-4.254-14.309-7.156-21.069-2.173-5.059-4.34-10.13-6.678-15.116-.329-.7-.654-1.407-1.03-2.085a2.426,2.426,0,0,0-4.387.574,121.892,121.892,0,0,0-3.029,19.621,42.5,42.5,0,0,0,.2,9.439,97.314,97.314,0,0,0,2.085,10.3,47.965,47.965,0,0,0,4.737,12.345c1.568,2.659,5.719.247,4.144-2.422Z"/><path class="a" d="M102.875,240.389q4.083-.246,8.146-.709a2.611,2.611,0,0,0,1.7-.7,2.4,2.4,0,0,0,0-3.394,2.32,2.32,0,0,0-1.7-.7q-4.062.464-8.146.709a2.4,2.4,0,0,0,0,4.8Z"/><path class="a" d="M126.913,236.845l.34-.146-.573.242a38.727,38.727,0,0,1,6.215-2.007,2.419,2.419,0,0,0,1.676-2.952,2.452,2.452,0,0,0-2.952-1.676,41.947,41.947,0,0,0-7.129,2.394,2.4,2.4,0,0,0-1.1,1.434,2.458,2.458,0,0,0,.242,1.85,2.43,2.43,0,0,0,1.435,1.1l.638.085a2.384,2.384,0,0,0,1.211-.327Z"/><path class="a" d="M202.33,218a120.469,120.469,0,0,0,1.149-23.958,92.858,92.858,0,0,0-3.74-22.815,46.726,46.726,0,0,0-4.478-10.278c-1.6-2.64-5.749-.23-4.144,2.422,3.336,5.514,5.044,11.9,6.174,18.2a116.311,116.311,0,0,1,.41,35.156,2.479,2.479,0,0,0,1.677,2.952A2.418,2.418,0,0,0,202.33,218Z"/><path class="a" d="M210.2,219.1a101.773,101.773,0,0,0-1.478-48.569A23.279,23.279,0,0,0,202.2,160.1a33.057,33.057,0,0,0-14.414-7.782c-2.991-.783-4.267,3.845-1.276,4.629,7.328,1.919,15.094,6.806,17.425,14.315a90,90,0,0,1,3.711,28.323,104.574,104.574,0,0,1-2.076,18.235,2.46,2.46,0,0,0,1.676,2.952A2.423,2.423,0,0,0,210.2,219.1Z"/><path class="a" d="M114.772,263.265a24.58,24.58,0,0,1,1.625,6.006l-.085-.638q.123.936.179,1.878a2.4,2.4,0,1,0,4.8,0,26.4,26.4,0,0,0-1.89-8.522,2.643,2.643,0,0,0-1.1-1.434,2.4,2.4,0,0,0-3.284.861,2.317,2.317,0,0,0-.242,1.849Z"/><path class="a" d="M128.706,270.112c.163.069.308.156.463.239.352.187-.237-.259.021.017.128.137.26.266.384.407-.33-.373-.046-.047.022.062.1.165.19.339.282.511.207.386-.087-.324.022.063.052.186.117.366.159.555.112.5.062.034.019.021.046.014.014.481.016.535.016.414.116-.388.007-.03-.17.557.228-.285-.022.129-.087.145-.168.291-.259.432.241-.373-.152.154-.23.23-.1.1-.389.326-.112.121a9.418,9.418,0,0,1-1.111.649c-.131.059-.1.05.079-.029-.108.044-.216.085-.326.124-.19.068-.382.129-.576.185-.214.062-.43.118-.647.166-.134.03-.268.057-.4.08q.24-.024.024,0c-.239.022-.473.018-.713.019-.254-.021-.271-.02-.048,0-.087-.016-.172-.036-.257-.059s-.649-.252-.263-.068a5.436,5.436,0,0,1-.54-.3q-.114-.07-.222-.147l-.017-.014c-.155-.139-.309-.277-.455-.427s-.284-.3-.412-.465c.176.224-.187-.282-.226-.341a20.462,20.462,0,0,1-1.372-2.636,2.009,2.009,0,0,0-2.737-.717,2.057,2.057,0,0,0-.717,2.736A12.827,12.827,0,0,0,121.7,276.9a7.33,7.33,0,0,0,2.654,1.475,7.231,7.231,0,0,0,3.408.026,9.06,9.06,0,0,0,4.834-2.468,5.348,5.348,0,0,0,1.322-5.028,6.148,6.148,0,0,0-3.191-4.245,2.057,2.057,0,0,0-2.736.717,2.022,2.022,0,0,0,.717,2.737Z"/><path class="a" d="M190.609,52.1a43.09,43.09,0,0,1,16.5,28.773,2.473,2.473,0,0,0,2.4,2.4,2.415,2.415,0,0,0,2.4-2.4A47.7,47.7,0,0,0,194,48.7a2.481,2.481,0,0,0-3.394,0,2.415,2.415,0,0,0,0,3.394Z"/><path class="a" d="M220.223,83.086a113.372,113.372,0,0,0,1.311-21.2,76.894,76.894,0,0,0-4.717-23.312C214.142,31.21,210.41,24,204.928,18.324a63.7,63.7,0,0,0-14.581-11.56,51.216,51.216,0,0,0-17.673-5.72A85.6,85.6,0,0,0,147.5.837,58.824,58.824,0,0,0,99.419,43.479a66.41,66.41,0,0,0-1.94,24.027,71.351,71.351,0,0,0,.979,7.134,2.424,2.424,0,0,0,2.953,1.677,2.452,2.452,0,0,0,1.676-2.953c-2.927-15.159-.492-31.179,8.024-44.18A54.706,54.706,0,0,1,143.2,6.622c7.87-2.039,16.028-2.066,24.087-1.395a54.327,54.327,0,0,1,17.268,4,50.942,50.942,0,0,1,13.591,9.232,47.986,47.986,0,0,1,6.636,7.126,55.9,55.9,0,0,1,5.554,9.692,74.314,74.314,0,0,1,6.034,22.087,96.634,96.634,0,0,1-.231,19.908c-.141,1.519-.307,3.034-.542,4.541a2.476,2.476,0,0,0,1.676,2.953,2.418,2.418,0,0,0,2.952-1.677Z"/><path class="a" d="M98.467,74.831a72.26,72.26,0,0,0,1.889,7.63,2.4,2.4,0,0,0,4.629-1.276,72.26,72.26,0,0,1-1.889-7.63,2.418,2.418,0,0,0-1.1-1.434,2.4,2.4,0,0,0-3.284.861,2.7,2.7,0,0,0-.242,1.849Z"/><path class="a" d="M201.5,234.1a2.661,2.661,0,0,1-1.065-.449c-1.394-1-1.518-3-1.151-4.547a3.17,3.17,0,0,1,4.111-2.315c1.854.508,2.417,2.571,2.09,4.281C205.139,232.909,203.7,234.517,201.5,234.1Z"/><path class="b" d="M33.648,202.7l-1.056.089c.134.849.452,5.859.791,8.7l.1,1.287c9.021.029,21.536-1.716,30.944-3.487-.208-.9-.348-1.541-.348-1.541-.439-2.351-1.024-6.673-1.378-8.463C55.279,200.825,38.446,202.3,33.648,202.7Z"/><path class="a" d="M35.783,211.489c-.361-3.1-.436-6.242-.877-9.334l-2.314,3.038c4.354-.368,8.7-.761,13.05-1.211,5.9-.611,11.873-1.189,17.693-2.383l-2.952-1.676c.54,2.807.863,5.652,1.377,8.463a2.422,2.422,0,0,0,2.953,1.676,2.452,2.452,0,0,0,1.676-2.952c-.515-2.811-.838-5.656-1.378-8.463a2.441,2.441,0,0,0-2.952-1.676,167.861,167.861,0,0,1-16.732,2.244c-4.241.436-8.487.819-12.735,1.178a2.454,2.454,0,0,0-2.314,3.038c-.134-.941-.024-.128-.007.071.025.31.054.619.08.928.06.711.115,1.422.173,2.132.134,1.644.268,3.289.459,4.927a2.473,2.473,0,0,0,2.4,2.4,2.415,2.415,0,0,0,2.4-2.4Z"/><path class="a" d="M74.978,252.786c-2.073-14.658-3.494-29.39-5.019-44.111a2.447,2.447,0,0,0-3.038-2.315c-6.187,1.257-12.429,2.281-18.7,3.017a100.352,100.352,0,0,1-18.3.879,2.422,2.422,0,0,0-2.4,2.4c.194,10.295.273,20.6.78,30.881.481,9.76,1.028,19.8,3.305,29.339,1.966,8.236,5.762,16.048,12.7,21.181a31.883,31.883,0,0,0,27.334,4.879c9.136-2.6,16.928-8.96,24.543-14.374a2.467,2.467,0,0,0,.861-3.284,2.42,2.42,0,0,0-3.284-.861c-6.455,4.59-12.93,9.792-20.308,12.835a27.374,27.374,0,0,1-24.7-1.985c-6.626-4-10.223-10.939-12.156-18.213-2.337-8.795-2.87-18.116-3.375-27.164-.619-11.067-.7-22.154-.9-33.234l-2.4,2.4a101.4,101.4,0,0,0,18.7-.926q9.845-1.178,19.578-3.141l-3.038-2.314c1.569,15.149,3.057,30.3,5.191,45.387a2.415,2.415,0,0,0,2.952,1.676,2.463,2.463,0,0,0,1.676-2.952Z"/><path class="a" d="M28.544,170.71c-.043-.085-.116-.536-.085-.192.012.137-.012.231.015-.039.042-.413-.012.173-.009.278.013.424.119-.427,0,0-.059.216-.117.43-.181.644-.117.394.192-.364-.06.131a5.638,5.638,0,0,1-.293.512c-.044.068-.1.133-.139.2-.154.27.312-.3.079-.111a2.313,2.313,0,0,0-.37.371c0-.232.433-.26.154-.13a1.176,1.176,0,0,0-.188.1c-.249.189.4-.12.091-.033-.087.024-.171.06-.258.086-.21.064-.426.1-.639.15-.279.068.152-.016.161-.02a1.484,1.484,0,0,1-.489.029c-.231,0-.459-.006-.689-.019-.467-.026.312.093-.135-.025-.211-.056-.427-.13-.641-.175-.287-.062.157.072.145.073-.1.008-.357-.182-.449-.234q-.333-.187-.647-.4c-.108-.073-.512-.393-.215-.146-.424-.352-.832-.72-1.222-1.11-.363-.363-.719-.736-1.058-1.122-.071-.08-.141-.162-.21-.245.065.078.238.351-.007-.025-.135-.206-.268-.411-.386-.627-.076-.137-.32-.693-.158-.271-.086-.225-.164-.452-.229-.683s-.1-.468-.16-.7c.008.035.03.41.018.129-.007-.171-.027-.341-.03-.513a2.8,2.8,0,0,0,.016-.621c.131.121-.123.526-.021.194.022-.071.041-.148.057-.22,0-.016.073-.217.071-.218.081.045-.247.466-.056.146.053-.089.243-.547.329-.546.024,0-.326.359-.127.163.1-.1.18-.207.276-.305.058-.059.121-.114.179-.173.125-.128.267-.4-.037,0a2.04,2.04,0,0,1,.562-.366,1.234,1.234,0,0,0,.222-.117c.193-.175-.368.111-.116.041.211-.059.418-.134.631-.19l.08-.018c.213-.037.215-.039,0-.006-.185.023-.211.029-.077.019.054,0,.108-.006.162,0a3.2,3.2,0,0,0,.324.01c.229-.015-.351-.136-.156-.015a.935.935,0,0,0,.238.061c.514.109-.434-.228.045.016a2.4,2.4,0,0,0,2.423-4.145,6.742,6.742,0,0,0-7.76,1.376,7.21,7.21,0,0,0-1.569,7.769,14.238,14.238,0,0,0,5.807,6.787,8.218,8.218,0,0,0,8.31.288c2.591-1.614,4.01-5.443,2.61-8.232a2.417,2.417,0,0,0-3.284-.861,2.459,2.459,0,0,0-.861,3.284Z"/><path class="a" d="M31.281,152.493a8.058,8.058,0,0,0-6.212-.837,7.963,7.963,0,0,0-4.216,3.305,6.73,6.73,0,0,0-1.186,5.188,4.923,4.923,0,0,0,1.353,2.23c.715.746,1.392,1.525,2.083,2.294.862.958,1.844,1.774,2.736,2.7.837.866,1.652,1.754,2.509,2.6a13.255,13.255,0,0,0,2.81,2.32,7.9,7.9,0,0,0,5.193.551,6.34,6.34,0,0,0,4.365-3.253,7.28,7.28,0,0,0-.112-6.8,2.424,2.424,0,0,0-3.284-.861,2.448,2.448,0,0,0-.861,3.283,2.982,2.982,0,0,1,.258.77s.053.415.036.189c-.02-.252-.012.243-.012.295,0,.279.026,0,.034-.057a3.336,3.336,0,0,1-.095.439,4.359,4.359,0,0,1-.134.415c.122-.315.031-.076-.074.088s-.462.563-.139.234c-.127.129-.614.5-.221.256a2.879,2.879,0,0,1-.267.158c-.333.155.345-.107-.015.015a5.776,5.776,0,0,1-.867.223c-.383.066.345-.014-.045-.006-.153,0-.3.014-.459.013s-.826-.083-.363,0a5.326,5.326,0,0,0-.71-.175c-.358-.008.415.269.244.107a1.759,1.759,0,0,0-.258-.15c-.089-.055-.507-.36-.217-.141.311.236-.186-.16-.258-.223-.374-.324-.733-.665-1.085-1.012-1.227-1.206-2.337-2.537-3.632-3.671a36.961,36.961,0,0,1-2.929-3.1c-.239-.264-.481-.525-.729-.78-.095-.1-.552-.369-.262-.237.211.1-.047-.179.03.067.1.3.023,0,.006-.054.136.406.023.282.029.081,0-.14.074-.41-.029.047.031-.135.056-.271.094-.405s.085-.273.133-.407c-.147.409.03-.046.075-.132a7.591,7.591,0,0,1,.527-.856c-.229.325.207-.225.317-.335.095-.094.193-.186.294-.273-.272.234.037-.016.174-.1.106-.063.213-.125.324-.179-.3.147.161-.046.23-.066.051-.014.546-.125.288-.082-.23.038.372-.017.435-.017a3.344,3.344,0,0,1,1.671.487,2.4,2.4,0,0,0,2.423-4.145Z"/><path class="a" d="M38.343,160.224c-2.177-2.445-4.272-4.96-6.4-7.45q-.633-.743-1.275-1.474c-.095-.107-.187-.221-.286-.323-.345-.354-.026-.031.018.071.019.043.183.865.179.638-.01-.538-.1.187-.026-.04.1-.281.154-.588.247-.873.027-.083.187-.4.01-.032.064-.134.129-.268.2-.4a7.566,7.566,0,0,1,.516-.838c.217-.3-.373.328.071-.068.081-.072.493-.4.118-.143a2.082,2.082,0,0,1,1.306-.4,3.467,3.467,0,0,1,1.626.462,18.231,18.231,0,0,1,3.668,3.209,21.287,21.287,0,0,1,2.776,3.65c.191.309.374.624.543.945.1.193.2.388.288.586.193.427-.157-.505.1.264.114.336.227.673.318,1.017.061.227.114.457.163.688.038.182.048.652.049.25,0-.017-.068.69-.01.369.069-.387-.215.617-.094.3.107-.279-.222.414-.2.371-.03.051-.353.517-.234.366a2.123,2.123,0,0,1-1.28.885c.355-.083.035.02-.068-.009.489.137-.23-.079-.259-.089.456.161-.709-.473-.359-.215a11.845,11.845,0,0,1-1.714-1.718,2.4,2.4,0,0,0-3.394,3.394c1.4,1.566,3.005,3.094,5.177,3.368,2.5.315,4.728-1.268,6.077-3.248,2.763-4.056-.108-9.048-2.675-12.391a27.1,27.1,0,0,0-4.554-4.715c-1.938-1.554-4-2.765-6.588-2.5a6.854,6.854,0,0,0-5.412,3.6c-.927,1.632-1.766,3.975-.716,5.747a18.775,18.775,0,0,0,2.01,2.365q.956,1.114,1.9,2.241c1.573,1.866,3.159,3.719,4.782,5.541a2.4,2.4,0,0,0,3.394-3.394Z"/><path class="a" d="M51.4,141.389c.3-.526.456-.909.884-.989a1.881,1.881,0,0,1,1.626.7c1.059,1.116,1.468,3.085,1.606,4.7.2,2.324.058,4.577.862,6.821a46.825,46.825,0,0,0,3.272,6.46,17.565,17.565,0,0,1,2.317,9.195,62.356,62.356,0,0,1-1.34,13.443q-.488,2.43-1.115,4.829a44.482,44.482,0,0,0-1.426,5.275c-.319,2.47-.555,4.966-.653,7.455-.121,3.089,4.679,3.084,4.8,0,.047-1.184.137-2.367.241-3.548a20.676,20.676,0,0,1,.426-3.687c.893-3.136,1.812-6.254,2.44-9.472a65.931,65.931,0,0,0,1.4-15.138,28.634,28.634,0,0,0-.616-5.2,25.05,25.05,0,0,0-2.895-6.589c-1.156-2.041-2.518-4.134-2.79-6.521s-.075-4.742-.77-7.1c-.791-2.689-2.444-5.166-5.2-6.1-3-1.018-5.7.431-7.216,3.041-1.551,2.678,2.6,5.1,4.145,2.423Z"/><path class="a" d="M42.969,150.528a26.047,26.047,0,0,0,.5,6.123,12.7,12.7,0,0,1-.176,4.637A23.8,23.8,0,0,0,43.1,172.43c.752,2.994,5.382,1.726,4.628-1.276-.813-3.237-.306-6.187.365-9.37a16.268,16.268,0,0,0,.1-5.721,23.55,23.55,0,0,1-.424-5.535,2.417,2.417,0,0,0-2.4-2.4,2.452,2.452,0,0,0-2.4,2.4Z"/><path class="a" d="M41.436,151.489c2.886,1.165,6.885,2.312,9.843.736a6.068,6.068,0,0,0,1.81-8.953c-2.349-3.181-6.423-4.819-10.148-5.738-3.143-.776-6.938-1.284-10.028-.026-4.155,1.692-4.354,6.1-3.55,9.95a2.4,2.4,0,0,0,4.629-1.276,11.765,11.765,0,0,1-.274-1.77,9.107,9.107,0,0,1,0-.92c0-.015.058-.407.015-.166-.039.222.063-.225.075-.265.08-.27.176-.526.271-.79.157-.437-.13.394.035-.03-.16.412-.084.126.118-.086.176-.184-.114.091-.136.1.133-.078.272-.154.4-.237.216-.139-.091.022-.126.037.094-.04.193-.076.291-.107.243-.077.486-.149.735-.2.109-.025.665-.127.294-.073a9.9,9.9,0,0,1,1.017-.08,16.121,16.121,0,0,1,3.556.266,18.638,18.638,0,0,1,7.784,3.042,8.977,8.977,0,0,1,1.076,1.036,4.217,4.217,0,0,0,.251.4c.056.088.1.185.147.277-.216-.429-.03-.061,0,.066.021.09.049.179.064.27-.009-.055-.036-.311-.025-.032,0,.062-.037.551,0,.277.036-.247-.038.13-.045.146-.168.389.107-.068-.126.292-.105.162-.2.241-.109.185a1.735,1.735,0,0,1-.944.349,8,8,0,0,1-1.188-.064c-.457-.045-.148-.018-.051,0-.173-.026-.345-.056-.517-.088q-.583-.106-1.159-.253a21.227,21.227,0,0,1-2.715-.9,2.416,2.416,0,0,0-2.953,1.676,2.459,2.459,0,0,0,1.677,2.952Z"/><path class="a" d="M17.533,172.851a47.875,47.875,0,0,0,8.344,15.191,34.487,34.487,0,0,1,4.822,7c1.158,2.453,1.065,4.985,1.158,7.649.108,3.081,4.908,3.095,4.8,0-.1-2.771.011-5.682-1.041-8.291a30.124,30.124,0,0,0-4.894-8.009,45.809,45.809,0,0,1-8.56-14.817c-.97-2.917-5.607-1.667-4.629,1.276Z"/><path class="a" d="M156.618,88.272c.421-.105.844-.2,1.272-.276.182-.033.366-.061.549-.091.622-.1-.53.048.1-.01a22.183,22.183,0,0,1,2.4-.111c.37.007.741.024,1.11.052q.324.025.646.061c.092.01.184.02.276.032-.331-.046-.36-.048-.087-.008a23.47,23.47,0,0,1,2.359.523,2.4,2.4,0,0,0,1.276-4.628,21.741,21.741,0,0,0-11.179-.173,2.424,2.424,0,0,0-1.676,2.952,2.449,2.449,0,0,0,2.952,1.677Z"/><path class="a" d="M200.754,84.5q.444-.082.893-.143l-.638.085a17.128,17.128,0,0,1,3.365-.105,2.4,2.4,0,0,0,1.7-4.1l-.485-.376a2.391,2.391,0,0,0-1.212-.327,19.524,19.524,0,0,0-4.9.335,2.416,2.416,0,0,0-1.435,1.1,2.453,2.453,0,0,0-.242,1.849,2.426,2.426,0,0,0,1.1,1.434l.574.242a2.4,2.4,0,0,0,1.276,0Z"/><path class="a" d="M123.537,79.868a19.532,19.532,0,0,0-4.9-.335,2.547,2.547,0,0,0-1.7.7,2.4,2.4,0,0,0,0,3.394,2.383,2.383,0,0,0,1.7.7,17.141,17.141,0,0,1,3.366.105l-.638-.085q.447.06.893.143a2.579,2.579,0,0,0,1.849-.242,2.4,2.4,0,0,0,.861-3.283,2.361,2.361,0,0,0-1.434-1.1Z"/><path class="a" d="M157.793,83.264a7.2,7.2,0,0,0-2.728-4.934,14.214,14.214,0,0,0-5.574-1.99,46.934,46.934,0,0,0-12.634-.8c-3.962.269-8.349.825-11.964,2.571-3.692,1.782-4.411,5.39-4.526,9.13-.1,3.3.027,6.743,1.434,9.781,1.608,3.473,5.281,5.017,8.813,5.819a45.175,45.175,0,0,0,11.816.723c3.62-.142,7.658-.1,10.746-2.282,5.579-3.949,5.553-11.95,4.617-18.014a2.417,2.417,0,0,0-2.952-1.676,2.46,2.46,0,0,0-1.677,2.952c.535,3.466.74,8.73-1.548,11.693-1.473,1.907-4.009,2.286-6.366,2.405a82,82,0,0,1-9.432.118c-2.748-.178-6.3-.584-8.547-2.333-1.731-1.346-1.992-3.979-2.092-6-.061-1.225-.04-2.451,0-3.675.04-1.1-.023-2.48.657-3.422.763-1.058,2.3-1.385,3.464-1.707a37.327,37.327,0,0,1,4.976-1.029,45.4,45.4,0,0,1,11.057-.087,32.869,32.869,0,0,1,5.424,1.094,3.847,3.847,0,0,1,1.674.754,3.9,3.9,0,0,1,.728,2.194,2.419,2.419,0,0,0,2.953,1.676A2.458,2.458,0,0,0,157.793,83.264Z"/><path class="a" d="M169.2,84.54c.209-1.266.351-2.2,1.608-2.7a23.725,23.725,0,0,1,5.023-1.171,44.021,44.021,0,0,1,10.247-.294,28.423,28.423,0,0,1,9.142,1.885c2.477,1.114,2.176,3.861,2.195,6.188.019,2.278.035,5.057-1.275,7.035-1.418,2.143-4.912,2.715-7.252,3.06a49.846,49.846,0,0,1-9.311.2c-2.516-.1-5.764.034-7.8-1.5-3.479-2.628-3.157-8.966-2.579-12.706a2.475,2.475,0,0,0-1.676-2.952,2.417,2.417,0,0,0-2.952,1.676c-.852,5.5-.955,12.163,2.987,16.581,2.428,2.721,6.146,3.422,9.622,3.6a67.276,67.276,0,0,0,11.47-.062c3.637-.44,8.137-1.311,10.683-4.2,2.267-2.573,2.79-6.167,2.872-9.477.084-3.381.21-7.478-2.365-10.04-2.746-2.733-7.475-3.317-11.135-3.8a48.984,48.984,0,0,0-14.151.184,21.178,21.178,0,0,0-6.458,1.784,7.035,7.035,0,0,0-3.525,5.437,2.473,2.473,0,0,0,1.676,2.952A2.419,2.419,0,0,0,169.2,84.54Z"/><path class="a" d="M151.864,122.048a19.4,19.4,0,0,0,9.348,2.163,15.2,15.2,0,0,0,9.428-2.778,2.413,2.413,0,0,0,0-3.394,2.462,2.462,0,0,0-3.394,0c.726-.565.155-.128-.031-.008s-.382.232-.58.335c-.163.086-.873.368-.22.126-.266.1-.528.2-.8.291a14.018,14.018,0,0,1-2.235.51c.351-.052-.086.006-.222.02-.219.021-.439.04-.658.054-.529.034-1.059.047-1.589.044-.475,0-.949-.019-1.423-.051-.217-.015-.435-.032-.652-.054-.018,0-.8-.11-.323-.035a16.013,16.013,0,0,1-2.088-.464c-.293-.087-.578-.192-.867-.291-.616-.211.344.179-.211-.083-.359-.169-.712-.345-1.062-.53a2.452,2.452,0,0,0-3.283.861,2.426,2.426,0,0,0,.861,3.284Z"/><path class="a" d="M160.008,100.005a44,44,0,0,1,1.034,4.732l-.086-.638a2.852,2.852,0,0,1,.018.653l.086-.638a1.66,1.66,0,0,1-.072.294l.242-.574a1.12,1.12,0,0,1-.1.189l.375-.486a.929.929,0,0,1-.154.153l.486-.375a3.27,3.27,0,0,1-.375.2l.573-.242a2.727,2.727,0,0,1-.632.184l.638-.085a2.5,2.5,0,0,1-.593,0l.638.086c-.223-.031-.443-.085-.666-.115a1.812,1.812,0,0,0-.957-.043,1.786,1.786,0,0,0-.893.284,2.4,2.4,0,0,0-.861,3.284,2.3,2.3,0,0,0,1.435,1.1c.506.068,1,.2,1.513.22a4.84,4.84,0,0,0,2.227-.529,3.212,3.212,0,0,0,1.781-2.116,5.328,5.328,0,0,0-.023-2.283c-.257-1.524-.61-3.035-1-4.53a2.4,2.4,0,1,0-4.628,1.276Z"/><path class="a" d="M135.163,86.713c-.759,2.465-.264,8.136,4.406,8.619,6.173-.037,6.5-6.894,4.424-10.118C142.291,82.575,137.289,81.477,135.163,86.713Z"/><path class="a" d="M186.252,86.713c.759,2.465.265,8.136-4.406,8.619-6.173-.037-6.5-6.894-4.423-10.118C179.124,82.575,184.127,81.477,186.252,86.713Z"/></svg>