<svg 
  viewBox="300 0 400 400"
  xmlns="http://www.w3.org/2000/svg"
  xmlns:svg="http://www.w3.org/2000/svg">

	<path d="M627.7194,289.5283999999999L627.93,292.97599999999994L630.0203999999999,297.49999999999994L635.9562,305.573L636.8063999999999,307.57759999999996L637.1417999999999,309.668L639.4272,311.813L644.6999999999999,314.66779999999994L645.9558,316.14979999999997L646.0182,317.41339999999997L644.8248,318.8642L639.4974,323.81719999999996L636.7127999999999,327.7562L634.0061999999999,334.0118L634.794,338.8868L634.9188,342.9583999999999L634.3571999999999,346.2344L633.3666,349.2686L631.9391999999999,352.0766L630.3714,353.80039999999997L628.671,354.43219999999997L628.281,358.05139999999994L629.2092,364.6501999999999L631.401,368.56579999999997L634.8642,369.7904L637.0638,371.84959999999995L638.0075999999999,374.7355999999999L637.8983999999999,377.65279999999996L636.7361999999999,380.5933999999999L634.56,382.3016L629.7708,383.02699999999993L629.6616,383.40919999999994L625.7303999999999,384.09559999999993L605.973,386.99719999999996L596.0903999999999,388.409L576.2939999999999,391.13899999999995L566.3879999999999,392.45719999999994L546.5526,394.99999999999994L546.0611999999999,390.23419999999993L544.3919999999999,388.6898L542.3562,389.75059999999996L541.2017999999999,383.91619999999995L541.623,381.1316L541.2798,378.43279999999993L539.127,371.8573999999999L533.7293999999999,363.96379999999994L522.3725999999999,354.284L516.663,351.10159999999996L512.1468,346.99099999999993L509.32320000000004,345.88339999999994L505.80539999999996,345.6416L504.83039999999994,347.57599999999996L500.81339999999994,346.36699999999996L501.3048,341.64019999999994L497.28779999999995,335.1662L494.1132,334.50319999999994L486.1572,335.09599999999995L475.45559999999995,331.65619999999996L472.2888,329.558L471.15,325.72819999999996L466.14239999999995,322.4444L459.56699999999995,319.23859999999996L455.93219999999997,320.02639999999997L451.16639999999995,319.55839999999995L444.3648,317.234L440.4024,316.96099999999996L432.70379999999994,317.6708L429.82559999999995,317.1794L427.158,314.1998L424.2798,312.71L424.89599999999996,309.044L424.5294,305.73679999999996L424.9584,303.155L423.6792,297.49999999999994L424.6854,292.26619999999997L423.82739999999995,290.3708L422.21279999999996,288.91999999999996L417.1662,286.75939999999997L416.2458,284.06839999999994L417.0882,280.34779999999995L415.77779999999996,277.883L411.6594,275.57419999999996L407.8374,270.34819999999996L402.978,267.4622L401.0202,262.6808L398.04839999999996,259.7012L397.02660000000003,257.08039999999994L390.5058,247.67359999999996L383.5326,240.29479999999998L382.5108,236.09059999999997L382.3158,230.3498L385.12379999999996,226.8944L386.6604,223.83679999999998L386.5512,221.00539999999998L386.1534,218.93059999999997L383.7978,215.29579999999999L374.50800000000004,213.0026L367.1136,203.95459999999997L366.8094,197.12959999999998L363.9936,190.10179999999997L364.0482,185.57L363.705,180.65599999999998L365.9592,179.63419999999996L367.9482,180.06319999999997L367.7064,182.01319999999998L368.30699999999996,185.53099999999998L370.608,188.20639999999997L372.83099999999996,189.39979999999997L374.82779999999997,191.9972L376.3488,192.80059999999997L377.9244,193.01119999999997L376.224,190.289L375.17879999999997,186.87259999999998L373.1664,182.48899999999998L370.81080000000003,180.04759999999996L369.6798,175.65619999999998L368.6658,174.62659999999997L368.0496,172.9886L370.3974,171.11659999999998L373.572,169.8062L377.79179999999997,169.50979999999998L389.76480000000004,170.3288L392.33099999999996,169.24459999999996L390.9114,168.6674L388.7586,168.40999999999997L384.4842,168.57379999999998L382.7604,168.059L380.8728,166.66279999999998L379.6326,166.499L375.639,168.8156L373.8762,168.4958L369.7578,165.81259999999997L367.9482,165.40699999999998L364.9842,166.82659999999998L364.4928,173.207L365.30400000000003,177.96499999999997L363.5256,178.4174L361.5288,176.41279999999998L358.4166,175.1804L355.88160000000005,173.3396L352.3092,169.9388L350.4294,168.68299999999996L348.1986,171.374L348.144,170.1104L349.3062,166.94359999999998L349.14239999999995,161.57719999999998L352.2858,165.9374L351.3498,162.8954L348.9084,159.5258L347.01300000000003,158.32459999999998L344.75879999999995,152.32639999999998L339.4392,148.6058L335.274,142.73239999999998L326.733,132.91219999999998L326.4288,124.51939999999998L323.5896,113.8256L325.1574,107.84299999999999L325.12620000000004,103.56859999999999L323.78459999999995,97.06339999999999L322.287,93.49879999999999L315.579,83.624L309.06600000000003,76.877L308.24699999999996,71.93959999999998L307.9818,66.971L309.6354,62.63419999999999L311.09400000000005,58.063399999999994L313.0596,58.718599999999995L313.50419999999997,56.69059999999999L313.1142,55.48159999999999L316.2108,47.5802L316.2888,39.904999999999994L318.8628,30.5918L318.87839999999994,27.487399999999997L317.72400000000005,20.748199999999997L316.476,16.6922L314.0892,13.7516L315.3606,9.6488L315.423,5.6864L314.9394,5L323.29319999999996,5.3276L339.447,5.8814L355.6008,6.3416L371.7546,6.7082L387.9162,6.989L404.07779999999997,7.1762L420.2394,7.2698L436.40099999999995,7.2776L444.48179999999996,7.2463999999999995L444.6144,30.435799999999997L444.70019999999994,45.8876L444.786,61.3394L444.8718,76.78339999999999L444.9576,92.21959999999999L445.04339999999996,107.6558L445.16819999999996,130.7984L460.28459999999995,144.12859999999998L475.5336,157.3886L490.91519999999997,170.56279999999998L506.4294,183.659L512.5524,189.1658L524.8530000000001,200.14819999999997L537.2472,211.07599999999996L543.4716000000001,216.52819999999997L555.9984,227.378L564.7344,235.17019999999997L573.5093999999999,242.9312L582.3389999999999,250.6766L591.1997999999999,258.3908L600.1074,266.0816L609.0618,273.74899999999997L618.0552,281.393ZM450.2694,333.25519999999995L457.2348,335.3144L460.97099999999995,334.26919999999996L461.6574,335.28319999999997L461.22839999999997,336.18019999999996L452.7888,337.8494L450.1836,336.7496L449.93399999999997,335.2208L449.0526,333.7544ZM444.7938,339.91639999999995L442.3914,340.50139999999993L440.574,339.9632L437.6568,336.0319999999999L443.811,335.48599999999993L446.8218,337.6622ZM503.29380000000003,361.08559999999994L505.10339999999997,364.08079999999995L502.5917999999999,363.76099999999997L499.97099999999995,363.99499999999995L498.3096,360.07939999999996L497.77139999999997,359.50219999999996L495.9774,359.3383999999999L496.0944,357.47419999999994L501.7572,359.90779999999995ZM503.73839999999996,384.1112L501.7338,384.53239999999994L499.4718,383.73679999999996L497.4516,379.78999999999996L495.2676,376.7168L496.3986,375.8041999999999L498.17699999999996,378.7682L502.58399999999995,383.2376ZM465.8382,368.68279999999993L462.1878,368.4176L461.0802,366.21019999999993L464.403,366.32719999999995ZM435.7926,335.57959999999997L433.9752,335.68879999999996L431.1828,335.25199999999995L433.7022,333.58279999999996Z" stroke="#444" fill="#f9f9f9"></path>

	<path d="M325.9826274861158,7.9975354321131515L334.40290460413763,18.022140231465514C342.8231817221595,28.046745030817878,359.66373595820323,48.0959546295226,369.57720430475257,64.6944310323969C379.490672651302,81.29290743527123,382.47705510835704,94.44065064231513,394.95962634081644,120.14287958288692C407.4421975732759,145.84510852345872,429.4209575811397,184.10182319755836,469.9354624190872,229.14339398940675C510.44996725703453,274.18496478125513,569.5002169250655,326.01139169085235,599.025341759081,351.9246051456509L628.5504665930964,377.83781860044945" id="O-centerline-98" stroke="none" fill="none"></path>

	<text class="label" dy="0.35em" fill="#444" style="font-size: 55.758936928456144px;">
		<textPath href="https://veltman.static.observableusercontent.com/worker/worker.b7d88aad90c4422c693206ab16e431ce37991763b35824f0dcf6dc4089a60b3d.html?collection=@observablehq/explorables#O-centerline-98" startOffset="50%" text-anchor="middle">California</textPath>
	</text>
</svg>