<?xml version="1.0" encoding="UTF-8" standalone="no"?>
<svg
   xmlns:dc="http://purl.org/dc/elements/1.1/"
   xmlns:cc="http://creativecommons.org/ns#"
   xmlns:rdf="http://www.w3.org/1999/02/22-rdf-syntax-ns#"
   xmlns:svg="http://www.w3.org/2000/svg"
   xmlns="http://www.w3.org/2000/svg"
   xmlns:xlink="http://www.w3.org/1999/xlink"
   id="svg15"
   version="1.1"
   height="320"
   width="512"><metadata
   id="metadata19">
  <rdf:RDF>
    <cc:Work
       rdf:about="">
      <dc:format>image/svg+xml</dc:format>
      <dc:type
         rdf:resource="http://purl.org/dc/dcmitype/StillImage" />
      <dc:title></dc:title>
    </cc:Work>
  </rdf:RDF>
</metadata>
<rect
   id="rect2"
   style="fill:rgb(159, 53, 58); stroke-width:1px; stroke:rgb(159, 53, 58)"
   height="320"
   width="512" />
<defs
   id="defs5">
  <path
     d="M97.905 67.885c.174 18.8 16.494 25.057 16.674 25.137-.138.44-2.607 8.916-8.597 17.669-5.178 7.568-10.553 15.108-19.018 15.266-8.318.152-10.993-4.934-20.504-4.934-9.508 0-12.479 4.776-20.354 5.086-8.172.31-14.395-8.185-19.616-15.724-10.668-15.424-18.821-43.585-7.874-62.594 5.438-9.44 15.158-15.417 25.707-15.571 8.024-.153 15.598 5.398 20.503 5.398 4.902 0 14.106-6.676 23.782-5.696 4.051.169 15.421 1.636 22.722 12.324-.587.365-13.566 7.921-13.425 23.639m-15.633-46.166c4.338-5.251 7.258-12.563 6.462-19.836-6.254.251-13.816 4.167-18.301 9.416-4.02 4.647-7.54 12.087-6.591 19.216 6.971.54 14.091-3.542 18.43-8.796 Z"
     id="path4_apple"
     transform="translate(128, 20) scale(2.0)" />
</defs>
<use
   id="use7"
   transform="translate(64, 0) scale(0.5)"
   style="fill:#f9eced"
   xlink:href="#path4_apple"
   fill="#f9eced" />
<!-- Red circle which will be moved along the motion path. -->
<circle
   id="circle9"
   fill="#f9eced"
   r="6"
   cy=""
   cx=""
   transform="translate(128, 10)">
  <!-- Define the motion path animation -->
  <animateMotion
     repeatCount="indefinite"
     dur="6s">
    <mpath
       xlink:href="#path4_apple" />
  </animateMotion>
</circle>
<!-- Red circle which will be moved along the motion path. -->
<circle
   id="circle11"
   fill="#9f353a"
   r="5"
   cy=""
   cx=""
   transform="translate(128, 10)">
  <!-- Define the motion path animation -->
  <animateMotion
     repeatCount="indefinite"
     dur="6s">
    <mpath
       xlink:href="#path4_apple" />
  </animateMotion>
</circle>
<text
   id="text13"
   style="font-size:36px; writing-mode:tb; fill:none; stroke:#f9eced;"
   y="20"
   x="128">
				♪作業五♪
			  <animateMotion
   repeatCount="indefinite"
   dur="6s">
  <mpath
     xlink:href="#path4_apple" />
</animateMotion>
</text>

		  Sorry, your browser does not support inline SVG.
		</svg>
