<?xml version="1.0" encoding="UTF-8" standalone="no"?>
<svg
   xmlns:dc="http://purl.org/dc/elements/1.1/"
   xmlns:cc="http://creativecommons.org/ns#"
   xmlns:rdf="http://www.w3.org/1999/02/22-rdf-syntax-ns#"
   xmlns:svg="http://www.w3.org/2000/svg"
   xmlns="http://www.w3.org/2000/svg"
   xmlns:xlink="http://www.w3.org/1999/xlink"
   id="svg29"
   version="1.1"
   viewBox="0 0 512 256"
   height="256"
   width="512">
  <metadata
     id="metadata33">
    <rdf:RDF>
      <cc:Work
         rdf:about="">
        <dc:format>image/svg+xml</dc:format>
        <dc:type
           rdf:resource="http://purl.org/dc/dcmitype/StillImage" />
        <dc:title></dc:title>
      </cc:Work>
    </rdf:RDF>
  </metadata>
  <rect
     id="rect2"
     style="fill:rgb(159, 53, 58); stroke-width:1px; stroke:rgb(159, 53, 58)"
     width="512"
     height="256" />
  <rect
     id="rect4"
     style="fill:none; stroke-width:1px; stroke:rgb(159, 53, 58)"
     height="256"
     width="512" />
  <defs
     id="defs19">
    <g
       id="group_goshichi">
      <svg
         id="svg2314"
         height="256"
         width="512"
         version="1">
        <path
           stroke-width=".418"
           d="M125.084 67.297c1.81-1.382 2.45-1.594 4.642-1.54 1.098.028 2.096.133 2.218.234.567.471 4.226 1.083 5.42.907.926-.137 1.987-.882 2.534-1.78.456-.749.499-2.214.084-2.939-.383-.67-.374-1.51.028-2.632.423-1.18.27-1.782-.732-2.87-.594-.644-1.088-.948-1.977-1.217-1.164-.352-1.204-.351-2.322.067-1.408.527-1.738.53-2.73.025-1.55-.792-3.755-.344-4.878.99-.609.724-.669 1.334-.334 3.4.316 1.949-.374 3.529-1.901 4.351-1.35.727-1.72-.266-1.723-4.601 0-3.509.181-4.276 1.294-5.448 1.205-1.27 2.646-1.77 4.664-1.622 4.88.359 5.542.345 6.481-.133 1.398-.709 1.7-1.27 1.663-3.085-.024-1.148.068-1.751.364-2.401.562-1.233.522-2.621-.103-3.54-.585-.861-2.212-1.569-3.609-1.569-.589 0-1.283-.207-2.106-.628-.954-.488-1.398-.605-1.993-.526-.99.133-2.348.997-2.84 1.807-.566.93-1.003 3.101-1.009 5.01-.004 1.891-.365 2.916-1.352 3.843-.434.407-.767.549-1.178.502-.494-.057-.592-.176-.714-.87-.232-1.316-.159-6.562.102-7.26.307-.827 1.62-2.276 2.701-2.984.523-.341 1.252-1.147 1.858-2.054.91-1.36.998-1.596.998-2.651 0-1.528-.529-2.328-2.07-3.126-.64-.332-1.406-.92-1.704-1.306-.862-1.119-1.692-1.8-2.45-2.011-1.566-.435-2.267-.15-3.678 1.49-.54.63-1.202 1.18-1.506 1.255-2.08.514-3.778 3.32-3.089 5.104.301.777 2.12 2.676 3.34 3.486 2.624 1.741 3.526 3.821 3.526 8.134 0 3.076-.266 3.398-1.754 2.124-1.098-.94-1.621-2.095-1.871-4.133-.274-2.228-.72-3.782-1.267-4.414-.245-.282-.877-.723-1.406-.978-1.2-.582-1.992-.499-3.87.404-1 .481-1.742.687-2.686.747-1.068.067-1.41.178-1.876.613-1.265 1.179-1.43 2.265-.604 3.956.533 1.088.534 1.09.171 1.895-.348.772-.348.839-.01 1.591.21.462.734 1.058 1.278 1.448.8.576 1.068.658 2.045.631.617-.017 1.37-.125 1.671-.24.302-.114 1.654-.268 3.004-.34 2.252-.12 2.534-.095 3.413.306 1.197.545 2.722 2.138 3.244 3.388.338.81.393 1.385.375 3.898-.025 3.349-.214 4.042-1.127 4.147-1.182.136-1.901-1.273-2.158-4.223-.122-1.407-.319-2.318-.663-3.07-.442-.965-.612-1.126-1.793-1.69-1.897-.905-2.301-.845-4.66.688-.853.553-1.236.666-2.531.744-1.724.103-2.276.4-2.965 1.598-.586 1.018-.54 1.764.199 3.228.6 1.19.618 1.29.381 2.213-.33 1.288-.136 2.16.665 2.981.818.839 2.189 1.27 3.962 1.243 1.114-.016 1.55-.139 2.812-.79 1.361-.701 1.635-.77 3.1-.773 1.665-.005 1.982.11 3.35 1.217.476.386.775.434 2.675.427 2.09-.007 2.157-.022 2.977-.648z"
           id="path2319" />
        <path
           stroke-width=".418"
           d="M186.764 62.517c-.64-.874-.647-.907-.519-2.503.114-1.432.08-1.695-.29-2.281-.54-.857-1.788-1.54-2.8-1.531-.437.004-1.514.11-2.394.237-1.44.207-1.725.189-2.855-.181l-1.257-.411-1.367.42c-1.093.336-1.527.597-2.16 1.296-1.315 1.452-1.725 2.972-2.587 9.596-.254 1.952-.572 2.616-1.254 2.622-1.163.01-1.363-1.004-1.186-6.038.173-4.953.408-5.974 1.715-7.454 1.055-1.194 3.005-2.343 4.23-2.492.497-.061 2.394-.222 4.215-.358 4.437-.333 5.93-.92 6.808-2.68.507-1.018.497-1.212-.165-3.033-.528-1.448-.543-1.585-.298-2.647.213-.924.21-1.236-.01-1.782a3.68 3.68 0 0 0-2.131-2.065c-.756-.281-.938-.282-1.72-.01-.81.282-.95.275-1.886-.095-1.478-.583-1.76-.607-2.808-.24-2.203.77-3.327 2.4-3.866 5.611-.194 1.155-.308 2.5-.254 2.989.123 1.108-.347 2.111-1.292 2.755-.874.595-1.32.587-1.956-.038l-.516-.507.033-3.958c.034-3.921.04-3.967.59-4.924.981-1.702 3.923-3.695 6.797-4.603 1.629-.514 2.39-.546 3.543-.151.495.17 1.553.287 2.508.279 1.388-.012 1.76-.089 2.328-.478.371-.256.791-.689.933-.963.397-.766.167-2.088-.509-2.92-1.051-1.296-1.16-1.604-.81-2.319.986-2.022-.367-4.18-2.608-4.16-.796.007-1.04-.096-1.69-.71-1.55-1.467-2.509-1.768-3.676-1.15-1.376.726-2.044 2.31-2.976 7.043-.655 3.334-1.149 4.557-2.23 5.523-.76.68-1.099.769-1.714.447-.566-.297-.665-1.226-.486-4.554.217-4.043.45-4.556 3.397-7.52 2.66-2.674 3.245-3.75 3.221-5.917-.012-1.18-.095-1.483-.604-2.204-.36-.51-.966-1.018-1.555-1.304-.59-.286-1.486-1.038-2.3-1.926-.732-.802-1.607-1.551-1.943-1.665a3.398 3.398 0 0 0-1.657-.146 3.398 3.398 0 0 0-1.658.146c-.336.114-1.21.863-1.943 1.665-.813.888-1.71 1.64-2.3 1.926-.589.286-1.196.795-1.555 1.304-.51.721-.592 1.024-.604 2.204-.024 2.167.562 3.243 3.221 5.917 2.948 2.964 3.18 3.477 3.397 7.52.179 3.328.08 4.257-.486 4.554-.615.322-.953.234-1.714-.447-1.081-.966-1.575-2.189-2.23-5.523-.931-4.733-1.6-6.317-2.976-7.044-1.167-.617-2.125-.316-3.676 1.15-.65.615-.894.718-1.69.711-2.241-.02-3.594 2.138-2.608 4.16.349.715.241 1.023-.81 2.319-.676.832-.906 2.154-.509 2.92.142.274.562.707.933.963.567.39.94.466 2.327.478.956.008 2.014-.11 2.51-.28 1.152-.394 1.913-.362 3.542.152 2.874.908 5.816 2.9 6.797 4.603.55.957.557 1.003.59 4.924l.033 3.958-.515.507c-.636.625-1.082.633-1.957.038-.944-.644-1.415-1.647-1.292-2.755.054-.489-.06-1.834-.254-2.989-.539-3.211-1.662-4.842-3.866-5.612-1.049-.366-1.33-.342-2.808.241-.937.37-1.075.377-1.886.095-.782-.272-.964-.271-1.72.01a3.68 3.68 0 0 0-2.13 2.065c-.222.546-.224.858-.011 1.782.245 1.062.23 1.199-.298 2.647-.662 1.82-.672 2.015-.165 3.033.879 1.76 2.371 2.347 6.808 2.68 1.821.136 3.718.297 4.215.358 1.226.15 3.175 1.298 4.23 2.492 1.307 1.48 1.541 2.5 1.715 7.454.177 5.034-.022 6.049-1.186 6.038-.682-.006-1-.67-1.254-2.622-.862-6.624-1.272-8.144-2.586-9.596-.634-.7-1.068-.96-2.161-1.296l-1.367-.42-1.257.41c-1.13.37-1.416.389-2.855.182-.88-.126-1.957-.233-2.394-.237-1.012-.009-2.26.674-2.8 1.53-.37.587-.404.85-.29 2.282.128 1.596.12 1.629-.519 2.503-.91 1.244-1.062 1.89-.723 3.07.469 1.635 2.728 3.26 4.962 3.569.543.075 1.085.198 1.202.273.118.075 1.614.2 3.326.278 2.77.125 3.233.198 4.213.662 1.187.56 2.01 1.263 2.88 2.46.06.083.607.777.993 1.262a5.19 5.19 0 0 1 6.328.009c.336-.422.886-1.139.981-1.27.872-1.198 1.694-1.9 2.88-2.461.982-.464 1.443-.537 4.214-.662 1.712-.078 3.208-.203 3.326-.278.117-.075.659-.198 1.202-.273 2.234-.31 4.493-1.934 4.963-3.57.338-1.178.186-1.825-.724-3.07z"
           id="path2321" />
        <path
           stroke-width=".418"
           d="M208.42 67.297c-1.81-1.382-2.45-1.594-4.642-1.54-1.097.028-2.095.133-2.217.234-.568.471-4.226 1.083-5.42.907-.926-.137-1.987-.882-2.534-1.78-.456-.749-.499-2.214-.084-2.939.383-.67.374-1.51-.028-2.632-.423-1.18-.27-1.782.732-2.87.594-.644 1.087-.948 1.977-1.217 1.164-.352 1.204-.351 2.322.067 1.408.527 1.738.53 2.73.025 1.55-.792 3.755-.344 4.878.99.61.724.67 1.334.334 3.4-.317 1.949.374 3.529 1.901 4.351 1.35.727 1.72-.266 1.722-4.601.002-3.509-.18-4.276-1.293-5.448-1.205-1.27-2.647-1.77-4.664-1.622-4.88.359-5.542.345-6.482-.133-1.397-.709-1.699-1.27-1.662-3.085.024-1.148-.068-1.751-.365-2.401-.561-1.233-.521-2.621.104-3.54.584-.861 2.212-1.569 3.609-1.569.589 0 1.283-.207 2.106-.628.954-.488 1.398-.605 1.992-.526.99.133 2.349.997 2.841 1.807.566.93 1.003 3.101 1.008 5.01.005 1.891.366 2.916 1.353 3.843.434.407.767.549 1.178.502.494-.057.592-.176.714-.87.232-1.316.158-6.562-.102-7.26-.308-.827-1.62-2.276-2.701-2.984-.523-.341-1.252-1.147-1.858-2.054-.91-1.36-.998-1.596-.998-2.651 0-1.528.529-2.328 2.07-3.126.64-.332 1.406-.92 1.704-1.306.861-1.119 1.692-1.8 2.45-2.011 1.566-.435 2.267-.15 3.677 1.49.541.63 1.203 1.18 1.507 1.255 2.08.514 3.778 3.32 3.088 5.104-.3.777-2.119 2.676-3.34 3.486-2.623 1.741-3.525 3.821-3.525 8.134 0 3.076.266 3.398 1.754 2.124 1.097-.94 1.62-2.095 1.87-4.133.274-2.228.72-3.782 1.268-4.414.245-.282.877-.723 1.406-.978 1.2-.582 1.992-.499 3.87.404 1 .481 1.741.687 2.686.747 1.068.067 1.41.178 1.876.613 1.265 1.179 1.43 2.265.603 3.956-.533 1.088-.533 1.09-.17 1.895.348.772.348.839.01 1.591-.21.462-.735 1.058-1.278 1.448-.8.576-1.068.658-2.045.631-.617-.017-1.37-.125-1.672-.24-.302-.114-1.653-.268-3.004-.34-2.252-.12-2.533-.095-3.412.306-1.197.545-2.722 2.138-3.244 3.388-.338.81-.393 1.385-.375 3.898.025 3.349.213 4.042 1.126 4.147 1.182.136 1.902-1.273 2.159-4.223.121-1.407.318-2.318.662-3.07.443-.965.613-1.126 1.794-1.69 1.897-.905 2.301-.845 4.66.688.852.553 1.236.666 2.53.744 1.725.103 2.277.4 2.966 1.598.586 1.018.54 1.764-.2 3.228-.6 1.19-.617 1.29-.38 2.213.33 1.288.135 2.16-.665 2.981-.818.839-2.19 1.27-3.962 1.243-1.114-.016-1.551-.139-2.812-.79-1.362-.701-1.635-.77-3.1-.773-1.666-.005-1.983.11-3.35 1.217-.477.386-.775.434-2.675.427-2.09-.007-2.157-.022-2.977-.648z"
           id="path2323" />
        <circle
           stroke-width=".418"
           cx="166.753"
           cy="78.239"
           r="4.161"
           id="circle35" />
        <path
           stroke-width=".418"
           d="M167.819 82.86c-.141 1.545-.279 3.154-.342 4.694 6.925 3.627 13.378 8.383 18.002 14.756 4.548 6.936 8.146 15.323 7.016 23.829-.587-3.042-.773-6.085-1.44-9.126-3.07-12.239-12.293-22.18-23.404-27.858-.067 1.604-.053 3.206-.04 4.81 5.882 3.398 11.132 8.083 14.789 13.902 4.96 8.216 6.333 18.864 2.643 27.955.756-5.297 1.11-10.672.505-15.957-1.771-10.327-8.662-19.405-17.921-24.217-.063 2.166-.045 4.25-.107 6.414 4.753 2.765 9.035 6.737 11.324 11.848 3.596 8.065 3.6 17.926-.422 25.897 1.145-6.825 2.848-13.814.787-20.61-1.42-6.64-5.956-12.293-11.835-15.37.096 1.762-.446 3.932.85 5.443 7.448 8.755 8.925 22.13 4.042 32.431.37-3.61 1.383-7.144 1.351-10.833.5-7.137-1.327-14.737-6.184-20.148-.082 9.14.156 18.277.073 27.335a18.197 18.197 0 0 1-.686 4.175c-.027-.118-.043-.237-.067-.356-.025.119-.04.238-.067.356a18.176 18.176 0 0 1-.686-4.175c-.083-9.058.154-18.195.073-27.335-4.856 5.411-6.685 13.01-6.185 20.148-.03 3.69.98 7.223 1.351 10.833-4.88-10.301-3.404-23.676 4.044-32.431 1.295-1.511.753-3.681.848-5.443-5.877 3.077-10.415 8.73-11.835 15.37-2.06 6.796-.357 13.785.788 20.61-4.022-7.971-4.018-17.832-.423-25.897 2.29-5.111 6.572-9.083 11.325-11.848-.063-2.165-.044-4.248-.107-6.414-9.258 4.812-16.15 13.89-17.922 24.217-.605 5.285-.25 10.66.507 15.957-3.691-9.09-2.317-19.74 2.641-27.955 3.658-5.82 8.909-10.504 14.789-13.902.014-1.604.027-3.206-.04-4.81-11.11 5.678-20.333 15.62-23.402 27.858-.667 3.04-.853 6.084-1.44 9.126-1.131-8.506 2.466-16.893 7.015-23.829 4.624-6.373 11.077-11.129 18.003-14.756-.065-1.54-.203-3.149-.342-4.694-18.705 6.513-31.427 26.406-30.712 45.954.299 2.646 2.446 4.43 4.519 5.809 1.278.653 1.342 2.256 1.977 3.464 2.195 5.63 9.143 8.575 14.77 6.86 2.902 2.563 6.47 5.051 10.511 4.926 4.04.125 7.61-2.363 10.51-4.926 5.627 1.715 12.576-1.23 14.772-6.86.632-1.208.698-2.811 1.975-3.464 2.073-1.38 4.222-3.163 4.52-5.81.715-19.547-12.008-39.44-30.711-45.953z"
           id="path16" />
        <path
           stroke-width=".418"
           d="M183.798 83.886l-6.512-2.348c.82 2.078 1.24 4.479 2.618 6.23 2.342 1.984 4.683 3.969 6.866 6.195-1.15-3.358-2.06-6.716-2.972-10.077z"
           id="path18" />
        <path
           stroke-width=".418"
           d="M233.237 90.68c1.163-4.498.881-9.385-1.877-13.21-3.49-5.26-10.077-6.727-15.86-8.041-14.844-2.265-30.63.406-44.633 5.676a5.148 5.148 0 0 1 1.063 3.134c0 .119-.01.235-.017.351 1.157.463 3.025 1.069 4.158 1.435 8.217-4.639 17.73-7.766 27.28-6.404 8.588 1.29 17.273 4.422 23.657 10.54-7.895-4.662-16.348-8.839-25.65-9.32-8.104-.814-16.018 1.739-23.04 5.566 2.09.784 4.105 1.97 6.432 2.19 1.68-.255 3.278-.99 4.877-1.484 14.308-4.771 31.194 1.338 39.954 13.367-1.775-1.348-3.312-3.018-5.007-4.446-5.652-4.681-12.65-7.589-19.796-8.89-6.181-1.07-12.424.186-18.258 2.318 1.693.95 3.305 2.058 5.155 2.763 5.289-.205 10.892-1.134 15.96.906 8.765 3.212 16.833 9.397 21.153 17.777-4.693-5.17-9.149-10.664-15.43-13.977-5.721-3.558-12.787-4.782-19.43-3.683 2.742 1.98 5.41 4.605 9.019 4.733 10.514 1.594 19.005 10.26 21.496 20.5-2.35-3.027-3.584-6.784-6.094-9.649-3.89-5.096-9.693-8.736-16.113-9.562 8.163 7.787 15.542 17.744 15.801 29.445-2.656-10.72-7.876-21.256-16.671-28.155 2.312 8.077 7.5 14.766 11.57 22.027-2.262-1.826-3.805-4.377-5.428-6.767-3.169-4.865-6.098-9.97-7.908-15.485-.749-3.12-4.205-4.214-6.543-5.876 1.578 6.559 4.357 12.788 7.613 18.693 2.932 5.425 7.061 10.2 10.393 15.463-9.62-9.378-16.377-21.586-19.613-34.624-1.3-1.833-4.03-2.37-5.962-3.477 1.328 5.44 2.739 11.04 5.985 15.66 2.842 4.306 4.967 9.098 7.251 13.728 1.63 3.193 3.979 5.978 5.61 9.251-2.26-1.826-3.725-4.378-5.588-6.607.51 3.364 1.02 6.805 1.29 10.251 2.57.618 5.383 1.396 7.939.333 1.68-.335 3.272-1.63 4.961-1.006 2.41.622 4.98 1.16 7.377.259 5.6-1.41 9.24-6.972 9.433-12.585 4.395-1.64 8.131-5.28 8.973-10.017 1.079-4.979-1.45-10.167-5.482-13.1z"
           id="path24" />
        <path
           stroke-width=".418"
           d="M170.17 82.122c2.206 1.166 4.918 2.694 7.073 3.824-.495-1.598-1.07-3.276-1.645-4.955-1.093-.281-2.704-.84-3.895-1.232a5.173 5.173 0 0 1-1.532 2.363z"
           id="path26" />
        <path
           stroke-width=".418"
           d="M162.65 75.089c-14.017-5.284-29.78-7.928-44.643-5.66-5.785 1.314-12.37 2.78-15.86 8.042-2.76 3.824-3.042 8.71-1.877 13.21-4.033 2.933-6.562 8.121-5.484 13.1.842 4.738 4.579 8.376 8.975 10.017.191 5.613 3.832 11.175 9.431 12.585 2.398.902 4.967.363 7.377-.259 1.69-.625 3.28.67 4.961 1.006 2.557 1.063 5.37.285 7.939-.333.27-3.446.782-6.887 1.29-10.25-1.862 2.228-3.326 4.78-5.586 6.606 1.63-3.273 3.979-6.058 5.61-9.251 2.283-4.63 4.407-9.422 7.25-13.727 3.246-4.621 4.656-10.22 5.984-15.66-1.933 1.106-4.662 1.643-5.962 3.476-3.236 13.038-9.992 25.246-19.613 34.624 3.332-5.264 7.461-10.038 10.392-15.463 3.258-5.905 6.037-12.134 7.616-18.693-2.34 1.662-5.795 2.756-6.543 5.876-1.81 5.515-4.74 10.62-7.908 15.485-1.624 2.39-3.167 4.941-5.43 6.767 4.07-7.261 9.26-13.95 11.572-22.027-8.796 6.899-14.017 17.436-16.672 28.155.259-11.7 7.638-21.658 15.802-29.445-6.42.826-12.224 4.466-16.115 9.562-2.508 2.865-3.743 6.622-6.093 9.65 2.492-10.242 10.983-18.907 21.497-20.501 3.607-.128 6.276-2.752 9.018-4.733-6.643-1.099-13.708.125-19.432 3.683-6.279 3.313-10.734 8.807-15.429 13.977 4.321-8.38 12.389-14.565 21.155-17.777 5.067-2.04 10.67-1.111 15.958-.906 1.85-.705 3.464-1.814 5.155-2.763-5.832-2.132-12.076-3.388-18.256-2.318-7.146 1.301-14.146 4.209-19.797 8.89-1.696 1.428-3.232 3.098-5.007 4.446 8.76-12.029 25.646-18.138 39.953-13.367 1.6.494 3.197 1.23 4.877 1.484 2.328-.22 4.342-1.406 6.434-2.19-7.024-3.827-14.937-6.38-23.04-5.567-9.305.482-17.756 4.659-25.653 9.321 6.385-6.118 15.07-9.25 23.66-10.54 9.55-1.362 19.062 1.765 27.28 6.404 1.206-.39 2.904-.939 4.03-1.41.044-.06.079-.12.119-.181-.003-.065-.01-.13-.01-.195 0-1.187.404-2.277 1.075-3.15z"
           id="path28" />
        <path
           stroke-width=".418"
           d="M161.811 79.79c-1.192.387-2.805.918-3.904 1.201a183.128 183.128 0 0 0-1.645 4.955c2.197-1.152 4.86-2.647 7.08-3.818a5.18 5.18 0 0 1-1.53-2.339z"
           id="path30" />
        <path
           stroke-width=".418"
           d="M146.735 93.963c2.185-2.226 4.525-4.21 6.866-6.195 1.379-1.751 1.8-4.152 2.62-6.23l-6.513 2.348c-.91 3.36-1.822 6.72-2.973 10.077z"
           id="path32" />
      </svg>
    </g>
  </defs>
  <use
     id="use21"
     style="fill:#f9eced"
     xlink:href="#group_goshichi" />
  <!-- Red circle which will be moved along the motion path. -->
  <circle
     id="circle23"
     fill="#f9eced"
     r="6"
     cy=""
     cx="">
    <!-- Define the motion path animation -->
    <animateMotion
       repeatCount="indefinite"
       dur="6s">
      <mpath
         xlink:href="#path2321" />
    </animateMotion>
  </circle>
  <!-- Red circle which will be moved along the motion path. -->
  <circle
     id="circle25"
     fill="#9f353a"
     r="5"
     cy=""
     cx="">
    <!-- Define the motion path animation -->
    <animateMotion
       repeatCount="indefinite"
       dur="6s">
      <mpath
         xlink:href="#path2321" />
    </animateMotion>
  </circle>
  <text
     id="text27"
     style="font-size:36px; writing-mode:tb; fill:none; stroke:#f9eced;"
     y="-50"
     x="-30">
				♪作業十♪
			  <animateMotion
   repeatCount="indefinite"
   dur="6s">
  <mpath
     xlink:href="#path2321" />
</animateMotion>
</text>
</svg>
