<?xml version="1.0" encoding="iso-8859-1"?>
<!-- Generator: Adobe Illustrator 19.0.0, SVG Export Plug-In . SVG Version: 6.00 Build 0)  -->
<svg version="1.1" id="Layer_1" xmlns="http://www.w3.org/2000/svg" xmlns:xlink="http://www.w3.org/1999/xlink" x="0px" y="0px"
	 viewBox="0 0 503.467 503.467" style="enable-background:new 0 0 503.467 503.467;" xml:space="preserve">
<g transform="translate(1 1)">
	<path style="fill:#ECF4F7;" d="M208.067,464.067H293.4v-85.333h-85.333V464.067z M208.067,293.4h204.8
		c-9.387,0-17.067,7.68-17.067,17.067v68.267H293.4h-85.333V293.4z M361.667,498.2H191c9.387,0,17.067-7.68,17.067-17.067v-17.067
		H293.4h34.133C361.667,464.067,361.667,498.2,361.667,498.2z"/>
	<path style="fill:#FFE079;" d="M208.067,464.067v17.067c0,9.387-7.68,17.067-17.067,17.067H20.333
		c-9.387,0-17.067-7.68-17.067-17.067V242.2c0-9.387,7.68-17.067,17.067-17.067H191c9.387,0,17.067,7.68,17.067,17.067v51.2v85.333
		V464.067z"/>
	<path style="fill:#7EE1E6;" d="M498.2,310.467v170.667c0,9.387-7.68,17.067-17.067,17.067h-68.267
		c-9.387,0-17.067-7.68-17.067-17.067v-102.4v-68.267c0-9.387,7.68-17.067,17.067-17.067h68.267
		C490.52,293.4,498.2,301.08,498.2,310.467"/>
	<g>
		<path style="fill:#AAB1BA;" d="M498.2,37.4v273.067c0-9.387-7.68-17.067-17.067-17.067h-68.267h-204.8v-51.2
			c0-9.387-7.68-17.067-17.067-17.067H20.333c-9.387,0-17.067,7.68-17.067,17.067V37.4c0-18.773,15.36-34.133,34.133-34.133h426.667
			C482.84,3.267,498.2,18.627,498.2,37.4"/>
		<path style="fill:#AAB1BA;" d="M250.733,327.533c5.12,0,8.533,4.267,8.533,8.533s-3.413,8.533-8.533,8.533
			c-5.12,0-8.533-4.267-8.533-8.533S245.613,327.533,250.733,327.533z M447,464.067c5.12,0,8.533,4.267,8.533,8.533
			c0,4.267-3.413,8.533-8.533,8.533s-8.533-4.267-8.533-8.533C438.467,468.333,441.88,464.067,447,464.067z M105.667,464.067
			c4.267,0,8.533,4.267,8.533,8.533c0,4.267-4.267,8.533-8.533,8.533c-4.267,0-8.533-4.267-8.533-8.533
			C97.133,468.333,101.4,464.067,105.667,464.067z"/>
	</g>
</g>
<path style="fill:#51565F;" d="M482.133,503.467h-68.267c-11.947,0-21.333-9.387-21.333-21.333V311.467
	c0-11.947,9.387-21.333,21.333-21.333h68.267c11.947,0,21.333,9.387,21.333,21.333v170.667
	C503.467,494.08,494.08,503.467,482.133,503.467z M413.867,298.667c-6.827,0-12.8,5.973-12.8,12.8v170.667
	c0,6.827,5.973,12.8,12.8,12.8h68.267c6.827,0,12.8-5.973,12.8-12.8V311.467c0-6.827-5.973-12.8-12.8-12.8H413.867z
	 M362.667,503.467H243.2c-2.56,0-4.267-1.707-4.267-4.267c0-2.56,1.707-4.267,4.267-4.267h115.2
	c-0.853-8.533-6.827-25.6-29.867-25.6H294.4c-2.56,0-4.267-1.707-4.267-4.267v-51.2c0-2.56,1.707-4.267,4.267-4.267
	s4.267,1.707,4.267,4.267V460.8h29.867c30.72,0,38.4,24.747,38.4,38.4C366.933,501.76,365.227,503.467,362.667,503.467z
	 M192,503.467H21.333C9.387,503.467,0,494.08,0,482.133V243.2c0-11.947,9.387-21.333,21.333-21.333H192
	c11.947,0,21.333,9.387,21.333,21.333v238.933C213.333,494.08,203.947,503.467,192,503.467z M21.333,230.4
	c-6.827,0-12.8,5.973-12.8,12.8v238.933c0,6.827,5.973,12.8,12.8,12.8H192c6.827,0,12.8-5.973,12.8-12.8V243.2
	c0-6.827-5.973-12.8-12.8-12.8H21.333z M448,486.4c-6.827,0-12.8-5.973-12.8-12.8c0-6.827,5.973-12.8,12.8-12.8
	s12.8,5.973,12.8,12.8C460.8,480.427,454.827,486.4,448,486.4z M448,469.333c-2.56,0-4.267,1.707-4.267,4.267
	c0,2.56,1.707,4.267,4.267,4.267s4.267-1.707,4.267-4.267C452.267,471.04,450.56,469.333,448,469.333z M106.667,486.4
	c-6.827,0-12.8-5.973-12.8-12.8c0-6.827,5.973-12.8,12.8-12.8s12.8,5.973,12.8,12.8C119.467,480.427,113.493,486.4,106.667,486.4z
	 M106.667,469.333c-2.56,0-4.267,1.707-4.267,4.267c0,2.56,1.707,4.267,4.267,4.267s4.267-1.707,4.267-4.267
	C110.933,471.04,109.227,469.333,106.667,469.333z M260.267,469.333H243.2c-2.56,0-4.267-1.707-4.267-4.267
	c0-2.56,1.707-4.267,4.267-4.267h17.067c2.56,0,4.267,1.707,4.267,4.267C264.533,467.627,262.827,469.333,260.267,469.333z
	 M362.667,384H243.2c-2.56,0-4.267-1.707-4.267-4.267c0-2.56,1.707-4.267,4.267-4.267h119.467c2.56,0,4.267,1.707,4.267,4.267
	C366.933,382.293,365.227,384,362.667,384z M251.733,349.867c-6.827,0-12.8-5.973-12.8-12.8s5.973-12.8,12.8-12.8
	c6.827,0,12.8,5.973,12.8,12.8S258.56,349.867,251.733,349.867z M251.733,332.8c-2.56,0-4.267,1.707-4.267,4.267
	s1.707,4.267,4.267,4.267c2.56,0,4.267-1.707,4.267-4.267S254.293,332.8,251.733,332.8z M362.667,298.667H243.2
	c-2.56,0-4.267-1.707-4.267-4.267c0-2.56,1.707-4.267,4.267-4.267h119.467c2.56,0,4.267,1.707,4.267,4.267
	C366.933,296.96,365.227,298.667,362.667,298.667z M499.2,264.533c-2.56,0-4.267-1.707-4.267-4.267V38.4
	c0-16.213-13.653-29.867-29.867-29.867H38.4C22.187,8.533,8.533,22.187,8.533,38.4V192c0,2.56-1.707,4.267-4.267,4.267
	S0,194.56,0,192V38.4C0,17.067,17.067,0,38.4,0h426.667c21.333,0,38.4,17.067,38.4,38.4v221.867
	C503.467,262.827,501.76,264.533,499.2,264.533z M448,128c-0.853,0-2.56,0-3.413-0.853L376.32,58.88
	c-0.853-0.853-0.853-1.707-0.853-3.413c0-1.707,0-2.56,0.853-3.413c1.707-1.707,4.267-1.707,5.973,0l68.267,68.267
	c0.853,0.853,0.853,1.707,0.853,3.413c0,1.707,0,2.56-0.853,3.413C449.707,128,448.853,128,448,128z M448,76.8
	c-0.853,0-2.56,0-3.413-0.853L427.52,58.88c-0.853-0.853-0.853-1.707-0.853-3.413c0-1.707,0-2.56,0.853-3.413
	c1.707-1.707,4.267-1.707,5.973,0L450.56,69.12c0.853,0.853,0.853,1.707,0.853,3.413c0,1.707,0,2.56-0.853,3.413
	C449.707,76.8,448.853,76.8,448,76.8z"/>
<g>
</g>
<g>
</g>
<g>
</g>
<g>
</g>
<g>
</g>
<g>
</g>
<g>
</g>
<g>
</g>
<g>
</g>
<g>
</g>
<g>
</g>
<g>
</g>
<g>
</g>
<g>
</g>
<g>
</g>
</svg>
