<svg id="コンポーネント_3_17" data-name="コンポーネント 3 – 17" xmlns="http://www.w3.org/2000/svg" width="186.188" height="150" viewBox="0 0 186.188 150">
  <g id="Arm" transform="translate(0 96.457)">
    <path id="パス_4006" data-name="パス 4006" d="M45.246,547.617c-3.663-.055-7.1-.043-10.529.2-2.53.18-5.059.3-7.594.335-2.007.03-3.227-.654-3.76-2.158a4.065,4.065,0,0,1,1.6-4.392,8.856,8.856,0,0,1,.752-.493,7.13,7.13,0,0,0,3.386-4.084,7.341,7.341,0,0,1,4.1-4.15c1.257-.615,2.489-1.282,3.749-1.891.6-.291.761-.626.416-1.238a4.5,4.5,0,0,1-.775-2.436c.011-.219-.064-.42-.319-.413-1.587.048-2.844-.9-4.235-1.419a56.609,56.609,0,0,0-7.277-1.785,12.375,12.375,0,0,1-2.7-1.045,4.518,4.518,0,0,1-2.187-3.53c-.4-2.13-1.3-4.1-1.7-6.217a8.614,8.614,0,0,1,.222-5.081,4.5,4.5,0,0,1,2.647-2.563c2.011-.767,3.888-1.96,6.132-2.045.45-.017.669-.327.884-.7a3.211,3.211,0,0,1,4.511-1.424,1.265,1.265,0,0,0,1.206-.083c1.717-.744,3.231-.561,4.28.494a3.247,3.247,0,0,1-.612,5.074,13.527,13.527,0,0,0-2.412,1.769c-.215.213-.444.392-.294.761a6.248,6.248,0,0,1,.117,2.951,14.913,14.913,0,0,0,.151,3.474c.119.766.8,1.208,1.14,1.828,1.058,1.953,2.87,2.516,4.831,3.115a19.648,19.648,0,0,1,6.445,2.871,1.112,1.112,0,0,0,.62.3c2.029-.127,3.4,1.418,5.151,2.008a2.234,2.234,0,0,1,1.1,3.12c-.181.437,2.694-.358,2.953,0,1.109,1.537,1.7,3.394,3.53,4.1,2.748,1.067,1.157,3.836-.7,6.1a4.543,4.543,0,0,1-2.234,1.764.55.55,0,0,0-.428.58c-.038.428-.141.852-.169,1.28a5.382,5.382,0,0,1-4.046,4.614C50.484,547.849,47.743,547.458,45.246,547.617Z" transform="translate(-15.016 -496.734)" fill="#7aa865"/>
    <path id="パス_4007" data-name="パス 4007" d="M770.106,515.55a13.761,13.761,0,0,1-3.7,6.708,5.027,5.027,0,0,1-3.941,2.084c-.542-.021-.909.395-1.344.62a56.1,56.1,0,0,1-8.435,3.595,7.226,7.226,0,0,0,2.524,1.982c2.41,1.3,4.663,2.849,6.949,4.34a5.78,5.78,0,0,1,2.99,4.887,3.1,3.1,0,0,1-2.78,3.334,64.062,64.062,0,0,1-8.99.321c-2.533-.009-5.071-.036-7.6-.21a15.473,15.473,0,0,1-6.182-1.433c-2.378-1.225-7.658-5.332-7.63-8.04.015-1.422,3.445-.868,4.33-1.888a4.344,4.344,0,0,1,2.4-1.31c.063-.021-.023-1.938,0-1.982.654-1.243,3.63-.346,3.939-1.74a3.682,3.682,0,0,1,2.4-3.026,43.286,43.286,0,0,1,5.309-1.412,30.881,30.881,0,0,0,3.6-1.208.84.84,0,0,0,.587-.907,3.194,3.194,0,0,1,1.322-2.568.99.99,0,0,0,.432-.921c-.021-1.759-.062-3.522.031-5.277a1.411,1.411,0,0,0-1.029-1.631,2.969,2.969,0,0,1-1.933-2.991,3.129,3.129,0,0,1,2.028-2.951,2.923,2.923,0,0,1,2.433-.036c2.269,1.048,4.511,2.152,6.774,3.211a9.87,9.87,0,0,1,5.165,5.546c.1.246.237.476.357.713A5.083,5.083,0,0,1,770.106,515.55Z" transform="translate(-587.352 -499.199)" fill="#7aa865"/>
    <path id="パス_4008" data-name="パス 4008" d="M733.105,535.861a48.437,48.437,0,0,1-8.714-.794c-10.333-1.932-17.185-6.811-19.293-13.739l4.351-1.321c1.966,6.461,9.57,9.165,13.928,10.2a42.6,42.6,0,0,0,12.233,1.031c4.274-.291,6.044-1.182,6.338-1.479l.036-.048a21.983,21.983,0,0,0-3.956-2.815,69.662,69.662,0,0,1-6.152-4.18c-1.794-1.4-3.4-2.972-2.984-5,.452-2.205,2.752-2.815,5.415-3.52,4.131-1.094,9.788-2.592,11.47-8.873a5.447,5.447,0,0,0-.8-5.094c-3.695-4.783-15.634-5.782-19.926-5.752l-.026-4.543a58.864,58.864,0,0,1,9.313.824c6.928,1.183,11.718,3.434,14.237,6.692a10.026,10.026,0,0,1,1.593,9.048,14.738,14.738,0,0,1-6.678,8.987,28.955,28.955,0,0,1-8.02,3.1c-.344.091-.733.194-1.106.3q.141.115.306.243a64.888,64.888,0,0,0,5.762,3.908c3.3,2.057,5.68,3.542,6.106,5.968a4.413,4.413,0,0,1-1.025,3.563C743.731,534.852,738.656,535.861,733.105,535.861Z" transform="translate(-564.41 -488.245)"/>
    <path id="パス_4009" data-name="パス 4009" d="M701.649,533.754a33.013,33.013,0,0,1-9.865-1.249l1.459-4.3c3.167,1.072,9.185,1.321,14.633.608,6.035-.791,10.4-2.588,11.672-4.807a1.7,1.7,0,0,0,.226-1.617c-.76-1.912-4.613-3.622-6.36-4.151l1.319-4.348c.763.231,7.5,2.384,9.268,6.821a6.225,6.225,0,0,1-.507,5.553c-2.607,4.544-9.61,6.343-15.026,7.053A53.1,53.1,0,0,1,701.649,533.754Z" transform="translate(-553.765 -507.395)"/>
    <path id="パス_4010" data-name="パス 4010" d="M25.878,535.016c-6.628,0-13.13-1.3-15.352-4.106a6.054,6.054,0,0,1-1.441-4.9c.591-3.421,4.138-5.642,8.629-8.453,1.329-.832,2.694-1.687,4.065-2.62l-.085-.021c-5.322-1.285-15.229-3.678-17.756-14.436a12.335,12.335,0,0,1,2.285-11.1c3.091-3.732,8.709-6.187,16.7-7.3A65.818,65.818,0,0,1,33.6,481.5l-.229,5.4c-4.863-.2-18.468.477-22.984,5.934a6.959,6.959,0,0,0-1.182,6.409c1.631,6.943,7.438,8.888,13.757,10.415a28.971,28.971,0,0,1,3.169.881,4.127,4.127,0,0,1,2.958,2.983c.488,2.5-1.851,4.177-2.975,4.983-1.9,1.364-3.829,2.57-5.529,3.634a47,47,0,0,0-4.9,3.321c-1.2,1.007-1.272,1.47-1.273,1.474a1.491,1.491,0,0,0,.337.6c.413.4,2.529,1.358,6.553,1.828a42.124,42.124,0,0,0,12.938-.568c6.268-1.277,14.438-4.561,17.762-12.957l5.035,1.989c-3.562,9-12.136,14.925-24.143,16.692A48.852,48.852,0,0,1,25.878,535.016Zm-11.13-7.49M33.376,486.9h0l.114-2.7Z" transform="translate(-3.517 -481.473)"/>
    <path id="パス_4011" data-name="パス 4011" d="M120.927,531.993a49.87,49.87,0,0,1-5.718-.328c-4.756-.551-13.36-2.3-17.54-7.833-2.428-3.213-2.2-5.914-1.574-7.613,1.955-5.342,10.255-7.365,11.195-7.578l1.2,5.274h0c-2.551.588-6.636,2.316-7.308,4.163-.086.237-.35.96.811,2.495,2.134,2.824,7.31,4.962,13.844,5.719,5.93.687,12.182.147,15.558-1.345l2.191,4.946C130.5,531.254,125.873,531.993,120.927,531.993Z" transform="translate(-77.197 -503.199)"/>
  </g>
  <g id="body" transform="translate(20.852)">
    <g id="グループ_7188" data-name="グループ 7188" transform="translate(0 21.008)">
      <ellipse id="楕円形_52144" data-name="楕円形 52144" cx="71.79" cy="61.361" rx="71.79" ry="61.361" transform="translate(2.707 2.704)" fill="#844bbe"/>
      <path id="パス_4012" data-name="パス 4012" d="M182,230.4c-19.838,0-38.5-3.017-52.559-15.469-6.866-6.083-12.26-9.973-16.032-17.875a59.841,59.841,0,0,1,0-51.841,66.256,66.256,0,0,1,16.032-21.076c14.055-12.452,32.721-19.31,52.559-19.31s38.5,6.858,52.559,19.31a66.256,66.256,0,0,1,16.032,21.076,59.84,59.84,0,0,1,0,51.841c-3.773,7.9-9.167,11.792-16.032,17.875C220.5,227.378,201.836,230.4,182,230.4Zm0-120.161c-18.513,0-35.9,6.374-48.967,17.947-12.972,11.492-20.116,26.745-20.116,42.949s7.144,28.257,20.116,39.749c13.064,11.574,30.454,14.107,48.967,14.107s35.9-2.533,48.967-14.107c12.972-11.492,20.116-23.545,20.116-39.749s-7.144-31.457-20.116-42.949C217.9,116.608,200.51,110.234,182,110.234Z" transform="translate(-107.5 -104.825)"/>
    </g>
    <g id="グループ_7189" data-name="グループ 7189" transform="translate(51.803)">
      <path id="パス_4013" data-name="パス 4013" d="M381.276,38.7s-5.678-22.642,2.406-22.836,15.13,12.137,15.24,15.425,12.72-21.033,24.264-17.428,1.6,22.035,1.6,22.035,17.116-13.723,25.267-7.412-9.625,18.029-9.625,18.029" transform="translate(-376.63 -10.786)" fill="#844bbe" fill-rule="evenodd"/>
      <path id="パス_4014" data-name="パス 4014" d="M429.636,38.389a2.7,2.7,0,0,1-1.494-4.962c4.3-2.843,10.42-8.352,10.546-11.7a2.188,2.188,0,0,0-1.088-1.938c-5.26-4.074-17.9,4.174-21.915,7.384a2.706,2.706,0,0,1-4.077-3.393,39.71,39.71,0,0,0,2.486-6.009c1.276-4.013,1.511-7.369.66-9.449a4.606,4.606,0,0,0-3.175-2.714c-6.274-1.96-14.323,8.473-18.192,13.486-.8,1.04-1.5,1.938-2.053,2.582-.59.682-1.973,2.279-3.916,1.653a2.912,2.912,0,0,1-2-2.783c-.041-.737-1.315-4.046-4.079-7.469-2.79-3.456-5.855-5.4-8.391-5.342a.71.71,0,0,0-.652.341c-.4.523-1.63,2.833-.726,10.574a76.836,76.836,0,0,0,1.533,8.562,2.707,2.707,0,0,1-5.252,1.313,80.939,80.939,0,0,1-1.652-9.19c-.836-7.1-.251-11.857,1.789-14.535a6.076,6.076,0,0,1,4.831-2.472c4.324-.1,8.863,2.531,12.787,7.418a32,32,0,0,1,3.7,5.782C394.321,9.034,403.454-2.59,413.2.452a10.026,10.026,0,0,1,6.576,5.84c1.461,3.583.946,7.956-.081,11.715.848-.485,1.743-.969,2.669-1.431,8.041-4.01,14.285-4.365,18.557-1.057a7.525,7.525,0,0,1,3.181,6.42c-.127,3.339-2.429,7.092-6.84,11.155a53.794,53.794,0,0,1-6.134,4.848A2.7,2.7,0,0,1,429.636,38.389Z" transform="translate(-365.831 0.046)"/>
    </g>
    <path id="パス_4015" data-name="パス 4015" d="M651.435,163.04a2.7,2.7,0,0,1-1.533-.477c-.094-.064-6.357-4.332-11.27-5.394a2.7,2.7,0,1,1,1.145-5.286c5.978,1.292,12.9,6.025,13.2,6.225a2.7,2.7,0,0,1-1.538,4.932Z" transform="translate(-530.417 -121.4)"/>
  </g>
  <g id="eye" transform="translate(94.775 54.419)">
    <path id="パス_4016" data-name="パス 4016" d="M524.827,320.014a15.081,15.081,0,0,1,11.251,4.4c7.683,7.7,7.715,22.8,7.714,22.948,0,.043,0,.085,0,.128.166,7.534-1.8,13.449-5.847,17.581-6.715,6.858-17.586,7.391-20.757,7.391-.651,0-1.046-.021-1.1-.025-.081-.006-.142-.008-.224-.009-12.12-.185-20.794-2.988-25.086-8.105a13.157,13.157,0,0,1-3.044-9.872,3.082,3.082,0,0,0,.057-.445c1.079-14.067,7.326-24.025,18.567-29.6a44.083,44.083,0,0,1,17.433-4.374h.012c.056,0,.112,0,.167,0,.287-.011.575-.016.855-.016m-37.086,34.412h0" transform="translate(-485.345 -310.319)" fill="#fff"/>
    <path id="パス_4017" data-name="パス 4017" d="M580.594,368.519c4.046-4.132,6.013-10.047,5.847-17.582,0-.043,0-.085,0-.128,0-.129-.025-12.105-5.448-20.169a23.184,23.184,0,0,0-15.828-6.315c-13.345,0-24.164,11.57-24.164,25.841,0,13.222,9.287,24.123,21.265,25.655C566.83,375.506,575.1,374.129,580.594,368.519Z" transform="translate(-527.993 -313.766)" fill="#87d2eb"/>
    <ellipse id="楕円形_52145" data-name="楕円形 52145" cx="16.801" cy="17.967" rx="16.801" ry="17.967" transform="translate(24.595 17.204)"/>
    <path id="パス_4141" data-name="パス 4141" d="M3.731,0A3.633,3.633,0,0,1,7.466,3.516,3.625,3.625,0,0,1,3.734,7.03,3.633,3.633,0,0,1,0,3.513,3.625,3.625,0,0,1,3.731,0Z" transform="translate(44.177 29.794) rotate(-59.307)" fill="#fff"/>
    <path id="パス_4018" data-name="パス 4018" d="M600.684,492.324q-4.409,7.153-7.61,2.934t4.409-7.153Q605.093,485.171,600.684,492.324Z" transform="translate(-568.867 -444.055)" fill="#fff"/>
    <path id="パス_4019" data-name="パス 4019" d="M647.352,511.277q.273,5.049-2.917,4.37t-.273-5.05Q647.08,506.227,647.352,511.277Z" transform="translate(-609.354 -461.103)" fill="#fff"/>
    <path id="パス_4020" data-name="パス 4020" d="M515.034,312a14.112,14.112,0,0,1,10.527,4.117c7.189,7.209,7.219,21.336,7.218,21.472,0,.04,0,.08,0,.12.155,7.049-1.685,12.584-5.471,16.45-6.283,6.416-16.455,6.915-19.422,6.915-.609,0-.978-.02-1.028-.023-.076-.005-.133-.007-.21-.008-11.34-.173-19.457-2.8-23.472-7.583a12.309,12.309,0,0,1-2.848-9.237,2.844,2.844,0,0,0,.053-.416c1.01-13.161,6.855-22.479,17.373-27.695a41.249,41.249,0,0,1,16.311-4.093h.011l.156,0c.268-.01.538-.015.8-.015m-34.7,32.2h0m34.7-36.314q-.472,0-.956.018h-.01c-.659,0-35.078.169-37.8,35.59,0,0-3.92,21.145,30.314,21.667,0,0,.473.032,1.3.032,5.869,0,29.586-1.6,29.014-27.572,0,0,.211-29.734-21.866-29.734Z" transform="translate(-476.137 -300.622)"/>
    <path id="パス_4021" data-name="パス 4021" d="M534.962,318.9l-2.468-1.336c3.768-6.947,1.482-19.38,1.459-19.5-.029-.165-2.707-14.839-11.89-20.968a16.608,16.608,0,0,0-13.3-2.162,34.444,34.444,0,0,0-26.582,23.457,50.366,50.366,0,0,0-2.579,18.424l-2.8.24a52.266,52.266,0,0,1,2.69-19.482,37.252,37.252,0,0,1,28.659-25.376,19.315,19.315,0,0,1,15.475,2.574c4.3,2.875,7.813,7.594,10.435,14.027a47.1,47.1,0,0,1,2.648,8.765C536.816,298.087,539.208,311.071,534.962,318.9Z" transform="translate(-476.605 -271.615)"/>
  </g>
  <g id="eye-2" data-name="eye" transform="translate(31.981 45.932)">
    <path id="パス_4022" data-name="パス 4022" d="M173,301.337s1.58-24.087,22.907-31.307c17.193-5.82,25.037,14.987,25.822,28.1.761,12.728.889,20.014-5.615,24.238C208.474,327.332,173.094,331.509,173,301.337Z" transform="translate(-170.994 -261.058)" fill="#fff" fill-rule="evenodd"/>
    <path id="パス_4023" data-name="パス 4023" d="M260.9,327.16A45.919,45.919,0,0,0,255.4,308a21.68,21.68,0,0,0-10.437-2.676c-12.681,0-22.961,10.986-22.961,24.539S232.28,354.4,244.961,354.4c.269,0,.537-.007.8-.017,4.2-.633,7.675-1.788,9.523-2.988C261.792,347.174,261.664,339.888,260.9,327.16Z" transform="translate(-210.168 -290.086)" fill="#87d2eb" fill-rule="evenodd"/>
    <ellipse id="楕円形_52147" data-name="楕円形 52147" cx="15.963" cy="17.061" rx="15.963" ry="17.061" transform="translate(21.891 22.948)"/>
    <path id="パス_4142" data-name="パス 4142" d="M3.544,0A3.451,3.451,0,0,1,7.091,3.341,3.443,3.443,0,0,1,3.547,6.678,3.451,3.451,0,0,1,0,3.338,3.443,3.443,0,0,1,3.544,0Z" transform="matrix(0.514, -0.858, 0.858, 0.514, 40.492, 34.885)" fill="#fff"/>
    <path id="パス_4024" data-name="パス 4024" d="M273.961,471.859q-4.189,6.793-7.231,2.786t4.189-6.793Q278.151,465.066,273.961,471.859Z" transform="translate(-245.209 -419.408)" fill="#fff"/>
    <path id="パス_4025" data-name="パス 4025" d="M318.306,489.857q.259,4.795-2.772,4.15t-.259-4.8Q318.047,485.061,318.306,489.857Z" transform="translate(-283.68 -435.597)" fill="#fff"/>
    <path id="パス_4026" data-name="パス 4026" d="M212.724,290.163a1.4,1.4,0,0,1-1.153-2.2c1.645-2.373,3.125-8.137,3.577-10.246.124-1.091,1.815-16.787-1.753-27.786-3.372-10.393-8.8-16.834-14.9-17.673-8.341-1.147-23.424,1.922-30.722,35.367a1.4,1.4,0,0,1-2.743-.6c3.631-16.639,9.627-27.973,17.821-33.685a21.986,21.986,0,0,1,16.027-3.864c3.672.5,7.057,2.53,10.062,6.018a39.248,39.248,0,0,1,7.124,13.569c3.873,11.937,1.947,28.353,1.863,29.046l-.02.121c-.069.324-1.705,7.974-4.03,11.326A1.4,1.4,0,0,1,212.724,290.163Z" transform="translate(-164.598 -229.251)"/>
    <path id="パス_4027" data-name="パス 4027" d="M191.878,319.83a35.107,35.107,0,0,1-16.556-3.754c-5.6-3.023-12.281-9.428-12.323-22.769v-.069l0-.069a44.207,44.207,0,0,1,3.623-13.624c4.238-9.587,11.376-16.312,20.642-19.449,5.708-1.932,10.91-1.362,15.458,1.695,3.866,2.6,7.159,7.04,9.523,12.846a50.336,50.336,0,0,1,3.486,15.339c.382,6.386.616,11.6-.109,15.771-.817,4.693-2.855,7.955-6.415,10.267C206.2,317.97,199.389,319.83,191.878,319.83ZM167.01,293.373c.048,9.09,3.486,15.542,10.219,19.178,4.526,2.444,10.632,3.579,17.193,3.193,5.926-.348,10.687-1.846,12.6-3.091,5.3-3.439,5.5-9.181,4.706-22.439-.526-8.8-4.269-20.413-11.244-25.1-3.456-2.323-7.471-2.735-11.932-1.224-8.251,2.793-14.376,8.564-18.208,17.153A41.257,41.257,0,0,0,167.01,293.373Z" transform="translate(-162.999 -253.021)"/>
  </g>
</svg>
