<svg xmlns="http://www.w3.org/2000/svg" xmlns:xlink="http://www.w3.org/1999/xlink" viewBox="0 0 1710.55 339.02"><defs><style>.cls-1{fill:url(#linear-gradient);}.cls-2{fill:url(#linear-gradient-2);}.cls-3{fill:#68c6e5;}.cls-4{fill:#3493d1;}.cls-5{fill:#184198;}.cls-6{mask:url(#mask);}.cls-7{fill:#fff;}.cls-8{mask:url(#mask-2);}.cls-9{fill:#231815;}.cls-10{fill:#bababa;}</style><linearGradient id="linear-gradient" x1="467.79" y1="460.16" x2="493.11" y2="460.16" gradientTransform="matrix(0.68, 0.74, -0.82, 0.76, 76.1, -535.07)" gradientUnits="userSpaceOnUse"><stop offset="0" stop-color="#fff"/><stop offset="1"/></linearGradient><linearGradient id="linear-gradient-2" x1="735.35" y1="373.96" x2="760.67" y2="373.96" xlink:href="#linear-gradient"/><mask id="mask" x="5.93" y="151.75" width="33.12" height="32.07" maskUnits="userSpaceOnUse"><path class="cls-1" d="M31.07,177.1c-7.82,7.21-18,8.89-22.74,3.74s-2.24-15.15,5.58-22.36,18-8.89,22.75-3.75S38.9,169.89,31.07,177.1Z"/></mask><mask id="mask-2" x="258.33" y="283" width="33.12" height="32.07" maskUnits="userSpaceOnUse"><path class="cls-2" d="M283.47,308.35c-7.82,7.21-18,8.89-22.74,3.74s-2.24-15.15,5.57-22.36,18-8.89,22.75-3.75S291.29,301.14,283.47,308.35Z"/></mask></defs><title>資產 1</title><g id="圖層_2" data-name="圖層 2"><g id="圖層_1-2" data-name="圖層 1"><path class="cls-3" d="M89.71,170.39s28.82-63.68,138.35-71.45h0s-99.85,31.61-145.38,91.24"/><path class="cls-4" d="M94.7,136.28s-1.86-121.74,95-82.37c0,0,96.19,37,89.57,241.9,0,0,59.71-190.29-74.14-280.35,0,0-43.41-32.76-80.69-2.9C124.44,12.56,74,45.24,94.7,136.28Z"/><path class="cls-5" d="M223.76,269.85s-106.38,59.23-117.52-44.73c0,0-12.9-102.26,170.75-193.36,0,0-195.91,37.43-211.92,198,0,0-8.33,53.74,35.62,72.46C100.69,302.18,153.35,331.16,223.76,269.85Z"/><path class="cls-3" d="M256.07,87.74S378.14,129.65,312,194.45c0,0-63.59,65.09-266.32-13.37,0,0,173.46,116.47,300.43,39.64,0,0,44.73-23.65,25.24-64.64C371.37,156.08,352.7,103.36,256.07,87.74Z"/><path class="cls-3" d="M58.26,181.81a29.22,29.22,0,1,1-25.78-32.29A29.22,29.22,0,0,1,58.26,181.81Z"/><g class="cls-6"><path class="cls-7" d="M31.07,177.1c-7.82,7.21-18,8.89-22.74,3.74s-2.24-15.15,5.58-22.36,18-8.89,22.75-3.75S38.9,169.89,31.07,177.1Z"/></g><path class="cls-4" d="M310.65,313.06a29.22,29.22,0,1,1-25.77-32.3A29.22,29.22,0,0,1,310.65,313.06Z"/><g class="cls-8"><path class="cls-7" d="M283.47,308.35c-7.82,7.21-18,8.89-22.74,3.74s-2.24-15.15,5.57-22.36,18-8.89,22.75-3.75S291.29,301.14,283.47,308.35Z"/></g><path class="cls-4" d="M260.56,72.94s13.71,22.38,18.54,39.59-20.77,1.28-20.77,1.28L246.8,82Z"/><path class="cls-9" d="M460.55,37a6.56,6.56,0,0,1-5-3L455,31.43a7.28,7.28,0,0,1,.62-3.27,8.31,8.31,0,0,1,5-2.65h61a7.68,7.68,0,0,1,4.67,2.65l.46,3.11-.46,2.49A7.57,7.57,0,0,1,521.56,37H498.21V68.62h8.87a8.77,8.77,0,0,1,5.61,3.27l.46,3.11-.46,2.8a8.77,8.77,0,0,1-5.61,3.27h-8.87V122L520,112.2l2.8-.47,3.43.47a12.32,12.32,0,0,1,3.11,5.45,8.53,8.53,0,0,1-3.11,5.29L458.37,155l-3.42.77a5.77,5.77,0,0,1-2.8-.77,6,6,0,0,1-3.12-5.45q0-2.81,3.27-6.38l6.07-3V61.62c0-1.76,1.09-3.53,3.27-5.29a13.48,13.48,0,0,1,3.11-.78,10.49,10.49,0,0,1,3.74.78l2,2.49a7.09,7.09,0,0,1,1.4,2.8v73.3l12-6.23V37Zm131-7a6.52,6.52,0,0,1,3,.77A8,8,0,0,1,597.19,33l.47,1.87.15,1.71a6.79,6.79,0,0,1-.62,3.27,6.55,6.55,0,0,1-5.45,3h-4.51q-4.66,47-19.45,73.61a91.76,91.76,0,0,0,28.32,23.81,9.08,9.08,0,0,1,2.18,5.91v.63a6.43,6.43,0,0,1-3.89,5.29l-2.8.31a8,8,0,0,1-4.36-1.4q-14.47-8.4-28.48-24.28a129.46,129.46,0,0,1-45,26.3l-2,.16a6.37,6.37,0,0,1-6.53-6.38,9.88,9.88,0,0,1,3.73-5.92,139.81,139.81,0,0,0,22.18-10.89,100.74,100.74,0,0,0,18.75-14.79,141.8,141.8,0,0,1-12.76-40.92q-5.45,10.58-10.12,18a6.85,6.85,0,0,1-5.91,3.11,6.62,6.62,0,0,1-6.23-3.89l-.62-2.8a10.33,10.33,0,0,1,1.09-4.36q15.87-26,21-64.43,0-3.42,3.89-5.76l3.27-.62,3.74.62a21.74,21.74,0,0,1,3.11,6.38l-.94,4.52-.15,5ZM574,42.79H547.55a165.08,165.08,0,0,0,3,33.3,138.94,138.94,0,0,0,8.95,28Q570.27,79.83,574,42.79Z"/><path class="cls-9" d="M746.44,23.8a6,6,0,0,1,3,.78,5.55,5.55,0,0,1,2.8,2.18l.46,1.87.16,1.55a5.64,5.64,0,0,1-.62,2.8q-2.49,3.44-5.76,3.43H638.59c-3.74.52-5.6,2.23-5.6,5.13l.15.47V84.65a190,190,0,0,1-3.73,37.66,171.94,171.94,0,0,1-7.94,27.08l-3,2.49a5.69,5.69,0,0,1-3.27.94c-2.17,0-4-1.15-5.6-3.43l-.78-3.42.78-3.58a132.51,132.51,0,0,0,7.47-25.68,171.73,171.73,0,0,0,2.8-32.52V35.32q0-11.52,12-11.52h45.75V19.29a5.68,5.68,0,0,1,.78-2.8l2.49-3.12,3-.31,3.89.31a16.28,16.28,0,0,1,3.11,5.92V23.8Zm-99.76,79.68a9.36,9.36,0,0,1-6.07,2.49l-3.27-.78q-3.27-1.39-4.2-6.06l-.15-.47.15-2.65,1.4-2.8q12.13-19.75,18.68-47a12.52,12.52,0,0,1,4.35-5.91l3.43-.16,3.58.16,2.33,4,1.4,3.27-1.24,6.23-2.49,10v85.59a16.28,16.28,0,0,1-3.11,5.92l-3.74.62a7.41,7.41,0,0,1-3.27-.62q-3.27-2.34-3.27-5.61l.16-54.93Zm77.66-56.8a10.7,10.7,0,0,1,3.58-5.91L731,40.3l3.89.47,1.71,2.64,1.4,3.27V56.79h12.14a6.3,6.3,0,0,1,3.27.94,13.64,13.64,0,0,1,3.27,3l.47,3.57-.47,3a9.69,9.69,0,0,1-6.54,2.8H738V134.3q0,21.78-25,21.78h-1.4a55.87,55.87,0,0,1-6.3-.23q-1.8-.22-5.22-1a46.34,46.34,0,0,1-10.74-3,10,10,0,0,1-3.19-2.56,6.7,6.7,0,0,1-1.32-3.82,8.55,8.55,0,0,1,3-6.38h4.67l2.8.47,8.71,2.49a44.08,44.08,0,0,0,7.63.78l2.49.31q10.27,0,10.27-12.76V70H675.47a7.08,7.08,0,0,1-6.07-3.42l-1.09-2.8.47-1.87.62-1.71a10,10,0,0,1,6.07-3.43h48.87ZM676.56,87.61A11.22,11.22,0,0,1,675.32,84a9.45,9.45,0,0,1,.93-3.42A7.78,7.78,0,0,1,682,76.87q3,0,5.76,3a328.32,328.32,0,0,1,21.32,36.41l.15,2-.46,5.29-3.12,2-2.95.62-.47-.15a10.14,10.14,0,0,1-5.91-4.36q-1.87-3.42-3.58-6.85-3.12-5.91-6.07-10.89-1.56-2.81-4.67-7.86T676.56,87.61Z"/><path class="cls-9" d="M797,45.74l4.51-1.08,2.18.15a10.68,10.68,0,0,1,4.36,4.67,7.49,7.49,0,0,1-2.34,5.76,160.31,160.31,0,0,1-14.32,10,150.62,150.62,0,0,1-15.09,8.17l-3.58.62-3.27-.62a7,7,0,0,1-3.11-5.76,11.33,11.33,0,0,1,3.27-6.07A155.17,155.17,0,0,0,797,45.74Zm-23.81,97.12q7,0,10-.24c2-.15,4.72-.46,8.1-.93l10-1.4q5-.71,12.14-2.1l2.65-.31a11.27,11.27,0,0,1,4.05.93,4.69,4.69,0,0,1,2.8,4.05,5.5,5.5,0,0,1-1.4,3.26,8.28,8.28,0,0,1-2.34,2.34q-11.67,3.73-23.34,6.22a106.74,106.74,0,0,1-22.26,2.49,8.73,8.73,0,0,1-6.22-4.35L767,150a10.91,10.91,0,0,1,1.25-4.52,15.05,15.05,0,0,1,7-3.11ZM799.82,18.51a11,11,0,0,1,5.91,3.42l.47,3.58-.47,2.81q-2.81,3.25-5.91,3.26H777.56q-3.27,0-6.07-3.26L771,25.51l.46-3.58,2.65-2.17a9.07,9.07,0,0,1,3.42-1.25Zm83.57,50a11.94,11.94,0,0,1,8.72,3.19q3.25,3.18,3.26,9v42q0,6.39-3.11,10t-8.87,3.57H802.62q-5.76,0-9-3.42t-3.19-10.12v-42q0-12.15,12.14-12.14Zm14.78-48.56a11.2,11.2,0,0,1,8.49,3.35,12.45,12.45,0,0,1,3.19,9q-.32,2.32-16.5,16.8l-2.49,1.09-2.18.31L887,50.1a11,11,0,0,1-4.51-5.29A7,7,0,0,1,883,42a13.82,13.82,0,0,1,2.1-3.11l2.18-2.18,2.49-3.11H862.38Q873,47.46,893.35,54l18.52,3.74a12.33,12.33,0,0,1,4.67,4.82l-.31,3.12a5,5,0,0,1-1.56,3.26,9.29,9.29,0,0,1-5,1.87L908,70.49q-37-7.93-53.85-25.37a76.17,76.17,0,0,1-18.52,13.23,86.8,86.8,0,0,1-21.79,6.85,7.66,7.66,0,0,1-5.75-2.65A9.25,9.25,0,0,1,807,58.82l.31-2.49c.93-1.56,2.7-2.85,5.29-3.89Q827.84,50.73,842,39.83c1.25-.62,2.81-2.7,4.67-6.22H826.12a41.27,41.27,0,0,1-12.61,9.64,8.94,8.94,0,0,1-4.67,1.41l-2-.47a7.9,7.9,0,0,1-3.89-5.29c0-1.77.93-3.68,2.8-5.76a75.57,75.57,0,0,0,10.43-8.72,91.39,91.39,0,0,0,10-12.14,18.9,18.9,0,0,1,6.22-2.49A10.72,10.72,0,0,1,835,11.35l2.33,2.34v2c0,2.18-.26,3.58-.77,4.2ZM803.71,118v1.71c0,2,1.81,3.16,5.45,3.58H876.7c3.11-.31,5-1.51,5.6-3.58V118ZM804,86.83v1.09H882.3V86.83a6.5,6.5,0,0,0-5.6-5.29H809.47C806.25,82,804.43,83.72,804,86.83Zm0,14v4.67H882.3v-4.67Zm110.34,45.75a13.75,13.75,0,0,1,3.89,5.76,11.85,11.85,0,0,1-3.27,6.22,9.14,9.14,0,0,1-4.2.94l-3-.47-37.19-11.52a10.13,10.13,0,0,1-3.58-6.06,3.12,3.12,0,0,1,.78-2l2.33-2.33,3.11-.16,3.9.16q8.08,1.54,17.89,4.2Z"/><path class="cls-9" d="M970.54,69.71h17.9A21.8,21.8,0,0,1,991.71,71a9.24,9.24,0,0,1,2.64,2.18l.47,3.57-.47,2.81a9.72,9.72,0,0,1-5.91,3.42h-17.9a234.41,234.41,0,0,0,22.1,22.25l.47,3.74-.47,3.11c-1.76,2.39-3.79,3.58-6.07,3.58a7.26,7.26,0,0,1-3.34-1.09A11,11,0,0,1,980.5,112a103.27,103.27,0,0,1-10-12.6v51.82a8.89,8.89,0,0,1-3.11,6.07l-3.74.62a13.51,13.51,0,0,1-3.42-.62,7.8,7.8,0,0,1-3.11-6.07V104a117.25,117.25,0,0,1-17.74,23.66q-2.49,3.26-5.76,3.26c-2.8,0-4.78-1.09-5.92-3.26a9.49,9.49,0,0,1-.93-3.27,7.8,7.8,0,0,1,.93-3.43,229.64,229.64,0,0,0,26.15-38H933.66a7.94,7.94,0,0,1-5.92-3.42,5.6,5.6,0,0,1-.93-2.81,9.59,9.59,0,0,1,.93-3.57A6.5,6.5,0,0,1,930.16,71a14.31,14.31,0,0,1,3.5-1.25h23.5V17.42c0-2,1-3.89,3.11-5.76l3.42-.46,3.74.46a9.66,9.66,0,0,1,3.11,5.76ZM946.73,26.6q1.24,3.9,3.42,12.53t3.43,13.77v.78a6.52,6.52,0,0,1-2.41,5.37,7.6,7.6,0,0,1-4.75,2,19.61,19.61,0,0,0-2.8-.78,8.31,8.31,0,0,1-4.2-5.45L932.1,30.65a9.63,9.63,0,0,1-.93-3.58,10.69,10.69,0,0,1,1.4-4.36,12,12,0,0,1,6.85-3.42,13.54,13.54,0,0,1,6.22,4.36Zm27.7,24.59q2.49-5.28,5.61-13.07t5.13-13.85a7.75,7.75,0,0,1,6.69-3.58,12,12,0,0,1,6.23,3.89,12,12,0,0,1,.46,3.89,16.44,16.44,0,0,1-.93,5.14,180.59,180.59,0,0,1-10.43,22.56q-2.64,3.59-5.29,4l-2.95.31a4.79,4.79,0,0,1-4.21-2,15.9,15.9,0,0,1-.62-2,9,9,0,0,1-.31-1.55l.62-3.12Zm84.35,53.54,9.19-1.4h1.86a10.33,10.33,0,0,1,2.57.23,8.87,8.87,0,0,1,2.26,1.17,12,12,0,0,1,1.86,5.76q-1.24,4.2-4.51,5.44l-13.23,2v30a11.18,11.18,0,0,1-3.27,5.76,10.39,10.39,0,0,1-3.73.78,8.73,8.73,0,0,1-3.27-.78,7,7,0,0,1-3.11-5.76V120l-44.67,7.16-3,.47a4.72,4.72,0,0,1-3.43-1.09,6.43,6.43,0,0,1-3-5.61l.15-.62a6.61,6.61,0,0,1,3.89-5.29l50-8.72V20.38a7.69,7.69,0,0,1,3.11-5.92l3.27-.31,3.73.31a13,13,0,0,1,3.27,5.92Zm-50.27-46.22q12.76,11,23.35,19.45,3.89,3.42,3.89,7.47a8.81,8.81,0,0,1-3.89,6.69,12.14,12.14,0,0,1-3.58.94,7.05,7.05,0,0,1-4-1.41,196.62,196.62,0,0,0-22.1-18.51q-5.45-4.22-5.44-8.41c0-2.28,1.14-4.36,3.42-6.22a10.82,10.82,0,0,1,3.89-.78l3,.46Zm7.94-33.93q11.06,9.5,13.7,11.67,1.71,1.41,7.62,5.92a14.78,14.78,0,0,1,1.4,2.41,30.76,30.76,0,0,1,1.4,3.81,8.6,8.6,0,0,1-4.51,5.45l-2.64.46a6,6,0,0,1-3.9-1.4q-5.28-3.88-11.36-8.79t-12-10.19a6.72,6.72,0,0,1-3-5.92l.16-.46a4.56,4.56,0,0,1,1.09-2.81,10.16,10.16,0,0,1,3-2.49l2.17-.46a12.3,12.3,0,0,1,5.14,1.55Z"/><path class="cls-9" d="M1141,10.88q5.76,0,9,3.12t3.27,8.87V56.48q0,12.3-12.3,12.3h-36.57V152a11.45,11.45,0,0,1-3,5.91l-3.58.31-3.26-.31a7.67,7.67,0,0,1-3.12-5.91V22.87c0-3.74,1-6.67,3-8.8s5-3.19,8.79-3.19Zm-36.57,18.37v4.67h35.48V29.25c-.31-2.9-2.07-4.67-5.29-5.29H1110C1106.66,24.58,1104.8,26.35,1104.38,29.25Zm0,17.58v8.72h30.19q4.83,0,5.29-5.29V46.83Zm12.3,41.87a6.4,6.4,0,0,1-5.76-3.27,5.44,5.44,0,0,1-.78-3,6.94,6.94,0,0,1,.78-3.42,8.84,8.84,0,0,1,5.76-3.58h86.84a12.52,12.52,0,0,1,5.91,3.58l.31,3.42-.31,3q-2.81,3.27-5.91,3.27h-17.43v13.54h23.81a11.49,11.49,0,0,1,5.91,3.42l.16,3.58-.16,2.8q-3,3.43-5.91,3.43h-23.81V149.7a8.56,8.56,0,0,1-3.12,5.61,9.4,9.4,0,0,1-3.73.62,7.61,7.61,0,0,1-3.11-.62,6.61,6.61,0,0,1-3.12-5.61V115.47h-26.92a72.9,72.9,0,0,1-1.4,15.48,34.87,34.87,0,0,1-4,10.66,59.38,59.38,0,0,1-6.46,8.17,31.73,31.73,0,0,1-6.77,5.53,15.07,15.07,0,0,1-2.41,1.24,7.36,7.36,0,0,1-1.79.16l-2.33-.47q-3.12-.78-4.2-4.67l-.16-.78a8.38,8.38,0,0,1,2.33-5.6q8.88-7,13.7-20.54l.47-9.18h-21.48q-3.42,0-5.76-3.43a7.17,7.17,0,0,1-.93-2.8,6.61,6.61,0,0,1,.31-1.71,19.48,19.48,0,0,1,.62-1.87,9.37,9.37,0,0,1,5.76-3.42H1133V88.7Zm56.33,0h-26.92v13.54H1173Zm4.21-19q-12.15,0-12.14-12.29V22.87q0-12,12.14-12h41.39q5.61,0,8.87,3.12t3.27,8.87V143.48q-3.27,10.58-15.87,12.45h-1.25a51.91,51.91,0,0,1-18.83-3.42,7,7,0,0,1-3.11-5.76,6.22,6.22,0,0,1,3.42-5.6,6.49,6.49,0,0,1,3-.63,8.29,8.29,0,0,1,3.42.63,46,46,0,0,0,4.59,1.55,14.85,14.85,0,0,0,3.35.31,10,10,0,0,0,5.91-1.86,6.59,6.59,0,0,0,1.09-1.87,24.09,24.09,0,0,0,1.09-3V69.71Zm1.08-39.84v4.36h39.22V29.87q-.78-5-5.44-5.91h-28.33Q1178.3,24.89,1178.3,29.87Zm0,17.43v3.89q0,5.3,5.45,5.29h33.77V47.3Z"/><path class="cls-9" d="M1275.57,18q0-3,3.11-5.91l3.12-.47,3.73.47a13.58,13.58,0,0,1,3.11,5.91V30.65h23a12.11,12.11,0,0,1,6.22,3.27l.16,1.55a4.27,4.27,0,0,0,.31,1.87,6.49,6.49,0,0,1-.47,2.8,7.71,7.71,0,0,1-6.22,3.43h-35V61.15h23q11.83,0,11.83,12v26.3q0,50.26-18.67,55.87l-8.72.46-8.25-.46a7.45,7.45,0,0,1-5.13-4.52l-.31-2.18a5.63,5.63,0,0,1,.78-2.8l1.08-1.71a17.46,17.46,0,0,1,6.38-2.95h9q5,0,8.17-5.69t3.19-16.57V78c-.31-2.9-2.13-4.67-5.44-5.29H1276a198.58,198.58,0,0,1-1.4,24,154.91,154.91,0,0,1-4.51,22.65,140,140,0,0,1-14.48,34.86,9,9,0,0,1-5.13,1.86h-1.09q-3.27-.47-4.52-4.2l-.46-1.71a6,6,0,0,1,.31-2.18l1.24-2.49a178.21,178.21,0,0,0,12-31.75,179.52,179.52,0,0,0,3.89-20.46,162.49,162.49,0,0,0,1.4-21.09V44.66h-6.69a6.67,6.67,0,0,1-5.92-3.58,5.28,5.28,0,0,1-.93-3l.31-2.18.62-2a6.3,6.3,0,0,1,2.26-2.1,10.11,10.11,0,0,1,3.66-1.17h19Zm110.19,12.61a12.19,12.19,0,0,1,5.75,3.27l.47,3.42-.47,2.8q-2.64,3.44-5.75,3.43l-5.14.62a162.34,162.34,0,0,1-5.29,42.17,156.8,156.8,0,0,1-13.7,33.93,129.18,129.18,0,0,0,31.44,25.21,8.62,8.62,0,0,1,3.27,5.29,12.56,12.56,0,0,1-4.36,6.54l-4,.31a11.48,11.48,0,0,1-3.43-.31,146.55,146.55,0,0,1-16.11-11,162.36,162.36,0,0,1-16.26-14.55A145.25,145.25,0,0,1,1322,153.75a11.57,11.57,0,0,1-4.2,1.09,8.55,8.55,0,0,1-3.43-.62,7.28,7.28,0,0,1-3.58-10,11.9,11.9,0,0,1,2.81-3.11,70.78,70.78,0,0,0,6.84-3.27,83.07,83.07,0,0,0,7.78-4.83A195.89,195.89,0,0,0,1345,120q-8.25-18.67-15.56-51.2-2.81,6.38-6.23,9.18a12.61,12.61,0,0,1-4.82,1.56l-2.49-.47a7.61,7.61,0,0,1-4.36-5.91l-.15-.94c0-1.87,1-3.78,3-5.76a87,87,0,0,0,8.48-20.07,141.62,141.62,0,0,0,4.6-24.75,7.93,7.93,0,0,1,3.11-6.22,11.37,11.37,0,0,1,4.2-.94l3.27.63q2.49,1.55,3.89,5.6v3L1341.4,31l.47-.31Zm-18.68,12.92h-27.54l.77.62a143.44,143.44,0,0,0,4.21,34.08q1.86,7.64,4.12,14.4t6,15.48q3-7.16,5.21-14.55a161,161,0,0,0,4-16.11A168,168,0,0,0,1367.08,43.57Z"/><path class="cls-9" d="M1537.34,15.4a10.61,10.61,0,0,1,5.76,3.27l.46,3.42-.46,2.8q-2.8,3.59-5.76,3.58h-49.8v64h60.07a12.12,12.12,0,0,1,5.13,1.56c.21,1,.44,2.1.71,3.19a12.37,12.37,0,0,1,.38,2.57l-.15,2c-.94,1.66-3.06,3-6.38,3.89h-59.76v41.71a9.45,9.45,0,0,1-3.12,5.76c-1,.2-1.89.39-2.56.54a10.16,10.16,0,0,1-1.17.24,5.1,5.1,0,0,1-1.64-.24c-.46-.15-1-.34-1.47-.54a6.9,6.9,0,0,1-3.27-5.76V105.66h-61.79a6.57,6.57,0,0,1-5.75-3.42,7.14,7.14,0,0,1-.94-3,12.31,12.31,0,0,1,.94-3.27,10.41,10.41,0,0,1,5.75-3.58h61.79v-64h-57.12a6.45,6.45,0,0,1-5.44-3.11,4.44,4.44,0,0,1-.78-2.65,9.31,9.31,0,0,1,.78-3.58,21.06,21.06,0,0,1,2.72-2.33,9.87,9.87,0,0,1,2.88-1.4Zm-122,60.38q11.2-13.55,27.7-38.13a9,9,0,0,1,6.38-2.49h.78a12.08,12.08,0,0,1,6.07,5.45,11.81,11.81,0,0,1-2.34,7.31l-10.43,14.79q-8.4,11.52-15.09,20.07-3.74,3.73-5.92,3.74l-.31-.31a2.51,2.51,0,0,1-.7.15,7.87,7.87,0,0,0-1,.16,7.69,7.69,0,0,1-5.6-2.8,8.28,8.28,0,0,1-1.09-3.27,6.72,6.72,0,0,1,.39-2.1A14.45,14.45,0,0,1,1415.33,75.78Zm119.36,6.54q-5.76-7.47-10.58-13.39-.93-1.08-18.68-22.72a9.34,9.34,0,0,1-1.32-2.1,5.37,5.37,0,0,1-.54-2.26,5.17,5.17,0,0,1,.77-2.8,8.68,8.68,0,0,1,5.76-4.36,14,14,0,0,1,6.23,3q11,12.62,16.34,19.14,7,8.57,13.54,17.75a17.9,17.9,0,0,1,.85,2.64,10.67,10.67,0,0,1,.39,2.34l-.15,1.55a9.91,9.91,0,0,1-6.07,4.67l-.78.16c-2.08,0-3.89-1-5.45-3.12Z"/><path class="cls-9" d="M1702.3,84.19q7.32,2.79,7.32,10.42v1.71l-2.65,7.32a5,5,0,0,1-3.89,3.89l-2,.31a6.13,6.13,0,0,1-2.18-.47l-1.71-.62a5.3,5.3,0,0,1-2-4.2l.32-1.4a23.32,23.32,0,0,0,.93-4.36,4,4,0,0,0-.31-1.4H1586.67q-5.45.47-5.45,4.2v5.14a8.47,8.47,0,0,1-3.11,4.82,10.11,10.11,0,0,1-3.89.94,9.53,9.53,0,0,1-3.11-.94,6.92,6.92,0,0,1-3.43-4.82v-9q0-11.52,12.3-11.51Zm-54.62,38-1.25,1.4v2l1.25.47H1683a9.71,9.71,0,0,1,5.75,2.8,9,9,0,0,1,.78,3.42,6.61,6.61,0,0,1-.78,3,6.77,6.77,0,0,1-5.29,2.49l-.46-.15h-35.49l-1.09,1.08v3.9l1.09.93h56.65a13.71,13.71,0,0,1,6.07,3.11l.31,2.8-.31,3q-3.27,3-6.07,3H1575.31a7.58,7.58,0,0,1-3.5-.7,5.18,5.18,0,0,1-2.1-2.1,6.34,6.34,0,0,1-.78-3.12,5.66,5.66,0,0,1,.62-2.8q1.71-2.33,5.76-3.11h57.12l1.24-.93v-3.9l-1.24-1.08h-39.84l-.78.15a6.34,6.34,0,0,1-5.14-2.49,5.25,5.25,0,0,1-.93-3,7.1,7.1,0,0,1,.93-3.42q1.88-2.34,5.92-2.8h39.84l1.24-.47v-2l-1.24-.94-47.47.94-.62.15a3.26,3.26,0,0,1-2.8-1.55,16.8,16.8,0,0,1-.94-3.43,2.53,2.53,0,0,1,.62-1.86,3.8,3.8,0,0,1,2.65-2.49l22.88-.31a1.12,1.12,0,0,0,1-.24,4.6,4.6,0,0,0,1-1l.31-.78v-1.55l-.31-.94h-18.21a7.44,7.44,0,0,1-5.91-2.49,7.23,7.23,0,0,1-.94-2.8,7.37,7.37,0,0,1,.94-3.11,9.33,9.33,0,0,1,5.91-2.8h96.18a9.1,9.1,0,0,1,6.07,3.26,6.65,6.65,0,0,1,.78,3.27,4,4,0,0,1-.78,2.65,6.19,6.19,0,0,1-4,1.56l-2.49-.47,12.92,7.16a4.13,4.13,0,0,1,1.71,3.27l-.15,1.55a7,7,0,0,1-4.67,4.05l-.62.15a12.81,12.81,0,0,1-2-.15,27,27,0,0,1-3.58-1.09l-8.09-3.42h-.93l-1.87.46ZM1630.09,19.91l-.15-.47c0-2,1-3.58,3.11-4.82a8.92,8.92,0,0,1,3.58-.62,10.57,10.57,0,0,1,3.58.62,10.3,10.3,0,0,1,3.11,5.29v.93l1.09.94h53.22a9.52,9.52,0,0,1,5.45,3.27,6.59,6.59,0,0,1,.78,3.27,2.85,2.85,0,0,1-.78,2.33,6.55,6.55,0,0,1-5.45,3h-53.22l-1.09.93V38.9l1.09.93h43.73a22,22,0,0,1,6.23,2.49l.31,3.58-.31,2.65a8.8,8.8,0,0,1-6.23,3h-101a6.65,6.65,0,0,1-5.6-3,5.38,5.38,0,0,1-.94-2.65,9.49,9.49,0,0,1,.94-3.58,15.35,15.35,0,0,1,5.6-2.49h41.71l1.24-.93V34.54l-1.24-.93H1577a6.72,6.72,0,0,1-5.91-3,3.17,3.17,0,0,1-.94-2.33,9.45,9.45,0,0,1,.94-3.27,9.19,9.19,0,0,1,5.91-3.27h51.83l1.24-.94ZM1594.3,80.76q-12.45,0-12.45-13.23V66.29q1.08-10.89,12.45-10.9H1681c3.74,0,6.64,1,8.72,3a10.45,10.45,0,0,1,3.11,7.94v1.24q0,13.23-11.83,13.23Zm3.89-9.65h80.46l1.24-1.09v-2.8l-1.24-.93h-80.46l-1.09.93V70Zm26.14,43,45.29-1.25-4.2-3.27h-37.2l-2,.47-1.87,3.27Z"/><path class="cls-10" d="M452.44,200H483.1c6.91,0,12.19.53,15.81,1.59a27.87,27.87,0,0,1,12.53,7.65,36.35,36.35,0,0,1,7.93,13.46q2.71,8,2.72,19.64a54.59,54.59,0,0,1-2.55,17.68,36.63,36.63,0,0,1-8.9,14.68,29.61,29.61,0,0,1-11.78,6.63q-5.57,1.75-14.85,1.75H452.44Zm16.78,14.06v55h12.52a45.48,45.48,0,0,0,10.14-.8,15.53,15.53,0,0,0,6.78-3.45q2.68-2.44,4.39-8t1.7-15.22q0-9.63-1.7-14.79a19,19,0,0,0-4.76-8.05,16,16,0,0,0-7.77-3.91q-3.51-.8-13.77-.79Z"/><path class="cls-10" d="M611.24,283.11H593l-7.26-18.87H552.52l-6.85,18.87h-17.8L560.23,200H578Zm-30.89-32.87L568.9,219.42l-11.22,30.82Z"/><path class="cls-10" d="M630.22,283.11v-69H605.57V200h66v14.06H647v69Z"/><path class="cls-10" d="M748.72,283.11H730.47l-7.25-18.87H690l-6.86,18.87H665.36L697.72,200h17.73Zm-30.88-32.87-11.45-30.82-11.22,30.82Z"/><path class="cls-10" d="M757.51,283.11V267.19h15.92v15.92Z"/><path class="cls-10" d="M828.51,252.57v-14h36.16v33.1q-5.26,5.1-15.27,9a55.54,55.54,0,0,1-20.26,3.88q-13,0-22.73-5.47a34.75,34.75,0,0,1-14.56-15.64A50.54,50.54,0,0,1,787,241.29a47.76,47.76,0,0,1,5.45-23.06,36.59,36.59,0,0,1,15.92-15.48q8-4.12,19.89-4.13,15.48,0,24.17,6.49A29.26,29.26,0,0,1,863.59,223l-16.66,3.12a17.58,17.58,0,0,0-6.6-9.66,20,20,0,0,0-12.1-3.55q-11,0-17.48,7t-6.49,20.68q0,14.79,6.57,22.19t17.23,7.39a28.84,28.84,0,0,0,10.57-2.07,36.12,36.12,0,0,0,9.1-5V252.57Z"/><path class="cls-10" d="M876.74,242.08q0-12.69,3.8-21.3a39.29,39.29,0,0,1,7.73-11.4A32.5,32.5,0,0,1,899,201.9a45.67,45.67,0,0,1,17.91-3.28q18.36,0,29.39,11.39t11,31.68q0,20.12-10.94,31.48t-29.24,11.36q-18.52,0-29.47-11.3T876.74,242.08Zm17.29-.56q0,14.11,6.51,21.39a22.42,22.42,0,0,0,33,.06q6.42-7.23,6.43-21.68Q940,227,933.73,220t-16.64-7q-10.37,0-16.72,7.12T894,241.52Z"/><path class="cls-10" d="M991.62,283.11,961.92,200h18.19l21,61.49L1021.48,200h17.8l-29.76,83.08Z"/><path class="cls-10" d="M1037.07,283.11V267.19H1053v15.92Z"/><path class="cls-10" d="M1088.13,283.11v-69h-24.65V200h66v14.06h-24.6v69Z"/><path class="cls-10" d="M1152.11,283.11,1132.27,200h17.18L1162,257.1,1177.16,200h19.95l14.56,58,12.75-58h16.89l-20.17,83.08h-17.8L1186.79,221l-16.49,62.11Z"/></g></g></svg>