<?xml version="1.0" encoding="utf-8"?><svg version="1.1" id="svg" xmlns="http://www.w3.org/2000/svg" xmlns:xlink="http://www.w3.org/1999/xlink" x="0px" y="0px" width="1200px" height="920px" viewBox="0 0 1200 920"><title>Little Twin Stars - free.arinco.org</title><a xlink:href="http://free.arinco.org/mail/sanriotown/"><path fill="#B7886E" d="M128.718,259.79c-0.959-10.838-12.143-16.623-11.231-26.208c5.26-9.419,18.648-4.544,27.144-7.488 c11.36-3.937,12.486-20.991,24.336-19.656c5.454,3.499,5.397,6.732,7.488,11.232c1.345,2.896,1.824,8.918,5.616,13.104 c6.595,7.282,25.812,5.921,27.144,14.977c1.534,10.43-19.498,15.18-22.464,22.465c-2.747,9.108,1.17,24.88-6.552,29.017 c-10.25,0.673-15.268-10.645-24.335-12.17c-9.376-1.577-17.582,5.981-28.08,3.745C120.606,280,129.559,269.286,128.718,259.79z M1151.769,797.992c-5.721-5.416-15.166-12.786-16.85-19.657c-5.352-21.839,8.098-34.146-0.934-54.288 c-21.336-5.41-32.417,19.081-52.417,19.655c-7.851,0.226-17.229-4.243-25.273-6.551c-7.8-2.237-15.712-6.63-25.271-4.68 c-6.795,19.435,7.736,35.158,4.68,52.417c-1.407,7.941-10.05,15.438-14.976,22.463c-5.518,7.871-12.165,15.066-11.232,25.271 c13.903,8.97,33.262,5.362,46.8,11.232c18.159,7.874,19.635,32.708,38.378,39.313c13.084-10.941,16.677-31.373,28.079-43.992 c7.323-4.306,15.272-5.659,24.337-8.425c7.209-2.198,21.072-5.707,21.526-13.104 C1169.021,811.051,1157.926,803.819,1151.769,797.992z M193.302,128.749c15.644,7.528,25.386,11.434,31.824,25.273 c3.621,7.781,7.88,34.542,18.72,34.631c4.692,0.039,14.808-11.855,19.656-16.847c6.104-6.287,12.186-15.423,19.656-17.784 c17.636-5.579,33.965,3.973,48.672-5.616c1.183-19.083-20.234-30.562-21.528-47.736c-0.642-8.521,4.379-18.935,7.488-27.145 c3.252-8.584,7.904-16.756,6.552-27.144c-21.392-9.463-34.297,8.191-54.289,5.616c-14.101-1.817-35.206-28.865-48.672-23.399 c-9.441,10.496-1.164,37.362-9.359,51.479c-3.494,6.018-12.534,9.401-20.592,15.912c-4.247,3.43-17.773,14.795-16.848,20.592 C175.563,122.725,189.311,126.829,193.302,128.749z M1027.281,662.271c-38.282,48.07-87.509,93.545-138.529,130.104 c-51.776,37.101-118.941,65.668-192.816,85.176c-118.149,31.197-261.446,19.096-361.297-17.784 c-23.077-8.523-48.106-20.473-71.136-32.762c-6.667-3.557-18.063-12.446-22.464-12.167c-4.325,0.277-10.447,6.688-12.168,11.233 c-4.339,11.453,0.818,30.92-5.616,40.246c-16.796,3.986-27.275-10.204-41.184-10.296c-12.797-0.081-22.665,12.046-39.313,9.361 c-6.733-12.804,1.525-25.2-1.872-40.249c-2.652-11.748-20.967-21.46-19.656-33.695c1.796-16.766,41.307-8.112,43.056-26.209 c0.8-8.282-9.282-16.511-13.104-21.528c-24.117-31.649-46.933-68.601-64.584-107.639c-0.53-1.173-0.557-1.985-0.936-3.745 c-0.367-1.698-0.43,0.985-0.936,0c-9.015-17.565-15.617-37.832-23.4-61.775C43.614,516.055,31.375,449.39,31.375,372.11 c0-23.318,0.225-53.188,9.36-66.456c11.084-16.099,39.806-18.912,52.416-2.809c10.252,13.093,13.506,34.063,19.656,50.544 c12.724,34.105,28.522,65.65,46.8,93.601c8.801,13.459,17.53,27.447,29.952,39.313c2.669-1.244,5.176-5.025,7.488-8.423 c2.138-3.146,5.343-7.124,5.616-10.296c0.457-5.319-8.812-11.106-10.296-18.722c-2.29-11.749,3.035-23.648,8.424-29.952 c14.757-17.262,45.453-23.966,58.032-43.056c5.587-8.479,11.189-24.095,14.976-34.632c13.243-36.85,23.16-75.196,47.736-101.089 c12.542-13.213,27.774-22.997,41.184-33.696c-2.001-7.644-6.821-6.388-6.552-15.912c0.304-10.738,10.564-17.932,21.528-18.719 c5.67-0.408,10.942,3.148,16.848,1.871c5.938-1.285,11.538-13.276,15.912-15.912c4.586-2.763,13.161-5.377,21.528-2.809 c8.878,2.728,11.501,9.279,10.296,21.529c28.12-4.812,60.818,0.534,86.112,6.552c6.302,1.499,13.015,5.171,18.72,5.615 c5.199,0.406,12.105-1.32,18.72-1.871c27.811-2.316,61.81-3.202,93.601-4.68c23.707-1.104,43.342,2.696,58.032-6.553 c18.413-27.577,35.968-53.841,56.159-82.368c8.617-12.175,18.077-25.789,29.952-39.313c12.689-14.447,31.89-42.087,53.353-22.463 c9.722,8.887,18.429,27.752,24.337,41.184c18.748,42.627,35.872,96.235,49.608,144.144c12.568,7.29,32.17,8.433,49.607,12.169 c32.973,7.066,63.33,16.222,94.535,29.017c14.473,5.934,34.978,11.497,36.504,25.271c1.109,10.009-5.556,16.354-10.296,22.464 c-5.053,6.516-8.544,13.189-14.976,16.848c-24.764,27.438-56.497,56.909-87.049,82.367c-4.449,3.709-9.842,7.595-12.168,11.233 c-10.979,17.169-2.77,41.399-1.871,65.521c0.295,4.694,7.381,2.603,8.425,6.553c4.22,0.457,1.394,7.966,5.614,8.423 c7.559-2.291,18.967-6.449,26.208-0.935c15.942-9.717,27.417-19.904,40.249-33.696c8.763-9.42,23.994-30.897,41.184-31.826 c22.004-1.187,27.308,18.518,23.4,42.122c-3.148,19.013-10.962,37.913-17.784,54.288c-20.099,48.234-51.221,96.756-82.367,132.912 C1029.538,660.101,1027.275,662.277,1027.281,662.271z M637.904,609.855c6.43-14.521,16.83-20.612,20.592-36.504 c-15.549,3.171-26.039,11.4-46.801,9.358c-9.139-3.653-7.336-18.245-8.424-29.95c-7.558,2.993-15.912,9.999-15.912,16.847 c0,6.365,9.177,15.109,14.976,21.528c6.646,7.355,13.759,14.247,16.849,19.657c-0.583,2.583-3.337,7.833-1.873,9.359 c5.127-2.06,10.365,9.323,17.785,9.359c3.5,0.018,8.691-2.603,9.359-6.551C645.532,616.589,638.285,616.716,637.904,609.855z"/><path fill="#FFFAC2" d="M185.814,114.711c2.684-7.044,10.438-12.122,16.848-16.85 c6.248-4.607,15.563-7.955,18.72-14.976c5.482-12.192-0.61-30.364,5.616-44.929c11.404,2.758,19.87,9.25,29.017,15.912 c3.451,2.514,5.143,5.848,8.424,6.553c16.792,3.605,34.541-13.105,51.48-6.553c-0.314,19.631-16.73,31.027-14.976,48.673 c1.585,15.958,19.38,22.225,20.592,37.439c-3.355,5.122-11.297,4.18-16.848,4.68c-8.692,0.787-19.011-0.749-26.208,1.873 c-5.695,2.075-11.997,11.06-16.848,15.912c-5.808,5.808-10.367,11.758-15.912,15.911c-3.026-0.718-4.898-2.59-5.616-5.615 c-0.796-0.172-0.883,0.364-0.936,0.936c-0.752-3.288-5.254-12.154-8.424-20.592c-2.628-6.995-4.72-14.996-8.424-18.721 c-4.452-4.474-12.98-6.863-18.721-9.358C197.178,122.214,190.069,120.746,185.814,114.711z M1143.344,800.801 c-5.251-4.124-11.215-8.734-14.976-14.979c-4.425-7.345-2.295-20.675-0.937-31.821c0.568-4.667,5.632-23.35-2.809-21.529 c-14.889,3.21-28.971,16.74-43.991,21.529c-13.277-4.284-27.087-12.731-42.121-12.17c-2.021,18.87,8.791,30.651,6.554,44.929 c-1.104,7.043-8.56,13.858-13.104,19.654c-5.02,6.404-12.105,12.155-12.169,21.529c15.325,6.451,35.112,2.861,43.994,11.232 c10.842,10.223,15.92,27.011,29.95,32.759c5.178-5.504,8.397-11.926,12.168-18.72c3.666-6.604,5.639-16.034,11.232-20.592 c5.002-4.073,14.051-5.102,20.592-7.488c3.321-1.211,7.145-2.42,10.296-3.742c3.088-1.298,7.104-2.707,9.361-5.616 C1156.661,806.942,1148.3,804.69,1143.344,800.801z M185.814,505.022c-9.609-11.605-21.837-25.73-29.952-38.375 c-1.52-2.369-0.685-3.166-2.809-6.554c-0.645-1.026-6.646-6.832-4.68-7.487c0.138-0.046-0.463,1.692-0.936,0.936 c-21.718-34.747-36.861-70.235-50.544-113.256c-5.538-17.413-10.655-36.998-29.016-36.504c-22.784,0.612-23.355,24.503-24.336,46.8 c-0.817,18.596-0.84,36.729,0,55.225c4.701,103.475,36.086,197.774,76.752,268.633c12.388,21.584,26.418,41.414,40.249,59.903 c1.734,2.321,6.609,4.505,4.679,8.425c3.496-2.336,4.162,4.812,8.424,4.68c17.95-14.582,24.115,12.096,33.697,20.592 c27.616-26.36,50.745-57.208,74.88-87.047c-1.852-6.23-4.545-6.594-4.68-12.17c-0.222-9.166,9.751-17.875,3.744-26.208 c-2.524-3.499-10.399-3.499-14.976-5.616c-14.799-6.84-24.555-22.349-24.336-45.863c-27.731-1.5-41.45-21.277-36.503-52.416 C195.354,531.051,187.091,521.529,185.814,505.022z M266.311,815.776c0.021-0.485,0.183-1.222,0.937-0.938 c8.544,3.237,16.27,9.258,24.335,13.104c26.319,12.548,53.193,22.115,83.304,30.888c37.727,10.991,79.099,21.198,129.168,23.399 c26.269,1.155,50.07,1.171,75.815,0c109.494-4.971,203.921-39.299,276.12-83.304c16.405-9.996,37.449-21.653,48.674-31.824 c1.082-0.98,2.39-2.593,3.743-3.743c43.796-37.261,84.724-75.748,120.745-118.871c29.1-34.839,58.7-81.222,77.688-130.104 c6.213-16.002,12.632-33.054,14.041-46.801c0.724-7.068,0.733-14.068-2.809-21.529c-16.638-9.515-25.662,3.134-34.633,13.104 c-16.222,18.031-37.723,37.39-53.351,48.673c3.502,9.052-3.679,11.515-5.616,17.783c6.233,3.053,10.57,4.937,10.296,11.233 c-0.419,9.536-13.797,9.704-21.528,13.104c2.325,9.352,14.16,20.549,2.808,26.208c-6.106,3.045-14.351-4.023-23.399,0 c-1.974,13.62-2.867,28.57-15.913,29.951c-7.056,0.749-12.096-3.448-19.654-5.616c-4.764,1.457-4.253,5.486-9.361,6.553 c-9.098,1.902-22.821-4.928-31.825-4.679c2.572,11.847,9.443,19.314,15.912,29.016c6.455,9.677,12.698,19.449,18.721,29.951 c-10.133,11.083-24.766,17.664-40.246,23.4c-3.761,13.5-12.632,32.868-30.891,36.504c-2.669,0.533-6.637-0.546-10.296,0 c-5.35,0.797-9.829,4.217-14.038,3.745c-6.614-0.744-13.341-7.717-14.041-13.104c-0.825-6.355,3.442-9.631,3.745-14.978 c0.297-5.286-2.11-7.846-3.745-14.039c-13.229-2.063-25.987,0.435-36.504,3.743c-3.221,15.895,9.412,15.044,9.361,26.208 c-0.074,15.679-15.541,12.83-27.146,15.912c-3.636,0.968-5.538,3.318-8.423,3.745c-15.447,2.288-27.212-4.68-34.633-10.296 c-5.458-4.131-8.688-10.969-14.976-13.104c-8.807-2.994-20.738-0.815-29.952-1.874c-9.822-1.125-18.84-2.055-24.335-7.488 c0.541-4.448,1.352-8.63,0.936-14.038c-6.973-1.196-11.153,13.396-19.656,12.167c-4.961-0.716-4.459-4.809-8.424-8.425 c-4.934,2.245-11.467,2.888-17.785,3.745c-2.607,2.057-5.158,4.705-9.359,5.617c-1.95,0.421-4.704-1.136-7.488-0.938 c-5.322,0.381-7.9,2.758-11.231,1.871c-5.855-1.554-6.164-9.171-13.104-10.296c-11.751,4.162-11.657,20.168-19.656,28.082 c-11.614,4.149-17.736,22.687-32.76,20.592c-7.847-1.094-7.01-7.863-15.912-9.361c-22.379,3.781-45.833-5.375-59.904-15.912 c-17.844,9.311-47.915,17.007-75.815,14.978c-10.009-0.729-21.498-2.29-28.081-8.424c1.71-23.937,1.375-52.887-4.68-72.071 c-6.856,19.845-30.825,41.541-56.16,36.501c-16.429,16.913-35.471,42.35-48.673,56.162c-8.377,13.462-20.836,22.844-28.08,37.44 c11.126,6.741,35.951,4.494,29.952,25.271C254.938,806.173,263.302,811.901,266.311,815.776z"/><path fill="#C8E9F2" d="M912.152,201.757c-6.617,0.552-14.191-5.675-20.592-8.423 c1.221-6.748,5.708-7.58,5.616-14.04c-0.124-8.607-10.174-15.674-20.595-15.912c-5.113-0.117-9.234,3.348-14.038,1.871 c-5.342-3.265-9.036-11.837-14.041-15.911c-0.338-0.276-1.387,1.421-1.871,0.936c-0.19-0.19,1.368-1.612,0.937-1.871 c-15.13-9.09-34.211-0.767-29.953,20.592c-23.982-3.026-55.968-3.715-77.688-0.937c7.911-17.818,19.354-36.055,30.89-53.351 c17.476-26.209,31.332-42.667,51.479-64.585c5.454-5.933,12.108-14.567,20.592-14.04c11.7,0.727,21.43,24.091,25.273,32.759 C886.606,110.455,902.491,153.005,912.152,201.757z M587.359,195.206c-6.559,0.406-13.662,0.152-18.72,3.744 c17.435,13.141,31.962,29.19,48.671,43.057c12.371-12.346,25.408-24.1,38.377-34.633c4.205-3.415,9.972-6.762,12.168-12.168 C642.541,193.964,612.478,193.645,587.359,195.206z M1011.368,377.727c24.779-19.299,45.851-38.991,67.393-61.776 c4.52-4.782,22.171-22.995,20.592-31.823c-1.536-8.581-23.588-14.227-29.954-16.85c-35.856-14.771-73.229-23.208-112.317-30.888 c-0.939-0.002-1.115,0.758-1.874,0.938c0,0.623,0,1.246,0,1.871c26.089,36.016,47.755,81.395,41.184,146.952 C1002.289,386.285,1007.126,381.03,1011.368,377.727z M974.864,500.344c1.6-6.912-1.117-16.042-1.874-24.337 c-0.726-7.976-1.406-16.358-2.806-23.4c-1.198-0.051-1.297-1.2-2.808-0.936c-4.791,4.569-10.456,8.266-15.912,12.168 c-6.025,13.633-16.131,23.182-35.57,23.4c-3.123,10.915-6.845,21.234-8.422,33.696c19.363,3.044,34.598-8.438,48.671-1.872 C961.748,512.935,972.671,509.804,974.864,500.344z M640.711,494.727c-0.053-0.571-0.141-1.106-0.936-0.937 c-5.125,6.059-8.292,12.457-13.104,20.595c-3.472,5.87-9.206,11.857-11.231,17.783c-3.746,10.961-1.305,23.854,1.871,37.438 c15.109,3.361,33.646-7.32,44.929-12.167c4.331-1.861,11.075-3.288,13.104-6.551c4.504-7.249-0.404-10.654-3.744-16.85 c-6.371-11.816-10.463-23.433-14.977-35.567C651.546,496.997,645.197,496.794,640.711,494.727z M958.016,578.968 c0.472,10.445,7.914,13.924,17.783,14.976c4.192-3.283,5.53-10.136,3.745-16.85C971.525,577.774,961.806,571.653,958.016,578.968z M208.278,785.822c-13.398-6.565-10.286-25.789-23.4-32.759c-12.118,5.813-11.124,21.582-21.528,29.017 c-9.139,6.53-24.032,2.062-32.759,11.23c1.342,11.223,16.011,16.285,19.655,29.017c3.044,10.628-4.251,21.322,0,33.695 c14.096,0.985,20.515-9.938,31.825-10.296c13.007-0.408,20.727,14.265,35.568,11.233c3.357-11.703-1.442-23.258,0.936-32.76 c3.063-12.238,20.331-15.198,21.528-28.082C231.158,787.463,218.132,790.652,208.278,785.822z"/><path fill="#FFF" d="M586.423,630.447c-6.528-6.449-9.347-15.646-14.976-22.463 c-7.941-9.621-18.108-16.064-29.016-22.466c-1.733-13.554-3.048-27.528-11.232-34.63c-4.69,8.384,4.059,21.909,0,32.759 c-6.038-0.109-12.442-0.587-14.976,2.808c5.074,5.604,13.615,4.688,19.656,6.551c27.965,8.639,39.34,37.667,51.48,62.713 c-58.391-0.93-94.205,24.375-131.976,45.865c-20.109,11.441-53.788,24.18-87.984,12.167c0.789-25.126-4.915-43.758-3.744-69.263 c1.552-1.569,5.495-0.746,8.424-0.937c8.182-19.16,16.198-38.124,25.272-57.097c2.782-5.816,8.491-11.461,6.552-18.72 c-6.399,1.993-8.278,9.763-11.232,14.975c-3.168,5.594-6.266,11.419-9.36,16.85c-6.352,11.149-11.361,22.811-17.784,31.824 c-10.582-1.276-20.728-5.007-27.145-9.361c-0.178-0.122-0.612-1.681-1.872-2.808c-4.957-4.429-19.76-13.146-19.656-22.464 c0.032-2.787,9.2-10.336,13.104-15.912c1.864-2.663,4.212-6.837,4.68-7.487c3.009-4.172,3.967-5.659,6.552-9.361 c8.007-11.462,18.896-24.297,27.144-32.759c0.152-1.09,15.76-25.089,31.824-26.209c5.957-0.413,12.067,2.672,18.72,3.745 c8.973,1.447,18.495,0.247,27.144,3.743c7.404,15.887,26.044,27.229,49.608,24.337c14.385-1.765,22.337-11.145,29.952-19.657 c20.716-3.091,32.027,17.72,41.185,33.698c8.276,14.442,14.27,29.646,20.592,37.438c2.386,10.607,30.178,23.029,11.232,35.566 C595.261,626.807,593.208,630.993,586.423,630.447z M872.84,583.647c-3.763,4.41-0.973,12.565,0,17.783 c-12.764,9.902,4.865,20.023,7.487,29.017c-9.376,10.902-21.27,19.289-36.504,24.337c-8.939-11.396-12.71-30.263-18.721-43.992 c-1.866-4.268-3.039-12.499-10.296-11.232c-4.523,4.555-3.631,12.807-4.68,20.592c-0.977,7.252-2.445,15.204-2.807,22.463 c-0.295,5.896,1.942,13.068-2.809,16.85c-14.923-0.406-30.338-8.323-42.121-14.976c0.506-7.607,3.697-12.527,3.744-20.595 c-4.605-3.504-10.567-5.654-10.295-14.038c-11.168-0.688-16.656-7.059-27.145-8.425c-3.168,7.059-6.037,15.179-8.424,23.4 c-2.424,8.355-3.275,17.318-7.488,24.337c-3.647,1.968-10.764,0.467-15.912,0.935c0.674,12.53-3.861,19.85-2.807,32.761 c-1.187,4.431-6.612,4.621-6.553,10.296c30.159,10.73,57.544,4.094,85.176-5.616c16.239-5.708,32.582-14.592,48.673-15.912 c26.155-2.148,49.687,9.58,76.751,6.554c7.731-0.866,15.014-4.218,21.528-7.488c5.934-2.98,13.541-6.229,15.912-13.104 C916.266,631.326,908.742,593.296,872.84,583.647z M584.551,668.822c-1.994,3.662-1.382,6.906-0.936,11.233 c5.848-0.392,10.042-2.438,12.168-6.554C595.184,669.138,588.447,666.878,584.551,668.822z M767.072,525.614 c-5.742-3.574-8.957-10.753-14.041-13.104c-8.709-4.027-24.918-3.783-33.696-1.871c-11.084,2.414-16.141,15.036-22.464,17.783 c-1.254,6.711-6.989,11.913-11.232,18.721c-8.777,14.079-14.509,26.649-23.399,42.12c-3.529,6.142-12.032,15.793-11.231,21.528 c0.69,4.957,11.707,11.589,16.848,14.976c9.407,6.2,22.618,13.592,37.439,13.104c4.689-5.051,6.025-12.901,8.424-19.657 c7.35-20.693,14.566-44.108,24.337-58.968c5.815,1.077,8.654,7.414,14.976,7.488c3.501,0.04,7.386-3.621,12.168-4.68 c5.78-1.279,14.104-1.978,21.527-0.937c4.557,0.64,8.622,3.417,13.104,3.745c5.034,0.365,9.779-1.907,12.168-1.874 c1.363,0.021,2.983,1.747,3.745,1.874c13.492,2.247,18.898-12.059,30.888-14.041c17.105-2.829,31.124,4.471,28.079,20.592 c10.497,1.231,15.466,11.291,24.337,15.912c12.554,6.543,27.544,6.124,45.863,8.424c9.293-16.433,8.993-53.713,0-70.199 c-27.849,4.888-46.772,3.567-62.712-6.554c-5.403-3.43-10.307-9.104-15.913-11.23c-11.87-4.504-22.915-0.142-37.438,0 C821.073,529.378,790.584,540.252,767.072,525.614z"/><path fill="#BDE5DD" d="M846.632,156.83c-5.145-3.93-15.74-3.671-17.784,1.872 c-4.469,12.109,12.068,14.02,12.168,24.336c-7.506,3.899-15.268-0.404-22.464-1.873c-58.757-11.986-113.442,7.295-148.825,30.89 c-9.404,6.271-19.145,13.404-25.271,19.656c-4.039,4.12-16.875,19.02-16.848,25.271c0.024,5.82,8.754,17.059,13.104,25.272 c22.236,41.983,29.025,106.113,14.977,162.865c16.89,10.509,17.64-14.011,21.527-25.273c5.063,0.74,8.852,4.161,14.041,4.682 c8.275,0.827,19.553-2.67,24.336-8.425c4.555-5.482,2.524-13.823,9.359-16.849c10.061,7.054,22.803,14.115,36.504,8.424 c9.689-4.024,13.569-14.681,18.72-22.463c10.187,6.226,17.751,18.023,33.698,17.783c13.527-0.203,18.281-9.091,28.079-13.104 c5.548,5.6,5.614,13.087,12.167,17.783c11.375,8.151,26.19,1.498,39.313-1.871c3.428,13.678,5.022,29.052,19.655,30.888 c6.683,0.839,13.67-4.924,21.528-3.744c8.671,1.302,11.776,13.034,18.721,13.104c9.181,0.093,17.354-21.703,21.528-30.888 c5.762-12.677,10.142-26.831,11.23-41.186c4.367-57.555-16.247-94.567-40.247-125.424c-15.912-20.458-34.734-35.339-58.032-45.863 c-8.128-3.672-19.521-5.153-22.463-13.104c7.256-4.287,23.684,0.596,21.528-13.104c-7.313-8.327-22.517-1.116-30.891,0.937 C851.555,173.08,852.759,161.511,846.632,156.83z"/><path fill="#F7ADC6" d="M345.871,545.272c4.506-5.827,8.103-12.947,13.104-17.784 c0.482-0.467,0.65-0.619,0.936-0.937c3.661-4.075,7.453-8.098,11.232-12.167c3.812-4.111,10.198-6.874,11.232-13.104 c-7.777-2.938-13.926-9.885-23.4-13.104c-4.601-1.563-10.202-0.967-14.976-2.808c-9.289-3.585-16.306-13.922-16.848-24.337 c-0.645-12.376,6.343-27.146,19.656-27.146c9.603,0,15.457,10.027,24.336,6.554c8.32-3.258,5.879-14.979,11.232-24.337 c9.409-0.541,9.77,4.947,16.848,5.616c17.032,1.609,18.721-15.625,29.016-23.4c9.735,3.908,11.944,13.069,23.4,13.104 c14.849,0.046,15.444-11.354,25.272-15.912c10.337,7.215,17.866,19.094,34.632,15.912c9.07-1.722,12.837-11.712,22.464-13.104 c5.621,10.149,11.581,22.728,25.271,23.4c9.658,0.475,15.226-6.233,24.336-9.36c7.061,6.979,7.171,20.909,15.912,26.208 c5.012,0.916,11.997-0.141,14.04,3.744c2.604,46.906-21.14,67.468-59.903,73.008c8.694,12.211,16.539,25.271,25.272,37.441 c6.493-2.669,10.418-8.795,14.976-14.041c33.037-38.025,60.389-94.136,57.097-166.608 c-4.723-103.974-72.054-180.883-173.161-185.328c-19.797-0.871-38.73,3.101-58.032,4.679c-0.915-8.36,15.507-11.636,10.296-24.335 c-19.894-11.297-22.382,15.417-31.824,21.527c-8.19-4.867-30.354-11.007-30.888,1.872c-0.47,11.346,13.986,7.109,19.656,14.04 c-3.508,3.407-8.232,5.37-12.168,7.489c-30.957,16.663-52.268,39.468-69.264,71.136c-20.242,37.712-21.097,87.27-47.736,112.32 c-11.826,11.119-29.55,15.039-41.185,24.335c-3.318,2.652-11.509,12.804-12.167,16.849c-2.814,17.279,11.416,18.828,19.656,25.273 c-4.909,11.405-26.177,24.926-25.272,43.992c0.262,5.53,3.074,14.693,9.359,17.783c5.648,2.775,14.595-1.097,17.784,5.616 c-7.048,13.985-14.56,31.914-1.872,43.056c8.837,7.762,20.94,5.461,35.567,6.553c-0.25,10.356-4.557,20.447-2.808,29.951 c2.156,11.712,14.087,20.935,25.272,19.657c5.281-0.604,10.263-5.73,14.04-9.361c4.374-4.202,8.347-8.055,12.168-12.168 c0.722-5.402-4.71-4.648-3.744-10.296C318.677,579.295,332.856,562.096,345.871,545.272z"/><path fill="#F8BFC6" d="M164.287,214.861c-4.229,7.004-8.698,13.767-15.912,17.785 c-6.703,1.407-14.845,1.378-22.464,1.872c-2.178,8.688,8.101,13.246,9.359,21.527c1.309,8.606-5.055,15.314-3.744,26.208 c9.384-0.6,16.955-3.012,25.272-4.681c6.61,4.311,12.83,9.012,21.528,11.233c2.067-5.733,0.398-15.203,0.937-22.465 c4.658-8.758,16.879-9.951,21.528-18.719c-6.67-8.506-19.312-5.644-25.272-14.041c-4.372-6.16-1.747-14.285-9.36-18.721 C165.535,214.861,164.911,214.861,164.287,214.861z"/><path fill="#F7ADC6" d="M903.728,491.919c-0.181,11.053-3.834,18.629-9.359,24.337 c-7.848-2.45-13.619-6.973-17.786-13.104C886.04,499.817,892.832,493.818,903.728,491.919z M684.703,532.168 c5.182-8.234,13.023-13.81,16.849-23.4c-11.353-3.001-21.505-7.2-32.761-10.296C669.949,513.849,676.498,523.835,684.703,532.168z M829.782,573.352c13.782,1.768,32.206,0.495,36.504-10.296C855.811,554.207,832.794,560.694,829.782,573.352z M760.519,579.902 c9.415,6.606,32.424,4.377,37.441-4.68C790.529,568.705,760.592,562.327,760.519,579.902z M818.552,572.415 c-11.24-6.612-17.896,16.478-5.616,18.72c4.271,0.779,4.505-1.571,8.425-2.808C823.249,580.699,821.919,574.397,818.552,572.415z M739.927,573.352c-3.464,5.271-6.611,10.859-6.552,19.654c7.059,2.615,11.21,8.136,21.529,7.488 C751.168,590.19,752.557,574.764,739.927,573.352z M830.72,580.839c-2.393,2.29-1.45,7.912-2.809,11.233 c7.693,6.226,23.235,11.807,35.567,7.487c-1.15-6.975,2.376-19.211-1.871-22.466C852.667,579.699,842.887,581.461,830.72,580.839z M760.519,589.264c0.606,6.068,2.274,18.85,6.554,24.334c10.975,1.095,21.409-4.844,27.144-9.358 c7.347-5.784,10.27-11.005,4.68-18.721C785.84,586.791,774.539,594.491,760.519,589.264z M848.503,642.614 c8.155-3.702,16.991-6.721,21.528-14.038c-3.836-15.199-19.129-23.926-37.44-21.529 C837.567,619.229,840.205,633.753,848.503,642.614z M777.368,622.96c-2.048,5.44-4.04,10.936-5.616,16.847 c5.816,5.728,15.552,7.535,24.335,10.296c5.414-10.497,5.238-26.584,6.553-41.184C792.319,611.704,787.745,620.232,777.368,622.96z "/><path fill="#FFE5CA" d="M837.272,406.742c11.342,9.035,25.7,18.658,47.734,14.04 c4.472,11.204,15.349,27.157,30.888,27.145c7.965-0.008,13.315-7.038,20.592-3.745c11.946,5.408,5.695,31.14-10.296,32.762 c-4.743,0.482-9.76-3.156-13.104-2.809c-5.738,0.6-14.98,10.926-23.4,14.976c-21.572,10.383-51.102,11.02-80.495,14.976 c-5.281,0.714-10.99,2.694-15.912,2.809c-7.747,0.18-16.65-2.415-25.271-2.809c-38.85-1.765-77.712-1.638-99.217-19.655 c-6.582,1.958-17.267,6.777-23.4,0.938c-2.262-10.332,4.461-19.056,6.553-28.082c4.967,0.026,7.967,2.019,11.231,3.745 c10.45-6.088,17.464-15.609,23.399-26.208c19.758-0.523,32.727-7.836,42.121-18.721c20.443,9.062,39.85,0.436,51.479-10.296 c6.439-5.941,21.341,7.198,31.824,7.487C820.972,413.542,827.698,410.417,837.272,406.742z M492.823,420.782 c-6.047-1.682-9.825-7.328-14.976-7.488c-6.881-0.212-16.707,8.088-28.08,7.488c-11.581-0.611-17.23-8.232-23.4-1.872 c0.717,1.237-9.346,10.144-17.784,12.168c-5.442,1.306-11.347,1.355-16.849,0c-6.136,5.134-8.419,12.091-15.912,16.849 c-2.569,1.63-8.183,4.992-12.167,4.68c-6.736-0.527-8.752-8.054-15.913-7.487c-14.881,1.175-14.221,26.246-0.936,31.824 c6.001,0.698,9.516-1.092,14.976-0.937c11.679,10.567,32.453,20.457,57.096,25.273c11.421,2.229,24.26,2.777,36.504,4.68 c17.423,2.704,30.219,9.247,49.608,7.487c12.038-1.092,27.058-3.823,41.184-5.616c34.996-4.44,58.743-16.732,57.097-55.225 c-3.904-4.821-9.636-6.655-14.041-11.232c-3.197-3.323-6.174-10.956-10.296-12.168c-6.363-1.868-15.846,2.575-22.464,1.872 c-13.071-1.39-18.168-9.41-28.08-14.976C518.926,421.513,506.083,424.47,492.823,420.782z M986.095,491.919 c-6.855,5.527-7.224,14.779-12.167,21.528c-4.791,6.543-14.209,9.461-16.847,17.784c2.552,10.864,2.021,24.812,4.68,35.566 c15.952,3.596,38.167,3.456,51.479,1.874c1.69-11.675-11.434-8.533-14.976-14.978c2.066-14.155,25.581-6.866,29.95-18.718 c-3.747-5.927-19.54,0.195-24.334-4.683c4.821-8.592,20.239-6.591,20.592-19.654c-10.413-4.291-17.012,7.757-25.273,5.616 c2.536-8.074,14.282-6.937,16.849-14.976c-11.718-4.448-19.886,7.495-28.079,6.551c-0.203-6.129,3.658-8.196,2.808-14.976 C988.52,493.239,988.74,491.146,986.095,491.919z M802.64,514.385c-11.083,1.355-23.945-3.789-34.632-0.938 c4.398,17.316,44.042,15.696,47.736-0.937C811.173,509.41,807.728,513.76,802.64,514.385z M490.015,521.872 c-11.328-0.482-20.135-9.415-31.824-6.554c3.892,18.459,45.435,21.983,53.352,4.68C502.96,518.706,496.845,522.161,490.015,521.872 z M332.767,626.702c-4.886-3.476-10.665-10.994-15.912-11.23c-2.962-0.135-10.425,3.705-13.104,5.616 c-5.891,4.202-10.355,12.406-14.041,17.784c-0.729,7.592,1.348,12.38,0.937,19.654c-2.158,3.146-5.761,4.848-4.68,11.233 c6.128,6.216,17.287-5.398,22.464,0c-2.314,2.676-7.331,2.653-7.488,7.487c2.575,3.436,8.184,0.582,11.232-0.937 c22.505-2.453,29.19-20.729,34.632-40.247C342.922,632.463,337.739,630.241,332.767,626.702z M632.287,636.998 c-3.166-2.694-10.779-9.334-14.039-10.296c-12.645-3.725-16.562,7.097-26.209,13.104c0.235,13.178,17.519,20.37,14.04,34.633 c-0.96,3.938-8.022,6.5-8.423,10.296c-0.541,5.101,2.829,7.602,5.616,8.424c3.996,1.181,4.251-2.734,8.424-2.808 c2.525-0.046,3.386,3.707,7.488,1.871c2.467-0.652,1.979-4.261,4.68-4.68c2.992-0.127,7.162,0.922,6.551-2.808 c-1.211-3.469-6.719-2.641-7.487-6.551c-1.596-6.519-5.683-10.543-9.36-14.979c3.199-3.918,1.776-10.953-0.936-14.038 c9.773-9.367,19.631,3.412,29.952,0.935C642.638,644.725,636.455,640.548,632.287,636.998z M640.711,670.696 c1.484,3.56-7.051,9.526-3.744,14.976c11.545,1.971,12.84-13.835,21.529-17.783c3.352,8.208-4.763,12.578-2.809,22.463 c10.462,1.023,12.613-14.16,20.592-18.721c3.73,3.445,2.098,12.256,11.232,10.296c1.842-10.636,3.25-21.709,2.807-34.63 c-3.828-2.677-19.387-10.391-25.271-14.041c-3.549-2.202-7.294-4.475-9.359-4.68c-6.215-0.62-11.89,2.219-12.169,7.487 c-0.272,5.162,4.243,4.334,5.616,9.359c-1.043,16.118-22.907,11.413-22.464,29.017c10.442,3.56,10.11-10.865,18.72-12.168 C648.107,666.189,641.994,670.569,640.711,670.696z M621.056,663.206c6.018,0.404,8.948-2.282,10.296-6.551 c-0.73-0.205-1.088-0.784-0.938-1.871C624.963,651.839,619.518,656.13,621.056,663.206z M534.943,674.439 c-0.176,10.232,8.195,8.219,14.04,12.167c2.923,1.976,6.164,5.702,6.552,11.232c1.346,19.165-21.315,11.987-23.4,29.017 c7.658,8.907,14.651-0.063,15.912-6.554c21.931-2.925,29.573-29.42,24.336-53.351C557.055,666.599,544.744,669.265,534.943,674.439 z M482.527,697.839c-0.312-0.754-0.364-0.77-0.936,0c-0.903,1.217-7.221,5.368-9.36,8.425c-0.202,6.129,6.89,4.967,8.424,9.359 c12.867,6.307,34.267,7.571,46.8,0c1.002-3.364,2.751-5.985,5.616-7.488c4.826-1.727,10.767-2.336,14.041-5.616 c0.289-3.407-0.149-6.091-0.937-8.422c-4.208-2.615-11.789,0.843-14.976-0.938c0.876-8.051-2.64-11.712-6.552-14.975 C508.639,682.768,496.635,691.356,482.527,697.839z M853.183,685.672c-2.39,5.411,1.211,10.674,3.745,14.038 c-4.994,2.182-9.247,5.106-7.488,14.041c6.231,7.763,13.846,0.274,19.655-2.808c15.709,5.118,28.301-4.954,27.146-22.463 C881.438,687.992,868.076,686.065,853.183,685.672z M745.543,707.198c4.787,15.349,29.428,23.156,43.057,11.232 c3.999,2.918,13.852,2.488,16.848-0.935c-0.305-3.44,0.799-8.287-0.936-10.298c-2.104-2.887-9.104-0.879-12.168-2.806 c1.067-3.608,3.018-8.128,0.936-12.17C775.334,691.529,764.842,706.149,745.543,707.198z"/><path fill="#B7886E" d="M857.864,443.246c6.376-16.043,37.291-9.604,28.08,13.104 C877.687,468.257,853.749,464.278,857.864,443.246z M400.159,451.671c-2.015,20.812,27.419,21.189,30.888,6.552 c3.111-13.127-8.485-23.291-21.528-18.721C402.196,442.068,400.692,446.161,400.159,451.671z M694.064,456.351 c0.604,12.179,17.24,15.434,24.335,10.297c3.442-2.493,6.415-9.16,5.616-14.977c-1.209-8.802-10.741-12.184-16.848-11.231 C697.362,441.965,693.68,448.633,694.064,456.351z M574.255,474.135c19.206,0.244,20.797-32.961-2.808-28.08 C556.474,449.149,557.192,473.919,574.255,474.135z M797.022,490.984c2.739-1.008,3.288-4.202,2.809-8.425 c-1.859-0.013-1.189-2.554-3.744-1.874C793.687,483.161,793.922,489.121,797.022,490.984z M501.247,499.406 c3.571-0.484,4.772-3.339,4.68-7.487c-1.335-0.224-1.579-1.541-2.808-1.871C501.074,492.419,497.401,496.474,501.247,499.406z"/></a></svg>