<?xml version="1.0" encoding="utf-8"?><svg id="svg" xmlns="http://www.w3.org/2000/svg" width="1200" height="1200" viewBox="0 0 1200 1200"><style>.st2{fill:#ffe102}.st3{fill:#fff}g{}g:target{display:inline}</style><g id="kitty"><path d="M1159.994 478.45c4.555 2.789 6.214 9.343 3.439 13.961-5.732 5.161-14.162 3.906-21.229 5.192-25.229.82-50.783-3.363-75.732 1.875-4.339.45-4.819 5.547-4.727 8.972.388 18.348-3.021 36.479-4.694 54.687-.729 2.93 1.703 5.223 4.184 6.26 6.711 2.961 14.132 3.549 21.276 4.944 17.977 3.208 36.465 6.694 52.457 15.961 3.332 5.128 1.904 13.931-5.27 14.661-25.849 3.796-51.386-6.044-77.297-3.659-6.447 7.131-7.779 16.907-11.995 25.245-5.718 12.337-10.165 25.229-16.302 37.363 2.774 3.766 7.222 5.314 11.266 7.361 17.589 9.747 37.006 15.82 54.193 26.389 5.361 3.626 12.008 6.786 14.535 13.186 2.649 6.929-3.364 14.615-10.135 15.854-12.118-1.315-23.416-6.4-34.418-11.326-13.776-6.322-28.05-11.5-42.075-17.217-4.602-1.3-10.613-5.189-14.363-.234-27.181 32.468-62.313 57.355-99.567 77.003-12.877 6.634-25.614 13.886-39.592 17.915-11.516 4.682-23.618 7.593-35.565 10.848-20.286 5.595-40.74 10.74-61.521 14.102-2.217.713-5.252.016-6.679 2.169.604 9.112 4.34 17.559 7.391 26.065 19.14 48.442 54.89 88.053 74.508 136.246 3.302 7.471 4.447 16.179 10.491 22.175 4.542 4.946 11.731 4.558 17.838 5.703 28.08 4.23 57.089 8.634 82.085 22.997 21.401 12.367 38.51 34.278 40.385 59.507 1.472 21.276-2.852 44.63-18.069 60.515-15.141 16.737-37.146 25.074-58.81 29.365-16.736 3.192-33.705 4.773-50.629 6.539-22.888 1.769-45.838 1.537-68.758 2.217-19.045 1.475-38.337-2.106-57.181 2.139-34.479 4.386-69.318 3.317-103.952 5.021-62.482 1.952-124.979.341-187.462.14-23.259-.092-46.535.418-69.764-1.038-35.845-1.597-73.253-3.828-105.673-20.719-22.95-11.747-40.539-31.938-52.377-54.531-15.048-29.507-20.054-63.599-16.286-96.375 3.083-26.514 13.622-51.991 29.395-73.437 20.286-26.377 50.039-45.98 83.002-51.899 28.777-5.641 59.026-2.293 86.332 8.213 2.991 1.101 5.997 2.201 9.094 3.07 8.803-33.954 20.021-67.521 24.223-102.48-59.011-12.18-118.767-28.234-169.518-61.97-13.791-9.144-26.344-19.991-40.12-29.165-15.31 6.091-30.264 13.141-44.366 21.697-5.456 3.237-10.429 7.236-16.01 10.29-8.569 4.865-15.325 13.031-25.196 15.434-4.602 1.348-9.313.016-13.776-1.115-2.729-7.13-2.403-16.271 3.626-21.65 20.363-20.579 47.947-31.228 71.502-47.419-1.086-6.183-6.385-10.073-9.408-15.218-7.329-11.794-15.123-23.306-21.989-35.363-2.386-4.448-7.563-6.789-12.443-6.928-7.516-.493-14.675 2.186-21.912 3.673-5.922 1.364-12.135.217-17.962 2.062-7.343 1.846-16.535 4.913-22.701-1.317-1.582-4.821-.837-9.98.401-14.782 17.76-10.105 38.292-13.173 57.014-20.923-.714-7.236-3.813-13.899-5.486-20.888-4.293-16.086-6.557-32.714-11.996-48.442-4.973-6.09-13.713-3.627-20.487-3.549-23.259 3.145-46.707 4.587-70.013 7.237-4.833.991-9.281-3.068-9.886-7.686-.341-6.152 2.727-12.614 8.385-15.435 12.768-6.602 27.442-7.191 41.39-9.361 14.102-2.354 28.359-3.472 42.523-5.408 4.029-.187 6.275-4.804 5.904-8.445-.994-42.384 6.477-84.875 21.137-124.639 7.189-20.828 17.372-40.415 27.288-60.018-4.524-17.946-11.049-35.518-14.209-53.866-10.693-51.479-1.504-107.159 26.67-151.68 6.043-9.174 11.699-19.324 21.74-24.671 21.852-13.018 48.753-9.19 72.369-3.844 45.561 9.453 89.138 26.763 130.605 47.591 30.374-7.02 61.26-12.724 92.515-13.59 22.766 1.053 45.562-1.132 68.295.96 12.087-29.242 28.186-57.461 51.091-79.605C650.344 11.96 677.386-1.29 705.295.818c26.453 2.496 49.807 18.271 67.054 37.735 12.15 13.172 21.262 28.729 29.229 44.661 46.829-17.759 94.791-35.906 145.402-37.982 15.761-.776 33.675 3.75 42.725 17.759 15.126 25.352 22.47 54.532 26.175 83.588 11.126 4.479 21.538 11.499 28.297 21.586 7.934 12.196 11.218 26.902 11.328 41.329.386 19.759-4.029 39.16-8.679 58.237-4.092 14.256-10.817 27.63-18.164 40.461-3.593 6.462-8.136 12.396-11.311 19.107 15.42 29.427 26.87 60.854 34.649 93.119 3.875 15.295 6.308 30.9 9.548 46.318 4.587 4.557 11.497 1.194 17.138 1.566 17.511.418 35.1.14 52.534 2.231 9.853 1.237 20.251 2.307 28.774 7.917z"/><path class="st3" d="M713.027 1002.605c-50.783-.572-101.611.93-152.146 5.982-1.457 5.794 1.101 11.592.309 17.401-2.635 5.361-7.762 9.005-11.126 13.9-9.498 11.375-8.32 29.863 2.032 40.26 8.243 7.548 20.5 5.347 29.923 10.274 5.314 7.053 9.996 14.737 16.861 20.457 17.417 15.512 43.731 16.471 64.805 8.632 17.449-6.773 31.815-20.396 41.144-36.479 13.465-23.725 16.752-51.899 14.583-78.724-2.139-.679-4.201-1.61-6.385-1.703zM399.98 948.739c-17.666-11.731-39.47-15.683-60.373-14.707-15.746.917-31.708 4.465-45.345 12.692-21.585 12.335-37.471 33.192-45.808 56.439-10.334 29.086-11.42 61.986-.077 90.948 7.067 18.502 20.719 34.062 36.898 45.25 18.286 12.087 40.307 16.829 61.877 18.502 12.319.668 24.872 2.217 37.084-.418 2.059-11.094 1.798-22.422 1.798-33.644-.7-56.715 7.299-112.984 15.156-169.004.031-2.043 1.238-4.989-1.21-6.058zm485.476-792.2c17.155-7.189 35.426-11.219 53.742-14.07 14.149-2.031 28.482-1.488 42.739-1.535-2.881-18.178-8.399-36.168-18.393-51.728-3.938-4.897-10.586-6.136-16.473-6.864-10.183-.791-20.348 1.007-30.374 2.464-34.82 5.919-67.473 20.021-99.736 33.829-.371 1.069-1.115 3.254-1.486 4.339 11.388 1.27 22.873 3.223 33.441 7.872 13.946 5.672 25.941 15.141 36.54 25.693zm33.705 897.189c-20.362-5.794-41.654-9.53-62.883-7.996.914 10.477 1.92 20.998.742 31.489-2.199 27.738-14.488 54.285-33.629 74.431.374.558 1.086 1.674 1.457 2.246 12.244 1.317 24.608 1.783 36.945 1.674 26.234-.03 53.525-3.703 76.428-17.37 13.87-8.26 21.309-24.967 20.161-40.819-2.539-20.827-19.523-37.843-39.221-43.655zm104.232-491.814c-.077 3.425-3.364 5.888-6.634 5.517-8.261-.418-16.518.402-24.639 1.736-5.999 1.007-11.468 8.477-6.198 13.653 7.299 7.701 18.889 8.275 28.188 12.552-3.517 19.665-13.56 37.469-23.137 54.782-1.843 4.368-7.376 4.447-11.405 4.507-9.127-.199-18.565-5.732-27.445-1.424-4.988 1.982-6.602 8.103-6.444 12.895 4.213 9.233 15.775 10.149 23.134 15.853-16.951 25.134-43.11 41.9-68.835 56.856-50.317 29.333-108.306 41.421-165.394 49.247-41.577 5.563-83.604 4.169-125.413 3.3-74.926-2.649-150.131-10.771-222.532-30.961-43.823-12.382-86.625-30.59-122.995-58.391a352.499 352.499 0 0 0-.095-4.403c8.664-6.753 21-8.91 27.104-18.687.869-5.424-2.416-11.298-7.344-13.545-15.28-1.207-28.035 9.84-42.942 10.863-7.082-.869-12.381-6.323-16.363-11.81-8.292-12.289-17.76-24.083-23.107-38.028 2.867-5.067 9.779-5.937 15.031-7.391 6.293-1.427 12.29-3.999 18.179-6.634 6.323-3.16 3.641-12.69-2.154-14.845-9.376-3.55-19.123 1.054-28.715.418-4.278-.418-8.91 1.534-12.862-.682-4.542-4.354-6.338-10.615-8.385-16.349-5.16-15.9-10.396-32.419-8.275-49.387 16.381-3.472 33.1 1.395 49.528-1.271 4.988-.202 7.949-5.005 9.251-9.298-.311-5.145-4.524-9.05-9.159-10.692-5.952-1.969-12.041-4.029-18.348-4.106-8.925-.418-17.604-2.836-26.546-3.053-5.237.031-11.871-3.967-10.305-9.948 1.039-11.607-.125-23.322 1.641-34.852 4.37-38.633 14.12-76.816 30.592-112.103 7.406-20.423 21.2-37.485 32.884-55.508 2.789-4.509 6.243-9.066 6.368-14.598.729-6.802-5.748-12.18-11.824-13.543-6.4.248-11.079 5.284-16.503 8.027-15.651-25.786-14.924-57.554-10.322-86.332 2.572-18.751 8.028-37.285 18.069-53.479 5.115-7.934 10.073-17.155 19.356-20.796 15.497-6.401 32.667-2.914 48.535.092 40.601 9.19 79.359 25.445 115.634 45.685 9.331 5.268 20.579 4.09 30.623 1.796 44.241-11.497 90.423-11.637 135.797-10.057-6.23 29.258-9.207 60.824 2.231 89.229 10.243 27.817 36.928 48.164 65.951 52.767 33.705 4.494 68.185-2.045 99.116-15.698 9.236 11.188 19.93 21.524 33.103 27.971 20.393 10.816 44.722 12.923 66.945 7.175 11.031 21.773 24.483 43.654 45.218 57.43 10.506 6.37 22.006 11.53 34.216 13.561 20.409 3.362 41.902-1.225 59.506-12.01 6.044-3.595 11.145-8.508 16.723-12.769 16.039 23.664 24.175 51.573 30.637 79.141 2.294 10.181 4.323 20.471 5.006 30.9.603 3.781-1.831 7.47-5.441 8.6-7.546 2.697-15.681 2.588-23.413 4.401-10.088 2.248-20.039 5.268-29.599 9.158-3.486 2.991-4.587 8.493-2.837 12.723 3.101 4.805 8.91 8.09 14.723 7.284 12.535-.853 24.748-4.215 37.269-5.299 3.317-.559 6.51.697 9.64 1.75 1.779 19.494-1.552 38.88-4.588 58.08zm-623.475-.603c-.418-11.638-1.828-24.408-9.824-33.551-8.213-8.616-21.339-12.908-32.869-9.143-12.83 3.875-20.051 17.109-22.982 29.352-3.005 14.101-1.703 29.227 4.077 42.491 2.976 6.277 9.375 9.81 15.544 12.35 11.809 6.047 28.142 2.729 36.044-8.182 7.254-9.469 9.129-21.742 10.01-33.317zm252.517 63.627c-3.145-6.229-7.05-12.596-13.31-16.082-15.034-9.486-33.444-14.073-51.125-11.608-13.636 1.952-28.018 8.57-34.417 21.479-7.408 14.426-5.237 35.516 9.127 44.859 17.543 9.936 38.663 14.196 58.563 10.199 10.583-2.574 21.493-7.654 27.35-17.312 5.595-9.234 8.058-21.306 3.812-31.535zm204.74-63.659c.311-13.73-4.632-28.421-15.714-37.068-7.747-4.23-17.185-4.71-25.677-2.866-12.352 2.045-19.79 13.978-22.873 25.166-3.658 14.521-2.712 30.575 3.905 44.135 5.347 10.771 17.588 16.813 29.35 16.472 7.966.418 14.954-4.617 19.991-10.305 8.462-9.687 11.314-22.951 11.018-35.534zM663.422 966.886c15.621-.946 31.258.466 46.861-.511.774-6.417-.62-12.77-2.045-19-2.293-6.756-3.782-13.931-7.313-20.224-2.604-7.219-6.308-13.93-9.966-20.642-4.789-7.358-9.421-15.093-16.224-20.733-10.741-10.832-25.478-17.882-40.788-18.473-17.65-.898-35.207 6.602-47.667 18.969-6.213 6.524-11.373 14.01-14.782 22.377-3.053 6.942-5.254 14.194-7.02 21.556a206.547 206.547 0 0 0-3.053 21.555c-.403 7.192-.961 14.414-.296 21.618 34.061-2.587 68.124-5.887 102.293-6.492zm-179.62-144.832c14.271 1.566 28.762 1.938 42.787 5.364-.745 7.964-5.922 14.302-10.337 20.562-15.001 20.38-37.129 35.379-61.708 41.44-.326-.358-.944-1.071-1.27-1.427 2.48-17.619 7.207-34.852 12.444-51.805 1.424-4.184 2.386-8.571 4.617-12.382 3.765-3.052 8.989-1.936 13.467-1.752z"/><path d="M818.107 1024.829c-13.248-39.937-35.485-75.965-56.949-111.916-16.132-28.517-31.536-58.053-39.346-90.082-10.692.199-21.354 1.178-32.031 1.178-19.634.852-39.251-.312-58.887-.157-19.604-.836-39.221.172-58.824-.169-6.804-.451-9.934 6.507-12.8 11.468-5.424 10.877-10.322 22.143-17.977 31.735-16.999 26.128-44.645 43.438-73.749 53.264-7.204 2.896-15.186 3.795-22.051 7.421-3.27 5.75-4.199 12.568-5.89 18.905-8.337 40.028-13.171 80.691-16.55 121.401-2.558 28.917-3.611 57.94-2.712 86.938-.511 3.872 2.821 6.568 6.337 7.188 8.524 1.674 17.295 1.101 25.941 1.582 63.01.463 126.036 2.54 189.028.169 37.533-1.798 75.716-1.395 112.195-11.592 22.748-6.522 44.058-20.656 56.299-41.221 5.578-9.453 8.198-20.238 10.896-30.745 3.797-18.315 1.845-37.455-2.93-55.367zm-88.607 79.852c-10.88 19.247-29.118 33.782-49.573 41.778-17.496 6.727-36.479 9.423-55.153 8.059-19.493-2.199-38.138-11.328-51.836-25.383-4.198-4.029-7.097-10.041-13.063-11.714-20.363-5.735-39.049-21.356-44.613-42.245-4.542-17.899-.807-37.532 9.762-52.626 2.231-3.658 6.014-7.052 5.456-11.716-1.148-31.133-4.293-63.008 3.857-93.506 7.035-23.199 19.185-45.576 38.014-61.258 11.156-9.53 24.499-16.861 39.051-19.434 18.983-3.61 39.189-1.905 56.718 6.557 20.423 9.174 36.896 25.567 48.627 44.411 16.567 24.949 24.825 54.347 29.507 83.637 6.831 44.8 3.701 92.42-16.754 133.44zm-28.575-177.53c3.531 6.293 5.021 13.468 7.313 20.224-48.923 1.596-97.876 2.976-146.813 4.385a206.852 206.852 0 0 1 3.053-21.555c45.481-1.131 90.962-2.015 136.447-3.054zm322.188-742.532c-5.177-9.034-15.544-13.202-25.385-14.675-32.744-5.671-67.239-2.928-98.138 9.639 2.309 8.245 5.189 16.35 6.584 24.81 8.726.807 17.775 1.783 25.478 6.37 14.147 7.655 23.445 23.073 24.143 39.066 1.908 23.941-18.036 46.986-41.809 49.249-13.636 1.75-27.29-3.209-37.874-11.669a199.249 199.249 0 0 1-14.41 11.111c8.103 20.192 21.537 39.377 41.266 49.588 15.775 8.385 35.874 9.438 51.727.667 22.161-11.561 37.829-32.249 50.365-53.308 16.598-26.933 24.811-58.949 23.182-90.547-.449-6.973-.992-14.38-5.129-20.301zM905.929 231.14c-1.831 12.677-6.68 24.64-12.599 35.937 6.213 5.315 15.248 7.16 23.013 4.541 11.886-4.789 16.891-21.06 9.405-31.567-4.308-6.54-12.274-9.298-19.819-8.911zM797.22 151.163c-16.257 3.13-30.513 13.28-40.197 26.483-16.396 20.719-17.28 51.495-4.062 74.042 13.87 24.764 44.567 38.463 72.306 32.806 18.087-3.347 34.109-14.923 44.369-29.986 16.349-23.942 14.102-58.607-5.038-80.35-15.945-19.447-42.924-28.265-67.378-22.995zM712.158 29.034c-16.72-4.354-34.773.202-48.736 9.934-19.354 12.691-32.558 32.356-44.336 51.82-9.438 15.697-15.465 33.085-20.749 50.518-5.005 16.598-8.616 33.783-8.85 51.186-.107 17.154 3.89 34.836 14.057 48.923 7.732 10.878 19.82 18.207 32.697 21.26 29.07 6.772 59.165-1.239 86.316-11.808-1.582-7.95-3.441-15.838-5.053-23.771-4.525-1.117-9.064-2.216-13.357-4-19.155-7.607-32.976-27.042-33.596-47.682-1.736-28.019 22.003-54.843 50.146-56.021 16.164-1.457 31.97 5.299 43.529 16.365 8.043-3.75 16.333-6.943 24.872-9.345-4.973-22.331-16.52-42.569-29.753-60.995-11.793-16.192-27.334-31.1-47.187-36.384zm-5.548 122.919c-9.483 7.686-12.551 21.834-7.641 32.945 3.735 7.966 11.468 13.265 19.76 15.683 3.549-18.007 12.708-34.201 24.036-48.411-9.87-8.911-26.174-8.864-36.155-.217z" fill="#e50045"/><path class="st2" d="M625.548 648.865c6.139-4.883 6.014-15.467.558-20.857-8.459-8.881-21.802-10.957-33.456-9.112-10.491.17-21.324 8.693-20.642 19.772 1.706 7.159 8.524 12.025 15.186 14.26 12.568 3.159 27.198 3.47 38.354-4.063z"/></g><g id="mimmy"><path d="M1178.617 473.52c.852 4.146-.395 10.402-5.422 11.063-31.441 6.62-64.283-3.971-95.363 5.122-5.42 5.28-3.926 13.616-4.918 20.441-.455 15.176-4.412 30.054-4.016 45.246-.031 5.374 6.303 6.509 10.4 7.501 22.758 4.098 46.16 7.376 67.168 17.651 4.334 1.513 3.781 7.155 3.311 10.828-.111 2.978-3.154 3.671-5.359 4.633-9.473 3.436-19.717 2.301-29.438.851-16.676-1.923-33.396-5.201-50.244-3.924-4.287 2.442-5.516 7.69-7.393 11.914-6.209 18.126-15.066 35.189-22.361 52.875 6.27 5.138 13.898 8.132 21.07 11.773 19.525 9.454 40.313 17.115 57.584 30.51 8.023 6.951 2.053 21.275-8.098 21.447-28.461-6.366-54.055-20.959-81.193-31.076-3.06-1.246-7.329-1.907-9.314 1.418-30.811 37.651-71.564 66.537-116.168 85.623-45.388 19.794-94.149 30.258-142.86 37.949-1.593 8.826 1.953 17.227 4.05 25.643a2208.653 2208.653 0 0 0 13.741 49.105c1.34 4.396 2.303 9.031 4.744 13.018 28.212-12.765 59.935-17.571 90.634-13.488 41.749 5.136 79.367 31.834 100.755 67.639 18.265 30.165 25.247 66.365 22.426 101.304-2.236 40.078-22.097 78.957-53.71 103.764-13.569 10.826-29.613 18.249-46.303 22.836-29.58 8.4-60.548 8.841-91.015 10.543-19.43 1.197-38.895.851-58.324 1.261-68.824.615-137.633 3.735-206.455 1.78-35.018-1.228-70.209-.425-104.976-5.404-7.028-1.261-14.184-.978-21.26-.615-36.752.22-73.598.772-110.208-3.026-26.146-2.74-53.173-5.908-76.593-18.721-10.259-5.549-19.242-13.318-26.523-22.38-12.419-17.604-16.706-40.093-13.821-61.257 3.688-24.365 20.582-45.421 41.968-57.053 28.589-15.586 61.369-20.172 93.156-24.822 8.432-.709 13.082-9.061 15.398-16.278 16.469-53.001 55.742-94.591 76.734-145.494 4.145-11.065 9-22.238 9.283-34.23-8.763-2.917-17.888-4.478-26.84-6.604-64.615-16.877-129.199-42.803-178.132-89.642-6.131 2.553-11.962 5.8-18.203 8.135-20.031 8.777-37.493 22.154-56.042 33.521-7.612 5.419-18.912 9.801-27.186 3.322-.362-5.105-1.12-10.54.961-15.428 2.049-4.9 6.525-8.114 10.417-11.488 20.093-16.896 44.553-27.328 65.655-42.789-1.024-2.472-2.127-4.9-3.624-7.092-9.708-14.547-19.274-29.202-28.21-44.238-3.2-6.24-11.048-7.39-17.336-6.318-15.775 2.93-31.567 5.751-47.42 8.229-4.603.534-11.457-1.403-11.772-6.919-.315-4.209-1.229-9.457 1.812-12.8 17.557-10.824 38.975-12.323 57.224-21.511-.772-7.722-4.225-14.751-6.037-22.22-3.499-15.667-6.619-31.442-11.079-46.87-2.049-5.784-9.361-5.737-14.42-5.153-26.193 3.151-52.371 7.344-78.8 7.8-5.878 1.041-10.181-5.357-9.456-10.7-.158-6.714 5.105-12.167 11.237-14.073 25.516-9.929 53.41-9.031 80.107-13.349 3.12-.757 8.589-.252 8.557-4.775 1.577-18.234.584-36.657 3.42-54.798 5.406-32.37 13.916-64.347 26.792-94.559-6.352-10.622-13.459-20.802-19.085-31.851-13.616-27.09-20.599-57.397-21.197-87.656-.583-17.209 3.073-35.333 13.948-49.075 5.594-7.313 13.553-12.261 21.717-16.296 1.985-12.087 2.979-24.365 5.831-36.327.677-2.711.694-5.531.946-8.29 5.359-15.35 8.416-31.913 17.982-45.45 9.188-11.71 24.254-17.037 38.737-17.746 17.272-.882 34.418 2.174 51.55 3.829 37.792 6.951 75.143 16.768 110.934 30.858 9.267-15.24 18.565-30.542 30.179-44.128 16.327-18.359 38.422-32.623 63.182-35.616 23.703-3.467 48.036 4.24 66.963 18.518 25.121 18.596 42.662 45.31 57.366 72.447 39.086-2.852 78.343-7.485 117.57-4.034 16.988 2.207 33.977 4.571 50.873 7.518 15.205-7.975 29.879-17.146 45.53-24.364 34.417-16.611 70.759-29.377 108.221-37.021 17.856-3.592 37.777-3.545 54.023 5.706 8.732 4.665 14.405 13.064 20.316 20.677 20.361 27.059 32.718 59.525 38.155 92.793 7.754 40.928-1.246 82.407-11.002 122.154 17.871 28.557 33.125 58.926 43.797 90.965 10.025 29.094 15.398 59.573 17.795 90.194 6.744 1.213 13.568-.125 20.361.442 21.699 1.765 43.951-1.073 65.197 4.665 6.524 2.233 14.766 4.172 17.399 11.437z"/><path class="st3" d="M937.809 978.353c12.134 21.216 17.098 46.02 16.34 70.321-.817 14.61-2.486 29.613-8.714 43.056-11.425 24.981-33.002 45.246-58.704 54.938-16.753 5.832-34.609 7.329-52.214 8.054-9.124.283-18.548 1.844-27.407-1.15-1.828-30.904-2.03-61.905-4.001-92.794-1.874-39.649-9.897-78.593-15.13-117.852 8.449-10.244 22.818-12.197 34.894-15.933 25.295-4.981 52.479-1.639 75.331 10.559 16.513 9.755 30.115 24.175 39.605 40.801zm-310.786 46.003c-4.019-4.239-1.008-10.227-1.025-15.223.033-2.224-.124-5.911-3.087-5.99-40.694-4.57-81.701-4.082-122.565-4.963-12.276.235-24.758-.993-36.768 2.205-1.229 17.32-1.071 34.894 3.672 51.755 5.074 25.814 22.127 48.777 44.836 61.873 11.663 6.84 25.39 8.952 38.723 8.937 20.093-.741 38.627-12.923 49.328-29.612 1.514-2.16 2.616-4.635 4.54-6.479 8.636-4.885 19.918-2.049 27.881-8.479 10.697-8.353 13.66-24.317 8.145-36.405-2.868-7.028-8.288-12.48-13.68-17.619zM246.25 88.13c-12.481-1.387-25.484-3.262-37.713.552-3.876 1.418-8.352 2.852-10.448 6.714-9.346 15.413-13.097 33.379-15.555 51.046 35.097-2.396 70.746 2.333 103.558 15.193 17.587-20.251 43.198-33.396 70.1-34.642.457-2.426.914-4.807 1.371-7.218-35.649-14.878-72.779-27.201-111.313-31.645zm787.785 465.214c-.471 4.098-5.09 5.941-8.746 5.548-8.541-.363-17.523-1.088-25.593 2.316-4.697 2.034-7.58 8.21-4.019 12.562 6.855 9.408 20.078 7.99 29.311 13.679-3.904 18.784-13.047 36.092-21.967 52.953-1.985 3.057-3.5 7.927-7.896 7.849-11.285.992-22.377-5.483-33.584-1.956-4.381 1.138-5.767 6.053-6.318 9.977-1.292 4.098 2.348 7.217 5.169 9.502 6.367 4.432 14.137 6.26 20.425 10.874-13.065 15.809-29.52 28.481-46.13 40.379-52.305 36.137-115.061 53.267-177.313 62.22-77.743 10.969-156.685 13.271-234.964 7.674-67.01-5.01-134.21-17.037-196.461-43.054-28.336-12.058-55.159-28.131-77.853-49.06 10.717-8.009 24.585-11.225 33.788-21.373.142-5.549-1.622-12.039-7.091-14.483-11.142-1.291-21.812 3.295-31.708 7.896-7.455 3.5-17.762 4.554-23.577-2.459-11.914-14.544-22.774-30.259-30.07-47.657 10.701-6.273 24.097-6.192 34.513-12.969 6.336-3.61 3.357-12.925-2.474-15.336-8.147-3.546-16.957.237-25.389.158-6.398 0-15.35 4.46-19.668-2.396-6.163-13.837-10.417-28.51-13.538-43.308-1.53-6.178-.726-12.577-.237-18.833.726-2.301 3.215-2.522 5.248-2.868 14.642-2.442 29.439 1.56 44.112-.505 7.234-.047 13.349-10.164 8.07-15.995-1.955-2.475-4.823-4.003-7.785-4.885-14.877-4.729-30.622-4.838-46.019-6.289-5.516-.252-9.236-5.564-9.867-10.654-3.104-39.178 9.693-77.224 23.608-113.25 12.545 10.259 26.95 18.676 43.025 21.828 22.819 5.169 47.469-.379 66.459-13.853 20.834-14.325 36.42-35.539 45.845-58.863 8.242.881 16.421 2.537 24.758 2.238 30.669.677 60.108-15.508 78.626-39.525 28.935 11.709 60.313 19.431 91.706 16.863 22.836-1.845 45.94-10.701 61.353-28.163 19.274-21.149 26.462-50.872 25.074-78.91-1.244-20.503-5.909-40.643-11.268-60.391 42.156-4.398 84.929-5.848 127.007.237 12.374 1.812 25.168 5.546 37.618 2.096 13.318-4.35 23.942-13.963 36.281-20.268 36.671-18.658 74.732-37.114 116.165-41.589 10.416-.41 22.709-.536 30.542 7.548 20.962 21.923 31.979 51.473 36.61 81.069 4.9 26.178 5.012 54.671-7.61 78.815-5.374-2.948-10.624-6.824-16.927-7.25-5.405.394-9.409 5.027-12.137 9.282-1.053 6.572 2.351 12.813 6.289 17.793 16.658 20.33 31.945 42.031 42.427 66.254 7.626 15.902 15.758 31.662 21.162 48.524 8.054 27.422 15.714 55.491 15.509 84.299.441 3.988-4.365 4.019-7.029 4.949-17.617 3.641-35.269 7.518-52.147 13.821-5.266 3.939-5.374 13.711.63 17.1 3.516 2.284 7.755 4.271 12.055 3.419 12.326-2 24.697-3.624 37.068-5.374 3.088-.536 6.225-.267 9.33.111 2.536 20.596-.615 41.447-4.398 61.683zm-642.827-7.503c-.472-11.425-1.78-23.797-8.998-33.142-8.132-9.55-22.001-14.42-34.104-10.212-11.567 3.042-18.486 14.31-22.158 24.917-4.617 17.068-5.264 37.036 5.201 52.133 4.476 7.202 12.923 10.496 20.977 11.614 8.621 1.056 18.328.08 24.948-6.13 11.219-9.519 14.246-25.137 14.134-39.18zm261.913 67.768c-2.947-6.46-6.762-13.05-12.986-16.863-15.585-10.701-35.364-15.224-54.055-12.088-12.167 2.301-25.358 6.714-32.591 17.494-10.654 15.178-8.984 39.73 7.391 50.243 17.179 9.816 37.745 13.994 57.349 10.95 8.985-1.526 18.141-4.599 24.869-10.999 10.403-9.549 14.389-25.372 10.023-38.737zm194.304-104.345c-7.296-4.887-16.707-4.949-25.104-3.846-14.469 1.481-23.104 15.87-25.769 28.902-2.535 14.327-2.743 30.18 4.698 43.167 6.822 12.23 22.235 19.289 35.883 15.523 7.028-2.207 13.051-7.156 16.991-13.317 5.956-9.03 7.973-19.983 8.666-30.589.679-14.546-3.718-30.368-15.365-39.84zm-526.599 534.257c-21.496-.205-43.292 2.365-63.654 9.426-14.467 4.87-27.201 15.129-34.388 28.666-10.575 19.951-1.197 47.044 18.376 57.633 15.319 9.33 33.048 13.871 50.747 15.838 21.276 2.287 42.757 1.467 64.048-.283-6.635-8.068-13.506-16.025-18.486-25.262-14.752-25.927-18.502-56.675-16.643-86.018z"/><path class="st2" d="M720.588 829.865a223.898 223.898 0 0 1 14.233 50.59c-9.457-1.529-18.313-5.455-26.951-9.456-14.687-6.949-26.445-18.566-37.097-30.543-3.627-5.045-9.143-9.93-8.575-16.658 16.375-1.071 32.781-1.75 49.142-3.232 5.374-.788 7.186 5.58 9.248 9.299zM528.714 962.343c-19.085-.93-38.202.771-57.287-.332-.095-5.326.788-10.606 1.985-15.806 1.986-7.803 4.428-15.461 7.171-23.026a199.825 199.825 0 0 1 10.228-21.369c4.76-8.102 10.119-15.901 16.706-22.648 12.939-13.491 31.992-21.307 50.747-18.754 15.665 2.034 32.386 7.942 42.078 21.086l1.104-.015c4.996 7.108 9.866 14.372 13.065 22.552 3.074 7.472 5.437 15.224 7.232 23.104 1.626 7.737 2.71 15.57 3.374 23.434.187 5.612.156 11.237-.157 16.834-32.056-2.049-64.128-4.303-96.246-5.06zm60.471-355.716c-10.229.788-19.906 10.244-19.117 20.787 2.237 7.106 9.267 11.681 15.964 14.106 10.733 2.314 22.38 3.482 32.86-.521 4.994-2.064 10.685-5.643 10.936-11.66 1.798-8.165-4.064-15.509-10.824-19.244-9.017-5.043-19.876-5.074-29.819-3.468z"/><path d="M771.021 1130.546c-.254 8.165.582 16.424-.441 24.537-3.656 5.281-10.829 4.382-16.391 4.871-26.758 3.059-53.725.646-80.55 2.521-10.479.616-20.974.441-31.454.094-33.08.709-66.176 1.12-99.256.049-28.572-.396-57.177-1.246-85.592-4.476-22.394-1.955-44.442-9.52-62.865-22.474-10.528-7.863-20.046-17.637-25.42-29.77-6.115-14.17-11.095-29.125-11.285-44.728-1.34-29.486 9.662-57.65 22.962-83.386 11.425-21.512 22.521-43.229 34.908-64.251 17.666-30.922 34.499-62.805 43.433-97.508 35.129 4.351 70.463 7.408 105.859 8.353 17.872.048 35.712 1.168 53.583.869 5.123-.443 7.299 5.072 9.979 8.461 14.673 22.884 30.243 46.728 54.023 61.085 17.037 9.157 34.813 17.259 53.629 22.018 2.807 1.149 7.188.992 8.12 4.554 3.214 7.99 5.199 16.453 6.808 24.885 11.266 60.802 18.927 122.423 19.95 184.296zm-106.458-42.188c14.987-22.727 12.121-55.082-5.452-75.616-.978-1.497-2.632-2.933-2.348-4.854 1.246-19.007 1.638-38.06.77-57.097-1.337-25.249-6.065-51.126-19.384-73.033-8.038-12.559-17.209-24.821-29.484-33.584-19.434-14.215-44.539-19.384-68.242-16.689-33.758 5.075-61.684 29.441-78.737 58.028-11.961 20.283-18.233 43.324-23.387 66.112-8.589 39.416-8.195 80.911 2.994 119.758 4.334 13.712 8.243 27.99 17.1 39.652 21.102 28.698 57.382 43.765 92.479 43.104 24.774-.646 49.469-11.236 65.907-30.005 3.358-3.485 5.83-8.434 10.953-9.505 14.657-4.508 28.21-13.428 36.831-26.271zm-42.82-161.223c1.626 7.737 2.71 15.57 3.374 23.434-16.877-1.542-33.854-1.008-50.763-1.542-33.647-1.34-67.31-1.262-100.942-2.821 1.986-7.803 4.428-15.461 7.171-23.026 21.181 2.49 42.583 1.907 63.875 2.46 25.783-.08 51.519 1.495 77.285 1.495zm-21.401-45.642c-30.952.567-61.904-1.18-92.825-2.332-6.587 6.747-11.946 14.547-16.706 22.648 28.415.251 56.784 1.796 85.199 1.953 12.828.174 25.672 1.245 38.501.268-3.199-8.18-8.069-15.443-13.065-22.552l-1.104.015zM536.373 60.644c-10.417-11.834-22.709-22.584-37.35-28.761-19.511-7.107-42.757-3.846-59.021 9.267-28.194 21.827-45.246 54.623-55.994 87.972 9.125 2.284 17.697 6.146 26.271 9.991 6.982-5.925 14.136-12.308 23.261-14.624 15.98-4.288 34.041-2.475 48.036 6.682 10.827 7.281 19.354 18.186 22.804 30.857 4.318 14.452 1.592 30.353-5.705 43.371-8.667 14.641-24.175 24.758-40.991 27.217-.883 8.352-3.152 16.469-5.264 24.569 17.51 6.635 35.649 12.151 54.403 13.647 16.911 1.34 34.609.016 50.165-7.249 19.589-10.056 29.643-32.276 31.834-53.3 1.356-24.885-2.584-49.911-10.433-73.536-8.984-27.704-23.247-53.786-42.016-76.103zM466.635 154.1c11.757 7.818 16.249 25.168 8.763 37.398-3.734 6.967-10.827 11.175-18.093 13.68-3.293-10.638-6.54-21.386-12.387-30.936-3.183-5.579-7.423-10.448-11.269-15.57-1.938-1.892.504-4.066 2.159-4.98 9.221-5.549 21.892-5.974 30.827.408zm-36.609 58.296c2.27 14.311.284 29.486-6.54 42.347-7.503 13.995-19.511 25.546-33.869 32.371-20.188 9.519-45.024 8.667-64.268-2.758-24.159-13.554-37.823-42.835-33.489-70.084 4.098-28.116 26.523-52.922 54.623-58.438 12.481-2.678 25.625-1.654 37.76 2.207 23.703 7.801 41.969 29.754 45.783 54.355zM295.405 296.27c4.854 4.018 9.692 8.022 14.751 11.741-6.776 18.691-19.321 35.381-35.696 46.696-11.583 8.037-25.956 12.372-40.061 10.795-12.041-1.34-23.435-6.572-32.843-14.088-17.004-13.239-29.234-31.394-40.188-49.676-7.313-11.552-11.789-24.569-15.823-37.555-6.225-20.929-8.888-43.481-4.271-65.009 2.884-11.836 14.185-18.928 25.374-21.639 15.239-4.018 31.189-4.018 46.838-3.956 19.716.537 38.943 5.721 57.571 11.853-2.316 8.416-5.216 16.705-6.65 25.357-16.564.362-33.017 8.148-42.552 21.891-12.435 17.035-10.543 41.921 2.333 58.185 11.883 14.956 33.095 21.937 51.456 16.248 7.405-1.892 13.71-6.368 19.761-10.843zm-31.251-58.106a120.592 120.592 0 0 0 13.333 36.657c-8.321 9.677-24.948 8.416-32.212-1.875-7.376-9.267-4.288-23.923 5.153-30.574 3.939-2.98 8.997-3.499 13.726-4.208z" fill="#f29702"/></g></svg>