<?xml version="1.0" encoding="utf-8"?><svg version="1.1" id="svg" xmlns="http://www.w3.org/2000/svg" xmlns:xlink="http://www.w3.org/1999/xlink" x="0px" y="0px" width="1200px" height="1200px" viewBox="0 0 1200 1200" xml:space="preserve"><title>Hello kitty held heart - free.arinco.org</title><style><![CDATA[.st0{fill:#F00;}.st1{fill:#FF8080;}.st2{fill:#FF0;}.st3{fill:#FFF;}]]></style><a xlink:href="http://free.arinco.org/mail/sanriotown/"><path d="M617.944,68.956c-59.003-0.334-137.602,14.122-194.824,24.835c-99.656-36.149-140.617-37.403-204.613-28.092 c-49.171,69.189-54.186,157.153-22.807,214.786c-1.984,7.991,3.403,15.621,0.867,22.223 c-34.113,88.779-42.931,119.522-36.231,182.301c-2.579,0.134-16.495,3.412-19.274,3.617c-19.068,3.992-58.652,10.151-67.014,21.289 c-2.679,3.565-7.156,9.137,0.166,12.65c21.667,10.402,55.398-4.99,86.141-6.109c4.842,23.347,31.367,45.805,22.486,68.146 c-3.514,8.843-16.818,10.673-25.063,13.681c-17.126,8.334-30.772,17.354-26.232,30.012c14.206,9.668,48.712-12.606,68.623-13.166 c9.602,17.797,21.837,32.971,34.312,47.908c1.253,1.838,6.821,7.219,4.241,9.571c-22.259,20.296-74.029,51.024-62.999,67.271 c21.157,7.977,36.899-18.165,55.671-30.757c3.903-5.985,19.852-12.828,30.815-11.865c21.079,1.853,63.4,30.397,61.637,30.021 c-57.848,54.965-68.345,106.555-52.771,153.271c-32.076,53.532-49.689,107.093-39.839,162.732 c31.315,162.087,206.035,218.595,298.719,72.241l77.873,65.652l70.13-69.836c39.689,37.3,51.591,56.929,75.151,69.926 c39.91,22.016,81.187,20.252,113.885,8.004c130.844-61.939,179.714-207.7,81.582-324.472c9.747-43.851,5.065-91.022-38.614-147.2 c-2.75-3.543,26.111-19.694,46.842-40.623c15.525-15.673,55.611-42.269,50.591-62.168c11.151,2.441,21.046,5.271,26.435,9.445 c40.601,14.004,53.222,23.899,68.674,8.947c10.204-9.872-6.035-13.453-32.653-27.331c-17.37-6.373-26.626-14.973-39.836-18.171 c14.026-19.187,10.352-46.003,19.635-67.755c33.97,4.734,84.973,8.342,76.769-6.983c-8.498-15.88-42.327-11.233-74.776-19.422 c6.939-21.694-0.808-48.863,0.859-71.851c35.721,4.933,63.993,4.278,85.898-0.632c19.48-37.278-40.916-20.664-71.04-25.986 c-5.028-0.316-9.588-0.566-14.079-0.706c-0.47-19.062-20.047-77.041-24.574-96.314c39.255-95.499,25.685-162.21-28.31-164.122 c13.563-39.395-22.847-112.557-57.163-133.203c-65.359-4.867-88.832,15.371-146.553,46.275 c-93.477-69.078-118.242-45.29-178.742,21.959H617.944z"/><path class="st3" d="M920.701,25.132c-57.618,7.48-104.872,40.879-150.854,77.441c-119.749-7.66-237.931,6.336-356.319,27.566 c-57.893-13.663-77.763-48.162-174.732-40.447c-35.189,29.545-52.318,105.232-31.452,149.119 c4.047,13.849,33.478,23.905,27.372,35.616c-37.803,65.418-50.098,140.092-46.382,214.728 c7.52,100.461,60.78,166.105,132.362,208.874c57.474-51.261,97.235-64.8,131.69-57.398c44.65,9.587,83.619,41.432,133.057,102.364 c42.063-46.188,85.709-92.948,138.276-103.77c28.767-5.924,63.948,0.985,92.447,19.289c14.593,9.374,27.436,21.73,36.779,36.882 c3.373,5.484,15.164-0.935,25.486-6.484c19.752-10.622,44.136-30.735,61.448-43.629c79.275-70.201,88.803-205.734,54.104-308.232 c-12.481-43.54-27.992-67.799-54.7-100.895c5.433-32.978,20.01-76.114,24.839-115.288C969.39,78.155,963.073,40.146,920.701,25.132 z M826.041,450.761c44.614,4.902,49.724,90.985,2.75,85.5C793.637,523.25,786.256,455.838,826.041,450.761z M381.065,478.032 c44.864,4.838,48.399,95.544,1.25,90.016C347.167,555.028,341.286,483.105,381.065,478.032z M621.157,544.649 c23.772-1.698,39.556,11.85,42.151,28.692c4.044,26.287-19.149,37.715-41.46,39.473c-25.291,2-51.777-10.819-47.021-36.886 C579.068,552.662,599.645,546.178,621.157,544.649L621.157,544.649z"/><path class="st2" d="M646.688,579.427c0,10.711-11.755,19.4-26.252,19.4c-14.496,0-26.252-8.689-26.252-19.4 c0-10.718,11.756-19.407,26.252-19.407C634.933,560.021,646.688,568.709,646.688,579.427z"/><path class="st1" d="M586.17,1126.771c-71.343-65.579-137.326-123.271-180.185-168.826c-19.878-21.135-23.098-32.256-12.07-41.645 c11.894-10.115,25.302-29.404,28-40.292c1.302-5.249,3.867-16.915,14.313-27.009c21.502-20.781,25.751-36.33,30.302-60.213 c3.609-46.203-32.448-71.661-73.895-74.747c-9.107-1.234-15.702-3.845-15.702-6.212c0-2.248,6.322-8.373,14.048-13.613 c7.726-5.241,14.791-10.431,15.702-11.543c2.698-3.285,23.928-9.129,36.358-10.012c11.587-0.815,22.069,1.015,42.115,7.365 c25.589,8.108,55.208,41.961,78.459,76.416c16.466,24.406,26.163,25.405,39.469,4.05c18.313-29.375,66.507-70.578,98.551-86.596 c18.907-9.454,35.087-9.108,52.907-8.197c17.531,0.89,35.417,3.484,50.958,13.32c9.364,5.925,17.951,13.181,19.083,16.121 c2.447,6.396,3.558,5.558-14.122,10.645c-25.325,7.96-36.19,27.39-46.534,48.459c-4.535,4.674-4.977,31.536-0.69,42.194 c2.911,13.078,10.293,22.437,18.613,32.794c11.997,11.012,13.703,25.31,18.826,39.432c3.603,9.482,8.998,20.679,13.365,26.803 c3.491,4.902,16.833,8.123,10.158,19.826c-10.145,17.796-46.114,61.69-70.445,85.448l-145.164,141.73 C605.652,1142.473,595.565,1135.409,586.17,1126.771L586.17,1126.771z"/><path class="st3" d="M851.212,885.909c-15.754-5.55-28.104-22.538-28.743-39.526c-0.742-11.908-5.719-22.186-14.379-30.411 c-30.699-25.303-21.98-72.513,16.673-90.354c25.501-11.77,48.23-5.8,73.261,19.231c37.455,37.453,40.837,99.233,7.154,130.688 C891.105,888.682,870.376,892.666,851.212,885.909z M803.282,1178.986c20.252,4.189,35.844,3.322,52.252-2.911 c16.157-6.146,49.597-28.985,61.765-42.203c20.943-22.745,26.398-30.566,36.74-52.649c26.619-56.831,21.605-127.911-11.504-163.138 c-9.998-10.637-10.806-10.901-16.724-5.55c-8.873,8.028-34.706,15.085-55.244,15.085c-17.269,0-17.849,0.316-30.053,16.533 c-34.123,45.342-68.248,86.729-89.927,109.069l-24.053,24.795l1.75,17.106C732.696,1138.335,761.285,1170.29,803.282,1178.986 L803.282,1178.986z M365.512,1180.126c2.728,1.035,16.112,1.411,29.749,0.83c43.195-1.838,72.034-20.398,94.875-61.044 c10.526-18.737,11.306-21.737,7.476-28.905c-2.352-4.395-7.939-10.387-12.409-13.313c-15.738-10.313-92.234-89.191-107.642-111.001 c-12.176-17.231-17.929-22.546-26.221-24.215c-14.327-2.89-38.756-11.799-47.5-17.327c-6.535-4.123-7.821-3.587-15.346,6.418 c-37.016,49.238-37.678,136.027-1.43,188.308C302.888,1142.7,337.985,1169.657,365.512,1180.126L365.512,1180.126z M332.473,901.905L332.473,901.905c15.65,6.184,35.498,5.831,50.254-0.896c9.976-4.543,17.849-17.415,24.642-40.298 c3.623-12.188,9.438-21.541,19.473-31.295c24.758-24.068,28.521-58.28,8.461-77.018c-12.526-11.696-23.921-16.496-39.102-16.467 c-50.611,0.104-100.742,59.185-95.864,112.973C302.824,876.316,313.889,894.57,332.473,901.905L332.473,901.905z"/><path d="M1024.266,597.872c13.504,4.073,26.522,12.458,35.712,14.002c25.28,12.496,34.698,21.634,27.522,33.866 c-4.087,7.799-36.506-1.874-72.968-16.422c-18.679-7.454-39.107-9.402-52.325-15.564c-9.108-4.248-15.195-9.27-16.129-15.714 C947.659,576.751,988.229,586.984,1024.266,597.872z M1042.651,432.626c20.493-0.626,43.195,0.337,61.16-2.464 c12.894-2.013,25.905-5.255,25.832-13.393c-0.14-15.805-38.232-7.954-65.72-12.403c0.442,1.096-106.665,9.682-106.261,30.831 C958.192,462.514,1008.269,435.572,1042.651,432.626L1042.651,432.626z M978.975,514.766c3.728,21.767,48.68,16.225,71.726,17.048 c20.664,0.734,59.111,7.771,61.433-9.225c2.25-16.453-24.008-12.732-46.379-18.187 C1035.291,508.378,975.866,496.639,978.975,514.766z M221.933,688.744c-22.766,17.085-74.956,49.363-54.564,61.935 c16.695,10.291,44.739-27.553,73.537-46.461c18.444-12.099,82.562-33.578,67.205-55.927 C295.051,629.288,257.8,663.229,221.933,688.744z M147.123,493.507c-19.884,3.484-102.739,17.687-87.44,37.733 c12.988,17.025,72.464-6.947,104.419-15.54c20.514-5.521,82.208,5.116,79.717-12.864 C233.07,474.357,151.12,492.808,147.123,493.507z M249.197,583.882c-9.467-24.045-69.81,9.255-100.272,24.337 c-20.326,10.063-31.515,15.357-28.475,25.56c5.716,19.201,45.543-3.315,75.823-18.929 C213.817,605.809,256.578,602.627,249.197,583.882L249.197,583.882z M670.814,17.019c13.878-11.563,31.72-14.581,50.457-11.975 C749.685,9,775.818,29.509,797.732,49.188c20.987,18.848,26.61,12.975,34.344,51.708c36.676,2.021,52.973,16.271,70.99,29.493 c0-1.801,56.163-20.408,83.37-13.224c24.633,6.505,46.114,24.207,59.75,47.673c5.234,20.774,6.176,31.985,4.227,52.406 c-6.02,63.257-37.594,117.104-79.664,133.379c-57.258,22.149-114.553-54.119-106.114-64.205 c-40.453,11.439-72.754-0.404-99.704-27.537c-31.801,14.57-64.389,21.201-98.115,16.474c-31.757-4.448-60.126-24.788-69.097-59.685 C581.502,136.064,603.365,60.773,670.814,17.019L670.814,17.019z"/><path class="st0" d="M825.247,261.966c-7.998-0.088-16.313-4.036-22.171-8.542c-7.108-3.264-13.747-7.483-19.951-13.283 c-6.028-3.257-8.446-10.924-13.335-15.674c-2.603-8.086-7.079-15.657-7.748-23.987c-4.39-8.688-2.331-17.37,0.978-25.824 c0.787-6.983,6.182-12.049,6.189-19.281c4.109-6.698,8.322-14.247,15.71-18.223c4.565-4.89,12.284-3.859,16.658-8.631 c7.925-2.443,16.166-3.845,24.45-2.831c8.564,0.254,17.188,0.5,25.61,2.239c7.867,3.606,17.253,3.525,23.429,10.208 c6.116,2.632,8.196,9.186,12.731,13.46c5.087,5.491,10.175,11.592,11.689,19.134c6.63,6.752,5.286,17.07,6.248,25.744 c0.389,7.396,0.411,14.902-1.228,22.157c-5.543,6.785-7.189,15.342-12.895,21.936c-5.778,6.425-11.659,13.012-20.075,15.938 c-11.858,8.549-27.295,6.572-41.02,5.727C828.762,262.121,827.005,262.026,825.247,261.966L825.247,261.966z M925.062,334.325 c5.896,1.676,15.658,3.94,21.494,0.683c6.265-3.485,16.372-4.058,23.245-8.313c11.852-7.323,21.523-18.511,29.875-29.766 c6.564-8.843,12.622-18.465,17.055-28.588c3.455-7.888,8.608-15.592,11.195-23.972c6.028-19.547,12.46-40.879,9.828-60.625 c-0.904-6.774-2.728-12.321-4.933-18.848c-2.78-8.208-8.711-14.623-16.726-17.091c-22.81-7.036-47.193-5.033-70.687-3.73 c-8.69,0.482-14.858,5.046-23.091,7.079c-12.269,3.028-14.894,23.167-4.712,29.155c7.102,4.179,16.231,5.267,23.804,9.303 c45.327,24.193,19.974,106.203-45.702,82.208c-9.094-3.323-20.068,6.939-22.393,11.563c-1.388,2.756,2.919,11.446,6.763,15.886 c5.478,6.336,9.189,13.526,16.388,18.562C905.375,324.063,914.445,331.311,925.062,334.325L925.062,334.325z M905.919,239.296 c9.188,24.119,38.057-5.969,28.316-22.113c-2.257-3.351-4.983-6.623-8.615-8.549C913.284,209.649,909.543,229.292,905.919,239.296 L905.919,239.296z M735.217,188.705c14.629-9.45,22.179-32.073,24.385-48.841c-8.314-4.561-15.055-2.268-23.075,2.617 c-6.505,4.389-11.901,11.097-12.996,19.051C723.153,172.006,726.389,182.71,735.217,188.705z M691.147,253.807 c12.387,0.199,24.56-0.301,36.852-1.919c13.843-1.822,31.779-14.276,20.627-28.868c-8.961-11.71-26.39-13.535-35.77-25.765 c-9.028-11.777-14.688-24.884-15.85-40.226c-1.153-15.284,6.175-29.347,18.275-38.443c11.034-8.3,22.348-11.993,36.696-8.928 c14.513,3.103,40.285,19.958,47.967,1.956c6.16-14.456-8.594-27.829-17.179-39.233c-18.106-24.068-53.605-32.375-80.496-20.414 c-13.084,5.814-24.596,15.559-34.601,26.071c-8.771,9.214-16.313,20.109-23.811,29.85c-10.292,13.357-16.488,29.728-22.627,45.364 c-4.808,12.232-7.212,24.869-8.285,37.308c-1.184,13.703,6.814,25.369,15.21,35.109c7.969,9.24,17.532,15.291,27.56,19.393 C667.006,249.676,678.246,253.602,691.147,253.807L691.147,253.807z"/></a></svg>