<?xml version="1.0" encoding="iso-8859-1"?>
<!-- Generator: Adobe Illustrator 19.0.0, SVG Export Plug-In . SVG Version: 6.00 Build 0)  -->
<svg version="1.1" id="Layer_1" xmlns="http://www.w3.org/2000/svg" xmlns:xlink="http://www.w3.org/1999/xlink" x="0px" y="0px"
	 viewBox="0 0 503.467 503.467" style="enable-background:new 0 0 503.467 503.467;" xml:space="preserve">
<g transform="translate(5 5)">
	<path style="fill:#ECF4F7;" d="M460.067,374.733v51.2c0,17.067-17.067,34.133-34.133,34.133h-51.2h-51.2h-51.2h-51.2h-51.2h-51.2
		h-51.2C50.467,460.067,33.4,443,33.4,425.933v-51.2v-51.2v-51.2v-51.2v-51.2v-51.2v-51.2C33.4,50.467,50.467,33.4,67.533,33.4h51.2
		h51.2h51.2h51.2h51.2h51.2h51.2c17.067,0,34.133,17.067,34.133,34.133v51.2v51.2v51.2v51.2v51.2V374.733z"/>
	<path style="fill:#7EE1E6;" d="M306.467,272.333c9.387,0,17.067,7.68,17.067,17.067s-7.68,17.067-17.067,17.067
		S289.4,298.787,289.4,289.4S297.08,272.333,306.467,272.333z M204.067,204.067c9.387,0,17.067,7.68,17.067,17.067
		s-7.68,17.067-17.067,17.067S187,230.52,187,221.133S194.68,204.067,204.067,204.067z M306.467,169.933
		c9.387,0,17.067,7.68,17.067,17.067s-7.68,17.067-17.067,17.067S289.4,196.387,289.4,187S297.08,169.933,306.467,169.933z
		 M357.667,357.667c9.387,0,17.067,7.68,17.067,17.067c0,9.387-7.68,17.067-17.067,17.067s-17.067-7.68-17.067-17.067
		C340.6,365.347,348.28,357.667,357.667,357.667z"/>
</g>
<path style="fill:#51565F;" d="M379.733,503.467c-2.56,0-4.267-1.707-4.267-4.267v-29.867H332.8V499.2
	c0,2.56-1.707,4.267-4.267,4.267s-4.267-1.707-4.267-4.267v-29.867H281.6V499.2c0,2.56-1.707,4.267-4.267,4.267
	s-4.267-1.707-4.267-4.267v-29.867H230.4V499.2c0,2.56-1.707,4.267-4.267,4.267s-4.267-1.707-4.267-4.267v-29.867H179.2V499.2
	c0,2.56-1.707,4.267-4.267,4.267c-2.56,0-4.267-1.707-4.267-4.267v-29.867H128V499.2c0,2.56-1.707,4.267-4.267,4.267
	c-2.56,0-4.267-1.707-4.267-4.267v-29.867H72.533c-19.627,0-38.4-18.773-38.4-38.4c0-2.56,1.707-4.267,4.267-4.267
	s4.267,1.707,4.267,4.267c0,14.507,15.36,29.867,29.867,29.867h358.4c14.507,0,29.867-15.36,29.867-29.867v-358.4
	c0-14.507-15.36-29.867-29.867-29.867h-358.4c-14.507,0-29.867,15.36-29.867,29.867V396.8c0,2.56-1.707,4.267-4.267,4.267
	s-4.267-1.707-4.267-4.267V384H4.267C1.707,384,0,382.293,0,379.733c0-2.56,1.707-4.267,4.267-4.267h29.867V332.8H4.267
	c-2.56,0-4.267-1.707-4.267-4.267c0-2.56,1.707-4.267,4.267-4.267h29.867V281.6H4.267c-2.56,0-4.267-1.707-4.267-4.267
	s1.707-4.267,4.267-4.267h29.867V230.4H4.267c-2.56,0-4.267-1.707-4.267-4.267s1.707-4.267,4.267-4.267h29.867V179.2H4.267
	c-2.56,0-4.267-1.707-4.267-4.267c0-2.56,1.707-4.267,4.267-4.267h29.867V128H4.267C1.707,128,0,126.293,0,123.733
	c0-2.56,1.707-4.267,4.267-4.267h29.867V72.533c0-19.627,18.773-38.4,38.4-38.4h46.933V4.267c0-2.56,1.707-4.267,4.267-4.267
	C126.293,0,128,1.707,128,4.267v29.867h42.667V4.267c0-2.56,1.707-4.267,4.267-4.267c2.56,0,4.267,1.707,4.267,4.267v29.867h42.667
	V4.267c0-2.56,1.707-4.267,4.267-4.267s4.267,1.707,4.267,4.267v29.867h42.667V4.267c0-2.56,1.707-4.267,4.267-4.267
	s4.267,1.707,4.267,4.267v29.867h42.667V4.267c0-2.56,1.707-4.267,4.267-4.267s4.267,1.707,4.267,4.267v29.867h42.667V4.267
	c0-2.56,1.707-4.267,4.267-4.267C382.293,0,384,1.707,384,4.267v29.867h46.933c19.627,0,38.4,18.773,38.4,38.4v46.933H499.2
	c2.56,0,4.267,1.707,4.267,4.267c0,2.56-1.707,4.267-4.267,4.267h-29.867v42.667H499.2c2.56,0,4.267,1.707,4.267,4.267
	c0,2.56-1.707,4.267-4.267,4.267h-29.867v42.667H499.2c2.56,0,4.267,1.707,4.267,4.267s-1.707,4.267-4.267,4.267h-29.867v42.667
	H499.2c2.56,0,4.267,1.707,4.267,4.267s-1.707,4.267-4.267,4.267h-29.867v42.667H499.2c2.56,0,4.267,1.707,4.267,4.267
	c0,2.56-1.707,4.267-4.267,4.267h-29.867v42.667H499.2c2.56,0,4.267,1.707,4.267,4.267c0,2.56-1.707,4.267-4.267,4.267h-29.867
	v46.933c0,19.627-18.773,38.4-38.4,38.4H384V499.2C384,501.76,382.293,503.467,379.733,503.467z M362.667,401.067
	c-10.24,0-18.773-7.68-21.333-17.067h-81.067c-11.093,0-21.333-10.24-21.333-21.333c0-5.973-6.827-12.8-12.8-12.8H192
	c-5.973,0-12.8,6.827-12.8,12.8c0,11.093-10.24,21.333-21.333,21.333H140.8c-11.093,0-21.333-10.24-21.333-21.333v-85.333
	c0-11.093,10.24-21.333,21.333-21.333c5.973,0,12.8-6.827,12.8-12.8s-6.827-12.8-12.8-12.8c-11.093,0-21.333-10.24-21.333-21.333
	V140.8c0-11.093,10.24-21.333,21.333-21.333h221.867c11.093,0,21.333,10.24,21.333,21.333v136.533
	c0,11.093-10.24,21.333-21.333,21.333H332.8c-1.707,9.387-10.24,17.067-21.333,17.067s-18.773-7.68-21.333-17.067h-64
	c-11.093,0-21.333-10.24-21.333-21.333v-30.72c-9.387-1.707-17.067-10.24-17.067-20.48c0-11.947,9.387-21.333,21.333-21.333
	c11.947,0,21.333,9.387,21.333,21.333c0,10.24-7.68,18.773-17.067,20.48v30.72c0,5.973,6.827,12.8,12.8,12.8h64
	c1.707-8.533,8.533-15.36,17.067-17.067V212.48c-9.387-1.707-17.067-10.24-17.067-20.48c0-11.947,9.387-21.333,21.333-21.333
	c11.947,0,21.333,9.387,21.333,21.333c0,10.24-7.68,18.773-17.067,20.48v60.587c8.533,1.707,15.36,8.533,17.067,17.067h29.867
	c5.973,0,12.8-6.827,12.8-12.8V140.8c0-5.973-6.827-12.8-12.8-12.8H140.8c-5.973,0-12.8,6.827-12.8,12.8v68.267
	c0,5.973,6.827,12.8,12.8,12.8c11.093,0,21.333,10.24,21.333,21.333s-10.24,21.333-21.333,21.333c-5.973,0-12.8,6.827-12.8,12.8
	v85.333c0,5.973,6.827,12.8,12.8,12.8h17.067c5.973,0,12.8-6.827,12.8-12.8c0-11.093,10.24-21.333,21.333-21.333h34.133
	c11.093,0,21.333,10.24,21.333,21.333c0,5.973,6.827,12.8,12.8,12.8h81.067c1.707-9.387,10.24-17.067,21.333-17.067
	c11.947,0,21.333,9.387,21.333,21.333C384,391.68,374.613,401.067,362.667,401.067z M362.667,366.933c-6.827,0-12.8,5.973-12.8,12.8
	c0,6.827,5.973,12.8,12.8,12.8s12.8-5.973,12.8-12.8C375.467,372.907,369.493,366.933,362.667,366.933z M311.467,281.6
	c-6.827,0-12.8,5.973-12.8,12.8s5.973,12.8,12.8,12.8s12.8-5.973,12.8-12.8S318.293,281.6,311.467,281.6z M209.067,213.333
	c-6.827,0-12.8,5.973-12.8,12.8s5.973,12.8,12.8,12.8s12.8-5.973,12.8-12.8S215.893,213.333,209.067,213.333z M311.467,179.2
	c-6.827,0-12.8,5.973-12.8,12.8c0,6.827,5.973,12.8,12.8,12.8s12.8-5.973,12.8-12.8C324.267,185.173,318.293,179.2,311.467,179.2z"
	/>
<g>
</g>
<g>
</g>
<g>
</g>
<g>
</g>
<g>
</g>
<g>
</g>
<g>
</g>
<g>
</g>
<g>
</g>
<g>
</g>
<g>
</g>
<g>
</g>
<g>
</g>
<g>
</g>
<g>
</g>
</svg>
