<svg xmlns="http://www.w3.org/2000/svg" xmlns:xlink="http://www.w3.org/1999/xlink" width="445" height="445">
<g transform="translate(10,10)"><rect x="0" y="56" width="127.6887755102041" height="123.29787234042553" style="stroke: black; fill: rgb(64, 45, 84); opacity: 0.95;"></rect><rect x="0" y="182.29787234042553" width="127.6887755102041" height="82.70212765957447" style="stroke: black; fill: rgb(64, 45, 84); opacity: 0.725;"></rect><rect x="130.6887755102041" y="56" width="99.88265306122449" height="100.13513513513513" style="stroke: black; fill: rgb(64, 45, 84); opacity: 0.7;"></rect><rect x="130.6887755102041" y="159.13513513513513" width="99.88265306122449" height="105.86486486486487" style="stroke: black; fill: rgb(64, 45, 84); opacity: 0.725;"></rect><rect x="0" y="296" width="101.27295918367348" height="70.92000000000002" style="stroke: black; fill: rgb(209, 137, 117); opacity: 0.6;"></rect><rect x="0" y="369.92" width="101.27295918367348" height="55.079999999999984" style="stroke: black; fill: rgb(209, 137, 117); opacity: 0.525;"></rect><rect x="104.27295918367348" y="296" width="59.56377551020408" height="129" style="stroke: black; fill: rgb(209, 137, 117); opacity: 0.625;"></rect><rect x="166.83673469387756" y="296" width="63.734693877551024" height="129" style="stroke: black; fill: rgb(209, 137, 117); opacity: 0.65;"></rect><rect x="240.57142857142858" y="56" width="45.17460317460316" height="124.54285714285714" style="stroke: black; fill: rgb(143, 209, 117); opacity: 0.5;"></rect><rect x="288.74603174603175" y="56" width="59.626984126984155" height="124.54285714285714" style="stroke: black; fill: rgb(143, 209, 117); opacity: 0.575;"></rect><rect x="351.3730158730159" y="56" width="59.6269841269841" height="124.54285714285714" style="stroke: black; fill: rgb(143, 209, 117); opacity: 0.575;"></rect><rect x="240.57142857142858" y="183.54285714285714" width="102.74912891986062" height="142.25714285714287" style="stroke: black; fill: rgb(143, 209, 117); opacity: 0.875;"></rect><rect x="346.3205574912892" y="183.54285714285714" width="64.67944250871079" height="142.25714285714287" style="stroke: black; fill: rgb(143, 209, 117); opacity: 0.65;"></rect><rect x="240.57142857142858" y="328.8" width="170.42857142857142" height="96.19999999999999" style="stroke: black; fill: rgb(143, 209, 117); opacity: 0.95;"></rect><text x="5" y="76" font-size="19px" fill="white">a</text><text x="5" y="202.29787234042553" font-size="19px" fill="white">b</text><text x="135.6887755102041" y="76" font-size="19px" fill="white">c</text><text x="135.6887755102041" y="179.13513513513513" font-size="19px" fill="white">d</text><text x="5" y="316" font-size="19px" fill="white">e</text><text x="5" y="389.92" font-size="19px" fill="white">f</text><text x="109.27295918367348" y="316" font-size="19px" fill="white">g</text><text x="171.83673469387756" y="316" font-size="19px" fill="white">h</text><text x="245.57142857142858" y="76" font-size="19px" fill="white">i</text><text x="293.74603174603175" y="76" font-size="19px" fill="white">j</text><text x="356.3730158730159" y="76" font-size="19px" fill="white">k</text><text x="245.57142857142858" y="203.54285714285714" font-size="19px" fill="white">l</text><text x="351.3205574912892" y="203.54285714285714" font-size="19px" fill="white">m</text><text x="245.57142857142858" y="348.8" font-size="19px" fill="white">n</text><text x="5" y="91" font-size="11px" fill="white">28</text><text x="5" y="217.29787234042553" font-size="11px" fill="white">19</text><text x="135.6887755102041" y="91" font-size="11px" fill="white">18</text><text x="135.6887755102041" y="194.13513513513513" font-size="11px" fill="white">19</text><text x="5" y="331" font-size="11px" fill="white">14</text><text x="5" y="404.92" font-size="11px" fill="white">11</text><text x="109.27295918367348" y="331" font-size="11px" fill="white">15</text><text x="171.83673469387756" y="331" font-size="11px" fill="white">16</text><text x="245.57142857142858" y="91" font-size="11px" fill="white">10</text><text x="293.74603174603175" y="91" font-size="11px" fill="white">13</text><text x="356.3730158730159" y="91" font-size="11px" fill="white">13</text><text x="245.57142857142858" y="218.54285714285714" font-size="11px" fill="white">25</text><text x="351.3205574912892" y="218.54285714285714" font-size="11px" fill="white">16</text><text x="245.57142857142858" y="363.8" font-size="11px" fill="white">28</text><text x="0" y="49" font-size="19px" fill="#402D54">boss1</text><text x="0" y="289" font-size="19px" fill="#D18975">boss2</text><text x="240.57142857142858" y="49" font-size="19px" fill="#8FD175">boss3</text><text x="0" y="14" font-size="19px" fill="grey">Three group leaders and 14 employees</text></g>
</svg>