<?xml version="1.0" encoding="UTF-8" standalone="no"?>
        <svg 
    viewBox="10.3271484375 -86.2060546875 444.140625 57.0556640625"
    width="433.8134765625"
    height="143.26171875"
   xmlns="http://www.w3.org/2000/svg"
   xmlns:svg="http://www.w3.org/2000/svg">
   <path d="M58.37-42.92L58.37-89.58L58.37-97.34L78.44-89.58L88.48-89.58L88.48-101.22L56.25-101.22Q52.22-94.41 47.02-86.50Q41.82-78.59 36.91-72.58L36.91-72.58Q46.00-66.87 51.27-58.89Q56.54-50.90 58.37-42.92L58.37-42.92ZM10.33 14.43L10.33-116.53L10.33-124.66L32.23-116.53L37.50-116.53L47.24-125.98L66.14-108.91Q64.45-106.79 59.40-106.79L59.40-106.79L58.67-105.47L88.48-105.47L88.48-126.93L114.33-124.37Q114.11-122.75 113.01-121.69Q111.91-120.63 108.76-120.12L108.76-120.12L108.76-105.47L118.95-105.47L129.27-119.53Q129.27-119.53 131.14-117.99Q133.01-116.46 135.90-114.00Q138.79-111.55 141.94-108.80Q145.09-106.05 147.58-103.64L147.58-103.64Q146.92-101.22 143.26-101.22L143.26-101.22L108.76-101.22L108.76-89.58L117.11-89.58L125.83-98.88L143.70-85.47Q143.04-84.74 141.72-83.94Q140.41-83.13 138.28-82.62L138.28-82.62L138.28-39.77Q138.21-39.26 135.50-38.16Q132.79-37.06 129.02-36.15Q125.24-35.23 122.09-35.23L122.09-35.23L118.65-35.23L118.65-43.07L109.94-43.07Q113.96-34.42 120.45-28.56Q126.93-22.71 134.40-19.04Q141.87-15.38 148.97-13.33L148.97-13.33L148.68-12.01Q142.82-10.18 138.87-4.76Q134.91 0.66 133.37 8.13L133.37 8.13Q126.78 2.05 122.06-4.91Q117.33-11.87 114.11-20.73Q110.89-29.59 108.76-41.53L108.76-41.53L108.76 7.03Q108.76 8.13 106.27 9.78Q103.78 11.43 100.01 12.78Q96.24 14.14 92.43 14.14L92.43 14.14L88.48 14.14L88.48-19.63Q79.83-10.84 68.33-3.99Q56.84 2.86 42.77 7.98L42.77 7.98L41.53 6.30Q55.52-2.71 65.59-15.78Q75.66-28.86 81.15-43.07L81.15-43.07L77.56-43.07L77.56-39.62Q77.56-38.67 75.11-37.24Q72.66-35.82 68.88-34.72Q65.11-33.62 61.08-33.62L61.08-33.62L59.25-33.62Q59.03-23.00 53.98-16.66Q48.93-10.33 36.47-10.18L36.47-10.18Q36.47-14.36 35.93-19.26Q35.38-24.17 34.50-26.07L34.50-26.07Q33.40-28.27 30.32-29.74L30.32-29.74L30.32 8.13Q30.32 8.86 28.34 10.36Q26.37 11.87 22.71 13.15Q19.04 14.43 13.92 14.43L13.92 14.43L10.33 14.43ZM88.48-47.24L88.48-64.53L77.56-64.53L77.56-47.24L88.48-47.24ZM118.65-64.53L108.76-64.53L108.76-47.24L118.65-47.24L118.65-64.53ZM77.56-68.70L88.48-68.70L88.48-85.33L77.56-85.33L77.56-68.70ZM108.76-85.33L108.76-68.70L118.65-68.70L118.65-85.33L108.76-85.33ZM38.82-112.35L30.32-112.35L30.32-32.23L35.23-32.23Q37.13-32.23 38.23-33.03L38.23-33.03Q40.80-34.64 40.80-40.65L40.80-40.65Q40.80-48.41 39.11-56.73Q37.43-65.04 33.18-72.14L33.18-72.14Q34.20-77.20 35.34-84.30Q36.47-91.41 37.43-98.88Q38.38-106.35 38.82-112.35L38.82-112.35ZM251.51-12.45L251.51-68.55L269.53-66.87Q269.46-65.70 268.62-64.86Q267.77-64.01 265.65-63.57L265.65-63.57L265.65-16.19Q265.65-15.60 263.85-14.72Q262.06-13.84 259.42-13.15Q256.79-12.45 254.22-12.45L254.22-12.45L251.51-12.45ZM224.41-76.98L223.17-81.15L246.02-81.15L255.47-94.19Q255.47-94.19 257.19-92.76Q258.91-91.33 261.62-89.03Q264.33-86.72 267.26-84.16Q270.19-81.59 272.53-79.32L272.53-79.32Q272.09-76.98 268.51-76.98L268.51-76.98L224.41-76.98ZM270.92-6.59L270.92-72.58L292.82-70.68Q292.38-67.46 287.55-66.58L287.55-66.58L287.55-5.57Q287.55 0.37 286.27 4.54Q284.99 8.72 280.70 11.21Q276.42 13.70 267.63 14.58L267.63 14.58Q267.41 10.47 266.89 7.43Q266.38 4.39 265.06 2.42L265.06 2.42Q263.67 0.51 261.58-0.88Q259.50-2.27 255.32-3.15L255.32-3.15L255.32-5.27Q255.32-5.27 256.97-5.16Q258.62-5.05 261.00-4.91Q263.38-4.76 265.50-4.61Q267.63-4.47 268.51-4.47L268.51-4.47Q270.92-4.47 270.92-6.59L270.92-6.59ZM229.32-28.34L229.32-43.36L220.83-43.36L220.83-28.34L229.32-28.34ZM220.83-47.53L229.32-47.53L229.32-62.11L220.83-62.11L220.83-47.53ZM170.58-90.01L170.58-128.54L195.63-125.98Q195.41-124.44 194.24-123.34Q193.07-122.24 190.06-121.80L190.06-121.80L190.06-90.01L197.53-102.76Q197.53-102.76 199.88-100.31Q202.22-97.85 205.30-94.45Q208.37-91.04 210.57-88.18L210.57-88.18Q209.91-85.77 206.69-85.77L206.69-85.77L190.06-85.77L190.06-69.43Q195.48-67.31 199.11-64.78Q202.73-62.26 204.93-59.69L204.93-59.69L204.93-66.28L204.93-73.17L221.41-66.28L228.15-66.28L234.89-74.12L250.05-62.70Q249.46-62.04 248.36-61.34Q247.27-60.64 245.58-60.28L245.58-60.28L245.58-6.30Q245.58-0.44 244.45 3.66Q243.31 7.76 239.72 10.14Q236.13 12.52 228.59 13.18L228.59 13.18Q228.59 9.16 228.33 5.97Q228.08 2.78 227.42 0.88L227.42 0.88Q226.83-1.03 225.66-2.20Q224.49-3.37 222.14-4.03L222.14-4.03L222.14-6.15Q222.14-6.15 224.19-6.01Q226.25-5.86 227.42-5.86L227.42-5.86Q228.66-5.86 228.99-6.48Q229.32-7.10 229.32-8.28L229.32-8.28L229.32-24.17L220.83-24.17L220.83 8.57Q220.83 9.38 218.92 10.66Q217.02 11.94 213.94 12.93Q210.86 13.92 207.42 13.92L207.42 13.92L204.93 13.92L204.93-42.48Q202.66-41.02 199.69-41.24Q196.73-41.46 193.80-44.38L193.80-44.38Q194.17-49.44 193.07-54.97Q191.97-60.50 190.06-65.11L190.06-65.11L190.06 8.86Q190.06 9.67 187.72 10.95Q185.38 12.23 181.79 13.26Q178.20 14.28 174.46 14.28L174.46 14.28L170.58 14.28L170.58-40.50Q167.07-35.30 162.93-30.58Q158.79-25.85 154.03-21.46L154.03-21.46L152.42-22.92Q159.01-35.74 162.82-52.44Q166.63-69.14 168.46-85.77L168.46-85.77L155.86-85.77L154.61-90.01L170.58-90.01ZM253.20-117.48L253.20-117.48Q248.88-108.54 241.33-100.31Q233.79-92.07 224.38-85.14Q214.97-78.22 204.93-73.17L204.93-73.17L197.83-69.87L196.95-71.12Q203.32-76.61 209.29-83.86Q215.26-91.11 220.20-99.06Q225.15-107.01 228.48-114.66Q231.81-122.31 232.98-128.69L232.98-128.69L261.62-122.24Q261.18-120.92 259.75-120.12Q258.33-119.31 254.88-118.95L254.88-118.95Q259.28-112.35 266.86-107.78Q274.44-103.20 283.01-100.34Q291.58-97.49 298.97-96.02L298.97-96.02L298.97-94.04Q292.53-91.92 288.87-85.99Q285.21-80.05 284.40-73.68L284.40-73.68Q273.34-80.49 265.06-91.85Q256.79-103.20 253.20-117.48ZM386.57-49.80L415.06-49.80L415.06-90.16L386.57-90.16L386.57-49.80ZM363.28-128.10L392.07-125.39Q391.85-123.85 390.78-122.68Q389.72-121.51 386.57-121.07L386.57-121.07L386.57-94.34L413.67-94.34L423.63-105.32L444.14-89.72Q443.48-88.77 442.09-87.82Q440.70-86.87 438.28-86.43L438.28-86.43L438.28-38.09Q438.21-37.50 434.99-36.29Q431.76-35.08 427.29-34.06Q422.83-33.03 419.09-33.03L419.09-33.03L415.06-33.03L415.06-45.63L386.57-45.63L386.57 6.30Q386.57 7.40 383.68 9.30Q380.79 11.21 376.43 12.74Q372.07 14.28 367.68 14.28L367.68 14.28L363.28 14.28L363.28-45.63L335.08-45.63L335.08-37.79Q335.08-36.69 332.15-34.94Q329.22-33.18 324.68-31.82Q320.14-30.47 315.45-30.47L315.45-30.47L312.16-30.47L312.16-103.64L336.77-94.34L363.28-94.34L363.28-128.10ZM335.08-90.16L335.08-49.80L363.28-49.80L363.28-90.16L335.08-90.16Z"/>
    </svg>
        