<?xml version="1.0" encoding="UTF-8" standalone="no"?>
        <svg 
    viewBox="3.0029296875 -85.9130859375 447.8759765625 57.0556640625"
    width="444.873046875"
    height="142.96875"
   xmlns="http://www.w3.org/2000/svg"
   xmlns:svg="http://www.w3.org/2000/svg">
   <path d="M108.76-14.87L109.79-15.75Q122.24-15.53 129.79-12.71Q137.33-9.89 140.77-5.75Q144.21-1.61 144.40 2.60Q144.58 6.81 142.24 9.92Q139.89 13.04 135.75 13.88Q131.62 14.72 126.64 12.01L126.64 12.01Q124.15 4.83 118.91-2.49Q113.67-9.81 108.76-14.87L108.76-14.87ZM118.51-53.98L97.19-53.98L97.19-41.67L118.51-41.67L118.51-53.98ZM97.19-70.17L97.19-58.23L118.51-58.23L118.51-70.17L97.19-70.17ZM118.51-37.50L97.19-37.50L97.19-24.90L118.51-24.90L118.51-37.50ZM76.32-113.23L75-117.48L122.53-117.48L131.40-125.54L147.14-112.94Q145.61-111.18 141.58-110.52L141.58-110.52Q141.06-97.71 139.42-91.59Q137.77-85.47 133.37-82.76L133.37-82.76L130.96-81.59L143.85-71.70Q143.19-70.68 141.87-69.98Q140.55-69.29 137.99-68.85L137.99-68.85L137.99-19.63Q137.99-19.12 133.67-17.29Q129.35-15.45 121.95-15.45L121.95-15.45L118.51-15.45L118.51-20.73L97.19-20.73L97.19-17.07Q97.19-16.19 94.78-15.01L94.78-15.01L111.33-5.27Q110.23-3.52 106.49-4.32L106.49-4.32Q101.44-0.37 93.49 3.33Q85.55 7.03 76.43 9.85Q67.31 12.67 58.67 13.92L58.67 13.92L57.57 12.16Q65.48 7.76 73.10 0.84Q80.71-6.08 85.77-12.74L85.77-12.74L81.88-12.60L78.59-12.60L78.59-78.15L75.88-77.27L74.41-79.03Q84.08-86.79 87.60-95.69Q91.11-104.59 92.07-113.23L92.07-113.23L76.32-113.23ZM83.72-80.13L83.72-80.13L98.88-74.41L117.92-74.41L122.39-79.47L117.92-79.32Q117.99-82.84 117.66-85.88Q117.33-88.92 115.94-90.60L115.94-90.60Q114.70-92.29 112.87-93.46Q111.04-94.63 108.03-95.43L108.03-95.43L108.03-97.34Q110.16-97.12 113.27-97.01Q116.38-96.90 118.07-96.90L118.07-96.90Q120.63-96.90 121.36-97.63L121.36-97.63Q122.39-98.58 122.97-102.25Q123.56-105.91 123.93-113.23L123.93-113.23L112.06-113.23Q110.74-106.64 107.89-100.60Q105.03-94.56 99.28-89.36Q93.53-84.16 83.72-80.13ZM7.76-42.63L7.76-85.77L7.76-92.58L25.05-85.77L29.88-85.77L29.88-99.76L6.59-99.76L5.42-103.93L29.88-103.93L29.88-126.64L54.27-124.22Q54.05-122.53 52.99-121.40Q51.93-120.26 48.78-119.82L48.78-119.82L48.78-103.93L51.27-103.93L61.08-117.92Q61.08-117.92 62.84-116.38Q64.60-114.84 67.31-112.39Q70.02-109.94 72.99-107.23Q75.95-104.52 78.30-102.17L78.30-102.17Q77.64-99.76 74.12-99.76L74.12-99.76L48.78-99.76L48.78-85.77L52.81-85.77L60.28-93.46L75.29-82.18Q74.85-81.67 73.94-81.04Q73.02-80.42 71.56-80.13L71.56-80.13L71.56-50.39Q71.48-49.80 69.03-48.78Q66.58-47.75 63.24-46.91Q59.91-46.07 57.13-46.07L57.13-46.07L53.98-46.07L53.98-51.78L48.78-51.78L48.78-40.94Q59.69-39.48 65.59-36.11Q71.48-32.74 73.43-28.71Q75.37-24.68 74.27-20.98Q73.17-17.29 69.98-15.01Q66.80-12.74 62.51-12.93Q58.23-13.11 53.83-16.92L53.83-16.92Q54.20-22.49 52.70-28.02Q51.20-33.54 48.78-37.79L48.78-37.79L48.78 7.62Q48.78 8.64 46.44 10.22Q44.09 11.79 40.58 13.04Q37.06 14.28 33.47 14.28L33.47 14.28L29.88 14.28L29.88-21.61Q24.46-15.67 18.09-10.47Q11.72-5.27 4.47-0.88L4.47-0.88L3.00-2.71Q11.87-12.45 18.24-25.52Q24.61-38.60 28.20-51.78L28.20-51.78L24.17-51.78L24.17-47.53Q24.17-46.88 22.08-45.70Q20.00-44.53 16.77-43.58Q13.55-42.63 10.18-42.63L10.18-42.63L7.76-42.63ZM48.78-55.96L53.98-55.96L53.98-81.59L48.78-81.59L48.78-55.96ZM24.17-55.96L29.88-55.96L29.88-81.59L24.17-81.59L24.17-55.96ZM258.18-119.97L258.18-119.97L258.18-112.79Q258.62-98.73 259.68-86.98Q260.74-75.22 262.65-65.55L262.65-65.55Q265.43-72.07 268.51-80.49Q271.58-88.92 274.22-97.05L274.22-97.05L298.17-84.01Q296.48-81.01 291.58-81.88L291.58-81.88Q285.21-75.95 278.10-70.42Q271.00-64.89 263.67-60.72L263.67-60.72Q267.85-42.55 275.98-31.35Q284.11-20.14 298.17-13.48L298.17-13.48L298.02-11.72Q290.26-9.59 285.28-2.53Q280.30 4.54 278.83 14.28L278.83 14.28Q267.70 4.83 262.98-15.01Q258.25-34.86 256.64-65.11L256.64-65.11Q255.47-51.56 252.32-39.95Q249.17-28.34 242.83-18.57Q236.50-8.79 225.88-0.73Q215.26 7.32 199.22 13.77L199.22 13.77L197.83 11.72Q211.08 2.49 218.96-8.17Q226.83-18.82 230.79-31.24Q234.74-43.65 236.06-58.23Q237.38-72.80 237.34-89.83Q237.30-106.86 237.30-126.78L237.30-126.78L263.67-124.37Q263.23-120.85 258.18-119.97ZM197.83-81.45L206.25-93.90Q206.25-93.90 208.63-91.77Q211.01-89.65 214.31-86.57Q217.60-83.50 220.39-80.71L220.39-80.71Q222.51-83.64 224.12-87.23Q225.73-90.82 225.59-94.63L225.59-94.63L227.42-94.63Q233.06-81.15 232.03-71.45Q231.01-61.74 226.17-57.13L226.17-57.13Q223.90-54.93 220.39-54.60Q216.87-54.27 213.68-55.85Q210.50-57.42 209.11-60.86L209.11-60.86Q207.28-65.48 209.25-69.36Q211.23-73.24 215.26-75.59L215.26-75.59L217.24-77.27L196.51-77.27L196.51-65.55Q205.74-62.18 210.68-57.86Q215.63-53.54 217.16-49.15Q218.70-44.75 217.71-41.09Q216.72-37.43 214.01-35.34Q211.30-33.25 207.71-33.54Q204.13-33.84 200.54-37.35L200.54-37.35Q200.90-42.99 199.73-49.00Q198.56-55.00 196.51-60.13L196.51-60.13L196.51 8.13Q196.44 8.72 194.31 10.11Q192.19 11.50 188.38 12.71Q184.57 13.92 179.37 13.92L179.37 13.92L175.49 13.92L175.49-36.77Q166.41-25.42 154.03-16.04L154.03-16.04L152.42-17.58Q157.76-25.49 161.98-35.45Q166.19-45.41 169.23-56.14Q172.27-66.87 174.17-77.27L174.17-77.27L156.01-77.27L154.83-81.45L175.49-81.45L175.49-102.03Q170.07-101.44 164.69-101.00Q159.30-100.56 154.03-100.34L154.03-100.34L153.74-101.88Q161.57-105.25 170.00-109.90Q178.42-114.55 185.82-119.49Q193.21-124.44 197.83-128.54L197.83-128.54L221.41-108.47Q219.80-107.23 217.09-107.01Q214.38-106.79 210.28-108.18L210.28-108.18Q207.28-107.37 203.80-106.60Q200.32-105.83 196.51-105.18L196.51-105.18L196.51-81.45L197.83-81.45ZM338.82-101.51L340.21-102.17Q350.39-98.51 355.81-93.75Q361.23-88.99 362.92-84.19Q364.60-79.39 363.43-75.44Q362.26-71.48 359.22-69.25Q356.18-67.02 352.19-67.38Q348.19-67.75 344.24-71.70L344.24-71.70Q344.90-79.47 343.21-87.34Q341.53-95.21 338.82-101.51L338.82-101.51ZM417.48-127.51L417.48-127.51L441.28-112.21Q440.48-110.96 439.27-110.63Q438.06-110.30 435.42-110.82L435.42-110.82Q426.12-102.54 414.48-95.32Q402.83-88.11 391.77-82.98L391.77-82.98L390.75-84.74Q398.51-93.16 405.18-104.37Q411.84-115.58 417.48-127.51ZM420.78-89.58L420.78-89.58L445.68-75Q444.87-73.75 443.55-73.39Q442.24-73.02 439.67-73.54L439.67-73.54Q429.79-63.06 417.22-54.93Q404.66-46.80 391.48-41.53L391.48-41.53L390.60-43.51Q400.05-52.15 407.41-63.94Q414.77-75.73 420.78-89.58ZM421.80-46.07L421.80-46.07L447.88-33.03Q447.22-31.64 445.83-31.09Q444.43-30.54 441.72-30.91L441.72-30.91Q429.71-14.14 414.44-3.22Q399.17 7.69 380.27 14.14L380.27 14.14L379.47 12.30Q393.68 2.20 403.93-12.19Q414.18-26.59 421.80-46.07ZM365.41-61.96L365.41-109.79L337.94-109.79L337.94-68.55L337.79-58.37L365.41-61.96ZM310.77-31.20L302.71-54.57L319.63-56.25L319.63-68.55L319.63-121.36L340.80-113.96L363.87-113.96L372.58-123.93L390.60-109.79Q389.79-108.91 388.33-108.00Q386.87-107.08 384.59-106.64L384.59-106.64L384.59-64.53L397.63-66.28L397.92-64.38L384.59-58.81L384.59-9.59Q384.59-3.08 383.02 1.50Q381.45 6.08 376.32 8.83Q371.19 11.57 360.57 12.45L360.57 12.45Q360.13 7.84 359.40 4.39Q358.67 0.95 356.98-1.17L356.98-1.17Q355.22-3.37 352.40-4.94Q349.58-6.52 343.95-7.47L343.95-7.47L343.95-9.45Q343.95-9.45 346.29-9.30Q348.63-9.16 351.93-8.97Q355.22-8.79 358.15-8.68Q361.08-8.57 362.26-8.57L362.26-8.57Q364.16-8.57 364.78-9.34Q365.41-10.11 365.41-11.72L365.41-11.72L365.41-51.42Q359.11-49.22 352.00-46.77Q344.90-44.31 336.91-41.67L336.91-41.67Q335.74-31.64 332.89-21.68Q330.03-11.72 324.35-2.53Q318.68 6.67 309.16 14.43L309.16 14.43L307.47 13.33Q313.04 2.42 315.53-10.14Q318.02-22.71 318.90-35.82L318.90-35.82L315.45-34.79Q313.77-31.86 310.77-31.20L310.77-31.20Z"/>
    </svg>
        