<?xml version="1.0" encoding="UTF-8" standalone="no"?>
        <svg 
    viewBox="3.8818359375 -86.0595703125 445.8251953125 56.9091796875"
    width="441.943359375"
    height="142.96875"
   xmlns="http://www.w3.org/2000/svg"
   xmlns:svg="http://www.w3.org/2000/svg">
   <path d="M49.51-44.38L48.27-48.63L77.42-48.63L86.87-60.28Q86.87-60.28 89.83-58.08Q92.80-55.88 96.86-52.73Q100.93-49.58 104.22-46.80L104.22-46.80Q103.56-44.38 100.05-44.38L100.05-44.38L49.51-44.38ZM93.46-20.87L94.48-21.90Q107.96-21.61 116.46-18.68Q124.95-15.75 129.27-11.46Q133.59-7.18 134.44-2.71Q135.28 1.76 133.41 5.20Q131.54 8.64 127.62 9.89Q123.71 11.13 118.51 8.86L118.51 8.86Q115.87 3.59 111.66-1.87Q107.45-7.32 102.61-12.23Q97.78-17.14 93.46-20.87L93.46-20.87ZM78.74-97.92L80.57-99.02Q84.01-89.58 90.09-82.58Q96.17-75.59 103.93-70.53L103.93-70.53Q107.08-78.15 108.91-85.03L108.91-85.03L91.33-85.03L90.01-89.28L108.18-89.28L118.65-99.76L136.82-82.76Q135.28-81.08 130.81-80.71L130.81-80.71Q126.86-77.34 121.33-73.65Q115.80-69.95 109.94-67.02L109.94-67.02Q118.14-62.77 127.33-59.95Q136.52-57.13 146.12-55.22L146.12-55.22L145.97-53.54Q139.89-52.08 135.79-47.42Q131.69-42.77 129.79-35.52L129.79-35.52Q116.60-41.16 106.57-49.07Q96.53-56.98 89.58-68.81Q82.62-80.64 78.74-97.92L78.74-97.92ZM23.58-27.17L22.34-31.35L99.90-31.35L109.35-42.63Q109.35-42.63 112.32-40.47Q115.28-38.31 119.38-35.27Q123.49-32.23 126.78-29.52L126.78-29.52Q126.34-27.17 122.68-27.17L122.68-27.17L85.62-27.17L85.62-8.42Q85.62-1.83 84.01 3.04Q82.40 7.91 77.31 10.77Q72.22 13.62 61.82 14.43L61.82 14.43Q61.60 9.81 61.16 6.41Q60.72 3.00 59.40 0.88L59.40 0.88Q58.30-1.10 56.18-2.71Q54.05-4.32 49.37-5.27L49.37-5.27L49.37-7.03Q49.37-7.03 52.00-6.88Q54.64-6.74 57.71-6.59Q60.79-6.45 62.11-6.45L62.11-6.45Q64.67-6.45 64.67-8.72L64.67-8.72L64.67-27.17L38.53-27.17L60.28-14.87Q59.77-13.70 58.48-13.15Q57.20-12.60 54.57-13.04L54.57-13.04Q46.58-5.42 34.13 1.03Q21.68 7.47 7.18 10.47L7.18 10.47L6.15 8.86Q13.18 4.25 19.45-1.90Q25.71-8.06 30.51-14.65Q35.30-21.24 38.09-27.17L38.09-27.17L23.58-27.17ZM37.21-55.81L37.21-55.81Q38.75-57.57 40.28-59.40Q41.82-61.23 43.21-62.99L43.21-62.99Q41.16-62.99 38.67-64.38L38.67-64.38Q38.01-66.72 36.58-69.36Q35.16-72.00 33.47-74.12L33.47-74.12Q31.20-72.29 28.82-70.53Q26.44-68.77 23.88-67.24L23.88-67.24Q31.86-65.77 34.75-62.37Q37.65-58.96 37.21-55.81ZM5.13-107.37L4.03-111.62L41.38-111.62L41.38-128.10L67.24-125.98Q67.09-124.44 66.06-123.41Q65.04-122.39 62.11-121.95L62.11-121.95L62.11-111.62L86.57-111.62L86.57-128.10L112.94-125.98Q112.72-124.44 111.66-123.41Q110.60-122.39 107.52-121.95L107.52-121.95L107.52-111.62L119.53-111.62L128.98-124.07Q128.98-124.07 131.95-121.73Q134.91-119.38 138.90-116.05Q142.90-112.72 145.97-109.79L145.97-109.79Q145.31-107.37 141.72-107.37L141.72-107.37L107.52-107.37L107.52-99.90Q107.52-98.66 102.43-97.34Q97.34-96.02 90.01-96.02L90.01-96.02L86.57-96.02L86.57-107.37L62.11-107.37L62.11-99.17Q62.11-98.22 58.63-97.05Q55.15-95.87 49.95-95.43L49.95-95.43L55.81-94.04Q55.44-92.80 54.31-92.25Q53.17-91.70 50.10-91.77L50.10-91.77Q48.05-88.84 45.63-85.99L45.63-85.99L54.27-85.99L64.53-95.58L81.01-81.30Q79.76-79.32 74.85-78.88L74.85-78.88Q65.19-61.67 47.46-48.67Q29.74-35.67 4.98-28.93L4.98-28.93L3.88-30.91Q11.57-34.72 18.49-39.59Q25.42-44.46 31.49-50.10L31.49-50.10Q28.20-49.37 24.90-51.78L24.90-51.78Q24.68-55.00 23.11-58.45Q21.53-61.89 19.48-64.53L19.48-64.53Q16.33-62.84 13.07-61.30Q9.81-59.77 6.45-58.52L6.45-58.52L5.27-59.84Q10.84-64.31 15.93-70.79Q21.02-77.27 24.94-84.70Q28.86-92.14 31.05-99.46L31.05-99.46L41.38-97.19L41.38-107.37L5.13-107.37ZM49.66-72.44L49.66-72.44Q52.51-77.20 54.42-81.74L54.42-81.74L41.67-81.74L37.79-77.86Q42.85-77.42 45.70-75.88Q48.56-74.34 49.66-72.44ZM173.07-31.64L173.07-90.60L173.07-99.32L196.22-90.60L213.13-90.60L213.13-128.25L240.45-126.12Q240.31-124.66 239.39-123.67Q238.48-122.68 235.62-122.24L235.62-122.24L235.62-109.94L254.52-109.94L266.09-124.22Q266.09-124.22 268.18-122.64Q270.26-121.07 273.52-118.62Q276.78-116.16 280.37-113.38Q283.96-110.60 286.96-108.18L286.96-108.18Q286.30-105.76 282.57-105.76L282.57-105.76L235.62-105.76L235.62-90.60L252.91-90.60L262.65-101.22L282.42-86.13Q281.69-85.18 280.26-84.30Q278.83-83.42 276.42-82.98L276.42-82.98L276.42-40.21Q276.34-39.55 273.38-38.12Q270.41-36.69 266.20-35.52Q261.99-34.35 258.18-34.35L258.18-34.35L254.37-34.35L254.37-41.82L235.62-41.82L235.62-22.49L263.09-22.49L274.95-37.21Q274.95-37.21 277.11-35.60Q279.27-33.98 282.64-31.46Q286.01-28.93 289.75-26.07Q293.48-23.22 296.56-20.73L296.56-20.73Q295.90-18.31 292.02-18.31L292.02-18.31L235.62-18.31L235.62 9.59Q235.55 10.25 230.79 12.08Q226.03 13.92 217.38 13.92L217.38 13.92L213.13 13.92L213.13-18.31L155.27-18.31L154.03-22.49L213.13-22.49L213.13-41.82L194.82-41.82L194.82-38.38Q194.82-37.35 192.08-35.74Q189.33-34.13 185.05-32.89Q180.76-31.64 176.22-31.64L176.22-31.64L173.07-31.64ZM254.37-68.70L254.37-86.43L194.82-86.43L194.82-68.70L254.37-68.70ZM194.82-64.53L194.82-46.07L254.37-46.07L254.37-64.53L194.82-64.53ZM305.13-105.62L304.03-109.79L340.21-109.79L340.21-128.39L366.58-126.12Q366.36-124.66 365.33-123.60Q364.31-122.53 361.38-122.09L361.38-122.09L361.38-109.79L387.16-109.79L387.16-128.39L413.96-126.12Q413.89-124.66 412.79-123.60Q411.69-122.53 408.76-122.09L408.76-122.09L408.76-109.79L418.21-109.79L428.10-123.12Q428.10-123.12 429.93-121.69Q431.76-120.26 434.58-117.96Q437.40-115.65 440.41-113.01Q443.41-110.38 445.83-108.03L445.83-108.03Q445.39-105.62 441.72-105.62L441.72-105.62L408.76-105.62L408.76-95.58Q408.76-94.19 403.34-92.69Q397.92-91.19 390.60-91.19L390.60-91.19L387.16-91.19L387.16-105.62L361.38-105.62L361.38-94.78Q361.38-93.97 358.92-92.91Q356.47-91.85 352.40-91.08Q348.34-90.31 343.65-90.31L343.65-90.31L340.21-90.31L340.21-105.62L305.13-105.62ZM414.18-41.24L414.18-66.87L379.61-66.87Q382.03-62.55 387.08-57.64Q392.14-52.73 399.10-48.38Q406.05-44.02 414.18-41.24L414.18-41.24ZM339.62-71.12L373.17-71.12L373.17-84.16L339.92-84.16L339.33-88.33L370.53-88.33L376.32-97.49L391.19-87.01Q388.55-83.35 377.71-82.47L377.71-82.47L377.71-71.70L377.86-71.12L412.65-71.12L421.95-81.59L441.58-66.72Q440.84-65.84 439.42-64.93Q437.99-64.01 435.57-63.43L435.57-63.43L435.57-9.16Q435.57-2.27 433.92 2.60Q432.28 7.47 426.89 10.36Q421.51 13.26 410.38 14.28L410.38 14.28Q410.08 9.08 409.46 5.27Q408.84 1.46 407.37-0.73L407.37-0.73Q405.83-3.08 403.38-4.80Q400.93-6.52 395.87-7.47L395.87-7.47L395.87-9.45Q395.87-9.45 397.81-9.34Q399.76-9.23 402.50-9.08Q405.25-8.94 407.78-8.83Q410.30-8.72 411.47-8.72L411.47-8.72Q414.18-8.72 414.18-11.57L414.18-11.57L414.18-37.79Q409.28-35.23 406.09-29.81Q402.91-24.39 401.73-19.19L401.73-19.19Q395.07-22.34 388.59-29.37Q382.10-36.40 378.59-45.78L378.59-45.78Q373.39-36.33 362.55-29.37Q351.71-22.41 337.94-19.04L337.94-19.04L337.94 7.47Q337.94 8.64 335.34 10.29Q332.74 11.94 328.64 13.26Q324.54 14.58 320.07 14.58L320.07 14.58L316.92 14.58L316.92-79.83L339.62-71.12ZM337.94-66.87L337.94-21.61Q344.90-27.39 350.21-34.94Q355.52-42.48 359.14-50.76Q362.77-59.03 364.67-66.87L364.67-66.87L337.94-66.87Z"/>
    </svg>
        