<?xml version="1.0" encoding="UTF-8" standalone="no"?>
        <svg 
    viewBox="3.7353515625 -86.90185546875 445.5322265625 57.75146484375"
    width="441.796875"
    height="144.6533203125"
   xmlns="http://www.w3.org/2000/svg"
   xmlns:svg="http://www.w3.org/2000/svg">
   <path d="M13.18-57.42L13.18-90.31L13.18-97.92L33.33-90.31L56.69-90.31L65.41-99.76L84.01-86.13Q83.20-85.18 81.70-84.27Q80.20-83.35 77.86-82.76L77.86-82.76L77.86-63.87Q77.71-63.43 74.85-62.48Q72.00-61.52 68.41-60.72L68.41-60.72L81.88-48.93Q80.49-47.46 76.03-47.24L76.03-47.24Q72.36-45.56 67.57-43.69Q62.77-41.82 57.93-40.36L57.93-40.36L62.84-39.92Q62.26-36.62 57.93-36.04L57.93-36.04L57.93-33.33L88.48-35.38L88.48-101.37Q87.38-100.93 85.99-100.93L85.99-100.93L4.98-100.93L3.74-105.18L34.79-105.18L34.79-127.37L61.23-125.39Q61.08-123.85 60.02-122.75Q58.96-121.66 55.81-121.22L55.81-121.22L55.81-105.18L62.26-105.18L72.29-118.95Q72.29-118.95 74.96-116.71Q77.64-114.48 81.41-111.22Q85.18-107.96 88.48-104.88L88.48-104.88L88.48-123.78L110.52-113.67L118.07-113.67L128.69-124.22L149.56-105.76Q147.95-103.56 142.68-103.34L142.68-103.34Q139.75-98.51 135.68-92.21Q131.62-85.91 127.04-79.54Q122.46-73.17 117.92-68.12L117.92-68.12Q127.08-63.35 132.86-56.65Q138.65-49.95 141.39-42.66Q144.14-35.38 144.14-28.93L144.14-28.93Q144.14-21.31 141.69-15.45Q139.23-9.59 133.56-6.26Q127.88-2.93 118.21-2.86L118.21-2.86Q118.21-5.93 117.96-9.63Q117.70-13.33 117.19-16.44Q116.67-19.56 115.94-21.02L115.94-21.02Q114.04-24.32 109.20-25.78L109.20-25.78L109.20-27.47Q111.11-27.47 113.82-27.47Q116.53-27.47 117.77-27.47L117.77-27.47Q119.60-27.47 120.78-28.20L120.78-28.20Q122.24-29.08 123.01-30.80Q123.78-32.52 123.78-35.67L123.78-35.67Q123.78-43.43 121.58-52.04Q119.38-60.64 113.96-67.68L113.96-67.68Q115.06-72.95 116.20-80.38Q117.33-87.82 118.25-95.54Q119.17-103.27 119.53-109.50L119.53-109.50L108.62-109.50L108.62 8.42Q108.62 9.08 106.64 10.55Q104.66 12.01 101.00 13.29Q97.34 14.58 92.29 14.58L92.29 14.58L88.48 14.58L88.48-33.18Q82.54-30.98 74.96-28.67Q67.38-26.37 57.93-23.73L57.93-23.73L57.93-7.03Q57.93-0.51 56.18 3.92Q54.42 8.35 49.04 10.91Q43.65 13.48 32.67 14.43L32.67 14.43Q32.23 10.03 31.53 6.92Q30.83 3.81 28.93 1.68L28.93 1.68Q27.17-0.29 24.39-1.83Q21.61-3.37 15.75-4.32L15.75-4.32L15.75-6.30Q15.75-6.30 18.24-6.15Q20.73-6.01 24.17-5.79Q27.61-5.57 30.69-5.42Q33.76-5.27 34.94-5.27L34.94-5.27Q37.50-5.27 37.50-7.47L37.50-7.47L37.50-18.31L16.92-13.04Q15.38-10.11 12.45-9.59L12.45-9.59L3.74-30.76Q9.16-30.83 17.87-31.20Q26.59-31.57 37.50-32.23L37.50-32.23L37.50-41.82L50.10-40.94Q51.71-42.99 53.25-45.26Q54.79-47.53 56.10-49.66L56.10-49.66L10.33-49.66L9.01-53.83L56.84-53.83L62.99-59.99L61.67-59.99L58.23-59.99L58.23-66.72L32.67-66.72L32.67-63.13Q32.67-62.33 30.14-60.97Q27.61-59.62 23.73-58.52Q19.85-57.42 15.89-57.42L15.89-57.42L13.18-57.42ZM32.67-70.97L58.23-70.97L58.23-86.13L32.67-86.13L32.67-70.97ZM163.18-112.94L162.01-117.11L261.91-117.11L272.09-130.08Q272.09-130.08 274.00-128.65Q275.90-127.22 278.83-124.95Q281.76-122.68 284.99-120.15Q288.21-117.63 290.84-115.36L290.84-115.36Q290.19-112.94 286.52-112.94L286.52-112.94L163.18-112.94ZM237.01-111.18L237.01-111.18L262.50-105.91Q262.13-104.52 260.85-103.60Q259.57-102.69 256.93-102.61L256.93-102.61Q254.44-98.88 250.89-94.45Q247.34-90.01 243.16-85.62L243.16-85.62L260.23-86.43Q259.50-89.14 258.40-91.55Q257.30-93.97 256.20-95.87L256.20-95.87L257.52-96.61Q267.63-94.56 272.61-90.97Q277.59-87.38 278.72-83.42Q279.86-79.47 278.25-76.46L278.25-76.46Q278.39-76.39 281.54-74.08Q284.69-71.78 288.98-68.48Q293.26-65.19 296.70-62.26L296.70-62.26Q296.04-59.84 292.53-59.84L292.53-59.84L155.13-59.84L153.88-64.01L267.92-64.01L275.68-73.68Q273.34-71.70 269.79-71.74Q266.24-71.78 262.65-74.85L262.65-74.85Q262.43-78.00 261.77-81.15L261.77-81.15Q256.79-78.88 250.34-76.21Q243.90-73.54 235.62-70.39L235.62-70.39Q234.16-67.53 231.45-67.02L231.45-67.02L223.02-85.18L233.57-85.33Q234.81-91.85 235.69-98.73Q236.57-105.62 237.01-111.18ZM183.76-111.18L183.76-111.18L209.11-106.64Q208.74-105.32 207.53-104.33Q206.32-103.34 203.69-103.20L203.69-103.20Q201.12-99.17 197.28-94.41Q193.43-89.65 189.18-85.03L189.18-85.03L204.42-85.77Q203.32-90.82 201.12-94.63L201.12-94.63L202.51-95.43Q211.30-93.38 215.95-90.23Q220.61-87.08 221.96-83.64Q223.32-80.20 222.25-77.23Q221.19-74.27 218.52-72.58Q215.84-70.90 212.40-71.19Q208.96-71.48 205.66-74.71L205.66-74.71Q205.74-76.39 205.66-78.15Q205.59-79.91 205.37-81.59L205.37-81.59Q200.32-79.25 193.36-76.28Q186.40-73.32 177.32-69.73L177.32-69.73Q176.00-66.94 173.22-66.43L173.22-66.43L164.87-84.45L180.18-84.74Q181.49-91.41 182.41-98.40Q183.33-105.40 183.76-111.18ZM249.32-1.17L249.32-21.75L200.68-21.75L200.68-1.17L249.32-1.17ZM200.68-25.93L249.32-25.93L249.32-44.82L200.68-44.82L200.68-25.93ZM179.37 14.28L179.37-49.07L179.37-57.71L201.93-49.07L247.78-49.07L257.23-59.55L276.93-44.68Q276.20-43.80 274.80-42.81Q273.41-41.82 271.07-41.38L271.07-41.38L271.07 8.57Q271.00 9.08 267.96 10.29Q264.92 11.50 260.74 12.49Q256.57 13.48 253.05 13.48L253.05 13.48L249.32 13.48L249.32 3.00L200.68 3.00L200.68 7.32Q200.68 8.42 198.01 10.03Q195.34 11.65 191.16 12.96Q186.99 14.28 182.52 14.28L182.52 14.28L179.37 14.28ZM391.04-62.70L391.04-62.70L367.53-62.70Q364.60-55.15 361.27-47.24Q357.93-39.33 354.93-32.23L354.93-32.23Q361.52-31.93 367.60-31.27Q373.68-30.62 379.03-29.88L379.03-29.88Q387.67-43.36 391.04-62.70ZM355.81-96.02L355.81-96.02L383.42-90.89Q383.06-89.36 381.63-88.29Q380.20-87.23 376.98-87.16L376.98-87.16Q375.59-83.57 373.61-78.26Q371.63-72.95 369.29-66.87L369.29-66.87L415.50-66.87L426.12-81.01Q426.12-81.01 428.10-79.47Q430.08-77.93 433.12-75.48Q436.16-73.02 439.49-70.28Q442.82-67.53 445.53-65.11L445.53-65.11Q444.87-62.70 441.14-62.70L441.14-62.70L415.21-62.70Q412.72-51.42 409.28-42.15Q405.83-32.89 400.78-25.20L400.78-25.20Q413.82-21.46 421.73-16.66Q429.64-11.87 433.30-6.88Q436.96-1.90 437.18 2.49Q437.40 6.88 435.10 9.89Q432.79 12.89 428.69 13.77Q424.58 14.65 419.68 12.45L419.68 12.45Q414.99 7.62 406.86 1.39Q398.73-4.83 388.04-11.13L388.04-11.13Q375.66-0.95 355.66 5.05Q335.67 11.06 304.61 13.92L304.61 13.92L304.03 12.01Q327.91 6.37 344.35-1.25Q360.79-8.86 371.41-20.07L371.41-20.07Q367.02-22.27 362.40-24.24Q357.79-26.22 352.95-28.05L352.95-28.05L348.49-18.31Q344.60-16.63 338.31-16.85Q332.01-17.07 325.34-19.78L325.34-19.78Q327.98-24.98 331.16-31.97Q334.35-38.96 337.72-46.91Q341.09-54.86 344.24-62.70L344.24-62.70L306.30-62.70L305.13-66.87L345.92-66.87Q349.29-75.66 351.93-83.35Q354.57-91.04 355.81-96.02ZM324.02-116.09L324.02-116.09L325.63-116.09Q327.25-112.72 328.34-109.64Q329.44-106.57 330.03-103.64L330.03-103.64L363.43-103.64L363.43-128.25L391.33-126.27Q391.26-124.73 390.20-123.63Q389.14-122.53 385.99-121.95L385.99-121.95L385.99-103.64L416.67-103.64L427.37-114.18L445.53-97.05Q443.92-95.29 439.67-95.07L439.67-95.07Q436.23-92.14 431.43-88.84Q426.64-85.55 421.47-82.51Q416.31-79.47 411.77-77.42L411.77-77.42L410.67-78.30Q412.50-82.69 414.44-88.59Q416.38-94.48 417.63-99.46L417.63-99.46L330.76-99.46Q331.79-91.48 329.63-85.77Q327.47-80.05 323.58-77.27L323.58-77.27Q320.87-75.22 317.43-75.18Q313.99-75.15 311.02-76.98Q308.06-78.81 306.74-82.32L306.74-82.32Q305.05-87.30 307.36-91.11Q309.67-94.92 313.77-97.05L313.77-97.05Q316.19-98.58 318.68-101.48Q321.17-104.37 322.74-108.18Q324.32-111.99 324.02-116.09Z"/>
    </svg>
        