<?xml version="1.0" encoding="UTF-8" standalone="no"?>
        <svg 
    viewBox="3.557942708333333 -86.85416288154069 441.4306640625 56.644315497819775"
    width="437.8727213541667"
    height="143.49847837936048"
   xmlns="http://www.w3.org/2000/svg"
   xmlns:svg="http://www.w3.org/2000/svg">
   <path d="M27.91-17.29L29.88-17.72Q37.35-12.60 40.21-7.47Q43.07-2.34 42.70 1.83Q42.33 6.01 39.92 8.42Q37.50 10.84 34.24 10.69Q30.98 10.55 28.20 6.88L28.20 6.88Q29.22 0.81 29.00-5.68Q28.78-12.16 27.91-17.29L27.91-17.29ZM42.63-17.58L44.24-18.31Q53.32-14.50 57.28-9.89Q61.23-5.27 61.52-1.06Q61.82 3.15 59.62 5.93Q57.42 8.72 53.94 8.97Q50.46 9.23 47.09 5.71L47.09 5.71Q47.75-0.15 46.29-6.56Q44.82-12.96 42.63-17.58L42.63-17.58ZM18.02-16.92L18.02-16.92L20.07-17.07Q23.66-9.30 23.95-3.00Q24.24 3.30 22.30 7.62Q20.36 11.94 17.07 13.77L17.07 13.77Q13.62 15.82 9.52 14.72Q5.42 13.62 4.03 9.45L4.03 9.45Q2.78 5.49 4.83 2.56Q6.88-0.37 10.33-1.98L10.33-1.98Q13.40-3.74 15.97-7.98Q18.53-12.23 18.02-16.92ZM43.51-82.47L34.64-82.47Q32.30-79.47 29.63-76.46Q26.95-73.46 24.02-70.68L24.02-70.68L31.20-67.82L39.62-67.82Q40.72-70.83 41.78-74.93Q42.85-79.03 43.51-82.47L43.51-82.47ZM41.67-93.02L37.65-86.72L42.63-86.72L50.54-94.78L46.66-94.63Q45.92-92.80 41.67-93.02L41.67-93.02ZM35.67-26.88L35.67-43.36L30.62-43.36L30.62-26.88L35.67-26.88ZM56.25-43.36L50.24-43.36L50.24-26.88L56.25-26.88L56.25-43.36ZM30.62-47.53L35.67-47.53L35.67-63.57L30.62-63.57L30.62-47.53ZM50.24-63.57L50.24-47.53L56.25-47.53L56.25-63.57L50.24-63.57ZM120.48-101.51L120.48-101.51L141.14-82.98Q139.67-81.74 137.07-81.59Q134.47-81.45 130.66-82.76L130.66-82.76Q125.10-81.23 117.77-80.13L117.77-80.13L117.77-61.23L123.63-61.23L131.98-73.68Q131.98-73.68 134.58-71.30Q137.18-68.92 140.63-65.59Q144.07-62.26 146.70-59.40L146.70-59.40Q146.26-56.98 142.82-56.98L142.82-56.98L118.95-56.98Q122.24-47.68 129.35-40.76Q136.45-33.84 146.56-29.22L146.56-29.22L146.41-27.76Q143.12-25.20 140.88-18.82Q138.65-12.45 137.99-3.44L137.99-3.44Q128.47-13.77 124.11-25.20Q119.75-36.62 117.77-48.78L117.77-48.78L117.77 8.57Q117.77 9.45 113.27 11.79Q108.76 14.14 101.22 14.14L101.22 14.14L97.49 14.14L97.49-28.34Q93.24-23.51 88.15-19.15Q83.06-14.79 77.12-10.99L77.12-10.99Q80.93-7.10 81.26-3.19Q81.59 0.73 79.54 3.48Q77.49 6.23 74.01 6.74Q70.53 7.25 66.72 4.17L66.72 4.17Q66.43-1.68 63.68-7.95Q60.94-14.21 57.42-18.46L57.42-18.46L57.71-18.60L56.25-18.60L56.25-22.63L30.62-22.63Q30.62-21.83 28.49-20.54Q26.37-19.26 23.07-18.27Q19.78-17.29 16.33-17.29L16.33-17.29L13.92-17.29L13.92-62.26Q9.74-59.18 5.57-56.98L5.57-56.98L4.17-58.08Q9.52-64.75 13.92-74.71L13.92-74.71Q16.77-80.86 18.86-87.60Q20.95-94.34 22.19-100.49L22.19-100.49L42.33-96.31L42.33-107.37L5.86-107.37L4.83-111.62L42.33-111.62L42.33-128.39L68.12-126.12Q67.97-124.66 66.87-123.67Q65.77-122.68 62.84-122.24L62.84-122.24L62.84-111.62L87.16-111.62L87.16-128.39L113.53-126.27Q113.45-124.73 112.32-123.71Q111.18-122.68 108.18-122.24L108.18-122.24L108.18-111.62L120.12-111.62L129.79-124.22Q129.79-124.22 132.71-121.88Q135.64-119.53 139.64-116.16Q143.63-112.79 146.70-109.79L146.70-109.79Q146.26-107.37 142.68-107.37L142.68-107.37L108.18-107.37L108.18-99.46Q108.18-98.29 103.05-96.94Q97.92-95.58 90.60-95.58L90.60-95.58L87.16-95.58L87.16-107.37L62.84-107.37L62.84-98.88Q62.84-97.85 59.73-96.68Q56.62-95.51 51.78-94.92L51.78-94.92L66.43-82.03Q65.04-80.49 60.72-80.27L60.72-80.27Q57.35-77.42 52.81-73.90Q48.27-70.39 43.65-67.82L43.65-67.82L54.93-67.82L62.55-75.73L78.15-64.01Q77.56-63.35 76.35-62.66Q75.15-61.96 73.32-61.67L73.32-61.67L73.32-22.78Q73.24-22.34 71.41-21.50Q69.58-20.65 66.87-19.85Q64.16-19.04 61.52-18.75L61.52-18.75Q65.70-17.72 68.85-16.30Q72.00-14.87 74.27-13.18L74.27-13.18Q81.23-22.19 85.73-33.58Q90.23-44.97 92.72-56.98L92.72-56.98L74.71-56.98L73.54-61.23L97.49-61.23L97.49-77.56Q91.41-76.98 85.18-76.65Q78.96-76.32 72.88-76.32L72.88-76.32L72.58-78.00Q81.23-80.71 90.38-84.74Q99.54-88.77 107.48-93.20Q115.43-97.63 120.48-101.51ZM243.60-78.44L243.60-112.21L206.10-112.21L206.10-78.44L243.60-78.44ZM184.35-59.84L184.35-116.38L184.35-125.10L206.98-116.38L242.07-116.38L251.73-126.93L271.36-112.06Q270.70-111.18 269.20-110.19Q267.70-109.20 265.36-108.76L265.36-108.76L265.36-67.24Q265.28-66.50 262.35-65.15Q259.42-63.79 255.25-62.66Q251.07-61.52 247.34-61.52L247.34-61.52L243.60-61.52L243.60-74.27L206.10-74.27L206.10-66.58Q206.10-65.63 203.32-64.01Q200.54-62.40 196.25-61.12Q191.97-59.84 187.50-59.84L187.50-59.84L184.35-59.84ZM198.49-7.62L198.49-47.09L181.93-47.09L181.93-7.62L198.49-7.62ZM161.43 12.60L161.43-51.27L161.43-59.55L182.67-51.27L196.95-51.27L206.25-61.52L225.15-46.95Q224.49-46.07 223.06-45.15Q221.63-44.24 219.29-43.80L219.29-43.80L219.29 4.17Q219.21 4.91 216.43 6.26Q213.65 7.62 209.66 8.75Q205.66 9.89 202.08 9.89L202.08 9.89L198.49 9.89L198.49-3.44L181.93-3.44L181.93 6.01Q181.93 6.96 179.37 8.53Q176.81 10.11 172.78 11.35Q168.75 12.60 164.43 12.60L164.43 12.60L161.43 12.60ZM268.21-7.62L268.21-47.09L250.49-47.09L250.49-7.62L268.21-7.62ZM229.98 12.60L229.98-51.27L229.98-59.55L251.22-51.27L266.67-51.27L276.12-61.67L295.53-46.95Q294.80-46.07 293.33-45.15Q291.87-44.24 289.53-43.65L289.53-43.65L289.53 5.71Q289.45 6.30 286.49 7.43Q283.52 8.57 279.42 9.52Q275.32 10.47 271.80 10.47L271.80 10.47L268.21 10.47L268.21-3.44L250.49-3.44L250.49 6.01Q250.49 6.96 247.92 8.53Q245.36 10.11 241.33 11.35Q237.30 12.60 232.98 12.60L232.98 12.60L229.98 12.60ZM333.91-66.87L332.67-71.12L369.43-71.12L379.83-85.03Q379.83-85.03 381.70-83.50Q383.57-81.96 386.50-79.54Q389.43-77.12 392.61-74.38Q395.80-71.63 398.36-69.29L398.36-69.29Q397.78-66.87 394.19-66.87L394.19-66.87L333.91-66.87ZM327.17-35.08L325.93-39.33L373.32-39.33L383.57-53.25Q383.57-53.25 385.44-51.71Q387.30-50.17 390.23-47.75Q393.16-45.34 396.35-42.59Q399.54-39.84 402.17-37.50L402.17-37.50Q401.51-35.08 397.92-35.08L397.92-35.08L327.17-35.08ZM338.09-128.25L338.09-128.25L368.26-117.48Q367.02-114.18 361.82-114.62L361.82-114.62Q360.13-111.25 358.41-108.07Q356.69-104.88 354.93-101.88L354.93-101.88L410.38-101.88L422.39-113.96L441.43-96.75Q440.41-95.65 438.72-94.85Q437.04-94.04 434.25-93.60L434.25-93.60Q432.64-50.76 429.31-26.33Q425.98-1.90 418.36 5.42L418.36 5.42Q413.38 10.25 407.26 12.41Q401.15 14.58 390.45 14.58L390.45 14.58Q390.45 9.23 389.28 5.20Q388.11 1.17 385.47-1.17L385.47-1.17Q382.54-3.88 376.94-6.23Q371.34-8.57 363.87-10.03L363.87-10.03L363.87-11.57Q369.21-11.21 375.29-10.80Q381.37-10.40 386.54-10.14Q391.70-9.89 394.34-9.89L394.34-9.89Q396.61-9.89 398.03-10.47Q399.46-11.06 400.93-12.16L400.93-12.16Q404.15-14.87 406.35-26.15Q408.54-37.43 409.94-55.74Q411.33-74.05 412.21-97.63L412.21-97.63L352.22-97.63Q342.85-83.50 331.35-73.50Q319.85-63.50 306.15-56.54L306.15-56.54L304.83-57.57Q311.50-65.84 317.94-77.09Q324.39-88.33 329.66-101.44Q334.94-114.55 338.09-128.25Z"/>
    </svg>
        