<?xml version="1.0" encoding="UTF-8" standalone="no"?>
        <svg 
    viewBox="2.7099609375 -85.83984375 447.4365234375 56.982421875"
    width="444.7265625"
    height="142.822265625"
   xmlns="http://www.w3.org/2000/svg"
   xmlns:svg="http://www.w3.org/2000/svg">
   <path d="M13.92-123.93L15.01-124.80Q26.51-125.10 33.47-122.79Q40.43-120.48 43.54-116.82Q46.66-113.16 46.66-109.28Q46.66-105.40 44.31-102.50Q41.97-99.61 38.01-98.77Q34.06-97.92 29.22-100.49L29.22-100.49Q27.10-106.93 22.67-113.27Q18.24-119.60 13.92-123.93L13.92-123.93ZM2.71-91.77L3.74-92.58Q14.58-92.14 20.80-89.54Q27.03-86.94 29.52-83.28Q32.01-79.61 31.53-75.99Q31.05-72.36 28.45-69.80Q25.85-67.24 21.90-66.87Q17.94-66.50 13.48-69.43L13.48-69.43Q12.60-75.51 9.45-81.59Q6.30-87.67 2.71-91.77L2.71-91.77ZM13.48-31.49L13.48-31.49Q15.38-31.49 16.26-31.90Q17.14-32.30 18.60-34.64L18.60-34.64Q19.70-36.40 20.69-38.09Q21.68-39.77 23.40-43.18Q25.12-46.58 28.38-53.25Q31.64-59.91 37.24-71.52Q42.85-83.13 51.64-101.37L51.64-101.37L53.69-100.78Q52.00-95.36 49.91-88.48Q47.83-81.59 45.63-74.30Q43.43-67.02 41.49-60.31Q39.55-53.61 38.16-48.45Q36.77-43.29 36.18-40.80L36.18-40.80Q35.16-36.84 34.46-32.78Q33.76-28.71 33.76-25.78L33.76-25.78Q33.91-22.56 35.08-19.92Q36.25-17.29 37.65-14.50Q39.04-11.72 40.06-8.17Q41.09-4.61 40.94 0.44L40.94 0.44Q40.72 6.45 36.51 10.18Q32.30 13.92 25.78 13.92L25.78 13.92Q22.85 13.92 19.85 12.27Q16.85 10.62 15.60 6.15L15.60 6.15Q17.14-1.61 17.50-8.57Q17.87-15.53 17.10-20.32Q16.33-25.12 14.58-26.37L14.58-26.37Q11.28-28.49 6.45-28.93L6.45-28.93L6.45-31.49Q6.45-31.49 7.87-31.49Q9.30-31.49 10.99-31.49Q12.67-31.49 13.48-31.49ZM46.22 7.32L44.97 3.15L82.62 3.15L82.62-55.08L53.54-55.08L52.37-59.25L82.62-59.25L82.62-108.91L50.98-108.91L49.80-113.09L118.95-113.09L128.83-126.93Q128.83-126.93 130.66-125.39Q132.50-123.85 135.31-121.47Q138.13-119.09 141.17-116.38Q144.21-113.67 146.70-111.33L146.70-111.33Q146.04-108.91 142.53-108.91L142.53-108.91L104.88-108.91L104.88-59.25L117.92-59.25L127.66-72.58Q127.66-72.58 129.42-71.12Q131.18-69.65 133.92-67.35Q136.67-65.04 139.64-62.40Q142.60-59.77 145.02-57.42L145.02-57.42Q144.36-55.08 140.84-55.08L140.84-55.08L104.88-55.08L104.88 3.15L119.68 3.15L130.37-11.72Q130.37-11.72 132.31-10.07Q134.25-8.42 137.29-5.86Q140.33-3.30 143.63-0.40Q146.92 2.49 149.56 4.98L149.56 4.98Q149.34 6.15 148.13 6.74Q146.92 7.32 145.39 7.32L145.39 7.32L46.22 7.32ZM216.72-44.82L217.97-45.63Q229.25-44.02 235.51-40.50Q241.77-36.99 243.97-32.74Q246.17-28.49 245.25-24.61Q244.34-20.73 241.26-18.27Q238.18-15.82 233.90-15.89Q229.61-15.97 225.15-19.63L225.15-19.63Q225.07-26.37 222.58-33.14Q220.09-39.92 216.72-44.82L216.72-44.82ZM162.30-112.50L161.13-116.67L186.04-116.67L194.53-128.10Q194.53-128.10 197.17-125.94Q199.80-123.78 203.43-120.70Q207.06-117.63 209.99-114.92L209.99-114.92Q209.33-112.50 205.96-112.50L205.96-112.50L162.30-112.50ZM161.57-73.83L160.33-78.00L186.62-78.00L194.97-89.14Q194.97-89.14 197.53-86.98Q200.10-84.81 203.61-81.81Q207.13-78.81 209.99-76.17L209.99-76.17Q209.33-73.83 205.96-73.83L205.96-73.83L161.57-73.83ZM161.57-54.13L160.33-58.37L186.62-58.37L194.97-69.43Q194.97-69.43 197.53-67.31Q200.10-65.19 203.61-62.18Q207.13-59.18 209.99-56.54L209.99-56.54Q209.33-54.13 205.96-54.13L205.96-54.13L161.57-54.13ZM154.32-93.46L153.15-97.63L191.97-97.63L200.54-108.91Q200.54-108.91 203.17-106.75Q205.81-104.59 209.40-101.59Q212.99-98.58 215.84-95.87L215.84-95.87Q215.41-93.46 211.82-93.46L211.82-93.46L154.32-93.46ZM240.75-103.78L240.75-126.93L267.63-124.80Q267.41-123.19 266.31-122.09Q265.21-121.00 262.06-120.48L262.06-120.48L262.06-103.78L264.33-103.78L274.37-116.97Q274.37-116.97 276.20-115.54Q278.03-114.11 280.88-111.80Q283.74-109.50 286.85-106.90Q289.97-104.30 292.53-102.03L292.53-102.03Q291.87-99.61 288.28-99.61L288.28-99.61L262.06-99.61L262.06-78.15L268.80-78.15L278.98-91.33Q278.98-91.33 280.85-89.90Q282.71-88.48 285.57-86.17Q288.43-83.86 291.54-81.26Q294.65-78.66 297.14-76.32L297.14-76.32Q296.70-73.97 292.97-73.97L292.97-73.97L211.52-73.97L210.28-78.15L240.75-78.15L240.75-99.61L217.53-99.61L216.28-103.78L240.75-103.78ZM254.74-53.25L254.74-72.88L280.81-70.68Q280.37-67.38 275.68-66.72L275.68-66.72L275.68-53.69L283.96-65.99Q283.96-65.99 286.60-63.57Q289.23-61.16 292.75-57.75Q296.26-54.35 298.97-51.42L298.97-51.42Q298.32-49.07 294.87-49.07L294.87-49.07L275.68-49.07L275.68-9.30Q275.68-2.27 273.96 2.67Q272.24 7.62 266.71 10.51Q261.18 13.40 249.76 14.43L249.76 14.43Q249.39 9.30 248.66 5.68Q247.92 2.05 246.02-0.44L246.02-0.44Q244.12-2.78 241.30-4.50Q238.48-6.23 232.47-7.32L232.47-7.32L232.47-9.30Q232.47-9.30 235.00-9.16Q237.52-9.01 241.00-8.79Q244.48-8.57 247.56-8.42Q250.63-8.28 251.88-8.28L251.88-8.28Q254.74-8.28 254.74-10.47L254.74-10.47L254.74-49.07L211.08-49.07L209.84-53.25L254.74-53.25ZM189.62-5.13L189.62-33.33L178.93-33.33L178.93-5.13L189.62-5.13ZM160.18 14.28L160.18-37.50L160.18-45.12L179.52-37.50L188.23-37.50L196.66-46.51L213.87-33.47Q213.21-32.67 211.93-31.86Q210.64-31.05 208.52-30.76L208.52-30.76L208.52 3.30Q208.52 3.96 205.96 5.24Q203.39 6.52 199.77 7.54Q196.14 8.57 192.92 8.57L192.92 8.57L189.62 8.57L189.62-0.88L178.93-0.88L178.93 8.42Q178.93 9.23 176.59 10.62Q174.24 12.01 170.54 13.15Q166.85 14.28 162.89 14.28L162.89 14.28L160.18 14.28ZM362.55-66.28L362.55-118.07L362.55-126.12L383.72-118.07L411.77-118.07L421.22-128.25L440.41-113.67Q439.75-112.79 438.32-111.88Q436.89-110.96 434.55-110.38L434.55-110.38L434.55-77.27Q434.55-76.83 433.34-75.99Q432.13-75.15 430.22-74.12L430.22-74.12Q431.91-72.80 434.91-70.46Q437.92-68.12 441.28-65.41Q444.65-62.70 447.44-60.28L447.44-60.28Q447.22-59.03 446.01-58.48Q444.80-57.93 443.26-57.93L443.26-57.93L393.31-57.93Q391.41-54.86 388.99-51.97Q386.57-49.07 383.86-46.36L383.86-46.36L418.65-46.36L429.13-56.10L446.85-41.38Q445.24-39.33 440.84-38.67L440.84-38.67Q439.89-24.10 438.28-14.58Q436.67-5.05 434.00 0.51Q431.32 6.08 427.22 8.86L427.22 8.86Q423.34 11.43 418.62 12.67Q413.89 13.92 407.23 13.92L407.23 13.92Q407.37 9.59 406.82 6.08Q406.27 2.56 404.74 0.44L404.74 0.44Q402.98-1.68 400.20-3.26Q397.41-4.83 393.16-5.86L393.16-5.86Q385.99 0.15 377.31 5.24Q368.63 10.33 358.52 14.43L358.52 14.43L357.28 12.45Q372.36 2.56 382.69-11.76Q393.02-26.07 398.36-42.11L398.36-42.11L397.78-42.11Q390.23-29.08 377.05-19.04Q363.87-9.01 347.09-2.27L347.09-2.27L345.78-4.17Q355.52-11.06 363.24-20.40Q370.97-29.74 376.03-39.62L376.03-39.62Q368.99-34.20 360.57-29.70Q352.15-25.20 342.92-21.61L342.92-21.61L341.67-23.58Q350.90-30.10 358.26-39.29Q365.63-48.49 370.39-57.93L370.39-57.93L351.27-57.93L350.10-62.11L417.77-62.11L425.98-72.44Q423.85-71.63 421.51-71.15Q419.17-70.68 416.97-70.68L416.97-70.68L413.23-70.68L413.23-76.03L382.98-76.03L382.98-72.58Q382.98-71.70 380.35-70.20Q377.71-68.70 373.68-67.49Q369.65-66.28 365.41-66.28L365.41-66.28L362.55-66.28ZM413.23-94.92L382.98-94.92L382.98-80.27L413.23-80.27L413.23-94.92ZM382.98-113.82L382.98-99.17L413.23-99.17L413.23-113.82L382.98-113.82ZM419.97-42.11L419.97-42.11L419.38-42.11Q411.62-22.34 394.92-7.47L394.92-7.47L408.47-6.88Q411.47-6.88 413.09-8.13L413.09-8.13Q417.99-11.87 419.97-42.11ZM309.89-33.18L301.98-56.84Q304.61-57.42 309.16-58.48Q313.70-59.55 319.34-60.86L319.34-60.86L319.34-87.89L305.13-87.89L303.88-92.07L319.34-92.07L319.34-128.39L344.38-125.98Q344.17-124.29 342.92-123.23Q341.67-122.17 338.82-121.80L338.82-121.80L338.82-92.72L346.36-106.64Q346.36-106.64 347.75-104.99Q349.15-103.34 351.27-100.78Q353.39-98.22 355.63-95.40Q357.86-92.58 359.40-90.31L359.40-90.31Q358.96-87.89 355.52-87.89L355.52-87.89L338.82-87.89L338.82-65.84L356.40-70.68L356.69-69.29Q350.02-63.50 338.82-55.08L338.82-55.08L338.82-8.13Q338.82-1.32 337.32 3.37Q335.82 8.06 330.91 10.77Q326.00 13.48 315.89 14.43L315.89 14.43Q315.67 9.67 315.12 6.19Q314.58 2.71 313.18 0.44L313.18 0.44Q311.87-1.83 309.59-3.41Q307.32-4.98 302.71-5.86L302.71-5.86L302.71-7.76Q302.71-7.76 304.47-7.65Q306.23-7.54 308.68-7.40Q311.13-7.25 313.40-7.14Q315.67-7.03 316.63-7.03L316.63-7.03Q319.34-7.03 319.34-9.30L319.34-9.30L319.34-41.09L314.14-37.50Q313.04-34.13 309.89-33.18L309.89-33.18Z"/>
    </svg>
        