<?xml version="1.0" encoding="UTF-8" standalone="no"?>
        <svg 
    viewBox="3.5888671875 -86.279296875 446.9970703125 56.8359375"
    width="443.408203125"
    height="143.115234375"
   xmlns="http://www.w3.org/2000/svg"
   xmlns:svg="http://www.w3.org/2000/svg">
   <path d="M49.66-53.98L29.74-53.98L29.74-21.17L49.66-21.17L49.66-53.98ZM10.99-0.15L10.99-58.23L10.99-65.84L30.03-58.81L30.03-89.43L4.83-89.43L3.59-93.60L30.03-93.60L30.03-126.27L55.08-124.22Q54.86-122.61 53.69-121.51Q52.51-120.41 49.51-119.82L49.51-119.82L49.51-93.60L51.64-93.60L61.38-107.67Q61.38-107.67 63.17-106.13Q64.97-104.59 67.71-102.14Q70.46-99.68 73.43-96.94Q76.39-94.19 78.74-91.77L78.74-91.77Q78.08-89.43 74.56-89.43L74.56-89.43L49.51-89.43L49.51-59.69L57.13-67.82L75.15-53.98Q74.49-53.10 72.99-52.19Q71.48-51.27 69.14-50.83L69.14-50.83L69.14-15.31Q69.14-14.50 66.65-12.78Q64.16-11.06 60.42-9.67Q56.69-8.28 53.10-8.28L53.10-8.28L49.66-8.28L49.66-16.92L29.74-16.92L29.74-5.57Q29.74-4.54 25.60-2.34Q21.46-0.15 14.43-0.15L14.43-0.15L10.99-0.15ZM119.09-82.76L119.09-111.47L99.02-111.47L99.02-82.76L119.09-82.76ZM79.47-62.70L79.47-115.65L79.47-123.49L102.03-115.65L117.63-115.65L126.78-125.98L145.53-111.47Q143.77-109.20 139.53-108.18L139.53-108.18L139.53-10.62Q139.53-3.59 137.81 1.46Q136.08 6.52 130.63 9.56Q125.17 12.60 113.82 13.62L113.82 13.62Q113.38 8.35 112.54 4.39Q111.69 0.44 109.79-1.98L109.79-1.98Q107.89-4.54 104.92-6.30Q101.95-8.06 95.87-9.16L95.87-9.16L95.87-11.28Q95.87-11.28 98.44-11.10Q101.00-10.91 104.59-10.73Q108.18-10.55 111.40-10.36Q114.62-10.18 115.94-10.18L115.94-10.18Q119.09-10.18 119.09-13.33L119.09-13.33L119.09-44.53L98.22-44.53Q97.12-33.25 93.05-22.63Q88.99-12.01 79.91-2.82Q70.83 6.37 54.57 13.48L54.57 13.48L53.25 12.30Q64.97 2.27 70.53-9.52Q76.10-21.31 77.78-34.64Q79.47-47.97 79.47-62.70L79.47-62.70ZM119.09-48.78L119.09-78.59L99.02-78.59L99.02-62.84Q99.02-55.74 98.58-48.78L98.58-48.78L119.09-48.78ZM163.04 12.74L153.59-7.98Q159.59-8.42 170.03-9.59Q180.47-10.77 193.65-12.45L193.65-12.45Q194.90-18.31 196.14-25.20Q197.39-32.08 198.27-37.50L198.27-37.50L221.85-31.05Q220.83-27.98 216.14-28.20L216.14-28.20Q212.99-25.20 208.74-21.09Q204.49-16.99 200.10-13.18L200.10-13.18L225.15-16.48Q229.10-27.76 230.20-40.03Q231.30-52.29 231.30-65.26L231.30-65.26L231.30-77.27Q230.64-75.44 227.71-75.44L227.71-75.44L154.98-75.44L153.74-79.61L207.42-79.61L212.55-86.28L209.40-86.13L206.10-86.13L206.10-89.72L175.34-89.72L175.34-85.77Q175.34-85.25 173.11-84.38Q170.87-83.50 167.54-82.76Q164.21-82.03 160.99-82.03L160.99-82.03L157.76-82.03L157.76-119.53L179.37-117.63Q179.30-116.46 178.45-115.61Q177.61-114.77 175.34-114.48L175.34-114.48L175.34-93.90L181.20-93.90L181.20-126.42L205.08-124.51Q204.93-123.05 203.94-122.13Q202.95-121.22 200.24-120.78L200.24-120.78L200.24-93.90L206.10-93.90L206.10-119.53L229.61-117.63Q229.39-116.38 228.52-115.43Q227.64-114.48 225.15-114.18L225.15-114.18L225.15-90.01Q225.15-89.58 223.72-88.92Q222.29-88.26 220.02-87.60L220.02-87.60Q222.44-85.69 225.59-83.13Q228.74-80.57 231.30-78.30L231.30-78.30L231.30-121.51L253.78-113.67L257.23-113.67L266.82-125.10L284.99-110.23Q284.18-109.35 282.90-108.62Q281.62-107.89 278.98-107.37L278.98-107.37L278.98-13.33Q278.98-10.62 280.37-10.62L280.37-10.62L280.96-10.62Q281.18-10.62 281.43-10.62Q281.69-10.62 281.98-10.62L281.98-10.62Q282.57-10.62 283.15-10.91Q283.74-11.21 284.40-12.45L284.40-12.45Q285.21-13.99 286.30-17.80Q287.40-21.61 288.57-26.33Q289.75-31.05 290.70-35.38L290.70-35.38L292.24-35.38L292.97-10.99Q295.97-9.16 296.92-7.32Q297.88-5.49 297.88-2.56L297.88-2.56Q297.88 2.93 293.23 6.12Q288.57 9.30 278.54 9.30L278.54 9.30L272.83 9.30Q266.89 9.30 264.00 7.76Q261.11 6.23 260.16 2.67Q259.20-0.88 259.20-6.88L259.20-6.88L259.20-109.50L250.78-109.50L250.78-65.41Q250.78-54.57 249.57-43.51Q248.36-32.45 244.19-21.97Q240.01-11.50 231.26-2.31Q222.51 6.88 207.42 14.14L207.42 14.14L206.10 13.04Q212.26 7.10 216.61 0.51Q220.97-6.08 223.83-13.04L223.83-13.04Q214.38-8.79 200.50-3.26Q186.62 2.27 167.29 9.16L167.29 9.16Q165.82 12.30 163.04 12.74L163.04 12.74ZM161.28-34.20L161.28-65.26L161.28-72.73L180.91-65.26L199.95-65.26L208.37-74.27L226.03-61.23Q225.51-60.42 224.16-59.62Q222.80-58.81 220.83-58.37L220.83-58.37L220.83-40.94Q220.75-40.43 217.97-39.40Q215.19-38.38 211.45-37.57Q207.71-36.77 204.79-36.77L204.79-36.77L201.27-36.77L201.27-41.53L180.18-41.53L180.18-39.77Q180.18-39.11 178.23-37.94Q176.29-36.77 173.36-35.82L173.36-35.82Q182.59-32.81 186.36-28.67Q190.14-24.54 189.95-20.62Q189.77-16.70 186.95-14.17Q184.13-11.65 180.03-11.68Q175.93-11.72 172.05-15.60L172.05-15.60Q172.49-20.65 171.50-25.67Q170.51-30.69 169.04-34.64L169.04-34.64Q166.55-34.20 163.77-34.20L163.77-34.20L161.28-34.20ZM180.18-45.78L201.27-45.78L201.27-61.08L180.18-61.08L180.18-45.78ZM308.57-125.83L310.03-126.64Q319.56-123.63 324.79-119.64Q330.03-115.65 331.86-111.47Q333.69-107.30 332.96-103.75Q332.23-100.20 329.70-98.11Q327.17-96.02 323.66-96.13Q320.14-96.24 316.48-99.46L316.48-99.46Q316.19-106.20 313.73-113.34Q311.28-120.48 308.57-125.83L308.57-125.83ZM309.89-21.31L302.71-42.77Q306.52-43.07 312.12-43.84Q317.72-44.60 324.46-45.63L324.46-45.63L324.46-51.93L324.46-64.67L307.18-64.67L306.01-68.85L324.46-68.85L324.46-91.19L305.13-91.19L303.88-95.43L334.79-95.43Q336.84-102.83 338.67-112.02Q340.50-121.22 341.38-128.39L341.38-128.39L364.82-122.53Q363.87-119.38 359.11-119.38L359.11-119.38Q355.52-114.26 349.95-107.70Q344.38-101.15 338.53-95.43L338.53-95.43L343.51-95.43L351.93-106.49Q351.93-106.49 354.53-104.37Q357.13-102.25 360.68-99.24Q364.23-96.24 367.02-93.60L367.02-93.60Q366.65-92.14 365.26-91.63L365.26-91.63Q372.36-89.06 376.28-85.84Q380.20-82.62 381.88-79.32L381.88-79.32L381.88-111.77L360.28-111.77L358.96-115.94L380.57-115.94L388.48-125.10L400.49-115.65L421.07-115.65L429.42-125.24L447.00-111.62Q445.39-109.50 441.28-108.62L441.28-108.62L441.28-7.18Q441.28-0.73 439.78 3.77Q438.28 8.28 433.37 10.95Q428.47 13.62 418.36 14.58L418.36 14.58Q417.99 10.03 417.33 6.56Q416.67 3.08 415.21 1.17L415.21 1.17Q413.60-1.03 411.07-2.56Q408.54-4.10 403.34-5.13L403.34-5.13L403.34-7.03Q403.34-7.03 405.43-6.92Q407.52-6.81 410.41-6.67Q413.31-6.52 415.91-6.41Q418.51-6.30 419.53-6.30L419.53-6.30Q421.36-6.30 421.95-7.07Q422.53-7.84 422.53-9.30L422.53-9.30L422.53-42.63Q420.78-39.26 418.73-35.38Q416.67-31.49 414.33-27.32L414.33-27.32Q414.33-23.58 411.62-21.90L411.62-21.90L399.90-39.18L399.90-7.03Q399.90-0.81 398.36 3.59Q396.83 7.98 391.85 10.62Q386.87 13.26 376.46 14.28L376.46 14.28Q376.17 9.89 375.37 6.59Q374.56 3.30 372.73 1.32L372.73 1.32Q370.83-0.81 367.90-2.31Q364.97-3.81 359.25-4.83L359.25-4.83L359.25-6.88Q359.25-6.88 361.74-6.74Q364.23-6.59 367.71-6.37Q371.19-6.15 374.27-6.01Q377.34-5.86 378.59-5.86L378.59-5.86Q380.49-5.86 381.19-6.63Q381.88-7.40 381.88-9.01L381.88-9.01L381.88-45.12Q379.17-40.65 375.81-35.19Q372.44-29.74 368.26-23.58L368.26-23.58Q368.26-22.12 367.42-20.62Q366.58-19.12 365.26-18.46L365.26-18.46L352.81-38.82Q356.62-40.50 364.71-44.53Q372.80-48.56 381.88-53.39L381.88-53.39L381.88-68.55Q380.49-65.77 377.89-64.34Q375.29-62.92 372.29-63.54Q369.29-64.16 366.72-67.38L366.72-67.38Q366.43-72.22 365.04-78.99Q363.65-85.77 360.13-91.19L360.13-91.19L344.24-91.19L344.24-69.87L351.64-79.98Q351.64-79.98 354.13-77.82Q356.62-75.66 360.02-72.66Q363.43-69.65 366.14-67.02L366.14-67.02Q365.48-64.67 362.11-64.67L362.11-64.67L344.24-64.67L344.24-51.93L344.24-49.07Q349.44-50.10 354.68-51.20Q359.91-52.29 365.11-53.39L365.11-53.39L365.41-51.78Q360.86-49.07 355.55-45.96Q350.24-42.85 343.80-39.48L343.80-39.48Q343.14-29.44 339.99-19.63Q336.84-9.81 329.26-1.03Q321.68 7.76 307.62 14.72L307.62 14.72L306.45 13.48Q314.87 4.25 318.60-6.67Q322.34-17.58 323.58-29.37L323.58-29.37L314.28-25.20Q313.04-22.05 309.89-21.31L309.89-21.31ZM401.51-92.07L403.05-93.02Q411.18-90.31 415.87-86.87Q420.56-83.42 422.53-79.98L422.53-79.98L422.53-111.47L404.37-111.47Q403.05-109.86 399.90-109.20L399.90-109.20L399.90-42.77Q403.49-44.53 409.61-47.90Q415.72-51.27 422.53-55.37L422.53-55.37L422.53-67.02Q420.19-63.79 416.13-63.35Q412.06-62.92 408.62-67.24L408.62-67.24Q407.67-72.29 406.05-79.32Q404.44-86.35 401.51-92.07L401.51-92.07Z"/>
    </svg>
        