<?xml version="1.0" encoding="UTF-8" standalone="no"?>
        <svg 
    viewBox="3.0029296875 -85.7666015625 446.5576171875 56.9091796875"
    width="443.5546875"
    height="142.67578125"
   xmlns="http://www.w3.org/2000/svg"
   xmlns:svg="http://www.w3.org/2000/svg">
   <path d="M10.33-112.50L9.16-116.67L28.34-116.67L36.62-127.51Q36.62-127.51 39.15-125.46Q41.67-123.41 45.15-120.48Q48.63-117.55 51.27-114.92L51.27-114.92Q50.83-112.50 47.39-112.50L47.39-112.50L10.33-112.50ZM9.59-73.83L8.42-78.00L29.74-78.00L37.50-88.33Q37.50-88.33 39.95-86.32Q42.41-84.30 45.74-81.48Q49.07-78.66 51.78-76.17L51.78-76.17Q51.12-73.83 47.68-73.83L47.68-73.83L9.59-73.83ZM9.59-54.13L8.42-58.37L29.74-58.37L37.50-68.70Q37.50-68.70 39.95-66.69Q42.41-64.67 45.74-61.85Q49.07-59.03 51.78-56.54L51.78-56.54Q51.12-54.13 47.68-54.13L47.68-54.13L9.59-54.13ZM8.28 14.28L8.28-37.50L8.28-44.82L26.73-37.50L31.20-37.50L39.18-45.78L51.78-36.47L48.49-47.24L54.57-47.68L54.57-95.07Q53.98-93.46 51.12-93.46L51.12-93.46L4.17-93.46L3.00-97.63L32.08-97.63L40.36-108.62Q40.36-108.62 42.77-106.64Q45.19-104.66 48.52-101.84Q51.86-99.02 54.57-96.46L54.57-96.46L54.57-115.50L66.58-110.82Q66.94-115.14 67.05-119.82Q67.16-124.51 67.02-128.25L67.02-128.25L92.29-124.37Q91.70-121.00 87.01-120.78L87.01-120.78Q83.94-118.07 79.87-114.92Q75.81-111.77 71.41-109.06L71.41-109.06L73.54-108.33L77.86-108.33L85.62-117.11L102.03-104.52Q100.71-102.69 97.05-101.88L97.05-101.88L97.05-67.02L101.37-65.55L99.90-72.73L101.51-73.32Q107.08-70.31 110.74-67.09Q114.40-63.87 116.38-60.57L116.38-60.57L116.38-87.01L98.22-87.01L97.19-91.19L116.38-91.19L116.38-125.68L141.43-123.27Q141.21-121.58 139.97-120.56Q138.72-119.53 135.86-119.09L135.86-119.09L135.86-97.19L139.01-103.05Q139.01-103.05 141.03-100.74Q143.04-98.44 145.61-95.21Q148.17-91.99 150-89.43L150-89.43Q149.34-87.01 146.26-87.01L146.26-87.01L135.86-87.01L135.86-8.13Q135.86-1.32 134.44 3.33Q133.01 7.98 128.25 10.66Q123.49 13.33 113.53 14.28L113.53 14.28Q113.31 9.52 112.83 6.04Q112.35 2.56 111.18 0.29L111.18 0.29Q109.94-1.83 107.89-3.41Q105.83-4.98 101.51-5.86L101.51-5.86L101.51-7.76Q101.51-7.76 104.11-7.62Q106.71-7.47 109.68-7.32Q112.65-7.18 113.82-7.18L113.82-7.18Q116.38-7.18 116.38-9.30L116.38-9.30L116.38-42.33Q113.67-39.62 109.72-39.73Q105.76-39.84 102.17-44.09L102.17-44.09Q102.61-48.12 102.54-52.33Q102.47-56.54 102.03-60.57L102.03-60.57L101.73-60.57Q100.71-58.15 99.54-55.55Q98.36-52.95 97.05-50.39L97.05-50.39L97.05-6.45Q97.05-0.22 95.69 4.14Q94.34 8.50 89.83 11.02Q85.33 13.55 76.03 14.43L76.03 14.43Q75.81 10.11 75.29 6.77Q74.78 3.44 73.68 1.68L73.68 1.68Q72.29-0.37 70.24-1.83Q68.19-3.30 63.87-4.17L63.87-4.17L63.87-6.15Q63.87-6.15 66.54-6.01Q69.21-5.86 72.25-5.71Q75.29-5.57 76.46-5.57L76.46-5.57Q78.22-5.57 78.70-6.23Q79.17-6.88 79.17-8.28L79.17-8.28L79.17-23.88Q73.46-17.36 66.36-11.57Q59.25-5.79 50.68-1.46L50.68-1.46L50.68 1.46Q50.61 2.20 48.16 3.44Q45.70 4.69 42.22 5.71Q38.75 6.74 35.67 6.74L35.67 6.74L32.52 6.74L32.52-0.88L26.22-0.88L26.22 8.57Q26.22 9.38 23.95 10.73Q21.68 12.08 18.16 13.18Q14.65 14.28 10.77 14.28L10.77 14.28L8.28 14.28ZM75.88-40.65L75.88-40.65L59.69-28.78Q58.15-25.49 55.22-25.05L55.22-25.05L53.10-31.93Q52.08-31.42 50.68-31.20L50.68-31.20L50.68-4.17Q58.81-11.72 65.11-21.17Q71.41-30.62 75.88-40.65ZM71.41-65.84L71.41-49.37L79.17-50.10L79.17-65.84L71.41-65.84ZM79.17-104.22L71.41-104.22L71.41-89.28L79.17-89.28L79.17-104.22ZM79.17-85.18L71.41-85.18L71.41-69.87L79.17-69.87L79.17-85.18ZM32.52-5.13L32.52-33.33L26.22-33.33L26.22-5.13L32.52-5.13ZM234.59-17.29L234.59-17.29L259.94-11.13Q259.20-7.98 254.37-7.98L254.37-7.98Q250.71-5.05 245.29-1.32Q239.87 2.42 234.59 5.71L234.59 5.71L267.48 5.71L277.66-6.88Q277.66-6.88 279.49-5.53Q281.32-4.17 284.22-1.98Q287.11 0.22 290.22 2.75Q293.33 5.27 295.97 7.47L295.97 7.47Q295.31 9.89 291.72 9.89L291.72 9.89L155.42 9.89L154.17 5.71L230.13 5.71Q231.37 0.51 232.58-5.93Q233.79-12.38 234.59-17.29ZM264.62-112.35L264.62-124.37L288.28-122.24Q288.21-120.92 287.18-119.93Q286.16-118.95 283.37-118.51L283.37-118.51L283.37-67.38Q283.37-66.43 280.37-64.97L280.37-64.97Q283.15-62.84 286.63-60.02Q290.11-57.20 292.97-54.79L292.97-54.79Q292.31-52.37 288.72-52.37L288.72-52.37L260.67-52.37L277.95-39.77Q277.29-38.75 276.09-38.05Q274.88-37.35 272.39-36.91L272.39-36.91L272.39-18.46Q272.39-17.87 267.85-16.37Q263.31-14.87 254.88-14.87L254.88-14.87L250.93-14.87L250.93-18.60L197.83-18.60L197.83-16.77Q206.91-15.23 211.45-12.38Q215.99-9.52 217.05-6.23Q218.12-2.93 216.58-0.07Q215.04 2.78 211.85 4.39Q208.67 6.01 204.68 5.53Q200.68 5.05 196.95 1.46L196.95 1.46Q197.31-2.78 196.47-6.96Q195.63-11.13 194.24-14.43L194.24-14.43Q192.26-13.62 188.93-13.04Q185.60-12.45 181.35-12.45L181.35-12.45L177.61-12.45L177.61-50.39L199.37-42.33L250.49-42.33L259.35-52.37L159.30-52.37L158.13-56.54L265.80-56.54L270.12-62.11L267.63-61.96L264.62-61.96L264.62-67.53L185.67-67.53L185.67-63.72Q185.67-63.06 183.36-62.00Q181.05-60.94 177.58-60.10Q174.10-59.25 170.58-59.25L170.58-59.25L167.29-59.25L167.29-124.37L190.65-122.24Q190.43-120.92 189.40-119.90Q188.38-118.87 185.67-118.51L185.67-118.51L185.67-71.70L193.07-71.70L193.07-82.03L187.21-82.03L186.04-86.28L193.07-86.28L193.07-95.58L187.79-95.58L186.62-99.76L193.07-99.76L193.07-108.76L187.50-108.76L186.33-112.94L193.07-112.94L193.07-126.27L208.67-124.66Q208.45-122.24 204.93-121.66L204.93-121.66L204.93-112.94L208.81-117.77Q208.81-117.77 210.94-116.05Q213.06-114.33 215.11-112.21L215.11-112.21L215.11-128.25L238.77-126.27Q238.55-124.80 237.56-123.82Q236.57-122.83 233.86-122.39L233.86-122.39L233.86-71.70L242.29-71.70L242.29-82.03L235.47-82.03L234.30-86.28L242.29-86.28L242.29-95.58L236.13-95.58L234.89-99.76L242.29-99.76L242.29-108.76L235.77-108.76L234.59-112.94L242.29-112.94L242.29-126.42L258.18-124.80Q257.96-123.71 257.15-122.94Q256.35-122.17 254.37-121.80L254.37-121.80L254.37-112.94L258.62-117.77Q258.62-117.77 260.60-116.09Q262.57-114.40 264.62-112.35L264.62-112.35ZM212.70-108.76L204.93-108.76L204.93-99.76L208.52-103.93Q208.52-103.93 210.86-101.92Q213.21-99.90 215.11-97.78L215.11-97.78Q214.45-95.58 211.52-95.58L211.52-95.58L204.93-95.58L204.93-86.28L205.96-86.28L209.84-91.33Q209.84-91.33 211.52-89.83Q213.21-88.33 215.11-86.43L215.11-86.43L215.11-109.35Q214.31-108.76 212.70-108.76L212.70-108.76ZM213.57-82.03L204.93-82.03L204.93-71.70L215.11-71.70L215.11-82.32Q214.53-82.03 213.57-82.03L213.57-82.03ZM262.50-108.76L254.37-108.76L254.37-100.05L257.67-104.08Q257.67-104.08 260.05-102.06Q262.43-100.05 264.48-97.78L264.48-97.78Q263.75-95.58 260.82-95.58L260.82-95.58L254.37-95.58L254.37-86.28L255.03-86.28L258.91-91.33L264.62-85.99L264.62-109.20Q263.89-108.76 262.50-108.76L262.50-108.76ZM262.50-82.03L254.37-82.03L254.37-71.70L264.62-71.70L264.62-82.47Q263.89-82.03 262.50-82.03L262.50-82.03ZM197.83-38.09L197.83-22.78L250.93-22.78L250.93-38.09L197.83-38.09ZM314.28-52.81L315.45-53.39Q321.53-37.87 330.47-28.93L330.47-28.93Q333.18-37.72 334.64-47.09Q336.11-56.47 336.77-66.14L336.77-66.14L330.62-66.14L327.03-58.67Q323.07-57.50 318.24-57.79Q313.40-58.08 307.32-60.42L307.32-60.42Q311.06-68.33 314.79-77.34Q318.53-86.35 321.94-95.03Q325.34-103.71 327.91-110.67L327.91-110.67L308.86-110.67L307.47-114.92L327.76-114.92L336.47-124.80L355.22-109.64Q354.27-108.62 352.59-107.81Q350.90-107.01 348.27-106.64L348.27-106.64Q346.51-102.17 343.91-96.13Q341.31-90.09 338.31-83.42Q335.30-76.76 332.37-70.39L332.37-70.39L335.23-70.39L345.26-80.86L359.55-68.99L358.52-72.73L387.01-72.73L387.01-104.74Q379.91-104.22 372.84-104.08Q365.77-103.93 359.11-103.93L359.11-103.93L358.81-105.76Q366.36-107.74 374.74-110.45Q383.13-113.16 391.30-116.20Q399.46-119.24 406.49-122.28Q413.53-125.32 418.51-127.95L418.51-127.95L438.43-108.33Q435.21-105.69 427.66-108.62L427.66-108.62Q419.68-107.30 409.06-106.35L409.06-106.35L409.06-72.73L416.38-72.73L427.08-88.04Q427.08-88.04 429.02-86.35Q430.96-84.67 433.92-82.03Q436.89-79.39 440.11-76.43Q443.33-73.46 445.97-70.97L445.97-70.97Q445.31-68.55 441.58-68.55L441.58-68.55L409.06-68.55L409.06-25.93L412.79-25.93L422.97-40.36Q422.97-40.36 424.84-38.75Q426.71-37.13 429.60-34.64Q432.50-32.15 435.64-29.37Q438.79-26.59 441.28-24.17L441.28-24.17Q440.63-21.75 437.11-21.75L437.11-21.75L362.40-21.75L361.23-25.93L387.01-25.93L387.01-68.55L359.99-68.55L363.28-65.84Q362.55-64.60 361.38-64.05Q360.21-63.50 357.57-63.13L357.57-63.13Q356.03-51.42 352.92-40.25Q349.80-29.08 343.95-19.19L343.95-19.19Q356.10-12.89 373.13-10.88Q390.16-8.86 413.53-8.86L413.53-8.86Q417.11-8.86 423.23-8.86Q429.35-8.86 435.72-8.90Q442.09-8.94 446.56-9.01L446.56-9.01L446.56-7.18Q440.70-5.86 437.73-0.70Q434.77 4.47 434.40 10.62L434.40 10.62Q431.76 10.62 427.51 10.62Q423.27 10.62 419.02 10.62Q414.77 10.62 412.21 10.62L412.21 10.62Q394.26 10.62 380.16 9.01Q366.06 7.40 355.26 3.26Q344.46-0.88 336.47-8.57L336.47-8.57Q330.69-1.83 322.81 3.96Q314.94 9.74 304.47 14.28L304.47 14.28L303.30 12.60Q311.72 6.08 317.61-2.12Q323.51-10.33 327.32-19.78L327.32-19.78Q323.22-26.22 319.96-34.39Q316.70-42.55 314.28-52.81L314.28-52.81Z"/>
    </svg>
        