<?xml version="1.0" encoding="UTF-8" standalone="no"?>
        <svg 
    viewBox="1.46484375 -85.7666015625 444.287109375 56.9091796875"
    width="442.822265625"
    height="142.67578125"
   xmlns="http://www.w3.org/2000/svg"
   xmlns:svg="http://www.w3.org/2000/svg">
   <path d="M124.37-106.49L127.95-111.18Q125.83-109.72 122.79-109.57Q119.75-109.42 116.38-111.33L116.38-111.33Q115.58-114.92 113.60-118.43Q111.62-121.95 109.50-124.66L109.50-124.66Q109.28-123.27 108.29-122.46Q107.30-121.66 104.74-121.22L104.74-121.22L104.74-106.49L124.37-106.49ZM83.42-106.49L83.42-127.37L109.06-125.10L107.89-126.64L108.91-127.37Q118.51-128.25 123.74-126.56Q128.98-124.88 130.74-121.91Q132.50-118.95 131.69-116.09L131.69-116.09L132.57-117.33Q132.57-117.33 135.13-115.25Q137.70-113.16 141.17-110.23Q144.65-107.30 147.44-104.74L147.44-104.74Q147.00-102.32 143.41-102.32L143.41-102.32L125.98-102.32L144.43-88.48Q143.77-87.74 142.49-86.94Q141.21-86.13 139.23-85.62L139.23-85.62L139.23-50.24Q139.16-49.80 136.05-48.78Q132.93-47.75 128.76-46.91Q124.58-46.07 121.22-46.07L121.22-46.07L117.48-46.07L117.48-58.96L104.74-58.96L104.74-49.22Q104.74-48.34 101.88-46.95L101.88-46.95L126.93-44.97Q126.49-41.89 121.95-41.24L121.95-41.24L121.95-33.18L122.53-33.18L132.13-46.36Q132.13-46.36 133.89-44.90Q135.64-43.43 138.35-41.13Q141.06-38.82 143.99-36.22Q146.92-33.62 149.27-31.35L149.27-31.35Q148.61-28.93 145.02-28.93L145.02-28.93L121.95-28.93L121.95-7.76Q121.95-1.03 120.30 3.55Q118.65 8.13 113.53 10.73Q108.40 13.33 97.78 14.28L97.78 14.28Q97.56 9.67 97.08 6.34Q96.61 3.00 95.21 0.88L95.21 0.88Q93.90-1.03 91.96-2.53Q90.01-4.03 85.62-4.98L85.62-4.98Q83.06-1.90 78.44-1.25Q73.83-0.59 68.85-4.17L68.85-4.17Q68.04-10.40 65.22-16.52Q62.40-22.63 59.40-27.03L59.40-27.03L60.42-27.76Q73.10-26.81 79.47-23.14Q85.84-19.48 87.34-14.98Q88.84-10.47 87.01-6.88L87.01-6.88L98.73-6.30Q100.93-6.30 100.93-8.13L100.93-8.13L100.93-28.93L45.63-28.93L44.38-33.18L100.93-33.18L100.93-46.66Q98.36-45.56 94.63-44.60Q90.89-43.65 87.30-43.65L87.30-43.65L83.42-43.65L83.42-58.96L72.29-58.96L72.29-47.53Q72.29-46.66 69.62-45.12Q66.94-43.58 62.81-42.33Q58.67-41.09 54.27-41.09L54.27-41.09L51.27-41.09L51.27-101.22L73.32-92.87L83.42-92.87L83.42-102.32L48.78-102.32L47.53-106.49L83.42-106.49ZM115.94-92.87L124.66-102.32L104.74-102.32L104.74-92.87L115.94-92.87ZM117.48-77.86L117.48-88.62L104.74-88.62L104.74-77.86L117.48-77.86ZM117.48-63.13L117.48-73.68L104.74-73.68L104.74-63.13L117.48-63.13ZM83.42-73.68L72.29-73.68L72.29-63.13L83.42-63.13L83.42-73.68ZM72.29-88.62L72.29-77.86L83.42-77.86L83.42-88.62L72.29-88.62ZM27.76-128.25L27.76-128.25L56.98-119.68Q56.03-116.53 50.98-116.53L50.98-116.53Q47.75-107.89 43.95-100.01Q40.14-92.14 36.04-85.03L36.04-85.03L43.80-82.18Q43.43-81.08 42.41-80.35Q41.38-79.61 39.18-79.17L39.18-79.17L39.18 8.28Q38.96 9.01 36.44 10.44Q33.91 11.87 30.03 13.07Q26.15 14.28 22.05 14.28L22.05 14.28L18.16 14.28L18.16-60.72Q14.65-56.84 10.88-53.28Q7.10-49.73 3.15-46.51L3.15-46.51L1.46-47.53Q6.67-57.50 11.76-70.79Q16.85-84.08 21.02-98.88Q25.20-113.67 27.76-128.25ZM221.41-126.78L222.73-127.51Q232.91-124.44 238.29-120.12Q243.68-115.80 245.40-111.29Q247.12-106.79 246.06-102.98Q245.00-99.17 242.03-96.94Q239.06-94.70 235.18-95.03Q231.30-95.36 227.42-99.17L227.42-99.17Q227.93-106.35 226.17-113.75Q224.41-121.14 221.41-126.78L221.41-126.78ZM162.60-112.50L161.43-116.67L186.33-116.67L194.82-128.10Q194.82-128.10 197.50-125.94Q200.17-123.78 203.76-120.70Q207.35-117.63 210.28-114.92L210.28-114.92Q209.62-112.50 206.25-112.50L206.25-112.50L162.60-112.50ZM161.87-73.83L160.62-78.00L186.91-78.00L195.26-89.14Q195.26-89.14 197.83-86.98Q200.39-84.81 203.91-81.81Q207.42-78.81 210.28-76.17L210.28-76.17Q209.62-73.83 206.25-73.83L206.25-73.83L161.87-73.83ZM161.87-54.13L160.62-58.37L186.91-58.37L195.26-69.43Q195.26-69.43 197.83-67.31Q200.39-65.19 203.91-62.18Q207.42-59.18 210.28-56.54L210.28-56.54Q209.62-54.13 206.25-54.13L206.25-54.13L161.87-54.13ZM261.47-128.25L261.47-128.25L288.43-120.63Q287.99-119.24 286.67-118.43Q285.35-117.63 282.71-117.63L282.71-117.63Q278.47-112.65 272.24-105.98Q266.02-99.32 259.50-93.46L259.50-93.46L270.63-93.46L279.42-105.76Q279.42-105.76 282.24-103.42Q285.06-101.07 288.87-97.78Q292.68-94.48 295.68-91.63L295.68-91.63Q295.02-89.28 291.43-89.28L291.43-89.28L262.65-89.28L262.65-64.53L268.07-64.53L277.08-76.98Q277.08-76.98 279.90-74.60Q282.71-72.22 286.52-68.88Q290.33-65.55 293.26-62.70L293.26-62.70Q292.82-60.28 289.23-60.28L289.23-60.28L262.65-60.28L262.65-31.35L269.97-31.35L279.79-44.82Q279.79-44.82 281.58-43.36Q283.37-41.89 286.12-39.51Q288.87-37.13 291.87-34.50Q294.87-31.86 297.29-29.52L297.29-29.52Q296.63-27.17 293.12-27.17L293.12-27.17L262.65-27.17L262.65 9.16Q262.57 10.03 258.11 12.23Q253.64 14.43 245.58 14.43L245.58 14.43L241.63 14.43L241.63-27.17L211.96-27.17L210.72-31.20L208.81-30.76L208.81 3.30Q208.81 3.96 206.25 5.24Q203.69 6.52 200.06 7.54Q196.44 8.57 193.21 8.57L193.21 8.57L189.92 8.57L189.92-0.88L179.22-0.88L179.22 8.42Q179.22 9.23 176.88 10.62Q174.54 12.01 170.84 13.15Q167.14 14.28 163.18 14.28L163.18 14.28L160.47 14.28L160.47-45.12L179.88-37.50L188.53-37.50L196.95-46.51L214.23-33.47Q213.21-32.23 211.08-31.35L211.08-31.35L241.63-31.35L241.63-60.28L217.02-60.28L215.84-64.53L241.63-64.53L241.63-89.28L213.87-89.28L212.70-93.46L154.61-93.46L153.44-97.63L193.80-97.63L202.22-108.91Q202.22-108.91 204.86-106.75Q207.50-104.59 211.12-101.59Q214.75-98.58 217.68-95.87L217.68-95.87Q217.02-93.46 213.57-93.46L213.57-93.46L255.76-93.46Q256.93-98.73 258.03-104.92Q259.13-111.11 260.01-117.19Q260.89-123.27 261.47-128.25ZM189.92-5.13L189.92-33.33L179.22-33.33L179.22-5.13L189.92-5.13ZM378.44-70.39L378.44-117.11L378.44-125.10L399.17-117.11L415.50-117.11L424.95-127.95L444.29-112.79Q443.48-111.91 442.09-111.00Q440.70-110.08 438.28-109.64L438.28-109.64L438.28-9.59Q438.28-2.49 436.67 2.53Q435.06 7.54 429.82 10.44Q424.58 13.33 413.67 14.28L413.67 14.28Q413.45 9.08 412.90 5.13Q412.35 1.17 411.04-1.03L411.04-1.03Q409.86-3.08 408.18-4.32L408.18-4.32Q406.20-0.51 401.84 0.59Q397.49 1.68 392.87-2.42L392.87-2.42Q392.43-7.69 390.60-13.33L390.60-13.33Q386.43-10.77 380.46-7.36Q374.49-3.96 366.14 0.44L366.14 0.44Q364.67 3.22 361.82 3.74L361.82 3.74L352.81-14.28Q349.07-10.11 344.49-6.34Q339.92-2.56 334.20 0.59L334.20 0.59L332.67-1.17Q341.60-11.21 345.81-24.39Q350.02-37.57 351.64-50.68L351.64-50.68L338.53-50.68L337.35-54.93L352.08-54.93Q352.73-62.40 352.95-69.73L352.95-69.73L377.86-67.38Q377.64-65.99 376.54-64.97Q375.44-63.94 372.73-63.57L372.73-63.57L371.26-54.93L385.33-54.93L395.07-67.38Q395.07-67.38 398.14-65.04Q401.22-62.70 405.36-59.36Q409.50-56.03 412.79-53.10L412.79-53.10Q412.35-50.68 408.62-50.68L408.62-50.68L370.17-50.68Q368.26-42.11 364.67-33.40Q361.08-24.68 354.79-16.77L354.79-16.77L367.02-16.77Q368.48-23.88 369.73-32.15Q370.97-40.43 371.41-46.95L371.41-46.95L394.63-41.09Q393.68-37.94 389.14-37.94L389.14-37.94Q386.06-33.33 381.63-27.72Q377.20-22.12 372.14-16.77L372.14-16.77L389.43-17.29Q388.18-20.65 386.76-23.77Q385.33-26.88 383.86-29.52L383.86-29.52L385.33-30.32Q398.36-26.37 403.67-20.43Q408.98-14.50 409.20-9.30L409.20-9.30L414.33-9.16Q416.02-9.16 416.49-9.89Q416.97-10.62 416.97-12.01L416.97-12.01L416.97-79.61L398.58-79.61L398.58-76.32Q398.58-75.51 396.02-74.08Q393.46-72.66 389.47-71.52Q385.47-70.39 381.30-70.39L381.30-70.39L378.44-70.39ZM350.24-100.63L350.24-112.94L332.37-112.94L332.37-100.63L350.24-100.63ZM311.43 14.14L311.43-117.11L311.43-126.12L333.03-117.11L348.78-117.11L357.42-126.42L375.29-113.09Q374.71-112.28 373.39-111.44Q372.07-110.60 369.87-110.23L369.87-110.23L369.87-75.44Q369.80-74.93 367.09-73.86Q364.38-72.80 360.61-71.96Q356.84-71.12 353.69-71.12L353.69-71.12L350.24-71.12L350.24-79.61L332.37-79.61L332.37 6.15Q332.37 7.47 329.99 9.38Q327.61 11.28 323.62 12.71Q319.63 14.14 314.87 14.14L314.87 14.14L311.43 14.14ZM350.24-96.46L332.37-96.46L332.37-83.86L350.24-83.86L350.24-96.46ZM416.97-100.63L416.97-112.94L398.58-112.94L398.58-100.63L416.97-100.63ZM416.97-96.46L398.58-96.46L398.58-83.86L416.97-83.86L416.97-96.46Z"/>
    </svg>
        