<?xml version="1.0" encoding="UTF-8" standalone="no"?>
<svg
   xmlns:dc="http://purl.org/dc/elements/1.1/"
   xmlns:cc="http://creativecommons.org/ns#"
   xmlns:rdf="http://www.w3.org/1999/02/22-rdf-syntax-ns#"
   xmlns:svg="http://www.w3.org/2000/svg"
   xmlns="http://www.w3.org/2000/svg"
   xmlns:xlink="http://www.w3.org/1999/xlink"
   id="svg17"
   version="1.1"
   viewBox="0 0 512 256"
   height="256"
   width="512">
  <metadata
     id="metadata21">
    <rdf:RDF>
      <cc:Work
         rdf:about="">
        <dc:format>image/svg+xml</dc:format>
        <dc:type
           rdf:resource="http://purl.org/dc/dcmitype/StillImage" />
        <dc:title></dc:title>
      </cc:Work>
    </rdf:RDF>
  </metadata>
  <rect
     id="rect2"
     style="fill:rgb(159, 53, 58); stroke-width:1px; stroke:rgb(159, 53, 58)"
     width="512"
     height="256" />
  <rect
     id="rect4"
     style="fill:none; stroke-width:1px; stroke:rgb(159, 53, 58)"
     height="256"
     width="512" />
  <defs
     id="defs7">
    <path
       d="M245.185 221.919c0-.136-.312-.19-.691-.122-.904.164-1.986-.534-1.788-1.152.122-.377.099-.392-.123-.078-.15.21-.213.478-.141.594.071.116.01.211-.137.211-.147 0-.388-.208-.536-.462-.213-.367-.273-.38-.286-.067-.014.353-.052.353-.34 0-.177-.218-.497-.435-.71-.482a3.326 3.326 0 0 1-.793-.322c-.35-.205-.343-.238.05-.245.305-.008.402-.146.294-.427-.129-.334-.204-.348-.377-.068-.173.28-.284.284-.545.023-.25-.25-.252-.329-.01-.329.53 0 .352-.413-.198-.455-.377-.026-.47.079-.347.407.145.387.11.398-.276.084-.244-.199-.383-.457-.31-.576.073-.118-.133-.254-.459-.3-.325-.048-.742-.383-.925-.747-.184-.363-.34-.542-.346-.396-.007.145-.232.002-.5-.32-.268-.32-.58-.5-.695-.396-.114.103-.127.046-.028-.126.107-.185-.14-.502-.604-.775-.43-.255-.723-.56-.65-.68.073-.118 0-.215-.164-.215-.178 0-.23-.214-.13-.529.1-.315.047-.529-.13-.529-.164 0-.218.13-.12.29.113.18-.006.252-.314.189-.318-.065-.462-.28-.404-.606.078-.44.035-.459-.344-.146-.377.313-.453.285-.583-.212-.083-.315-.262-.572-.4-.572-.136 0-.175.118-.085.264.149.24-.206.38-.738.292-.115-.019-.412.069-.66.196-.691.352-2.394.628-1.907.309.24-.158.272-.262.081-.264-.179-.002-.268-.248-.206-.569.06-.31.031-.486-.066-.39-.096.097-.215.435-.263.752-.106.69-.506.98-1.397 1.01-.363.016-.899.118-1.19.234-.396.159-.614.07-.87-.349-.33-.54-.335-.536-.165.101.096.364.086.577-.022.474-.109-.104-.554-.004-.989.22-.435.225-1.014.351-1.289.28-.274-.072-.431-.023-.35.109.082.132-.027.24-.242.24s-.598.08-.852.177c-.298.114-.399.075-.285-.109.254-.41-1.03-.228-1.59.225-.3.244-.386.257-.254.038.11-.182.073-.33-.081-.33s-.28.168-.28.375-.378.458-.84.56c-.653.143-.926.074-1.226-.31-.338-.433-.366-.437-.226-.03.11.32.02.47-.295.484-.25.011-.662.06-.917.109-.254.048-.466-.05-.47-.219-.004-.169-.13-.099-.278.156-.325.558-1.246.587-1.94.062-.346-.261-.609-.3-.825-.12-.368.306-3.03-.22-3.03-.598 0-.129-.116-.163-.257-.076-.141.088-.617-.026-1.058-.255-.732-.379-.93-.684-.826-1.28.021-.12-.086-.141-.237-.047a.323.323 0 0 0-.106.443c.093.15-.142.07-.522-.179s-.615-.577-.521-.73c.102-.163.043-.196-.146-.08-.41.254-1.15-.359-.978-.809.073-.19 0-.427-.161-.527-.19-.118-.219-.06-.08.165.146.235.11.282-.11.146a.48.48 0 0 1-.186-.556c.078-.204.001-.306-.18-.238-.175.065-.597-.372-.938-.97-.342-.6-.461-.994-.265-.875.292.175.29.133-.005-.233-.2-.246-.26-.45-.133-.452.127-.002.076-.102-.113-.222-.189-.12-.363-.475-.386-.79-.024-.313-.152-.57-.284-.57-.132 0-.077-.201.122-.448.2-.246.225-.364.056-.263-.204.123-.37-.185-.494-.921-.153-.908-.098-1.175.307-1.491.443-.346.446-.369.026-.224-.399.138-.45.034-.346-.692.224-1.559.353-1.911.67-1.838.197.046.235-.054.102-.264-.323-.509-.278-.832.168-1.188.296-.236.312-.324.058-.33-.449-.011 1.327-3.422 2.216-4.258.498-.467.72-.536.96-.296.24.24.19.48-.213 1.04-.29.401-.69 1.265-.892 1.92-.2.654-.428 1.306-.504 1.449-.6 1.12-.213 7.735.487 8.333.312.267 1.074 1.586.916 1.586-.14 0 .474.535 2.555 2.225.435.354.872.483 3.545 1.05 1.27.269 1.876.27 3.038.011.799-.18 1.56-.26 1.694-.178.133.083.157.011.053-.156-.116-.187-.004-.306.29-.309.263-.002 1.245-.243 2.182-.537.937-.294 1.859-.474 2.049-.402.19.073.345.03.345-.093 0-.124.208-.293.463-.377.254-.084 1.504-.501 2.776-.928 1.273-.427 2.315-.7 2.318-.606.002.094.091.044.198-.111.257-.373 5.229-1.926 6.408-2.002 1.382-.089 4.03.81 3.84 1.303-.124.325-.08.335.252.06.276-.229.403-.24.403-.038 0 .164.131.297.292.297.544 0 3.968 2.911 3.78 3.214-.076.123-.003.223.158.223.163 0 .21.138.107.305-.105.17-.073.234.07.146.288-.178 1.145.707 1.145 1.183 0 .168.079.226.175.13.096-.096.306.089.466.41.16.322.966.942 1.79 1.377.823.436 1.45.868 1.392.962-.058.093.19.113.55.045.36-.069.802-.011.983.127.18.138.702.237 1.158.219.638-.026.798.062.692.374-.114.334-.073.329.228-.026.258-.308.988-.483 2.481-.595 2.923-.218 3.531-.318 4.859-.798.636-.23 1.415-.419 1.732-.419.316 0 .687-.103.826-.23.517-.472 12.265-3.773 15.718-4.415.364-.068 1.732-.364 3.04-.657 1.31-.293 3.451-.754 4.76-1.025 7.113-1.469 9.726-2.24 12.262-3.622 2.946-1.604 5.273-3.548 7.99-6.673 1.04-1.196 1.744-1.799 1.993-1.704.47.18.433.28-.564 1.543-2.056 2.606-3.905 4.608-4.129 4.47-.135-.084-.214.007-.174.197.041.2-.135.333-.408.31-.264-.022-.417.027-.34.102.078.077.014.373-.136.657-.152.284-.342.451-.422.37-.08-.08-.377.148-.659.507-.282.358-.664.652-.849.652-.185 0-.682.302-1.104.672-.959.838-3.26 2.026-3.65 1.883-.16-.058-.49.065-.731.275-.242.21-.599.415-.793.454-.195.04-.7.213-1.124.387-.5.203-.86.224-1.027.057-.167-.167-.392-.123-.64.125-.21.21-.491.314-.625.232-.133-.083-.243-.03-.243.117 0 .328-1.756.841-2.24.655-.193-.074-.43-.007-.528.153-.097.158-.293.215-.435.128-.141-.088-.43-.02-.64.157-.21.174-.552.251-.761.171-.21-.08-.523.026-.697.235-.354.426-.902.527-.65.12.182-.296-.606-.065-1.11.324-.176.135-.449.166-.607.068-.158-.098-.455-.038-.66.133-.206.17-.517.222-.691.114-.215-.133-.247-.083-.1.154.156.254.095.304-.224.181-.242-.092-.44-.053-.44.088 0 .14-.179.256-.397.256-.218 0-.398-.148-.4-.33-.002-.22-.09-.199-.26.066-.142.218-.26.289-.261.157-.002-.131-.242-.026-.533.24-.291.263-.529.399-.529.301 0-.097-.42-.001-.932.213s-1.107.322-1.322.24c-.214-.083-.39-.012-.39.158s-.116.237-.257.15c-.14-.088-.62.026-1.065.26-.445.23-.924.346-1.065.259-.141-.087-.257-.03-.257.121 0 .392-.72.351-.882-.05-.085-.21-.141-.175-.154.099-.022.415-1.311.894-2.097.778-.196-.027-.279.073-.183.229.096.155.059.282-.083.282-.142 0-.318-.149-.392-.33-.084-.209-.141-.17-.154.103a.728.728 0 0 1-.431.592c-.235.09-.342.046-.249-.104.278-.45-.11-.285-.687.292-.328.328-.759.5-1.058.422-.278-.073-.45-.042-.38.068.122.198-.973.808-1.45.808-.134 0-.185-.209-.112-.463s-.01-.19-.186.143c-.175.334-.476.545-.669.471-.193-.074-.351.026-.351.228 0 .381-1.431 1.01-1.696.745-.086-.085-.157.015-.16.22-.003.308-.049.304-.26-.023-.17-.265-.257-.287-.26-.066-.002.182-.195.33-.429.33-.29 0-.374-.147-.264-.463.139-.397.106-.391-.228.04-.213.275-.326.602-.25.726.078.124.022.226-.124.226s-.338-.12-.428-.265c-.09-.145-.365-.262-.61-.26-.336.003-.362.058-.105.221.45.286-.035.711-1.115.983-.642.161-.742.123-.605-.235.09-.235.032-.51-.13-.61-.16-.099-.23-.073-.153.059.077.131.044.477-.073.768-.206.512-.214.512-.231.015-.018-.508-.021-.508-.435 0-.23.282-.34.364-.248.182.116-.23-.021-.3-.443-.232-.337.055-.79-.034-1.008-.198-.344-.258-.35-.236-.036.163.198.253.466.395.595.315.129-.08.234-.008.234.166 0 .188-.259.261-.66.184-.364-.07-.662-.026-.662.101 0 .125-.416.228-.925.228-1.025 0-1.058-.047-.623-.876.294-.56.287-.564-.22-.115-.287.255-.628.374-.756.265-.13-.11-.096-.015.074.208.25.332.212.415-.208.446-.29.023-.515-.127-.515-.34 0-.425-.416-.514-.647-.14-.082.134 0 .303.183.376.182.074-.055.144-.528.155-.472.012-.859-.09-.859-.226zm-.794-.399c0-.278-.507-.396-.658-.152-.091.148.021.27.246.27.227 0 .412-.054.412-.118zm15.176-2.483c.075-.121-.031-.22-.237-.22-.205 0-.312.099-.237.22.074.121.181.22.237.22.056 0 .162-.099.237-.22zm-23.267-2.644c.075-.121-.032-.22-.237-.22-.206 0-.312.099-.238.22.075.121.182.22.238.22.055 0 .162-.099.237-.22zm-13.385-2.449c.082-.304.055-.307-.148-.019-.136.194-.324.343-.417.33-.491-.065-.697.004-.697.234 0 .385 1.145-.11 1.262-.545zm-23.027-8.485c-.084-.211-.147-.149-.16.16-.011.278.051.435.14.347.087-.089.096-.316.02-.507zm115.53-14.942c-.086-.088-.725-.172-1.418-.188-.927-.023-1.26-.133-1.26-.423 0-.229.194-.361.462-.316.255.042.463-.047.463-.199 0-.152.137-.276.305-.276.167 0 1.06-.357 1.983-.793.924-.436 1.733-.793 1.8-.793.065 0 .727-.36 1.471-.798.744-.438 1.493-.716 1.664-.618.172.098.231.088.132-.023-.099-.11.642-.754 1.646-1.43 1.94-1.307 5.496-4.27 5.524-4.602.032-.36 1.027-1.215 1.206-1.035.098.097.138.057.09-.088-.084-.257.375-.997 1.526-2.462.307-.391 1.034-1.603 1.614-2.694.58-1.09 1.496-2.729 2.035-3.64.539-.912 1.166-2.102 1.392-2.644l.69-1.648c.152-.363.295-.72.317-.793.572-1.865.748-2.553.702-2.741-.032-.126.063-.602.21-1.058.235-.73.3-1.528.285-3.472-.007-1.028-.612-3.188-1.206-4.318-.724-1.377-2.3-2.778-3.94-3.503-1.51-.668-1.628-1.32-.211-1.171.545.057 1.326.11 1.734.119.42.008.672.129.581.277-.092.15.014.194.25.103.226-.087.41-.019.41.15 0 .17.118.236.262.147.144-.089.545.112.891.447s.793.649.994.697c.735.177 1.98 1.949 1.694 2.411-.081.132-.01.327.161.432.194.12.239.077.121-.114-.104-.168-.063-.305.091-.305s.28.238.28.53c0 .29.169.528.376.528.21 0 .456.38.56.86.1.472.306 1.011.456 1.197.197.245.134.447-.229.728-.368.285-.388.35-.073.24.445-.153.884.528.617.96-.08.128-.017.473.14.766.22.411.18.69-.178 1.236-.366.56-.382.676-.074.565.214-.077.359-.274.322-.438-.036-.164.043-.298.177-.298.309 0 .232 2-.088 2.293-.142.13-.152.057-.028-.177.173-.322.147-.335-.141-.067-.295.273-.268.395.16.718.282.214.386.393.229.398-.162.007-.237.334-.174.764.085.579-.007.787-.398.89-.28.072-.51.343-.51.6 0 .428.028.43.316.038.355-.484.789-.598.5-.131-.102.165-.213.552-.247.86-.1.93-.114.955-.524.955-.218 0-.397.126-.397.28 0 .154.12.206.266.115.147-.09.343.03.435.275.112.292-.086.655-.597 1.088-.588.5-.627.583-.17.362.489-.237.595-.213.595.133 0 .232-.119.348-.264.258-.146-.09-.265-.03-.265.133 0 .162-.137.21-.305.107-.18-.112-.234-.074-.13.093.095.156.024.354-.158.44-.183.087-.067.11.258.049.51-.094.554-.04.321.394-.147.276-.331.502-.407.502-.076 0-.065-.118.024-.264.09-.145.038-.264-.116-.264-.35 0-.362.34-.021.68.167.167.126.51-.117.978-.206.397-.317.721-.248.721.07 0-.003.241-.161.536-.159.296-.42.455-.583.354-.192-.119-.238-.03-.13.248.233.609-.251.822-.58.256-.15-.258-.277-.344-.282-.19-.003.152.129.413.296.58.229.23.195.47-.138.979-.243.37-.558.674-.7.674-.142 0-.259.245-.259.545 0 .3-.11.476-.245.393-.135-.084-.315.068-.401.339-.086.27-.47.777-.855 1.127-.384.35-.613.489-.509.307.105-.182.065-.33-.09-.33-.153 0-.28.196-.28.437 0 .24-.31.845-.69 1.343-.572.75-.81.878-1.388.744-.501-.116-.589-.089-.311.095.331.22.317.333-.101.795-.268.296-.711.61-.985.696-.274.087-.446.241-.383.344.18.291-2.798 2.265-3.355 2.223-.334-.027-.45.088-.353.344.132.342-.137.502-.696.413-.109-.018-.198.088-.198.234a.26.26 0 0 1-.256.264c-.141 0-.187-.18-.103-.4.106-.277.032-.353-.244-.248-.248.096-.343.355-.255.695.12.455.052.513-.426.361-.396-.126-.567-.068-.567.192 0 .205-.303.51-.673.679-.93.423-1.11.384-.501-.11.63-.51-.021-.205-.989.465-.417.289-.774.384-.868.233-.258-.418-.919-.02-.74.448.119.31.047.377-.273.254-.239-.092-.5-.06-.58.07-.144.232-.732.187-1.741-.134-.4-.127-.47-.064-.33.297.122.319.078.397-.146.26-.177-.11-.465-.087-.64.05-.413.325-1.928.611-2.134.405zm14.772-6.425c.09-.145.038-.265-.117-.265-.154 0-.28.12-.28.265 0 .145.053.264.117.264s.19-.118.28-.264zm2.705-2.01c-.088-.088-.316-.098-.507-.023-.211.084-.148.147.16.16.278.01.434-.052.347-.14zm3.074-3.413c-.113-.293-.032-.354.3-.226.345.133.428.055.35-.327-.056-.276.066-.63.273-.788.317-.242.308-.286-.057-.286-.394 0-.545.25-.462.77.027.19-.389.302-.84.226-.115-.022-.081.205.076.498.332.622.584.715.36.133zm2.55-3.186c0-.226-.121-.337-.27-.246-.147.091-.2.277-.116.413.227.366.385.298.385-.167zm3.172-8.842c0-.145-.126-.264-.28-.264-.153 0-.206.119-.116.264.09.146.216.265.28.265.064 0 .116-.119.116-.265zM216.506 180.67c-.095-.154-.078-.279.037-.279.543 0-1.822-1.316-3.35-1.865-.946-.34-1.807-.743-1.914-.896-.135-.194-.195-.192-.198.007-.002.158-.188.287-.412.287-.25 0-.35-.15-.258-.39.121-.317.076-.33-.242-.065-.266.22-.798.265-1.659.139-.697-.102-1.416-.192-1.597-.2-.182-.007-.33-.112-.33-.234 0-.121-.127-.22-.28-.22-.155 0-.226.089-.158.198.067.11-.163.216-.512.237-.348.022-.568-.069-.488-.199.08-.13-.046-.236-.281-.236-.236 0-.355.118-.265.264.107.174-.066.176-.514.007-.438-.167-.676-.166-.676.001a.262.262 0 0 1-.264.258c-.146 0-.266-.208-.269-.462-.001-.273-.083-.35-.198-.187-.251.359-2.97.459-2.97.11 0-.145-.305-.209-.678-.142-.803.146-1.494-.071-1.288-.404.08-.13.028-.237-.115-.237-.144 0-.448-.187-.677-.415-.24-.24-.415-.29-.415-.117 0 .164-.137.214-.305.11-.19-.117-.234-.073-.117.117.12.194-.015.305-.371.305s-.492-.111-.372-.305c.118-.19.073-.234-.119-.115-.17.105-.843-.078-1.498-.404-.813-.406-1.085-.662-.857-.807.184-.116.274-.223.202-.236-.073-.015-.341-.064-.596-.113-.262-.05-.392.026-.299.179.09.147-.117.111-.461-.08-.345-.19-.712-.323-.816-.294-.104.026-.126-.112-.048-.314.077-.202.012-.446-.146-.544-.158-.097-.206-.318-.108-.49.098-.171.082-.223-.037-.116-.12.108-.4.049-.622-.132-.252-.204-.338-.214-.226-.026.104.173-.04.358-.337.435-.284.075-.506.058-.494-.037.072-.558-.096-.83-.503-.812-.277.015-.33.075-.132.154.181.073.33.25.33.391 0 .142-.357.046-.793-.211-.436-.258-.793-.57-.793-.692 0-.123-.114-.152-.253-.066-.313.192-1.12-1.3-.86-1.589.103-.114.044-.126-.132-.026-.175.1-.256.387-.18.637.077.25-.038.157-.254-.207-.217-.363-.463-.631-.547-.595-.372.16-.7.044-.552-.195.091-.148-.012-.195-.237-.108-.231.088-.687-.135-1.084-.532-.376-.377-.785-.685-.909-.685-.123 0-.29-.172-.37-.383-.106-.274-.02-.335.301-.215.395.148.405.113.082-.284-.223-.274-.562-.39-.86-.295-.313.099-.552.003-.653-.259-.087-.228-.322-.415-.522-.415-.408 0-.781-1.14-.515-1.571.095-.154.047-.28-.107-.28s-.28.119-.28.263c0 .143-.238.058-.53-.191-.29-.25-.53-.695-.532-.99-.003-.442-.048-.467-.26-.139-.22.34-.257.33-.26-.066-.003-.254-.118-.462-.257-.462-.138 0-.495-.551-.793-1.224-.608-1.375-.703-1.878-.173-.922.265.478.402.546.566.28.13-.21.092-.393-.096-.455-.172-.057-.245-.213-.163-.346.082-.133-.093-.242-.388-.242-.325 0-.694-.3-.93-.76-.434-.837-.327-1.127.338-.915.35.111.364.086.068-.124-.222-.158-.297-.45-.187-.737.166-.432.13-.428-.403.04-.322.282-.504.373-.404.201.1-.172.051-.393-.108-.491-.165-.102-.218-.467-.123-.845.136-.542.086-.635-.264-.5-.359.137-.403.033-.26-.61.129-.59.035-.912-.394-1.34-.449-.449-.5-.641-.25-.943.31-.372.284-.411-.308-.478-.162-.019-.476-.491-.7-1.051-.345-.866-.35-1.053-.036-1.252.298-.189.283-.235-.079-.238-.306-.004-.415-.173-.344-.54.057-.294-.006-.468-.14-.386-.133.083-.324-.182-.423-.588-.1-.405-.303-.818-.454-.916-.18-.118-.153-.321.079-.6.296-.357.29-.4-.04-.274-.236.091-.39-.007-.39-.246 0-.219.098-.336.218-.263.12.074.146-.05.06-.276-.087-.225-.259-.41-.382-.41-.24 0-.661-1.762-.554-2.314.036-.182-.035-.33-.156-.33-.122 0-.22-.539-.218-1.198.005-1.715.582-1.442 1.417.67.374.944.807 1.805.963 1.912.156.107.188.196.073.199-.116.002.211.556.727 1.232.515.675.937 1.389.937 1.586 0 .197.091.359.202.359.238 0 2.906 3.978 3.023 4.507.044.2.299.606.565.902.267.297.67.897.897 1.333.226.436.485.852.576.925.377.303 2.405 2.865 2.405 3.04 0 .103.304.428.675.72.642.505 2.84 3.293 2.712 3.441-.033.039.768.889 1.78 1.89 1.012 1 1.811 1.918 1.777 2.039-.035.121.09.162.276.09.187-.071.6.171.92.539.32.367.702.668.848.668.146 0 .266.186.266.412 0 .227.109.345.242.263.133-.083.58.124.992.458.698.567 1.727 1.271 2.78 1.905 2.41 1.447 3.02 1.848 3.187 2.095.107.158.196.184.198.057.002-.127.16-.101.352.058.474.394 3.347 1.101 6.13 1.51.727.107 1.56.23 1.85.275.442.068 2.171.445 4.733 1.033 1.918.441 4.756 1.867 4.51 2.267-.081.13.007.18.197.108.375-.14 1.566 1.43 1.628 2.147.044.516-.494.791-.747.382zm-28.961-9.634c0-.056-.238-.164-.53-.24-.29-.076-.462-.03-.38.102.142.23.91.347.91.138zm-3.702-2.518c0-.132-.238-.177-.528-.101-.291.076-.53.183-.53.24 0 .055.239.1.53.1.29 0 .528-.108.528-.239zm-.632-.96c.032-.213-.051-.322-.184-.24-.133.082-.241.34-.241.574 0 .501.342.233.425-.333zm-2.001-1.444c-.108-.073-.26-.31-.338-.53-.079-.217-.138-.022-.133.437.008.65.083.766.338.529.18-.167.24-.364.133-.436zm-1.3-.6c-.26-.259-.291-.228-.148.148.1.261.247.408.329.326.081-.081 0-.294-.18-.474zm-1.438-1.83c-.085-.21-.147-.148-.16.16-.012.279.05.435.139.347.088-.088.097-.316.02-.507zm-.71-1.112c0-.057-.184-.174-.41-.261-.236-.09-.342-.046-.249.104.155.25.66.371.66.157zm18.794 13.655c.013-.279.073-.33.154-.13.074.182.243.264.376.182.133-.083.242-.026.242.13 0 .155-.179.28-.397.28-.218 0-.387-.208-.375-.462zm-6.367-2.675c0-.143-.208-.303-.463-.354-.383-.077-.394-.12-.064-.25.468-.186 1.188.456.789.703-.144.089-.262.044-.262-.1zm-16.79-18.808c-.09-.145-.037-.264.117-.264s.28.119.28.264c0 .146-.052.264-.116.264-.065 0-.19-.118-.28-.264zm152.958-1.907c.003-2.91-.233-8.931-.36-9.136-.091-.148-.224-1.086-.295-2.083-.071-.997-.497-3.538-.946-5.646-.45-2.109-.842-3.953-.872-4.098a2.029 2.029 0 0 0-.219-.53c-.09-.145-.3-.8-.468-1.454-.168-.654-.89-2.677-1.603-4.494-.714-1.818-1.333-3.484-1.375-3.702-.042-.218-.148-.456-.236-.529-.289-.239-1.822-3.298-1.823-3.635 0-.182-.12-.33-.265-.33a.263.263 0 0 1-.264-.26c0-.285-4.12-6.535-4.68-7.099-.191-.193-.27-.48-.173-.636.102-.164.052-.207-.118-.102-.165.102-.498-.14-.762-.554-.257-.405-.62-.831-.805-.947-.185-.117-.336-.326-.336-.464 0-.259-3.485-3.669-4.715-4.613a20.617 20.617 0 0 1-1.412-1.224c-.398-.382-.775-.643-.838-.58-.063.062-.35-.186-.638-.553-.288-.366-.599-.59-.691-.498-.092.092-.167-.027-.167-.265 0-.253-.147-.376-.354-.297-.195.075-.507-.048-.694-.272-.186-.225-.441-.41-.566-.41-.125 0-.854-.398-1.62-.887-.766-.488-1.833-1.045-2.37-1.237-.538-.193-.918-.448-.844-.567.073-.12-.096-.216-.376-.216-.726 0-3.239-1.084-3.086-1.33.07-.114-.08-.154-.335-.088-.255.065-1.296-.069-2.314-.298-6.696-1.509-13.08-1.875-18.491-1.062-1.59.239-3.107.377-3.371.309-.264-.07-.48-.004-.48.143 0 .15-.4.222-.907.162-.499-.058-.858-.026-.798.07.136.22-1.946.57-2.255.379-.124-.077-.265-.026-.314.119-.049.142-.624.311-1.279.376-.654.064-1.19.136-1.19.16 0 .026-.18.078-.403.122-.222.044-1.69.355-3.262.69-2.453.523-2.94.56-3.43.254-.537-.334-.548-.326-.176.126.37.448.347.472-.33.343-.4-.076-.727-.056-.727.046 0 .1-.149.196-.33.211-.183.015-1.045.103-1.918.196-4.845.514-7.565.454-12.162-.265-1.243-.195-4.411-.995-6.742-1.702-2.438-.74-5.653-1.528-7.271-1.782-2.96-.464-5.936-1.888-7.018-3.358-1.277-1.734-2.263-6.03-1.456-6.34.28-.107.437.102.558.747.092.493.078 1.042-.031 1.219-.123.198-.09.255.087.145.346-.214.7.76.432 1.192-.118.191-.075.236.115.118.168-.103.32-.063.339.091.019.155.048.382.066.506.057.389 1.966 2.38 2.127 2.22.084-.085.153.04.153.279 0 .269.145.376.384.284.211-.08.534-.055.716.058.183.113.624.237.98.275.357.038.747.224.867.413.176.279.219.276.222-.015.002-.238.16-.294.467-.167.254.106.611.198.793.205.182.007.33.118.33.248s.144.148.318.04c.44-.271 2.439-.13 2.548.18.048.139.187.192.308.117.121-.074.527-.019.903.124.504.192.684.175.687-.064.002-.202.078-.224.198-.06.107.146.433.286.724.312.59.052 1.586.28 1.586.363 0 .083 1.257.27 1.839.273.284.002.665.127.847.278.183.15.445.204.585.118.14-.087.313-.008.387.175.104.258.139.254.155-.015.01-.19.12-.285.24-.21.12.074.983.213 1.917.308.934.096 1.81.28 1.95.41.137.129.375.234.528.231.153-.002.11-.11-.094-.24-.24-.152.107-.22.99-.193.749.022 1.362.132 1.363.244 0 .112.317.124.702.026.556-.14.654-.1.478.194-.184.304-.15.31.191.034.228-.184.627-.254.887-.154.326.125.414.085.283-.127-.24-.388 1.871-.429 2.854-.055.46.175.725.162.851-.041.11-.18.063-.221-.123-.107-.168.104-.305.063-.305-.091s.268-.299.595-.321l1.322-.093c.4-.027.727.05.727.173 0 .335.733.273.95-.08.113-.182.074-.234-.098-.128-.158.097-.361.056-.453-.091-.099-.16.167-.27.659-.27.582 0 .77.098.637.331-.102.182.084.052.414-.289.404-.416.807-.58 1.23-.5.344.067.627.031.627-.077 0-.325 1.692-.481 2.055-.19.253.205.295.164.17-.163-.092-.239-.045-.434.104-.434.15 0 .331.149.404.33.085.212.141.177.154-.097.014-.27.338-.481.88-.572.473-.08 1.068-.227 1.323-.328.28-.11.462-.061.462.125 0 .17-.11.24-.246.157-.135-.084-.32-.03-.412.116-.347.562.59.24 1.138-.392.316-.363.784-.679 1.039-.701l.861-.075c.218-.02.484.088.59.238.113.159.197.072.2-.204.001-.263.114-.41.25-.326.135.083.32.03.412-.117a.617.617 0 0 1 .467-.27c.218 0 .214.09-.013.318-.175.174-.318.421-.318.548 0 .127.183.048.406-.176.224-.223.393-.495.377-.603-.031-.213.724-.566 1.276-.596.26-.015.272.107.05.522-.267.5-.248.515.255.2.3-.186.545-.509.545-.716 0-.208.075-.302.167-.21.092.092.397.043.678-.107.372-.199.628-.178.941.076.24.194.35.214.249.045-.209-.347.27-.571 1.865-.871.623-.118 1.123-.11 1.123.019 0 .126.238.23.53.23.29 0 .528.138.528.308 0 .17.076.232.17.139.093-.093.003-.371-.199-.617-.334-.406-.3-.43.382-.26.574.143.701.107.544-.155-.131-.218-.025-.198.293.056.274.218.416.26.317.094-.238-.398.616-.72.97-.367.15.15.398.271.55.269.153-.002.1-.12-.118-.26-.322-.209-.288-.258.185-.26.32-.003.703.203.851.458.257.44.27.44.278 0 .003-.255.201-.463.437-.463.354 0 .37.07.095.403-.184.222-.278.46-.21.528.07.07.285-.171.48-.535.194-.363.46-.66.588-.66.13 0 .152.148.05.33-.15.264-.116.264.169 0 .415-.386 1.211-.436 1.425-.09.081.131-.077.18-.351.108-.275-.071-.591.02-.703.198-.129.21-.094.261.097.143.165-.102.527-.063.805.085.41.22.531.17.642-.254.124-.472.312-.512 1.91-.405.974.065 1.838.185 1.918.266.081.081-.058.147-.309.147-.256 0-.38.124-.281.283.096.155.33.222.522.149.191-.074.419.05.505.276.117.305.246.336.504.122.251-.208.429-.207.64.003.214.214.273.159.219-.204-.055-.37-.254-.476-.775-.412-.386.047-.701-.043-.701-.199 0-.307 1.023-.381 1.695-.123.23.088.335.296.235.463-.105.176-.007.16.241-.04.443-.359 1.642-.207 2.268.288.31.244.865.349 2.253.425.291.015.404.145.289.332-.129.208-.014.26.364.161.304-.08.769.008 1.032.191.487.341.655.4 1.157.4.154 0 .201.126.105.281-.096.155-.014.256.183.223.465-.078 1.864.438 2.869 1.058.218.134.783.387 1.256.562.472.176.859.483.859.683 0 .208.27.365.629.365.346 0 .78.182.964.405.295.354.251.373-.351.144-.56-.213-.66-.19-.54.122.08.211.24.326.356.255.115-.072.277.048.36.266.084.217.282.395.44.395.159 0 .22-.111.136-.246-.084-.136-.028-.323.123-.417.152-.093.243-.018.203.168-.04.186.106.355.324.376.75.072.926.137 1.438.524.508.384.508.392 0 .789-.477.373-.463.38.2.095.66-.281.807-.217 1.924.848.709.676 1.15 1.305 1.066 1.522-.101.265.011.33.391.231.293-.076.533-.03.533.1 0 .132-.149.242-.33.244-.224.002-.205.084.059.25.245.156.45.15.552-.018.098-.159.293-.106.492.134.182.219.241.542.132.719-.137.221-.061.268.244.15.296-.113.727.118 1.3.698 1.35 1.367 1.666 1.857 1.557 2.415-.086.44-.039.468.302.185.457-.38.874.015.558.525-.12.195-.072.233.134.106.409-.253 1.075.618.875 1.141-.082.212-.039.32.095.238.134-.082.41.03.612.25.322.35.297.377-.198.22-.371-.118-.568-.068-.568.146 0 .179.078.249.173.154.094-.095.341.034.548.286.207.252.301.31.21.128-.214-.42.187-.43.603-.015.425.425.414 1.093-.014.843-.182-.107-.122.044.132.335.255.291.463.669.463.839 0 .17.133.31.295.31.18 0 .13-.253-.133-.653-.277-.423-.311-.604-.097-.515.483.202 1.553 1.96 1.372 2.254-.085.137-.021.216.14.176.32-.08 1.97 2.682 1.74 2.913-.08.078-.144.019-.144-.137 0-.154-.187-.352-.416-.44-.286-.11-.224.078.198.598.338.417.712.702.83.634.12-.068.282.126.362.431.08.306.238.555.35.555.183 0 .477.787.683 1.825.04.204.217.46.393.568.177.109.245.395.153.635s-.07.377.048.304c.118-.073.48.412.802 1.078.467.96.504 1.177.179 1.052-.225-.086-.41-.041-.41.1 0 .14.186.256.413.256.226 0 .346.106.266.236-.08.13.017.3.216.376.199.076.362.47.362.876 0 .405.134.781.297.836.164.055.298.215.298.357s-.11.19-.246.106c-.135-.084-.323-.026-.416.123-.094.152-.072.259.047.237.503-.087.88.044.88.306 0 .153-.132.198-.292.1-.21-.13-.212-.03-.01.346.155.29.2.607.1.707-.1.1-.007.114.208.03.51-.196 1.038 1.413.734 2.235-.173.467-.135.557.181.436.248-.096.399 0 .399.25 0 .223-.119.33-.264.24-.447-.275-.293.187.176.53.25.181.44.682.44 1.152 0 .457.1.83.221.83s.22.127.22.28c0 .155-.131.2-.292.1-.375-.232-.018 1 .362 1.243.145.094.178.307.074.475-.104.168-.046.478.13.689.175.21.255.622.18.914-.077.291-.042.53.077.53.264 0 .165 1.099-.144 1.612-.18.3-.148.31.169.054.326-.265.401-.198.447.396.031.393.107 1.282.171 1.976.064.694.014 1.2-.107 1.123-.123-.076-.161.1-.085.391.076.29.24.53.365.53s.112.304-.031.675c-.174.455-.17.622.01.51.327-.202.273 1.374-.07 2.07-.145.292-.137.603.02.793.331.403.264 2.633-.086 2.888-.164.119-.131.196.085.198.26.004.3.229.157.864-.107.472-.17 1.354-.142 1.96.028.606-.056 1.168-.188 1.25-.132.081-.207.45-.166.818.048.442-.1.763-.433.941-.376.202-.505.184-.505-.069zm-5.925-38.323c.117-.188.073-.233-.116-.116-.168.103-.306.042-.306-.136 0-.178-.071-.252-.158-.165-.152.151.078.723.29.723.056 0 .187-.138.29-.305zm-9.073-13.19c-.077-.296-.2-.48-.272-.407-.143.143.11.947.297.947.064 0 .053-.243-.024-.54zm-2.852-2.894c.093-.15-.014-.194-.249-.104-.458.176-.542.366-.161.366.137 0 .321-.118.41-.262zm-2.392-2.406a.295.295 0 0 0-.5.31c.085.138.267.18.405.096a.295.295 0 0 0 .095-.406zm-1.308-1.035c.09-.145.038-.264-.116-.264s-.28.119-.28.264c0 .146.052.265.116.265s.19-.119.28-.265zm-55.83-1.73c-.086-.224-.213-.351-.282-.282-.07.07-.048.253.048.408.261.422.414.34.235-.126zm49.084-2.037c.002.182.272.317.599.3.453-.027.484-.06.129-.153-.256-.067-.406-.218-.333-.336.073-.118-.223-.267-.658-.33-.553-.082-.79-.008-.79.25 0 .2.118.292.264.202.145-.09.266-.007.268.183.004.252.074.238.26-.05.172-.265.258-.287.261-.067zm-30.306-2.709c-.083-.217-.27-.321-.417-.231-.162.1-.126.251.094.39.482.306.498.298.323-.159zm22.907-.515c0-.064-.119-.19-.264-.28-.146-.09-.265-.037-.265.117s.12.28.265.28c.145 0 .264-.052.264-.117zm-19.17-.412a.615.615 0 0 0-.478-.26c-.189.002-.156.106.082.26.508.329.6.329.397 0zm12.124.063c.068-.11-.043-.43-.249-.711-.205-.281-.373-.376-.373-.211 0 .164.132.38.293.48.204.126.184.25-.066.408-.24.152-.255.229-.044.231.173.002.37-.086.439-.197zm5.556-.194c-.084-.217-.271-.32-.417-.23-.163.1-.127.25.094.39.481.305.498.297.323-.16zm-7.375-.935c-.552-.2-.918-.1-.918.252 0 .117.324.15.72.075.639-.123.661-.16.198-.327zm-111.702 51.844c0-.129-.596-.203-2.236-.278-.284-.015-.64-.126-.793-.25-.152-.126-.752-.302-1.334-.394-.582-.09-1.492-.392-2.023-.668-.531-.276-1.037-.431-1.124-.344-.087.087-.158.022-.158-.15 0-.17-.175-.309-.388-.309-.82 0-2.256-.893-2.256-1.403 0-.412-.073-.452-.375-.2-.297.245-.434.21-.653-.167-.153-.262-.282-.373-.286-.246-.005.127-.185.083-.402-.096-.216-.18-.316-.462-.222-.628.095-.165.075-.212-.043-.105-.24.216-1.72-1.216-1.72-1.662 0-.156-.12-.21-.265-.12-.146.09-.265-.022-.265-.248 0-.227-.131-.412-.292-.412-.161 0-.225-.177-.142-.394.087-.227.016-.367-.168-.33-.312.061-1.426-1.957-1.6-2.9-.049-.261-.234-.99-.413-1.618-.238-.84-.246-1.238-.032-1.497.211-.254.212-.403.005-.531-.158-.098-.21-.42-.116-.718.114-.36.073-.479-.122-.358-.397.245-.371-.189.038-.63.225-.242.23-.3.018-.18-.213.12-.306-.08-.29-.622.012-.439.13-.798.262-.798s.143-.149.026-.33c-.258-.398-.368-2.622-.122-2.472.095.058.192-.685.216-1.653.024-.967.116-2.294.204-2.948.089-.654.178-1.339.199-1.52.021-.182.167-.333.325-.335.157-.002.108-.12-.11-.26-.34-.22-.33-.257.066-.26.254-.002.462-.13.462-.285 0-.153-.099-.218-.22-.143-.121.075-.22-.042-.22-.26 0-.246.158-.342.418-.252.351.12.347.088-.025-.202-.291-.228-.365-.473-.215-.715.125-.203.169-.464.097-.58-.072-.116.01-.211.182-.211.236 0 .238-.09.009-.366-.236-.284-.204-.404.144-.537.294-.113.358-.261.187-.433-.157-.157-.182-.81-.064-1.643.109-.761.206-1.588.217-1.838.012-.292.16-.4.416-.302.218.083.396.022.396-.14s-.093-.293-.207-.293c-.113 0-.23-.294-.26-.652-.043-.514.042-.617.405-.49.374.132.398.096.128-.194-.394-.425-.423-1.287-.062-1.837.232-.353.293-.353.55 0 .242.33.263.317.132-.088-.086-.266-.157-.541-.157-.61 0-.07-.094-.069-.208.001-.114.071-.208-.092-.208-.361 0-.27.079-.442.175-.382.096.059.139-.619.096-1.506-.093-1.92.037-2.365.63-2.149.365.133.351.059-.078-.43-.428-.486-.454-.629-.15-.817.281-.174.298-.315.069-.591-.284-.342-.355-1.528-.092-1.528.066 0 .366.208.666.462.51.434.523.434.19.004-.196-.253-.284-.647-.196-.877.12-.312.039-.379-.323-.264-.49.156-.57-.022-.61-1.373-.01-.326-.116-.532-.236-.458-.12.075-.209-.22-.196-.653.012-.434.112-.734.222-.666.11.068.137-.114.061-.405-.076-.291-.25-.53-.387-.53s-.176.12-.086.265c.09.145.037.264-.117.264-.364 0-.357-.345.015-.717.313-.314.075-.966-.274-.75-.226.14-.825-1.006-.795-1.52.01-.175.12-.08.246.21.21.49.23.48.277-.132.027-.363.031-.762.01-.887-.023-.124.087-.381.245-.571.208-.25.2-.4-.032-.542-.216-.133-.248-.084-.101.154.156.252.097.304-.21.186-.318-.122-.386-.05-.266.286.088.247.067.364-.049.26-.314-.284-.395-1.53-.1-1.53.141 0 .164-.148.05-.33-.114-.182-.246-.608-.293-.948-.061-.449.01-.562.258-.412.268.16.276.122.037-.175-.234-.29-.223-.57.044-1.175.193-.436.36-.637.372-.447.03.474.55.118.55-.377 0-.218-.118-.323-.264-.233-.43.266-.301-.038.183-.43.255-.208.367-.23.26-.051-.103.172-.064.388.086.48.15.094.203.31.117.482-.086.172.032.08.261-.203.28-.344.33-.602.152-.78-.388-.388-.324-1.031.087-.874.194.075.353-.026.353-.224s-.13-.285-.287-.194c-.157.091-.062-.09.212-.402.274-.312.6-.505.724-.428.124.077.16-.03.079-.244a.505.505 0 0 1 .185-.59c.194-.12.38-.065.445.13.062.185.403-.15.758-.746.355-.595.817-1.082 1.027-1.082.21 0 .382-.105.382-.234s.312-.439.694-.689c.381-.25.612-.324.514-.164-.115.186.062.27.49.235.368-.03.73-.216.806-.412.1-.26-.025-.313-.457-.197-.542.147-.536.128.067-.225.466-.272.758-.305.992-.11.242.2.331.161.331-.145 0-.705 2.727-1.74 3.08-1.169.103.168.05.206-.13.095-.168-.104-.306-.063-.306.09 0 .373.348.356.74-.037.175-.174.318-.229.318-.122 0 .108.266-.052.59-.355.349-.325.632-.432.689-.26.056.168.238.094.437-.176.187-.256.68-.477 1.097-.49.416-.015.996-.157 1.29-.319.293-.161 1.007-.373 1.586-.471 1.385-.234 3.612-.93 4.026-1.258.181-.143.568-.198.86-.122.345.09.53.012.53-.233 0-.204.225-.372.5-.372s.57-.178.653-.396a.664.664 0 0 1 .573-.397c.23 0 .355-.105.275-.234-.08-.129.095-.297.389-.374.293-.077.516-.24.494-.36-.097-.555.056-.882.412-.882.237 0 .33-.155.237-.397-.084-.219-.008-.397.168-.397.177 0 .257-.168.178-.374a.406.406 0 0 1 .236-.521c.209-.08.38-.275.38-.434 0-.16-.147-.2-.33-.09-.226.135-.215.055.031-.248.2-.246.265-.448.146-.448-.12 0-.084-.133.08-.296.162-.163.232-.462.155-.665-.078-.202-.004-.533.163-.735.233-.28.225-.394-.036-.482-.273-.092-.276-.195-.013-.513.18-.219.25-.476.154-.572-.096-.095-.028-.173.15-.173.187 0 .24-.136.125-.322-.29-.47-.322-2.38-.049-2.917.14-.276.137-.463-.007-.463-.134 0-.3-.298-.37-.661-.07-.364-.009-.661.134-.661.164 0 .16-.123-.013-.33-.15-.182-.236-1.075-.19-1.984.045-.91-.026-1.72-.157-1.8-.13-.081-.238-.385-.238-.676 0-.353.11-.463.33-.33.255.153.262.11.03-.183-.166-.21-.31-1.155-.32-2.1-.009-.945-.095-2.105-.19-2.578-.099-.487-.066-.86.076-.86.138 0 .25-.172.25-.384 0-.212-.099-.324-.22-.25-.12.076-.22.012-.22-.143 0-.153.09-.28.198-.28.11 0 .219-.744.243-1.652.025-.909.118-2.247.207-2.974.09-.728.18-1.46.198-1.628.02-.168.206-.24.414-.16.323.124.326.06.022-.438-.313-.513-.295-.629.157-.964.282-.209.382-.38.222-.38-.17 0-.06-.466.264-1.124.305-.618.584-1.292.62-1.497.036-.205.352-.622.704-.925.351-.304.843-.948 1.092-1.432.249-.483.804-1.027 1.233-1.207.43-.18.703-.406.607-.502-.141-.141.96-.716 1.372-.716.403 0-.028.826-.836 1.6-2.898 2.778-4.33 6.697-4.444 12.159-.032 1.533-.147 2.93-.256 3.107-.108.176-.071.32.083.32.165 0 .28.628.28 1.528 0 .84.184 3.012.409 4.825.225 1.813.386 3.595.358 3.958-.028.364.043.878.156 1.143.39.915-.038 7.86-.585 9.459-.867 2.54-2.165 4.392-4.203 5.995-.804.632-3.658 2.103-4.332 2.232-.218.042-.456.15-.529.24-.22.273-4.578 1.534-4.808 1.392-.119-.073-.215-.027-.215.105 0 .197-1.791.886-2.243.863-.437-.022-4.972 2.546-5.719 3.24-.492.456-1.015.794-1.16.75-.145-.044-.18.004-.075.109.104.104-.105.689-.463 1.3-.359.612-.652 1.428-.652 1.813s-.144 1.24-.32 1.9c-.239.89-.427 1.164-.728 1.061-.261-.09-.227-.001.095.249.354.274.522.785.571 1.74.039.742.14 1.42.224 1.504.084.084.021.313-.14.509-.183.218-.194.354-.03.354.147 0 .273.328.282.728.056 2.71.022 5.444-.072 5.595-.06.098-.184 1.006-.274 2.018-.163 1.84-.226 2.238-.666 4.219-.129.581-.304 1.39-.389 1.795-.102.488-.264.672-.478.544-.25-.15-.252-.107-.009.194.288.355-.208 3.029-1.416 7.646-.095.363-.149.81-.119.991.03.182-.076.33-.236.33-.16 0-.223.112-.14.248.085.136.022.82-.14 1.52-.16.7-.324 1.511-.362 1.802-.335 2.527-.493 3.472-.617 3.679-.244.409-.233 6.027.014 7.426.434 2.45 1.815 4.878 3.884 6.83 1.036.977 2.354 1.965 2.93 2.195.574.23 1.044.525 1.044.654 0 .13.09.211.199.18.109-.03.912.22 1.784.553 3.323 1.273 6.035 1.706 10.576 1.687 2.837-.01 4.884-.157 6.214-.443 2.456-.528 4.81-1.223 5.142-1.518.38-.337.94-.268.94.117 0 .43-1.5 1.332-1.852 1.114-.145-.09-.264-.063-.264.06s-.522.416-1.16.653c-.886.328-1.24.357-1.494.123-.253-.234-.29-.232-.157.007.097.172.08.372-.038.445-.206.127-1.698.368-3.365.544-.436.046-1.02.18-1.299.296-.396.166-.457.13-.28-.164.181-.3.15-.314-.154-.068-.385.31-7.917.407-7.917.102zm-16.055-10.864c-.078-.296-.2-.48-.272-.408-.144.143.11.948.297.948.064 0 .052-.243-.025-.54zm-.687-12.994c-.084-.211-.147-.149-.16.16-.011.278.052.434.14.346.087-.088.097-.315.02-.507zM170.36 67.53c0-.105-.238-.209-.529-.231-.29-.023-.529.046-.529.152 0 .105.238.209.53.231.29.023.528-.046.528-.152zm47.7 8.117c-.104-.168-.012-.435.204-.595 1.95-1.445 4.678-3.563 5.14-3.992a39.47 39.47 0 0 1 1.544-1.322 32.772 32.772 0 0 0 1.55-1.342c.836-.797 2.736-2.227 2.959-2.227.105 0 .598-.358 1.095-.794.497-.436 1.035-.793 1.195-.793.161 0 .463-.208.672-.463.248-.302.32-.325.208-.065-.115.264-.047.244.205-.063.206-.252.436-.398.51-.324.074.074.285-.047.47-.269.183-.221.506-.403.717-.403.21 0 .568-.185.795-.411.226-.227.575-.35.774-.273.2.076.363.026.363-.117 0-.141.168-.256.374-.256s.414-.098.463-.217c.11-.27 3.717-2.042 3.988-1.96.109.03.198-.037.198-.158 0-.12.625-.506 1.388-.856.764-.351 1.448-.705 1.52-.786.074-.082.606-.37 1.184-.639s1.195-.634 1.372-.81c.176-.176 1.37-.863 2.655-1.526 1.283-.663 2.861-1.623 3.506-2.134.645-.51 1.268-.869 1.384-.797.396.245.213.874-.34 1.17-.304.162-.914.672-1.357 1.133-.442.46-.7.653-.572.428.247-.433-.248.116-1.384 1.535-.38.474-.948.927-1.264 1.006-.317.08-.69.402-.83.717-.14.314-.552.653-.916.752-.363.099-.567.192-.452.207.115.015.055.192-.132.395-.188.203-.417.323-.51.267-.094-.057-.367.198-.607.565-.24.367-.528.61-.64.542-.111-.069-.53.222-.93.647-.401.424-.81.75-.91.722-.1-.026-.587.339-1.082.812-.495.473-1.064.797-1.264.72-.22-.084-.463.12-.614.517-.28.736-.858.915-.625.193.12-.377.098-.391-.124-.078-.15.21-.218.47-.152.577.165.266-.443.616-1.08.621-.292.002-.645.27-.79.6-.298.68-.735.822-.478.154.113-.296.067-.377-.141-.249-.17.106-.31.423-.31.705s-.178.513-.396.513c-.218 0-.399.149-.4.33-.004.244-.056.25-.2.023-.146-.229-.367-.207-.856.084-.386.23-.452.328-.16.236.422-.132.449-.093.17.244-.183.22-.438.334-.567.254-.129-.08-.234-.044-.234.078 0 .123-.357.434-.792.69-.584.345-.914.398-1.256.2-.372-.216-.596-.111-1.13.529-.706.846-1.585 1.153-1.908.666-.12-.181-.196-.114-.198.176-.004.534-1.097 1.049-2.186 1.032-.4-.008-.727.106-.727.25 0 .145-.112.194-.248.11-.136-.085-.345.01-.463.21-.291.494-1.173.917-1.726.827-.25-.04-.429.023-.397.14.032.118-.061.234-.206.26-.146.026-.469.229-.718.454-.249.226-.642.338-.873.25-.23-.09-.355-.057-.275.072.139.225-2.22 1.61-2.741 1.61-.14 0-.338-.137-.442-.304zm10.733-4.72a.265.265 0 0 0-.529 0c0 .146.119.265.264.265a.265.265 0 0 0 .265-.264zm13.19-8.145c-.029-.4-.044-.398-.153.019-.067.256-.25.386-.407.29-.17-.106-.208-.053-.094.132.256.414.692.119.653-.441zm-3.804 3.122c.09-.145.216-.264.28-.264.064 0 .117.118.117.264 0 .146-.126.264-.28.264-.154 0-.207-.119-.117-.264zm-16.459-.19c-.695-.25-.268-.866 1.454-2.1 2.988-2.14 5.199-3.515 5.663-3.521.242-.003.48-.107.529-.231.048-.124 1.575-.829 3.393-1.565 3.598-1.458 7.333-2.502 7.572-2.117.082.133.107.276.056.32-.485.414-2.844 1.79-4.385 2.557-1.051.523-1.845 1.018-1.764 1.1.127.126-.97.603-1.149.498-.036-.023-.301.197-.589.484-.287.287-.946.7-1.463.916-.517.216-1.13.582-1.36.812-.23.23-.612.383-.847.337-.235-.045-.624.114-.864.354-.353.353-4.06 1.743-5.122 1.92a1.931 1.931 0 0 0-.53.2c-.145.085-.412.101-.594.037zm-25.068-.63c-.218-.351.776-1.719 1.182-1.625.158.037.258-.027.222-.138-.036-.112.19-.53.502-.927.392-.5.72-.675 1.058-.565.405.132.421.11.092-.126-.256-.185-.283-.287-.074-.29.177-.001.258-.17.18-.373-.077-.203.075-.531.34-.73 1.613-1.21 1.745-1.93 2.084-11.328.15-4.182.739-9.059 1.196-9.915.077-.145.117-.562.088-.925-.03-.364.1-1.554.288-2.644.359-2.086.388-9.86.04-11.192-.163-.63-.12-.734.278-.658.26.05.476.209.482.352.006.143.278.96.604 1.816.327.855.532 1.617.455 1.694-.077.076-.017.286.131.465.443.534.891 4.448.48 4.194-.378-.233-.252.334.148.666.274.228.353.83.298 2.274-.042 1.08.028 1.9.155 1.822.127-.078.23.11.23.418s-.11.491-.245.407c-.136-.083-.323-.026-.417.123-.093.152-.013.243.18.203.199-.041.35.157.35.456 0 .3-.151.497-.35.456-.192-.04-.273.051-.18.203.094.151.261.22.373.15.11-.068.202.043.202.249 0 .205-.1.312-.22.237-.122-.074-.221-.011-.221.144 0 .154.119.28.264.28.423 0 .306 1.323-.132 1.49-.218.084-.396.266-.396.404 0 .139.106.186.236.106s.308.037.394.262c.101.264.05.343-.145.222-.206-.127-.229-.068-.07.185.369.592.355.986-.047 1.32-.287.239-.303.397-.07.679.247.297.213.332-.175.183-.381-.146-.443-.088-.3.283.502 1.309.48 1.683-.125 2.107-.335.234-.484.426-.332.426.158 0 .227.342.161.793-.064.437-.252.795-.417.798-.165.002-.123.116.094.253.314.2.328.316.066.578-.18.18-.328.602-.328.936 0 .335-.126.608-.28.608-.154 0-.206.12-.115.267.219.354-.112 1.365-.39 1.193-.12-.074-.288.05-.374.274-.09.234-.045.34.104.248.144-.089.262-.046.262.096 0 .142-.126.3-.28.351-.154.051-.2.3-.104.551.185.483 1.441.651 1.441.193 0-.145-.134-.234-.297-.198-.669.148-.488-.655.316-1.406.651-.608.912-.72 1.077-.459.123.194.22.219.222.058.008-.504-.332-.644-.745-.306-.278.228-.251.098.088-.423.402-.618.622-.724 1.236-.601.411.082.747.033.747-.109 0-.142-.178-.258-.396-.258-.218 0-.397-.163-.397-.362 0-.205.249-.348.572-.33.314.019.62-.147.68-.365.098-.353.08-.353-.17 0-.228.322-.281.267-.285-.29-.005-1.002 1.442-2.203 1.513-1.256.028.365-.08.487-.342.387-.21-.081-.381-.03-.381.11 0 .538.72.22 1.312-.582.47-.636.514-.796.182-.669-.723.277-.491-.298.29-.722.4-.217.634-.4.52-.405-.228-.011.74-.994 3.091-3.133.849-.773 1.701-1.344 1.894-1.27.236.09.298-.007.188-.291-.11-.284-.06-.363.145-.235.182.112.31.033.31-.19 0-.21.437-.714.97-1.121.534-.407.873-.582.753-.387-.146.236-.117.29.087.164.167-.103.314-.39.326-.635.011-.246.078-.307.148-.135.09.219.398.152 1.036-.224.5-.295.846-.639.77-.764-.078-.124.12-.527.44-.895.48-.55.652-.611.985-.342.32.26.363.259.205-.004-.112-.185-.07-.33.097-.33.162 0 .23-.107.149-.237-.14-.224.473-.616 1.04-.665.146-.015.265-.176.265-.363 0-.426.682-.868 1.02-.66.138.086.171.027.074-.131-.098-.158-.056-.363.093-.454.148-.093.342.019.428.244.087.227.278.338.423.248.167-.103.144-.238-.061-.365-.427-.264-.051-.868.426-.685.201.078.338-.004.303-.18-.035-.177.095-.289.288-.249.193.04.284-.034.203-.165-.268-.433 1.86-1.69 2.535-1.5.45.127.512.103.234-.088-.314-.216-.32-.334-.036-.676.189-.227.45-.348.58-.268.13.08.311-.05.403-.289.133-.348.212-.364.39-.083.184.29.225.29.228.004.007-.546.698-1.105 1.373-1.11.494-.003.536-.053.218-.26-.337-.217-.325-.256.078-.26.26-.002.755-.271 1.099-.599 1.095-1.044 1.825-1.52 2.33-1.52.27 0 .418-.116.331-.256-.087-.142.144-.333.513-.426.37-.093.672-.274.672-.404s.179-.236.397-.236c.218 0 .396-.132.396-.293 0-.16.185-.222.41-.135.236.09.342.046.25-.103-.09-.144.07-.262.354-.262s.588-.186.675-.413c.087-.228.278-.34.425-.25.146.091.266.064.266-.058 0-.124.238-.242.529-.264 1.064-.08.43.646-2.937 3.364-1.892 1.527-3.976 3.282-4.633 3.9-.656.618-1.223 1.124-1.26 1.124-.036 0-1.098 1.021-2.36 2.269-1.262 1.248-2.295 2.198-2.295 2.112 0-.086-.566.47-1.26 1.235-.692.765-1.35 1.417-1.463 1.45-.113.03-.593.567-1.068 1.19-.474.621-1.035 1.13-1.246 1.13-.21 0-.383.126-.383.28 0 .428-2.58 3.29-2.965 3.29-.187 0-.31.107-.274.237.037.13-.515.915-1.225 1.743-.98 1.141-1.35 1.42-1.535 1.15-.18-.263-.222-.221-.161.162.045.284-.157.782-.449 1.109l-1.124 1.26c-.328.366-.595.782-.595.925 0 .142-.238.425-.527.628-.29.203-.456.44-.369.528.254.253-6.945 7.329-7.456 7.329-.254 0-.39.071-.303.158.235.235-2.422 2.64-3.742 3.388-.235.133-.486.323-.56.42-.072.099-.37.25-.66.336a30.91 30.91 0 0 0-1.586.56c-1.254.477-2.673.542-2.925.135zm7.732-9.012c-.084-.211-.147-.148-.16.16-.012.278.051.434.139.346.088-.087.097-.315.02-.506zm1.736-2.241a1.024 1.024 0 0 0-.66 0c-.183.073-.034.133.33.133.363 0 .512-.06.33-.133zm-.72-3.74c-.081-.081-.295 0-.474.18-.26.262-.229.292.148.149.26-.1.408-.247.326-.329zm.919-3.268c0-.121-.112-.22-.25-.22-.136 0-.31.099-.384.22-.075.122.037.22.249.22.211 0 .385-.098.385-.22zm6.182-.895c.09-.235.046-.341-.104-.249-.144.089-.262.274-.262.41 0 .38.19.297.366-.161zm1.287-.294c-.538-.217-.377-.596.205-.484.295.057.473 0 .396-.124-.163-.264-.646-.224-1.158.097-.302.188-.302.26 0 .45.197.126.478.22.623.211.146-.011.116-.077-.066-.15zm.727-1.411c0-.145-.052-.264-.117-.264-.064 0-.19.118-.28.264-.09.145-.037.264.117.264s.28-.119.28-.264zm46.006-.26c0-.165-.117-.228-.26-.14-.158.098-.208-.13-.126-.579.535-2.927.627-6.65.35-14.202-.104-2.834.188-3.477.915-2.019.221.444.292.807.159.807-.135 0-.244.138-.244.308 0 .17.072.236.16.148.42-.42 1.77 3.121 1.81 4.744.006.315.102.662.21.77.28.28.248 1.169-.043 1.169-.132 0-.185.487-.117 1.082.071.62.021 1.019-.118.933-.133-.083-.201.174-.152.57.12.952-.149 2.215-.433 2.04-.124-.078-.19.19-.145.592.088.814-.08 1.446-.341 1.284-.094-.057-.188.179-.208.525-.038.626-1.417 2.542-1.417 1.968zm2.749-9.479c.075-.121-.032-.22-.237-.22-.206 0-.312.099-.238.22.075.121.182.22.238.22.055 0 .162-.099.237-.22zm-43.203 4.45c.219-.14.516-.255.661-.255.146 0 .086.115-.132.256-.218.14-.515.256-.66.256-.146 0-.087-.115.131-.256z"
       id="bunny" />
  </defs>
  <use
     id="use9"
     style="fill:#f9eced"
     xlink:href="#bunny" />
  <!-- Red circle which will be moved along the motion path. -->
  <circle
     id="circle11"
     fill="#f9eced"
     r="6"
     cy=""
     cx="">
    <!-- Define the motion path animation -->
    <animateMotion
       repeatCount="indefinite"
       dur="24s">
      <mpath
         xlink:href="#bunny" />
    </animateMotion>
  </circle>
  <!-- Red circle which will be moved along the motion path. -->
  <circle
     id="circle13"
     fill="#9f353a"
     r="5"
     cy=""
     cx="">
    <!-- Define the motion path animation -->
    <animateMotion
       repeatCount="indefinite"
       dur="24s">
      <mpath
         xlink:href="#bunny" />
    </animateMotion>
  </circle>
  <text
     id="text15"
     style="font-size:36px; writing-mode:tb; fill:none; stroke:#f9eced;"
     y="-50"
     x="30">
				♪作業一♪
			  <animateMotion
   repeatCount="indefinite"
   dur="24s">
  <mpath
     xlink:href="#bunny" />
</animateMotion>
</text>
</svg>
