<?xml version="1.0" encoding="UTF-8" standalone="no"?>
<svg
   viewBox="0 0 23.672689 13.867687"
   version="1.1"
   id="svg5"
   sodipodi:docname="colab.svg"
   width="23.672689"
   height="13.867687"
   inkscape:version="1.3 (0e150ed6c4, 2023-07-21)"
   xmlns:inkscape="http://www.inkscape.org/namespaces/inkscape"
   xmlns:sodipodi="http://sodipodi.sourceforge.net/DTD/sodipodi-0.dtd"
   xmlns="http://www.w3.org/2000/svg"
   xmlns:svg="http://www.w3.org/2000/svg">
  <defs
     id="defs5" />
  <sodipodi:namedview
     id="namedview5"
     pagecolor="#ffffff"
     bordercolor="#000000"
     borderopacity="0.25"
     inkscape:showpageshadow="2"
     inkscape:pageopacity="0.0"
     inkscape:pagecheckerboard="0"
     inkscape:deskcolor="#d1d1d1"
     inkscape:zoom="32.541667"
     inkscape:cx="11.846351"
     inkscape:cy="6.9449424"
     inkscape:window-width="1546"
     inkscape:window-height="1020"
     inkscape:window-x="395"
     inkscape:window-y="56"
     inkscape:window-maximized="0"
     inkscape:current-layer="colab-logo" />
  <!--?lit$452026811$-->
  <g
     id="colab-logo"
     transform="translate(-0.16549437,-5.0654954)">
    <path
       d="M 4.54,9.46 2.19,7.1 a 6.93,6.93 0 0 0 0,9.79 L 4.55,14.53 A 3.59,3.59 0 0 1 4.54,9.46 Z"
       id="path1"
       style="fill:#e8710a;fill-opacity:1.0" />
    <path
       d="m 2.19,7.1 2.35,2.36 a 3.59,3.59 0 0 1 5.08,0 l 1.71,-2.93 v 0 l -0.1,-0.08 v 0 A 6.93,6.93 0 0 0 2.19,7.1 Z"
       id="path2"
       style="fill:#f9ab00;fill-opacity:1.0" />
    <path
       d="m 11.34,17.46 v 0 L 9.62,14.54 a 3.59,3.59 0 0 1 -5.08,0 L 2.19,16.9 a 6.93,6.93 0 0 0 9,0.65 l 0.11,-0.09"
       id="path3"
       style="fill:#f9ab00;fill-opacity:1.0" />
    <path
       d="m 12,7.1 a 6.93,6.93 0 0 0 0,9.79 l 2.36,-2.36 A 3.5921024,3.5921024 0 1 1 19.44,9.45 L 21.81,7.1 A 6.93,6.93 0 0 0 12,7.1 Z"
       id="path4"
       style="fill:#f9ab00;fill-opacity:1.0" />
    <path
       d="m 21.81,7.1 -2.35,2.36 a 3.5921024,3.5921024 0 0 1 -5.08,5.08 L 12,16.9 a 6.9331829,6.9331829 0 0 0 9.81,-9.8 z"
       id="path5"
       style="fill:#e8710a;fill-opacity:1.0" />
  </g>
</svg>
