<?xml version="1.0" encoding="UTF-8" standalone="no"?>
<svg
   xmlns:dc="http://purl.org/dc/elements/1.1/"
   xmlns:cc="http://creativecommons.org/ns#"
   xmlns:rdf="http://www.w3.org/1999/02/22-rdf-syntax-ns#"
   xmlns:svg="http://www.w3.org/2000/svg"
   xmlns="http://www.w3.org/2000/svg"
   width="1015.9999mm"
   height="423.33334mm"
   viewBox="0 0 1015.9999 423.33335"
   version="1.1"
   id="svg8">
  <defs
     id="defs2">
    <rect
       x="-232.99725"
       y="31.066301"
       width="695.10852"
       height="333.96274"
       id="rect1081" />
    <rect
       x="-119.08748"
       y="80.254608"
       width="6.472146"
       height="12.944292"
       id="rect924" />
    <rect
       x="287.40408"
       y="-108.00536"
       width="12.814195"
       height="18.305992"
       id="rect874" />
  </defs>
  <metadata
     id="metadata5">
    <rdf:RDF>
      <cc:Work
         rdf:about="">
        <dc:format>image/svg+xml</dc:format>
        <dc:type
           rdf:resource="http://purl.org/dc/dcmitype/StillImage" />
        <dc:title></dc:title>
      </cc:Work>
    </rdf:RDF>
  </metadata>
  <path
     d="M 3.5792799,3.5792799 H 1012.4206 V 419.75408 H 3.5792799 Z"
     style="fill:#ffe6e6;fill-opacity:0.5;stroke:#9f353a;stroke-width:7.15856;stroke-linecap:square;stroke-linejoin:round;stroke-miterlimit:4;stroke-dasharray:none;stroke-opacity:1;paint-order:markers fill stroke"
     id="rect1056" />
  <g
     id="layer1"
     transform="translate(324.29327,-12.176042)">
    <g
       style="font-size:25.4px;line-height:1.25;font-family:'Courier New';-inkscape-font-specification:'Courier New';stroke-width:0.264583"
       id="text835">
      <path
         id="path969"
         style="font-size:90.3111px"
         d="m 210.70472,182.91288 v 12.61181 h 20.81389 v -12.61181 z m 0,-0.88194 h 20.81389 v -11.72986 h -20.81389 z m 0,28.13402 q 12.61181,-2.11666 20.81389,-4.93889 v -8.73125 h -20.81389 z m 19.93195,-3.61597 q -11.28889,3.52778 -24.87083,5.20347 l -0.0882,-0.97014 q 1.05833,-0.0882 4.14514,-0.52916 v -40.92222 h 8.64305 q 1.76389,-6.79097 2.55764,-11.37708 l 0.88195,0.17639 q -0.79375,5.29166 -2.46945,11.20069 h 12.96458 v 34.39583 q 2.82223,-4.14514 4.7625,-8.02569 l 0.88195,0.52916 q -1.85209,3.52778 -5.64445,9.34861 v 22.93055 q 0,5.73264 -0.79375,7.14375 -0.79375,1.49931 -4.14513,1.49931 -2.38125,0 -9.17222,-0.52917 l 0.0882,-0.88194 q 6.87917,0.44097 9.08403,0.44097 2.91041,0 3.43958,-1.14653 0.61736,-1.05833 0.61736,-6.52639 v -21.60763 q -10.67153,14.64027 -24.69444,24.87083 l -0.52917,-0.70556 q 13.93472,-10.05416 24.34167,-24.51805 z m -46.56666,26.8993 h 18.07985 v -19.40277 h -18.07985 z m 0,0.97014 v 4.49792 h -0.88195 v -25.75278 h 19.84375 v 21.25486 z m 79.02221,-59.17846 v 0.88194 h -5.37986 v 51.50555 q 0,6.43819 -0.79375,7.9375 -0.79375,1.5875 -4.40973,1.5875 -3.52777,0 -9.78958,-0.52917 l 0.0882,-0.88194 q 6.17361,0.44097 9.87777,0.44097 2.91042,0 3.43959,-1.23472 0.61736,-1.23473 0.61736,-7.32014 v -51.50555 h -20.72569 v -0.88194 h 20.72569 v -15.34583 h 0.97014 v 15.34583 z m -23.19514,12.78819 0.70556,-0.35278 q 5.73263,13.40556 9.34861,26.28194 l -1.05834,0.35278 q -3.43958,-13.49375 -8.99583,-26.28194 z m -56.70902,-24.07708 v -0.88194 h 19.84375 v 0.88194 z m -1.41111,12.17083 v -0.88194 h 22.66597 v 0.88194 z m 1.85208,12.7 v -0.97014 h 18.96181 v 0.97014 z m 0,12.6118 v -0.88194 h 18.96181 v 0.88194 z" />
      <path
         id="path971"
         style="font-size:90.3111px"
         d="m 282.495,192.87885 h 28.92777 V 178.85594 H 282.495 Z m 28.92777,15.78681 V 193.7608 H 282.495 v 14.90486 z m 0.88194,0 h 28.92778 V 193.7608 h -28.92778 z m -0.88194,0.61736 Q 298.37,224.36426 272.70542,235.91774 l -0.35278,-0.79375 q 24.69444,-11.02431 37.57083,-25.57639 h -26.9875 -1.32292 v -31.57361 h 29.80972 v -9.08402 h -38.89374 v -0.88195 h 38.89374 v -8.99583 h 0.88194 v 8.99583 h 38.89375 v 0.88195 h -38.89375 v 9.08402 h 29.80972 v 31.57361 h -28.31041 q 12.87639,14.55208 37.57083,25.57639 l -0.35278,0.79375 q -25.66458,-11.55348 -38.71736,-26.63472 v 29.19235 h -0.88194 z m 29.80972,-16.40417 v -14.02291 h -28.92778 v 14.02291 z" />
      <path
         id="path973"
         style="font-size:90.3111px"
         d="m 369.19011,184.76497 v 53.7104 h -0.88195 v -50.97638 q -4.85069,10.05417 -9.26041,16.58056 l -0.79375,-0.52917 q 12.25902,-18.16805 17.63888,-43.74444 l 0.88195,0.17639 q -2.64583,12.87639 -7.58472,24.78264 z m 42.06874,-12.25903 h 30.69166 v 17.63889 h -0.97014 v -16.66875 h -29.72152 v 22.1368 h -0.97014 v -22.1368 h -29.80972 v 16.66875 h -0.88194 v -17.63889 h 30.69166 v -8.99583 h -28.4868 v -0.88195 h 57.85555 v 0.88195 h -28.39861 z m -24.87083,9.08403 v -0.97014 h 17.63889 v 0.97014 z m 0,9.4368 v -0.88194 h 17.63889 v 0.88194 z m 31.13263,-9.4368 v -0.97014 h 17.63889 v 0.97014 z m 0,9.4368 v -0.88194 h 17.63889 v 0.88194 z m -38.36457,9.08403 v -0.97014 h 63.2354 v 0.97014 h -30.86805 q -1.5875,4.93888 -3.96875,8.99583 h 32.10278 v 21.69583 q 0,3.88055 -0.79375,4.85069 -0.70556,0.97014 -4.14514,0.97014 -2.91042,0 -8.29028,-0.44097 l 0.0882,-0.88195 q 5.20347,0.44098 8.20208,0.44098 2.91041,0 3.43958,-0.70556 0.61736,-0.61736 0.61736,-4.23333 v -20.81389 h -18.07986 v 25.3118 h -0.88194 v -25.3118 h -18.07986 v 25.3118 h -0.88194 v -25.3118 h -18.07986 v 27.16389 h -0.97014 v -28.04583 h 24.60625 q 2.64583,-4.23333 4.14513,-8.99583 z" />
    </g>
  </g>
  <g
     style="font-size:10.5833px;line-height:1.25;font-family:'Courier New';-inkscape-font-specification:'Courier New';stroke-width:0.264583"
     id="text844" />
  <g
     style="font-size:33.8667px;line-height:1.25;font-family:'Courier New';-inkscape-font-specification:'Courier New';stroke-width:0.264583"
     id="text850">
    <path
       id="path943"
       style="font-style:normal;font-variant:normal;font-weight:normal;font-stretch:normal;font-size:33.8667px;font-family:'Chogokuboso Gothic';-inkscape-font-specification:'Chogokuboso Gothic';fill:#9f353a;fill-opacity:1;stroke-width:0.264583"
       d="m 520.56592,237.52729 h 0.33073 v 24.40784 h -0.33073 v -13.19611 h -14.55209 v 13.19611 h -0.36381 v -24.40784 h 0.36381 v 10.84793 h 14.55209 z" />
    <path
       id="path945"
       style="font-style:normal;font-variant:normal;font-weight:normal;font-stretch:normal;font-size:33.8667px;font-family:'Chogokuboso Gothic';-inkscape-font-specification:'Chogokuboso Gothic';fill:#9f353a;fill-opacity:1;stroke-width:0.264583"
       d="m 526.5852,248.54059 q 0,-1.91824 1.52136,-3.07579 1.52135,-1.15755 4.06797,-1.15755 2.84427,0 5.42396,0.95911 v 0.42995 q -2.64583,-1.02526 -5.42396,-1.02526 -2.4474,0 -3.86954,1.02526 -1.38906,1.02526 -1.38906,2.84428 0,1.5875 1.12448,2.61276 1.15755,1.02526 4.16719,1.62057 3.07579,0.62839 4.46485,1.81902 1.42214,1.15755 1.42214,3.10885 0,2.11667 -1.5875,3.34037 -1.58751,1.2237 -4.33256,1.2237 -2.97657,0 -5.58933,-1.28985 v -0.3638 q 2.54662,1.32292 5.58933,1.32292 2.57969,0 4.06797,-1.12448 1.52136,-1.15755 1.52136,-3.10886 0,-1.5875 -1.15756,-2.74505 -1.15755,-1.19063 -4.46484,-1.81901 -3.04272,-0.62839 -4.29949,-1.65365 -1.25677,-1.05834 -1.25677,-2.94349 z" />
    <path
       id="path947"
       style="font-style:normal;font-variant:normal;font-weight:normal;font-stretch:normal;font-size:33.8667px;font-family:'Chogokuboso Gothic';-inkscape-font-specification:'Chogokuboso Gothic';fill:#9f353a;fill-opacity:1;stroke-width:0.264583"
       d="m 545.10605,261.93513 v -17.26408 h 0.3638 v 17.26408 z m 0,-22.02658 v -3.04272 h 0.3638 v 3.04272 z" />
    <path
       id="path949"
       style="font-style:normal;font-variant:normal;font-weight:normal;font-stretch:normal;font-size:33.8667px;font-family:'Chogokuboso Gothic';-inkscape-font-specification:'Chogokuboso Gothic';fill:#9f353a;fill-opacity:1;stroke-width:0.264583"
       d="m 559.62508,261.93513 q 2.8112,0 5.06016,-0.99219 v 0.39688 q -2.38125,0.92604 -5.06016,0.92604 -7.80522,0 -7.80522,-8.96277 0,-2.14974 0.46302,-3.80339 0.46302,-1.65365 1.15755,-2.61276 0.69454,-0.95912 1.68673,-1.52136 0.99218,-0.59531 1.9513,-0.82682 0.95911,-0.23151 2.01745,-0.23151 6.61459,0 6.61459,8.66511 v 0.16537 h -13.52684 q 0,8.7974 7.44142,8.7974 z m -7.44142,-9.16121 h 13.19611 q -0.13229,-8.10287 -6.28386,-8.10287 -6.64766,0 -6.91225,8.10287 z" />
    <path
       id="path951"
       style="font-style:normal;font-variant:normal;font-weight:normal;font-stretch:normal;font-size:33.8667px;font-family:'Chogokuboso Gothic';-inkscape-font-specification:'Chogokuboso Gothic';fill:#9f353a;fill-opacity:1;stroke-width:0.264583"
       d="m 571.06832,248.30907 h 0.33073 q 0.99219,-1.65364 2.74505,-2.8112 1.75287,-1.19062 3.50573,-1.19062 2.97657,0 4.26641,1.65365 1.32292,1.65364 1.32292,5.65547 v 10.31876 h -0.33073 v -10.31876 q 0,-4.06797 -1.28984,-5.49011 -1.25677,-1.45521 -3.96876,-1.45521 -2.21588,0 -4.3987,1.91823 -2.18281,1.88516 -2.18281,3.6711 v 11.67475 h -0.36381 v -25.0693 h 0.36381 z" />
    <path
       id="path953"
       style="font-style:normal;font-variant:normal;font-weight:normal;font-stretch:normal;font-size:33.8667px;font-family:'Chogokuboso Gothic';-inkscape-font-specification:'Chogokuboso Gothic';fill:#9f353a;fill-opacity:1;stroke-width:0.264583"
       d="m 613.69935,237.52729 v 0.36381 h -8.13595 v 24.04403 h -0.3638 V 237.8911 h -8.10287 v -0.36381 z" />
    <path
       id="path955"
       style="font-style:normal;font-variant:normal;font-weight:normal;font-stretch:normal;font-size:33.8667px;font-family:'Chogokuboso Gothic';-inkscape-font-specification:'Chogokuboso Gothic';fill:#9f353a;fill-opacity:1;stroke-width:0.264583"
       d="m 619.18945,255.65127 q 0,3.60495 1.28985,4.96094 1.28984,1.32292 3.80339,1.32292 2.28203,0 4.43177,-1.85209 2.14975,-1.85208 2.14975,-3.73724 v -11.67475 h 0.3638 v 17.26408 h -0.3638 v -3.57188 h -0.33073 q -0.95912,1.68672 -2.74506,2.8112 -1.75287,1.09141 -3.50573,1.09141 -2.8112,0 -4.13412,-1.52136 -1.28984,-1.52135 -1.28984,-5.09323 v -10.98022 h 0.33072 z" />
    <path
       id="path957"
       style="font-style:normal;font-variant:normal;font-weight:normal;font-stretch:normal;font-size:33.8667px;font-family:'Chogokuboso Gothic';-inkscape-font-specification:'Chogokuboso Gothic';fill:#9f353a;fill-opacity:1;stroke-width:0.264583"
       d="m 637.41266,248.20986 h 0.33073 q 0.99219,-1.65365 2.74505,-2.77813 1.78594,-1.12448 3.53881,-1.12448 2.97656,0 4.26641,1.65365 1.32292,1.65364 1.32292,5.65547 v 10.31876 h -0.33073 v -10.31876 q 0,-4.06797 -1.28985,-5.49011 -1.25677,-1.45521 -3.96875,-1.45521 -2.31511,0 -4.46485,1.85209 -2.14974,1.81901 -2.14974,3.73724 v 11.67475 h -0.33073 v -17.26408 h 0.33073 z" />
    <path
       id="path959"
       style="font-style:normal;font-variant:normal;font-weight:normal;font-stretch:normal;font-size:33.8667px;font-family:'Chogokuboso Gothic';-inkscape-font-specification:'Chogokuboso Gothic';fill:#9f353a;fill-opacity:1;stroke-width:0.264583"
       d="m 661.02673,259.91768 q -3.60495,0 -5.19245,-0.72761 -1.5875,-0.76067 -1.5875,-2.34817 0,-1.28985 1.35599,-2.41433 -1.85209,-1.65365 -1.85209,-4.16719 0,-2.64584 1.7198,-4.29948 1.75286,-1.65365 4.53099,-1.65365 4.56407,0 6.28386,3.27422 h 0.33073 v -2.91042 h 0.33073 v 5.58933 q 0,2.57969 -1.78594,4.10104 -1.75287,1.48829 -4.79558,1.48829 -2.64583,0 -4.49792,-1.2237 -1.25677,0.99219 -1.25677,2.21589 0,0.59531 0.23151,1.02526 0.23151,0.39687 0.8599,0.85989 0.66145,0.42995 2.01745,0.62839 1.35599,0.19844 3.30729,0.19844 6.61459,0 6.61459,4.7625 0,2.38125 -2.0836,3.90261 -2.05052,1.52136 -5.55625,1.52136 -3.40651,0 -6.25079,-1.42214 v -0.3638 q 2.57969,1.42213 6.25079,1.42213 3.34037,0 5.29167,-1.38906 1.98438,-1.35599 1.98438,-3.6711 0,-0.85989 -0.23151,-1.52135 -0.19844,-0.66146 -0.79375,-1.35599 -0.59532,-0.72761 -1.91823,-1.12448 -1.32292,-0.39688 -3.3073,-0.39688 z m -0.66146,-4.43178 q 2.87735,0 4.56407,-1.38906 1.68672,-1.42214 1.68672,-3.83646 0,-2.54662 -1.81901,-4.06797 -1.81902,-1.52136 -4.79558,-1.52136 -2.57969,0 -4.26641,1.55443 -1.65365,1.55443 -1.65365,4.0349 0,2.4474 1.65365,3.83646 1.68672,1.38906 4.63021,1.38906 z" />
    <path
       id="path961"
       style="font-style:normal;font-variant:normal;font-weight:normal;font-stretch:normal;font-size:33.8667px;font-family:'Chogokuboso Gothic';-inkscape-font-specification:'Chogokuboso Gothic';fill:#9f353a;fill-opacity:1;stroke-width:0.264583"
       d="m 672.30461,252.807 v -0.36381 h 9.1612 v 0.36381 z" />
    <path
       id="path963"
       style="font-style:normal;font-variant:normal;font-weight:normal;font-stretch:normal;font-size:33.8667px;font-family:'Chogokuboso Gothic';-inkscape-font-specification:'Chogokuboso Gothic';fill:#9f353a;fill-opacity:1;stroke-width:0.264583"
       d="m 698.49839,237.52729 h 0.33073 v 16.43726 q 0,4.29948 -1.7198,6.31693 -1.71979,1.98438 -5.22552,1.98438 -3.00964,0 -5.58933,-0.92604 v -0.39688 q 2.51354,0.99219 5.58933,0.99219 3.40651,0 4.99401,-1.91823 1.62058,-1.95131 1.62058,-6.05235 z" />
    <path
       id="path965"
       style="font-style:normal;font-variant:normal;font-weight:normal;font-stretch:normal;font-size:33.8667px;font-family:'Chogokuboso Gothic';-inkscape-font-specification:'Chogokuboso Gothic';fill:#9f353a;fill-opacity:1;stroke-width:0.264583"
       d="m 704.8484,255.65127 q 0,3.60495 1.28984,4.96094 1.28985,1.32292 3.80339,1.32292 2.28204,0 4.43178,-1.85209 2.14974,-1.85208 2.14974,-3.73724 v -11.67475 h 0.3638 v 17.26408 h -0.3638 v -3.57188 h -0.33073 q -0.95912,1.68672 -2.74506,2.8112 -1.75286,1.09141 -3.50573,1.09141 -2.8112,0 -4.13412,-1.52136 -1.28984,-1.52135 -1.28984,-5.09323 v -10.98022 h 0.33073 z" />
  </g>
  <a href="https://www.boca.gov.tw/sp-natr-singleform-1.html">
  <g
     style="font-size:69.1444px;line-height:1.25;font-family:'Trajan Pro';-inkscape-font-specification:'Trajan Pro';stroke-width:0.264583"
     id="text858">
    <path
       id="path918"
       style="font-size:69.1444px;fill:#9f353a;fill-opacity:1;stroke-width:0.264583"
       d="m 134.86422,40.959912 8.71219,0.138289 c 6.63787,0.138288 8.29733,1.72861 8.50477,3.802942 l 0.0691,0.760588 c 0.0691,0.968022 0.20743,1.175455 0.55315,1.175455 0.27658,0 0.48402,-0.276578 0.48402,-0.898877 0,-0.760589 0.20743,-5.531552 0.20743,-7.605885 0,-0.414866 0,-0.829732 -0.34572,-0.829732 -0.27658,0 -0.89888,0.207433 -1.93605,0.345722 -1.10631,0.207433 -2.69663,0.345722 -4.90925,0.345722 h -25.92915 c -0.82973,0 -3.45722,-0.138289 -5.46241,-0.345722 -1.8669,-0.138289 -2.55834,-0.829733 -3.04235,-0.829733 -0.27658,0 -0.55316,0.898877 -0.69144,1.313743 -0.13829,0.553156 -1.52118,6.499574 -1.52118,7.191018 0,0.414867 0.13829,0.6223 0.34572,0.6223 0.27658,0 0.48401,-0.138289 0.69144,-0.691444 0.20744,-0.484011 0.41487,-0.968022 1.17546,-2.143477 1.10631,-1.659465 2.76578,-2.143476 7.05273,-2.21262 l 10.23337,-0.138289 v 29.248082 c 0,6.637862 0,12.10027 -0.34572,15.004335 -0.27658,2.005187 -0.6223,3.526364 -2.00519,3.802942 -0.6223,0.138289 -1.45203,0.276577 -2.07433,0.276577 -0.41487,0 -0.55316,0.207434 -0.55316,0.414867 0,0.414866 0.34572,0.553155 1.10631,0.553155 2.07434,0 6.43043,-0.207433 6.77615,-0.207433 0.34573,0 4.70182,0.207433 8.50477,0.207433 0.76058,0 1.10631,-0.207433 1.10631,-0.553155 0,-0.207433 -0.13829,-0.414867 -0.55316,-0.414867 -0.6223,0 -2.14348,-0.138288 -3.1115,-0.276577 -2.07433,-0.276578 -2.4892,-1.797755 -2.69663,-3.802942 -0.34572,-2.904065 -0.34572,-8.366473 -0.34572,-15.004335 z" />
    <path
       id="path920"
       style="font-size:69.1444px;fill:#9f353a;fill-opacity:1;stroke-width:0.264583"
       d="m 163.24151,71.452593 c 0,8.573906 2.35091,12.653425 5.32412,15.419201 4.28695,4.010376 10.64824,4.148664 12.65343,4.148664 3.59551,0 8.29732,-0.48401 12.72257,-4.286952 4.8401,-4.148665 5.66984,-11.270538 5.66984,-17.631823 v -6.29214 c 0,-9.127061 -0.0692,-10.786527 0.0691,-12.653426 0.13829,-1.936043 0.48401,-2.904065 2.14348,-3.249787 0.76059,-0.138289 1.10631,-0.138289 1.52117,-0.138289 0.27658,0 0.48402,-0.276577 0.48402,-0.48401 0,-0.345722 -0.27658,-0.484011 -0.96803,-0.484011 -1.79775,0 -4.70182,0.138289 -5.11668,0.138289 -0.34572,0 -3.87209,-0.138289 -6.56872,-0.138289 -0.69144,0 -0.96802,0.138289 -0.96802,0.484011 0,0.207433 0.20743,0.48401 0.48401,0.48401 0.55315,0 1.59032,0.06915 2.07433,0.138289 2.00519,0.276578 2.35091,1.382888 2.42006,3.249787 0.0691,1.866899 0.13828,3.526365 0.13828,12.653426 v 7.398451 c 0,6.015563 -0.6223,10.855671 -3.45722,14.243746 -2.07433,2.489199 -5.66984,4.148664 -9.40363,4.148664 -3.45722,0 -6.08471,-0.48401 -9.05792,-3.180642 -2.62749,-2.35091 -4.49439,-5.877274 -4.49439,-14.382036 v -8.228183 c 0,-9.127061 0,-10.786527 0.13829,-12.653426 0.13829,-1.936043 0.48401,-2.973209 2.07433,-3.249787 0.76059,-0.138289 1.10631,-0.138289 1.52118,-0.138289 0.27658,0 0.55316,-0.276577 0.55316,-0.48401 0,-0.345722 -0.34573,-0.484011 -1.03717,-0.484011 -1.79775,0 -5.6007,0.138289 -6.15385,0.138289 -0.55316,0 -4.21781,-0.138289 -6.98359,-0.138289 -0.69144,0 -0.96802,0.138289 -0.96802,0.484011 0,0.207433 0.27658,0.48401 0.48401,0.48401 0.55316,0 1.59032,0.06915 2.07433,0.138289 2.00519,0.276578 2.35091,1.382888 2.4892,3.249787 0.13829,1.866899 0.13829,3.526365 0.13829,12.653426 z" />
    <path
       id="path922"
       style="font-size:69.1444px;fill:#9f353a;fill-opacity:1;stroke-width:0.264583"
       d="m 218.86278,54.512214 c 1.8669,2.074332 8.71219,9.26535 15.76492,16.663801 6.43043,6.707007 15.21177,15.350057 15.83407,15.903213 3.38807,3.111498 4.01037,3.595508 4.63267,3.595508 0.41487,0 0.48401,-0.345722 0.48401,-4.217808 l 0.13829,-34.433912 c 0,-3.526365 0.13829,-4.701819 2.14348,-5.116686 0.69144,-0.138289 1.17545,-0.138289 1.45203,-0.138289 0.41487,0 0.69145,-0.345722 0.69145,-0.553155 0,-0.345722 -0.48402,-0.414866 -1.10631,-0.414866 -2.4892,0 -4.49439,0.138289 -5.18583,0.138289 -0.69145,0 -3.59551,-0.138289 -6.36129,-0.138289 -0.69144,0 -1.17545,0.06914 -1.17545,0.414866 0,0.207433 0.0691,0.553155 0.48401,0.553155 0.48401,0 1.8669,0.06915 2.97321,0.276578 1.86689,0.345722 2.21262,1.659466 2.28176,5.462408 l 0.6223,29.455515 c -1.8669,-1.936043 -8.36647,-8.919628 -14.38204,-15.142624 -9.40363,-9.680216 -18.25412,-19.083855 -19.22214,-20.051877 -0.6223,-0.622299 -1.65946,-1.797754 -2.35091,-1.797754 -0.48401,0 -0.82973,0.6223 -0.82973,2.973209 V 81.61682 c 0,5.324119 -0.20743,6.91444 -1.72861,7.329306 -0.89888,0.276578 -2.00519,0.345722 -2.4892,0.345722 -0.27658,0 -0.48401,0.207434 -0.48401,0.484011 0,0.414867 0.34572,0.484011 0.96802,0.484011 2.76578,0 5.32412,-0.207433 5.87728,-0.207433 0.55315,0 2.9732,0.207433 6.43042,0.207433 0.69145,0 1.10632,-0.138289 1.10632,-0.484011 0,-0.276577 -0.20744,-0.484011 -0.48402,-0.484011 -0.55315,0 -1.93604,-0.06914 -3.04235,-0.345722 -1.65947,-0.414866 -2.21262,-1.866898 -2.35091,-6.707007 z" />
    <path
       id="path924"
       style="font-size:69.1444px;fill:#9f353a;fill-opacity:1;stroke-width:0.264583"
       d="m 302.34168,85.419762 c 0,1.10631 -0.48401,1.382888 -1.2446,1.797754 -1.59032,0.898878 -4.42524,1.106311 -6.56872,1.106311 -5.6007,0 -10.71738,-1.659466 -15.55749,-6.153852 -2.14348,-2.005188 -6.43043,-7.951606 -6.43043,-16.248934 0,-6.845296 2.4892,-12.100271 6.01556,-14.796902 4.63268,-3.526365 9.05792,-3.802942 12.72257,-3.802942 7.88246,0 12.51514,2.350909 14.03632,4.56353 0.96802,1.382888 1.31374,3.111498 1.38288,3.872087 0,0.553155 0.0692,0.898877 0.41487,0.898877 0.41487,0 0.69144,-0.276578 0.69144,-1.244599 0,-5.877274 0.34573,-7.467596 0.34573,-8.297329 0,-0.276577 -0.13829,-0.553155 -0.76059,-0.553155 -1.52118,0 -3.66466,-0.345722 -4.90925,-0.622299 -1.17546,-0.276578 -5.46241,-0.968022 -9.3345,-0.968022 -4.63267,0 -10.71738,0.414866 -16.17979,3.733798 -5.39326,3.249787 -10.16423,9.887649 -10.16423,19.291288 0,7.329306 3.52637,13.621447 7.26017,16.732945 6.77615,5.738985 15.4192,6.29214 20.05187,6.29214 3.52637,0 9.05792,-0.622299 12.93001,-2.627487 0.76058,-0.414866 0.82973,-0.484011 0.82973,-3.180642 v -6.568718 c 0,-2.489199 0,-4.217809 0.0691,-6.084708 0.13829,-2.074332 0.6223,-2.973209 2.28177,-3.249787 0.69144,-0.138288 1.10631,-0.138288 1.52118,-0.138288 0.20743,0 0.48401,-0.276578 0.48401,-0.484011 0,-0.414867 -0.27658,-0.484011 -0.96803,-0.484011 -1.86689,0 -5.66984,0.138289 -5.94641,0.138289 -0.34573,0 -4.42525,-0.138289 -7.19102,-0.138289 -0.69145,0 -0.96802,0.06914 -0.96802,0.484011 0,0.207433 0.27657,0.484011 0.48401,0.484011 0.55315,0 1.59032,0.06914 2.07433,0.138288 2.4892,0.484011 2.62749,1.175455 2.62749,5.946419 z" />
    <path
       id="path926"
       style="font-size:69.1444px;fill:#9f353a;fill-opacity:1;stroke-width:0.264583"
       d="m 320.57959,68.617672 c -1.10631,0 -1.38289,0.06915 -1.52117,0.553156 l -1.03717,3.872086 c -0.13829,0.6223 -0.0691,1.037166 0.34572,1.037166 0.34572,0 1.52118,-0.691444 2.83492,-1.037166 2.35091,-0.6223 14.58947,-2.281765 16.45637,-2.558343 1.10631,-0.207433 2.42005,-0.345722 2.42005,-1.175455 0,-0.553155 -0.89887,-0.691444 -2.07433,-0.691444 z" />
    <path
       id="path928"
       style="font-size:69.1444px;fill:#9f353a;fill-opacity:1;stroke-width:0.264583"
       d="m 360.65742,58.038579 c 0,-10.786527 0,-12.72257 0.13829,-14.935191 0.13829,-2.420054 0.69144,-3.595509 2.55834,-3.941231 0.82974,-0.138289 1.2446,-0.207433 1.72861,-0.207433 0.27658,0 0.55316,-0.138289 0.55316,-0.414866 0,-0.414867 -0.34572,-0.553156 -1.10631,-0.553156 -2.07433,0 -6.43043,0.207434 -6.77615,0.207434 -0.34573,0 -4.70182,-0.207434 -7.81332,-0.207434 -0.76059,0 -1.10631,0.138289 -1.10631,0.553156 0,0.276577 0.27658,0.414866 0.55315,0.414866 0.6223,0 1.79776,0.06914 2.35091,0.207433 2.28177,0.484011 2.83492,1.590322 2.97321,3.941231 0.13829,2.212621 0.13829,4.148664 0.13829,14.935191 v 19.982732 c 0,17.839256 -2.14348,21.503909 -6.63786,26.067439 -0.6223,0.6223 -1.59032,1.45203 -2.42006,1.93604 -0.62229,0.41487 -0.96802,0.6223 -0.96802,1.03717 0,0.27658 0.27658,0.41487 0.48401,0.41487 0.20744,0 0.34573,-0.0692 0.48401,-0.13829 0.69145,-0.34572 1.79776,-1.10631 2.69664,-1.72861 5.60069,-3.87209 8.64305,-7.121876 10.09508,-10.579096 2.07433,-4.909253 2.07433,-9.196206 2.07433,-20.397599 z" />
    <path
       id="path930"
       style="font-size:69.1444px;fill:#9f353a;fill-opacity:1;stroke-width:0.264583"
       d="m 378.77757,71.452593 c 0,8.573906 2.35091,12.653425 5.32412,15.419201 4.28695,4.010376 10.64824,4.148664 12.65342,4.148664 3.59551,0 8.29733,-0.48401 12.72257,-4.286952 4.84011,-4.148665 5.66984,-11.270538 5.66984,-17.631823 v -6.29214 c 0,-9.127061 -0.0691,-10.786527 0.0692,-12.653426 0.13829,-1.936043 0.48401,-2.904065 2.14347,-3.249787 0.76059,-0.138289 1.10631,-0.138289 1.52118,-0.138289 0.27658,0 0.48401,-0.276577 0.48401,-0.48401 0,-0.345722 -0.27658,-0.484011 -0.96802,-0.484011 -1.79775,0 -4.70182,0.138289 -5.11669,0.138289 -0.34572,0 -3.87208,-0.138289 -6.56871,-0.138289 -0.69145,0 -0.96802,0.138289 -0.96802,0.484011 0,0.207433 0.20743,0.48401 0.48401,0.48401 0.55315,0 1.59032,0.06915 2.07433,0.138289 2.00519,0.276578 2.35091,1.382888 2.42005,3.249787 0.0691,1.866899 0.13829,3.526365 0.13829,12.653426 v 7.398451 c 0,6.015563 -0.6223,10.855671 -3.45722,14.243746 -2.07433,2.489199 -5.66984,4.148664 -9.40364,4.148664 -3.45722,0 -6.08471,-0.48401 -9.05791,-3.180642 -2.62749,-2.35091 -4.49439,-5.877274 -4.49439,-14.382036 v -8.228183 c 0,-9.127061 0,-10.786527 0.13829,-12.653426 0.13829,-1.936043 0.48401,-2.973209 2.07433,-3.249787 0.76059,-0.138289 1.10631,-0.138289 1.52118,-0.138289 0.27657,0 0.55315,-0.276577 0.55315,-0.48401 0,-0.345722 -0.34572,-0.484011 -1.03716,-0.484011 -1.79776,0 -5.6007,0.138289 -6.15386,0.138289 -0.55315,0 -4.2178,-0.138289 -6.98358,-0.138289 -0.69144,0 -0.96802,0.138289 -0.96802,0.484011 0,0.207433 0.27658,0.48401 0.48401,0.48401 0.55315,0 1.59032,0.06915 2.07433,0.138289 2.00519,0.276578 2.35091,1.382888 2.4892,3.249787 0.13829,1.866899 0.13829,3.526365 0.13829,12.653426 z" />
    <path
       id="path932"
       style="font-size:69.1444px;fill:#9f353a;fill-opacity:1;stroke-width:0.264583"
       d="m 498.3034,58.038579 c 0,-10.786527 0,-12.72257 0.13829,-14.935191 0.13828,-2.420054 0.69144,-3.595509 2.55834,-3.941231 0.82973,-0.138289 1.2446,-0.207433 1.72861,-0.207433 0.27658,0 0.55315,-0.138289 0.55315,-0.414866 0,-0.414867 -0.34572,-0.553156 -1.10631,-0.553156 -2.07433,0 -6.43043,0.207434 -6.77615,0.207434 -0.34572,0 -4.70182,-0.207434 -7.81331,-0.207434 -0.76059,0 -1.10632,0.138289 -1.10632,0.553156 0,0.276577 0.27658,0.414866 0.55316,0.414866 0.6223,0 1.79775,0.06914 2.35091,0.207433 2.28176,0.484011 2.83492,1.590322 2.97321,3.941231 0.13829,2.212621 0.13829,4.148664 0.13829,14.935191 v 1.452032 c 0,0.345722 -0.20744,0.414867 -0.41487,0.414867 h -29.31723 c -0.20743,0 -0.41486,-0.06914 -0.41486,-0.414867 v -1.452032 c 0,-10.786527 0,-12.72257 0.13829,-14.935191 0.13829,-2.420054 0.69144,-3.595509 2.55834,-3.941231 0.82973,-0.138289 1.2446,-0.207433 1.72861,-0.207433 0.27658,0 0.55316,-0.138289 0.55316,-0.414866 0,-0.414867 -0.34573,-0.553156 -1.10632,-0.553156 -2.07433,0 -6.43042,0.207434 -6.77615,0.207434 -0.34572,0 -4.70182,-0.207434 -7.81331,-0.207434 -0.76059,0 -1.10631,0.138289 -1.10631,0.553156 0,0.276577 0.27657,0.414866 0.55315,0.414866 0.6223,0 1.79776,0.06914 2.35091,0.207433 2.28177,0.484011 2.83492,1.590322 2.97321,3.941231 0.13829,2.212621 0.13829,4.148664 0.13829,14.935191 v 12.169415 c 0,6.637862 0,12.10027 -0.34572,15.004335 -0.27658,2.005187 -0.6223,3.526364 -2.00519,3.802942 -0.6223,0.138289 -1.45203,0.276577 -2.07433,0.276577 -0.41487,0 -0.55316,0.207434 -0.55316,0.414867 0,0.414866 0.34572,0.553155 1.10631,0.553155 2.07433,0 6.43043,-0.207433 6.77615,-0.207433 0.34573,0 4.70182,0.207433 8.50477,0.207433 0.76058,0 1.10631,-0.207433 1.10631,-0.553155 0,-0.207433 -0.13829,-0.414867 -0.55316,-0.414867 -0.6223,0 -2.14348,-0.138288 -3.1115,-0.276577 -2.07433,-0.276578 -2.4892,-1.797755 -2.69663,-3.802942 -0.34572,-2.904065 -0.34572,-8.366473 -0.34572,-15.004335 v -7.260163 c 0,-0.345722 0.20743,-0.414866 0.41486,-0.414866 h 29.31723 c 0.20743,0 0.41487,0.138289 0.41487,0.414866 v 7.260163 c 0,6.637862 0,12.10027 -0.34572,15.004335 -0.27658,2.005187 -0.6223,3.526364 -2.00519,3.802942 -0.6223,0.138289 -1.45203,0.276577 -2.07433,0.276577 -0.41487,0 -0.55316,0.207434 -0.55316,0.414867 0,0.414866 0.34572,0.553155 1.10631,0.553155 2.07433,0 6.43043,-0.207433 6.77615,-0.207433 0.34572,0 4.70182,0.207433 8.50476,0.207433 0.76059,0 1.10631,-0.207433 1.10631,-0.553155 0,-0.207433 -0.13828,-0.414867 -0.55315,-0.414867 -0.6223,0 -2.14348,-0.138288 -3.1115,-0.276577 -2.07433,-0.276578 -2.4892,-1.797755 -2.69663,-3.802942 -0.34572,-2.904065 -0.34572,-8.366473 -0.34572,-15.004335 z" />
    <path
       id="path934"
       style="font-size:69.1444px;fill:#9f353a;fill-opacity:1;stroke-width:0.264583"
       d="m 525.12711,91.020458 c 3.31893,0 7.12187,-0.414866 9.68021,-2.074332 4.3561,-2.83492 5.66984,-6.568718 5.66984,-10.025938 0,-5.047541 -2.55834,-9.127061 -9.95679,-14.174602 l -1.72861,-1.175455 c -6.01556,-4.07952 -7.88246,-6.222996 -7.88246,-9.956794 0,-4.148664 3.66465,-6.361285 8.08989,-6.361285 5.46241,0 7.4676,2.212621 7.88246,2.904065 0.34573,0.6223 0.82974,2.212621 0.89888,2.904065 0.0692,0.484011 0.13829,0.760588 0.55316,0.760588 0.41486,0 0.48401,-0.414866 0.48401,-1.313743 0,-4.010376 0.27658,-5.946419 0.27658,-6.222996 0,-0.345722 -0.13829,-0.414867 -0.6223,-0.414867 -0.48402,0 -0.96803,0 -2.14348,-0.276577 -1.45203,-0.345722 -3.87209,-0.691444 -6.29214,-0.691444 -8.02075,0 -13.48316,4.148664 -13.48316,11.063104 0,4.07952 2.14348,7.675028 8.71219,12.584281 l 2.76578,2.074332 c 5.39326,4.010375 7.67503,6.015563 7.67503,10.233371 0,4.425242 -3.1115,7.813318 -9.12706,7.813318 -4.07952,0 -8.64305,-1.521177 -9.61107,-5.80813 -0.20744,-0.829733 -0.20744,-1.659466 -0.20744,-2.143476 0,-0.484011 -0.20743,-0.691444 -0.55315,-0.691444 -0.34572,0 -0.48401,0.345722 -0.48401,0.968021 -0.0692,0.968022 -0.34572,3.318931 -0.34572,6.222996 0,1.590322 0.0691,1.797755 0.89887,2.212621 2.4892,1.175455 6.01557,1.590321 8.85049,1.590321 z" />
    <path
       id="path936"
       style="font-size:69.1444px;fill:#9f353a;fill-opacity:1;stroke-width:0.264583"
       d="m 561.76715,62.809543 c 0,-9.127061 0,-10.786527 0.0691,-12.653426 0.13829,-2.074332 0.48401,-2.904065 2.14348,-3.249787 0.69144,-0.138289 1.10631,-0.138289 1.52117,-0.138289 0.20744,0 0.48401,-0.276577 0.48401,-0.48401 0,-0.345722 -0.27657,-0.484011 -0.96802,-0.484011 -1.8669,0 -5.80813,0.138289 -6.0847,0.138289 -0.34573,0 -4.14867,-0.138289 -6.15386,-0.138289 -0.69144,0 -0.96802,0.138289 -0.96802,0.484011 0,0.207433 0.20744,0.48401 0.48401,0.48401 0.41487,0 1.17546,0.06915 1.8669,0.207434 1.31375,0.276577 1.79776,1.175454 1.93604,3.180642 0.13829,1.866899 0.13829,3.526365 0.13829,12.653426 v 10.37166 c 0,5.669841 -0.0691,10.302516 -0.34572,12.72257 -0.20743,1.72861 -0.41486,2.83492 -1.59032,3.111498 -0.55315,0.138289 -1.31374,0.276577 -1.8669,0.276577 -0.34572,0 -0.48401,0.276578 -0.48401,0.484011 0,0.345722 0.34572,0.484011 0.96802,0.484011 1.8669,0 5.66984,-0.207433 6.01557,-0.207433 0.27657,0 4.2178,0.207433 7.60588,0.207433 0.69144,0 0.96802,-0.207433 0.96802,-0.484011 0,-0.207433 -0.13829,-0.484011 -0.48401,-0.484011 -0.55315,0 -1.8669,-0.138288 -2.76578,-0.276577 -1.79775,-0.276578 -2.00518,-1.382888 -2.21262,-3.111498 -0.27657,-2.420054 -0.27657,-7.052729 -0.27657,-12.72257 z" />
    <path
       id="path938"
       style="font-size:69.1444px;fill:#9f353a;fill-opacity:1;stroke-width:0.264583"
       d="m 581.75961,73.181203 c 0,5.669841 0,10.302516 -0.34572,12.72257 -0.27658,1.72861 -0.41487,2.904065 -1.59032,3.111498 -0.55316,0.06914 -1.31375,0.276577 -1.8669,0.276577 -0.34572,0 -0.48401,0.276578 -0.48401,0.484011 0,0.345722 0.34572,0.484011 0.96802,0.484011 0.96802,0 2.35091,-0.06914 3.52636,-0.138289 1.31375,-0.06914 2.4892,-0.06914 2.62749,-0.06914 0.89888,0 2.4892,0 5.04754,0.138289 2.4892,0.06914 6.01557,0.207433 10.5791,0.207433 2.35091,0 2.97321,0 3.38807,-1.521177 0.34572,-1.244599 0.82973,-5.254975 0.82973,-5.669841 0,-0.414866 -0.0691,-0.898877 -0.41486,-0.898877 -0.34572,0 -0.48401,0.207433 -0.6223,0.898877 -0.34572,2.35091 -1.17546,3.388076 -2.76578,4.07952 -1.59032,0.622299 -4.49438,0.622299 -6.0847,0.622299 -6.01557,0 -7.12188,-0.760588 -7.26017,-4.701819 -0.0691,-1.175455 0,-8.020751 0,-10.025938 V 68.27195 c 0,-0.207433 0.0692,-0.414866 0.41487,-0.414866 1.03717,0 7.53674,0.06914 9.1962,0.276578 2.35091,0.276577 2.90407,0.968021 3.1115,1.797754 0.27658,0.760588 0.27658,1.382888 0.27658,1.936043 0,0.345722 0.13829,0.553155 0.41487,0.553155 0.41486,0 0.55315,-0.622299 0.55315,-1.10631 0,-0.414866 0.13829,-2.627487 0.27658,-3.802942 0.13829,-1.936043 0.48401,-2.904065 0.48401,-3.249787 0,-0.345722 -0.13829,-0.484011 -0.34572,-0.484011 -0.20743,0 -0.48401,0.345722 -0.89888,0.760589 -0.6223,0.622299 -1.52118,0.691444 -2.97321,0.829732 -1.38289,0.138289 -9.40364,0.138289 -10.16422,0.138289 -0.34573,0 -0.34573,-0.207433 -0.34573,-0.622299 V 48.911518 c 0,-0.414867 0.0692,-0.6223 0.34573,-0.6223 0.69144,0 7.74417,0.06914 8.78133,0.207433 3.31894,0.414867 3.94123,0.829733 4.3561,1.797755 0.27658,0.691444 0.34572,1.659466 0.34572,2.074332 0,0.484011 0.13829,0.760588 0.48401,0.760588 0.27658,0 0.48401,-0.345722 0.55316,-0.622299 0.13829,-0.691444 0.27658,-3.318931 0.34572,-3.872087 0.13829,-1.659465 0.48401,-2.350909 0.48401,-2.765776 0,-0.276577 -0.0691,-0.553155 -0.27658,-0.553155 -0.27657,0 -0.55315,0.207433 -0.82973,0.276578 -0.48401,0.06914 -1.59032,0.276577 -2.76577,0.345722 -1.38289,0.06914 -14.10546,0 -14.52033,0 -0.34572,0 -4.28695,-0.138289 -7.05273,-0.138289 -0.69144,0 -0.96802,0.138289 -0.96802,0.484011 0,0.207433 0.27658,0.48401 0.48401,0.48401 0.55316,0 1.59032,0.06915 2.07433,0.138289 2.00519,0.276578 2.35091,1.244599 2.4892,3.249787 0.13829,1.866899 0.13829,3.526365 0.13829,12.653426 z" />
    <path
       id="path940"
       style="font-size:69.1444px;fill:#9f353a;fill-opacity:1;stroke-width:0.264583"
       d="m 656.97359,62.809543 c 0,-9.127061 0,-10.786527 0.13829,-12.653426 0.13829,-2.074332 0.48401,-2.904065 2.07433,-3.249787 0.76059,-0.138289 1.10631,-0.138289 1.52118,-0.138289 0.27657,0 0.55315,-0.276577 0.55315,-0.48401 0,-0.345722 -0.34572,-0.484011 -1.03716,-0.484011 -1.79776,0 -5.66984,0.138289 -6.01557,0.138289 -0.27657,0 -4.2178,-0.138289 -6.91444,-0.138289 -0.69144,0 -0.96802,0.138289 -0.96802,0.484011 0,0.207433 0.20743,0.48401 0.48401,0.48401 0.55316,0 1.59032,0.06915 2.07433,0.138289 2.00519,0.276578 2.28177,1.244599 2.42006,3.249787 0.0691,1.866899 0.13829,3.664653 0.13829,12.791714 v 1.2446 c 0,0.345722 -0.13829,0.345722 -0.34572,0.345722 h -25.376 c -0.20743,0 -0.34572,0 -0.34572,-0.345722 v -1.2446 c 0,-9.127061 0,-10.924815 0.0691,-12.791714 0.13829,-2.074332 0.48401,-2.904065 2.14348,-3.249787 0.69144,-0.138289 1.10631,-0.138289 1.52118,-0.138289 0.20743,0 0.48401,-0.276577 0.48401,-0.48401 0,-0.345722 -0.27658,-0.484011 -0.96803,-0.484011 -1.86689,0 -5.73898,0.138289 -6.01556,0.138289 -0.34572,0 -4.21781,-0.138289 -6.98358,-0.138289 -0.69145,0 -0.96802,0.138289 -0.96802,0.484011 0,0.207433 0.27657,0.48401 0.48401,0.48401 0.55315,0 1.59032,0.06915 2.07433,0.138289 2.00519,0.276578 2.35091,1.244599 2.4892,3.249787 0.13829,1.866899 0.13829,3.526365 0.13829,12.653426 v 10.37166 c 0,5.669841 0,10.302516 -0.34573,12.72257 -0.27657,1.72861 -0.41486,2.83492 -1.59032,3.111498 -0.55315,0.138289 -1.31374,0.276577 -1.8669,0.276577 -0.34572,0 -0.48401,0.276578 -0.48401,0.484011 0,0.345722 0.34573,0.484011 0.96802,0.484011 1.8669,0 5.73899,-0.207433 6.08471,-0.207433 0.27658,0 4.14867,0.207433 7.53674,0.207433 0.69145,0 0.96802,-0.207433 0.96802,-0.484011 0,-0.207433 -0.13829,-0.484011 -0.48401,-0.484011 -0.55315,0 -1.8669,-0.138288 -2.76577,-0.276577 -1.79776,-0.276578 -2.00519,-1.382888 -2.21262,-3.111498 -0.27658,-2.420054 -0.27658,-6.91444 -0.27658,-12.584281 v -5.877274 c 0,-0.276578 0.13829,-0.345722 0.34572,-0.345722 h 25.376 c 0.20743,0 0.34572,0.06914 0.34572,0.345722 v 5.877274 c 0,5.669841 0,10.095082 -0.27658,12.515136 -0.20743,1.72861 -0.41487,2.904065 -1.65947,3.180643 -0.55315,0.138289 -1.24459,0.276577 -1.79775,0.276577 -0.34572,0 -0.48401,0.276578 -0.48401,0.484011 0,0.345722 0.27658,0.484011 0.96802,0.484011 1.79776,0 5.73899,-0.207433 6.01556,-0.207433 0.34573,0 4.21781,0.207433 7.53674,0.207433 0.69145,0 1.03717,-0.207433 1.03717,-0.484011 0,-0.207433 -0.13829,-0.484011 -0.55316,-0.484011 -0.48401,0 -1.86689,-0.138288 -2.69663,-0.276577 -1.8669,-0.276578 -2.00519,-1.382888 -2.21262,-3.111498 -0.27658,-2.420054 -0.34572,-7.052729 -0.34572,-12.72257 z" />
  </g>
  </a>
  <g
     style="font-size:35.2778px;line-height:1.25;font-family:'Trajan Pro';-inkscape-font-specification:'Trajan Pro';stroke-width:0.264583"
     id="text866">
    <path
       id="path905"
       style="font-style:normal;font-variant:normal;font-weight:normal;font-stretch:normal;font-size:35.2778px;font-family:'Chogokuboso Gothic';-inkscape-font-specification:'Chogokuboso Gothic';fill:#9f353a;fill-opacity:1;stroke-width:0.264583"
       d="m 507.54181,136.12869 q 11.26547,-1.03353 17.05323,-5.99447 5.82222,-4.99539 7.61367,-15.19288 l 0.37896,0.0689 q -1.8259,10.19749 -7.82037,15.36514 -5.96002,5.13319 -17.19104,6.09782 z m -1.41249,-16.53647 0.0689,-0.37896 q 4.58198,0.82682 10.92096,2.06706 l -0.0689,0.34451 q -6.33898,-1.20578 -10.92096,-2.03261 z m 1.41249,-8.81945 0.0689,-0.37896 q 5.89112,0.93018 11.64443,2.06706 l -0.0689,0.34451 q -7.2347,-1.37804 -11.64443,-2.03261 z" />
    <path
       id="path907"
       style="font-style:normal;font-variant:normal;font-weight:normal;font-stretch:normal;font-size:35.2778px;font-family:'Chogokuboso Gothic';-inkscape-font-specification:'Chogokuboso Gothic';fill:#9f353a;fill-opacity:1;stroke-width:0.264583"
       d="m 552.91375,137.16222 -0.37896,0.0689 -2.85943,-15.26178 -7.85483,1.72255 -0.0689,-0.37896 7.85482,-1.6881 -1.24023,-6.61459 0.37896,-0.0689 1.24024,6.61459 14.84837,-3.23839 0.10335,0.48231 q -0.44786,3.13504 -2.23931,5.99447 -1.757,2.85943 -4.06522,4.44418 l -0.17225,-0.27561 q 2.23931,-1.41249 3.89296,-4.16857 1.68809,-2.75608 2.20486,-6.06337 l -14.50386,3.16949 z" />
    <path
       id="path909"
       style="font-style:normal;font-variant:normal;font-weight:normal;font-stretch:normal;font-size:35.2778px;font-family:'Chogokuboso Gothic';-inkscape-font-specification:'Chogokuboso Gothic';fill:#9f353a;fill-opacity:1;stroke-width:0.264583"
       d="m 628.91261,126.20681 -0.13781,0.34451 q -10.02523,-3.89296 -20.05047,-6.20118 v 16.84653 h -0.34451 v -27.87084 h 0.34451 v 10.6109 q 10.12859,2.37712 20.18828,6.27008 z" />
    <path
       id="path911"
       style="font-style:normal;font-variant:normal;font-weight:normal;font-stretch:normal;font-size:35.2778px;font-family:'Chogokuboso Gothic';-inkscape-font-specification:'Chogokuboso Gothic';fill:#9f353a;fill-opacity:1;stroke-width:0.264583"
       d="m 663.39804,114.25232 h -24.32239 v 9.54292 h -0.37896 v -9.88743 h 12.02339 v -5.99447 h 0.34451 v 5.99447 H 663.777 v 4.75424 q 0,8.06152 -5.02984,12.81576 -4.99539,4.71978 -14.02155,5.37435 l -0.0689,-0.37896 q 8.81945,-0.62012 13.78039,-5.271 4.96094,-4.68533 4.96094,-12.54015 z" />
    <path
       id="path913"
       style="font-style:normal;font-variant:normal;font-weight:normal;font-stretch:normal;font-size:35.2778px;font-family:'Chogokuboso Gothic';-inkscape-font-specification:'Chogokuboso Gothic';fill:#9f353a;fill-opacity:1;stroke-width:0.264583"
       d="m 702.43099,136.4732 q 11.26547,-1.03353 17.08769,-5.99447 5.82221,-4.99539 7.61366,-15.19288 l 0.37896,0.0689 q -1.8259,10.19749 -7.82037,15.36514 -5.96002,5.13319 -17.19104,6.13227 z m 19.05139,-28.83547 0.31006,-0.24115 q 1.6192,2.37711 3.06614,5.02984 l -0.34451,0.17225 q -1.34359,-2.37711 -3.03169,-4.96094 z m 4.27192,-0.72347 0.27561,-0.2067 q 1.79145,2.75607 3.16949,5.16764 l -0.34451,0.17226 q -1.34359,-2.44602 -3.10059,-5.1332 z m -24.7358,13.02247 0.0689,-0.34451 q 4.58198,0.82683 10.95542,2.03261 l -0.0689,0.37896 q -6.37343,-1.24024 -10.95541,-2.06706 z m 1.41249,-8.81945 0.0689,-0.34451 q 5.89112,0.93018 11.67889,2.03261 l -0.10336,0.37896 q -7.2347,-1.41249 -11.64443,-2.06706 z" />
    <path
       id="path915"
       style="font-style:normal;font-variant:normal;font-weight:normal;font-stretch:normal;font-size:35.2778px;font-family:'Chogokuboso Gothic';-inkscape-font-specification:'Chogokuboso Gothic';fill:#9f353a;fill-opacity:1;stroke-width:0.264583"
       d="m 753.7974,134.6473 1.65365,-17.12214 h -14.88283 v -0.37896 h 15.26179 l -1.6881,17.5011 h 6.13227 v 0.34451 h -22.80654 v -0.34451 z" />
  </g>
  <a href="https://www.boca.gov.tw/sp-natr-singleform-1.html">
  <g
     style="font-size:50.8px;line-height:1.25;font-family:'Trajan Pro';-inkscape-font-specification:'Trajan Pro';stroke-width:0.264583"
     id="text870">
    <path
       id="path896"
       style="font-style:normal;font-variant:normal;font-weight:normal;font-stretch:normal;font-size:270.933px;font-family:aoyagireisyosimo2;-inkscape-font-specification:aoyagireisyosimo2;fill:#23353a;fill-opacity:1"
       d="m 206.58136,358.23216 q -4.23333,-1.85208 -6.34999,-5.02708 -2.11666,-3.17499 -3.175,-6.34999 -1.05833,-3.175 -1.32291,-6.61458 -0.26458,-3.70416 -0.26458,-7.14374 2.38124,-6.61457 3.17499,-14.81665 0.79375,-8.20207 0.52917,-16.13956 -0.26459,-7.93749 -0.52917,-16.13957 0,-8.46665 0,-16.40414 l -4.49791,0.26458 -29.36871,15.08123 -6.61458,9.78957 -6.08541,1.5875 v 3.43958 l -21.16664,8.20207 0.26458,3.175 -21.69581,6.61458 -4.23332,-1.5875 -6.61458,-14.28748 h -2.116664 q 12.699984,-1.5875 24.341634,-5.82083 11.64166,-4.23333 22.22498,-9.26041 10.8479,-5.29166 21.16664,-11.90623 10.58332,-6.61458 19.04998,-14.81665 l 2.11666,-4.7625 -12.96457,-1.32291 -21.16664,1.85208 -12.17082,-37.57079 q -1.85208,-1.5875 -4.23333,-2.11666 -2.11666,-0.79375 -2.11666,-3.175 0,-2.64583 -0.26458,-5.02708 0,-2.64583 0,-4.23333 l 4.23332,-6.61457 57.94369,-8.73124 -0.52917,-11.11249 h -6.34999 l -3.96875,4.49791 -38.8937,2.38125 -1.85208,-4.76249 8.20207,-13.22915 38.09996,-3.70417 q 1.85208,-3.17499 3.17499,-7.14374 1.32292,-4.23333 1.05833,-8.99582 -0.26458,-5.02708 2.64583,-8.20207 3.175,-3.43958 5.29167,-6.87916 h 6.0854 l 3.96875,1.85208 5.29166,25.66455 44.97911,4.23333 0.26459,8.46666 -2.38125,2.91041 -34.39579,0.52917 -8.20208,-1.32292 -4.23332,12.96457 73.02491,5.55624 5.02708,17.72706 -10.05416,37.83538 h -6.61457 l 0.26458,4.76249 -6.34999,1.85208 -6.35,-1.5875 -0.26458,-3.17499 -17.1979,0.26458 v -1.5875 l -23.54788,0.26458 0.26458,3.175 q 6.61457,6.61458 13.22915,11.11249 6.61458,4.49791 12.17082,11.11249 5.55624,6.61457 12.96457,12.17081 7.40832,5.55625 15.87498,8.73124 9.2604,1.32292 16.66873,2.91042 7.40832,1.5875 16.93331,2.38124 9.78957,0.52917 18.25623,0.52917 8.46666,-0.26458 17.1979,-0.26458 l 4.23333,-1.5875 2.11666,2.91041 -2.11666,5.29166 6.0854,-0.26458 0.79375,2.91041 -6.61457,13.49374 q -6.34999,1.5875 -10.58332,4.23333 -3.96875,2.38124 -10.58332,4.23332 -6.35,1.5875 -11.64166,1.85208 -5.29166,0 -11.64165,1.5875 l -23.54789,-4.76249 v -3.175 q -4.49791,0 -6.61457,-0.52916 -1.85209,-0.79375 -5.29166,-1.5875 -3.175,-0.79375 -4.49792,-3.175 -1.32291,-2.64583 -5.29166,-2.64583 v -6.61457 h -4.49791 l -33.33746,-38.36454 -10.31874,-1.32292 q 0.26459,11.64166 0.26459,22.22498 0.26458,10.31873 0.52916,21.6958 0.52917,11.37707 0.52917,21.69581 0.26458,10.05416 -5.82083,19.84373 z m 95.77906,-26.72289 -6.61458,-1.32291 v 3.17499 h 4.23333 z m -8.73124,-1.32291 -1.85208,-4.7625 h -10.84791 v 3.43958 h 1.85208 v 1.32292 h 2.38125 v 1.5875 h 6.61458 z m -17.1979,-6.34999 -2.38125,-1.5875 -1.5875,1.85208 1.85209,1.32291 z m 31.74996,-5.29166 -2.11666,-1.85209 -1.85208,3.43958 h 1.85208 z m -8.46665,-1.85209 -2.11667,-1.32291 -2.11666,3.175 h 2.11666 z m 2.11666,-2.91041 -2.11666,-1.85208 -2.11667,3.43958 h 2.11667 z m 10.58332,-5.02708 -2.38125,-1.32291 -2.11666,1.32291 2.64583,1.5875 z m 16.66873,-1.58749 -16.66873,-1.85209 v 3.43958 h 14.81665 z m -35.98329,-6.35 -2.11666,-1.32291 -2.38125,1.5875 2.38125,1.58749 z m -105.83321,-47.09577 -1.85208,-1.5875 -2.11666,3.17499 h 2.11666 z m 80.43324,-2.64583 -1.85208,-1.5875 -2.11666,1.5875 2.38124,1.58749 z m -84.66657,-0.52917 -2.64583,-1.5875 -1.85208,1.5875 2.38125,1.5875 z m 6.35,-1.5875 -2.38125,-1.85208 -1.85208,1.85208 1.85208,1.5875 z m 1.85208,-1.85208 -1.85208,-1.5875 -2.38125,1.5875 2.38125,1.85208 z m 51.3291,-2.38125 -2.38124,-1.5875 -1.85208,3.175 h 1.85208 z m -53.18118,-0.79375 -8.99583,-2.11666 v 3.70416 h 6.61458 z m 3.96874,0 -2.11666,-2.11666 -1.85208,2.11666 1.85208,1.5875 z m 19.04998,-0.26458 -2.11667,-2.11666 -2.38124,2.11666 2.38124,1.5875 z m 34.13121,-0.52917 -2.11667,-2.11666 -1.85208,2.11666 1.85208,1.5875 z m -25.66455,-1.85208 -2.11667,-1.58749 -1.85208,1.58749 1.85208,2.11667 z m 17.46248,-0.26458 -2.38125,-1.5875 -2.38125,1.85208 2.38125,1.85208 z m 10.8479,0 -2.64583,-1.5875 -2.11667,1.5875 2.11667,2.11666 z m -36.77704,-1.05833 -2.11667,-1.5875 -2.38124,1.5875 2.38124,1.5875 z m 15.08123,-0.26458 -2.38125,-1.5875 -1.85208,3.17499 h 1.85208 z m 23.54789,-0.26459 -1.85208,-1.5875 -2.64583,1.5875 2.64583,1.5875 z m 10.58332,-0.26458 -2.11666,-1.32292 -2.11667,2.91042 h 2.11667 z m -65.61659,1.05833 -0.52916,-16.13956 h -4.49792 l -6.34999,1.5875 -2.11666,-1.5875 -2.38125,1.5875 -12.69998,-1.32292 -3.96875,3.175 -2.11666,14.55206 23.81247,-0.26458 z m 42.33329,-2.38125 -8.73124,-1.32291 v 4.76249 h 3.96874 z m 20.90205,-3.43958 1.85208,-1.58749 -1.85208,-3.175 h 6.35 v -7.93749 q -2.38125,-1.85208 -4.49792,-4.23333 -2.11666,-2.38125 -4.49791,-4.76249 -2.38124,-2.64583 -2.64583,-5.82083 0,-3.43958 -1.85208,-4.49791 l -40.74578,-2.91041 -1.5875,10.05415 34.13121,-0.52917 -4.23333,1.32292 v 3.43958 h 4.23333 v 6.34999 -3.17499 h -4.23333 v 1.58749 h -2.11666 v 1.5875 l -17.46248,0.26458 v -1.58749 h -1.85208 v -1.5875 l -4.49792,0.26458 q 0,1.5875 -1.85208,3.96875 -1.85208,2.38124 -1.85208,5.02707 0,2.38125 0,4.7625 0,2.38125 0.26458,5.55624 l 8.46666,2.91042 q 4.49791,-3.175 9.52499,-3.175 5.29166,0 10.58332,0 5.29166,-0.26458 10.58332,-0.26458 5.29166,-0.26459 9.78957,-1.85209 z m -72.49574,-11.64165 -2.38125,-1.85208 0.26458,4.7625 z m 4.23332,0 -2.38124,-1.85208 -1.85208,1.85208 2.38124,1.32292 z m -8.73124,-3.43958 -2.38124,-1.5875 -2.11667,1.5875 2.11667,1.5875 z m 12.96457,0 -2.64583,-1.5875 -1.85208,1.5875 1.85208,1.5875 z m 40.21662,-0.79375 -2.38125,-1.32291 -2.11666,1.5875 2.11666,1.58749 z m -48.94786,-0.79375 v -4.76249 h -6.61457 v 4.76249 z m 46.56661,-2.11666 v -3.175 l -6.34999,-1.85208 v -1.32291 h -8.46665 v 4.76249 l 12.69998,3.175 z m 6.61458,-0.26458 -2.11666,-3.175 -4.49792,0.26458 v 4.7625 l 4.49792,-0.26458 z m -47.09578,-2.38125 2.38125,-13.22915 h -13.22915 l -25.66455,5.29166 0.52916,5.02708 1.85208,4.76249 21.43123,-0.26458 8.73124,-1.5875 2.11666,1.5875 z" />
    <path
       id="path898"
       style="font-style:normal;font-variant:normal;font-weight:normal;font-stretch:normal;font-family:aoyagireisyosimo2;-inkscape-font-specification:aoyagireisyosimo2;fill:#9f353a;fill-opacity:1"
       d="m 433.85828,343.48166 -1.28984,-1.14102 v -0.69453 h -0.59532 q -0.39687,-0.69453 -0.69453,-1.38906 -0.29765,-0.69453 -0.29765,-1.5875 0,-0.89297 0,-1.73633 0,-0.89297 0,-1.98437 l 0.59531,-16.12305 -0.29766,-1.38906 h -1.88515 l -0.94258,8.18554 h -0.69453 q -0.29766,1.78594 -0.59532,3.57188 -0.29765,1.78594 -1.14101,3.42305 -0.84336,1.5875 -1.78594,3.02617 -0.94258,1.38906 -1.5875,3.27422 h 0.34727 v 0.34726 l -1.28985,1.28985 v 0.69453 h -0.64492 l -0.64492,-1.68672 h -0.64492 v -3.175 l 2.87734,-3.96875 h 0.64492 q 0,-1.73633 0.94258,-2.97656 0.94258,-1.28985 1.14102,-2.87735 0.19843,-1.63711 0.49609,-3.07578 0.29766,-1.43867 0.29766,-3.175 h -2.23243 l -2.23242,0.99219 -2.53008,-3.86953 0.29766,-1.43867 5.10977,-2.53008 0.59531,-2.18282 -1.88516,-0.34726 v -0.69453 l -1.93476,-1.0418 -0.29766,-2.18281 q 0.64492,-1.09141 1.73633,-1.43867 1.14101,-0.34727 2.23242,-0.89297 1.14102,-0.5457 2.28203,-0.5457 1.14102,0 2.38125,0 l 7.04453,1.78593 v 0.74414 h 0.64492 l 0.99219,2.87735 -3.22461,0.69453 v 2.1332 l 5.40742,1.38906 1.68672,5.06016 h -0.39687 q -0.59531,-0.74414 -1.38906,-0.74414 -0.79375,0 -1.63711,-0.29766 -0.79375,-0.34726 -1.5875,-0.5457 -0.79375,-0.19844 -1.78594,-0.19844 l -1.88516,2.53008 v 11.41016 l 0.29766,0.74414 -0.29766,0.69453 0.59532,11.06289 z m -41.62227,-2.92695 -0.94257,-2.43086 0.59531,-2.87735 q 1.63711,-0.64492 3.37344,-1.5875 1.73632,-0.94258 3.175,-2.33164 1.48828,-1.43867 2.92695,-2.6789 1.43867,-1.24024 3.02617,-2.6293 l 0.29766,-0.74414 h 0.69453 q 0.29765,-1.43867 0.94258,-2.48047 0.64492,-1.09141 1.5875,-2.33164 0.99218,-1.28984 1.14101,-2.72852 0.14883,-1.43867 0.14883,-2.82773 l -0.99219,-0.74414 -1.5875,-1.78594 -0.29765,-1.78594 h -0.64493 v -0.74414 h -0.64492 l -0.64492,-2.43086 0.64492,-1.48828 q 1.5875,-0.69453 3.02617,-1.24023 1.43868,-0.5457 3.22461,-0.5457 1.78594,0 3.37344,-0.34727 1.5875,-0.39688 3.22461,-0.39688 l 1.28984,4.66329 q -0.99218,0.34726 -1.78593,0.59531 -0.79375,0.19844 -1.63711,0.39687 -0.79375,0.14883 -1.5875,0.69453 -0.79375,0.4961 -1.43867,1.19063 l -0.34727,1.09141 0.69453,2.53007 h -0.69453 l -1.28984,6.05235 h 3.22461 l 1.5875,-0.29766 0.99218,0.29766 0.99219,1.0914 1.28984,4.66328 -2.28203,7.83829 -1.28984,0.39687 -2.53008,-0.39687 -3.57187,1.04179 q -0.59532,-0.64492 -0.94258,-1.5875 -0.34727,-0.94258 -0.34727,-1.78593 0,-0.89297 0,-1.93477 0,-1.0418 -0.59531,-1.78594 l -0.99219,-0.34726 -3.22461,3.52226 h -0.59531 v 0.74414 l -1.28984,1.43867 h -0.64493 l -0.94257,1.73633 -3.22461,3.27422 -0.29766,1.0418 z m 21.77852,-10.21954 1.28984,-5.40742 h -2.23242 l -2.57969,1.43867 -0.69453,2.53008 1.28985,2.0836 h 1.98437 z m 15.37891,-17.61132 v -0.69453 l 0.64492,-1.43868 h 0.29765 v -0.74414 h -0.94257 l -2.53008,0.74414 v 0.69453 q 0.29765,0.44649 0.59531,0.79375 0.29766,0.29766 0.44648,0.4961 0.19844,0.14883 0.64493,0.14883 0.49609,0 0.84336,0 z" />
    <path
       id="path900"
       style="font-style:normal;font-variant:normal;font-weight:normal;font-stretch:normal;font-family:aoyagireisyosimo2;-inkscape-font-specification:aoyagireisyosimo2;fill:#9f353a;fill-opacity:1"
       d="m 484.65827,343.87853 q -2.97657,-0.34726 -5.40743,-1.28984 -2.43085,-0.94258 -5.20898,-1.73633 -2.77812,-0.74414 -5.40742,-1.48828 -2.57969,-0.74414 -4.91133,-2.28203 l -0.59531,-2.87734 q 0.34726,-1.19063 0.79375,-2.28204 0.49609,-1.0914 0.99219,-2.33164 0.49609,-1.28984 1.28984,-2.18281 0.79375,-0.94258 1.14101,-2.18281 h -1.93476 l -1.68672,0.89297 -1.93476,2.87734 h -0.64493 l -2.28203,4.61367 -0.99219,0.34727 -3.52226,4.01836 v 1.53789 q -0.69453,0.34726 -1.53789,0.79375 -0.79375,0.44648 -1.43867,1.0418 -0.64493,0.64492 -1.48828,0.64492 -0.84336,0 -1.78594,0 v -0.34727 l -0.99219,-0.29765 -0.29766,-0.89297 h 0.64493 v -0.94258 l 2.62929,-0.59531 0.29766,-0.94258 -2.57969,-0.29766 q 0.99219,0 1.93477,0 0.99218,0 1.78593,-0.74414 0.79375,-0.79375 1.63711,-1.38906 0.84336,-0.64492 1.43868,-1.33945 l 3.27421,-5.20899 q -0.34726,-0.34726 -0.64492,-0.49609 -0.29765,-0.19844 -0.79375,-0.19844 -0.49609,0 -0.99218,0 -0.4961,0 -0.84336,0 -0.94258,0.34727 -1.93477,0.64492 -0.94258,0.29766 -1.93477,0.79375 -0.99218,0.44649 -1.83554,1.09141 -0.79375,0.59531 -2.0836,0.59531 l -0.94257,-1.24023 q 0.59531,-0.29766 0.89296,-1.09141 0.34727,-0.79375 0.84336,-1.24023 0.4961,-0.44649 1.14102,-0.74414 0.64492,-0.29766 1.33945,-0.64493 l 7.78867,-2.18281 1.33946,-3.7207 1.5875,-0.34727 2.6789,0.94258 0.94258,2.18281 h 1.63711 l 6.15156,-0.24804 0.99219,0.24804 0.34727,1.24024 -0.64493,0.94258 -4.21679,3.7207 -0.99219,0.64492 -0.99219,5.01055 q 1.98438,0.89297 3.91914,1.68672 1.93477,0.74414 4.2168,0.94257 2.33164,0.14883 4.41523,0.44649 2.13321,0.29765 4.46485,0.29765 v -0.29765 l 2.23242,-1.24024 v 0.34727 l -0.99219,0.24805 -0.29765,1.28984 h -0.94258 v 0.89297 l 1.24023,0.59531 h 0.69453 l 0.29766,-0.89297 v 0.64492 h 0.34727 l 0.34726,-0.64492 h 0.94258 v -1.53789 h 0.29766 v -0.94258 h -0.64493 v -1.24023 h 0.64493 l 0.69453,-1.53789 h 0.64492 v -0.94258 h 0.34726 v 0.59531 l -0.34726,1.28985 0.94258,0.24804 v 0.64493 l 0.69453,0.64492 q 0.29765,0 0.64492,0.14883 0.34727,0.14882 0.34727,0.44648 0,0.29766 0.14882,0.49609 0.14883,0.14883 0.4961,0.44649 v 1.53789 l -2.33164,2.1332 z m -30.06328,-22.07617 v -0.89297 h -0.59532 v -2.82773 l 0.94258,-0.29766 q 0,-0.69453 0.29766,-1.14101 0.34726,-0.44649 0.49609,-1.0418 0.19844,-0.59531 0.19844,-1.24023 0,-0.64493 0,-1.24024 h 0.64492 q 0,0.59531 0.34727,1.24024 0.34726,0.64492 0.44648,1.24023 0.14883,0.59531 0.14883,1.38906 0,0.79375 0,1.38907 l -1.24024,3.12539 z m -7.14375,-0.29765 v -0.94258 l -1.5875,-0.34727 -1.68672,-4.96094 q -0.34727,-0.24804 -0.69453,-0.39687 -0.29766,-0.19844 -0.44649,-0.64492 -0.14883,-0.4961 -0.14883,-0.79375 0,-0.29766 0,-0.94258 l 0.64493,-1.28984 1.33945,-1.19063 q 1.24023,-0.64492 2.87734,-0.79375 1.63711,-0.14883 3.07578,-0.44648 1.48828,-0.34727 2.97657,-0.79375 1.48828,-0.44649 2.77812,-1.09141 l 0.34727,-0.89297 -0.34727,-4.06797 1.93477,-0.34726 q 0.69453,0.64492 1.48828,1.43867 0.79375,0.79375 1.28984,1.43867 0.4961,0.59531 0.99219,1.53789 0.49609,0.89297 0.19844,1.83555 2.92695,-0.29766 5.70507,0.0496 2.77813,0.29765 5.50664,0.59531 2.77813,0.29766 5.20899,0.94258 2.48047,0.59531 4.81211,2.1332 l 0.24805,0.94258 h 0.69453 v 0.94258 q -0.34727,0.89297 -0.54571,1.83554 -0.14882,0.94258 -0.64492,1.73633 -0.44648,0.79375 -0.94258,1.5875 -0.49609,0.74414 -1.14101,1.63711 l -1.28985,0.34727 -0.64492,-0.34727 v -0.59531 l -1.33945,-0.29766 -0.64492,-3.42304 h -1.28985 l 2.57969,-0.89297 0.34727,-1.88516 -1.28985,-0.34726 v -0.64493 h -3.57187 v -0.59531 h -1.0418 l -1.24023,0.34727 -8.23516,-0.69453 v 0.94257 l 2.03398,3.12539 2.23243,0.64493 v 0.94257 h 0.69453 l 0.34726,1.24024 h 0.59532 l 0.34726,2.82773 -0.34726,-0.94257 h -0.59532 l -1.04179,0.59531 v -0.59531 h -1.93477 v -0.34727 l -1.63711,-0.94258 q -0.34726,-0.59531 -0.64492,-1.19062 -0.29766,-0.64493 -0.64492,-1.43868 -0.34727,-0.79375 -0.34727,-1.38906 0,-0.59531 0,-1.53789 l 0.34727,-1.93476 h -0.64492 l -1.68672,0.34726 v 0.59531 h -1.5875 l -2.6293,-0.24804 q -0.99219,0.24804 -1.98437,0.24804 -0.94258,0 -1.78594,0.4961 -0.79375,0.49609 -1.78594,0.79375 -0.94258,0.29765 -1.98437,0.29765 v 1.88516 l 0.34726,4.61367 z" />
    <path
       id="path902"
       style="font-style:normal;font-variant:normal;font-weight:normal;font-stretch:normal;font-family:aoyagireisyosimo2;-inkscape-font-specification:aoyagireisyosimo2;fill:#9f353a;fill-opacity:1"
       d="m 499.29302,342.43986 q -0.64492,-0.5457 -0.99219,-1.0914 -0.34726,-0.54571 -0.84336,-1.0418 -0.49609,-0.5457 -0.69453,-1.24024 -0.14883,-0.69453 -0.14883,-1.24023 l 0.69454,-0.79375 13.04726,-2.97656 v -0.54571 l 0.99219,-0.5457 0.34726,-3.81992 h -0.64492 v 0.29766 -0.29766 h -0.69453 v 0.29766 l -7.68945,0.5457 -0.69453,-1.5875 0.34726,-0.5457 q 0.99219,-0.29766 1.83555,-0.84336 0.84336,-0.54571 1.83555,-0.64493 1.04179,-0.14882 2.03398,-0.39687 0.99219,-0.29766 1.98438,-0.29766 v -0.84336 h 0.34726 v -0.5457 h -1.68672 l -1.33945,0.29766 -0.99219,-0.29766 q 0,0.29766 -0.19844,0.44649 -0.14882,0.0992 -0.49609,0.0992 -0.29766,0 -0.64492,0 -0.34727,0 -0.64492,0 -0.34727,-0.24804 -0.69453,-0.49609 -0.34727,-0.29766 -0.34727,-0.69453 0,-0.44649 0,-0.84336 0,-0.39688 0,-0.69453 l 2.38125,-2.43086 h 0.64492 l 0.34727,-0.79375 2.33164,-1.09141 0.34726,-1.0914 -5.35781,-1.09141 v -1.33945 l 2.33164,-1.88516 4.71289,-0.84336 q 0.64492,0.29766 1.28985,0.44649 0.69453,0.0992 1.33945,0.24804 0.69453,0.14883 1.53789,0.14883 0.84336,0 1.48828,0 0.69453,-0.29766 1.53789,-0.39687 0.84336,-0.14883 1.48828,-0.39688 0.69453,-0.29766 1.53789,-0.29766 0.84336,0 1.83555,0 l 0.64492,0.24805 0.69453,2.48047 -0.29765,0.5457 q -1.0418,0 -2.23242,0 -1.14102,0 -1.98438,0.24805 -0.84336,0.24805 -1.88516,0.39688 -0.99218,0.0992 -1.98437,0.39687 v 0.24805 l -1.33945,1.93476 H 514.027 v 0.54571 l -5.01054,1.63711 v 1.0914 h 0.99219 l 9.42578,-1.38906 v -0.5457 l -1.33946,-0.54571 v -0.5457 h 0.29766 v -0.5457 l 3.07578,-0.54571 2.97656,1.09141 0.34727,0.84336 h 0.69453 v 0.5457 l 1.33945,0.54571 0.64493,1.0914 -0.34727,1.5875 h -1.63711 l -3.37344,-1.0418 v 0.4961 l -2.38125,0.5457 -0.64492,-0.5457 -1.33945,0.29765 v -0.29765 h -0.69453 v 0.5457 l -1.98438,0.84336 v 0.5457 l 0.99219,0.24805 0.34726,1.09141 2.67891,0.29765 2.67891,-0.29765 1.04179,2.72851 h -0.39687 l -0.94258,0.54571 -2.38125,-0.24805 -1.33945,0.24805 v 0.49609 l -2.38125,1.63711 h -0.29766 l -0.34726,2.48047 q 3.37343,1.33945 7.19336,1.24023 3.86953,-0.14883 7.54062,0.4961 3.67109,0.64492 7.19336,1.19062 3.57187,0.5457 7.24297,1.09141 v 1.63711 l -0.34727,1.0914 h -0.64492 v 0.4961 h -0.69453 v 0.5457 h -0.64492 l -0.39688,0.84336 h -1.63711 q -3.32383,-1.09141 -6.69726,-1.88516 -3.32383,-0.79375 -6.69727,-1.48828 -3.32383,-0.69453 -7.04453,-0.69453 -3.7207,0 -7.3918,-0.24805 l -0.64492,0.24805 v 0.5457 h 1.33946 l 1.33945,-0.24804 h -1.0418 l -1.98437,0.24804 v -0.5457 h -0.69453 l -0.64493,0.29766 v 0.5457 h 0.34727 -0.69453 v -0.29766 h -0.64492 l -0.69454,0.54571 v -0.24805 h -0.99218 l -0.34727,0.79375 -4.36562,1.33945 q 0,0.24805 0,0.4961 0,0.29765 0,0.5457 0,0.29766 -0.4961,0.29766 -0.49609,0 -0.49609,0.29765 z m 39.88594,-1.63711 -0.99219,-0.29765 v 0.5457 h 0.69453 z m -43.20977,-22.47304 -0.34726,-0.84336 h -0.34727 V 317.2383 H 494.977 q -0.34726,-0.5457 -0.34726,-1.09141 0,-0.5457 0,-1.19062 0,-0.69453 -0.34727,-1.24024 -0.34726,-0.5457 -0.34726,-1.0914 h -0.64492 v -1.63711 l 1.33945,-1.33945 h 0.64492 l 0.69453,-1.09141 0.99219,-0.29766 v -0.24804 q 1.33945,-0.24805 2.82773,-0.34727 1.53789,-0.14883 2.87735,-0.39687 1.33945,-0.29766 2.6789,-0.69454 1.33946,-0.44648 2.67891,-0.99218 l 0.34727,-0.79375 -1.0418,-2.72852 q 0.34726,-0.5457 0.99219,-0.5457 0.69453,0 1.04179,-0.24805 0.34727,-0.29765 0.99219,-0.29765 0.69453,0 1.33945,0 l 1.68672,1.0914 1.68672,3.52227 q 3.02617,0.29765 6.35,0.29765 3.37344,0 6.39961,0.54571 3.02617,0.5457 6.00274,0.94257 3.02617,0.39688 5.70507,1.73633 l 0.69453,2.18281 q -0.39687,0.54571 -0.5457,1.24024 -0.14883,0.64492 -0.49609,1.33945 -0.29766,0.69453 -0.64492,1.24024 -0.34727,0.49609 -0.69454,1.04179 h -0.29765 v 0.24805 h -1.73633 l -1.33945,-0.79375 -1.63711,-1.88516 h -1.33946 l -0.34726,0.29766 2.67891,-1.63711 v -0.84336 l -2.03399,-1.63711 q -1.98437,-0.5457 -3.81992,-0.94258 -1.83555,-0.39687 -3.86953,-0.5457 -1.98438,-0.14883 -4.16719,-0.14883 -2.18281,0 -4.2168,0 -0.64492,0.29766 -1.33945,0.69453 -0.64492,0.39688 -1.33945,0.54571 -0.64492,0.14883 -1.68672,0.14883 -0.99219,0 -1.63711,0 l -4.01836,-0.29766 -6.69727,1.93476 v 0.79375 q 0.29766,0.29766 0.44649,0.69454 0.19844,0.39687 0.19844,0.94257 0,0.54571 0,0.94258 0,0.39688 0,0.94258 l -0.99219,1.88516 z" />
  </g>
  </a>
  <g
     style="font-size:10.5833px;line-height:1.25;font-family:'Trajan Pro';-inkscape-font-specification:'Trajan Pro';white-space:pre;shape-inside:url(#rect874)"
     id="text872"
     transform="translate(377.21262,105.20614)" />
  <g
     style="font-size:50.8px;line-height:1.25;font-family:'Trajan Pro';-inkscape-font-specification:'Trajan Pro';stroke-width:0.264583"
     id="text886">
    <path
       id="path888"
       style="font-style:normal;font-variant:normal;font-weight:normal;font-stretch:normal;font-size:50.8px;font-family:aoyagireisyo2;-inkscape-font-specification:aoyagireisyo2;fill:#9f353a;fill-opacity:1;stroke-width:0.264583"
       d="m 321.94306,280.45906 1.016,-1.27 h 0.508 l 0.9652,-1.016 v -0.508 h 0.5588 l 0.508,-1.4732 1.2192,-0.254 1.27,-2.9972 0.4572,0.508 h 0.254 v -0.254 h -0.254 l 0.762,-1.9812 0.762,-0.254 0.254,-0.9652 h 0.2032 c 0.1524,-0.3556 0.3048,-0.6604 0.4064,-1.016 0.0508,-0.3556 0.254,-0.6604 0.508,-0.8636 0.254,-0.254 0.3556,-0.508 0.3556,-0.8636 0,-0.3556 0.1016,-0.6604 0.254,-1.016 l -0.254,-2.032 c -0.1524,-0.1524 -0.3048,-0.3048 -0.3556,-0.4572 -0.1016,-0.1524 -0.2032,-0.3556 -0.254,-0.508 -0.1016,-0.1524 -0.2032,-0.3556 -0.254,-0.508 -0.1016,-0.1524 -0.3048,-0.254 -0.6096,-0.254 l -1.016,-1.9812 c -0.6604,-0.6604 -1.3208,-1.2192 -2.0828,-1.7272 -0.762,-0.508 -1.524,-0.9144 -2.286,-1.2192 -0.762,-0.3556 -1.5748,-0.5588 -2.4892,-0.6604 -0.9144,-0.0508 -1.8796,-0.1016 -2.8448,-0.1016 l 0.254,-1.27 c 0,-0.3048 0,-0.6096 0,-0.8636 0,-0.254 -0.0508,-0.508 -0.1016,-0.762 -0.1016,-0.254 -0.1524,-0.508 -0.1524,-0.8636 0,-0.3556 -0.1524,-0.6096 -0.508,-0.762 l -1.27,1.0668 v 0.2032 h 0.254 l -0.7112,3.5052 -2.2352,0.9652 v 0.254 l -0.762,0.508 h -0.508 c 0,-0.6604 0,-1.3208 0,-1.9812 0,-0.6604 0.1016,-1.27 0.254,-1.8796 0.1524,-0.5588 0.4064,-1.2192 0.6604,-1.8796 0.254,-0.6604 0.4572,-1.27 0.6096,-1.7272 l 8.1788,-4.4704 0.254,-0.508 -0.254,-1.016 h -0.762 v -0.4572 l -1.2192,-0.254 -4.4704,2.2352 h -0.508 l 0.762,-4.0132 h 0.4572 l 0.254,-0.7112 -0.9652,-1.4732 -1.7272,0.2032 c -0.508,0.508 -0.8636,1.0668 -1.016,1.6256 -0.1524,0.5588 -0.3556,1.1684 -0.6096,1.7272 -0.2032,0.6096 -0.4572,1.1684 -0.7112,1.7272 -0.254,0.6096 -0.3048,1.2192 -0.1524,1.8796 l -3.556,1.016 v 0.254 h -0.4572 v 0.4572 h -1.016 l -0.508,0.762 v 0.762 l 1.27,1.2192 2.7432,-0.254 h 1.016 l -0.8128,8.2296 h -0.4572 l -0.254,1.016 -1.9812,0.508 v 0.4572 l -2.4892,1.524 v 0.4572 h -0.508 c 0,0.3556 -0.1016,0.6096 -0.3556,0.762 -0.254,0.1524 -0.4064,0.4064 -0.4064,0.762 0,0.3556 0,0.6096 -0.0508,0.8636 -0.1016,0.254 -0.254,0.5588 -0.4064,0.9144 0,0.3556 0,0.6604 0,0.9652 0,0.3556 0,0.6604 0,1.016 0,0.3556 0.0508,0.6096 0.1524,0.8636 0.0508,0.2032 0.2032,0.508 0.3048,0.8636 v 0.508 h -0.7112 l -0.508,-1.7272 v -0.254 c 0.1524,0.508 0.3048,1.016 0.4064,1.5748 0.0508,0.6096 0.254,1.1176 0.508,1.4732 0.254,0.4572 0.4572,0.8636 0.7112,1.27 0.254,0.4572 0.3556,0.9652 0.3556,1.6256 l 1.7272,-0.508 v -0.508 h 0.508 l 1.016,-2.6924 h 0.4572 l 1.016,-1.016 v -0.508 h 0.9652 l 1.3208,4.0132 h 0.9652 l 0.508,-1.778 -0.508,-1.4732 c 0,-0.508 0,-1.0668 0,-1.7272 0,-0.6604 0.1016,-1.27 0.254,-1.7272 0.1524,-0.508 0.4572,-0.9652 0.9144,-1.4224 0.4064,-0.4064 0.6604,-0.8636 0.8128,-1.3716 l 0.508,-0.254 0.254,-0.9652 h 0.508 l 0.254,-1.524 h 0.4572 l 1.016,-3.4544 1.4732,-0.508 c 0.6604,0 1.3208,0 1.8796,0 0.5588,0 1.1176,0.1016 1.6256,0.3556 0.4572,0.254 0.9144,0.6096 1.3716,1.016 0.4572,0.4064 0.9144,0.762 1.3716,1.1176 0.1524,0.3556 0.4064,0.6604 0.6604,1.016 0.254,0.3048 0.508,0.6096 0.762,0.9652 0.254,0.3556 0.4064,0.7112 0.4572,1.1176 0.0508,0.4064 0.2032,0.762 0.3556,1.1176 0,1.3208 -0.2032,2.6416 -0.5588,3.8608 -0.4572,1.27 -0.9144,2.4892 -1.4224,3.6576 -0.508,1.1176 -1.1176,2.286 -1.8796,3.4544 -0.762,1.1176 -1.3716,2.3368 -1.8796,3.5052 h -0.508 z m -16.4084,-7.9756 -0.254,0.2032 -0.254,-0.2032 0.254,-0.254 z m -0.254,-0.508 -0.254,0.254 -0.2032,-0.254 0.2032,-0.254 z m 24.1808,0 0.254,-0.254 h 0.254 z m -21.1836,-1.016 -0.254,0.254 -1.4732,-1.2192 h -0.508 v -0.254 l -1.016,-0.254 0.254,-1.9812 h 0.508 v 1.2192 l 0.254,-2.2352 1.2192,-0.254 v -0.508 l 3.5052,-1.7272 h 0.508 l 0.2032,2.7432 c 0,0.508 -0.1016,0.9144 -0.3048,1.27 -0.254,0.3048 -0.5588,0.6096 -0.9144,0.9652 -0.3556,0.3556 -0.6604,0.6604 -1.016,1.016 -0.3048,0.3556 -0.6096,0.6096 -0.9652,0.9652 z m -2.2352,-0.254 -0.254,0.254 -0.254,-0.254 0.254,-0.254 z m -0.254,-0.4572 -0.254,0.2032 -0.254,-0.2032 0.254,-0.254 z m -0.508,-0.254 -0.254,0.254 -0.2032,-0.254 0.2032,-0.254 z m 8.4836,-5.2832 -0.254,0.254 -0.2032,-0.254 v -2.7432 l 1.9812,-1.2192 h 0.4572 z m 2.2352,-3.9624 -0.254,0.254 -0.2032,-0.254 0.2032,-0.254 z" />
    <path
       id="path890"
       style="font-style:normal;font-variant:normal;font-weight:normal;font-stretch:normal;font-size:50.8px;font-family:aoyagireisyo2;-inkscape-font-specification:aoyagireisyo2;fill:#9f353a;fill-opacity:1;stroke-width:0.264583"
       d="m 375.79106,275.42986 h 0.254 v -0.6096 h -0.254 z m 0.8636,-1.2192 h 0.254 l -0.254,-0.3048 1.0668,-0.6096 0.254,-0.8636 h 1.1176 v -1.27 h 0.508 v 0.3048 h 0.508 v -0.3048 h -0.254 v -0.6604 h 0.8636 l 0.254,-0.8636 h 0.8128 l 0.254,-1.27 0.8636,-0.254 v -0.6096 l 0.508,-1.27 h 0.508 l 0.6096,-1.4732 -0.6096,-4.9276 h -0.508 l -0.254,-1.2192 h -0.5588 v -0.5588 l -0.8128,-0.3556 v -0.5588 c -0.4064,-0.2032 -0.762,-0.4572 -1.2192,-0.8128 -0.4572,-0.3048 -0.9652,-0.5588 -1.4732,-0.762 -0.5588,-0.1524 -1.0668,-0.3048 -1.524,-0.4064 -0.4572,-0.1016 -0.9652,-0.254 -1.524,-0.4572 -1.6256,-0.254 -3.2004,-0.2032 -4.7244,0.1016 -1.524,0.3556 -3.048,0.7112 -4.5212,1.2192 -1.4732,0.5588 -2.9464,0.9652 -4.5212,1.27 -1.524,0.3048 -3.048,0.7112 -4.4704,1.3208 l -2.6924,-0.3048 -1.4224,2.1844 v 1.4732 l 1.6764,2.1336 c 1.6256,-0.1524 3.1496,-0.5588 4.6228,-1.2192 1.4224,-0.6096 2.9464,-1.0668 4.4704,-1.524 1.5748,-0.4064 2.9972,-1.1684 4.2164,-2.286 1.27,-1.1176 2.6416,-1.9304 4.1148,-2.5908 v -0.3048 h -0.3048 v -0.6096 h 1.6764 l 0.254,0.9144 2.9464,1.2192 2.7432,2.794 c 0,1.27 -0.1524,2.3368 -0.4064,3.3528 -0.254,1.016 -0.6096,2.032 -1.016,2.9972 -0.4572,1.0668 -0.9144,2.032 -1.27,3.0988 -0.3556,1.016 -0.7112,2.032 -1.1176,2.9972 v 0.9652 h 0.3556 z m 2.1336,-2.1336 -0.254,0.3556 h -0.3048 l 0.3048,-0.6604 z m 0.3048,-0.3048 h -1.1176 v -0.9652 h 1.1176 z m -4.3688,-15.9004 -0.3048,0.3048 -0.254,-0.3048 0.254,-0.3048 z m 9.4488,-1.7272 c 0.1524,0 0.4572,0 0.8128,0 0.3556,0 0.6096,-0.0508 0.8128,-0.1524 0.2032,-0.1016 0.4572,-0.254 0.7112,-0.508 0.254,-0.1524 0.508,-0.3556 0.6604,-0.508 l -0.5588,-2.1844 -2.9972,-2.1336 h -0.762 c 0,0.6096 0,1.1684 0,1.6764 0,0.5588 0.1524,0.9652 0.4064,1.2192 0.2032,0.3048 0.3556,0.7112 0.3556,1.2192 0,0.5588 0.2032,0.9652 0.5588,1.3716 z m 5.08,-2.5908 h 0.6604 v -0.8128 l 2.0828,-1.2192 -0.8636,-1.9812 -2.6924,-1.6256 h -1.0668 c 0,0.5588 0,1.0668 0,1.5748 0,0.5588 0.2032,1.016 0.508,1.27 0.3556,0.254 0.6604,0.6096 0.8128,1.1684 0.1524,0.5588 0.3048,0.9652 0.5588,1.2192 z" />
    <path
       id="path892"
       style="font-style:normal;font-variant:normal;font-weight:normal;font-stretch:normal;font-size:50.8px;font-family:aoyagireisyo2;-inkscape-font-specification:aoyagireisyo2;fill:#9f353a;fill-opacity:1;stroke-width:0.264583"
       d="m 413.07826,278.02066 3.2512,-1.4732 c 0.2032,-0.2032 0.3048,-0.4064 0.3048,-0.6096 0,-0.2032 0,-0.4064 0,-0.6096 0,-0.2032 0.1524,-0.3048 0.508,-0.3048 0.254,0 0.4064,-0.1016 0.4064,-0.3556 l 1.3716,-2.3368 c 0.8128,-0.2032 1.6764,-0.2032 2.4384,0 0.7112,0.1524 1.524,0.3556 2.2352,0.5588 0.762,0.2032 1.4732,0.4064 2.0828,0.6096 0.6604,0.254 1.3208,0.5588 1.9812,0.9144 l 0.3048,1.524 v -0.3048 l 2.2352,-0.9652 0.3556,-1.4732 v -1.1684 l -2.5908,-0.9652 v -0.3048 h -0.9652 c -0.4572,-0.4064 -1.016,-0.5588 -1.6256,-0.5588 -0.6604,0 -1.2192,-0.1524 -1.778,-0.508 -0.508,-0.3048 -1.1684,-0.4572 -1.9304,-0.4572 -0.7112,0 -1.4732,0 -2.1336,0 l 0.6604,-1.1684 -0.3556,-2.3876 v -0.6096 h 0.3556 l 0.9652,-6.35 4.8768,-2.794 -0.3556,-2.3876 -4.2164,0.3048 v 1.5748 h -0.9144 l 0.6096,-7.3152 c 0.4064,0 0.8128,-0.1016 1.1684,-0.3048 0.3048,-0.2032 0.762,-0.3048 1.27,-0.3048 0.5588,0 1.016,0 1.4732,0 0.4572,0 0.8128,0 1.2192,0 v -0.5588 l 1.6764,-0.3048 v -1.2192 c -0.6096,-0.254 -1.1684,-0.4572 -1.6256,-0.762 -0.4572,-0.3048 -0.9144,-0.4572 -1.5748,-0.4572 -0.6604,0 -1.27,-0.0508 -1.9304,-0.1524 -0.6604,-0.1016 -1.3208,-0.1524 -1.9304,-0.1524 l -1.0668,-4.2672 h -1.2192 l -1.0668,2.794 -0.9144,0.5588 v 1.524 l -1.27,-0.3048 -2.286,0.6096 v 0.6096 l -3.2004,0.9144 -2.286,2.7432 0.3048,1.4732 c 0.6604,0 1.3208,-0.0508 2.0828,-0.1524 0.762,-0.1016 1.4732,-0.254 2.1336,-0.4572 0.6604,-0.2032 1.3208,-0.4064 1.9812,-0.6096 0.6604,-0.1524 1.2192,-0.4572 1.8796,-0.8636 h 1.9304 l -0.3556,2.0828 0.7112,3.9116 v 2.4384 l -1.6256,0.6096 h -1.5748 l -0.7112,-1.8288 -1.27,0.6096 v 0.6096 h -0.6604 l -0.3556,0.8636 0.3556,2.1336 h 0.6604 v 0.6604 l 1.6256,0.8636 2.8448,-0.3048 h 0.7112 c 0,0.6604 0,1.27 0,1.9812 0,0.7112 -0.0508,1.3208 -0.1524,1.9304 -0.1524,0.6096 -0.254,1.1684 -0.3556,1.778 -0.1524,0.6604 -0.3048,1.27 -0.4572,1.8796 l -5.2324,0.5588 v 0.6604 c -0.6604,0 -1.2192,0.0508 -1.7272,0.1524 -0.5588,0.1016 -1.016,0.3048 -1.4732,0.7112 -0.4064,0.4064 -0.8636,0.6604 -1.4224,0.762 -0.5588,0.1524 -1.1176,0.2032 -1.778,0.2032 v 0.3048 h 0.9652 l -0.3048,2.0828 -0.6604,-0.254 v -0.3556 l 0.3048,2.7432 3.9116,-0.6096 2.54,0.6096 v 1.1684 h 0.6604 z m -6.1976,-3.3528 -0.254,0.3556 -0.3048,-0.3556 0.3048,-0.254 h 0.254 z m 0,-1.4732 -0.254,0.3048 -0.3048,-0.3048 0.3048,-0.3048 h 0.254 z m 7.8232,-0.6096 -2.6416,0.9144 h -1.8796 v -0.6096 l 1.6256,-0.5588 z m -7.112,-0.8636 -0.3556,0.3048 h -0.3556 l 0.3556,-0.6604 z" />
  </g>
  <g
     style="font-size:90.3111px;line-height:1.25;font-family:'Trajan Pro';-inkscape-font-specification:'Trajan Pro';stroke-width:0.264583"
     id="text890">
    <path
       id="path863"
       style="font-style:normal;font-variant:normal;font-weight:normal;font-stretch:normal;font-size:90.3111px;font-family:'Zapfino Extra LT Pro';-inkscape-font-specification:'Zapfino Extra LT Pro';stroke-width:0.264583"
       d="m 659.86859,289.95498 c 0,-1.6256 -1.98684,-2.98026 -5.96053,-2.98026 -6.41209,0 -13.99822,3.43182 -19.41689,6.14115 -5.77991,-0.45155 -12.28231,-1.17404 -18.7847,-1.17404 -21.9456,0 -28.80924,9.39235 -32.87324,14.54008 -4.78649,6.23147 -7.58614,13.54667 -7.58614,14.72071 0,0.36125 1.6256,0.8128 1.6256,2.34809 0,0.45156 -0.0903,1.17404 -0.27093,2.16747 0.0903,0.18062 0.27093,0.18062 0.45156,-0.18063 5.05742,-17.9719 12.73386,-31.60888 29.53172,-31.60888 8.03769,0 15.80445,0.90311 23.11965,2.07716 -21.22311,12.73386 -33.50542,25.64835 -33.50542,36.57599 0,7.3152 7.22489,11.74044 15.62382,11.74044 14.81102,0 32.51199,-12.192 32.51199,-19.68782 0,-1.71591 -0.36124,-2.61902 -0.72249,-3.07057 -0.18062,0 -0.45155,0.0903 -0.45155,0.27093 0.27093,0.45156 0.27093,1.08373 0.27093,1.71591 0,5.14773 -13.63697,19.86844 -31.42826,19.86844 -9.03111,0 -11.55982,-4.24462 -11.55982,-8.66986 0,-11.46951 13.63698,-28.62862 30.16391,-38.47253 4.60586,0.72249 9.75359,1.35467 13.99822,1.35467 2.61902,0 5.14773,-0.27094 7.31519,-0.8128 3.07058,-0.8128 4.33494,-3.52214 6.95396,-5.14774 0.63218,-0.45155 0.99342,-1.08373 0.99342,-1.71591 z m -2.61902,1.35467 c 0,0.99342 -0.72249,2.4384 -10.02453,2.4384 -3.97369,0 -8.57956,-0.27093 -11.46951,-0.54187 6.05084,-3.16089 11.55982,-4.69617 15.08195,-4.69617 2.70933,0 6.41209,0.99342 6.41209,2.79964 z" />
    <path
       id="path865"
       style="font-style:normal;font-variant:normal;font-weight:normal;font-stretch:normal;font-size:90.3111px;font-family:'Zapfino Extra LT Pro';-inkscape-font-specification:'Zapfino Extra LT Pro';stroke-width:0.264583"
       d="m 671.8207,331.49809 c 0,-0.36125 -0.27093,-0.54187 -0.54187,-0.45156 -5.41866,7.76676 -12.10168,13.09511 -15.35288,13.09511 -1.53529,0 -1.89654,-0.90311 -1.89654,-1.98684 0,-3.70276 2.88996,-7.94738 7.04427,-14.35947 0.27093,-0.45155 0.36124,-0.8128 0.36124,-1.26435 0,-1.44498 -0.8128,-2.61902 -1.26435,-2.61902 -0.27093,0 -0.45156,0.27093 -0.72249,0.63217 -1.08373,1.80622 -3.88338,6.77333 -5.96053,10.5664 -2.88996,4.42524 -5.05742,6.14116 -6.23147,6.14116 -0.72249,0 -0.99342,-0.45156 -0.99342,-1.35467 0,-2.25778 3.2512,-8.30862 7.04427,-14.08853 0.36124,-0.54187 0.54186,-0.90311 0.54186,-1.08374 0,-0.36124 -1.17404,-1.80622 -1.98684,-1.80622 -0.18062,0 -0.54187,0.36125 -0.8128,0.90311 -6.23147,10.74702 -7.67644,14.35947 -7.67644,16.16569 0,1.71591 0.99342,2.4384 2.25777,2.4384 3.34151,0 5.50898,-3.07058 6.95396,-4.8768 -0.72249,1.6256 -0.99342,3.2512 -0.99342,4.33493 0,1.80623 0.90311,3.16089 3.25119,3.16089 5.50898,0 12.91449,-7.67644 16.97849,-13.54666 z" />
    <path
       id="path867"
       style="font-style:normal;font-variant:normal;font-weight:normal;font-stretch:normal;font-size:90.3111px;font-family:'Zapfino Extra LT Pro';-inkscape-font-specification:'Zapfino Extra LT Pro';stroke-width:0.264583"
       d="m 695.82652,330.68529 c 0.54187,-0.72249 -0.18062,-0.90311 -0.45155,-0.54187 -3.34151,5.32836 -11.3792,12.192 -15.35289,12.192 -1.35467,0 -1.89653,-0.45156 -1.89653,-1.89653 0,-3.34151 5.59929,-12.46294 8.30862,-16.34631 0.27093,-0.45156 0.45155,-0.72249 0.45155,-1.08374 0,-0.45155 -0.54186,-1.17404 -0.99342,-1.17404 -1.35466,0 -8.30862,5.6896 -12.82417,9.7536 1.6256,-3.70276 3.88337,-6.95396 3.88337,-7.40551 0,-0.72249 -0.72249,-1.44498 -1.44497,-1.44498 -0.27094,0 -0.63218,0.18062 -0.8128,0.45156 -1.44498,3.34151 -3.70276,7.94737 -5.59929,11.83075 -1.80622,2.25778 -3.61245,4.24462 -3.61245,5.32835 0,0.36125 0.45156,2.25778 1.08374,2.25778 0.18062,0 0.36124,-0.27093 0.54186,-0.54186 2.07716,-3.16089 3.16089,-5.41867 5.05743,-8.39894 2.25777,-2.61902 7.31519,-7.04426 9.93422,-8.76017 0.54186,-0.36125 0.8128,0.18062 0.54186,0.8128 -2.16746,5.14773 -7.67644,12.46293 -7.67644,15.89475 0,1.6256 1.44498,1.89653 2.88995,1.89653 6.23147,0 13.63698,-6.77333 17.97191,-12.82417 z" />
    <path
       id="path869"
       style="font-style:normal;font-variant:normal;font-weight:normal;font-stretch:normal;font-size:90.3111px;font-family:'Zapfino Extra LT Pro';-inkscape-font-specification:'Zapfino Extra LT Pro';stroke-width:0.264583"
       d="m 712.86991,318.22236 c 0,-0.90311 -0.54186,-2.34809 -0.99342,-2.34809 -0.36124,0 -0.8128,0.45155 -1.17404,1.17404 -1.08374,1.89653 -2.07716,3.61245 -3.07058,5.23805 -0.36124,-0.0903 -0.63218,-0.0903 -0.99342,-0.0903 -1.35467,0 -2.88996,0.36125 -4.33494,1.08374 -6.41208,3.16089 -13.0951,14.17884 -13.0951,17.79128 0,1.53529 0.8128,2.25778 1.89653,2.25778 2.98027,0 7.13458,-5.32835 12.01137,-11.92106 -2.52871,4.42524 -11.01795,20.22968 -17.24941,31.7895 -9.57298,18.24284 -20.13938,24.65493 -30.61547,24.65493 -9.93422,0 -17.70097,-3.97369 -17.70097,-12.28231 0,-1.35466 0.27093,-2.52871 0.54187,-3.34151 0,-0.54187 -0.54187,-0.54187 -0.63218,-0.0903 -0.36125,0.99342 -0.63218,2.79964 -0.63218,4.24462 0,6.95396 2.88996,13.54667 14.17884,13.54667 15.35289,0 25.73866,-9.48267 33.3248,-21.85529 9.48266,-15.35289 16.07537,-25.73866 28.08675,-48.22612 0.36124,-0.63218 0.45155,-1.08374 0.45155,-1.6256 z m -5.77991,5.32835 c -4.42524,8.66987 -12.28231,17.70098 -13.81759,17.70098 -0.45156,0 -0.54187,-0.36125 -0.54187,-0.99343 0,-2.16746 2.61902,-10.65671 8.66986,-15.62382 1.08374,-0.90311 2.70934,-1.17404 4.33494,-1.17404 0.36124,0 0.99342,0 1.35466,0.0903 z" />
    <path
       id="path871"
       style="font-style:normal;font-variant:normal;font-weight:normal;font-stretch:normal;font-size:90.3111px;font-family:'Zapfino Extra LT Pro';-inkscape-font-specification:'Zapfino Extra LT Pro';stroke-width:0.264583"
       d="m 730.03467,330.05311 c 0,-0.36124 -0.36124,-0.63218 -0.99342,-0.63218 -1.6256,0 -4.96711,0.18062 -8.39893,0.18062 -1.98684,0 -4.064,-0.0903 -5.41866,-0.0903 -0.72249,0 -1.08374,0.45156 -1.08374,0.8128 0,0.27094 0.27094,0.54187 0.90311,0.54187 4.69618,0 11.01796,-0.0903 13.8176,-0.0903 0.8128,0 1.17404,-0.36125 1.17404,-0.72249 z" />
    <path
       id="path873"
       style="font-style:normal;font-variant:normal;font-weight:normal;font-stretch:normal;font-size:90.3111px;font-family:'Zapfino Extra LT Pro';-inkscape-font-specification:'Zapfino Extra LT Pro';stroke-width:0.264583"
       d="m 771.18689,302.14698 c -15.17226,0 -20.77155,1.08373 -24.29368,2.16747 -5.05743,1.6256 -6.68303,4.51555 -6.68303,6.41209 0,2.25777 0.90311,3.25119 1.44498,3.61244 0.0903,0 0.27093,-0.0903 0.18062,-0.27093 -0.0903,-0.27094 -0.18062,-0.72249 -0.18062,-1.26436 0,-2.79964 1.98685,-5.23804 3.97369,-6.32178 3.97369,-2.16746 11.01795,-3.43182 16.07537,-3.43182 0.72249,0 0.54187,0.63218 0.45156,0.90311 -2.61902,5.87022 -7.94738,15.71413 -12.10169,22.66809 -4.51555,7.67644 -8.76017,14.08853 -13.00479,18.24284 -4.69618,4.69618 -8.76018,6.14115 -13.72729,6.14115 -5.6896,0 -8.128,-2.52871 -8.57956,-5.6896 l -0.63217,0.18063 c -0.0903,1.6256 -0.18062,3.34151 -0.18062,4.15431 -0.0903,0.8128 0.18062,0.99342 0.81279,1.26435 1.98685,0.8128 4.33494,1.17405 6.95396,1.17405 10.02453,0 16.34631,-5.23805 21.76497,-10.29547 2.34809,-2.25778 5.41867,-6.23146 7.3152,-9.39235 2.88996,-4.51556 5.59929,-9.39236 8.39893,-14.35947 2.79965,-5.14773 5.77991,-11.10826 8.30863,-14.35946 0.63217,-0.72249 1.08373,-0.8128 2.07715,-0.8128 0.36124,0 0.90311,0 1.6256,0.0903 0.27093,0 0.36124,-0.18062 0.36124,-0.36124 0,-0.18063 -0.0903,-0.36125 -0.36124,-0.45156 z" />
    <path
       id="path875"
       style="font-style:normal;font-variant:normal;font-weight:normal;font-stretch:normal;font-size:90.3111px;font-family:'Zapfino Extra LT Pro';-inkscape-font-specification:'Zapfino Extra LT Pro';stroke-width:0.264583"
       d="m 786.64984,331.49809 c 0,-0.36125 -0.27093,-0.54187 -0.54187,-0.45156 -5.41866,7.76676 -12.10168,13.09511 -15.35288,13.09511 -1.53529,0 -1.89654,-0.90311 -1.89654,-1.98684 0,-3.70276 2.88996,-7.94738 7.04427,-14.35947 0.27093,-0.45155 0.36124,-0.8128 0.36124,-1.26435 0,-1.44498 -0.8128,-2.61902 -1.26435,-2.61902 -0.27093,0 -0.45156,0.27093 -0.72249,0.63217 -1.08373,1.80622 -3.88338,6.77333 -5.96053,10.5664 -2.88996,4.42524 -5.05742,6.14116 -6.23147,6.14116 -0.72249,0 -0.99342,-0.45156 -0.99342,-1.35467 0,-2.25778 3.2512,-8.30862 7.04427,-14.08853 0.36124,-0.54187 0.54186,-0.90311 0.54186,-1.08374 0,-0.36124 -1.17404,-1.80622 -1.98684,-1.80622 -0.18062,0 -0.54187,0.36125 -0.8128,0.90311 -6.23147,10.74702 -7.67644,14.35947 -7.67644,16.16569 0,1.71591 0.99342,2.4384 2.25777,2.4384 3.34151,0 5.50898,-3.07058 6.95396,-4.8768 -0.72249,1.6256 -0.99343,3.2512 -0.99343,4.33493 0,1.80623 0.90312,3.16089 3.2512,3.16089 5.50898,0 12.91449,-7.67644 16.97849,-13.54666 z" />
    <path
       id="path877"
       style="font-style:normal;font-variant:normal;font-weight:normal;font-stretch:normal;font-size:90.3111px;font-family:'Zapfino Extra LT Pro';-inkscape-font-specification:'Zapfino Extra LT Pro';stroke-width:0.264583"
       d="m 886.17549,291.30965 c 0,-2.16747 -1.53529,-3.16089 -3.88338,-3.16089 -8.03768,0 -19.32657,10.47609 -27.27395,23.84213 -7.3152,2.79964 -13.99822,4.15431 -21.76497,7.76675 4.51555,-7.67644 10.11484,-19.32657 14.35946,-29.3511 0.18063,-0.54187 -0.36124,-0.99342 -0.63217,-0.36125 -0.72249,1.80623 -0.99343,2.16747 -1.53529,2.16747 -6.05085,0.27093 -12.82418,1.44498 -15.80444,2.79964 -8.30863,3.79307 -15.17227,18.60409 -15.17227,23.30027 0,0.36124 0.0903,0.63217 0.0903,0.8128 0.27094,0.90311 0.8128,1.08373 0.8128,0 0,-7.76676 6.14116,-16.70756 13.36604,-20.32 2.70934,-1.35467 8.66987,-2.4384 12.91449,-2.4384 1.6256,0 1.98685,0.27093 1.98685,0.54187 0,0.18062 -0.18063,0.72249 -0.27094,0.99342 -3.43182,7.40551 -7.04426,14.90133 -11.65013,22.48746 -10.38578,5.14773 -17.70097,13.09511 -20.04906,19.95875 -2.34809,0.8128 -5.59929,1.26436 -8.21831,1.26436 -6.86365,0 -14.72071,-3.16089 -14.72071,-10.11484 0,-0.45156 0.0903,-1.35467 0.18062,-1.80622 -0.0903,-0.54187 -0.45155,-0.72249 -0.63218,0 -0.27093,1.08373 -0.36124,2.70933 -0.36124,3.79306 0,9.48267 7.3152,11.74044 12.28231,11.74044 4.33493,0 8.30862,-1.08373 10.74702,-2.25777 -0.45156,1.53529 -0.72249,3.43182 -0.72249,4.96711 0,9.03111 6.32178,11.37919 10.29546,11.37919 0.72249,0 1.71592,-0.0903 2.52872,-0.36124 0.27093,-0.18062 0.0903,-0.54187 -0.27094,-0.54187 -0.36124,0.0903 -1.08373,0.18063 -1.53529,0.18063 -6.05084,0 -9.48266,-6.86365 -9.48266,-12.55325 0,-1.08373 0.18062,-2.52871 0.45155,-3.70275 11.10827,-6.32178 16.16569,-14.17884 20.41031,-21.31342 8.128,-3.88338 15.35289,-5.50898 21.85529,-7.94738 -4.60587,7.76676 -8.48925,16.88818 -8.48925,21.9456 0,4.8768 2.70934,7.85707 7.85707,7.85707 3.70275,0 8.39893,-1.53529 11.92106,-2.98027 0.99343,-0.45156 0,-1.08373 -0.36124,-0.72249 -2.52871,1.08373 -4.96711,1.71591 -6.95396,1.71591 -4.69617,0 -7.49582,-2.88995 -7.49582,-8.128 0,-5.32835 2.70934,-12.37262 7.67645,-20.95217 23.6615,-7.85707 27.54488,-16.07538 27.54488,-20.50062 z m -3.88338,0.72249 c 0,8.66986 -10.83733,14.72071 -23.11964,18.6944 8.9408,-14.90134 15.35289,-21.04249 20.95218,-21.04249 1.26435,0 2.16746,0.72249 2.16746,2.34809 z m -51.02577,29.3511 c -4.87679,8.76018 -11.01795,15.4432 -18.51377,18.60409 1.71591,-4.60587 6.86364,-12.01138 18.51377,-18.60409 z" />
    <path
       id="path879"
       style="font-style:normal;font-variant:normal;font-weight:normal;font-stretch:normal;font-size:90.3111px;font-family:'Zapfino Extra LT Pro';-inkscape-font-specification:'Zapfino Extra LT Pro';stroke-width:0.264583"
       d="m 880.32219,325.80849 c 0.18062,-0.63218 0.63218,-1.53529 0.99342,-2.07716 0,-0.72249 -0.45155,-0.90311 -1.44497,-0.90311 -3.52214,0 -8.03769,4.24462 -8.03769,7.13458 0,1.44498 0.90311,2.61902 1.6256,3.79306 0.72249,1.08374 1.44498,2.4384 1.44498,3.97369 0,4.15431 -3.79307,4.60587 -5.6896,4.60587 -2.25778,0 -4.064,-1.80622 -4.69618,-3.97369 -0.0903,-0.27093 0,-0.36124 -0.27093,-0.36124 -0.36125,0.45155 -1.35467,1.08373 -1.89654,1.44497 0.36125,2.4384 2.34809,3.70276 6.05085,3.70276 2.34809,0 9.12142,-1.53529 9.12142,-7.76676 0,-1.53528 -0.99342,-2.98026 -1.98685,-4.42524 -1.08373,-1.53529 -1.71591,-2.34809 -1.71591,-3.34151 0,-1.89653 2.07716,-2.88996 3.79307,-2.88996 1.17404,0 1.89653,0.36125 2.25778,1.17405 0.0903,0.18062 0.27093,0.18062 0.45155,-0.0903 z" />
    <path
       id="path881"
       style="font-style:normal;font-variant:normal;font-weight:normal;font-stretch:normal;font-size:90.3111px;font-family:'Zapfino Extra LT Pro';-inkscape-font-specification:'Zapfino Extra LT Pro';stroke-width:0.264583"
       d="m 904.49735,330.50467 c 0.27094,-0.63218 0.27094,-1.08374 -0.36124,-0.45156 -2.70934,3.70275 -10.20516,11.01795 -14.99164,11.01795 -1.26436,0 -2.16747,-0.63217 -2.16747,-2.07715 0,-2.61902 3.52213,-9.7536 6.77333,-14.6304 0.18062,-0.27093 0.45156,-0.8128 0.45156,-1.08373 0,-0.18062 -0.0903,-0.27094 -0.45156,-0.27094 -0.45155,0 -2.4384,0.8128 -3.07058,1.71591 -1.89653,2.70934 -7.40551,11.3792 -7.40551,14.54009 0,2.61902 2.4384,3.07058 3.97369,3.07058 2.07716,0 4.78649,-0.90311 7.13458,-2.4384 3.16089,-2.07716 7.22489,-5.6896 10.11484,-9.39235 z m -4.064,-20.13938 c 0,-0.72249 -0.45155,-1.17404 -1.17404,-1.17404 -1.6256,0 -2.98027,1.80622 -2.98027,3.34151 0,0.72249 0.27094,1.08373 1.08374,1.08373 1.53528,0 3.07057,-1.80622 3.07057,-3.2512 z" />
    <path
       id="path883"
       style="font-style:normal;font-variant:normal;font-weight:normal;font-stretch:normal;font-size:90.3111px;font-family:'Zapfino Extra LT Pro';-inkscape-font-specification:'Zapfino Extra LT Pro';stroke-width:0.264583"
       d="m 924.15273,332.76244 c 0.36124,-0.36124 0.18062,-1.08373 -0.27094,-0.54186 -5.41866,6.59271 -11.46951,9.30204 -15.89475,9.30204 -3.52213,0 -5.14773,-1.89653 -5.14773,-3.79307 0,-0.45155 0,-1.08373 0.18062,-1.71591 4.51555,-1.89653 13.0048,-8.21831 13.0048,-12.01137 0,-0.72249 -0.54187,-1.53529 -1.80622,-1.53529 -0.72249,0 -1.98685,0.27093 -3.2512,0.90311 -3.52214,1.80622 -7.3152,5.87022 -9.48267,9.30204 -1.53529,2.34809 -2.16747,4.33493 -2.16747,6.05084 0,3.2512 2.98027,4.15432 6.59271,4.15432 6.23147,0 12.64356,-3.61245 18.24285,-10.11485 z m -20.95218,2.52871 c 1.26436,-4.42524 4.78649,-9.30204 8.21831,-11.37919 1.6256,-0.99343 2.61902,-0.72249 2.61902,0.45155 0,1.98684 -4.60586,7.85707 -10.83733,10.92764 z" />
    <path
       id="path885"
       style="font-style:normal;font-variant:normal;font-weight:normal;font-stretch:normal;font-size:90.3111px;font-family:'Zapfino Extra LT Pro';-inkscape-font-specification:'Zapfino Extra LT Pro';stroke-width:0.264583"
       d="m 979.46967,282.82041 c 0,-5.41867 -4.69618,-6.77334 -7.94738,-6.77334 -13.45635,0 -27.00302,21.67467 -38.47252,39.73689 -4.8768,7.76675 -9.7536,15.80444 -14.72071,24.92586 -0.18063,0.36124 -0.27094,0.72249 -0.27094,0.99342 0,0.8128 1.35467,1.08373 1.89654,1.08373 0.45155,0 0.8128,-0.36124 1.35466,-1.44497 1.26436,-2.52871 3.2512,-6.05085 4.96711,-9.03111 4.24462,-5.6896 7.13458,-7.3152 8.21831,-7.3152 0.18063,0 0.27094,0.27093 0.27094,0.45155 0,2.16747 -6.41209,11.46951 -6.41209,15.26258 0,2.07715 1.35467,3.2512 3.34151,3.2512 5.32835,0 13.18542,-7.22489 17.8816,-13.72729 0,-0.45155 -0.36125,-0.45155 -0.54187,-0.18062 -6.5024,8.66986 -11.83075,11.92106 -14.54009,11.92106 -1.6256,0 -2.70933,-0.99342 -2.70933,-2.88995 0,-3.43182 4.96711,-11.83075 6.95395,-14.6304 0.54187,-0.72249 0.8128,-1.26435 0.8128,-1.6256 0,-0.45155 -0.27093,-0.63218 -0.8128,-0.63218 -2.79964,0 -9.0311,4.96711 -10.74702,6.5024 21.67467,-42.62683 32.69262,-49.30986 41.99466,-49.30986 7.22489,0 8.66987,4.69618 8.66987,6.41209 0,0.54187 0.8128,0.90311 0.8128,-2.98026 z" />
  </g>
  <g
     style="font-size:10.5833px;line-height:1.25;font-family:'Trajan Pro';-inkscape-font-specification:'Trajan Pro';white-space:pre;shape-inside:url(#rect924)"
     id="text922"
     transform="translate(122.40341,44.616691)" />
  <g
     style="font-size:10.5833px;line-height:1.25;font-family:'Trajan Pro';-inkscape-font-specification:'Trajan Pro';white-space:pre;shape-inside:url(#rect1081)"
     id="text1079"
     transform="translate(122.40341,44.616691)" />
</svg>
