<?xml version="1.0" encoding="UTF-8"?> <!-- Generator: Adobe Illustrator 26.0.3, SVG Export Plug-In . SVG Version: 6.00 Build 0) --> <svg xmlns="http://www.w3.org/2000/svg" xmlns:xlink="http://www.w3.org/1999/xlink" version="1.1" id="Layer_1" x="0px" y="0px" viewBox="0 0 100.8 100.8" style="enable-background:new 0 0 100.8 100.8;" xml:space="preserve"> <style type="text/css"> .st0{fill:#5E8AB4;} .st1{fill:#9D2235;} </style> <path class="st0" d="M80.9,60.6c-1.1,0-2.1,1-2.1,2.1v26.8c0,1.1-0.8,2-2,2H16.4c-1.1,0-2-0.8-2-2V12c0-1.1,0.8-2,2-2h54.5h5.9 c1.1,0,2,0.8,2,2v5.6c0,1.1,1,2.1,2.1,2.1c1.3,0,2.1-1,2.1-2.1V12c0-3.4-2.8-6.2-6.2-6.2h-5.9c0,0,0,0,0,0H16.4 c-3.4,0-6.2,2.8-6.2,6.2v77.6c0,3.4,2.8,6.2,6.2,6.2h60.4c3.5,0,6.2-2.7,6.2-6.2V62.8C83,61.6,82,60.6,80.9,60.6z"></path> <g> <path class="st0" d="M38,61.6H23.8V47.4H38V61.6z M28,57.4h5.8v-5.8H28V57.4z"></path> </g> <g> <path class="st0" d="M55.4,56.6h-9c-1.1,0-2.1-1-2.1-2.1s1-2.1,2.1-2.1h9c1.1,0,2.1,1,2.1,2.1S56.5,56.6,55.4,56.6z"></path> </g> <g> <path class="st0" d="M38,82.7H23.8V68.4H38V82.7z M28,78.4h5.8v-5.8H28V78.4z"></path> </g> <g> <path class="st0" d="M38,40.6H23.8V26.4H38V40.6z M28,36.4h5.8v-5.8H28V36.4z"></path> </g> <g> <path class="st0" d="M67.3,31.4H46.2c-1.1,0-2.1-1-2.1-2.1c0-1.1,1-2.1,2.1-2.1h21.2c1.1,0,2.1,1,2.1,2.1 C69.5,30.5,68.6,31.4,67.3,31.4z"></path> </g> <g> <path class="st0" d="M61.8,39.6H46.3c-1.1,0-2.1-1-2.1-2.1s1-2.1,2.1-2.1H62c1.1,0,2.1,1,2.1,2.1S63.1,39.6,61.8,39.6z"></path> </g> <path class="st1" d="M98.1,22l-6.5-4.5c-1-0.7-2.3-0.4-3,0.6l-1.9,2.8c0,0,0,0,0,0L56.5,65.3c-0.1,0.1-0.3,0.4-0.3,0.7l-2.5,10.7 c-0.3,0.8,0.1,1.8,0.8,2.3c0.3,0.3,0.7,0.4,1.1,0.4c0.4,0,0.8-0.1,1.1-0.3l9-6.3c0.3-0.1,0.4-0.3,0.6-0.6L96,28.9 c0.3-0.4,2-3,2.7-3.9C99.4,24,99.1,22.7,98.1,22z M63.1,69.7l-4.2,2.8l1.1-4.9l30.7-44.9l3.1,2.1L63.1,69.7z"></path> </svg> 