<?xml version="1.0" encoding="UTF-8"?> <!-- Generator: Adobe Illustrator 26.0.3, SVG Export Plug-In . SVG Version: 6.00 Build 0) --> <svg xmlns="http://www.w3.org/2000/svg" xmlns:xlink="http://www.w3.org/1999/xlink" version="1.1" id="Layer_1" x="0px" y="0px" viewBox="0 0 100.8 100.8" style="enable-background:new 0 0 100.8 100.8;" xml:space="preserve"> <style type="text/css"> .st0{fill:#9D2235;} .st1{fill:#5E8AB4;} </style> <path class="st0" d="M73.5,52.9c-2-13.5-14.7-22.8-28.2-20.8C33.2,34,24.2,44.4,24.3,56.8c0,0.4,0,0.9,0,1.3 c-8.6,1.6-14.2,9.9-12.6,18.5c1.4,7.4,7.9,12.8,15.5,12.9h5.2c1.5,0,2.8-1.2,2.8-2.8s-1.2-2.8-2.8-2.8h-5.2 c-5.7-0.3-10-5.1-9.7-10.8c0.3-5.2,4.5-9.4,9.7-9.7h0.4c0.8,0,1.6-0.4,2.1-1c0.5-0.6,0.8-1.5,0.6-2.3c-0.2-1.1-0.3-2.2-0.3-3.3 c0.2-10.6,8.9-19.1,19.6-18.9c9.9,0.2,18.1,7.9,18.8,17.8c0.1,1.5,1.3,2.6,2.8,2.6c7.1,0.3,12.5,6.3,12.2,13.4 c-0.3,6.6-5.6,11.9-12.2,12.2c-1.5,0-2.8,1.2-2.8,2.8s1.2,2.8,2.8,2.8c10.1,0,18.3-8.2,18.4-18.3c0-9.2-6.8-17-15.9-18.2L73.5,52.9z "></path> <path class="st0" d="M52,62.1c-1-0.8-2.4-0.8-3.4,0l-10.9,8.4c-1.2,0.9-1.4,2.7-0.5,3.9c0.5,0.7,1.3,1.1,2.2,1.1 c0.6,0,1.2-0.2,1.7-0.6l6.4-5v16.7c0,1.5,1.2,2.8,2.8,2.8c1.5,0,2.8-1.2,2.8-2.8V69.9l6.5,4.9c1.1,1.1,2.9,1,3.9-0.1s1-2.9-0.1-3.9 c-0.1-0.1-0.3-0.2-0.4-0.3L52,62.1z"></path> <g> <path class="st1" d="M31,10.4c-0.3-0.3-0.8-0.4-1.4-0.4H18.5c-0.6,0-1.1,0.1-1.4,0.4c-0.3,0.3-0.5,0.7-0.5,1.1 c0,0.5,0.2,0.8,0.5,1.1c0.3,0.3,0.8,0.4,1.4,0.4h3.7v12.4c0,0.7,0.2,1.3,0.5,1.7c0.3,0.4,0.8,0.6,1.4,0.6c0.5,0,1-0.2,1.3-0.6 c0.3-0.4,0.5-0.9,0.5-1.7V13.1h3.7c0.6,0,1.1-0.1,1.4-0.4c0.3-0.3,0.5-0.7,0.5-1.1C31.5,11,31.4,10.7,31,10.4z"></path> <path class="st1" d="M42.4,13c-0.2-0.6-0.4-1-0.5-1.3c-0.1-0.3-0.3-0.7-0.5-1c-0.2-0.3-0.5-0.6-0.8-0.7c-0.3-0.2-0.8-0.3-1.3-0.3 c-0.5,0-0.9,0.1-1.3,0.3c-0.3,0.2-0.6,0.4-0.8,0.8c-0.2,0.3-0.4,0.7-0.6,1.1l-4.8,12.3c-0.2,0.4-0.3,0.8-0.4,1.1 c-0.1,0.3-0.1,0.5-0.1,0.8c0,0.4,0.2,0.8,0.5,1.2c0.4,0.3,0.8,0.5,1.2,0.5c0.6,0,1-0.2,1.2-0.5c0.2-0.3,0.5-0.9,0.8-1.8l0.8-2.1 h6.8l0.8,2.1c0.1,0.3,0.2,0.6,0.4,0.9c0.2,0.4,0.3,0.6,0.4,0.8c0.1,0.2,0.3,0.3,0.5,0.4c0.2,0.1,0.5,0.2,0.8,0.2 c0.5,0,0.9-0.2,1.3-0.5s0.5-0.8,0.5-1.2c0-0.4-0.2-1-0.5-1.9L42.4,13z M41.6,20.4h-4.8l2.4-6.6L41.6,20.4z"></path> <path class="st1" d="M61.8,11.3c-0.5-0.5-1.2-0.8-1.9-1c-0.7-0.2-1.8-0.3-3.1-0.3h-4.5c-0.8,0-1.4,0.2-1.8,0.5 c-0.4,0.4-0.6,0.9-0.6,1.7v13.2c0,0.7,0.2,1.3,0.5,1.6c0.3,0.4,0.8,0.6,1.4,0.6c0.5,0,1-0.2,1.3-0.6c0.3-0.4,0.5-0.9,0.5-1.7v-4.7 h3.1c2.2,0,3.8-0.5,4.9-1.4c1.1-0.9,1.7-2.3,1.7-4.1c0-0.8-0.1-1.6-0.4-2.3C62.8,12.3,62.4,11.7,61.8,11.3z M59.7,15.3 c0,0.6-0.1,1.1-0.4,1.5c-0.3,0.4-0.7,0.6-1.2,0.8c-0.5,0.2-1.2,0.3-2,0.3h-2.2v-5H56c1.5,0,2.5,0.2,3,0.7 C59.4,14,59.7,14.6,59.7,15.3z"></path> <path class="st1" d="M78.8,19.8c-0.3-0.6-0.8-1.1-1.3-1.5c-0.6-0.4-1.2-0.7-2-1c-0.8-0.3-1.7-0.5-2.6-0.8c-0.8-0.2-1.3-0.3-1.7-0.4 c-0.3-0.1-0.7-0.2-1-0.4c-0.3-0.2-0.6-0.4-0.7-0.6c-0.2-0.2-0.3-0.5-0.3-0.8c0-0.5,0.3-0.9,0.8-1.3c0.5-0.4,1.2-0.6,2.1-0.6 c0.9,0,1.6,0.2,2,0.5c0.4,0.4,0.8,0.8,1.1,1.5c0.3,0.5,0.5,0.8,0.7,1c0.2,0.2,0.6,0.3,1,0.3c0.5,0,0.9-0.2,1.2-0.5 c0.3-0.4,0.5-0.8,0.5-1.2c0-0.5-0.1-1-0.4-1.4c-0.2-0.5-0.6-1-1.1-1.4c-0.5-0.4-1.2-0.8-2-1.1c-0.8-0.3-1.7-0.4-2.8-0.4 c-1.3,0-2.5,0.2-3.5,0.6c-1,0.4-1.8,1-2.3,1.7c-0.5,0.8-0.8,1.6-0.8,2.6c0,1,0.3,1.9,0.8,2.6c0.5,0.7,1.2,1.2,2,1.6 c0.8,0.4,1.9,0.7,3.1,1c0.9,0.2,1.7,0.4,2.2,0.6c0.5,0.2,1,0.4,1.3,0.8c0.3,0.3,0.5,0.8,0.5,1.3c0,0.7-0.3,1.2-0.9,1.7 c-0.6,0.5-1.4,0.7-2.4,0.7c-0.7,0-1.3-0.1-1.8-0.3c-0.4-0.2-0.8-0.5-1-0.9c-0.2-0.4-0.5-0.8-0.7-1.3c-0.2-0.5-0.4-0.8-0.7-1.1 c-0.3-0.3-0.6-0.4-1-0.4c-0.5,0-0.9,0.2-1.2,0.5c-0.3,0.3-0.5,0.7-0.5,1.2c0,0.7,0.3,1.5,0.8,2.3c0.5,0.8,1.2,1.4,1.9,1.9 c1.1,0.6,2.5,1,4.3,1c1.4,0,2.7-0.2,3.7-0.7c1-0.5,1.9-1.1,2.4-2s0.8-1.8,0.8-2.9C79.3,21.2,79.1,20.4,78.8,19.8z"></path> </g> </svg> 