<?xml version="1.0" encoding="UTF-8"?> <!-- Generator: Adobe Illustrator 26.0.3, SVG Export Plug-In . SVG Version: 6.00 Build 0) --> <svg xmlns="http://www.w3.org/2000/svg" xmlns:xlink="http://www.w3.org/1999/xlink" version="1.1" id="Layer_1" x="0px" y="0px" viewBox="0 0 100.8 100.8" style="enable-background:new 0 0 100.8 100.8;" xml:space="preserve"> <style type="text/css"> .st0{fill:#5E8AB4;} .st1{fill:#9D2235;} </style> <path class="st0" d="M64.6,11.4l9,9h-9V11.4z M74.6,89.9l-50-9.1V19.9l35-8.2V23c0,1.4,1.1,2.5,2.5,2.5h12.5V89.9z M79.6,88.1V20.4 c0-0.7-0.3-1.3-0.7-1.8L74,13.7l-4.3-4.3l-3.3-3.3c-0.6-0.6-1.5-0.9-2.3-0.7l-42.5,10c-1.2,0.3-2,1.3-2,2.5v65 c0,1.2,0.9,2.2,2.1,2.5l55,10c0.1,0,0.3,0,0.4,0c0.6,0,1.1-0.2,1.6-0.6s0.8-1,0.9-1.7V88.1z"></path> <path class="st1" d="M67.1,40.4h-35c-1.4,0-2.5,1.1-2.5,2.5s1.1,2.5,2.5,2.5h35c1.4,0,2.5-1.1,2.5-2.5S68.5,40.4,67.1,40.4z"></path> <path class="st1" d="M29.6,33c0,1.3,1.2,2.4,2.5,2.4h0.1l35-1.3c1.4,0,2.5-1.2,2.4-2.6c-0.1-1.4-1.2-2.5-2.6-2.4l-35,1.3 C30.6,30.5,29.6,31.6,29.6,33z"></path> <path class="st1" d="M67.2,51.7l-35-1.3c-1.4-0.1-2.5,1-2.6,2.4s1,2.5,2.4,2.6l35,1.3h0.1c1.3,0,2.4-1.1,2.5-2.4 C69.6,52.9,68.6,51.7,67.2,51.7z"></path> <path class="st1" d="M67.3,62.9l-35-2.5c-1.4-0.1-2.6,0.9-2.7,2.3s0.9,2.6,2.3,2.7l35,2.5c0.1,0,0.1,0,0.2,0c1.3,0,2.4-1,2.5-2.3 C69.7,64.2,68.7,63,67.3,62.9z"></path> <path class="st1" d="M67.4,74.2l-35-3.8c-1.4-0.1-2.6,0.8-2.8,2.2c-0.2,1.4,0.8,2.6,2.2,2.8l35,3.8c0.1,0,0.2,0,0.3,0 c1.3,0,2.3-1,2.5-2.2C69.7,75.5,68.7,74.3,67.4,74.2z"></path> </svg> 