<?xml version="1.0" encoding="UTF-8"?> <!-- Generator: Adobe Illustrator 26.0.3, SVG Export Plug-In . SVG Version: 6.00 Build 0) --> <svg xmlns="http://www.w3.org/2000/svg" xmlns:xlink="http://www.w3.org/1999/xlink" version="1.1" id="Layer_1" x="0px" y="0px" viewBox="0 0 100.8 100.8" style="enable-background:new 0 0 100.8 100.8;" xml:space="preserve"> <style type="text/css"> .st0{fill:#5E8AB4;} .st1{fill:#9D2235;} </style> <path class="st0" d="M92.5,5.4L80.4,7.6C80.3,7,80,6.4,79.5,5.9c-0.6-0.5-1.3-0.7-2-0.5l-22,4l-3.3-3.3c-0.6-0.6-1.5-0.9-2.3-0.7 l-42.5,10c-1.2,0.3-2,1.3-2,2.5v65c0,1.2,0.9,2.2,2.1,2.5l55,10c0.1,0,0.3,0,0.4,0c0.6,0,1.1-0.2,1.6-0.6s0.8-1,0.9-1.7l12.1,2.3 c0.1,0,0.3,0,0.4,0c0.6,0,1.1-0.2,1.6-0.6s0.8-1,0.9-1.7l12.1,2.3c0.1,0,0.3,0,0.4,0c0.6,0,1.1-0.2,1.6-0.6c0.6-0.5,0.9-1.2,0.9-1.9 v-85c0-0.7-0.3-1.4-0.9-1.9S93.2,5.3,92.5,5.4z M50.4,11.4l9,9h-9V11.4z M60.4,89.9l-50-9.1V19.9l35-8.2V23c0,1.4,1.1,2.5,2.5,2.5 h12.5V89.9z M75.4,89.9l-10-1.8V20.4c0-0.7-0.3-1.3-0.7-1.8l-4.9-4.9l15.6-2.8V89.9z M90.4,89.9l-10-1.8V12.7l10-1.8V89.9z"></path> <path class="st1" d="M52.9,40.4h-35c-1.4,0-2.5,1.1-2.5,2.5s1.1,2.5,2.5,2.5h35c1.4,0,2.5-1.1,2.5-2.5S54.3,40.4,52.9,40.4z"></path> <path class="st1" d="M15.4,33c0,1.3,1.2,2.4,2.5,2.4H18l35-1.3c1.4,0,2.5-1.2,2.4-2.6c-0.1-1.4-1.2-2.5-2.6-2.4l-35,1.3 C16.4,30.5,15.4,31.6,15.4,33z"></path> <path class="st1" d="M53,51.7l-35-1.3c-1.4-0.1-2.5,1-2.6,2.4s1,2.5,2.4,2.6l35,1.3h0.1c1.3,0,2.4-1.1,2.5-2.4 C55.4,52.9,54.4,51.7,53,51.7z"></path> <path class="st1" d="M53.1,62.9l-35-2.5c-1.4-0.1-2.6,0.9-2.7,2.3c-0.1,1.4,0.9,2.6,2.3,2.7l35,2.5c0.1,0,0.1,0,0.2,0 c1.3,0,2.4-1,2.5-2.3C55.5,64.2,54.5,63,53.1,62.9z"></path> <path class="st1" d="M53.2,74.2l-35-3.8c-1.4-0.1-2.6,0.8-2.8,2.2s0.8,2.6,2.2,2.8l35,3.8c0.1,0,0.2,0,0.3,0c1.3,0,2.3-1,2.5-2.2 C55.5,75.5,54.5,74.3,53.2,74.2z"></path> </svg> 