<?xml version="1.0" encoding="UTF-8"?> <!-- Generator: Adobe Illustrator 26.0.3, SVG Export Plug-In . SVG Version: 6.00 Build 0) --> <svg xmlns="http://www.w3.org/2000/svg" xmlns:xlink="http://www.w3.org/1999/xlink" version="1.1" id="Layer_1" x="0px" y="0px" viewBox="0 0 100.8 100.8" style="enable-background:new 0 0 100.8 100.8;" xml:space="preserve"> <style type="text/css"> .st0{fill:#5E8AB4;} .st1{fill:#9D2235;} </style> <path class="st0" d="M92.8,54.9l-9.4-9.4c-1.1-1.1-3-1.1-4.1,0l-9.4,9.4c-0.9,0.9-1.1,2.1-0.6,3.2c0.5,1.1,1.5,1.8,2.7,1.8h4.9 C73.6,75.9,59,87,42.4,85.9c-16.2-1.1-29.2-14.2-30.3-30.3c-0.6-8.9,2.3-17.4,8.2-24.1c5.9-6.6,14-10.5,22.9-11 c1.5-0.1,2.6-1.3,2.6-2.8v-2c0-0.8-0.3-1.5-0.9-2c-0.6-0.5-1.3-0.8-2.1-0.8c-10.9,0.5-20.9,5.3-28.2,13.5 C7.3,34.6,3.7,45.1,4.5,56.1c1.4,20,17.5,36,37.4,37.4c0.9,0.1,1.9,0.1,2.8,0.1c19.6,0,36.7-14.3,39.9-33.7h6.2 c1.2,0,2.2-0.7,2.7-1.8C93.9,56.9,93.7,55.7,92.8,54.9z"></path> <path class="st1" d="M89.5,11.3l-5.6-5.5c-0.9-0.9-2.2-0.8-3,0.1l-2.3,2.5c0,0,0,0,0,0L41.2,47.1c-0.2,0.1-0.3,0.4-0.4,0.6 l-4.3,10.1c-0.4,0.8-0.2,1.8,0.5,2.4c0.2,0.3,0.6,0.5,1,0.6c0.4,0.1,0.9,0,1.2-0.1l10-4.7c0.3-0.1,0.5-0.2,0.7-0.5l36.4-37.7 c0.3-0.4,2.4-2.6,3.3-3.4C90.4,13.5,90.3,12.2,89.5,11.3z M47,52.5l-4.6,2.1l1.9-4.7L82,10.8l2.7,2.6L47,52.5z"></path> </svg> 