<?xml version="1.0" encoding="UTF-8"?> <svg xmlns="http://www.w3.org/2000/svg" xmlns:xlink="http://www.w3.org/1999/xlink" width="250.051" height="63.988" viewBox="0 0 250.051 63.988"><defs><style>.a{fill:none;}.b{fill:#fff;}.c{clip-path:url(#a);}</style><clipPath id="a"><rect class="a" width="250.051" height="63.988"></rect></clipPath></defs><g transform="translate(0 0)"><path class="b" d="M66.762,21.435l3.372,8.946H63.266ZM58.868,37.227h1.78l2.1-5.43h7.942l2.123,5.43h1.788l-6.841-17.45H65.905Z" transform="translate(13.709 4.606)"></path><g transform="translate(0 0)"><g class="c"><path class="b" d="M85.438,25.123A5.293,5.293,0,0,0,80.087,20.9c-4.617,0-6.574,3.858-6.574,7.673s1.957,7.675,6.574,7.675c3.224,0,5.275-2.493,5.595-5.6h1.663c-.462,4.276-3.178,7.014-7.258,7.014-5.495,0-8.236-4.325-8.236-9.09s2.741-9.091,8.236-9.091c3.3,0,6.575,1.978,7.013,5.644Z" transform="translate(16.732 4.536)"></path><path class="b" d="M86.439,19.777h2.445l6.039,15.3,6.01-15.3h2.446v17.45h-1.663V22.144h-.051L95.7,37.227H94.138L88.151,22.144H88.1V37.227H86.439Z" transform="translate(20.129 4.606)"></path><path class="b" d="M105.754,31.51c0,2.324,1.814,3.229,3.865,3.229,1.341,0,3.4-.392,3.4-2.172,0-1.885-2.619-2.206-5.183-2.889-2.59-.682-5.21-1.688-5.21-4.964,0-3.569,3.373-5.277,6.526-5.277,3.641,0,6.992,1.592,6.992,5.623h-3.715c-.121-2.1-1.615-2.64-3.451-2.64-1.216,0-2.633.51-2.633,1.978,0,1.343.83,1.516,5.2,2.64,1.275.318,5.179,1.123,5.179,5.086,0,3.2-2.511,5.594-7.257,5.594-3.863,0-7.482-1.907-7.428-6.208Z" transform="translate(23.762 4.527)"></path><rect class="b" width="3.838" height="17.45" transform="translate(142.763 24.382)"></rect><path class="b" d="M134.4,35.326a5.9,5.9,0,0,1-4.787,2.391c-5.4,0-8.58-4.03-8.58-9.068,0-5.177,3.178-9.212,8.58-9.212,3.564,0,6.937,2.2,7.354,6.158H133.3a3.575,3.575,0,0,0-3.686-2.934c-3.448,0-4.739,2.934-4.739,5.988,0,2.913,1.291,5.844,4.739,5.844a3.778,3.778,0,0,0,4.154-3.764H129.9V27.87h7.339V37.3h-2.445Z" transform="translate(28.184 4.527)"></path><path class="b" d="M149.048,35.326a5.9,5.9,0,0,1-4.787,2.391c-5.4,0-8.582-4.03-8.582-9.068,0-5.177,3.181-9.212,8.582-9.212,3.564,0,6.94,2.2,7.357,6.158h-3.665a3.588,3.588,0,0,0-3.691-2.934c-3.446,0-4.743,2.934-4.743,5.988,0,2.913,1.3,5.844,4.743,5.844a3.777,3.777,0,0,0,4.151-3.764h-3.861V27.87h7.332V37.3H149.44Z" transform="translate(31.595 4.527)"></path><path class="b" d="M155.177,22.757h4.207c1.708,0,2.637.735,2.637,2.419,0,1.761-.93,2.5-2.637,2.5h-4.207Zm-3.835,14.47h3.835V30.406h3.837c1.931,0,2.638.806,2.908,2.638a19.263,19.263,0,0,0,.611,4.183h3.835c-.683-.98-.657-3.032-.734-4.133-.121-1.759-.66-3.6-2.543-4.083v-.048a4.287,4.287,0,0,0,2.762-4.377,4.79,4.79,0,0,0-5.107-4.809h-9.406Z" transform="translate(35.243 4.606)"></path><path class="b" d="M172.677,24.076h.048l2.2,6.4H170.4Zm-8.531,13.151h3.886l1.366-3.891h6.528l1.319,3.891h3.982L174.7,19.777H170.77Z" transform="translate(38.225 4.606)"></path><path class="b" d="M182.275,22.757h2.981c1.785,0,3.377.391,3.377,2.615s-1.592,2.615-3.377,2.615h-2.981Zm-3.837,14.47h3.837V30.971h4.034c4.346,0,6.036-2.763,6.036-5.6s-1.69-5.595-6.036-5.595h-7.871Z" transform="translate(41.553 4.606)"></path><path class="b" d="M190.865,19.777h3.84v6.7h7.063v-6.7H205.6v17.45h-3.835V29.7h-7.063v7.529h-3.84Z" transform="translate(44.447 4.606)"></path><path class="b" d="M21.221,19.747c11.313-8.4,24.149-12.63,31.1-10.871C42.647-1.368,26.226-3.086,13.632,5.511,1.134,14.042-3.282,29.781,2.526,42.476c.756-6.068,7.438-14.369,18.7-22.729" transform="translate(0 0)"></path><rect class="b" width="0.002" height="0.007" transform="translate(4.817 46.586)"></rect><path class="b" d="M21.381,19.082C7.736,29.22.809,39.351,3.964,44.474a4.821,4.821,0,0,1-.253-.573,2.86,2.86,0,0,0,.132.279c3.064,4.479,15.236,1.592,28.019-6.371-8.951,4.59-16.774,5.79-19.047,2.428-2.892-4.267,4.293-14.286,16.046-22.372,9.962-6.858,20-10.108,24.588-8.342a3.969,3.969,0,0,1,.9.862l.007-.007c-.055-.081-.125-.154-.182-.24C50.378,5.65,35.65,8.484,21.381,19.082" transform="translate(0.748 1.883)"></path><path class="b" d="M47.406,14.185c-.018-.023-.03-.051-.047-.075h-.01a.9.9,0,0,1,.038.088Z" transform="translate(11.026 3.286)"></path><path class="b" d="M6.871,49.063c3.621,4.555,18.378,1.7,32.708-8.948C53.255,29.958,60.19,19.794,56.972,14.686a5.164,5.164,0,0,1,.254.563c-.058-.1-.091-.217-.154-.313-3.06-4.477-15.232-1.592-28.019,6.374C38,16.722,45.828,15.525,48.1,18.877,51,23.153,43.813,33.17,32.063,41.254c-9.978,6.862-20.019,10.113-24.6,8.337a3.951,3.951,0,0,1-.884-.858h-.01c.084.126.182.232.272.353Z" transform="translate(1.529 2.987)"></path><path class="b" d="M58.62,17.515c-.753,6.068-7.435,14.368-18.693,22.729C28.44,48.777,15.831,53,8.959,51.214c9.7,10.085,26,11.73,38.522,3.186C59.949,45.886,64.375,30.193,58.62,17.515" transform="translate(2.086 4.079)"></path><path class="b" d="M21.221,19.747c11.313-8.4,24.149-12.63,31.1-10.871C42.647-1.368,26.226-3.086,13.632,5.511,1.134,14.042-3.282,29.781,2.526,42.476c.756-6.068,7.438-14.369,18.7-22.729" transform="translate(0 0)"></path><rect class="b" width="0.002" height="0.007" transform="translate(4.817 46.586)"></rect><path class="b" d="M21.381,19.082C7.736,29.22.809,39.351,3.964,44.474a4.821,4.821,0,0,1-.253-.573,2.86,2.86,0,0,0,.132.279c3.064,4.479,15.236,1.592,28.019-6.371-8.951,4.59-16.774,5.79-19.047,2.428-2.892-4.267,4.293-14.286,16.046-22.372,9.962-6.858,20-10.108,24.588-8.342a3.969,3.969,0,0,1,.9.862l.007-.007c-.055-.081-.125-.154-.182-.24C50.378,5.65,35.65,8.484,21.381,19.082" transform="translate(0.748 1.883)"></path><path class="b" d="M47.406,14.185c-.018-.023-.03-.051-.047-.075h-.01a.9.9,0,0,1,.038.088Z" transform="translate(11.026 3.286)"></path><path class="b" d="M6.871,49.063c3.621,4.555,18.378,1.7,32.708-8.948C53.255,29.958,60.19,19.794,56.972,14.686a5.164,5.164,0,0,1,.254.563c-.058-.1-.091-.217-.154-.313-3.06-4.477-15.232-1.592-28.019,6.374C38,16.722,45.828,15.525,48.1,18.877,51,23.153,43.813,33.17,32.063,41.254c-9.978,6.862-20.019,10.113-24.6,8.337a3.951,3.951,0,0,1-.884-.858h-.01c.084.126.182.232.272.353Z" transform="translate(1.529 2.987)"></path><path class="b" d="M58.62,17.515c-.753,6.068-7.435,14.368-18.693,22.729C28.44,48.777,15.831,53,8.959,51.214c9.7,10.085,26,11.73,38.522,3.186C59.949,45.886,64.375,30.193,58.62,17.515" transform="translate(2.086 4.079)"></path></g></g></g></svg> 