<?xml version="1.0" encoding="UTF-8"?> <!-- Generator: Adobe Illustrator 26.0.3, SVG Export Plug-In . SVG Version: 6.00 Build 0) --> <svg xmlns="http://www.w3.org/2000/svg" xmlns:xlink="http://www.w3.org/1999/xlink" version="1.1" id="Layer_1" x="0px" y="0px" viewBox="0 0 100.8 100.8" style="enable-background:new 0 0 100.8 100.8;" xml:space="preserve"> <style type="text/css"> .st0{fill:#9D2235;} .st1{fill:#5E8AB4;} </style> <path class="st0" d="M73.5,52.9c-2-13.5-14.7-22.8-28.2-20.8C33.2,34,24.2,44.4,24.3,56.8c0,0.4,0,0.9,0,1.3 c-8.6,1.6-14.2,9.9-12.6,18.5c1.4,7.4,7.9,12.8,15.5,12.9h5.2c1.5,0,2.8-1.2,2.8-2.8s-1.2-2.8-2.8-2.8h-5.2 c-5.7-0.3-10-5.1-9.7-10.8c0.3-5.2,4.5-9.4,9.7-9.7h0.4c0.8,0,1.6-0.4,2.1-1c0.5-0.6,0.8-1.5,0.6-2.3c-0.2-1.1-0.3-2.2-0.3-3.3 c0.2-10.6,8.9-19.1,19.6-18.9c9.9,0.2,18.1,7.9,18.8,17.8c0.1,1.5,1.3,2.6,2.8,2.6c7.1,0.3,12.5,6.3,12.2,13.4 c-0.3,6.6-5.6,11.9-12.2,12.2c-1.5,0-2.8,1.2-2.8,2.8s1.2,2.8,2.8,2.8c10.1,0,18.3-8.2,18.4-18.3c0-9.2-6.8-17-15.9-18.2L73.5,52.9z "></path> <path class="st1" d="M22.5,42c1.5,0,2.8-1.2,2.8-2.8V17H66l9.4,9.5v21.1c0,1.5,1.2,2.8,2.8,2.8s2.8-1.2,2.8-2.8V25.3 c0-0.7-0.3-1.5-0.8-2L69,12.2c-0.5-0.5-1.2-0.8-2-0.8H22.5c-1.5,0-2.8,1.2-2.8,2.8v25.1C19.7,40.8,20.9,42,22.5,42z"></path> <path class="st0" d="M52,62.1c-1-0.8-2.4-0.8-3.4,0l-10.9,8.4c-1.2,0.9-1.4,2.7-0.5,3.9c0.5,0.7,1.3,1.1,2.2,1.1 c0.6,0,1.2-0.2,1.7-0.6l6.4-5v16.7c0,1.5,1.2,2.8,2.8,2.8c1.5,0,2.8-1.2,2.8-2.8V69.9l6.5,4.9c1.1,1.1,2.9,1,3.9-0.1s1-2.9-0.1-3.9 c-0.1-0.1-0.3-0.2-0.4-0.3L52,62.1z"></path> <path class="st1" d="M36.2,22.5c-1.5,0-2.8,1.2-2.8,2.8c0,1.5,1.2,2.8,2.8,2.8h25.1c1.5,0,2.8-1.2,2.8-2.8c0-1.5-1.2-2.8-2.8-2.8 H36.2z"></path> </svg> 