<svg xmlns="http://www.w3.org/2000/svg" class="tw-h-auto" height="114" id="uor-full-logo" viewBox="0 0 357 114" width="357"><title id="uor-full-logo" lang="en">University of Regina Logo</title><g fill="none" fill-rule="nonzero"> <g id="uor-logo-shield"> <path d="M91.965 0H0v.787c0 .358.143 34.281 0 43.657A80.729 80.729 0 009.375 81.8c6.441 10.592 17.176 25.407 36.285 30.846h.429c9.232-2.648 23.045-8.731 36.428-30.917a80.658 80.658 0 009.375-37.359c-.143-9.519 0-43.3 0-43.657L91.965 0z" fill="#143727"></path> <path d="M87.957 63.481L46.018 31.562 4.079 63.481v.215a78.15 78.15 0 002.362 7.658 63.411 63.411 0 004.008 8.874l35.569-27.41L81.444 80.3h.072l.573-.93a80.729 80.729 0 005.869-15.888l-.001-.001z" fill="#FFB711"></path> <g fill="#FFB711"> <path d="M41.081 21.113a4.724 4.724 0 012.147-.644c.852 0 1.68.276 2.362.787V9.375a3.435 3.435 0 00-2.429-1.144 4.223 4.223 0 00-2.362.644 3.65 3.65 0 01-2.433.286v11.88a2.075 2.075 0 001.574.5c.41-.052.802-.199 1.145-.429l-.004.001z"></path> <path d="M37.788 22.113a3.221 3.221 0 002 .5 3.722 3.722 0 001.145-.358 5.94 5.94 0 012.219-.5 3.006 3.006 0 012.147.716h.072l.286-.5a3.793 3.793 0 00-2.362-.859 4.223 4.223 0 00-2 .644c-.411.253-.878.4-1.36.429a2.5 2.5 0 01-1.789-.5l-.358.428zM50.957 21.113a2.5 2.5 0 001.145.358 2.076 2.076 0 001.575-.5V9.231a3.65 3.65 0 01-2.433-.286 4.437 4.437 0 00-2.362-.716 3.507 3.507 0 00-2.434 1.219v11.737a3.936 3.936 0 012.362-.787c.763.061 1.5.307 2.147.716v-.001z"></path> <path d="M34.997 10.879v14.313h9.519v-.285a1.431 1.431 0 01-.072-.358v-.142h-8.517v-13.6l-.93.072z"></path> <path d="M36.714 10.879v11.957l.143-.215V10.736zM47.521 26.481h9.876v-.859H47.092a1.646 1.646 0 01-2.147 0H34.639v.716h9.876c.35.465.921.71 1.5.644a1.575 1.575 0 001.5-.5l.006-.001zM47.45 25.193h9.59V10.879h-.93v13.6h-8.588v.143c-.002.146-.026.29-.072.429v.142zM36.715 23.69h7.515l.358-.143a3.435 3.435 0 00-2-.5 7.658 7.658 0 00-2 .286c-.394.127-.803.2-1.217.215a4.366 4.366 0 01-2.29-.429l-.429.573.063-.002z"></path> <path d="M46.377 21.898l.286.5h.072a3.006 3.006 0 012.147-.716 6.012 6.012 0 012.219.5c.36.18.746.301 1.145.358a3.221 3.221 0 002-.5l-.429-.573a2.5 2.5 0 01-1.789.5 2.934 2.934 0 01-1.36-.429 4.222 4.222 0 00-2-.644 3.722 3.722 0 00-2.362.859l.071.145zM46.019 22.687a4.079 4.079 0 01-1.074 1.431 1 1 0 00-.072.429 1.217 1.217 0 002.362 0 1 1 0 00-.143-.429 4.294 4.294 0 01-1-1.431h-.073zM37.645 21.542l.286-.5V9.519l-.286.358zM39.362 23.332l1.145-.215a7.8 7.8 0 012-.358 3.722 3.722 0 012.219.573l.429-.644a2.791 2.791 0 00-2-.716 5.8 5.8 0 00-2.075.5 3.865 3.865 0 01-1.288.358 3.507 3.507 0 01-2.147-.5l-.43.572c.664.333 1.406.48 2.147.429v.001zM37.072 22.258l.286-.429V10.091l-.286.358zM52.602 23.547a4.509 4.509 0 01-1.217-.215 7.658 7.658 0 00-2-.286 3.507 3.507 0 00-2 .5l.358.215h7.586l-.429-.573c-.72.325-1.514.45-2.298.359zM55.179 22.616l.143.215V10.879l-.143-.143zM54.607 21.828l.286.429V10.449l-.286-.358z"></path> <path d="M52.245 22.831a3.865 3.865 0 01-1.288-.358 5.8 5.8 0 00-2.075-.5 2.791 2.791 0 00-2 .716l.429.644a3.65 3.65 0 012.219-.573 7.8 7.8 0 012 .358l1.145.215a4.151 4.151 0 002.147-.429l-.429-.573a3.507 3.507 0 01-2.148.5zM54.034 21.041l.358.5V9.877l-.358-.358z"></path> </g> <g fill="#FFB711"> <path d="M25.193 24.405c-.716-.429-2.863-1.288-8.23-1.288-5.367 0-7.515.859-8.23 1.288.716.429 2.863 1.288 8.23 1.288 5.367 0 7.514-.858 8.23-1.288z"></path> <path d="M27.339 14.385l.143-.787.143-.787a1.861 1.861 0 001.5-1.646 1.5 1.5 0 00-2.863-.644c-.097.2-.146.421-.143.644v.215a1.718 1.718 0 00-.787-.215h-.065l-.787.215c-.258.136-.48.332-.644.573a1.813 1.813 0 001.217 2.72v1.429c-.072 1.789-.716 2.362-1.288 2.5h-.358c-.5 0-1.145-.286-2-1.5a3.006 3.006 0 01-2.075 1.288h-.429c-.644-.215-1.074-1-1.074-2.147a6.87 6.87 0 010-.859v-1.5h.072l.429.143h.429c.276-.004.547-.078.787-.215a1.5 1.5 0 00.5-.573 1.517 1.517 0 00-.644-2.075 1.718 1.718 0 00-.787-.143l-.859.143c.176-.217.32-.458.429-.716.127-.244.2-.512.215-.787a1.36 1.36 0 00-.143-.573l-.143-.215a1.574 1.574 0 00-.644-.429l-.723-.142-.716.143a1.575 1.575 0 00-.644.429l-.143.215a1.36 1.36 0 00-.143.573c.015.275.088.543.215.787.108.258.253.499.429.716l-.859-.143c-.27-.015-.54.034-.787.143a1.517 1.517 0 00-.644 2.075 1.5 1.5 0 00.5.573c.24.137.51.21.787.215h.358l.5-.143h.072v2.362c0 .286-.429 1.932-1.074 2.147h-.431a3.006 3.006 0 01-1.5-1.217c-.859 1.145-1.5 1.5-2 1.5h-.358c-.573-.143-1.217-.716-1.36-2.648v-1.427a1.813 1.813 0 001.217-2.72 1.789 1.789 0 00-.644-.573l-.787-.215h-.072a1.718 1.718 0 00-.787.215v-.215a1.431 1.431 0 00-.143-.644 1.5 1.5 0 00-2.863.644 1.861 1.861 0 001.575 1.718l.143.787.143.787 1.718 9.161c1.074-.573 3.435-1.288 8.517-1.288 5.224 0 7.586.787 8.588 1.36l.573-3.077 1.212-6.157z"></path> </g> <g fill="#FFB711"> <path d="M83.091 24.405c-.716-.429-2.863-1.288-8.23-1.288-5.367 0-7.515.859-8.23 1.288.716.429 2.863 1.288 8.23 1.288 5.367 0 7.442-.858 8.23-1.288z"></path> <path d="M85.237 14.385l.143-.787.143-.787a1.861 1.861 0 001.5-1.646 1.5 1.5 0 00-2.863-.644c-.097.2-.146.421-.143.644v.215a1.718 1.718 0 00-.787-.215h-.065l-.787.215c-.258.136-.48.332-.644.573a1.813 1.813 0 001.217 2.72v1.429c-.143 1.861-.787 2.433-1.36 2.648h-.358c-.5 0-1.145-.286-2-1.5a3.006 3.006 0 01-2.075 1.288h-.429c-.644-.215-1.074-1-1.074-2.147a6.872 6.872 0 010-.859v-1.648h.072l.429.143h.429c.276-.004.547-.078.787-.215a1.5 1.5 0 00.5-.573 1.517 1.517 0 00-.644-2.075 1.718 1.718 0 00-.787-.143l-.859.143c.176-.217.32-.458.429-.716.127-.244.2-.512.215-.787a1.36 1.36 0 00-.143-.573l-.143-.215a1.575 1.575 0 00-.644-.429l-.716-.143-.716.143a1.574 1.574 0 00-.644.429l-.143.215a1.36 1.36 0 00-.143.573c.015.275.088.543.215.787.108.258.253.499.429.716l-.859-.143c-.27-.015-.54.034-.787.143a1.517 1.517 0 00-.644 2.075 1.5 1.5 0 00.5.573c.24.137.51.21.787.215h.358l.5-.143h.072v2.362c0 .286-.429 1.932-1.074 2.147h-.429a3.006 3.006 0 01-1.5-1.217c-.859 1.145-1.5 1.5-2 1.5h-.358c-.573-.143-1.217-.716-1.36-2.648v-1.426a1.813 1.813 0 001.217-2.72 1.789 1.789 0 00-.644-.573l-.787-.215a1.718 1.718 0 00-.787.215v-.215a1.431 1.431 0 00-.143-.644 1.5 1.5 0 00-2.863.644c.08.82.69 1.49 1.5 1.646l.143.859.143.787 1.718 9.161c1.074-.573 3.435-1.288 8.517-1.288 5.224 0 7.586.787 8.588 1.36l.573-3.077 1.278-6.157z"></path> </g> <path d="M38.933 90.963c-.143 1.932-3.364 8.016-3.435 8.087a1.36 1.36 0 00.215 1.5c.34.226.737.35 1.145.358h.215c.286-.716 2.648-7.658 2.791-8.23a.429.429 0 11.787.215c0 .072-2.433 7.515-2.934 8.445.104.376.365.689.716.859l.93.143h.573c.286-.644 1.217-5.725 1.575-7.443l.286-1.431a.429.429 0 11.787.215l-.215 1.288v.143c-1 5.511-1.36 7.085-1.646 7.658.246.341.598.593 1 .716h.573a2 2 0 001.074-.215c.143-1 .716-8.373.716-9.018a.43.43 0 01.859 0c0 .5-.5 7.658-.716 9.161a2.863 2.863 0 001.575.573 1.932 1.932 0 001.217-.716c-.072-1.288-.644-7.8-.644-8.23a.429.429 0 01.358-.429h.286a.429.429 0 01.143.286c0 .072.644 6.441.644 8.3a2.29 2.29 0 001.217.429c.482-.04.935-.242 1.288-.573-.072-.573-.787-3.793-1-4.723a.429.429 0 01.286-.5h.286l.215.286s.93 3.578 1.074 4.8c.304.09.626.09.93 0 .403-.127.738-.41.93-.787-.072-.286-.859-2.576-3.364-9.232h-.072a.43.43 0 010-.286l.215-.215a.429.429 0 01.5.215h.072c1.932 5.153 3.077 8.23 3.292 9.232.324.014.645-.06.93-.215.277-.187.48-.466.573-.787-.358-.787-3.149-7.515-3.936-9.8a13.526 13.526 0 01-3.149.358c.183.945.496 1.86.93 2.72-2.5.143-4.509-2.648-4.509-2.648a42.653 42.653 0 01-5.511-.5c-.787-.155-.072-.224-.072-.009z" fill="#FFB711"></path> <g fill="#FFB711"> <path d="M48.524 87.456s.429.644-.215 2.934c.862-.017 1.723-.09 2.576-.215l.429-.215c.312-.179.6-.395.859-.644.1-.153.173-.322.215-.5.013-.23.087-.452.215-.644.225-.3.394-.64.5-1 0 0 .215-.358-.5-.286l-1.145.215s-.501.355-2.934.355zM46.376 89.532l-.787-2.219c-.17-.51-.69-.815-1.217-.716 0 0-.93.286-.143 1.145a2 2 0 01.429 1.074s0 2.362 3.149 4.008a5.081 5.081 0 01-.286-3.006s1-2.863-.93-3.435c0 0-.644-.286-.358.358a2 2 0 01.143 1.074v1.717zM43.084 87.17l-4.294-.716-.644-.143s-.286-.072-.143.215l.143.286.644 1a.93.93 0 01-.072 1s-1.074 1 1.074 1.145c0 0 3.722.429 4.366.358a6.8 6.8 0 01-.358-1.5 1.789 1.789 0 00-.358-.787 1.718 1.718 0 01-.358-.859v.001z"></path> </g> <g fill="#FFB711"> <path d="M42.225 85.167a.254.254 0 00-.143-.215h-.215l-1.217 1 1.36.215c.172-.304.247-.653.215-1zM40.293 79.369h.072l-.716.286a1 1 0 01.143.716l.215-.143a.859.859 0 01.286-.859zM52.46 73.859c-.072.072 0 .358.072.5l.93 1.646-1.217-.5a.526.526 0 00-.429-.072c-.072 0 .072.286.143.358l1.288 1.575-1.36-.429c0 .143-.215.286-.286.358a.742.742 0 01.573.429c.072.215-.358.93-.5 1.074a.644.644 0 01.358.787h.569c0-.143-.215-.787.072-1.074a.787.787 0 01.787-.143c0-.143-.072-1.074.286-1.288.358-.214.429-.072.787.143l.716-.429a1.5 1.5 0 01.5-.429c-.429-.429-2.075.143-2.147.143l1.861-1.431c.215-.215.215-.358.215-.358h-.427l-.716.286v-1.861L54.392 73h-.215c-.143.286-.644 1.574-.644 1.574l-.716-.429c-.216-.358-.286-.358-.357-.286zM45.088 74.86h.358v-.429zM44.516 71.783c.358 0 .573.072.644.286a3.432 3.432 0 01-.358 1.217h.143a.93.93 0 01.5.358l.358-3.077.429 3.793.429-.286c-.358-.429-.5-.787-.429-1 .071-.213.573-.429.716-.429a1.431 1.431 0 01-.358-1.288l-.644.143.787-.859c.859-.787.859-1.074.859-1.145h-.142a2.29 2.29 0 00-1 .5 2.362 2.362 0 01-.215-.644 6.8 6.8 0 00-.143-1c-.071-.143-.143-.215-.215-.215a.323.323 0 00-.215.215l-.143.859c-.056.29-.128.577-.215.859-.859-.573-1.074-.5-1.145-.5-.072.143.358.716.358.716l1 1.288-1.074-.358c-.5-.072-.644-.072-.644 0 .21.223.451.414.717.567zM39.649 72.213a9.877 9.877 0 00-1.646-.5c.254.364.425.78.5 1.217.143-.072.93-.429 1.217-.143.287.286.215.644-.072 1.36h.072a.93.93 0 01.716.215c.1.147.127.331.072.5h.286a1.086 1.086 0 01-.358-1c.143-.429.286-.358.716-.5l-.143-.215-.93.143.716-.644a.716.716 0 01.072-.573c.21-.2.505-.28.787-.215a.543.543 0 00.143-.286c0-.071-.143-.071-.429 0-.5.158-.98.374-1.431.644l1.288-1.789c.072-.143.215-.429.143-.5 0 0-.358-.072-1.074.573a5.01 5.01 0 01-.358-1.145 3.149 3.149 0 00-.215-.649h-.358c0 .072-.072.573-.072 1.074.01.27-.039.538-.143.787a2.075 2.075 0 00-1.074-.358h-.071v.143a7.872 7.872 0 001.646 1.861z"></path> <path d="M37.43 76.65a4.294 4.294 0 00-1.217.215l.573.358c.286-.215.573-.286.787-.143.214.143.358 1.074.358 1.288a.787.787 0 01.787.072c.286.286.215.859.215 1.074h.215l.93-.787a.5.5 0 010-.358.644.644 0 01.429-.286l-.286-.286-1.575.429 1.431-1.217c0-.072-.072-.286.358-.5-.072-.072-.215-.072-.787.072l-1.431.358 1.217-1.145h.076c.2-.17.348-.394.429-.644 0 0-.143-.072-.644.143l-1.217.644.93-1.431s.358-.573.286-.787c0 0-.215-.072-.644.286l-.358.358a3.363 3.363 0 01-.358-.787 5.941 5.941 0 00-.358-.93h-.358a5.8 5.8 0 000 1.145c.025.241 0 .485-.072.716-.072-.072-.93-.5-1.145-.286 0 .072 0 .358.93.93l1 .716-1.288-.143c-.143 0-.573 0-.644.143-.071.143 0 .143.143.286l1.288.497zM56.754 78.793h-.072c-.143-.143-1.074 0-1.074 0l.5-1.789v-.211h-.143c-.43.462-.813.964-1.145 1.5l-.358-.5c-.143-.215-.215-.286-.286-.286h-.072c-.143.072-.072.573-.072.573l.286 1.646-.787-.787c-.215-.143-.286-.215-.358-.143-.072.072-.072.429 0 .429l.644 1.574-.93-.644c-.215-.143-.429-.143-.5-.072-.071.071.072.716.072.787l.859 1.5-1.288-.93-.358-.143H51.6c-.143.143.072.716.072.716l.644 1.574-1.074-.93h-.215c-.143.143-.072.5-.072.573l1 1.646-1.217-.787-.358-.143c-.072.072 0 .358.072.5l.93 1.5-1.431-.787h-.215a.353.353 0 00-.072.215c-.048.395.027.795.215 1.145h.072l.787-.143a3.741 3.741 0 012.5-.286c.644-.215.787-.358.787-.429 0-.071-.358-.215-.358-.215l-1.431-.358 2-.358c.215-.072.286-.143.286-.286s-.358-.215-.358-.215l-1.861-.286 2.433-.429c.358-.143.573-.286.573-.429 0-.143-.286-.286-.286-.286l-1.431-.5 1.861-.286c.215-.072.358-.143.358-.215 0-.072-.286-.286-.286-.286l-1.5-.573 1.932-.429c.143-.072.286-.143.286-.215 0-.072-.358-.215-.358-.215l-1.36-.215 1.575-.644c.582-.281.654-.428.654-.428zM47.736 86.025l.286.286c.215-.215.286-.358.215-.429-.072-.071-.429.143-.501.143zM48.242 84.666c-.072-.072-.286-.072-.358-.072l-1.932.286a9.877 9.877 0 002.075-1.288c.143-.143.143-.215.143-.286h-.215l-2.433.573 1.785-1.073c1-.573.93-.93.93-1h-.072a.93.93 0 00-.573 0l-1.646.215 2-1.145c.143-.143.215-.215.143-.286a.43.43 0 00-.286-.072l-2 .143 1.288-.787c.716-.429.859-.716.859-.787a.072.072 0 000-.072c-.215-.286-2.075.5-2.075.5l1.217-1.217c.5-.5.573-.716.5-.787h-.143c-.362.103-.7.272-1 .5l-.286-1.5c-.072-.286-.143-.5-.215-.5h-.072c-.215 0-.286 1.217-.286 1.217-.047.292-.118.58-.215.859-.716-.573-1.074-.5-1.145-.5-.072.072.143.429.215.5l1.36 1.574-1.431-.5c-.5-.143-.573 0-.573 0a2.3 2.3 0 00.215.358l1.5 1.217c-1.646-.358-1.932-.072-1.932-.072l.286.5 1.932 1.074.215.143-2.075-.358c-.429-.072-.5 0-.5.072a.578.578 0 00.358.5l1.646 1.36-1.145-.358h-.359a.605.605 0 00-.429.143c-.072.072.286.5.358.5l2 1.217-2-.358h-.358c-.072.072.143.286.215.358l1.646.93c.5-.716 1.5-.286 1.5-.286.39-.186.752-.427 1.074-.716.218-.505.361-.648.294-.719zM43.729 85.882h-.143a.143.143 0 000 .143l.215-.215h-.072v.072z"></path> <path d="M41.509 83.878l-.358.143-1.217 1 .93-1.789a.962.962 0 00-.143-.573h-.215l-1.36 1.646.859-2.29c0-.072.215-.573.072-.716h-.072l-.358.143-1.145.859.716-1.431s.215-.644.072-.787c-.143-.143-.286-.072-.5.072l-.93.716.5-1.646c0-.072.072-.358-.072-.429-.144-.071-.215 0-.358.143l-.787 1 .215-1.789s.072-.573-.072-.644a.716.716 0 00-.286.286l-.286.573a9.8 9.8 0 00-1.217-1.431h-.143v.215l.573 1.718c-.215 0-1.145-.072-1.145.143 0 .072.143.215.573.358l1.861.644-1.575.215c-.072 0-.358.072-.358.215 0 .143.072.143.358.215l2.075.215-1.5.716s-.286.143-.215.286c.071.143.143.215.429.286l2.362.143-1.861.573c-.072 0-.358.143-.358.286s.215.286.644.429l1.789.215-1.217.5a.758.758 0 00-.429.286c-.072.143.143.143.358.215l2.147.215-1.217.429 1.932.358.859-1.575c.07.002.143-.356.07-.356z"></path> <path d="M42.941 81.588a.716.716 0 01.429-.573 1.36 1.36 0 01-.286-1.074c.1-.235.32-.399.573-.429a1.5 1.5 0 01-.358-.573l-.787.215.787-.573a.787.787 0 01.716-.5 1.288 1.288 0 01-.358-1.074h-.358l.647-.353h.215l.716-.358c.072-.072.358-.286.358-.429 0-.143-.143-.143-.429-.143l-1.861.143c.62-.371 1.216-.777 1.789-1.217a.954.954 0 00.215-.358c0-.071-.143-.071-.429 0l-.716.286-.787.358 1.431-1.646s.286-.358.215-.5c-.071-.142-.143-.072-.5.072a1.718 1.718 0 00-.644.358c-.151-.39-.248-.8-.286-1.217a1.789 1.789 0 00-.143-.644h-.286c-.066.355-.114.714-.143 1.074-.027.273-.1.539-.215.787a2.219 2.219 0 00-1-.5h-.143c0 .072-.072.358.859 1.145l.859.93-1.5-.5s-.5-.143-.573 0c-.073.143 0 .215.358.5l1.217 1h-1.3c-.072 0-.429 0-.5.215-.071.215.072.358.429.573l2.075 1.071-2.147-.286s-.429-.072-.5.072c-.071.144.072.215.286.429l.644.5.859.644-1.217-.215c-.143 0-.5 0-.573.143-.073.143.072.286.358.5l1.861 1.074-1.932-.286h-.072c-.072 0-.286 0-.358.072-.072.072 0 .143.286.286l1.789 1-2-.143c.058.26.058.528 0 .787a.573.573 0 01.5.143 1.5 1.5 0 01.286 1.074h.072a.573.573 0 01.5.215c.17.278.222.613.143.93.225 0 .438.106.573.286a2.29 2.29 0 01.072 1.646h.286a1 1 0 010-.644l.286-.286a1.288 1.288 0 01-.286-1.145.573.573 0 01.358-.429 1.431 1.431 0 01-.286-1.074.644.644 0 01.429-.358 1.431 1.431 0 01-.503-1.001zM50.809 71.211a.644.644 0 01.5.286c.143.286 0 .716-.358 1.217.29.029.554.186.716.429.143.286-.072.644-.429 1.074.3.06.575.21.787.429a1.36 1.36 0 01.072-1.36c.394-.115.82-.035 1.145.215v-.286a2.147 2.147 0 00-1.074-.072l.358-.286.859-.573c.072-.072.215-.215.143-.286h-.358l-1.646.358 1.646-1.431c.072-.072.286-.286.215-.429-.071-.143-.143-.072-.429 0l-.644.358-.215-1.789s-.072-.215-.143-.215l-.215.143-.573 1.646a2 2 0 00-.859-.573h-.215c-.072.072 0 .143.072.215.163.343.381.657.645.93z"></path> <path d="M51.815 80.658l-2.648.358 1.861-1.078c.429-.286.429-.429.429-.5 0-.071-.358-.143-.429-.072l-1.789.286 1.861-1.145c.358-.286.358-.429.358-.429a.82.82 0 00-.429 0l-2.362.429 2.219-1.288c.429-.358.644-.573.573-.716-.071-.143-.429-.072-.5-.072l-1.431.215 1.575-1.074c.215-.143.286-.286.286-.358 0-.072-.286-.143-.358-.143l-1.789.143 1.574-1.074c.192-.117.342-.292.429-.5 0-.072-.5-.072-.644 0l-1.36.573 1.36-1.575c.286-.286.429-.5.358-.573h-.072l-.644.215-.429.286-.429-1.789-.143-.143c-.072 0-.143.215-.143.215l-.358 1.646-.644-.286c-.286-.143-.429-.072-.429-.072s.143.358.215.5l1.217 1.574-.93-.358c-.5-.143-.787-.215-.859-.143-.072.072.143.358.215.429l1.431 1.217c-1.145-.215-1.718-.215-1.789-.072-.071.143.5.573.5.573l1.789.93-2.29-.286v.437c.716-.215 1.145-.143 1.288.072a.787.787 0 01-.072.787l.5.358h-.93l-.143.286a.93.93 0 01.644.358h.072c.058.193.031.4-.072.573v.143l.5.358-.716-.143v.143c.275.02.52.183.644.429.143.358-.215.859-.286 1a.716.716 0 01.429.5c.072.429-.429.93-.5 1.074a.644.644 0 01.5.358c.143.429-.286.93-.358 1.074a.573.573 0 01.429.358c.01.36-.149.704-.429.93a.5.5 0 01.358.286c-.04.27-.166.521-.358.716h.644a2.362 2.362 0 01-.072-1.718.716.716 0 01.573-.358c-.1-.307-.075-.642.072-.93a.644.644 0 01.5-.215 1.5 1.5 0 01.215-1.074.573.573 0 01.429-.143h.072c-.14-.344-.14-.73 0-1.074a.859.859 0 01.644-.358l.071-.07z"></path> </g> </g> <g id="uor-logo-words"> <g fill="#143727"> <path d="M123.097 2.72v1.145h-3.724v26.194c0 6.37 3.578 8.373 6.871 8.373 4.938 0 8.445-3.364 8.445-8.731V3.865h-4.652V2.72h9.236v1.145h-3.15v25.836c0 6.012-4.008 9.8-10.091 9.8-8.445 0-12.31-3.507-12.31-10.735V3.865h-3.149V2.72h12.524zM139.415 12.31h7.3v3.507h.072a8.23 8.23 0 017.3-4.366c4.079 0 7.014 2 7.014 7.658v18.464h2.791v1.145h-10.736v-1.145h3.006V18.465c0-3.865-1.217-5.153-3.65-5.153s-5.511 2.5-5.511 7.873v16.388h3.006v1.145h-10.735v-1.145h2.791V13.451h-2.791l.143-1.141zM169.76 3.436a2.863 2.863 0 012.934 3.006 2.97 2.97 0 01-5.94 0 2.863 2.863 0 012.934-2.934m2.434 34.137h2.5v1.145h-9.8v-1.216h2.5V13.455h-2.5V12.31h7.372l-.072 25.335z"></path> </g> <path d="M172.98 12.31h11.308v1.145h-4.008l6.871 19.467h.072l6.942-19.467h-4.151V12.31h7.8v1.145h-2.075l-9.232 25.478h-2.147l-9.232-25.478h-2.148zM211.77 21.9v-2.076c0-5.224-1.718-7.228-4.437-7.228-2.719 0-5.153 3.221-5.582 9.232l10.019.072zm-10.02 1.145c-.06.523-.084 1.049-.072 1.575 0 10.02 2.5 13.526 6.441 13.526s7.586-2.791 8.087-9.232h1.145c-.286 7.157-4.437 10.735-9.8 10.735-6.584 0-11.308-5.725-11.308-14.027s5.007-14.028 11.162-14.028c6.155 0 9.733 4.151 9.733 11.522l-15.388-.071zM221.36 13.454h-2.791v-1.145h7.586v3.865h.072c1.073-3.006 2.934-4.652 6.3-4.652a9.519 9.519 0 013.578.93v10.163h-1.145l-1.791-5.368c-.93-2.791-1.431-3.936-2.72-3.936-1.289 0-4.223 3.865-4.223 8.517v15.745h3.507v1.149h-11.164v-1.149h2.791V13.454zM238.537 28.122c1.861 8.731 2.934 10.306 7.586 10.306s7.085-2.075 7.085-5.869c0-5.01-16.1-3.936-16.1-12.739 0-5.224 4.223-8.3 10.163-8.3a16.533 16.533 0 017.515 1.789v8.373h-1.431c-2.219-7.729-2.791-9.018-6.513-9.018s-6.37 1.789-6.37 4.652c0 6.584 16.1 4.294 16.1 13.383 0 5.3-4.58 8.874-10.807 8.874a18.321 18.321 0 01-8.66-2.29v-9.161h1.432zM262.941 3.437a2.863 2.863 0 013.006 3 2.97 2.97 0 11-5.94 0 2.863 2.863 0 012.934-2.934m2.433 34.138h2.5v1.145h-9.871v-1.212h2.5V13.455h-2.5V12.31h7.371v25.331zM268.167 12.309h3.292V6.083h4.867v6.226h6.012v1.145h-6.013v21.4c0 2 .859 2.791 2.791 2.791s3.507-1.36 3.507-5.224v-4.08h1.145v3.865c0 5.511-2.29 7.372-6.584 7.372s-5.8-2-5.8-6.226v-19.9h-3.289l.072-1.143z" fill="#143727"></path> <path d="M281.263 12.31h11.093v1.145h-3.865l7.586 18.178 6.226-18.178h-4.509V12.31h8.3v1.145h-2.362l-9.447 27.411c-2 5.8-3.578 6.942-6.584 6.942s-3.221-.5-3.936-1.217v-8.159h1.145l1.431 5.01c.716 2.72 1.575 3.149 2.362 3.149 2.075 0 3.722-3.578 5.01-8.087l-10.45-25.049h-2V12.31zM168.83 69.707h4.652c9.3 0 13.884-4.509 13.884-12.31 0-5.511-2.72-11.379-11.379-11.379h-7.157v23.689zm-13.169 28.842v-1.717h4.723V46.09h-4.723v-1.718h22.759c13.169 0 17.749 6.3 17.749 13.1s-5.94 12.811-17.248 13.526l18.608 25.836h3.865v1.718h-12.31l-19.9-27.554h-.286v25.834h5.94v1.718l-19.177-.001z" fill="#143727"></path> <path d="M221.074 73.214v-3.073c0-7.8-2.576-10.878-6.656-10.878s-7.729 4.867-8.373 13.956l15.029-.005zm-15.1 1.718c-.072.787-.072 1.575-.072 2.362 0 15.1 3.793 20.4 9.733 20.4s11.451-4.223 12.238-13.956h1.718c-.358 10.807-6.727 16.1-14.743 16.1-9.948 0-17.1-8.588-17.1-21.184 0-12.596 7.581-21.113 16.814-21.113s14.671 6.226 14.671 17.391h-23.259zM249.415 82.232c4.079 0 6.3-2.362 6.3-11.522s-2.219-11.522-6.3-11.522c-4.081 0-6.3 2.362-6.3 11.522s1.575 11.522 6.3 11.522m-1.074 29.486c8.159 0 13.455-4.079 13.455-8.159 0-3.006-1.36-4.509-7.228-4.724l-14.743-.286c-1.861 1.074-2.791 3.435-2.791 5.725 0 3.507 4.223 7.443 11.308 7.443m16.89-50.742h-5.94v.143c2.791 1.932 4.223 5.94 4.223 9.662 0 7.443-5.8 13.24-13.956 13.24-8.156 0-8.588-2.791-9.733-2.791-2.362 0-5.511 2.362-5.511 5.01 0 11.952 31.633-2.648 31.633 14.671 0 6.37-6.727 12.6-17.1 12.6-11.737 0-16.89-5.153-16.89-9.375 0-2.934 2.934-5.081 5.01-5.8v-.143c-4.724-1.074-6.871-4.724-6.871-8.8 0-5.725 3.722-8.731 8.159-9.876a13.748 13.748 0 01-3.006-9.089c0-7.515 6.083-12.811 14.1-12.811 2.114-.023 4.21.39 6.155 1.217h9.662l.065 2.142zM275.394 45.447a4.437 4.437 0 11-4.437 4.437 4.294 4.294 0 014.437-4.437m3.65 51.386h3.793v1.714h-14.886v-1.718h3.793V60.475h-3.793v-1.717h11.093v38.075zM284.77 58.757h10.95v5.3h.143a12.453 12.453 0 0111.022-6.588c6.155 0 10.592 3.006 10.592 11.522v27.768h4.223v1.718h-16.1v-1.718h4.509v-28.7c0-5.8-1.789-7.729-5.511-7.729-3.722 0-8.3 3.793-8.3 11.88v24.619h4.509v1.718H284.77v-1.718h4.223V60.475h-4.223v-1.718zM345.814 76.507c-8.874 4.151-16.1 1.145-16.1 12.453 0 5.869 2.219 8.087 6.37 8.087 5.869-.143 9.8-5.94 9.8-14.6l-.07-5.94zM326.562 73V60.332c4.079-1.646 7.8-2.791 11.952-2.791 9.8 0 14.171 5.153 14.171 10.02v29.271h3.729v1.718h-10.6v-6.871h-.143a12.525 12.525 0 01-11.88 8.159c-7.085 0-11.88-4.079-11.88-10.878 0-13.741 16.1-9.733 23.975-14.528v-8.231c0-4.938-2.648-6.942-6.8-6.942-5.511 0-6.942 2.791-10.735 13.813L326.562 73zM130.827 79.226c2.934 0 4.437-2.147 4.437-9.733s-1.5-9.733-4.437-9.733c-2.937 0-4.437 2.147-4.437 9.733s1.5 9.733 4.437 9.733m0-20.254c4.867 0 8.517 4.294 8.517 10.592 0 6.298-3.65 10.592-8.517 10.592-4.867 0-8.517-4.294-8.517-10.592 0-6.298 3.65-10.592 8.517-10.592M140.131 59.544h1.861v-2.146c0-3.578 1.861-5.654 6.155-5.654 1.168.012 2.326.206 3.435.573v5.153h-.859c-1.431-4.437-1.932-4.867-3.221-4.867-1.289 0-1.861.644-1.861 2.576v4.365h4.723v.859h-4.723v18.179h2.79v.862h-8.3v-.859h1.861V60.404h-1.861v-.86z" fill="#143727"></path> </g> </g> </svg>