<?xml version="1.0" encoding="UTF-8"?> <!-- Generator: Adobe Illustrator 26.0.3, SVG Export Plug-In . SVG Version: 6.00 Build 0) --> <svg xmlns="http://www.w3.org/2000/svg" xmlns:xlink="http://www.w3.org/1999/xlink" version="1.1" id="Layer_1" x="0px" y="0px" viewBox="0 0 100.8 100.8" style="enable-background:new 0 0 100.8 100.8;" xml:space="preserve"> <style type="text/css"> .st0{fill:#9D2235;} .st1{fill:#5E8AB4;} </style> <g> <path class="st0" d="M41.2,54l-9.8-9.8c-0.6-0.6-1.5-0.6-2.1,0l-7.2,7.3c-0.6,0.6-0.6,1.5,0,2.1l19.1,19.1c0.6,0.6,1.5,0.6,2.1,0 l35.3-35.3c0.6-0.6,0.6-1.5,0-2.1L71.3,28c-0.6-0.6-1.5-0.6-2.1,0L43.3,54C42.7,54.6,41.8,54.6,41.2,54z"></path> <path class="st1" d="M48,4.6C24.7,5.8,5.8,24.7,4.6,48c-1.4,27.8,22,50.6,50,48.1c21.9-2,39.5-19.6,41.5-41.5 C98.6,26.6,75.8,3.2,48,4.6z M91.7,46.6C94,72.4,72.4,94,46.6,91.7C26.7,89.9,10.8,73.9,9,54.1C6.7,28.3,28.3,6.7,54.1,9 C73.9,10.8,89.9,26.7,91.7,46.6z"></path> </g> </svg> 