<svg width="96" height="150" version="1.1" viewBox="0 0 96 150" xmlns="http://www.w3.org/2000/svg" xmlns:xlink="http://www.w3.org/1999/xlink">
  <g id="a">
    <path fill="#fff" d="M0 100.52a13 13 0 0 0 3.67 8.82l37.99 38.01C43.42 149.11 45.71 150 48 150V28.22c-.98.01-1.97-.35-2.71-1.1L22.19 3.82A13 13 0 0 0 0 13z"/>
    <path d="M4 100.54A9 9 0 0 0 6.48 106.54L44.47 144.54C45.44 145.51 46.72 146 48 146L48 35.46 19.42 6.67A9 9 0 0 0 4.03 13.03Z"/>
  </g>
  <g fill="#f4ed19"><path id="b" d="M8 13a5 5 0 0 1 8.6-3.53l29.59 29.88C47.35 40.51 48 42.1 48 43.74V146c-.71 0-1.39-.15-2-.42v-10.83L9.31 97.96A5 5 0 0 1 8 94.78Z"/></g>
  <use xlink:href="#a" transform="matrix(-1,0,0,1,96,0)"/>
  <use xlink:href="#b" fill="#22aa98" transform="matrix(-1,0,0,1,96,0)"/>
</svg>