<svg width="104" height="42" viewBox="0 0 104 42" fill="none" xmlns="http://www.w3.org/2000/svg"><path d="M80.6637 35.7406C79.3247 36.4424 77.8962 36.955 76.4179 37.2686C73.1876 37.9555 69.8627 37.6718 66.7966 36.4473C63.7305 35.2229 61.1224 33.1374 59.2508 30.4197C57.3843 27.6971 56.3739 24.5165 56.3291 21.2165C56.2843 17.9164 57.2151 14.706 59.0119 11.9386C60.8088 9.17113 63.3622 7.02089 66.3984 5.71681C69.4297 4.41272 72.7496 4.0444 75.9949 4.64666C79.2401 5.24893 82.2067 6.78695 84.5709 9.08651C85.3574 9.85304 86.6216 9.8381 87.3882 9.05167C88.1547 8.26524 88.1397 7.00098 87.3533 6.23446C84.4216 3.37742 80.7483 1.47605 76.7265 0.729439C72.7048 -0.0171728 68.5934 0.440749 64.8305 2.05841C61.0726 3.67607 57.9069 6.33898 55.6771 9.76842C53.4472 13.1979 52.2974 17.1748 52.3521 21.2662C52.4069 25.3577 53.6562 29.2998 55.9757 32.6745C58.2902 36.0442 61.5255 38.6275 65.3233 40.1456C67.7722 41.1211 70.3555 41.6189 72.9537 41.6189C74.3872 41.6189 75.8256 41.4696 77.2492 41.1659C79.0809 40.7777 80.8528 40.1406 82.5103 39.2745C83.4859 38.7668 83.8642 37.5623 83.3515 36.5867C82.8388 35.6111 81.6392 35.2329 80.6637 35.7406Z" fill="#FF778F"/><path d="M86.1786 36.1338C87.2864 36.1338 88.1845 35.2357 88.1845 34.1279C88.1845 33.0201 87.2864 32.122 86.1786 32.122C85.0707 32.122 84.1727 33.0201 84.1727 34.1279C84.1727 35.2357 85.0707 36.1338 86.1786 36.1338Z" fill="#FF778F"/><path d="M77.1746 13.0685C75.4624 13.0685 73.9045 13.7304 72.7149 14.8105C71.5253 13.7304 69.9673 13.0685 68.2551 13.0685C64.542 13.0685 61.5157 16.1594 61.5157 19.9572V26.7912C61.5157 28.0505 62.5361 29.0708 63.7953 29.0708C65.0546 29.0708 66.075 28.0505 66.075 26.7912V19.9572C66.075 18.668 67.0555 17.6228 68.2601 17.6228C69.4646 17.6228 70.4402 18.668 70.4402 19.9572V26.6468V26.7912C70.4402 28.0505 71.4606 29.0708 72.7198 29.0708C73.9791 29.0708 74.9995 28.0505 74.9995 26.7912V26.6468V19.9572C74.9995 18.668 75.98 17.6228 77.1846 17.6228C78.3891 17.6228 79.3647 18.668 79.3647 19.9572V26.7912C79.3647 28.0505 80.3851 29.0708 81.6443 29.0708C82.9036 29.0708 83.924 28.0505 83.924 26.7912V19.9572C83.914 16.1594 80.8928 13.0685 77.1746 13.0685Z" fill="#FF778F"/><path d="M37.9227 24.9246H32.8756L39.0724 16.4133C39.1322 16.3336 39.182 16.249 39.2267 16.1594L39.4458 15.8508C40.2471 14.7359 39.4507 13.1829 38.077 13.1829H36.1109H28.3561C28.2018 13.1829 28.0525 13.2028 27.9081 13.2377C26.828 13.2825 25.9619 14.1685 25.9619 15.2635C25.9619 16.3834 26.8728 17.2943 27.9927 17.2943H33.0398L26.8429 25.8056C26.7832 25.8853 26.7334 25.9699 26.6886 26.0595L26.4696 26.3681C25.6683 27.483 26.4647 29.036 27.8384 29.036H29.8045H37.5643C37.7186 29.036 37.8679 29.0161 38.0123 28.9812C39.0924 28.9364 39.9584 28.0505 39.9584 26.9554C39.9534 25.8355 39.0476 24.9246 37.9227 24.9246Z" fill="#FF778F"/><path d="M102.808 14.0889C102.753 14.0142 102.694 13.9396 102.629 13.8749C102.624 13.8649 102.614 13.8599 102.609 13.85C102.216 13.4468 101.634 13.178 100.977 13.178C100.907 13.178 100.837 13.188 100.763 13.2079C99.8716 13.2975 99.1399 13.8898 98.8512 14.7061C97.4724 13.4816 96.681 13.1531 95.1331 13.1531C91.2358 13.1531 88.1896 16.6274 88.1896 21.0871C88.1896 25.4921 91.2109 28.9365 95.0783 28.9365C96.686 28.9365 97.4575 28.5831 98.7566 27.2641C98.9706 28.3044 99.8964 29.0858 100.996 29.0858C102.261 29.0858 103.286 28.0605 103.286 26.7962V15.4776C103.286 14.95 103.102 14.4722 102.808 14.0889ZM95.6408 24.9795C93.8638 24.9795 92.5349 23.3419 92.5349 21.0822C92.5349 18.7677 93.834 17.16 95.6408 17.16C97.2534 17.16 98.4231 18.3496 98.7068 20.1862V21.9532C98.4182 23.77 97.2335 24.9795 95.6408 24.9795Z" fill="#FF778F"/><path d="M6.77897 13.168C3.06084 13.168 0.0395508 16.2589 0.0395508 20.0617V26.7961C0.0395508 28.0554 1.05992 29.0758 2.31921 29.0758C3.57849 29.0758 4.59886 28.0554 4.59886 26.7961V20.0617C4.59886 18.7725 5.57941 17.7273 6.77897 17.7273C7.97852 17.7273 8.96405 18.7725 8.96405 20.0617V26.7961C8.96405 28.0554 9.98442 29.0758 11.2437 29.0758C12.503 29.0758 13.5234 28.0554 13.5234 26.7961V20.0617C13.5134 16.2589 10.4921 13.168 6.77897 13.168Z" fill="#FF778F"/><path d="M46.1503 13.1829C44.891 13.1829 43.8707 14.2033 43.8707 15.4626V26.7912C43.8707 28.0505 44.891 29.0708 46.1503 29.0708C47.4096 29.0708 48.43 28.0505 48.43 26.7912V15.4626C48.43 14.2033 47.4096 13.1829 46.1503 13.1829Z" fill="#FF778F"/><path d="M19.8347 13.1829C18.5754 13.1829 17.555 14.2033 17.555 15.4626V26.8857C17.555 28.145 18.5754 29.1654 19.8347 29.1654C21.094 29.1654 22.1143 28.145 22.1143 26.8857V15.4626C22.1143 14.2033 21.094 13.1829 19.8347 13.1829Z" fill="#FF778F"/><circle cx="19.8347" cy="7.14034" r="2.27965" fill="#FF778F"/><circle cx="46.1503" cy="7.14034" r="2.27965" fill="#FF778F"/></svg>