<?xml version="1.0" encoding="iso-8859-1"?>
<!-- Generator: Adobe Illustrator 19.0.0, SVG Export Plug-In . SVG Version: 6.00 Build 0)  -->
<svg version="1.1" id="Layer_1" xmlns="http://www.w3.org/2000/svg" xmlns:xlink="http://www.w3.org/1999/xlink" x="0px" y="0px"
	 viewBox="0 0 512 512" style="enable-background:new 0 0 512 512;fill:#f9eced;" xml:space="preserve">
<g>
	<g>
		<path d="M499.677,426.489c4.427,0,8.017-3.589,8.017-8.017V84.977c0-2.1-0.863-4.184-2.348-5.668l-76.96-76.96
			C426.902,0.865,424.815,0,422.716,0H106.323C92.473,0,81.204,11.268,81.204,25.119v9.086H12.261
			c-6.987,0-10.616,8.738-5.668,13.685l62.741,62.741l-62.74,62.741c-4.947,4.947-1.32,13.685,5.668,13.685h68.944v299.825
			c0,13.851,11.268,25.119,25.119,25.119h376.251c13.851,0,25.119-11.268,25.119-25.119v-34.205c0-4.427-3.589-8.017-8.017-8.017
			s-8.017,3.589-8.017,8.017v34.205c0,5.01-4.076,9.086-9.086,9.086H106.324c-5.01,0-9.086-4.076-9.086-9.086V187.056h51.841
			c4.427,0,8.017-3.589,8.017-8.017s-3.589-8.017-8.017-8.017H31.615l54.724-54.724c3.131-3.131,3.131-8.207,0-11.337L31.615,50.238
			h348.88v120.785H183.285c-4.427,0-8.017,3.589-8.017,8.017s3.589,8.017,8.017,8.017h205.228c4.427,0,8.017-3.589,8.017-8.017
			V42.221c0-4.427-3.589-8.017-8.017-8.017H97.239v-9.086c0-5.01,4.076-9.086,9.086-9.086H414.7v51.841
			c0,13.851,11.268,25.119,25.119,25.119h51.841v325.478C491.66,422.9,495.25,426.489,499.677,426.489z M439.818,76.96
			c-5.01,0-9.086-4.076-9.086-9.086V27.37l49.59,49.59H439.818z"/>
	</g>
</g>
<g>
	<g>
		<path d="M200.387,76.96h-34.205c-4.427,0-8.017,3.589-8.017,8.017v51.307c0,4.427,3.589,8.017,8.017,8.017
			s8.017-3.589,8.017-8.017v-17.655c0.177,0.012,0.355,0.018,0.534,0.018h25.653c4.427,0,8.017-3.589,8.017-8.017V84.977
			C208.404,80.55,204.814,76.96,200.387,76.96z M192.37,102.614h-17.637c-0.18,0-0.357,0.005-0.534,0.018v-9.638h18.171V102.614z"/>
	</g>
</g>
<g>
	<g>
		<path d="M260.245,76.96H226.04c-4.427,0-8.017,3.589-8.017,8.017v51.307c0,4.427,3.589,8.017,8.017,8.017s8.017-3.589,8.017-8.017
			v-17.655c0.177,0.012,0.355,0.018,0.534,0.018h25.653c4.427,0,8.017-3.589,8.017-8.017V84.977
			C268.262,80.55,264.672,76.96,260.245,76.96z M252.228,102.614h-17.637c-0.18,0-0.357,0.005-0.534,0.018v-9.638h18.171V102.614z"
			/>
	</g>
</g>
<g>
	<g>
		<path d="M320.103,76.96h-34.205c-4.427,0-8.017,3.589-8.017,8.017s3.589,8.017,8.017,8.017h9.086v43.29
			c0,4.427,3.589,8.017,8.017,8.017c4.427,0,8.017-3.589,8.017-8.017v-43.29h9.086c4.427,0,8.017-3.589,8.017-8.017
			S324.53,76.96,320.103,76.96z"/>
	</g>
</g>
<g>
	<g>
		<path d="M439.819,213.779H234.592c-4.427,0-8.017,3.589-8.017,8.017s3.589,8.017,8.017,8.017h197.211v18.171H157.097v-18.171
			h43.29c4.427,0,8.017-3.589,8.017-8.017s-3.589-8.017-8.017-8.017H149.08c-4.427,0-8.017,3.589-8.017,8.017V256
			c0,4.427,3.589,8.017,8.017,8.017h9.086v145.904c0,4.427,3.589,8.017,8.017,8.017h120.251v28.961l-20.172,6.724
			c-3.984,1.329-6.3,5.659-5.199,9.71c1.191,4.382,5.959,6.938,10.27,5.502l23.118-7.706l23.118,7.706
			c4.317,1.439,9.07-1.122,10.27-5.502c1.109-4.049-1.222-8.383-5.199-9.71l-20.172-6.724v-28.961h120.251
			c4.427,0,8.017-3.589,8.017-8.017V264.017h9.086c4.427,0,8.017-3.589,8.017-8.017v-34.205
			C447.836,217.368,444.246,213.779,439.819,213.779z M414.7,401.904H174.199V264.017H414.7V401.904z"/>
	</g>
</g>
<g>
	<g>
		<path d="M268.796,273.637c-32.711,0-59.324,26.612-59.324,59.324c0,32.711,26.612,59.324,59.324,59.324
			c32.711,0,59.324-26.612,59.324-59.324C328.12,300.249,301.508,273.637,268.796,273.637z M276.813,290.414
			c17.453,3.283,31.247,17.076,34.53,34.53h-34.53V290.414z M268.796,376.251c-23.871,0-43.29-19.42-43.29-43.29
			c0-21.132,15.221-38.775,35.273-42.546v42.546c0,4.427,3.589,8.017,8.017,8.017h42.546
			C307.571,361.029,289.927,376.251,268.796,376.251z"/>
	</g>
</g>
<g>
	<g>
		<path d="M371.41,290.739h-25.653c-4.427,0-8.017,3.589-8.017,8.017s3.589,8.017,8.017,8.017h25.653
			c4.427,0,8.017-3.589,8.017-8.017S375.837,290.739,371.41,290.739z"/>
	</g>
</g>
<g>
	<g>
		<path d="M371.41,324.944h-25.653c-4.427,0-8.017,3.589-8.017,8.017s3.589,8.017,8.017,8.017h25.653
			c4.427,0,8.017-3.589,8.017-8.017S375.837,324.944,371.41,324.944z"/>
	</g>
</g>
<g>
	<g>
		<path d="M371.41,359.148h-25.653c-4.427,0-8.017,3.589-8.017,8.017c0,4.427,3.589,8.017,8.017,8.017h25.653
			c4.427,0,8.017-3.589,8.017-8.017C379.427,362.738,375.837,359.148,371.41,359.148z"/>
	</g>
</g>
</svg>
