<?xml version="1.0" encoding="UTF-8" standalone="no"?>
<svg
   xmlns:dc="http://purl.org/dc/elements/1.1/"
   xmlns:cc="http://creativecommons.org/ns#"
   xmlns:rdf="http://www.w3.org/1999/02/22-rdf-syntax-ns#"
   xmlns:svg="http://www.w3.org/2000/svg"
   xmlns="http://www.w3.org/2000/svg"
   xmlns:sodipodi="http://sodipodi.sourceforge.net/DTD/sodipodi-0.dtd"
   xmlns:inkscape="http://www.inkscape.org/namespaces/inkscape"
   inkscape:version="1.0 (4035a4fb49, 2020-05-01)"
   sodipodi:docname="webgl-svgrepo-com.svg"
   id="svg6"
   version="1.1"
   role="img"
   viewBox="0 0 12 10.731"
   height="53.654999"
   width="120">
  <metadata
     id="metadata12">
    <rdf:RDF>
      <cc:Work
         rdf:about="">
        <dc:format>image/svg+xml</dc:format>
        <dc:type
           rdf:resource="http://purl.org/dc/dcmitype/StillImage" />
        <dc:title>WebGL icon</dc:title>
      </cc:Work>
    </rdf:RDF>
  </metadata>
  <defs
     id="defs10" />
  <sodipodi:namedview
     inkscape:current-layer="svg6"
     inkscape:window-maximized="1"
     inkscape:window-y="-9"
     inkscape:window-x="-9"
     inkscape:cy="-5.0419769"
     inkscape:cx="49.876396"
     inkscape:zoom="3.7005255"
     fit-margin-bottom="0"
     fit-margin-right="0"
     fit-margin-left="0"
     fit-margin-top="0"
     lock-margins="false"
     showgrid="false"
     id="namedview8"
     inkscape:window-height="1001"
     inkscape:window-width="1920"
     inkscape:pageshadow="2"
     inkscape:pageopacity="0"
     guidetolerance="10"
     gridtolerance="10"
     objecttolerance="10"
     borderopacity="1"
     bordercolor="#666666"
     pagecolor="#ffffff" />
  <title
     id="title2">WebGL icon</title>
  <path
     id="path4"
     style="fill:#6A4C9C;stroke:#F1EEF7;stroke-width:0.1px;"
     d="m 12.928,7.544 c -0.214,0.09 -0.427,0.135 -0.643,0.135 -0.342,0 -0.65,-0.059 -0.923,-0.178 A 1.963,1.963 0 0 1 10.672,7.01 C 10.485,6.801 10.34,6.557 10.24,6.275 10.14,5.993 10.091,5.689 10.091,5.364 c 0,-0.335 0.05,-0.643 0.149,-0.93 0.1,-0.287 0.242,-0.536 0.429,-0.747 a 1.96,1.96 0 0 1 0.69,-0.501 2.25,2.25 0 0 1 0.923,-0.183 c 0.23,0 0.451,0.036 0.664,0.104 0.214,0.069 0.408,0.171 0.581,0.304 0.173,0.133 0.316,0.299 0.427,0.496 A 1.7,1.7 0 0 1 14.16,4.583 H 13.225 C 13.166,4.334 13.054,4.146 12.888,4.021 A 0.973,0.973 0 0 0 12.281,3.834 c -0.221,0 -0.408,0.043 -0.562,0.128 -0.154,0.085 -0.28,0.199 -0.375,0.344 -0.095,0.145 -0.166,0.308 -0.209,0.491 -0.043,0.183 -0.066,0.372 -0.066,0.569 0,0.187 0.021,0.37 0.066,0.548 0.043,0.178 0.114,0.337 0.209,0.479 0.095,0.142 0.221,0.256 0.375,0.342 0.154,0.086 0.342,0.128 0.562,0.128 0.325,0 0.577,-0.083 0.754,-0.247 0.178,-0.164 0.28,-0.401 0.311,-0.714 H 12.359 V 5.165 h 1.872 v 2.413 h -0.624 l -0.1,-0.505 A 1.444,1.444 0 0 1 12.928,7.544 Z M 15.824,3.115 V 6.747 H 18 V 7.575 H 14.845 V 3.115 Z M -3.2150003,5.364 c 0,-0.709 0.343,-1.376 0.948,-1.962 l 1.109,4.221 h 0.76400006 l 1.075,-3.815 1.05999994,3.815 h 0.766 l 1.321,-4.856 h -0.86 l -0.861,3.725 -1.039,-3.726 H 0.27999976 l -1.039,3.725 -0.84000006,-3.632 c 1.48900006,-1.025 3.868,-1.69 6.548,-1.69 2.512,0 4.764,0.529 6.2610003,1.445 C 9.5779997,1.079 6.6449997,0.002 3.2949997,0 c -5.134,0 -9.295,2.401 -9.295,5.364 0,2.963 4.161,5.367 9.293,5.367 3.338,0 6.261,-1.075 7.9000003,-2.6 -1.4970003,0.911 -3.7410003,1.428 -6.2440003,1.428 -4.50999994,-10e-4 -8.164,-1.877 -8.164,-4.195 z m 9.194,-0.553 a 1.184,1.184 0 0 0 -0.444,-0.384 1.378,1.378 0 0 0 -0.622,-0.135 c -0.261,0 -0.496,0.047 -0.7,0.14 a 1.313,1.313 0 0 0 -0.489,0.387 c -0.244,0.311 -0.372,0.75 -0.372,1.269 0,0.23 0.033,0.448 0.097,0.643 a 1.5,1.5 0 0 0 0.285,0.515 c 0.261,0.304 0.633,0.465 1.077,0.465 0.233,0 0.422,-0.024 0.581,-0.074 0.138,-0.043 0.23,-0.1 0.306,-0.149 a 1.357,1.357 0 0 0 0.444,-0.489 c 0.09,-0.166 0.135,-0.323 0.145,-0.403 l 0.007,-0.055 h -0.633 l -0.002,0.045 c -0.017,0.206 -0.287,0.574 -0.769,0.574 -0.688,0 -0.852,-0.498 -0.864,-0.937 h 2.306 v -0.05 a 3.15,3.15 0 0 0 -0.085,-0.766 1.84,1.84 0 0 0 -0.268,-0.596 z m -1.139,0.05 c 0.51,0 0.783,0.275 0.833,0.84 h -1.651 c 0.025,-0.458 0.388,-0.84 0.818,-0.84 z m 4.678,0.415 a 1.575,1.575 0 0 0 -0.268,-0.515 1.25,1.25 0 0 0 -0.437,-0.346 1.36,1.36 0 0 0 -0.586,-0.126 1.141,1.141 0 0 0 -0.531,0.128 1.1,1.1 0 0 0 -0.346,0.28 v -1.49 h -0.631 V 7.62 h 0.6 V 7.319 a 0.964,0.964 0 0 0 0.211,0.206 c 0.171,0.123 0.382,0.185 0.626,0.185 0.263,0 0.501,-0.059 0.7,-0.176 0.178,-0.104 0.33,-0.254 0.448,-0.444 a 1.93,1.93 0 0 0 0.235,-0.584 2.66,2.66 0 0 0 0.069,-0.603 1.986,1.986 0 0 0 -0.09,-0.627 z m -0.567,0.717 c 0,0.346 -0.069,0.636 -0.202,0.84 a 0.682,0.682 0 0 1 -0.605,0.325 c -0.377,0 -0.819,-0.263 -0.819,-1.008 0,-0.356 0.045,-0.631 0.135,-0.84 0.13,-0.301 0.351,-0.446 0.671,-0.446 0.342,0 0.572,0.133 0.7,0.41 0.106,0.227 0.12,0.505 0.12,0.719 z" />
</svg>
