<svg xmlns="http://www.w3.org/2000/svg" xmlns:xlink="http://www.w3.org/1999/xlink" viewBox="0 0 393.998 156.986"><defs><clipPath id="clip-path"><path d="M203.034,7.12l-86.062.824L1.927,59.543,72.5,66.35s34.292-7.1,46.836-17.553,20.61-21.915,39.4-24.883S199.685,11.755,203.034,7.12Z" fill="none"/></clipPath><clipPath id="clip-path-2"><path d="M158.733,23.914c-18.789,2.967-26.855,14.426-39.4,24.883S72.5,66.35,72.5,66.35l6.121,32.908s31.358-6.917,43.955-19.909,25.374-26.882,41.772-29.762S195.052,46.792,206,37.97L203.034,7.12C199.685,11.755,177.522,20.946,158.733,23.914Z" fill="none"/></clipPath><clipPath id="clip-path-3"><path d="M291.314,10S286,22.238,262.945,29.233,215.971,53.4,214.435,72.2l97.572,8.221L366.715,9.93Z" fill="none"/></clipPath></defs><g id="Layer_1" data-name="Layer 1"><polygon points="255.528 121.825 3.528 121.825 162.331 2.574 392.661 2.574 255.528 121.825" fill="#b05232" stroke="#16221d" stroke-miterlimit="10"/><rect x="3.528" y="121.825" width="252" height="33.41" fill="#7c3b25" stroke="#16221d" stroke-miterlimit="10" stroke-width="1.498"/><polygon points="255.528 155.235 392.661 24.352 392.661 1.653 255.528 121.825 255.528 155.235" fill="#7c3b25" stroke="#16221d" stroke-miterlimit="10" stroke-width="1.498"/><path d="M78.619,99.258l2.159,11.607s31.031-9.613,45.3-19.25,19.809-21.142,49.879-25.6S227.1,71.638,227.1,71.638L221.781,49.6,108.525,65.825Z" fill="#16221d" stroke="#16221d" stroke-miterlimit="10"/><path d="M82.978,98.173l.7,3.773,5.37.834s18-5.552,27.886-12.443S140.616,69.359,156.2,64.89s28.511-10.017,62.363-1.65l12.5-15.369L122.69,51.823Z" fill="#bdb0ae" stroke="#16221d" stroke-miterlimit="10"/><path d="M83.943,97.912l4.338.734s19.984-6.125,26.149-10.519,37.036-34.3,74.424-32.4,52.051,10.343,52.051,10.343l53.141-41.377L163.721,28.43Z" fill="#fff" stroke="#16221d" stroke-miterlimit="10"/><path d="M203.034,7.12l-86.062.824L1.927,59.543,72.5,66.35s34.292-7.1,46.836-17.553,20.61-21.915,39.4-24.883S199.685,11.755,203.034,7.12Z" fill="#fff" stroke="#16221d" stroke-miterlimit="10"/><g clip-path="url(#clip-path)"><line x1="10.052" y1="55.838" x2="96.161" y2="63.443" fill="none" stroke="#16221d" stroke-miterlimit="10"/><line x1="16.814" y1="52.682" x2="103.218" y2="59.813" fill="none" stroke="#16221d" stroke-miterlimit="10"/><line x1="23.575" y1="49.526" x2="110.275" y2="56.184" fill="none" stroke="#16221d" stroke-miterlimit="10"/><line x1="30.337" y1="46.37" x2="117.332" y2="52.554" fill="none" stroke="#16221d" stroke-miterlimit="10"/><line x1="37.099" y1="43.214" x2="124.389" y2="48.924" fill="none" stroke="#16221d" stroke-miterlimit="10"/><line x1="43.861" y1="40.058" x2="131.447" y2="45.295" fill="none" stroke="#16221d" stroke-miterlimit="10"/><line x1="50.623" y1="36.903" x2="138.504" y2="41.665" fill="none" stroke="#16221d" stroke-miterlimit="10"/><line x1="57.385" y1="33.747" x2="145.561" y2="38.036" fill="none" stroke="#16221d" stroke-miterlimit="10"/><line x1="64.147" y1="30.591" x2="152.618" y2="34.406" fill="none" stroke="#16221d" stroke-miterlimit="10"/><line x1="70.909" y1="27.435" x2="159.675" y2="30.777" fill="none" stroke="#16221d" stroke-miterlimit="10"/><line x1="77.671" y1="24.279" x2="166.733" y2="27.147" fill="none" stroke="#16221d" stroke-miterlimit="10"/><line x1="84.433" y1="21.123" x2="173.79" y2="23.518" fill="none" stroke="#16221d" stroke-miterlimit="10"/><line x1="91.194" y1="17.967" x2="180.847" y2="19.888" fill="none" stroke="#16221d" stroke-miterlimit="10"/><line x1="97.956" y1="14.811" x2="187.904" y2="16.259" fill="none" stroke="#16221d" stroke-miterlimit="10"/><line x1="104.718" y1="11.655" x2="194.961" y2="12.629" fill="none" stroke="#16221d" stroke-miterlimit="10"/><line x1="111.48" y1="8.5" x2="202.019" y2="9" fill="none" stroke="#16221d" stroke-miterlimit="10"/></g><path d="M158.733,23.914c-18.789,2.967-26.855,14.426-39.4,24.883S72.5,66.35,72.5,66.35l6.121,32.908s31.358-6.917,43.955-19.909,25.374-26.882,41.772-29.762S195.052,46.792,206,37.97L203.034,7.12C199.685,11.755,177.522,20.946,158.733,23.914Z" fill="#bdb0ae" stroke="#16221d" stroke-miterlimit="10"/><g clip-path="url(#clip-path-2)"><line x1="80.166" y1="64.252" x2="88.172" y2="107.293" fill="none" stroke="#16221d" stroke-miterlimit="10"/><line x1="85.926" y1="60.91" x2="93.746" y2="103.154" fill="none" stroke="#16221d" stroke-miterlimit="10"/><line x1="91.687" y1="57.568" x2="99.321" y2="99.014" fill="none" stroke="#16221d" stroke-miterlimit="10"/><line x1="97.447" y1="54.225" x2="104.895" y2="94.875" fill="none" stroke="#16221d" stroke-miterlimit="10"/><line x1="103.208" y1="50.883" x2="110.469" y2="90.735" fill="none" stroke="#16221d" stroke-miterlimit="10"/><line x1="108.968" y1="47.541" x2="116.043" y2="86.596" fill="none" stroke="#16221d" stroke-miterlimit="10"/><line x1="114.728" y1="44.199" x2="121.617" y2="82.457" fill="none" stroke="#16221d" stroke-miterlimit="10"/><line x1="120.489" y1="40.856" x2="127.192" y2="78.317" fill="none" stroke="#16221d" stroke-miterlimit="10"/><line x1="126.249" y1="37.514" x2="132.766" y2="74.178" fill="none" stroke="#16221d" stroke-miterlimit="10"/><line x1="132.01" y1="34.172" x2="138.34" y2="70.038" fill="none" stroke="#16221d" stroke-miterlimit="10"/><line x1="137.77" y1="30.829" x2="143.914" y2="65.899" fill="none" stroke="#16221d" stroke-miterlimit="10"/><line x1="143.473" y1="28.047" x2="149.444" y2="62.823" fill="none" stroke="#16221d" stroke-miterlimit="10"/><line x1="149.12" y1="25.825" x2="154.93" y2="60.809" fill="none" stroke="#16221d" stroke-miterlimit="10"/><line x1="154.766" y1="23.602" x2="160.417" y2="58.796" fill="none" stroke="#16221d" stroke-miterlimit="10"/><line x1="160.412" y1="21.38" x2="165.903" y2="56.783" fill="none" stroke="#16221d" stroke-miterlimit="10"/><line x1="166.058" y1="19.157" x2="171.389" y2="54.77" fill="none" stroke="#16221d" stroke-miterlimit="10"/><line x1="171.704" y1="16.935" x2="176.875" y2="52.756" fill="none" stroke="#16221d" stroke-miterlimit="10"/><line x1="177.35" y1="14.712" x2="182.361" y2="50.743" fill="none" stroke="#16221d" stroke-miterlimit="10"/><line x1="182.996" y1="12.49" x2="187.847" y2="48.73" fill="none" stroke="#16221d" stroke-miterlimit="10"/><line x1="188.642" y1="10.267" x2="193.333" y2="46.717" fill="none" stroke="#16221d" stroke-miterlimit="10"/><line x1="194.289" y1="8.045" x2="198.819" y2="44.704" fill="none" stroke="#16221d" stroke-miterlimit="10"/><line x1="199.935" y1="5.822" x2="204.305" y2="42.69" fill="none" stroke="#16221d" stroke-miterlimit="10"/></g><polygon points="1.927 59.543 17.013 99.352 80.778 110.865 72.498 66.35 1.927 59.543" fill="#fff" stroke="#16221d" stroke-linecap="round" stroke-linejoin="round"/><path d="M48.963,68.515l-4.2,2.6L17.3,67.491s2.741-1.562,4.489-2.556L20,64.737c-.475.263-6.63,3.771-6.63,3.771l30.959,4.08,6.391-3.878Z" fill="#b05232" stroke="#16221d" stroke-miterlimit="10"/><path d="M13.371,68.508l12.205,34.645S56.12,109.691,56,109.016,44.33,72.588,44.33,72.588Z" fill="#b05232" stroke="#16221d" stroke-miterlimit="10"/><polygon points="44.33 72.588 55.979 108.932 61.132 104.962 50.721 68.71 44.33 72.588" fill="#8e452d" stroke="#16221d" stroke-miterlimit="10"/><polygon points="19.621 73.602 20.464 75.671 30.054 76.898 29.665 74.81 19.621 73.602" fill="#16221d" stroke="#16221d" stroke-miterlimit="10"/><polygon points="39.43 78.738 40.161 80.828 47.06 82.098 46.671 80.01 39.43 78.738" fill="#16221d" stroke="#16221d" stroke-miterlimit="10"/><polygon points="26.344 83.349 28.193 89.42 31.367 89.943 29.512 83.487 26.344 83.349" fill="#16221d" stroke="#16221d" stroke-miterlimit="10"/><polygon points="44.025 99.568 45.758 107.326 47.283 107.625 45.499 99.752 44.025 99.568" fill="#16221d" stroke="#16221d" stroke-miterlimit="10"/><polygon points="35.993 52.389 75.702 55.558 158.614 14.201 115.096 14.71 35.993 52.389" fill="#8e452d" stroke="#16221d" stroke-miterlimit="10"/><polygon points="46.486 49.696 78.779 51.925 147.926 17.564 112.628 18.231 46.486 49.696" fill="#fff" stroke="#16221d" stroke-miterlimit="10"/><polygon points="184.403 51.367 164.346 49.587 161.25 28.37 180.21 28.825 184.403 51.367" fill="#8e452d" stroke="#16221d" stroke-miterlimit="10"/><path d="M161.25,28.37s23.738-3.893,37.846-10.636l4.694-2.762L180.21,28.825Z" fill="#fff" stroke="#16221d" stroke-miterlimit="10"/><polygon points="180.21 28.825 184.403 51.367 210.446 36.992 203.79 14.972 180.21 28.825" fill="#8e452d" stroke="#16221d" stroke-linecap="round" stroke-linejoin="round"/><path d="M187.786,24.972l3.829,20.585,29.7,1.545-4.064-21.85Z" fill="#8e452d" stroke="#16221d" stroke-miterlimit="10"/><path d="M187.786,24.972l3.829,20.585,29.7,1.545-4.064-21.85Z" fill="#8e452d" stroke="#16221d" stroke-miterlimit="10"/><path d="M238.41,10.421l3.874,20.823L221.317,47.1l-4.064-21.85Z" fill="#8e452d" stroke="#16221d" stroke-linecap="round" stroke-linejoin="round"/><path d="M236.578,14.649l2.991,16.078L223.194,43.112l-3.175-17.066Z" fill="#16221d" stroke="#16221d" stroke-miterlimit="10"/><path d="M187.786,24.972c.188,1.013,24.639-14.883,24.639-14.883l25.985.332L217.253,25.252Z" fill="#b05232" stroke="#16221d" stroke-linecap="round" stroke-linejoin="round"/><path d="M192.435,23.691c.154.827,20.123-12.155,20.123-12.155l21.222.272L216.5,23.919Z" fill="#bdb0ae" stroke="#16221d" stroke-miterlimit="10"/><polygon points="214.435 72.2 230.974 124.823 315.119 137.974 312.007 80.421 214.435 72.2" fill="#fff" stroke="#16221d" stroke-miterlimit="10"/><polygon points="312.007 80.421 315.119 137.974 367.883 55.625 366.715 9.93 312.007 80.421" fill="#bdb0ae" stroke="#16221d" stroke-miterlimit="10"/><line x1="315.271" y1="76.216" x2="317.975" y2="133.517" fill="none" stroke="#16221d" stroke-miterlimit="10"/><line x1="319.938" y1="70.202" x2="322.435" y2="126.557" fill="none" stroke="#16221d" stroke-miterlimit="10"/><line x1="324.605" y1="64.189" x2="326.895" y2="119.596" fill="none" stroke="#16221d" stroke-miterlimit="10"/><line x1="329.272" y1="58.175" x2="331.355" y2="112.636" fill="none" stroke="#16221d" stroke-miterlimit="10"/><line x1="333.94" y1="52.162" x2="335.815" y2="105.675" fill="none" stroke="#16221d" stroke-miterlimit="10"/><line x1="338.607" y1="46.148" x2="340.274" y2="98.715" fill="none" stroke="#16221d" stroke-miterlimit="10"/><line x1="343.274" y1="40.134" x2="344.734" y2="91.754" fill="none" stroke="#16221d" stroke-miterlimit="10"/><line x1="347.941" y1="34.121" x2="349.194" y2="84.794" fill="none" stroke="#16221d" stroke-miterlimit="10"/><line x1="352.608" y1="28.107" x2="353.654" y2="77.833" fill="none" stroke="#16221d" stroke-miterlimit="10"/><line x1="357.275" y1="22.093" x2="358.114" y2="70.873" fill="none" stroke="#16221d" stroke-miterlimit="10"/><line x1="361.942" y1="16.08" x2="362.574" y2="63.912" fill="none" stroke="#16221d" stroke-miterlimit="10"/><polygon points="217.446 74.619 231.984 119.223 311.468 132.893 309.153 82.909 217.446 74.619" fill="#16221d" stroke="#16221d" stroke-miterlimit="10"/><path d="M287.927,93.02l-4.537,3.513-52.879-7.357s2.741-1.562,4.489-2.556l-1.786-.2c-.475.263-6.63,3.771-6.63,3.771l57.555,7.981,5.546-4.959Z" fill="#b05232" stroke="#16221d" stroke-miterlimit="10"/><path d="M226.583,90.193l6.74,21.449s55.006,9.058,54.88,8.383l-4.064-21.851Z" fill="#b05232" stroke="#16221d" stroke-miterlimit="10"/><polygon points="284.139 98.174 288.188 119.941 293.034 114.321 289.685 93.215 284.139 98.174" fill="#8e452d" stroke="#16221d" stroke-miterlimit="10"/><path d="M231.816,24.479l4.1,22.062L267.754,48.2,263.4,24.778Z" fill="#8e452d" stroke="#16221d" stroke-miterlimit="10"/><path d="M231.816,24.479l4.1,22.062L267.754,48.2,263.4,24.778Z" fill="#8e452d" stroke="#16221d" stroke-miterlimit="10"/><path d="M286.073,8.884,290.225,31.2l-22.471,17L263.4,24.778Z" fill="#8e452d" stroke="#16221d" stroke-linecap="round" stroke-linejoin="round"/><path d="M284.11,13.415l3.2,17.231L269.765,43.92l-3.4-18.29Z" fill="#16221d" stroke="#16221d" stroke-miterlimit="10"/><path d="M231.816,24.479c.2,1.085,26.407-15.951,26.407-15.951l27.85.356L263.4,24.778Z" fill="#b05232" stroke="#16221d" stroke-linecap="round" stroke-linejoin="round"/><path d="M236.8,23.106c.165.886,21.566-13.027,21.566-13.027l22.745.29L262.592,23.35Z" fill="#bdb0ae" stroke="#16221d" stroke-miterlimit="10"/><path d="M291.314,10S286,22.238,262.945,29.233,215.971,53.4,214.435,72.2l97.572,8.221L366.715,9.93Z" fill="#fff"/><path d="M312.236,80.943l-.271-.024L213.9,72.657l.04-.5c.727-8.89,6.386-17.969,16.366-26.255a96.5,96.5,0,0,1,32.5-17.151c22.569-6.847,28-18.831,28.056-18.951l.13-.3h.328l76.423-.073Zm-97.256-9.2,96.8,8.155,53.915-69.469L291.63,10.5c-.992,1.979-7.253,12.75-28.54,19.209C233.359,38.733,216.49,57.573,214.98,71.745Z" fill="#16221d"/><g clip-path="url(#clip-path-3)"><line x1="202.687" y1="66.305" x2="315.271" y2="76.216" fill="none" stroke="#16221d" stroke-miterlimit="10"/><line x1="209.524" y1="61.126" x2="319.938" y2="70.202" fill="none" stroke="#16221d" stroke-miterlimit="10"/><line x1="216.362" y1="55.947" x2="324.605" y2="64.189" fill="none" stroke="#16221d" stroke-miterlimit="10"/><line x1="223.199" y1="50.769" x2="329.272" y2="58.175" fill="none" stroke="#16221d" stroke-miterlimit="10"/><line x1="230.036" y1="45.59" x2="333.94" y2="52.162" fill="none" stroke="#16221d" stroke-miterlimit="10"/><line x1="236.873" y1="40.411" x2="338.607" y2="46.148" fill="none" stroke="#16221d" stroke-miterlimit="10"/><line x1="243.71" y1="35.232" x2="343.274" y2="40.134" fill="none" stroke="#16221d" stroke-miterlimit="10"/><line x1="250.547" y1="30.053" x2="347.941" y2="34.121" fill="none" stroke="#16221d" stroke-miterlimit="10"/><line x1="257.384" y1="24.874" x2="352.608" y2="28.107" fill="none" stroke="#16221d" stroke-miterlimit="10"/><line x1="264.221" y1="19.695" x2="357.275" y2="22.093" fill="none" stroke="#16221d" stroke-miterlimit="10"/><line x1="271.058" y1="14.516" x2="361.942" y2="16.08" fill="none" stroke="#16221d" stroke-miterlimit="10"/></g><path d="M242.638,59.428c.218-.708,53.492,3.522,53.492,3.522l23.605-26.387L272.2,34Z" fill="#8e452d" stroke="#16221d" stroke-miterlimit="10"/><path d="M247.792,58.04c.188-.614,46.375,3.053,46.375,3.053l20.464-22.876-41.21-2.226Z" fill="#16221d" stroke="#16221d" stroke-miterlimit="10"/><line x1="88.281" y1="98.646" x2="89.05" y2="102.78" fill="#bdb0ae" stroke="#16221d" stroke-miterlimit="10"/></g></svg>