<svg xmlns="http://www.w3.org/2000/svg" xmlns:xlink="http://www.w3.org/1999/xlink" viewBox="0 0 391.969 162.459"><defs><clipPath id="clip-path"><path d="M111.085,88.6c-.287-5-5.518-8.967-8.216-11.452s-4.981-9.07-4.482-16.722,3.064-7.382,8.343-10.327c2.933-1.636,1.529-3.871-.3-5.535a12.757,12.757,0,0,0-4.718-2.7c-7.974-2.536-8.347-9.271-8.347-9.271L78.905,30.86s.2,6.761-3.983,7.434-7.991,1.839-7.364,5.012,8.478,4.472,10.569,9.107,7.7,18.3,1.421,21.536c0,0-4.367-.024-4.245,8.208Z" fill="none"/></clipPath><clipPath id="clip-path-2"><path d="M143.592,36.914s-.008,6.34-5.623,7.345-10.526,2.418-9.122,6.125,9.606,5.776,13.234,8.8a19.2,19.2,0,0,1,6.224,12.3c.369,4.141,1.125,10.235-3.618,11.374s-10.27,1.217-9.938,9.761l47.546,8.61a15.245,15.245,0,0,0-5.692-9.693c-5.233-4.222-8.068-5.51-8.809-14.047s1.834-14.259,4.883-15.762S182.669,59,183,57.049s.3-3.895-7.333-7.773-8.036-10.271-8.036-10.271Z" fill="none"/></clipPath><clipPath id="clip-path-3"><path d="M243.687,103.95c-1.958-.892-5.487-4.115-6.947-5.936s-15.4-3.046-18.059-2.8-5.787,3.26-8.636,4.429c-2.036.835-2.465,4.208-2.545,6.065l19.216,3.409,20.861,3.7C247.561,108.971,245.472,104.763,243.687,103.95Z" fill="none"/></clipPath></defs><g id="Layer_1" data-name="Layer 1"><polygon points="253.499 127.299 1.499 127.299 160.302 8.048 390.632 8.048 253.499 127.299" fill="#b05232" stroke="#16221d" stroke-miterlimit="10"/><rect x="1.499" y="127.299" width="252" height="33.41" fill="#7c3b25" stroke="#16221d" stroke-miterlimit="10" stroke-width="1.498"/><polygon points="253.499 160.709 390.632 29.825 390.632 7.126 253.499 127.299 253.499 160.709" fill="#7c3b25" stroke="#16221d" stroke-miterlimit="10" stroke-width="1.498"/><path d="M293.935,25.261a6.942,6.942,0,0,1-2.283,1.532c-1.44.484-3.3.092-4.278,1.254-1.087,1.292-.162,3.54-1.3,4.791-.58.639-1.524.8-2.216,1.312a2.655,2.655,0,0,0-.042,4.033c.737.573,1.87.851,2.074,1.762a85.165,85.165,0,0,1-13.316,3.59,8.876,8.876,0,0,0,3.645-3.616c.929-1.449,1.791-3.12,1.484-4.813a6.375,6.375,0,0,0-1.5-2.81,19.883,19.883,0,0,0-6.336-5.1l5.669-9.733c-31.259-2.048-68.382-8.482-68.382-8.482-.667,1.036-8.118,4.761-14.176,5.6a19.5,19.5,0,0,1-12.737-2.654C178.657,10.819,181.9,8.4,181.9,8.4a53.122,53.122,0,0,1-23.549-.263,67.163,67.163,0,0,1-22.131,3.311l-4.628-4.172-5.637,6.873-23.645-2.11-1.417-3.522L92.425,7.487,62.993,20.963A24.3,24.3,0,0,1,62,27.569c-.921,2.3-3.885,4.864-2.862,9.387l-8.373,4.482L294.022,68.5l.029-43.336Z" fill="#fff" stroke="#16221d" stroke-linecap="round" stroke-linejoin="round" stroke-width="1.5"/><path d="M138.645,17.918a35.179,35.179,0,0,1,16.6-2.217c1.513.165,3.291.65,3.764,2.1.318.971-.089,2.076.267,3.033a3.524,3.524,0,0,0,2.715,1.843c5.517,1.246,11.08-1.307,16.365-3.322,6.026-2.3,12.512-3.975,18.893-3.033,4.152.613,8.089,2.312,12.248,2.87a22.856,22.856,0,0,0,12.934-2.082,9.121,9.121,0,0,0,3.019-2.137,11.485,11.485,0,0,0,2.071-5.382,2.851,2.851,0,0,0-.007-1.677,2.809,2.809,0,0,0-2.183-1.282,98.327,98.327,0,0,0-15.957-1.613c-19.185-.81-38.4-.792-57.58-1.657a35.648,35.648,0,0,0-9.037.338,11.574,11.574,0,0,0-7.477,4.7c-1.624,2.549-1.65,6.22.444,8.4A2.891,2.891,0,0,0,138,17.833" fill="#4da58e" stroke="#16221d" stroke-miterlimit="10" stroke-width="1.5"/><path d="M131.817,29.663a15.336,15.336,0,0,0,13.164-.07c.948-.465,1.977-1.289,1.805-2.331-.072-.433-.35-.814-.4-1.249-.1-.834.624-1.525,1.332-1.978,2.594-1.661,5.84-2.245,8.151-4.281a1.492,1.492,0,0,0,.661-1.336c-.145-.617-.908-.825-1.539-.886-6.493-.63-12.829,2.079-18.562,5.192a18.943,18.943,0,0,0-4.34,2.953,3.87,3.87,0,0,0-1.267,2.144,1.766,1.766,0,0,0,1.187,1.979" fill="#4da58e" stroke="#16221d" stroke-miterlimit="10" stroke-width="1.5"/><path d="M65.578,20.447s3.819-.194,4.22-.814-.541-.811-.541-.811Z" fill="#16221d"/><polyline points="54.653 41.766 60.646 38.662 60.358 36.46 72.864 37.376" fill="none" stroke="#16221d" stroke-miterlimit="10" stroke-width="1.5"/><line x1="58.78" y1="37.147" x2="60.358" y2="36.46" fill="none" stroke="#16221d" stroke-miterlimit="10" stroke-width="1.5"/><polygon points="60.646 38.662 72.175 39.457 68.088 43.365 54.653 41.766 60.646 38.662" fill="#ccc" stroke="#16221d" stroke-miterlimit="10" stroke-width="1.5"/><path d="M62.993,20.963s4.722.748,6.917-.717-.027-1.809-.027-1.809l13.046-6.1s11.941,2.147,17.96-3.812" fill="none" stroke="#16221d" stroke-miterlimit="10" stroke-width="1.5"/><path d="M84.755,11.737s6.69,2.13,14.817-2.813l-7.137-.753Z" fill="#16221d"/><path d="M78.055,20.636s-.824.9,3.176,1.42,10.715-2.276,11.046-4.089-4.146-2.327-8.389-.8S77.909,19.867,78.055,20.636Z" fill="none" stroke="#16221d" stroke-miterlimit="10" stroke-width="1.5"/><path d="M78.055,20.636s-.3,4.124-.977,4.36a12.315,12.315,0,0,1-2.934.044s.949-.4.36-1.041-3-1.692-3.626-4.892" fill="none" stroke="#16221d" stroke-miterlimit="10" stroke-width="1.5"/><path d="M80.132,19.274s-1.964,1.053-.832,1.411,2.709,1.522,7.642-.114c4.957-1.644,4.769-2.835,4.423-3.137S89.079,15.182,80.132,19.274Z" fill="#16221d"/><path d="M92.428,26.7c2.177-.506,3.812-2.681,3.805-3.193s-1.218-1.586-2.464-2.767a5.928,5.928,0,0,1-1.5-3.15l8.573-.294.027,1.842s-2.853.589-2.588,2.325,2.111,3.426-1.173,5.585Z" fill="#4da58e" stroke="#16221d" stroke-miterlimit="10" stroke-width="1.5"/><path d="M73.179,22.943l4.808-1.971a25.516,25.516,0,0,1-.669,3.763,8.459,8.459,0,0,1-3.174.3C73.9,24.9,76.447,24.412,73.179,22.943Z" fill="#4da58e" stroke="#16221d" stroke-miterlimit="10" stroke-width="1.5"/><path d="M100.928,21.42c0,.075-2.634,1.873,2.5,3.183s16.442.783,15.188,2.491-6.862,3.173-6.075,4.492a7.621,7.621,0,0,0,2.3,2.228l1.116-.017-.143-2.72s3.883-1.749,5.161-8.114Z" fill="#4da58e" stroke="#16221d" stroke-miterlimit="10" stroke-width="1.5"/><polyline points="118.073 29.23 134.389 30.8 131.979 32.832" fill="none" stroke="#16221d" stroke-linecap="round" stroke-linejoin="round" stroke-width="1.5"/><polyline points="134.389 30.8 134.584 33.519 132.016 35.255 131.979 32.832 115.813 31.077" fill="none" stroke="#16221d" stroke-linecap="round" stroke-linejoin="round" stroke-width="1.5"/><path d="M163.335,13.118s-.766,3.561-2.117,4.468-1.617,1.377.373,2.138,9.658,2.341,14.329-.214,2.475-3.365,1.575-4.192-1.294-4.377-1.294-4.377A16.626,16.626,0,0,0,163.335,13.118Z" fill="#fff" stroke="#16221d" stroke-miterlimit="10" stroke-width="1.5"/><path d="M167.006,12.153l5.214,1.037s3.992-1.513,3.237-1.833S169.844,10.246,167.006,12.153Z" fill="#16221d" stroke="#16221d" stroke-miterlimit="10" stroke-width="1.5"/><path d="M163.821,13.637s.9,1.03,5.333.691a15.206,15.206,0,0,0,7.2-2.337" fill="none" stroke="#16221d" stroke-miterlimit="10" stroke-width="1.5"/><path d="M276.205,32.3a6.375,6.375,0,0,1,1.5,2.81c.307,1.693-.555,3.364-1.484,4.813a8.876,8.876,0,0,1-3.645,3.616,85.165,85.165,0,0,0,13.316-3.59c-.2-.911-1.337-1.189-2.074-1.762a2.655,2.655,0,0,1,.042-4.033c.692-.516,1.636-.673,2.216-1.312,1.135-1.251.21-3.5,1.3-4.791.978-1.162,2.838-.77,4.278-1.254a6.942,6.942,0,0,0,2.283-1.532l.116-.1,0-7.082c-5.648.057-11.953-.18-18.517-.61L269.869,27.2A19.883,19.883,0,0,1,276.205,32.3Z" fill="#4da58e" stroke="#16221d" stroke-linecap="round" stroke-linejoin="round" stroke-width="1.5"/><path d="M254.441,8.278c-3.721-2.4-.048-3.209-.048-3.209L136.944.75l-5.356,6.531,4.628,4.172a67.163,67.163,0,0,0,22.131-3.311A53.122,53.122,0,0,0,181.9,8.4s-3.239,2.414-1.653,3.528a19.5,19.5,0,0,0,12.737,2.654c6.058-.841,13.509-4.566,14.176-5.6,0,0,54.349,9.42,86.9,9.092l0-7.388S258.162,10.679,254.441,8.278Z" fill="#fff" stroke="#16221d" stroke-linecap="round" stroke-linejoin="round" stroke-width="1.5"/><line x1="228.57" y1="23.899" x2="228.817" y2="47.356" fill="#fff" stroke="#16221d" stroke-miterlimit="10" stroke-width="1.5"/><polygon points="100.788 12.067 100.928 21.42 133.16 23.901 145.238 17.562 145.049 7.88 100.788 12.067" fill="#ccc" stroke="#16221d" stroke-miterlimit="10" stroke-width="1.5"/><path d="M113.558,5.622,101.2,11.237a.72.72,0,0,0,.278,1.381l30.508,1.717a3.453,3.453,0,0,0,1.782-.38L144.69,8.284a.72.72,0,0,0-.324-1.364L113.922,5.552A.813.813,0,0,0,113.558,5.622Z" fill="#16221d" stroke="#16221d" stroke-miterlimit="10" stroke-width="1.5"/><path d="M134.557,31.77s6.235-.7,8.454-2.912,1.457-1.787,1.457-1.787a9.11,9.11,0,0,1-2.621-5.254,6.569,6.569,0,0,0-.574-2.152l-.008-.017s-3.176-1.6-11.04-.354-9.251,3.669-9.251,3.669-1.27,4.652-2.9,6.267l16.316,1.57Z" fill="#fff" stroke="#16221d" stroke-miterlimit="10" stroke-width="1.5"/><path d="M120.974,22.963s-.836,1.242.248,1.814,19.281,2.314,20.593-3.229" fill="none" stroke="#16221d" stroke-miterlimit="10" stroke-width="1.5"/><path d="M121.667,23.732c.275,1,2.473,1.078,4.343,1.2s12.895-.218,14.6-2.828-3.3-3.022-8.227-2.488S121.18,21.963,121.667,23.732Z" fill="#16221d" stroke="#16221d" stroke-miterlimit="10" stroke-width="1.5"/><path d="M142.277,15.139l-.675,5.4.227,1.975s2.843,1.515,7.652-.6,5.183-4.507,5.183-4.507-2.626-2.131-2.849-3.363-.514-2.456-1.535-2.3S143.062,12.875,142.277,15.139Z" fill="#fff" stroke="#16221d" stroke-miterlimit="10" stroke-width="1.5"/><path d="M142.942,15.611c.2.372,1.126.2,1.918.08s5.366-1.27,5.849-2.466-1.639-.9-3.651-.235S142.585,14.951,142.942,15.611Z" fill="#16221d" stroke="#16221d" stroke-miterlimit="10" stroke-width="1.5"/><line x1="132.923" y1="14.869" x2="132.983" y2="18.859" fill="#fff" stroke="#16221d" stroke-miterlimit="10" stroke-width="1.5"/><path d="M134.007,6.455l3.635-4.623,18.668.745s1,4.625,7.429,5.553,17.668-.5,18-.8.228-3.023,3.215-4.091l18.508.973,39.745,1.595" fill="none" stroke="#16221d" stroke-miterlimit="10" stroke-width="1.5"/><path d="M265.86,25.715s.2.148.554.414c2.073,1.575,9.241,7.274,9.029,10.635-.249,3.926-20.325,9.995-32.379,11.71s-34.661-3.986-39.719-7.016-18.273-3.174-24.251-5.09-11.085-9.6.393-15.609,23.1-2.341,23.1-2.341l55.752-2.685,7.724,10.13" fill="#4da58e" stroke="#16221d" stroke-linecap="round" stroke-linejoin="round" stroke-width="1.5"/><polygon points="276.333 14.121 245.119 6.37 199.572 15.267 228.57 23.899 276.333 14.121" fill="#fff" stroke="#16221d" stroke-linecap="round" stroke-linejoin="round" stroke-width="1.5"/><polygon points="272.818 14.136 245.133 7.309 202.887 15.348 228.333 22.619 272.818 14.136" fill="#16221d" stroke="#16221d" stroke-miterlimit="10" stroke-width="1.5"/><polygon points="228.57 23.899 199.572 15.267 199.572 15.267 199.899 37.141 228.817 47.356 274.911 35.463 276.333 14.121 228.57 23.899" fill="#ccc" stroke="#16221d" stroke-linecap="round" stroke-linejoin="round" stroke-width="1.5"/><path d="M242.217,53.484c-3.022-1.271-3.943-8.14-3.943-8.14-4.456-5.9-18.888-2.419-18.888-2.419l-41.715-3.814s-1.611-1.068-2.78-1.665-1.682-2.909-1.682-2.909c-.873-3.672-6.259-7.823-16.147-7.311s-14.608,8.905-14.608,8.905l-37.72-3.165c-1.3-.186-5.316-4.141-5.316-4.141s2.02-1.816-5.969-2.106c-10.064-.366-15.549,3.76-15.7,4.158-2.2,5.661-1.042,6.093-5.771,6.6-2.3.249-5.905,2.2-5.523,5.7h0c.382,3.5,2.732,3.894,3.972,4.666s6.494.751,9.8,12.1S78.837,73,78.837,73c-5.913,2.681-4.608,9.059-4.608,9.059L207.5,105.706c.08-1.857.509-5.23,2.545-6.065,2.849-1.169,5.977-4.184,8.636-4.429s16.6.981,18.059,2.8,4.989,5.044,6.947,5.936c1.785.813,3.874,5.021,3.89,8.866l1.693.3c3.633-9.118-8.019-13.929-10.238-16.285s-2.519-13.965-.567-20.409,12.53-6.4,13.776-6.348,6.743.241,7.574-5.384S245.239,54.755,242.217,53.484Z" fill="#ccc" stroke="#16221d" stroke-linecap="round" stroke-linejoin="round" stroke-width="1.5"/><path d="M111.085,88.6c-.287-5-5.518-8.967-8.216-11.452s-4.981-9.07-4.482-16.722,3.064-7.382,8.343-10.327c2.933-1.636,1.529-3.871-.3-5.535a12.757,12.757,0,0,0-4.718-2.7c-7.974-2.536-8.347-9.271-8.347-9.271L78.905,30.86s.2,6.761-3.983,7.434-7.991,1.839-7.364,5.012,8.478,4.472,10.569,9.107,7.7,18.3,1.421,21.536c0,0-4.367-.024-4.245,8.208Z" fill="#16221d" stroke="#16221d" stroke-miterlimit="10" stroke-width="1.5"/><path d="M94.8,32.568s.7,5.518,4.5,6.894,9.371,3.7,9.733,7.328-2.2,4.919-5.388,5.966-4.842,4.833-4.135,11.016.508,10.024,5.585,14.146,6.826,6.757,6.928,10.85l21.812,3.87s-.569-6.593,2.886-8.333,10.23-.46,10.592-7.068-.8-15.7-11-20.157-8.524-5.247-8.712-7.6,1.408-5.088,7.9-5.543,6.731-5.1,6.908-7.007Z" fill="#fff" stroke="#16221d" stroke-linecap="round" stroke-linejoin="round" stroke-width="1.5"/><path d="M143.592,36.914s-.008,6.34-5.623,7.345-10.526,2.418-9.122,6.125,9.606,5.776,13.234,8.8a19.2,19.2,0,0,1,6.224,12.3c.369,4.141,1.125,10.235-3.618,11.374s-10.27,1.217-9.938,9.761l47.546,8.61a15.245,15.245,0,0,0-5.692-9.693c-5.233-4.222-8.068-5.51-8.809-14.047s1.834-14.259,4.883-15.762S182.669,59,183,57.049s.3-3.895-7.333-7.773-8.036-10.271-8.036-10.271Z" fill="#16221d" stroke="#16221d" stroke-miterlimit="10" stroke-width="1.5"/><path d="M169.005,38.831s.71,6.214,5.351,8.509,11.1,4.78,10.2,8.98-8.614,5.763-11.22,6.4-7.408,15.646-2.562,21.843,12.656,9.96,12.873,16.911l22.719,4.03s.194-5.915,3.246-7.189,8.149-2.735,8.123-11.307,1.648-16.438-9.76-22.9-.772-10.6,1.467-11.451,8.769-2.383,9.178-9.248Z" fill="#fff" stroke="#16221d" stroke-miterlimit="10" stroke-width="1.5"/><path d="M74.229,82.063s-1.3-6.378,4.608-9.059c0,0,4.7-1.7,1.39-13.053s-8.564-11.329-9.8-12.1-3.59-1.169-3.972-4.666h0L50.6,41.417l5.817,37.448L207.5,105.706h0Z" fill="#fff" stroke="#16221d" stroke-linecap="round" stroke-linejoin="round" stroke-width="1.5"/><polygon points="207.5 105.706 226.716 109.115 207.5 105.706 207.5 105.706" fill="none" stroke="#16221d" stroke-miterlimit="10" stroke-width="1.5"/><path d="M294.022,68.5,259.815,64.69c-.831,5.625-6.327,5.434-7.574,5.384s-11.825-.1-13.776,6.348-1.652,18.054.567,20.409,13.209,6.716,10.238,16.285l39.619,7.029Z" fill="#fff" stroke="#16221d" stroke-miterlimit="10" stroke-width="1.5"/><polygon points="247.577 112.816 249.27 113.116 249.27 113.116 247.577 112.816 247.577 112.816" fill="none" stroke="#16221d" stroke-miterlimit="10" stroke-width="1.5"/><polygon points="226.716 109.115 247.577 112.816 247.577 112.816 226.716 109.115" fill="none" stroke="#16221d" stroke-miterlimit="10" stroke-width="1.5"/><path d="M243.687,103.95c-1.958-.892-5.487-4.115-6.947-5.936s-15.4-3.046-18.059-2.8-5.787,3.26-8.636,4.429c-2.036.835-2.465,4.208-2.545,6.065l19.216,3.409,20.861,3.7C247.561,108.971,245.472,104.763,243.687,103.95Z" fill="#16221d" stroke="#16221d" stroke-miterlimit="10" stroke-width="1.5"/><path d="M143.989,36.108l24.549,2.116s3.8-2.879,3.2-4.962-6.712-6.956-16.253-5.077S143.989,36.108,143.989,36.108Z" fill="#16221d" stroke="#16221d" stroke-miterlimit="10" stroke-width="1.5"/><path d="M82.36,29.08l14.76,1.3s2.092-1.363,1.591-1.918S91.825,25.418,82.36,29.08Z" fill="#16221d" stroke="#16221d" stroke-miterlimit="10" stroke-width="1.5"/><path d="M99.418,28.825s-2.224,3.467-4.62,4.168" fill="#bdb0ae" stroke="#16221d" stroke-linecap="round" stroke-linejoin="round" stroke-width="1.5"/><g clip-path="url(#clip-path)"><line x1="66.843" y1="29.994" x2="75.469" y2="86.579" fill="none" stroke="#fff" stroke-miterlimit="10" stroke-width="1.5"/><line x1="72.703" y1="29.907" x2="81.328" y2="86.492" fill="none" stroke="#fff" stroke-miterlimit="10" stroke-width="1.5"/><line x1="78.835" y1="29.582" x2="87.188" y2="86.404" fill="none" stroke="#fff" stroke-miterlimit="10" stroke-width="1.5"/><line x1="85.705" y1="30.464" x2="93.621" y2="87.607" fill="none" stroke="#fff" stroke-miterlimit="10" stroke-width="1.5"/><line x1="92.299" y1="30.806" x2="99.599" y2="87.959" fill="none" stroke="#fff" stroke-miterlimit="10" stroke-width="1.5"/><line x1="99.203" y1="30.703" x2="106.502" y2="87.856" fill="none" stroke="#fff" stroke-miterlimit="10" stroke-width="1.5"/><line x1="114.426" y1="84.759" x2="66.062" y2="77.121" fill="none" stroke="#fff" stroke-miterlimit="10" stroke-width="1.5"/><line x1="114.426" y1="78.141" x2="66.062" y2="70.503" fill="none" stroke="#fff" stroke-miterlimit="10" stroke-width="1.5"/><line x1="114.426" y1="71.524" x2="66.062" y2="63.886" fill="none" stroke="#fff" stroke-miterlimit="10" stroke-width="1.5"/><line x1="114.426" y1="64.906" x2="66.062" y2="57.268" fill="none" stroke="#fff" stroke-miterlimit="10" stroke-width="1.5"/><line x1="114.426" y1="58.289" x2="66.062" y2="50.651" fill="none" stroke="#fff" stroke-miterlimit="10" stroke-width="1.5"/><line x1="114.426" y1="51.671" x2="66.062" y2="44.033" fill="none" stroke="#fff" stroke-miterlimit="10" stroke-width="1.5"/><line x1="114.426" y1="45.054" x2="66.062" y2="37.416" fill="none" stroke="#fff" stroke-miterlimit="10" stroke-width="1.5"/><line x1="114.426" y1="38.437" x2="66.062" y2="30.798" fill="none" stroke="#fff" stroke-miterlimit="10" stroke-width="1.5"/></g><g clip-path="url(#clip-path-2)"><line x1="185.579" y1="94.125" x2="126.669" y2="85.123" fill="none" stroke="#fff" stroke-miterlimit="10" stroke-width="1.5"/><line x1="185.579" y1="86.281" x2="126.669" y2="77.279" fill="none" stroke="#fff" stroke-miterlimit="10" stroke-width="1.5"/><line x1="185.579" y1="78.437" x2="126.669" y2="69.435" fill="none" stroke="#fff" stroke-miterlimit="10" stroke-width="1.5"/><line x1="185.579" y1="70.593" x2="126.669" y2="61.591" fill="none" stroke="#fff" stroke-miterlimit="10" stroke-width="1.5"/><line x1="185.579" y1="62.749" x2="126.669" y2="53.747" fill="none" stroke="#fff" stroke-miterlimit="10" stroke-width="1.5"/><line x1="185.579" y1="54.905" x2="126.669" y2="45.903" fill="none" stroke="#fff" stroke-miterlimit="10" stroke-width="1.5"/><line x1="185.579" y1="47.061" x2="126.669" y2="38.059" fill="none" stroke="#fff" stroke-miterlimit="10" stroke-width="1.5"/><line x1="129.062" y1="32.568" x2="133.558" y2="98.53" fill="none" stroke="#fff" stroke-miterlimit="10" stroke-width="1.5"/><line x1="136.495" y1="33.052" x2="140.991" y2="99.013" fill="none" stroke="#fff" stroke-miterlimit="10" stroke-width="1.5"/><line x1="144.286" y1="35.161" x2="148.782" y2="101.123" fill="none" stroke="#fff" stroke-miterlimit="10" stroke-width="1.5"/><line x1="152.078" y1="37.27" x2="156.574" y2="103.232" fill="none" stroke="#fff" stroke-miterlimit="10" stroke-width="1.5"/><line x1="159.869" y1="39.379" x2="164.365" y2="105.341" fill="none" stroke="#fff" stroke-miterlimit="10" stroke-width="1.5"/><line x1="167.661" y1="41.489" x2="172.157" y2="107.45" fill="none" stroke="#fff" stroke-miterlimit="10" stroke-width="1.5"/><line x1="175.452" y1="43.598" x2="179.949" y2="109.56" fill="none" stroke="#fff" stroke-miterlimit="10" stroke-width="1.5"/></g><g clip-path="url(#clip-path-3)"><line x1="212.898" y1="91.854" x2="211.956" y2="111.047" fill="none" stroke="#fff" stroke-miterlimit="10" stroke-width="1.5"/><line x1="221.354" y1="92.529" x2="220.412" y2="111.722" fill="none" stroke="#fff" stroke-miterlimit="10" stroke-width="1.5"/><line x1="230.424" y1="93.307" x2="229.482" y2="112.5" fill="none" stroke="#fff" stroke-miterlimit="10" stroke-width="1.5"/><line x1="239.858" y1="94.314" x2="238.916" y2="113.507" fill="none" stroke="#fff" stroke-miterlimit="10" stroke-width="1.5"/><line x1="207.861" y1="99.724" x2="252.744" y2="106.117" fill="none" stroke="#fff" stroke-miterlimit="10" stroke-width="1.5"/></g><path d="M287.118,28.434s-1.154,2.2,6.928,4.129" fill="none" stroke="#16221d" stroke-linecap="round" stroke-linejoin="round" stroke-width="1.5"/><path d="M294.172,25.918a8.468,8.468,0,0,1-4.018,1.96c-2.451.446-2.508,1.157-.239,2.3a14.483,14.483,0,0,0,4.232,1.4Z" fill="#16221d" stroke="#16221d" stroke-linecap="round" stroke-linejoin="round" stroke-width="1.5"/><path d="M259.815,64.69s6.069-9.493,31.859-6.738l.154,10.3Z" fill="#4da58e" stroke="#16221d" stroke-linecap="round" stroke-linejoin="round" stroke-width="1.5"/><line x1="228.883" y1="24.288" x2="229.152" y2="42.369" fill="none" stroke="#16221d" stroke-linecap="round" stroke-linejoin="round" stroke-width="1.5"/><path d="M259.441,62.685s10.324-9.909,33.406-5.75l.171,11.448" fill="none" stroke="#16221d" stroke-linecap="round" stroke-linejoin="round" stroke-width="1.5"/><path d="M239.5,50s.448,2.851,8.013,1.782,27.515-8.741,27.515-8.741" fill="none" stroke="#16221d" stroke-linecap="round" stroke-linejoin="round" stroke-width="1.5"/><path d="M281.81,71.18c-4.129,12.427-12.446,23.33-22.731,31.491a83.834,83.834,0,0,1-6.838,4.876,9.515,9.515,0,0,1,.266,2.746l33.847,6,4.385-44.124Z" fill="#ccc"/></g></svg>