<svg xmlns="http://www.w3.org/2000/svg" viewBox="0 0 401.149 159.901"><g id="Layer_1" data-name="Layer 1"><polygon points="253.499 124.74 1.499 124.74 160.302 5.49 390.632 5.49 253.499 124.74" fill="#b05232" stroke="#16221d" stroke-miterlimit="10"/><rect x="1.499" y="124.74" width="252" height="33.41" fill="#7c3b25" stroke="#16221d" stroke-miterlimit="10" stroke-width="1.498"/><polygon points="253.499 158.15 390.632 27.267 390.632 4.568 253.499 124.74 253.499 158.15" fill="#7c3b25" stroke="#16221d" stroke-miterlimit="10" stroke-width="1.498"/><path d="M171.177,113.161v6.3S293.682,77.041,301.035,74.858s96.526-35.477,96.526-35.477L280.165,6.905,47.9,47.265,78.309,70.013Z" fill="#16221d"/><path d="M171.177,113.161s98.474-33.814,121.2-39,48.593-13.4,58.212-18.165,47.231-18.2,47.231-18.2l-.254,1.583L354.066,58.66,228.483,105.931l-56.991,20.563Z" fill="#fff" stroke="#16221d" stroke-miterlimit="10" stroke-width="1.5"/><path d="M77.846,51.046v5.9a43.3,43.3,0,0,0,39.384,8.725s-16.741-12.789-17.155-12.789S77.846,51.046,77.846,51.046Z" fill="#fff" stroke="#16221d" stroke-linecap="round" stroke-linejoin="round" stroke-width="1.5"/><path d="M333.484,39.677V49.741s-26.419,25.377-67.163,14.88c0,0,28.548-21.81,29.255-21.81S333.484,39.677,333.484,39.677Z" fill="#fff" stroke="#16221d" stroke-linecap="round" stroke-linejoin="round" stroke-width="1.5"/><path d="M389.229,23.9v8.72S366.338,54.61,331.035,45.515c0,0,24.736-18.9,25.349-18.9S389.229,23.9,389.229,23.9Z" fill="#bdb0ae" stroke="#16221d" stroke-linecap="round" stroke-linejoin="round" stroke-width="1.5"/><path d="M247.262,54.608l-59.7,2.34,13.215,20.439c-9.185-6.956-20.247-15.258-20.71-15.258-.8,0-42.731-3.532-42.731-3.532V79.253s27.293,21.154,70.5,9.053l0,.005s33.953-7.866,37.1-11.364S247.262,54.608,247.262,54.608Z" fill="#fff" stroke="#16221d" stroke-linecap="round" stroke-linejoin="round" stroke-width="1.5"/><path d="M64.213,64.731q-7.561-4.557-15.335-8.75l-.051-4.935,15.386,8.06.078,5.5" fill="#bdb0ae" stroke="#16221d" stroke-linecap="round" stroke-linejoin="round" stroke-width="1.5"/><path d="M47.9,47.265v3.782l16.4,9.415v4.143L88.253,79.333V75.955s14.189,4.414,18.6,7.567,64.321,35.944,64.321,35.944v-6.3S98.027,73.433,90.46,72.487s-11.981-1.576-16.711-8.513S47.9,47.265,47.9,47.265Z" fill="#fff" stroke="#16221d" stroke-linecap="round" stroke-linejoin="round" stroke-width="1.5"/><path d="M116.783,55.994c36.942-8,71.321-20.494,106.6-28.526,10.176-2.316,20.484-9.362,29.728-14.2,8.432-4.417,15.424-10.7,24.919-11.556" fill="none" stroke="#16221d" stroke-miterlimit="10" stroke-width="1.5"/><path d="M74.742,40.031c12.21-4.732,26.53-12.19,36.888-20.2,4.24-3.281,8.359-6.856,13.274-9" fill="none" stroke="#16221d" stroke-miterlimit="10" stroke-width="1.5"/><path d="M171.177,120.893v9.459" fill="none" stroke="#fff" stroke-miterlimit="10" stroke-width="1.5"/><path d="M169.6,76.311,44.925,29.009c.1,2.836.364,10.225.757,10.969.548,1.039,13.627,10.168,22.09,10.257,11.323.12,18.889,2.608,26.249,5.344,13.646,5.074,67.693,31.223,75.255,32.732l.371-.121V76.3Z" fill="#fff" stroke="#16221d" stroke-linecap="round" stroke-linejoin="round" stroke-width="1.5"/><path d="M44.925,31.533,72.378,42.6v3.381s-7.214.768-8.707,0-18.263-7.713-18.263-7.713Z" fill="#16221d"/><path d="M269.55,53.291c-7.567,3.466-15.134,24.281-19.864,29.956S243.7,86.4,236.444,79.373s-11.982-11.891-16.711-13.782c-4.646-1.859-48.528,10.275-50.086,10.707V88.19c4.247-1.379,47.825-14.823,51.139-13.663,9.477,3.317,18.586,20.649,24.883,18.442s21.292-30.658,26.967-32.788,101-14.3,125.24-29.6l2.523-9.846S277.117,49.826,269.55,53.291Z" fill="#bdb0ae" stroke="#16221d" stroke-linecap="round" stroke-linejoin="round" stroke-width="1.5"/><line x1="166.115" y1="74.988" x2="166.115" y2="86.369" fill="none" stroke="#16221d" stroke-linecap="round" stroke-linejoin="round" stroke-width="1.5"/><line x1="161.569" y1="73.33" x2="161.569" y2="84.71" fill="none" stroke="#16221d" stroke-linecap="round" stroke-linejoin="round" stroke-width="1.5"/><line x1="157.024" y1="71.671" x2="157.024" y2="83.052" fill="none" stroke="#16221d" stroke-linecap="round" stroke-linejoin="round" stroke-width="1.5"/><line x1="152.479" y1="70.013" x2="152.479" y2="81.393" fill="none" stroke="#16221d" stroke-linecap="round" stroke-linejoin="round" stroke-width="1.5"/><line x1="147.933" y1="68.354" x2="147.933" y2="79.253" fill="none" stroke="#16221d" stroke-linecap="round" stroke-linejoin="round" stroke-width="1.5"/><line x1="143.692" y1="66.696" x2="143.692" y2="77.361" fill="none" stroke="#16221d" stroke-linecap="round" stroke-linejoin="round" stroke-width="1.5"/><line x1="139.754" y1="65.037" x2="139.754" y2="75.703" fill="none" stroke="#16221d" stroke-linecap="round" stroke-linejoin="round" stroke-width="1.5"/><line x1="135.816" y1="63.788" x2="135.816" y2="74.045" fill="none" stroke="#16221d" stroke-linecap="round" stroke-linejoin="round" stroke-width="1.5"/><line x1="131.878" y1="62.171" x2="131.878" y2="72.386" fill="none" stroke="#16221d" stroke-linecap="round" stroke-linejoin="round" stroke-width="1.5"/><line x1="127.407" y1="60.596" x2="127.407" y2="70.37" fill="none" stroke="#16221d" stroke-linecap="round" stroke-linejoin="round" stroke-width="1.5"/><line x1="122.911" y1="58.597" x2="122.911" y2="67.821" fill="none" stroke="#16221d" stroke-linecap="round" stroke-linejoin="round" stroke-width="1.5"/><line x1="118.414" y1="57.162" x2="118.414" y2="66.12" fill="none" stroke="#16221d" stroke-linecap="round" stroke-linejoin="round" stroke-width="1.5"/><line x1="173.086" y1="75.462" x2="173.086" y2="87.198" fill="none" stroke="#16221d" stroke-linecap="round" stroke-linejoin="round" stroke-width="1.5"/><line x1="177.631" y1="74.181" x2="177.631" y2="85.539" fill="none" stroke="#16221d" stroke-linecap="round" stroke-linejoin="round" stroke-width="1.5"/><line x1="182.177" y1="72.937" x2="182.177" y2="83.881" fill="none" stroke="#16221d" stroke-linecap="round" stroke-linejoin="round" stroke-width="1.5"/><line x1="186.737" y1="72.015" x2="186.737" y2="83.088" fill="none" stroke="#16221d" stroke-linecap="round" stroke-linejoin="round" stroke-width="1.5"/><line x1="191.282" y1="70.806" x2="191.282" y2="81.523" fill="none" stroke="#16221d" stroke-linecap="round" stroke-linejoin="round" stroke-width="1.5"/><line x1="195.915" y1="69.655" x2="195.915" y2="80.351" fill="none" stroke="#16221d" stroke-linecap="round" stroke-linejoin="round" stroke-width="1.5"/><line x1="200.46" y1="68.445" x2="200.46" y2="78.59" fill="none" stroke="#16221d" stroke-linecap="round" stroke-linejoin="round" stroke-width="1.5"/><line x1="205.005" y1="67.634" x2="205.005" y2="77.598" fill="none" stroke="#16221d" stroke-linecap="round" stroke-linejoin="round" stroke-width="1.5"/><line x1="209.506" y1="67.039" x2="209.506" y2="76.45" fill="none" stroke="#16221d" stroke-linecap="round" stroke-linejoin="round" stroke-width="1.5"/><line x1="214.052" y1="66.154" x2="214.052" y2="75.702" fill="none" stroke="#16221d" stroke-linecap="round" stroke-linejoin="round" stroke-width="1.5"/><path d="M232.668,35.636l14.677,5.988s18.254-4.412,18.29-4.5S251.657,30,251.657,30Z" fill="#16221d"/><path d="M210.279,55.994c-9.189,5.663.573,9.749,1.466,10.1,4-.683,6.958-.959,7.988-.548,4.729,1.892,9.459,6.756,16.711,13.783s8.513,9.549,13.242,3.874,12.3-26.49,19.864-29.956a60.927,60.927,0,0,1,6.249-1.964C253.66,45.262,219.887,50.071,210.279,55.994Z" fill="#fff" stroke="#16221d" stroke-linecap="round" stroke-linejoin="round" stroke-width="1.5"/><path d="M349.636,15.418C328.2,8.8,302.972-.032,287.837,3.437c0,0-33.737-9.144-72.834,6.306,0,0-19.864,5.044-40.989,3.153S130.5,5.644,110.009,15.418,44.925,28.969,44.925,28.969L169.6,76.271s27.782-7.717,42.145-10.173c-.893-.355-10.655-4.441-1.466-10.1,9.608-5.923,43.381-10.732,65.52-4.707,26.624-7.473,124.6-30.595,124.6-30.595S371.076,22.039,349.636,15.418Z" fill="#fff" stroke="#16221d" stroke-linecap="round" stroke-linejoin="round" stroke-width="1.5"/><path d="M114.816,54.608l20.19,8.578s118.137-25.914,129.5-32.218c11.185-6.2,28.841-19.8,44.311-17.673q.373.051.746.115c15.646,2.684-16.946-11.953-26-7.617C245.746,23.9,185.634,48.654,114.816,54.608Z" fill="#ccc"/><path d="M65.085,35.964l20.19,8.578s12.263-.282,48.465-25.061c.207-.142,42.948-5.539,43.2-5.5,15.645,2.685-28.3-4.5-34.361-2.945C99.48,22.082,121.274,29.009,65.085,35.964Z" fill="#ccc"/><line x1="137.182" y1="63.788" x2="240.837" y2="38.969" fill="none" stroke="#16221d" stroke-miterlimit="10" stroke-width="1.5"/><path d="M346.2,14.389C325.55,7.935,302.17.192,287.837,3.477c0,0-1.517-.411-4.273-.91,0,0,22.9,5.124,29,10.1C312.564,12.667,335.038,16.664,346.2,14.389Z" fill="#ccc" opacity="0.5"/><path d="M259.235,33.824c-.131-.066,18-9.341,24.845-14.316s19.6-7.595,29.268-5.539" fill="none" stroke="#16221d" stroke-linecap="round" stroke-miterlimit="10" stroke-width="1.5"/><path d="M200.1,38.969c.149-.057,5.871,2.655,5.871,2.655l4.809-.515-5.34-2.962Z" fill="#16221d"/><path d="M203.993,23.048c.149-.058,5.871,2.655,5.871,2.655l4.7-.839a.562.562,0,0,0,.173-1.044l-3.776-2.094a.564.564,0,0,0-.388-.059Z" fill="#16221d"/><path d="M224.878,42.79c.151-.036,6.9,5.077,6.9,5.077l.311-3.547-3.012-2.535Z" fill="#16221d"/><path d="M190.294,30.5l6.217,3.839L192.1,35.569l-1.178-.739a2.873,2.873,0,0,1-.628-4.335Z" fill="#16221d"/><path d="M100.075,49.484s32.671-8.725,46.1-16.593,64.6-14.014,75.128-16.99c3.64-1.029,24.813-14.157,27.214-14.393" fill="none" stroke="#16221d" stroke-linecap="round" stroke-miterlimit="10" stroke-width="1.5"/><path d="M113.549,38.929,124.9,44.32s2.787,1.707,12.881-2.535,28.33-10.252,28.33-10.252l-15.909-9.878S144.272,22.155,113.549,38.929Z" fill="#bdb0ae" stroke="#16221d" stroke-miterlimit="10"/><path d="M116.166,38.573l9.49,4.505s4.028.836,12.465-2.709S163.8,31.262,163.8,31.262l-13.993-8.645S141.845,24.553,116.166,38.573Z" fill="#16221d" stroke="#16221d" stroke-miterlimit="10"/><path d="M85.252,44.26s14.029-2.239,22.034-8.023,20.07-17.227,36.986-19.4,41.42-3.527,41.42-3.527" fill="none" stroke="#16221d" stroke-linecap="round" stroke-miterlimit="10" stroke-width="1.5"/><polygon points="184.51 18.877 189.868 21.655 196.511 20.499 191.289 18.077 184.51 18.877" fill="#16221d"/><path d="M64.023,36.255a83.492,83.492,0,0,0,36.052-17.048" fill="none" stroke="#16221d" stroke-miterlimit="10" stroke-width="1.5"/><polygon points="296.352 15.486 302.903 21.655 308.376 20.732 300.581 14.574 296.352 15.486" fill="#16221d"/><path d="M399.534,24.106l-.262.068L327.241,42.643v3.234s19.777-1.317,21.891-2.338S390.572,33.522,398.025,30" fill="#16221d"/><path d="M274.378,16.025l7.07,5.265-5.575,3.374S268.656,18.513,274.378,16.025Z" fill="#16221d"/><path d="M331.035,9.694a13.853,13.853,0,0,0-9.226.485,26.166,26.166,0,0,1-9.842,2.038" fill="none" stroke="#16221d" stroke-miterlimit="10" stroke-width="1.5"/><path d="M287.837,3.477s16.719,4.942,24.13,8.74" fill="none" stroke="#16221d" stroke-miterlimit="10" stroke-width="1.5"/><g opacity="0.5"><path d="M252.583,48.516a19.407,19.407,0,0,0-1.445,2c-2.626,4.187-3.741,9.281-6.917,13.068a3.73,3.73,0,0,1-2.494,1.578,4.353,4.353,0,0,1-2.825-1.427c-5.658-4.888-12.11-9.084-19.181-11.373a37.591,37.591,0,0,0-9.442,3.636c-9.189,5.663.573,9.749,1.466,10.1,4-.683,6.958-.959,7.988-.548,4.729,1.892,9.459,6.756,16.711,13.783s8.513,9.549,13.242,3.874,12.3-26.49,19.864-29.956a60.927,60.927,0,0,1,6.249-1.964A92.939,92.939,0,0,0,252.583,48.516Z" fill="#ccc"/></g><path d="M210.279,55.994c-9.189,5.663.573,9.749,1.466,10.1,4-.683,6.958-.959,7.988-.548,4.729,1.892,9.459,6.756,16.711,13.783s8.513,9.549,13.242,3.874,12.3-26.49,19.864-29.956a60.927,60.927,0,0,1,6.249-1.964C253.66,45.262,219.887,50.071,210.279,55.994Z" fill="none" stroke="#16221d" stroke-linecap="round" stroke-linejoin="round" stroke-width="1.5"/><path d="M397.561,39.381s-57.384,22.7-64.321,25.539c-3.092,1.265-16.272,5.212-30.378,9.4v5.832l93.123-35.842Z" fill="#fff" stroke="#16221d" stroke-miterlimit="10" stroke-width="1.5"/><path d="M263.559,86.328c-5.045,2.239-92.382,33.138-92.382,33.138S100.865,77.322,92.247,75.43s-3.22,4.364-3.22,4.364c15.833,9.625,31.755,19.1,47.631,28.656,11.686,7.033,23.38,14.13,34.124,22.533l132.08-50.835V74.316C285.324,79.518,266.355,85.088,263.559,86.328Z" fill="#bdb0ae" stroke="#16221d" stroke-linecap="round" stroke-linejoin="round" stroke-width="1.5"/></g></svg>