<?xml version="1.0" encoding="iso-8859-1"?>
<!-- Generator: Adobe Illustrator 19.0.0, SVG Export Plug-In . SVG Version: 6.00 Build 0)  -->
<svg version="1.1" id="Layer_1" xmlns="http://www.w3.org/2000/svg" xmlns:xlink="http://www.w3.org/1999/xlink" x="0px" y="0px"
	 viewBox="0 0 512 512" style="enable-background:new 0 0 512 512;fill:#f9eced;" xml:space="preserve">
<g>
	<g>
		<path d="M499.677,426.489c4.428,0,8.017-3.589,8.017-8.017V84.977c0-2.1-0.862-4.184-2.347-5.668l-76.96-76.96
			C426.899,0.863,424.817,0,422.716,0H106.324C92.473,0,81.205,11.268,81.205,25.119v9.086H12.261
			c-6.987,0-10.615,8.738-5.669,13.685l62.741,62.741L6.592,173.371c-4.946,4.947-1.319,13.685,5.669,13.685h68.944v299.825
			c0,13.851,11.268,25.119,25.119,25.119h376.251c13.851,0,25.119-11.268,25.119-25.119v-34.205c0-4.427-3.588-8.017-8.017-8.017
			c-4.428,0-8.017,3.589-8.017,8.017v34.205c0,5.01-4.076,9.086-9.086,9.086H106.324c-5.01,0-9.086-4.076-9.086-9.086V187.056
			h51.841c4.428,0,8.017-3.589,8.017-8.017s-3.588-8.017-8.017-8.017H31.615l54.724-54.724c3.131-3.131,3.131-8.207,0-11.337
			L31.615,50.238h348.88v120.785H183.284c-4.428,0-8.017,3.589-8.017,8.017s3.588,8.017,8.017,8.017h205.228
			c4.428,0,8.017-3.589,8.017-8.017V42.221c0-4.427-3.588-8.017-8.017-8.017H97.238v-9.086c0-5.01,4.076-9.086,9.086-9.086H414.7
			v51.841c0,13.851,11.268,25.119,25.119,25.119h51.841v325.478C491.66,422.9,495.248,426.489,499.677,426.489z M439.819,76.96
			c-5.01,0-9.086-4.076-9.086-9.086V27.37l49.589,49.59H439.819z"/>
	</g>
</g>
<g>
	<g>
		<path d="M242.196,133.749l-17.102-51.307c-1.091-3.274-4.155-5.481-7.605-5.481s-6.515,2.208-7.605,5.481l-17.102,51.307
			c-1.4,4.201,0.869,8.74,5.07,10.141c4.2,1.398,8.74-0.871,10.141-5.07l9.497-28.49l9.497,28.49
			c1.439,4.315,6.333,6.582,10.563,4.915C241.454,142.195,243.522,137.725,242.196,133.749z"/>
	</g>
</g>
<g>
	<g>
		<path d="M260.245,76.96c-4.428,0-8.017,3.589-8.017,8.017v51.307c0,4.427,3.588,8.017,8.017,8.017
			c4.428,0,8.017-3.589,8.017-8.017V84.977C268.261,80.55,264.673,76.96,260.245,76.96z"/>
	</g>
</g>
<g>
	<g>
		<path d="M422.716,213.779h-34.205c-4.428,0-8.017,3.589-8.017,8.017V256c0,4.427,3.588,8.017,8.017,8.017h8.756
			c-3.474,44.902-35.856,82.652-80.033,92.593c-3.996-8.591-12.704-14.564-22.786-14.564c-10.087,0-18.8,5.979-22.792,14.579
			c-44.23-9.936-76.567-47.597-80.028-92.608h8.757c4.428,0,8.017-3.589,8.017-8.017v-34.205c0-4.427-3.588-8.017-8.017-8.017
			h-34.205c-4.428,0-8.017,3.589-8.017,8.017V256c0,4.427,3.588,8.017,8.017,8.017h9.381c2.68,40.294,25.374,75.622,59.048,95.132
			h-34.225c-4.428,0-8.017,3.589-8.017,8.017c0,4.427,3.588,8.017,8.017,8.017h70.263c3.354,9.93,12.752,17.102,23.8,17.102
			s20.446-7.172,23.8-17.102h70.263c4.428,0,8.017-3.589,8.017-8.017c0-4.427-3.588-8.017-8.017-8.017h-34.304
			c33.687-19.534,56.437-54.918,59.127-95.132h9.383c4.428,0,8.017-3.589,8.017-8.017v-34.205
			C430.733,217.368,427.145,213.779,422.716,213.779z M174.199,247.983v-18.171h18.171v18.171H174.199z M294.449,376.251
			c-5.01,0-9.086-4.076-9.086-9.086c0-5.01,4.076-9.086,9.086-9.086c5.01,0,9.086,4.076,9.086,9.086
			C303.535,372.175,299.458,376.251,294.449,376.251z M414.7,247.983h-18.171v-18.171H414.7V247.983z"/>
	</g>
</g>
<g>
	<g>
		<path d="M398.491,406.375l-72.757-19.496c-2.765-0.741-5.717,0.049-7.744,2.075c-2.024,2.024-2.814,4.977-2.074,7.743
			l19.494,72.757c0.903,3.375,3.889,5.775,7.379,5.933c0.123,0.006,0.246,0.009,0.367,0.009c3.346,0,6.358-2.084,7.521-5.246
			l13.052-35.456l35.457-13.052c3.278-1.207,5.398-4.397,5.239-7.887S401.864,407.279,398.491,406.375z M354.714,420.925
			c-2.204,0.811-3.942,2.548-4.753,4.753l-5.603,15.222l-9.362-34.941l34.941,9.362L354.714,420.925z"/>
	</g>
</g>
<g>
</g>
<g>
</g>
<g>
</g>
<g>
</g>
<g>
</g>
<g>
</g>
<g>
</g>
<g>
</g>
<g>
</g>
<g>
</g>
<g>
</g>
<g>
</g>
<g>
</g>
<g>
</g>
<g>
</g>
</svg>
