<?xml version="1.0" encoding="iso-8859-1"?>
<!-- Generator: Adobe Illustrator 19.0.0, SVG Export Plug-In . SVG Version: 6.00 Build 0)  -->
<svg version="1.1" id="Layer_1" xmlns="http://www.w3.org/2000/svg" xmlns:xlink="http://www.w3.org/1999/xlink" x="0px" y="0px"
	 viewBox="0 0 512 512" style="enable-background:new 0 0 512 512;fill:#f9eced;" xml:space="preserve">
<g>
	<g>
		<path d="M499.677,426.489c4.427,0,8.017-3.589,8.017-8.017V84.977c0-2.1-0.863-4.184-2.348-5.668l-76.96-76.96
			C426.902,0.865,424.815,0,422.716,0H106.323C92.473,0,81.204,11.268,81.204,25.119v9.086H12.261
			c-6.987,0-10.616,8.738-5.668,13.685l62.741,62.741l-62.74,62.741c-4.947,4.947-1.32,13.685,5.668,13.685h68.944v299.825
			c0,13.851,11.268,25.119,25.119,25.119h376.251c13.851,0,25.119-11.268,25.119-25.119v-34.205c0-4.427-3.589-8.017-8.017-8.017
			s-8.017,3.589-8.017,8.017v34.205c0,5.01-4.076,9.086-9.086,9.086H106.324c-5.01,0-9.086-4.076-9.086-9.086V187.056h51.841
			c4.427,0,8.017-3.589,8.017-8.017s-3.589-8.017-8.017-8.017H31.615l54.724-54.724c3.131-3.131,3.131-8.207,0-11.337L31.615,50.238
			h348.88v120.785H183.285c-4.427,0-8.017,3.589-8.017,8.017s3.589,8.017,8.017,8.017h205.228c4.427,0,8.017-3.589,8.017-8.017
			V42.221c0-4.427-3.589-8.017-8.017-8.017H97.239v-9.086c0-5.01,4.076-9.086,9.086-9.086H414.7v51.841
			c0,13.851,11.268,25.119,25.119,25.119h51.841v325.478C491.66,422.9,495.25,426.489,499.677,426.489z M439.818,76.96
			c-5.01,0-9.086-4.076-9.086-9.086V27.37l49.59,49.59H439.818z"/>
	</g>
</g>
<g>
	<g>
		<path d="M191.836,128.267h-26.188v-9.62h9.086c4.427,0,8.017-3.589,8.017-8.017s-3.589-8.017-8.017-8.017h-9.086v-9.62h26.188
			c4.427,0,8.017-3.589,8.017-8.017s-3.589-8.017-8.017-8.017h-34.205c-4.427,0-8.017,3.589-8.017,8.017v51.307
			c0,4.427,3.589,8.017,8.017,8.017h34.205c4.427,0,8.017-3.589,8.017-8.017S196.263,128.267,191.836,128.267z"/>
	</g>
</g>
<g>
	<g>
		<path d="M270.936,77.251c-3.47-0.961-7.161,0.511-9.014,3.601l-18.779,31.299l-18.779-31.299
			c-1.853-3.089-5.542-4.563-9.014-3.601c-3.473,0.962-5.877,4.123-5.877,7.726v51.307c0,4.427,3.589,8.017,8.017,8.017
			c4.427,0,8.017-3.589,8.017-8.017v-22.365l10.763,17.938c3.058,5.095,10.69,5.096,13.748,0l10.763-17.938v22.365
			c0,4.427,3.589,8.017,8.017,8.017s8.017-3.589,8.017-8.017V84.977C276.813,81.374,274.409,78.213,270.936,77.251z"/>
	</g>
</g>
<g>
	<g>
		<path d="M320.103,128.267h-17.637v-43.29c0-4.427-3.589-8.017-8.017-8.017c-4.427,0-8.017,3.589-8.017,8.017v51.307
			c0,4.427,3.589,8.017,8.017,8.017h25.653c4.427,0,8.017-3.589,8.017-8.017S324.53,128.267,320.103,128.267z"/>
	</g>
</g>
<g>
	<g>
		<path d="M422.717,256.534H243.143c-4.427,0-8.017,3.589-8.017,8.017s3.589,8.017,8.017,8.017h159.236l-101.73,94.948
			c-3.476,3.244-8.921,3.244-12.398,0L186.52,272.568h30.968c4.427,0,8.017-3.589,8.017-8.017s-3.589-8.017-8.017-8.017h-51.307
			c-4.36,0-8.017,3.654-8.017,8.017v162.472c0,4.356,3.657,8.017,8.017,8.017h256.534c4.358,0,8.017-3.663,8.017-8.017V264.551
			h0.001C430.734,260.186,427.079,256.534,422.717,256.534z M174.199,282.999l69.759,65.108l-69.759,61.214V282.999z
			 M187.473,419.006l68.266-59.904l21.572,20.134c4.806,4.486,10.972,6.729,17.14,6.729c6.166,0,12.335-2.244,17.139-6.728
			l20.563-19.192l68.872,58.961H187.473z M414.7,409.607l-70.753-60.571L414.7,283V409.607z"/>
	</g>
</g>
<g>
</g>
<g>
</g>
<g>
</g>
<g>
</g>
<g>
</g>
<g>
</g>
<g>
</g>
<g>
</g>
<g>
</g>
<g>
</g>
<g>
</g>
<g>
</g>
<g>
</g>
<g>
</g>
<g>
</g>
</svg>
