<svg xmlns="http://www.w3.org/2000/svg" width="505" height="63"><defs><style>.b{fill:#b6c89d}.c{fill:#846f7b}.d,.i{fill:#010101}.d,.h{opacity:.1}.d,.h,.m{mix-blend-mode:multiply}.e{fill:#fff}.f,.p,.r,.v,.x,.z{fill:none}.f{stroke:#ddd}.f,.p,.r,.u,.v,.x,.z{stroke-miterlimit:10}.f,.v,.z{stroke-width:.39px}.g{fill:#ddd}.j{fill:#f7f0e4}.k{fill:#fff3e7;opacity:.4}.l,.m{fill:#d9d9d8}.m{opacity:.5}.n{fill:#ebeadf}.o{fill:#6a6b6d}.p{stroke:#6a6b6d}.p,.r,.u,.x{stroke-width:.6px}.q{fill:#db786b}.r{stroke:#846f7b}.s,.u{fill:#d4eceb}.t{fill:#a1bfbf}.u{stroke:#a1bfbf}.v,.x{stroke:#a1c9c8}.z{stroke:#999b9f}.aa{fill:#a09a9e}</style></defs><g style="isolation:isolate"><path class="b" d="M17.7 62.3v-1.8a1 1 0 0 1-.3-.5 1.2 1.2 0 0 1 1-1.3h.3a1.4 1.4 0 0 1 .3 0 2.1 2.1 0 0 1 1.5-1 2.5 2.5 0 0 1 .5 0 1.7 1.7 0 0 1 1.4.7 1.2 1.2 0 0 1 .3-.1 1 1 0 0 1 .8.3 1.2 1.2 0 0 1 .6-.1 1.6 1.6 0 0 1 .6.1 2.3 2.3 0 0 1 1.4-.6 2.3 2.3 0 0 1 .3 0 2.9 2.9 0 0 1 .4 0 1.4 1.4 0 0 1 .8-.3h.2a1.3 1.3 0 0 1 .7.2.9.9 0 0 1 .2 0h.2a1.3 1.3 0 0 1 .7.1 1.5 1.5 0 0 1 .8-.3 1.3 1.3 0 0 1 1-.8h.2a1.3 1.3 0 0 1 .6.2 2.1 2.1 0 0 1 .7-.3h.4a2 2 0 0 1 .6.1 2.2 2.2 0 0 1 2.1-1.3 2.2 2.2 0 0 1 2.2 2.1 2.2 2.2 0 0 1-1.9 2.1v2.5z"/><path class="c" d="M36 56a1.8 1.8 0 1 1 0 3.5V62H18v-1.6a.7.7 0 0 1-.3-.5.9.9 0 0 1 .8-.9h.2a1 1 0 0 1 .5.2 1.6 1.6 0 0 1 1.3-1.1 3 3 0 0 1 .5-.1 1.3 1.3 0 0 1 1.3.8.7.7 0 0 1 .5-.2.8.8 0 0 1 .6.4 1 1 0 0 1 .6-.2 1.2 1.2 0 0 1 .6.1 1.6 1.6 0 0 1 .2.1 1.8 1.8 0 0 1 1.3-.7h.3a2.3 2.3 0 0 1 .5.1 1 1 0 0 1 .7-.4h.2a1 1 0 0 1 .6.3.8.8 0 0 1 .4-.1h.1a1 1 0 0 1 .8.3 1.3 1.3 0 0 1 1-.5 1 1 0 0 1 .8-.7h.1a1 1 0 0 1 .7.2 1.7 1.7 0 0 1 .8-.4 1.6 1.6 0 0 1 .3 0 1.7 1.7 0 0 1 .8.2A2 2 0 0 1 36 56m0-.6a2.5 2.5 0 0 0-2.2 1.2 2.3 2.3 0 0 0-.5 0H33a2.5 2.5 0 0 0-.7.3 1.6 1.6 0 0 0-.6-.2h-.2a1.6 1.6 0 0 0-1.2.9 1.9 1.9 0 0 0-.6.2 1.6 1.6 0 0 0-.7-.1h-.4a1.7 1.7 0 0 0-.7-.2h-.3a1.6 1.6 0 0 0-.7.3 1.8 1.8 0 0 0-.4 0 2.8 2.8 0 0 0-.4 0 2.7 2.7 0 0 0-1.3.6 2 2 0 0 0-.6-.2 1.5 1.5 0 0 0-.5.1 1.3 1.3 0 0 0-.8-.3h-.3a2.1 2.1 0 0 0-1.5-.5 3 3 0 0 0-.5 0 2.5 2.5 0 0 0-1.6 1h-.5a1.5 1.5 0 0 0-1.3 1.6 1.3 1.3 0 0 0 .3.6v2h19.2v-2.5a2.5 2.5 0 0 0 2-2.4 2.5 2.5 0 0 0-2.6-2.4z"/><path class="b" d="M90 62.3l.2-.4a1 1 0 0 1-.1-.5.8.8 0 0 1 0-.4.7.7 0 0 1 0-.1 1.1 1.1 0 0 1 .2-.4.7.7 0 0 1 0-.3.8.8 0 0 1 .8-.7.8.8 0 0 1 .5.2h.1a1.2 1.2 0 0 1 .9-.4 1 1 0 0 1 .3 0 2 2 0 0 1 2.1-1.9 2.4 2.4 0 0 1 .8.2 1.3 1.3 0 0 1 1.2-.7 1.3 1.3 0 0 1 1.3.9h.3c.8 0 1.7.3 1.7.9a1.6 1.6 0 0 1 .9.3l.1-.1a1.3 1.3 0 0 1 0-.4c0-.9.9-1.5 2-1.5a3 3 0 0 1 .5 0 1.3 1.3 0 0 1 0-.3 1.7 1.7 0 0 1 1.8-1.6 1.9 1.9 0 0 1 1.7 1 4 4 0 0 1 .7-.1h.5a1.6 1.6 0 0 1 3-.2 2.6 2.6 0 0 1 1.2-.3 2.4 2.4 0 0 1 .6 0 2.5 2.5 0 0 1 1.8 2 2.6 2.6 0 0 1-.4 2.1 1.2 1.2 0 0 1 .3.8 1.1 1.1 0 0 1-.8 1 1 1 0 0 1-.8.7v.1z"/><path class="c" d="M110 55a1.3 1.3 0 0 1 1.3 1.3 2.3 2.3 0 0 1 1.9-.4 2.2 2.2 0 0 1 1.6 1.6 2.3 2.3 0 0 1-.6 2.2.8.8 0 0 1-.3 1.5.7.7 0 0 1-.6.6h-.2v.2H90.4l.1-.2a.7.7 0 0 1-.2-.4.5.5 0 0 1 .1-.3.6.6 0 0 1 0-.2.8.8 0 0 1 .2-.4.4.4 0 0 1-.1-.3.5.5 0 0 1 .5-.4.5.5 0 0 1 .4.2 1.2 1.2 0 0 1 .3 0 1 1 0 0 1 .8-.4 1 1 0 0 1 .3 0 1.3 1.3 0 0 1 .4-.2v-.2a1.7 1.7 0 0 1 1.8-1.5 1.9 1.9 0 0 1 1 .3 1 1 0 0 1 2 0 2.7 2.7 0 0 1 .6 0c.8 0 1.4.3 1.4.6a.4.4 0 0 1-.1.3.5.5 0 0 1 .2 0h.2a1.2 1.2 0 0 1 .9.4 1.1 1.1 0 0 1 .5-.3.9.9 0 0 1-.2-.6c0-.7.9-1.2 1.9-1.2a2.5 2.5 0 0 1 1 .2 1.2 1.2 0 0 1-.3-.8 1.4 1.4 0 0 1 1.5-1.3 1.5 1.5 0 0 1 1.5 1 3 3 0 0 1 1 0 3.6 3.6 0 0 1 .7 0A1.3 1.3 0 0 1 110 55m0-.6a1.9 1.9 0 0 0-1.8 1.3h-.2a3.3 3.3 0 0 0-.6 0 2.2 2.2 0 0 0-1.8-1 2 2 0 0 0-2.1 1.8h-.1c-1.4 0-2.4.8-2.4 1.9a1.9 1.9 0 0 0-.4-.1c-.2-.6-1-1-2-1h-.2a1.6 1.6 0 0 0-1.4-.7 1.6 1.6 0 0 0-1.3.6 2.5 2.5 0 0 0-.8 0 2.3 2.3 0 0 0-2.3 1.8h-.1a1.5 1.5 0 0 0-1 .3 1.1 1.1 0 0 0-.6-.1 1 1 0 0 0-1 1.3 1.4 1.4 0 0 0-.1.4v.1a1.1 1.1 0 0 0-.1.4 1.4 1.4 0 0 0 0 .5l-.3.7h24.3v-.2a1.3 1.3 0 0 0 .7-.6 1.4 1.4 0 0 0 .9-1.3 1.4 1.4 0 0 0-.3-.8 2.9 2.9 0 0 0 .4-2.2 2.8 2.8 0 0 0-2-2.1 3 3 0 0 0-.8-.1 2.6 2.6 0 0 0-1 .2 1.9 1.9 0 0 0-1.6-1z"/><path class="d" d="M113.3 60.2a1.6 1.6 0 0 0 .6-1.2 2 2 0 0 0-2.1-1.8 2.5 2.5 0 0 0-1.3.3 1.3 1.3 0 0 0-2.5 0v.1a4 4 0 0 0-.7 0 3.7 3.7 0 0 0-.9 0 1.5 1.5 0 0 0-1.4-.8c-.8 0-1.5.5-1.5 1a.8.8 0 0 0 .3.6 3 3 0 0 0-1-.1c-1 0-1.7.4-1.7 1a.6.6 0 0 0 .2.4 1 1 0 0 0-.5.3 1.3 1.3 0 0 0-1-.4h-.1a.5.5 0 0 0-.2 0 .3.3 0 0 0 .1-.2c0-.2-.6-.5-1.3-.5a3.5 3.5 0 0 0-.6 0c0-.4-.4-.7-1-.7s-1 .3-1 .7a2.1 2.1 0 0 0-1-.2c-1 0-1.7.5-1.7 1.2a.4.4 0 0 0 0 .1 1.3 1.3 0 0 0-.4.2 1 1 0 0 0-.3 0 1 1 0 0 0-.7.3h-.3a.6.6 0 0 0-.4-.1c-.3 0-.5.1-.5.3a.3.3 0 0 0 0 .2.6.6 0 0 0 0 .3.8.8 0 0 0 0 .2.4.4 0 0 0-.2.2.5.5 0 0 0 .2.4h21.9a.6.6 0 0 0 .6-.5.7.7 0 0 0 .7-.6.7.7 0 0 0-.3-.7z"/><path class="b" d="M221.7 62.3v-5a1.1 1.1 0 0 0 0-.1 1 1 0 0 1-.2-.5 1.6 1.6 0 0 1 1.7-1.6 1.7 1.7 0 0 1 1.7 1.6 1.3 1.3 0 0 1 0 .3 2.3 2.3 0 0 1 .4 0 1.8 1.8 0 0 1 2 1.5 1 1 0 0 1 0 .4 1.4 1.4 0 0 1 .8-.2c0-.5.8-1 1.7-1h.3a1.2 1.2 0 0 1 1.2-.8 1.3 1.3 0 0 1 1.1.7 2 2 0 0 1 2.8 1.7H235.5a1.2 1.2 0 0 1 1 .4.8.8 0 0 1 .5-.2.8.8 0 0 1 .8.8.7.7 0 0 1 0 .2 1.1 1.1 0 0 1 0 .4.6.6 0 0 1 0 .1.8.8 0 0 1 .1.4 1.1 1.1 0 0 1 0 .5l.1.4z"/><path class="c" d="M223.2 55.4a1.4 1.4 0 0 1 1.4 1.3 1.2 1.2 0 0 1-.2.7 2.2 2.2 0 0 1 .9-.1c.9 0 1.7.5 1.7 1.2a1 1 0 0 1-.2.5 1 1 0 0 1 .5.4 1.1 1.1 0 0 1 .9-.4h.2a.5.5 0 0 1 .1 0 .4.4 0 0 1 0-.3c0-.3.5-.6 1.3-.6a2.4 2.4 0 0 1 .5 0 1 1 0 0 1 2 0 1.7 1.7 0 0 1 1-.3 1.6 1.6 0 0 1 1.6 1.5v.2a1.2 1.2 0 0 1 .4.2 1 1 0 0 1 .2 0 .8.8 0 0 1 .8.4 1.2 1.2 0 0 1 .2 0h.1a.5.5 0 0 1 .4-.2.5.5 0 0 1 .5.4.4.4 0 0 1-.1.3.9.9 0 0 1 .1.4 1.2 1.2 0 0 1 0 .2.5.5 0 0 1 .1.3.7.7 0 0 1-.2.4l.1.2H222v-4.8l-.2-.6a1.3 1.3 0 0 1 1.4-1.3m0-.6a2 2 0 0 0-2 2 1.3 1.3 0 0 0 .2.5v5.3h17l-.4-.7a1.5 1.5 0 0 0 .1-.5 1.1 1.1 0 0 0 0-.4v-.1a1.4 1.4 0 0 0-.1-.4 1 1 0 0 0 0-.3 1 1 0 0 0-1.1-1 1.1 1.1 0 0 0-.5.2 1.5 1.5 0 0 0-1-.3 2.2 2.2 0 0 0-2.3-2 2.3 2.3 0 0 0-.6.2 1.6 1.6 0 0 0-2.7.2h-.1a1.9 1.9 0 0 0-1.9 1 1.6 1.6 0 0 0-.3 0 2 2 0 0 0-2.3-1.8 2 2 0 0 0-2-1.9z"/><path class="d" d="M223.2 56.9a1.2 1.2 0 0 1 1.3 1 .8.8 0 0 1-.3.5 2.4 2.4 0 0 1 .9-.1c.9 0 1.6.4 1.6 1a.7.7 0 0 1-.2.3 1 1 0 0 1 .5.3 1.1 1.1 0 0 1 .8-.3H228.1a.3.3 0 0 1 0-.2c0-.3.5-.5 1.2-.5a2.8 2.8 0 0 1 .5 0 .8.8 0 0 1 .9-.7.8.8 0 0 1 .9.7 2 2 0 0 1 .9-.2 1.4 1.4 0 0 1 1.5 1.1v.2a1.3 1.3 0 0 1 .3.2 1.2 1.2 0 0 1 .3 0 .8.8 0 0 1 .7.3h.2a.5.5 0 0 1 .5-.2c.2 0 .4.2.4.4a.3.3 0 0 1 0 .2.5.5 0 0 1 0 .3.8.8 0 0 1 0 .1.4.4 0 0 1 .1.3.5.5 0 0 1-.1.3v.2H222v-3.8l-.2-.4c0-.6.6-1 1.4-1z"/><path class="b" d="M82.7 62.3v-5a1.3 1.3 0 0 0 0-.2 1.3 1.3 0 0 1 0-.4 1.6 1.6 0 0 1 3.2 0 2.6 2.6 0 0 1 0 .3 1.9 1.9 0 0 1 .3 0 1.8 1.8 0 0 1 2 1.5 1 1 0 0 1-.1.4h.1a1.4 1.4 0 0 1 .7-.2c0-.6.7-1 1.6-1h.3a1.2 1.2 0 0 1 1.1-.9 1.2 1.2 0 0 1 1.1.8 1.8 1.8 0 0 1 .7-.2 1.9 1.9 0 0 1 2 1.9h.2a1 1 0 0 1 .8.4.8.8 0 0 1 1.3.6.7.7 0 0 1 0 .2 1.1 1.1 0 0 1 0 .4v.1a.8.8 0 0 1 .2.3 1.1 1.1 0 0 1-.2.5l.2.5z"/><path class="c" d="M84.2 55.4a1.3 1.3 0 0 1 1.4 1.3 1.3 1.3 0 0 1-.3.7 2 2 0 0 1 .9-.1 1.5 1.5 0 0 1 1.6 1.2 1 1 0 0 1-.2.5 1 1 0 0 1 .5.4 1 1 0 0 1 .8-.4h.2a.4.4 0 0 1 .2 0 .4.4 0 0 1-.1-.3c0-.3.5-.6 1.2-.6a2.2 2.2 0 0 1 .6 0 .9.9 0 0 1 1.7 0 1.5 1.5 0 0 1 1-.3 1.6 1.6 0 0 1 1.5 1.5.8.8 0 0 1 0 .2 1 1 0 0 1 .4.2.9.9 0 0 1 .3 0 .8.8 0 0 1 .7.4 1 1 0 0 1 .2 0 .5.5 0 0 1 .4-.2.4.4 0 0 1 .5.4.4.4 0 0 1 0 .3.9.9 0 0 1 0 .4.6.6 0 0 1 0 .2.5.5 0 0 1 .1.3.7.7 0 0 1-.1.4v.2H83v-4.8l-.1-.6a1.3 1.3 0 0 1 1.3-1.3m0-.6a2 2 0 0 0-2 2 1.4 1.4 0 0 0 .1.4.6.6 0 0 1 0 .1v5.3h16.3l-.3-.7a1.5 1.5 0 0 0 0-.5 1.1 1.1 0 0 0 0-.4v-.1a1.4 1.4 0 0 0 0-.4 1 1 0 0 0 0-.3 1 1 0 0 0-1-1 1.1 1.1 0 0 0-.6.2 1.4 1.4 0 0 0-.8-.3 2.2 2.2 0 0 0-2.2-2 2.3 2.3 0 0 0-.6.1 1.5 1.5 0 0 0-2.6.3 1.8 1.8 0 0 0-1.8 1h-.2a2 2 0 0 0-2.2-1.8 2 2 0 0 0-2-1.9z"/><path class="d" d="M84.2 56.9a1.1 1.1 0 0 1 1.3 1 .9.9 0 0 1-.3.5 2.2 2.2 0 0 1 .8-.1c.8 0 1.5.4 1.5 1a.7.7 0 0 1-.1.3.9.9 0 0 1 .4.3 1 1 0 0 1 .8-.3H88.9a.3.3 0 0 1-.1-.2c0-.3.5-.5 1.2-.5a2.4 2.4 0 0 1 .4 0 .8.8 0 0 1 1.7 0 1.7 1.7 0 0 1 .9-.2 1.4 1.4 0 0 1 1.4 1.2v.1a1 1 0 0 1 .3.2 1 1 0 0 1 .3 0 .8.8 0 0 1 .6.3H96a.4.4 0 0 1 .4-.2.4.4 0 0 1 .4.4.3.3 0 0 1-.1.2.6.6 0 0 1 .1.3.4.4 0 0 1 0 .1.4.4 0 0 1 0 .3.6.6 0 0 1 0 .3v.2H83v-3.8-.4c0-.6.5-1 1.2-1z"/><path class="b" d="M365 62.3l.2-.4a1.1 1.1 0 0 1-.1-.5.7.7 0 0 1 0-.4.7.7 0 0 1 0-.1 1 1 0 0 1 .2-.4.7.7 0 0 1 0-.3.8.8 0 0 1 .8-.7.8.8 0 0 1 .5.2h.1a1.2 1.2 0 0 1 1-.4 1 1 0 0 1 .1 0h.2a2 2 0 0 1 2-1.9 2.5 2.5 0 0 1 .8.2 1.4 1.4 0 0 1 2.5.2h.4c.8 0 1.6.3 1.7.9a1.6 1.6 0 0 1 .8.3l.2-.1a1 1 0 0 1 0-.4c0-.9.8-1.5 2-1.5a3 3 0 0 1 .5 0 1.3 1.3 0 0 1 0-.3 1.7 1.7 0 0 1 1.8-1.6 1.9 1.9 0 0 1 1.7 1 4 4 0 0 1 .7 0 3.6 3.6 0 0 1 .4 0 1.6 1.6 0 0 1 3.1-.3 2.5 2.5 0 0 1 1.1-.3 2.3 2.3 0 0 1 .7.1 2.5 2.5 0 0 1 1.4 4 1.1 1.1 0 0 1-.5 1.9 1 1 0 0 1-.8.6v.2z"/><path class="c" d="M385.1 55a1.3 1.3 0 0 1 1.3 1.3 2.2 2.2 0 0 1 1.3-.5 2.3 2.3 0 0 1 .6.1 2.2 2.2 0 0 1 1.6 1.6 2.3 2.3 0 0 1-.6 2.2.8.8 0 0 1-.2 1.5.7.7 0 0 1-.7.6h-.2v.2h-22.7v-.2a.6.6 0 0 1 0-.4.5.5 0 0 1 0-.3 1.2 1.2 0 0 1 0-.2.9.9 0 0 1 .1-.4.4.4 0 0 1 0-.3.5.5 0 0 1 .5-.4.5.5 0 0 1 .4.2 1.3 1.3 0 0 1 .3 0 .9.9 0 0 1 .8-.4 1.1 1.1 0 0 1 .3 0 1.1 1.1 0 0 1 .4-.2.8.8 0 0 1 0-.2 1.7 1.7 0 0 1 1.7-1.5 1.9 1.9 0 0 1 1 .3 1 1 0 0 1 1-.8 1 1 0 0 1 1 .8v.1a2.7 2.7 0 0 1 .6 0c.8 0 1.4.2 1.4.6a.4.4 0 0 1 0 .3.5.5 0 0 1 .2 0h.2a1.2 1.2 0 0 1 .9.4 1.1 1.1 0 0 1 .6-.3 1 1 0 0 1-.2-.6c0-.7.8-1.2 1.8-1.2a2.5 2.5 0 0 1 1 .2 1.2 1.2 0 0 1-.3-.8 1.4 1.4 0 0 1 1.5-1.3 1.5 1.5 0 0 1 1.5 1 3.1 3.1 0 0 1 1 0 3.5 3.5 0 0 1 .7 0A1.3 1.3 0 0 1 385 55m0-.6a1.9 1.9 0 0 0-1.8 1.3h-.2a3.2 3.2 0 0 0-.6 0 2.2 2.2 0 0 0-1.8-1 2 2 0 0 0-2.1 1.8h-.1c-1.4 0-2.5.8-2.5 1.9a2 2 0 0 0-.3-.1c-.2-.6-1-1-2-1h-.2a1.6 1.6 0 0 0-1.4-.9 1.7 1.7 0 0 0-1.4.7 2.4 2.4 0 0 0-.7-.1 2.3 2.3 0 0 0-2.3 2h-.1a1.5 1.5 0 0 0-1 .3 1.2 1.2 0 0 0-.6-.1 1 1 0 0 0-1 1.3 1.4 1.4 0 0 0 0 .4v.1a1 1 0 0 0-.1.4 1.2 1.2 0 0 0 0 .5l-.3.7h24.2v-.2a1.3 1.3 0 0 0 .8-.6 1.4 1.4 0 0 0 .8-1.3 1.4 1.4 0 0 0-.2-.8 2.9 2.9 0 0 0 .3-2.2 2.8 2.8 0 0 0-2-2.1 3 3 0 0 0-.7-.1 2.6 2.6 0 0 0-1 .2 1.9 1.9 0 0 0-1.7-1z"/><path class="d" d="M388.4 60.2a1.6 1.6 0 0 0 .6-1.2 2 2 0 0 0-2.2-1.8 2.5 2.5 0 0 0-1.3.4 1.3 1.3 0 0 0-2.4 0 4 4 0 0 0-.7 0 3.7 3.7 0 0 0-.9 0 1.5 1.5 0 0 0-1.5-.7c-.8 0-1.4.4-1.4 1a.8.8 0 0 0 .2.5 3 3 0 0 0-.9-.1c-1 0-1.7.4-1.7 1a.7.7 0 0 0 .2.4 1 1 0 0 0-.6.3 1.3 1.3 0 0 0-.9-.3h-.2a.4.4 0 0 0-.1 0 .3.3 0 0 0 .1-.2c0-.3-.6-.5-1.4-.5a3.2 3.2 0 0 0-.5 0c0-.4-.5-.7-1-.7s-1 .3-1 .7a2.1 2.1 0 0 0-1-.3c-1 0-1.7.6-1.7 1.2v.2a1.2 1.2 0 0 0-.4.1 1 1 0 0 0-.3 0 1 1 0 0 0-.7.4h-.3a.6.6 0 0 0-.5-.2c-.3 0-.5.2-.5.3a.3.3 0 0 0 .1.2.5.5 0 0 0-.1.3.4.4 0 0 0 0 .2.3.3 0 0 0-.1.2.5.5 0 0 0 .2.4l-.1.1h22a.6.6 0 0 0 .6-.5.7.7 0 0 0 .7-.7.7.7 0 0 0-.3-.7z"/><path class="b" d="M40.7 62.3v-5a1.3 1.3 0 0 0 0-.2 1.3 1.3 0 0 1-.1-.4 1.6 1.6 0 0 1 3.3 0 2.6 2.6 0 0 1 0 .3 1.9 1.9 0 0 1 .3 0 1.8 1.8 0 0 1 2 1.5 1 1 0 0 1-.2.4h.1a1.4 1.4 0 0 1 .8-.2c0-.6.7-1 1.6-1h.2a1.2 1.2 0 0 1 1.2-.9 1.2 1.2 0 0 1 1 .8 1.8 1.8 0 0 1 .8-.2 1.9 1.9 0 0 1 1.9 1.9h.3a1 1 0 0 1 .8.4.8.8 0 0 1 1.3.6.7.7 0 0 1 0 .2 1.1 1.1 0 0 1 0 .4v.1a.8.8 0 0 1 .1.3 1.1 1.1 0 0 1-.1.5l.2.5z"/><path class="c" d="M42.2 55.4a1.3 1.3 0 0 1 1.4 1.3 1.3 1.3 0 0 1-.3.7 2 2 0 0 1 .9-.1 1.5 1.5 0 0 1 1.6 1.2 1 1 0 0 1-.2.5 1 1 0 0 1 .5.4 1 1 0 0 1 .8-.4h.2a.4.4 0 0 1 .2 0 .4.4 0 0 1-.1-.3c0-.3.5-.6 1.2-.6a2.2 2.2 0 0 1 .6 0 .9.9 0 0 1 1.7 0 1.5 1.5 0 0 1 1-.3 1.6 1.6 0 0 1 1.5 1.5.8.8 0 0 1 0 .2 1 1 0 0 1 .4.2.9.9 0 0 1 .3 0 .8.8 0 0 1 .7.4 1 1 0 0 1 .2 0 .5.5 0 0 1 .4-.2.4.4 0 0 1 .5.4.4.4 0 0 1 0 .3.9.9 0 0 1 0 .4.6.6 0 0 1 0 .2.5.5 0 0 1 .1.3.7.7 0 0 1-.1.4v.2H41v-4.8l-.1-.6a1.3 1.3 0 0 1 1.3-1.3m0-.6a2 2 0 0 0-2 2 1.4 1.4 0 0 0 .1.4.6.6 0 0 1 0 .1v5.3h16.3l-.3-.7a1.5 1.5 0 0 0 0-.5 1.1 1.1 0 0 0 0-.4v-.1a1.4 1.4 0 0 0 0-.4 1 1 0 0 0 0-.3 1 1 0 0 0-1.1-1 1.1 1.1 0 0 0-.5.2 1.4 1.4 0 0 0-.9-.3 2.2 2.2 0 0 0-2.1-2 2.3 2.3 0 0 0-.6.1 1.5 1.5 0 0 0-2.6.3 1.8 1.8 0 0 0-1.9 1h-.2a2 2 0 0 0-2.2-1.8 2 2 0 0 0-2-1.9z"/><path class="e" d="M447.4 56.7l9.8-3.9.5 1.3-9.8 3.9z"/><path class="c" d="M457 53.2l.3.7-9.2 3.7-.3-.7 9.2-3.7m.3-.8l-.5.3-9.2 3.6-.6.2.3.6.2.7.3.5.5-.2 9.2-3.6.6-.3-.3-.5-.3-.7-.2-.6z"/><path class="e" d="M456.5 54.2l.5-1.2 8.9 3.7-.5 1.3-9-3.8z"/><path class="c" d="M457.1 53.4l8.4 3.5-.3.7L457 54l.2-.7m-.3-.8l-.2.6-.3.7-.2.5.5.2 8.4 3.5.6.2.2-.5.3-.7.2-.6-.6-.2-8.3-3.5-.6-.2z"/><path class="f" d="M232 40h5M242 33h5M131.1 6h-1s-1-1-1.7-1.1a1.8 1.8 0 0 0-1.9-.9h-5a2.2 2.2 0 0 0-2.5 1.8V6h.1c-.5-.1-1.1 1-1.1 1a7.8 7.8 0 0 0 1.2 2h2a2.3 2.3 0 0 0 2 1h5c1 .2 2-1 2-1h.9s.9-1.2.8-2c.2-.6-.8-1-.8-1z"/><path class="g" d="M168.1 2a7.3 7.3 0 0 1 1.4 1h1.4l1.1 1.4s-.5.6-.9.6h-.1v.2c-.1.6-.5 1-1 1a1.1 1.1 0 0 1-.7-.3H166a1 1 0 0 1-.7.4.8.8 0 0 1-.6-.4c-.5 0-1.1-1-1.1-1h-.7s-.8-.1-.9-.6a5.8 5.8 0 0 1 .8-1.3h.6a6 6 0 0 1 1.3-1h3.4m.2-.6H164.4a6.5 6.5 0 0 0-1.4 1h-.5l-.2.3a5.7 5.7 0 0 0-1 1.6v.2c.2.9 1.1 1 1.3 1.1h.5a3 3 0 0 0 1 .9 1.3 1.3 0 0 0 1 .5 1.4 1.4 0 0 0 1-.4h3a1.6 1.6 0 0 0 .8.3 1.7 1.7 0 0 0 1.5-1.3 2.5 2.5 0 0 0 1-.8l.1-.2v-.4l-.1-.2-1.1-1.4-.2-.2h-1.6a5 5 0 0 0-1.2-1h-.2z"/><path class="f" d="M95 22h-.7s-.7-1-1.2-1a2.8 2.8 0 0 0-1.4-1h-3.6a3.4 3.4 0 0 0-2.1 1.6v.4h.4c-.4-.2-1.4.6-1.4.6a11.8 11.8 0 0 1 1.4 1.4H88a4 4 0 0 0 1.5 1H93a4.6 4.6 0 0 0 1.5-1h.5l1-1.4a1.2 1.2 0 0 0-1-.6zM43.3 31h-.6a2.3 2.3 0 0 0-1-.5 1 1 0 0 0-1-.5h-3a1.7 1.7 0 0 0-1.7 1h.4c-.3.1.6.8.6.8v.3c0 .4.3.9.7.9h1.2c.2.4.7 1 1.2 1H43c.5 0 1-.6 1.2-1h-1a9.1 9.1 0 0 0 .8-1.2 2.1 2.1 0 0 0-.7-.8z"/><path class="b" d="M134 62.3l.1-.4a1.1 1.1 0 0 1-.1-.5.8.8 0 0 1 0-.4V61a1.1 1.1 0 0 1 .1-.4.7.7 0 0 1 0-.3.8.8 0 0 1 1.3-.5 1 1 0 0 1 .8-.4h.2a1.4 1.4 0 0 1 1.9.1 1.1 1.1 0 0 1 .5.1 1.1 1.1 0 0 1 1.3 0 3.3 3.3 0 0 1 .6 0 2.8 2.8 0 0 1 1.1.1 1.4 1.4 0 0 1 1.3-1 1.3 1.3 0 0 1 .9.3 1.3 1.3 0 0 1 0-.4 1.8 1.8 0 0 1 1.9-1.5 1.9 1.9 0 0 1 .3 0 1.3 1.3 0 0 1 0-.3 1.6 1.6 0 0 1 3.3 0 1.2 1.2 0 0 1-.1.5.5.5 0 0 0 0 .1v5z"/><path class="c" d="M147.8 55.4a1.3 1.3 0 0 1 1.4 1.3l-.2.6V62h-14.6v-.2a.7.7 0 0 1-.1-.4.5.5 0 0 1 0-.3.6.6 0 0 1 0-.2.9.9 0 0 1 .2-.4.4.4 0 0 1 0-.3.4.4 0 0 1 .4-.4.5.5 0 0 1 .3.2h.1a1 1 0 0 1 .2 0 .8.8 0 0 1 .7-.4 1 1 0 0 1 .3 0 1 1 0 0 1 .8-.3 1.1 1.1 0 0 1 .8.4h.3a.9.9 0 0 1 .5.2.8.8 0 0 1 .6-.4.9.9 0 0 1 .6.2 3 3 0 0 1 .6 0 2 2 0 0 1 1.3.3 1.3 1.3 0 0 1 1.1-1 1 1 0 0 1 .8.4 1 1 0 0 1 .5-.3 1 1 0 0 1-.1-.6 1.5 1.5 0 0 1 1.6-1.2 2 2 0 0 1 .8.2 1.3 1.3 0 0 1-.2-.8 1.3 1.3 0 0 1 1.3-1.3m0-.6a2 2 0 0 0-1.9 1.9 2 2 0 0 0-2.2 1.8 1.5 1.5 0 0 0-.6-.1 1.7 1.7 0 0 0-1.4.9 3.5 3.5 0 0 0-1-.2 3.9 3.9 0 0 0-.5 0 1.4 1.4 0 0 0-.7-.1 1.4 1.4 0 0 0-.7.2 1.3 1.3 0 0 0-.4 0 1.6 1.6 0 0 0-1.1-.4 1.7 1.7 0 0 0-1 .2 1.4 1.4 0 0 0-1 .3 1.1 1.1 0 0 0-.4 0 1 1 0 0 0-1.1 1 1 1 0 0 0 0 .2 1.4 1.4 0 0 0 0 .4 1.1 1.1 0 0 0-.1.5 1.5 1.5 0 0 0 0 .4l-.3.8h16.2v-5.3a1.4 1.4 0 0 0 .1-.6 2 2 0 0 0-1.9-1.9z"/><g class="h"><path class="i" d="M134.3 61.5a.4.4 0 0 1 .1-.2.4.4 0 0 1 0-.2.5.5 0 0 1 .2-.3.3.3 0 0 1-.1-.2c0-.2.2-.3.4-.3a.5.5 0 0 1 .4.1 1 1 0 0 1 .3 0 .8.8 0 0 1 .7-.3.8.8 0 0 1 .3 0 1.2 1.2 0 0 1 .8-.3 1.2 1.2 0 0 1 .8.4h.2a1.2 1.2 0 0 1 .5 0 1 1 0 0 1 .7-.2 1 1 0 0 1 .5.2 3.9 3.9 0 0 1 .6 0 2.4 2.4 0 0 1 1.4.3 1.1 1.1 0 0 1 1.1-.9 1.2 1.2 0 0 1 .8.3 1 1 0 0 1 .5-.3.7.7 0 0 1-.2-.4c0-.5.8-1 1.7-1a2.3 2.3 0 0 1 .8.2.9.9 0 0 1-.2-.6 1.2 1.2 0 0 1 1.3-1 1.2 1.2 0 0 1 1.3 1 .5.5 0 0 1-.2.5V62h-14.6l.1-.1a.5.5 0 0 1-.2-.4z"/></g><path class="b" d="M447.5 62.3l.2-.4a1.1 1.1 0 0 1-.2-.5.8.8 0 0 1 .1-.4.7.7 0 0 1 0-.2 1 1 0 0 1 .1-.4.6.6 0 0 1 0-.3.8.8 0 0 1 .8-.7.8.8 0 0 1 .6.2 1.2 1.2 0 0 1 1-.4h.2a1.7 1.7 0 0 1 1-.3 1.6 1.6 0 0 1 1.1.4h.2a1.6 1.6 0 0 1 .5.1 1.4 1.4 0 0 1 .9-.3 1.3 1.3 0 0 1 .7.2 4.6 4.6 0 0 1 .6 0 3.3 3.3 0 0 1 1.4.3 1.6 1.6 0 0 1 1.5-1 1.5 1.5 0 0 1 1 .3v-.1a1.2 1.2 0 0 1 0-.4c0-1 1-1.6 2.2-1.6a3.3 3.3 0 0 1 .4 0 1.7 1.7 0 0 1 0-.4 1.9 1.9 0 0 1 3.8 0 1.1 1.1 0 0 1-.2.5.7.7 0 0 0 0 .2v5.2z"/><path class="c" d="M463.6 55a1.5 1.5 0 0 1 1.6 1.4l-.2.6v5h-17v-.2a.7.7 0 0 1-.2-.4.5.5 0 0 1 .2-.4.7.7 0 0 1 0-.2.8.8 0 0 1 .1-.4.5.5 0 0 1 0-.3.5.5 0 0 1 .5-.5.5.5 0 0 1 .4.3 1.4 1.4 0 0 1 .3 0 1 1 0 0 1 .8-.5 1.1 1.1 0 0 1 .3 0 1.3 1.3 0 0 1 1-.3 1.3 1.3 0 0 1 1 .4 1 1 0 0 1 .2 0 1 1 0 0 1 .5.2 1 1 0 0 1 .8-.4 1 1 0 0 1 .7.3 4 4 0 0 1 .7-.1 2.5 2.5 0 0 1 1.5.4 1.4 1.4 0 0 1 1.3-1.2 1.3 1.3 0 0 1 1 .4 1.2 1.2 0 0 1 .6-.3 1 1 0 0 1-.2-.6c0-.7.8-1.3 1.9-1.3a2.5 2.5 0 0 1 1 .2 1.3 1.3 0 0 1-.3-.8 1.5 1.5 0 0 1 1.5-1.3m0-.6a2 2 0 0 0-2.1 2h-.1c-1.4 0-2.5.8-2.5 1.9a1.7 1.7 0 0 0-.8-.1 2 2 0 0 0-1.6 1 4.2 4.2 0 0 0-1.2-.2 3.8 3.8 0 0 0-.6 0 1.6 1.6 0 0 0-.8-.2 1.6 1.6 0 0 0-.9.3 1.6 1.6 0 0 0-.4 0 2 2 0 0 0-1.3-.5 2 2 0 0 0-1 .3h-.2a1.6 1.6 0 0 0-1 .4 1.1 1.1 0 0 0-1.7.9 1 1 0 0 0 0 .2 1.3 1.3 0 0 0 0 .5 1.3 1.3 0 0 0-.2.5 1.5 1.5 0 0 0 .1.5l-.3.7h18.6v-5.5a1.4 1.4 0 0 0 .2-.7 2 2 0 0 0-2.2-2z"/><g class="h"><path class="i" d="M448 61.5a.4.4 0 0 1 0-.3.8.8 0 0 1 0-.1.5.5 0 0 1 .2-.4.3.3 0 0 1-.1-.2c0-.2.2-.3.5-.3a.6.6 0 0 1 .4.1h.1a1.4 1.4 0 0 1 .3 0 1 1 0 0 1 .8-.3 1.6 1.6 0 0 1 .3 0 1.6 1.6 0 0 1 1-.3 1.4 1.4 0 0 1 1 .4 1 1 0 0 1 .2 0 1.4 1.4 0 0 1 .6 0 1.1 1.1 0 0 1 .7-.1 1.2 1.2 0 0 1 .6.2 4 4 0 0 1 .7 0 3 3 0 0 1 1.6.2 1.3 1.3 0 0 1 1.3-.9 1.4 1.4 0 0 1 1 .3 1.3 1.3 0 0 1 .5-.2.7.7 0 0 1-.2-.5c0-.6.9-1 2-1a3 3 0 0 1 1 .2 1 1 0 0 1-.4-.7c0-.6.7-1 1.6-1s1.5.5 1.5 1a.6.6 0 0 1-.2.5V62h-17v-.1a.5.5 0 0 1 0-.4z"/></g><path class="e" d="M115.7 19.7h2.6v2.6h-2.6z"/><path class="c" d="M118 20v2h-2v-2h2m.6-.6h-3.2v3.2h3.2v-3.2z"/><path class="e" d="M118.7 19.7h2.6v2.6h-2.6z"/><path class="c" d="M121 20v2h-2v-2h2m.6-.6h-3.2v3.2h3.2v-3.2z"/><path class="j" d="M112.7 23.7h31.6v38.6h-31.6z"/><path class="c" d="M144 24v38h-31V24h31m.6-.6h-32.2v39.2h32.2V23.4z"/><path class="k" d="M114 23h30v39h-30z"/><path class="j" d="M104.7 45.7h8.6v16.6h-8.6z"/><path class="c" d="M113 46v16h-8V46h8m.6-.6h-9.2v17.2h9.2V45.4z"/><path class="l" d="M105 46.3l-.7-1.6h10v1.6h-9.4z"/><path class="c" d="M114 45v1h-8.9l-.3-1h9.2m.6-.6h-10.7l.3.8.3 1 .2.4h9.9v-2.2z"/><path class="l" d="M112.7 24.3l-1.3-1.6h34.8l-1.3 1.6h-32.2z"/><path class="c" d="M145.6 23l-.8 1h-32l-.8-1h33.5m1.3-.6h-36l.8 1 .8 1 .1.2h32.6l.2-.2.8-1 .7-1z"/><path class="e" d="M111.7 21.7h34.6v1.6h-34.6z"/><path class="c" d="M146 22v1h-34v-1h34m.6-.6h-35.2v2.2h35.2v-2.2z"/><path class="e" d="M104.4 45.3l10-6.5-.1 6.5h-10z"/><path class="c" d="M114 39.3V45h-8.6l8.6-5.7m.6-1.1l-1 .6-8.6 5.7-1.6 1.1h11.2v-7.4z"/><path class="e" d="M109.7 40.7h2.6v3.6h-2.6z"/><path class="c" d="M112 41v3h-2v-3h2m.6-.6h-3.2v4.2h3.2v-4.2z"/><path class="m" d="M111 46h3v16h-3z"/><path class="e" d="M133.7 33.7h8.6v8.6h-8.6z"/><path class="c" d="M142 34v8h-8v-8h8m.6-.6h-9.2v9.2h9.2v-9.2z"/><path class="n" d="M134.7 33.7h6.6v7.6h-6.6z"/><path class="o" d="M141 34v7h-6v-7h6m.6-.6h-7.2v8.2h7.2v-8.2z"/><path class="p" d="M136.5 34v7M138.5 34v7M140.5 34v7M142 36.5h-7M142 38.5h-7"/><path class="e" d="M124.7 33.7h8.6v8.6h-8.6z"/><path class="c" d="M133 34v8h-8v-8h8m.6-.6h-9.2v9.2h9.2v-9.2z"/><path class="n" d="M125.7 33.7h6.6v7.6h-6.6z"/><path class="o" d="M132 34v7h-6v-7h6m.6-.6h-7.2v8.2h7.2v-8.2z"/><path class="p" d="M127.5 34v7M128.5 34v7M130.5 34v7M132 36.5h-6M132 38.5h-6"/><path class="e" d="M114.7 33.7h8.6v8.6h-8.6z"/><path class="c" d="M123 34v8h-8v-8h8m.6-.6h-9.2v9.2h9.2v-9.2z"/><path class="n" d="M115.7 33.7h6.6v7.6h-6.6z"/><path class="o" d="M122 34v7h-6v-7h6m.6-.6h-7.2v8.2h7.2v-8.2z"/><path class="p" d="M117.5 34v7M119.5 34v7M120.5 34v7M122 36.5h-6M122 38.5h-6"/><path class="q" d="M121.7 62.3v-4a3.6 3.6 0 0 1 3.6-3.6h.4a3.6 3.6 0 0 1 3.6 3.6v4z"/><path class="c" d="M125.7 55a3.3 3.3 0 0 1 3.3 3.3V62h-7v-3.7a3.3 3.3 0 0 1 3.3-3.3h.4m0-.6h-.4a3.9 3.9 0 0 0-3.9 3.9v4.3h8.2v-4.3a3.9 3.9 0 0 0-3.9-3.9z"/><path class="r" d="M122 58.5h7"/><path class="q" d="M127.7 62.3v-4a3.6 3.6 0 0 1 3.6-3.6h.4a3.6 3.6 0 0 1 3.6 3.6v4z"/><path class="c" d="M131.7 55a3.3 3.3 0 0 1 3.3 3.3V62h-7v-3.7a3.3 3.3 0 0 1 3.3-3.3h.4m0-.6h-.4a3.9 3.9 0 0 0-3.9 3.9v4.3h8.2v-4.3a3.9 3.9 0 0 0-3.9-3.9z"/><path class="r" d="M129 58.5h6"/><path class="e" d="M113.7 44.7h30.6v6.6h-30.6z"/><path class="c" d="M144 45v6h-30v-6h30m.6-.6h-31.2v7.2h31.2v-7.2z"/><path class="n" d="M113.7 50.3V48a2.8 2.8 0 1 1 5.6 0v2.3z"/><path class="o" d="M116.5 45a2.8 2.8 0 0 1 2.5 3v2h-5v-2a2.8 2.8 0 0 1 2.5-3m0-.6a3.4 3.4 0 0 0-3.1 3.6v2.6h6.2V48a3.4 3.4 0 0 0-3-3.6z"/><path class="n" d="M118.7 50.3V48a2.8 2.8 0 1 1 5.6 0v2.3z"/><path class="o" d="M121.5 45a2.8 2.8 0 0 1 2.5 3v2h-5v-2a2.8 2.8 0 0 1 2.5-3m0-.6a3.4 3.4 0 0 0-3.1 3.6v2.6h6.2V48a3.4 3.4 0 0 0-3-3.6z"/><path class="n" d="M123.7 50.3V48a2.8 2.8 0 1 1 5.6 0v2.3z"/><path class="o" d="M126.5 45a2.8 2.8 0 0 1 2.5 3v2h-5v-2a2.8 2.8 0 0 1 2.5-3m0-.6a3.4 3.4 0 0 0-3.1 3.6v2.6h6.2V48a3.4 3.4 0 0 0-3-3.6z"/><path class="n" d="M128.7 50.3V48a2.8 2.8 0 1 1 5.6 0v2.3z"/><path class="o" d="M131.5 45a2.8 2.8 0 0 1 2.5 3v2h-5v-2a2.8 2.8 0 0 1 2.5-3m0-.6a3.4 3.4 0 0 0-3.1 3.6v2.6h6.2V48a3.4 3.4 0 0 0-3-3.6z"/><path class="n" d="M133.7 50.3V48a2.8 2.8 0 1 1 5.6 0v2.3z"/><path class="o" d="M136.5 45a2.8 2.8 0 0 1 2.5 3v2h-5v-2a2.8 2.8 0 0 1 2.5-3m0-.6a3.4 3.4 0 0 0-3.1 3.6v2.6h6.2V48a3.4 3.4 0 0 0-3-3.6z"/><path class="n" d="M138.7 50.3V48a2.8 2.8 0 1 1 5.6 0v2.3z"/><path class="o" d="M141.5 45a2.8 2.8 0 0 1 2.5 3v2h-5v-2a2.8 2.8 0 0 1 2.5-3m0-.6a3.4 3.4 0 0 0-3.1 3.6v2.6h6.2V48a3.4 3.4 0 0 0-3-3.6z"/><path class="m" d="M114 24h30v1h-30z"/><path class="j" d="M112.7 24.7h32.6v5.6h-32.6z"/><path class="c" d="M145 25v5h-32v-5h32m.6-.6h-33.2v6.2h33.2v-6.2z"/><path class="k" d="M113 25h32v5h-32z"/><path class="e" d="M112.7 23.7h32.6v1.6h-32.6z"/><path class="c" d="M145 24v1h-32v-1h32m.6-.6h-33.2v2.2h33.2v-2.2z"/><path class="e" d="M112.7 28.7h32.6v1.6h-32.6z"/><path class="c" d="M145 29v1h-32v-1h32m.6-.6h-33.2v2.2h33.2v-2.2z"/><path class="e" d="M114.7 25.7h7.6v3.6h-7.6z"/><path class="c" d="M122 26v3h-7v-3h7m.6-.6h-8.2v4.2h8.2v-4.2z"/><path class="n" d="M115.7 25.7h6.6v2.6h-6.6z"/><path class="o" d="M122 26v2h-6v-2h6m.6-.6h-7.2v3.2h7.2v-3.2z"/><path class="p" d="M117.5 27v1M118.5 27v1M120.5 27v1"/><path class="e" d="M121.7 25.7h7.6v3.6h-7.6z"/><path class="c" d="M129 26v3h-7v-3h7m.6-.6h-8.2v4.2h8.2v-4.2z"/><path class="n" d="M121.7 25.7h6.6v2.6h-6.6z"/><path class="o" d="M128 26v2h-6v-2h6m.6-.6h-7.2v3.2h7.2v-3.2z"/><path class="p" d="M124.5 27v1M125.5 27v1M127.5 27v1"/><path class="e" d="M128.7 25.7h7.6v3.6h-7.6z"/><path class="c" d="M136 26v3h-7v-3h7m.6-.6h-8.2v4.2h8.2v-4.2z"/><path class="n" d="M128.7 25.7h6.6v2.6h-6.6z"/><path class="o" d="M135 26v2h-6v-2h6m.6-.6h-7.2v3.2h7.2v-3.2z"/><path class="p" d="M130.5 27v1M132.5 27v1M133.5 27v1"/><path class="e" d="M135.7 25.7h7.6v3.6h-7.6z"/><path class="c" d="M143 26v3h-7v-3h7m.6-.6h-8.2v4.2h8.2v-4.2z"/><path class="n" d="M135.7 25.7h6.6v2.6h-6.6z"/><path class="o" d="M142 26v2h-6v-2h6m.6-.6h-7.2v3.2h7.2v-3.2z"/><path class="p" d="M137.5 27v1M139.5 27v1M140.5 27v1"/><path class="e" d="M159.7 1.7h1.6v2.6h-1.6z"/><path class="c" d="M161 2v2h-1V2h1m.6-.6h-2.2v3.2h2.2V1.4z"/><path class="j" d="M150.7 7.7h11.6v8.6h-11.6z"/><path class="c" d="M162 8v8h-11V8h11m.6-.6h-12.2v9.2h12.2V7.4z"/><path class="k" d="M151 8h11v8h-11z"/><path class="l" d="M151.5 18.3l-1.2-1.6h12l-1.2 1.6h-9.6z"/><path class="c" d="M161.8 17l-.8 1h-9.3l-.8-1h10.9m1.2-.6h-13.3l.7 1 .8 1 .2.2h9.8l.2-.2.8-1 .8-1z"/><path class="e" d="M150.7 15.7h11.6v1.6h-11.6z"/><path class="c" d="M162 16v1h-11v-1h11m.6-.6h-12.2v2.2h12.2v-2.2z"/><path class="l" d="M150.8 8.3l-1.3-1.6h13.7l-1.3 1.6h-11.2z"/><path class="c" d="M162.5 7l-.8 1H151l-.8-1h12.4m1.3-.6h-15l.8 1 .8 1 .2.2H162l.2-.2.8-1 .7-1z"/><path class="e" d="M149.7 5.7h12.6v1.6h-12.6z"/><path class="c" d="M162 6v1h-12V6h12m.6-.6h-13.2v2.2h13.2V5.4z"/><path class="j" d="M151.7 17.7h9.6v30.6h-9.6z"/><path class="c" d="M161 18v30h-9V18h9m.6-.6h-10.2v31.2h10.2V17.4z"/><path class="k" d="M152 18h9v30h-9z"/><path class="j" d="M153.7 17.7h5.6v30.6h-5.6z"/><path class="c" d="M159 18v30h-5V18h5m.6-.6h-6.2v31.2h6.2V17.4z"/><path class="k" d="M154 18h5v30h-5z"/><path class="j" d="M152.7 7.7h7.6v8.6h-7.6z"/><path class="c" d="M160 8v8h-7V8h7m.6-.6h-8.2v9.2h8.2V7.4z"/><path class="k" d="M153 8h7v8h-7z"/><path class="e" d="M150.7 23.7h11.6v1.6h-11.6z"/><path class="c" d="M162 24v1h-11v-1h11m.6-.6h-12.2v2.2h12.2v-2.2z"/><path class="e" d="M150.7 25.7h11.6v1.6h-11.6z"/><path class="c" d="M162 26v1h-11v-1h11m.6-.6h-12.2v2.2h12.2v-2.2z"/><path class="e" d="M152.7 24.7h1.6v1.6h-1.6z"/><path class="c" d="M154 25v1h-1v-1h1m.6-.6h-2.2v2.2h2.2v-2.2z"/><path class="e" d="M153.7 24.7h1.6v1.6h-1.6z"/><path class="c" d="M155 25v1h-1v-1h1m.6-.6h-2.2v2.2h2.2v-2.2z"/><path class="e" d="M155.7 24.7h1.6v1.6h-1.6z"/><path class="c" d="M157 25v1h-1v-1h1m.6-.6h-2.2v2.2h2.2v-2.2z"/><path class="e" d="M156.7 24.7h1.6v1.6h-1.6z"/><path class="c" d="M158 25v1h-1v-1h1m.6-.6h-2.2v2.2h2.2v-2.2z"/><path class="e" d="M158.7 24.7h1.6v1.6h-1.6z"/><path class="c" d="M160 25v1h-1v-1h1m.6-.6h-2.2v2.2h2.2v-2.2z"/><path class="e" d="M159.7 24.7h1.6v1.6h-1.6z"/><path class="c" d="M161 25v1h-1v-1h1m.6-.6h-2.2v2.2h2.2v-2.2z"/><path class="e" d="M150.7 24.7h1.6v1.6h-1.6z"/><path class="c" d="M152 25v1h-1v-1h1m.6-.6h-2.2v2.2h2.2v-2.2z"/><path class="m" d="M159 28h2v20h-2zM152 28h2v20h-2zM159 18h2v6h-2zM152 18h2v6h-2zM160 8h2v8h-2zM151 8h2v8h-2z"/><path class="e" d="M149.2 6.3l7.4-5.5 6.8 5.5h-14.2z"/><path class="c" d="M156.6 1.2l6 4.8H150l6.5-4.8m0-.8l-.4.3-6.5 4.8-1.4 1.1h16l-1.4-1L157 .6l-.4-.3z"/><path class="s" d="M152.4 5.3l4.2-3.4 3.5 3.4h-7.7z"/><path class="t" d="M156.6 2.3l2.8 2.7h-6.1l3.3-2.7m0-.8l-.4.4-3.4 2.6-1.3 1.1h9.4l-1.1-1-2.8-2.7-.4-.4z"/><path class="l" d="M156.3 15.2a3.3 3.3 0 1 1 3.4-3.3 3.3 3.3 0 0 1-3.4 3.3z"/><path class="c" d="M156.3 8.8a3 3 0 1 1-3 3 3 3 0 0 1 3-3m0-.6A3.6 3.6 0 1 0 160 12a3.6 3.6 0 0 0-3.6-3.7z"/><path class="e" d="M156.3 14.6a2.8 2.8 0 1 1 2.8-2.7 2.8 2.8 0 0 1-2.8 2.7z"/><path class="c" d="M156.3 9.4a2.5 2.5 0 1 1-2.5 2.4 2.5 2.5 0 0 1 2.5-2.4m0-.6a3 3 0 1 0 3.1 3 3 3 0 0 0-3-3z"/><path class="r" d="M156.5 11v1.5h1.5"/><path class="e" d="M169.7 35.7h2.6v2.6h-2.6z"/><path class="c" d="M172 36v2h-2v-2h2m.6-.6h-3.2v3.2h3.2v-3.2z"/><path class="e" d="M171.7 35.7h2.6v2.6h-2.6z"/><path class="c" d="M174 36v2h-2v-2h2m.6-.6h-3.2v3.2h3.2v-3.2z"/><path class="j" d="M162.7 34.7h5.6v3.6h-5.6z"/><path class="c" d="M168 35v3h-5v-3h5m.6-.6h-6.2v4.2h6.2v-4.2z"/><path class="k" d="M163 35h5v3h-5z"/><path class="j" d="M147.7 62.3V43.7l-.7-1.1 12.3-5.9h23.2l2.7-1.3 2.6 1.3h23.3l12.6 6-1.4 1v18.6h-74.6z"/><path class="c" d="M185.2 35.7l2.6 1.3H211l12 5.8-1 .8V62h-74V43.6l-.6-.9 12-5.7h23.2l2.6-1.3m0-.7l-.3.2-2.4 1.2h-23.3l-12 5.8-.6.3.3.5.5.8v18.8h75.2V43.9l.8-.6.9-.6-1-.4-12-5.8-.1-.1h-23.3l-2.5-1.2-.2-.2z"/><path class="k" d="M211.1 37h-23.3l-2.6-1.3-2.5 1.3h-23.2l-12 5.7.5.8V62h74V43.5l1.2-.7-12-5.8z"/><path class="e" d="M211.2 37h-23.3l-2.6-1.4-2.6 1.4h-23.1l-12 6h75.5l-12-6z"/><path class="l" d="M148 44.3l-1-1.6h77l-1.8 1.6H148z"/><path class="c" d="M223.2 43l-1.2 1h-73.8l-.6-1h75.6m1.6-.6h-78.3l.6 1 .6 1 .2.2h74.4l.1-.1 1.2-1 1.2-1.1z"/><path class="m" d="M148 57h74v1h-74zM148 48h74v1h-74z"/><g><path class="j" d="M147.7 49.7h75.6v7.6h-75.6z"/><path class="c" d="M223 50v7h-75v-7h75m.6-.6h-76.2v8.2h76.2v-8.2z"/><path class="k" d="M148 50h75v7h-75z"/><path class="e" d="M147.7 48.7h75.6v1.6h-75.6z"/><path class="c" d="M223 49v1h-75v-1h75m.6-.6h-76.2v2.2h76.2v-2.2z"/><g><path class="e" d="M147.7 55.7h75.6v1.6h-75.6z"/><path class="c" d="M223 56v1h-75v-1h75m.6-.6h-76.2v2.2h76.2v-2.2z"/></g></g><g><path class="j" d="M172.7 62.3V42.8l-.6-1.2 13-6.6 12.9 6.6-.7 1.2v19.5h-24.6z"/><path class="c" d="M185 35.4l12.6 6.3-.6 1V62h-24V42.8l-.5-1 12.6-6.4m0-.7l-.3.2-12.6 6.3-.5.3.3.5.5 1v19.6h25.1V42.9l.6-.9.3-.5-.6-.3-12.5-6.4-.3-.1z"/><path class="k" d="M185.2 35.7l-12.6 6.2.4 1V62h24V43l.6-1-12.4-6.3z"/></g><g><path class="e" d="M172.5 42.3l-.2-.6 13-6.5 13 6.5-.3.6h-25.5z"/><path class="c" d="M185.3 35.5L198 42v.1h-25.2v-.1l12.6-6.4m0-.6l-.3.1-12.6 6.4-.5.2.2.4V42.6h26l.2-.4V42l.2-.5-.5-.2-12.4-6.4-.3-.1z"/></g><g><path class="l" d="M173 43.3l-.8-1.6h26l-.6 1.6H173z"/><path class="c" d="M197.8 42l-.4 1h-24.2l-.5-1h25.1m1-.6h-27l.4.9.4 1 .2.3h25l.1-.3.5-1 .3-.9z"/></g><g><path class="q" d="M177.7 62.3v-4a3.6 3.6 0 0 1 3.6-3.6h.4a3.6 3.6 0 0 1 3.6 3.6v4z"/><path class="c" d="M181.7 55a3.3 3.3 0 0 1 3.3 3.3V62h-7v-3.7a3.3 3.3 0 0 1 3.3-3.3h.4m0-.6h-.4a3.9 3.9 0 0 0-3.9 3.9v4.3h8.2v-4.3a3.9 3.9 0 0 0-3.9-3.9z"/><path class="r" d="M178 58.5h6"/></g><g><path class="q" d="M185.7 62.3v-4a3.6 3.6 0 0 1 3.6-3.6h.4a3.6 3.6 0 0 1 3.6 3.6v4z"/><path class="c" d="M189.7 55a3.3 3.3 0 0 1 3.3 3.3V62h-7v-3.7a3.3 3.3 0 0 1 3.3-3.3h.4m0-.6h-.4a3.9 3.9 0 0 0-3.9 3.9v4.3h8.2v-4.3a3.9 3.9 0 0 0-3.9-3.9z"/><path class="r" d="M187 58.5h6"/></g><g><path class="e" d="M172.7 46.7h24.6v6.6h-24.6z"/><path class="c" d="M197 47v6h-24v-6h24m.6-.6h-25.2v7.2h25.2v-7.2z"/></g><g><path class="n" d="M174.7 52.3V50a2.8 2.8 0 1 1 5.6 0v2.3z"/><path class="o" d="M177.5 47a2.8 2.8 0 0 1 2.5 3v2h-5v-2a2.8 2.8 0 0 1 2.5-3m0-.6a3.4 3.4 0 0 0-3.1 3.6v2.6h6.2V50a3.4 3.4 0 0 0-3-3.6z"/></g><g><path class="n" d="M179.7 52.3V50a2.8 2.8 0 1 1 5.6 0v2.3z"/><path class="o" d="M182.5 47a2.8 2.8 0 0 1 2.5 3v2h-5v-2a2.8 2.8 0 0 1 2.5-3m0-.6a3.4 3.4 0 0 0-3.1 3.6v2.6h6.2V50a3.4 3.4 0 0 0-3-3.6z"/></g><g><path class="n" d="M184.7 52.3V50a2.8 2.8 0 1 1 5.6 0v2.3z"/><path class="o" d="M187.5 47a2.8 2.8 0 0 1 2.5 3v2h-5v-2a2.8 2.8 0 0 1 2.5-3m0-.6a3.4 3.4 0 0 0-3.1 3.6v2.6h6.2V50a3.4 3.4 0 0 0-3-3.6z"/></g><g><path class="n" d="M190.7 52.3V50a2.8 2.8 0 1 1 5.6 0v2.3z"/><path class="o" d="M193.5 47a2.8 2.8 0 0 1 2.5 3v2h-5v-2a2.8 2.8 0 0 1 2.5-3m0-.6a3.4 3.4 0 0 0-3.1 3.6v2.6h6.2V50a3.4 3.4 0 0 0-3-3.6z"/></g><g><path class="r" d="M197.3 55l10.2 5v2"/><path class="c" d="M198 57h1v1h-1zM199 58h1v1h-1zM200 58h1v1h-1zM202 59h1v1h-1zM203 60h1v1h-1zM204 60h1v1h-1zM204 61h1v1h-1zM205 61h1v1h-1z"/><path class="r" d="M198.5 58v-2M199.5 58v-2M200.5 59v-2M201.5 59v-2M202.5 60v-2M203.5 60v-2M204.5 61v-2M204.5 61v-2M205.5 62v-3M206.5 62v-2"/><g><path class="q" d="M208.7 57.7h2.6v4.6h-2.6z"/><path class="c" d="M211 58v4h-2v-4h2m.6-.6h-3.2v5.2h3.2v-5.2z"/></g><path class="r" d="M210 59.5h-2"/></g><g><path class="e" d="M150.7 50.7h8.6v4.6h-8.6z"/><path class="c" d="M159 51v4h-8v-4h8m.6-.6h-9.2v5.2h9.2v-5.2z"/><path class="n" d="M151.7 51.7h6.6v2.6h-6.6z"/><path class="o" d="M158 52v2h-6v-2h6m.6-.6h-7.2v3.2h7.2v-3.2z"/><path class="p" d="M152.5 52v2M154.5 52v2M156.5 52v2"/></g><g><path class="e" d="M161.7 50.7h8.6v4.6h-8.6z"/><path class="c" d="M170 51v4h-8v-4h8m.6-.6h-9.2v5.2h9.2v-5.2z"/><path class="n" d="M162.7 51.7h6.6v2.6h-6.6z"/><path class="o" d="M169 52v2h-6v-2h6m.6-.6h-7.2v3.2h7.2v-3.2z"/><path class="p" d="M163.5 52v2M165.5 52v2M167.5 52v2"/></g><g><path class="e" d="M200.7 50.7h8.6v4.6h-8.6z"/><path class="c" d="M209 51v4h-8v-4h8m.6-.6h-9.2v5.2h9.2v-5.2z"/><path class="n" d="M201.7 51.7h6.6v2.6h-6.6z"/><path class="o" d="M208 52v2h-6v-2h6m.6-.6h-7.2v3.2h7.2v-3.2z"/><path class="p" d="M202.5 52v2M204.5 52v2M206.5 52v2"/></g><g><path class="e" d="M210.7 50.7h8.6v4.6h-8.6z"/><path class="c" d="M219 51v4h-8v-4h8m.6-.6h-9.2v5.2h9.2v-5.2z"/><path class="n" d="M211.7 51.7h6.6v2.6h-6.6z"/><path class="o" d="M218 52v2h-6v-2h6m.6-.6h-7.2v3.2h7.2v-3.2z"/><path class="p" d="M213.5 52v2M215.5 52v2M217.5 52v2"/></g><g><path class="l" d="M163.1 33.7h5.4v.6h-5.4z"/><path class="c" d="M168.5 33.4h-5.4v1.2h5.4v-1.2z"/></g><g><path class="e" d="M162.8 34.3V34a3 3 0 0 1 6 0v.3z"/><path class="c" d="M165.8 31.5a2.7 2.7 0 0 1 2.7 2.5h-5.4a2.7 2.7 0 0 1 2.7-2.5m0-.6a3.3 3.3 0 0 0-3.3 3v.7h6.7v-.7a3.3 3.3 0 0 0-3.4-3z"/></g><g><path class="s" d="M181.2 41.3l4.3-3.4 3.4 3.4h-7.7z"/><path class="t" d="M185.4 38.3l2.8 2.7H182l3.3-2.7m0-.8l-.4.4-3.3 2.6-1.4 1.1h9.3l-1-1-2.8-2.7-.4-.3z"/></g><g><path class="b" d="M160.3 62.3l.2-.4a.8.8 0 0 1-.1-.4.6.6 0 0 1 0-.3.5.5 0 0 1 0-.1 1 1 0 0 1 .1-.4.5.5 0 0 1 0-.2.7.7 0 0 1 1.2-.5 1 1 0 0 1 .7-.3h.1a1.2 1.2 0 0 1 1.6.1 1 1 0 0 1 .4 0 1 1 0 0 1 .6-.1 1 1 0 0 1 .6.1 3.1 3.1 0 0 1 .4 0 2.5 2.5 0 0 1 .9.2 1.3 1.3 0 0 1 1.1-.8 1.1 1.1 0 0 1 .7.2 1.1 1.1 0 0 1 0-.3 1.5 1.5 0 0 1 1.6-1.3h.3a1 1 0 0 1 0-.2 1.4 1.4 0 0 1 1.4-1.4 1.4 1.4 0 0 1 1.4 1.4 1 1 0 0 1-.1.4.5.5 0 0 0 0 .1v4.2z"/><path class="c" d="M172 56.5a1 1 0 0 1 1.2 1l-.2.6V62h-12.2v-.1a.6.6 0 0 1-.1-.4.5.5 0 0 1 0-.3.9.9 0 0 1 0-.1.7.7 0 0 1 .2-.4.3.3 0 0 1-.1-.2.4.4 0 0 1 .4-.3.4.4 0 0 1 .3.1h.3a.6.6 0 0 1 .5-.3.9.9 0 0 1 .3 0 .9.9 0 0 1 .6-.3 1 1 0 0 1 .7.4.5.5 0 0 1 .2 0 .8.8 0 0 1 .4.1.7.7 0 0 1 .6-.3.7.7 0 0 1 .5.2 2 2 0 0 1 .5 0 1.6 1.6 0 0 1 1 .3 1 1 0 0 1 1-1 .9.9 0 0 1 .8.3.8.8 0 0 1 .4-.3.8.8 0 0 1-.1-.4 1.2 1.2 0 0 1 1.3-1 1.7 1.7 0 0 1 .7.1 1 1 0 0 1-.2-.6 1.1 1.1 0 0 1 1.1-1m0-.7a1.7 1.7 0 0 0-1.7 1.6 1.8 1.8 0 0 0-1.8 1.5 1.5 1.5 0 0 0-1.7.6 2.9 2.9 0 0 0-.8 0 2.3 2.3 0 0 0-.4 0 1.3 1.3 0 0 0-.5-.2 1.3 1.3 0 0 0-.7.2 1.2 1.2 0 0 0-.3 0 1.4 1.4 0 0 0-1-.4 1.5 1.5 0 0 0-.7.3h-.1a1.2 1.2 0 0 0-.7.2 1 1 0 0 0-.5 0 1 1 0 0 0-1 1 .6.6 0 0 0 0 .1 1 1 0 0 0 0 .4 1 1 0 0 0 0 .4 1.4 1.4 0 0 0 0 .4l-.3.7h13.7v-4.4a1.2 1.2 0 0 0 .1-.6 1.7 1.7 0 0 0-1.6-1.7z"/><g class="h"><path class="i" d="M160.7 61.6a.3.3 0 0 1 .1-.2.5.5 0 0 1 0-.2.5.5 0 0 1 .1-.2.2.2 0 0 1 0-.2.3.3 0 0 1 .3-.3.4.4 0 0 1 .3.2h.3a.7.7 0 0 1 .5-.3.6.6 0 0 1 .3 0 1 1 0 0 1 .6-.2 1 1 0 0 1 .7.2h.2a1 1 0 0 1 .4.1.8.8 0 0 1 .6-.2.8.8 0 0 1 .4.2 2.8 2.8 0 0 1 .6 0 2 2 0 0 1 1 .2 1 1 0 0 1 1-.8 1 1 0 0 1 .7.3.8.8 0 0 1 .4-.2.6.6 0 0 1-.1-.4c0-.4.6-.8 1.3-.8a2 2 0 0 1 .8.1.7.7 0 0 1-.3-.5c0-.4.6-.8 1.2-.8a1 1 0 0 1 1 .8l-.1.5V62h-12.2v-.1a.4.4 0 0 1 0-.3z"/></g></g><g><path class="b" d="M197.5 62.3v-.1a.8.8 0 0 1-.5-.5.9.9 0 0 1-.4-1.3 1.9 1.9 0 0 1 1.5-3 1.8 1.8 0 0 1 .8.1 1.2 1.2 0 0 1 1-.7 1.2 1.2 0 0 1 1.2 1h.3c.9 0 1.5.3 1.5.8v.1a.8.8 0 0 1 .2.2.7.7 0 0 1 .4.3.8.8 0 0 1 .9.8 1 1 0 0 1 .2.7 1 1 0 0 1 0 .2.6.6 0 0 1 .2.5.7.7 0 0 1-.5.6v.2z"/><path class="c" d="M200 57.2a.9.9 0 0 1 .9.8v.1a2.2 2.2 0 0 1 .5 0c.7 0 1.3.2 1.3.6a.4.4 0 0 1-.1.2.4.4 0 0 1 .4.3.4.4 0 0 1 .4.3.6.6 0 0 1 .2 0 .5.5 0 0 1 .5.5.6.6 0 0 1 0 .2.8.8 0 0 1 .2 1 .4.4 0 0 1 .3.3.4.4 0 0 1-.5.3h-.1v.2h-6.3a.5.5 0 0 1-.5-.5.6.6 0 0 1-.5-.6.6.6 0 0 1 .3-.5 1.6 1.6 0 0 1 1.2-2.6 1.5 1.5 0 0 1 .9.3.9.9 0 0 1 .9-1m0-.5a1.5 1.5 0 0 0-1.3.6 2.3 2.3 0 0 0-.5 0 2.2 2.2 0 0 0-2.2 2.1 2.1 2.1 0 0 0 .3 1 1.1 1.1 0 0 0-.2.6 1.2 1.2 0 0 0 .7 1 1 1 0 0 0 .5.5v.2h7.3v-.3a1 1 0 0 0 .5-.9.9.9 0 0 0-.2-.6.9.9 0 0 0 0-.1 1.4 1.4 0 0 0-.2-.8 1.1 1.1 0 0 0-1-1 1 1 0 0 0-.4-.2v-.1c0-.7-.9-1.2-1.9-1.2a1.5 1.5 0 0 0-1.4-.9z"/><path class="d" d="M203.2 61.5a.6.6 0 0 0 0-.3.6.6 0 0 0-.2-.4.4.4 0 0 0 0-.1.4.4 0 0 0-.4-.5.7.7 0 0 0-.2 0 .3.3 0 0 0-.3-.2.4.4 0 0 0-.3-.2.3.3 0 0 0 0-.2c0-.3-.4-.5-1-.5a2 2 0 0 0-.4 0 .7.7 0 0 0-.7-.7.7.7 0 0 0-.8.7 1.4 1.4 0 0 0-.8-.3 1.3 1.3 0 0 0-1.3 1.3 1.2 1.2 0 0 0 .4.8.4.4 0 0 0-.3.4.5.5 0 0 0 .5.4.4.4 0 0 0 .3.4l.2-.1h5.1c.2 0 .4 0 .4-.2a.3.3 0 0 0-.2-.3z"/></g><g><path class="b" d="M2.5 62.3v-.1a.8.8 0 0 1-.5-.5.9.9 0 0 1-.4-1.3 1.9 1.9 0 0 1 1.6-3 1.8 1.8 0 0 1 .7.1A1.2 1.2 0 0 1 5 57a1.2 1.2 0 0 1 1.2.9h.2c1 0 1.6.4 1.6.9a.8.8 0 0 1 .2.3.7.7 0 0 1 .3.2.8.8 0 0 1 1 .8 1 1 0 0 1 .1.7 1 1 0 0 1 0 .3.6.6 0 0 1 .3.5.7.7 0 0 1-.5.6v.2z"/><path class="c" d="M5 57.2a.9.9 0 0 1 .9.8v.1a2.2 2.2 0 0 1 .5 0c.7 0 1.3.2 1.3.6a.4.4 0 0 1-.1.2.4.4 0 0 1 .4.3.4.4 0 0 1 .4.3.6.6 0 0 1 .2 0 .5.5 0 0 1 .5.5.6.6 0 0 1 0 .2.8.8 0 0 1 .2 1 .4.4 0 0 1 .3.3.4.4 0 0 1-.5.3H9v.2H2.7a.5.5 0 0 1-.5-.5.6.6 0 0 1-.5-.6.6.6 0 0 1 .3-.5 1.6 1.6 0 0 1 1.1-2.7 1.5 1.5 0 0 1 1 .3.9.9 0 0 1 .9-.8m0-.6a1.5 1.5 0 0 0-1.2.6 2.3 2.3 0 0 0-.6 0A2.2 2.2 0 0 0 1 59.2a2.1 2.1 0 0 0 .3 1 1.1 1.1 0 0 0-.2.6 1.2 1.2 0 0 0 .7 1 1 1 0 0 0 .5.5v.2h7.3v-.3a1 1 0 0 0 .5-.9.9.9 0 0 0-.2-.6.9.9 0 0 0 0-.1 1.4 1.4 0 0 0-.2-.7 1.1 1.1 0 0 0-1.1-1.1 1 1 0 0 0-.3-.2c-.1-.8-.9-1.3-2-1.3a1.5 1.5 0 0 0-1.3-.8z"/></g><g><path class="b" d="M219.4 62.5a1 1 0 0 1-.6-.3.7.7 0 0 1-.3-.3.9.9 0 0 1-.5-.5 1 1 0 0 1 .6-1.1 1 1 0 0 1 1.8-.1 3 3 0 0 1 1-.2 4.1 4.1 0 0 1 .6 0 1.2 1.2 0 0 1 .5-.2 1.2 1.2 0 0 1 .7.3 1.2 1.2 0 0 1 .4-.1h.1a1.5 1.5 0 0 1 1.7 0 .7.7 0 0 1 .2 0 1.1 1.1 0 0 1 .8.2.8.8 0 0 1 .5-.1.7.7 0 0 1 .8.6.7.7 0 0 1 0 .2.8.8 0 0 1 0 .3.7.7 0 0 1 0 .7l.2.4h-7.3a1 1 0 0 1-.3 0 1.6 1.6 0 0 1-.3 0h-.1a1.1 1.1 0 0 1-.4 0z"/><path class="c" d="M219.5 59.9a.6.6 0 0 1 .6.4 1 1 0 0 1 .1.3 2.1 2.1 0 0 1 1.3-.3 3.4 3.4 0 0 1 .5 0 .9.9 0 0 1 .6-.1.8.8 0 0 1 .6.2 1 1 0 0 1 .5 0 .7.7 0 0 1 .2 0 1 1 0 0 1 .7-.4 1.1 1.1 0 0 1 .8.3.8.8 0 0 1 .2 0 .7.7 0 0 1 .7.3.8.8 0 0 1 .2 0 .4.4 0 0 1 .4-.2.4.4 0 0 1 .5.3.3.3 0 0 1-.1.2.5.5 0 0 1 0 .3.6.6 0 0 1 0 .2.3.3 0 0 1 .2.2.5.5 0 0 1-.2.3v.1h-6.8l-.3.1a1 1 0 0 1-.2 0h-.2a.7.7 0 0 1-.3.1.6.6 0 0 1-.5-.2.4.4 0 0 1-.2-.2.6.6 0 0 1-.5-.4.7.7 0 0 1 .6-.8.6.6 0 0 1 .6-.6m0-.6a1.2 1.2 0 0 0-1.2.8 1.2 1.2 0 0 0-.6 1.3 1.2 1.2 0 0 0 .6.8.9.9 0 0 0 .3.2 1.2 1.2 0 0 0 .8.3 1.1 1.1 0 0 0 .4 0h.2a1.7 1.7 0 0 0 .4 0h8l-.4-.8a1.1 1.1 0 0 0 0-.3.9.9 0 0 0 0-.4 1.1 1.1 0 0 0 0-.3 1.1 1.1 0 0 0 0-.2 1 1 0 0 0-1-.9 1.1 1.1 0 0 0-.5.1 1.4 1.4 0 0 0-.8-.2h-.1a1.8 1.8 0 0 0-1.9 0 1.6 1.6 0 0 0-.3 0 1.4 1.4 0 0 0-.8-.1 1.6 1.6 0 0 0-.6.1h-.4a3.8 3.8 0 0 0-1 .1 1.2 1.2 0 0 0-1-.5z"/><path class="d" d="M227.3 61.9a.3.3 0 0 0 .1-.3.2.2 0 0 0 0-.2.4.4 0 0 0-.1-.3.2.2 0 0 0 0-.2c0-.1-.1-.2-.4-.2a.5.5 0 0 0-.3 0h-.3a.8.8 0 0 0-.6-.2 1 1 0 0 0-.3 0 1.3 1.3 0 0 0-.7-.2 1.2 1.2 0 0 0-.7.3h-.2a1.1 1.1 0 0 0-.5 0 .9.9 0 0 0-.6-.1 1 1 0 0 0-.5.1 4.8 4.8 0 0 0-.5 0 2.4 2.4 0 0 0-1.2.2.8.8 0 0 0-.7-.5.6.6 0 0 0-.6.5c-.4 0-.7.3-.6.6a.5.5 0 0 0 .5.3.3.3 0 0 0 .2.2.6.6 0 0 0 .4.2.7.7 0 0 0 .3 0 1.1 1.1 0 0 0 .4 0H227.3z"/></g><g><path class="b" d="M111.2 62.4a.7.7 0 0 1-.7-.6.6.6 0 0 1-.5-.6.8.8 0 0 1 0-1.3.5.5 0 0 1 0-.3.9.9 0 0 1 1-.8 1.2 1.2 0 0 1 .4.1.7.7 0 0 1 .2-.1.8.8 0 0 1 .7-.5.8.8 0 0 1 .3-.4 1.2 1.2 0 0 1 1.2-1.1 1.1 1.1 0 0 1 1.1 1.1 1 1 0 0 1-.5 1v3.4h-3a.4.4 0 0 1-.2 0z"/><path class="c" d="M113.7 57a.8.8 0 0 1 .8.9.8.8 0 0 1-.5.8V62h-2.6-.2a.4.4 0 0 1-.4-.3.4.4 0 0 1 0-.2c-.3 0-.5-.2-.5-.3a.3.3 0 0 1 0-.2.6.6 0 0 1-.3-.5.6.6 0 0 1 .3-.6.4.4 0 0 1-.1-.3c0-.3.3-.5.7-.5a.9.9 0 0 1 .5.2.4.4 0 0 1 .4-.3.5.5 0 0 1 .5-.4.4.4 0 0 1 .2 0 .5.5 0 0 1 .3-.5v-.2a.9.9 0 0 1 1-.9m0-.6a1.5 1.5 0 0 0-1.6 1.3 1.4 1.4 0 0 0-.2.3 1.1 1.1 0 0 0-.7.6 1.7 1.7 0 0 0-.5 0 1.2 1.2 0 0 0-1.3 1 1 1 0 0 0 0 .2 1.2 1.2 0 0 0 .2 1.5.9.9 0 0 0 .5.7 1 1 0 0 0 1 .7.8.8 0 0 0 .2 0h3.2V59a1.4 1.4 0 0 0 .5-1.1 1.4 1.4 0 0 0-1.4-1.5z"/></g><path class="d" d="M114.5 58.1a.6.6 0 0 0-.6-.4.7.7 0 0 0-.7.8.4.4 0 0 0-.3.5h-.1a.4.4 0 0 0-.5.4.4.4 0 0 0-.3.2.7.7 0 0 0-.4-.1c-.3 0-.6.1-.6.4a.3.3 0 0 0 .1.2.5.5 0 0 0 0 1c0 .2.2.4.4.4a.6.6 0 0 0 0 .2l.1.3h2.4v-3.4c.4-.1.5-.3.5-.5z"/><path class="f" d="M336.9 25h.5s.5 1 .9 1c.1.4.5.6 1 1h2.5a3.1 3.1 0 0 0 1.2-1.6V25c.2.6 1-.2 1-.2l-1-.8h-1.2c-.1-.4-.5-.6-1-1h-2.5l-1 1h-.4a7 7 0 0 0-.8.8 1 1 0 0 0 .8.2z"/><path class="g" d="M121.5 9H119v1h2.8a2.4 2.4 0 0 0-.3-1z"/><g><path class="u" d="M38.7 56.2s1.6-6.8 4.5-4.4-.1 8.8-.1 8.8"/><path class="u" d="M39.2 56.2s-1.6-6.8-4.5-4.4.1 8.8.1 8.8"/><path class="j" d="M33.7 62.3v-1.1a1.5 1.5 0 0 1 1.5-1.5h7.6a1.5 1.5 0 0 1 1.5 1.5v1.1z"/><path class="c" d="M42.8 60a1.2 1.2 0 0 1 1.2 1.2v.8H34v-.8a1.2 1.2 0 0 1 1.2-1.2h7.6m0-.6h-7.6a1.8 1.8 0 0 0-1.8 1.8v1.4h11.2v-1.4a1.8 1.8 0 0 0-1.8-1.8z"/><path class="j" d="M36.2 59.3a1.5 1.5 0 0 1-1.5-1.5v-1.1h7.6v1.1a1.5 1.5 0 0 1-1.5 1.5z"/><path class="c" d="M42 57v.8a1.2 1.2 0 0 1-1.2 1.2h-4.6a1.2 1.2 0 0 1-1.2-1.2V57h7m.6-.6h-8.2v1.4a1.8 1.8 0 0 0 1.8 1.8h4.6a1.8 1.8 0 0 0 1.8-1.8v-1.4z"/><g><path class="j" d="M38.2 57.3a1.5 1.5 0 0 1-1.5-1.5v-1.1h4.6v1.1a1.5 1.5 0 0 1-1.5 1.5z"/><path class="c" d="M41 55v.8a1.2 1.2 0 0 1-1.2 1.2h-1.6a1.2 1.2 0 0 1-1.2-1.2V55h4m.6-.6h-5.2v1.4a1.8 1.8 0 0 0 1.8 1.8h1.6a1.8 1.8 0 0 0 1.8-1.8v-1.4z"/></g></g><g><path class="l" d="M59 47.3l-1.3-1.6h27.7l-1.3 1.6H59z"/><path class="c" d="M84.8 46l-.8 1H59.1l-.8-1h26.5m1.2-.6H57.1l.8 1 .8 1 .1.2h25.5l.2-.2.8-1 .7-1z"/><path class="e" d="M58.7 44.7h26.6v1.6H58.7z"/><path class="c" d="M85 45v1H59v-1h26m.6-.6H58.4v2.2h27.2v-2.2z"/><path class="e" d="M56.7 44.3l14.8-5.4 15 5.4H56.7z"/><path class="c" d="M71.5 39.2L84.8 44H58.4l13.1-4.8m0-.7l-.2.1-13.2 4.8-3.1 1.2h33.2L85 43.4l-13.3-4.8h-.2z"/><path class="b" d="M56.7 61.3v-.2a.7.7 0 0 1-.5-.6.6.6 0 0 1 .2-.5 1.1 1.1 0 0 1 0-.3 1 1 0 0 1 .2-.6.8.8 0 0 1 .9-.9.6.6 0 0 1 .4-.2.8.8 0 0 1 .2-.2c0-.6.6-1 1.5-1h.3a1.2 1.2 0 0 1 1.1-1 1.2 1.2 0 0 1 1.1.8 1.8 1.8 0 0 1 .7-.2 1.9 1.9 0 0 1 1.9 1.9 1.9 1.9 0 0 1-.3 1 .9.9 0 0 1-.4 1.4.8.8 0 0 1-.6.5h-.3z"/><path class="c" d="M61 56.2a.9.9 0 0 1 .9.8 1.5 1.5 0 0 1 1-.3 1.6 1.6 0 0 1 1.1 2.7.6.6 0 0 1 .3.5.6.6 0 0 1-.5.6.5.5 0 0 1-.4.4h-.2v.1H57v-.1a.4.4 0 0 1-.5-.4.4.4 0 0 1 .3-.4.7.7 0 0 1-.1-.4.8.8 0 0 1 .2-.5.6.6 0 0 1 0-.2.5.5 0 0 1 .5-.5.6.6 0 0 1 .3 0 .4.4 0 0 1 .4-.3.4.4 0 0 1 .4-.2.4.4 0 0 1-.2-.3c0-.4.6-.6 1.3-.6a2.2 2.2 0 0 1 .5 0 .9.9 0 0 1 1-1m0-.5a1.5 1.5 0 0 0-1.4.9c-1 0-1.9.4-2 1.1a1 1 0 0 0-.2.3 1.1 1.1 0 0 0-1.2 1.1 1.4 1.4 0 0 0-.2.8.9.9 0 0 0 0 .1 1 1 0 0 0-.2.6 1 1 0 0 0 .5.8v.3h7.3v-.2a1 1 0 0 0 .5-.4 1.2 1.2 0 0 0 .6-1 1.3 1.3 0 0 0 0-.6 2.2 2.2 0 0 0-2-3.2 2.3 2.3 0 0 0-.6 0 1.5 1.5 0 0 0-1.2-.6z"/><path class="d" d="M57.8 60.5a.6.6 0 0 1 0-.3.6.6 0 0 1 .1-.4.4.4 0 0 1 0-.1.4.4 0 0 1 .5-.5.6.6 0 0 1 .2 0 .3.3 0 0 1 .3-.2.4.4 0 0 1 .3-.2.3.3 0 0 1 0-.2c0-.3.4-.5 1-.5a2 2 0 0 1 .4 0 .7.7 0 0 1 .7-.7.7.7 0 0 1 .7.7 1.4 1.4 0 0 1 .8-.3 1.3 1.3 0 0 1 1.3 1.3 1.1 1.1 0 0 1-.3.8.4.4 0 0 1 .2.4.5.5 0 0 1-.4.4.4.4 0 0 1-.4.4l-.1-.1H58c-.2 0-.4 0-.4-.2a.3.3 0 0 1 .2-.3z"/><path class="j" d="M53.7 62.3v-1.1a1.5 1.5 0 0 1 1.5-1.5h33.6a1.5 1.5 0 0 1 1.5 1.5v1.1z"/><path class="c" d="M88.8 60a1.2 1.2 0 0 1 1.2 1.2v.8H54v-.8a1.2 1.2 0 0 1 1.2-1.2h33.6m0-.6H55.2a1.8 1.8 0 0 0-1.8 1.8v1.4h37.2v-1.4a1.8 1.8 0 0 0-1.8-1.8z"/><path class="j" d="M57.7 61.3V60a1 1 0 0 1 0-1 1 1 0 0 1 .9-.4 1.3 1.3 0 0 1 .4.1h25.7a1.3 1.3 0 0 1 .4 0 1.3 1.3 0 0 1 1.2 1.2v1.4z"/><path class="c" d="M85.1 59a1 1 0 0 1 .9 1v1H58v-1a.7.7 0 0 1 .6-1 .8.8 0 0 1 .3 0h25.9a.9.9 0 0 1 .3 0m0-.7a1.7 1.7 0 0 0-.4.1H59a1.6 1.6 0 0 0-.4 0 1.3 1.3 0 0 0-1 .5 1.3 1.3 0 0 0-.2 1.1v1.6h29.2v-1.7a1.6 1.6 0 0 0-1.5-1.6z"/><g><path class="j" d="M59.7 45.7h1.6v13.6h-1.6z"/><path class="c" d="M61 46v13h-1V46h1m.6-.6h-2.2v14.2h2.2V45.4z"/></g><g><path class="j" d="M64.7 45.7h1.6v13.6h-1.6z"/><path class="c" d="M66 46v13h-1V46h1m.6-.6h-2.2v14.2h2.2V45.4z"/></g><g><path class="j" d="M70.7 45.7h1.6v13.6h-1.6z"/><path class="c" d="M72 46v13h-1V46h1m.6-.6h-2.2v14.2h2.2V45.4z"/></g><g><path class="j" d="M76.7 45.7h1.6v13.6h-1.6z"/><path class="c" d="M78 46v13h-1V46h1m.6-.6h-2.2v14.2h2.2V45.4z"/></g><g><path class="j" d="M81.7 45.7h1.6v13.6h-1.6z"/><path class="c" d="M83 46v13h-1V46h1m.6-.6h-2.2v14.2h2.2V45.4z"/></g><g><circle class="s" cx="71.6" cy="42.2" r="1.5"/><path class="t" d="M71.6 41a1.2 1.2 0 1 1-1.3 1.2 1.2 1.2 0 0 1 1.3-1.2m0-.6a1.8 1.8 0 1 0 1.8 1.8 1.8 1.8 0 0 0-1.8-1.8z"/></g></g><g><path class="b" d="M87 62.3h-4.3a.5.5 0 0 1-.3-.6.5.5 0 0 1 .1-.3.7.7 0 0 1 0-.1.8.8 0 0 1 .1-.5.7.7 0 0 1 .7-.6.5.5 0 0 1 .2-.2c0-.5.6-.8 1.2-.8h.1a.9.9 0 0 1 .8-.6.9.9 0 0 1 .8.5 1.2 1.2 0 0 1 .4-.1 1.3 1.3 0 0 1 1.2 2 .7.7 0 0 1 .1.4.7.7 0 0 1-.4.6.6.6 0 0 1-.3.3h-.2z"/><path class="c" d="M85.6 59a.6.6 0 0 1 .6.5 1 1 0 0 1 .6-.2 1 1 0 0 1 1 1 1 1 0 0 1-.3.7.4.4 0 0 1 .2.3.4.4 0 0 1-.3.4.3.3 0 0 1-.3.3H83a.3.3 0 0 1-.3-.3.2.2 0 0 1 .2-.2.5.5 0 0 1 0-.2.5.5 0 0 1 .1-.4.3.3 0 0 1 .4-.4.3.3 0 0 1 .1 0 .3.3 0 0 1 .3-.3.3.3 0 0 1 .2-.1.3.3 0 0 1 0-.2c0-.2.3-.4.8-.4a1.8 1.8 0 0 1 .3 0 .6.6 0 0 1 .6-.6m0-.6a1.2 1.2 0 0 0-1 .6c-.7 0-1.2.4-1.3.8a.4.4 0 0 0-.2.1 1 1 0 0 0-.8.9 1.1 1.1 0 0 0-.1.5.8.8 0 0 0-.2.5.8.8 0 0 0 .4.6v.2h5.1v-.1a1 1 0 0 0 .3-.3 1 1 0 0 0 .5-.8 1 1 0 0 0 0-.4 1.6 1.6 0 0 0 .1-.7 1.6 1.6 0 0 0-1.6-1.6h-.3a1.2 1.2 0 0 0-1-.4z"/><path class="d" d="M83.8 61.7a.4.4 0 0 1 0-.2.4.4 0 0 1 .1-.3.3.3 0 0 1 .3-.3.3.3 0 0 1 .1 0 .2.2 0 0 1 .3-.2.2.2 0 0 1 .2-.1.2.2 0 0 1 0-.1c0-.2.3-.4.6-.4a1.3 1.3 0 0 1 .3 0 .5.5 0 0 1 .5-.4.5.5 0 0 1 .5.4.9.9 0 0 1 .5-.1.8.8 0 0 1 .9.8.8.8 0 0 1-.3.5.3.3 0 0 1 0 .6.2.2 0 0 1-.3.2H84c-.1 0-.3 0-.3-.2a.2.2 0 0 1 .1-.2z"/></g><g><path class="e" d="M283 30.3a1.2 1.2 0 0 1-1.3-1.2 1.4 1.4 0 0 1 1.4-1.4h7.8a1.4 1.4 0 0 1 1.4 1.4 1.2 1.2 0 0 1-1.2 1.2z"/><path class="c" d="M290.9 28a1.1 1.1 0 0 1 1.1 1 1 1 0 0 1-1 1h-8a.9.9 0 0 1-1-.9 1.1 1.1 0 0 1 1.1-1.1h7.8m0-.6H283a1.7 1.7 0 0 0-1.7 1.7 1.5 1.5 0 0 0 1.5 1.5h8.2a1.5 1.5 0 0 0 1.5-1.5 1.7 1.7 0 0 0-1.7-1.7z"/></g><g><path class="e" d="M284.1 28.5a.5.5 0 0 1-.4-.3.6.6 0 0 1 0-.5.7.7 0 0 1 .1-.6.9.9 0 0 1 .8-.4h5.2a2 2 0 0 1 1.2.6l.3.3v.3l-.3.2a1.4 1.4 0 0 1-.8.4.7.7 0 0 1-.4-.2h-5.2a.7.7 0 0 1-.5.2z"/><path class="c" d="M289.8 27c.4 0 .7.3 1.2.7l-.8.4a.5.5 0 0 1-.3-.1h-5.5a.4.4 0 0 1-.3.1c-.1 0-.2-.2-.1-.4a.5.5 0 0 1 .5-.7h5.3m0-.6h-5.3a1.2 1.2 0 0 0-1 .5 1.1 1.1 0 0 0-.1.8.9.9 0 0 0 0 .7.8.8 0 0 0 .7.4.9.9 0 0 0 .6-.2h5a1 1 0 0 0 .5.1 1.7 1.7 0 0 0 1-.3l.2-.2.2-.1v-.7l-.2-.1-.2-.2a2.3 2.3 0 0 0-1.4-.7z"/></g><g><path class="j" d="M282.7 30.7h1.6v5.6h-1.6z"/><path class="c" d="M284 31v5h-1v-5h1m.6-.6h-2.2v6.2h2.2v-6.2z"/></g><g><path class="j" d="M284.7 30.7h1.6v5.6h-1.6z"/><path class="c" d="M286 31v5h-1v-5h1m.6-.6h-2.2v6.2h2.2v-6.2z"/></g><g><path class="j" d="M288.7 30.7h1.6v5.6h-1.6z"/><path class="c" d="M290 31v5h-1v-5h1m.6-.6h-2.2v6.2h2.2v-6.2z"/></g><g><path class="j" d="M289.7 30.7h1.6v5.6h-1.6z"/><path class="c" d="M291 31v5h-1v-5h1m.6-.6h-2.2v6.2h2.2v-6.2z"/></g><g><path class="b" d="M6.9 62.5a1 1 0 0 1-.7-.3.6.6 0 0 1-.3-.3.8.8 0 0 1-.5-.5 1 1 0 0 1 .6-1.1 1 1 0 0 1 1-.7 1 1 0 0 1 .8.6 3.1 3.1 0 0 1 1-.2 4.2 4.2 0 0 1 .6 0 1.2 1.2 0 0 1 .6-.1 1.2 1.2 0 0 1 .7.2 1.2 1.2 0 0 1 .4-.1 1.5 1.5 0 0 1 1.8 0h.1a.8.8 0 0 1 .8-.8h.1a.7.7 0 0 1 .4-.3.8.8 0 0 1 .2-.1.2.2 0 0 1 0-.1c0-.6.6-1 1.5-1h.3a1.2 1.2 0 0 1 2.2-.2 1.8 1.8 0 0 1 .8-.1 1.9 1.9 0 0 1 1.8 1.9 1.9 1.9 0 0 1-.3 1 .9.9 0 0 1-.4 1.4.7.7 0 0 1-.5.5h-12a1 1 0 0 1-.2.1 1.8 1.8 0 0 1-.3 0h-.2a1.1 1.1 0 0 1-.3 0z"/><path class="c" d="M17.4 57.2a.9.9 0 0 1 1 .8 1.5 1.5 0 0 1 .9-.3 1.6 1.6 0 0 1 1 2.7.6.6 0 0 1 .4.5.6.6 0 0 1-.5.6.5.5 0 0 1-.5.4v.1H7.8l-.3.1h-.4a.7.7 0 0 1-.3 0 .6.6 0 0 1-.5-.1.4.4 0 0 1-.2-.2.6.6 0 0 1-.5-.4.7.7 0 0 1 .6-.8.6.6 0 0 1 .6-.6.6.6 0 0 1 .7.4 1.3 1.3 0 0 1 0 .3 2.1 2.1 0 0 1 1.3-.3 3.4 3.4 0 0 1 .6 0 .9.9 0 0 1 .5-.1.8.8 0 0 1 .6.2 1 1 0 0 1 .5-.1.7.7 0 0 1 .2 0 1 1 0 0 1 .8-.3 1.1 1.1 0 0 1 .7.2.8.8 0 0 1 .3 0h.2a.6.6 0 0 1 0-.2.5.5 0 0 1 .6-.5.6.6 0 0 1 .2 0 .4.4 0 0 1 .4-.3.4.4 0 0 1 .4-.3.4.4 0 0 1-.1-.2c0-.4.6-.7 1.2-.7a2.2 2.2 0 0 1 .6 0 .9.9 0 0 1 .9-.9m0-.6a1.5 1.5 0 0 0-1.4 1H16c-1 0-1.8.4-1.9 1.1a1 1 0 0 0-.3.3 1.1 1.1 0 0 0-1 .7 1.7 1.7 0 0 0-.8-.2 1.8 1.8 0 0 0-1 .3 1.6 1.6 0 0 0-.4 0 1.4 1.4 0 0 0-.7-.2 1.6 1.6 0 0 0-.6.2h-.5a3.7 3.7 0 0 0-.8 0 1.2 1.2 0 0 0-1-.5 1.3 1.3 0 0 0-1.2.8 1.3 1.3 0 0 0-.6 1.3 1.2 1.2 0 0 0 .6.8 1 1 0 0 0 .3.3 1.2 1.2 0 0 0 .8.3 1 1 0 0 0 .4 0h.1a1.6 1.6 0 0 0 .4 0l.2-.2h12.2v-.2a1 1 0 0 0 .5-.4 1.2 1.2 0 0 0 .6-1 1.1 1.1 0 0 0-.2-.6 2.1 2.1 0 0 0 .3-1 2.2 2.2 0 0 0-2.1-2.2 2.4 2.4 0 0 0-.6 0 1.5 1.5 0 0 0-1.3-.6z"/></g><g><path class="e" d="M487.7 41.7h2.6v2.6h-2.6z"/><path class="c" d="M490 42v2h-2v-2h2m.6-.6h-3.2v3.2h3.2v-3.2z"/></g><g><path class="e" d="M490.7 41.7h2.6v2.6h-2.6z"/><path class="c" d="M493 42v2h-2v-2h2m.6-.6h-3.2v3.2h3.2v-3.2z"/></g><g><path class="l" d="M480.4 43.3l-1-1.6h8l-1 1.6h-6z"/><path class="c" d="M486.8 42l-.6 1h-5.6l-.6-1h6.8m1.1-.6h-9l.6 1 .6 1 .2.2h6.3l.2-.3.6-1 .6-.9z"/></g><g><path class="e" d="M479.7 42.3V42a3.7 3.7 0 0 1 7.4 0v.3z"/><path class="c" d="M483.4 38.9a3.6 3.6 0 0 1 3.4 3.1H480a3.6 3.6 0 0 1 3.4-3.1m0-.6a4.2 4.2 0 0 0-4 3.6v.7h8.1v-.7a4.2 4.2 0 0 0-4-3.6z"/></g><g><path class="j" d="M492.7 51.7h5.6v10.6h-5.6z"/><path class="c" d="M498 52v10h-5V52h5m.6-.6h-6.2v11.2h6.2V51.4z"/></g><g><path class="l" d="M492.7 53.3v-1.6h5.9l-.4 1.6h-5.5z"/><path class="c" d="M498.2 52l-.2 1h-5v-1h5.2m.8-.6h-6.6v2.2h6l.2-.5.2-1 .2-.7z"/></g><path class="k" d="M493 52h5v10h-5z"/><g><path class="e" d="M492.7 52.3v-4.2l6.4 4.2h-6.4z"/><path class="c" d="M493 48.6l5.1 3.4H493v-3.4m-.6-1v5h7.7l-1.7-1.1-5-3.4-1-.6z"/></g><g><path class="e" d="M493.7 48.7h1.6v2.6h-1.6z"/><path class="c" d="M495 49v2h-1v-2h1m.6-.6h-2.2v3.2h2.2v-3.2z"/></g><path class="m" d="M493 52h2v10h-2z"/><g><path class="j" d="M445.7 46.7h23.6v6.6h-23.6z"/><path class="c" d="M469 47v6h-23v-6h23m.6-.6h-24.2v7.2h24.2v-7.2z"/><path class="k" d="M446 48h23v6h-23z"/><path class="e" d="M445.7 46.7h23.6v1.6h-23.6z"/><path class="c" d="M469 47v1h-23v-1h23m.6-.6h-24.2v2.2h24.2v-2.2z"/><g><path class="e" d="M445.7 52.7h23.6v1.6h-23.6z"/><path class="c" d="M469 53v1h-23v-1h23m.6-.6h-24.2v2.2h24.2v-2.2z"/></g></g><g><path class="n" d="M446.7 53.3V51a2.8 2.8 0 1 1 5.6 0v2.3z"/><path class="o" d="M449.5 48a2.8 2.8 0 0 1 2.5 3v2h-5v-2a2.8 2.8 0 0 1 2.5-3m0-.6a3.4 3.4 0 0 0-3.1 3.6v2.6h6.2V51a3.4 3.4 0 0 0-3-3.6z"/></g><g><path class="n" d="M451.7 53.3V51a2.8 2.8 0 1 1 5.6 0v2.3z"/><path class="o" d="M454.5 48a2.8 2.8 0 0 1 2.5 3v2h-5v-2a2.8 2.8 0 0 1 2.5-3m0-.6a3.4 3.4 0 0 0-3.1 3.6v2.6h6.2V51a3.4 3.4 0 0 0-3-3.6z"/></g><g><path class="n" d="M456.7 53.3V51a2.8 2.8 0 1 1 5.6 0v2.3z"/><path class="o" d="M459.5 48a2.8 2.8 0 0 1 2.5 3v2h-5v-2a2.8 2.8 0 0 1 2.5-3m0-.6a3.4 3.4 0 0 0-3.1 3.6v2.6h6.2V51a3.4 3.4 0 0 0-3-3.6z"/></g><g><path class="n" d="M461.7 53.3V51a2.8 2.8 0 1 1 5.6 0v2.3z"/><path class="o" d="M464.5 48a2.8 2.8 0 0 1 2.5 3v2h-5v-2a2.8 2.8 0 0 1 2.5-3m0-.6a3.4 3.4 0 0 0-3.1 3.6v2.6h6.2V51a3.4 3.4 0 0 0-3-3.6z"/></g><g><path class="j" d="M464.7 42.7h28.6v19.6h-28.6z"/><path class="c" d="M493 43v19h-28V43h28m.6-.6h-29.2v20.2h29.2V42.4z"/></g><path class="k" d="M465 43h28v19h-28z"/><g><path class="s" d="M386.7 62.3V38.8h.2a116.2 116.2 0 0 1 19.3-1.3 227.2 227.2 0 0 1 40.9 4h.2v20.8z"/><path class="t" d="M406.2 37.7a227.8 227.8 0 0 1 40.8 4V62h-60V39a115.7 115.7 0 0 1 19.2-1.3m0-.6a118.2 118.2 0 0 0-19.3 1.3l-.5.1v24.1h61.2V41.2l-.5-.1a228 228 0 0 0-40.9-4z"/><path class="v" d="M413 50h8M413 45h8M396 62V38M404 62V38M414 62V38M419 62V38M432 62V39M439 62V40M446 62V41M388 62V38"/><path class="e" d="M428.7 40a208.7 208.7 0 0 0-23.2-1.4h-3.2V43h-.6v-4.4c-2.2 0-4.4.2-6.4.3v4.4h-1.6v-4.4c-3 .2-5.1.5-6.4.7h-1v2.7h-1.6v-4.4h.6a158 158 0 0 1 20.7-1.3 234.5 234.5 0 0 1 42 4h.3v2.7h-1.6v-1l-7.2-1.2-1.2-.2v1.4h-1.6v-2.5l-6.4-.7v3l-1.6 1.6z"/><path class="c" d="M406 37a234.6 234.6 0 0 1 42 3.9V43h-1v-1l-9-1.4V42h-1v-2.4a264 264 0 0 0-7-.9V42l-1 1v-3.4a209.1 209.1 0 0 0-23.5-1.3H402c-2.6 0-5 .1-7 .3V43h-1v-4.5c-4.8.4-7.5.9-8 .9V42h-1v-3.8a147.6 147.6 0 0 1 21-1.3m0-.6a158.7 158.7 0 0 0-20.8 1.3h-.8v5h2.2V40l.7-.1 6-.7v4.4h2.3v-4.4l5.8-.3V43h1.2v-4.1h2.9a207.6 207.6 0 0 1 22.9 1.3v4.3l1-1 1-1 .1-.2v-2.9l5.8.7v2.5h2.2v-1.4l.9.2 7 1.2v1h2.2v-3.2l-.5-.1a235.2 235.2 0 0 0-42.1-4z"/><path d="M416.7 58a3.3 3.3 0 0 0-1.7 2.8V62h3v-1.2a2.4 2.4 0 0 0-1.3-2.8z" fill="#a1c9c8"/><path class="j" d="M384.7 42.7h28.6v19.6h-28.6z"/><path class="c" d="M413 43v19h-28V43h28m.6-.6h-29.2v20.2h29.2V42.4z"/><path class="j" d="M420.7 42.7h28.6v19.6h-28.6z"/><path class="c" d="M449 43v19h-28V43h28m.6-.6h-29.2v20.2h29.2V42.4z"/><path class="k" d="M385 43h28v19h-28zM421 43h28v19h-28z"/><path class="e" d="M425.7 43.7h8.6v17.6h-8.6z"/><path class="c" d="M434 44v17h-8V44h8m.6-.6h-9.2v18.2h9.2V43.4z"/><path class="s" d="M426.7 44.7h6.6v16.6h-6.6z"/><path class="t" d="M433 45v16h-6V45h6m.6-.6h-7.2v17.2h7.2V44.4z"/><path class="x" d="M428.5 45v16M429.5 45v16M431.5 45v16"/><path class="u" d="M433 52.5h-7M433 48.5h-7M433 57.5h-7"/><g><path class="e" d="M436.7 43.7h8.6v4.6h-8.6z"/><path class="c" d="M445 44v4h-8v-4h8m.6-.6h-9.2v5.2h9.2v-5.2z"/><path class="s" d="M437.7 44.7h6.6v3.6h-6.6z"/><path class="t" d="M444 45v3h-6v-3h6m.6-.6h-7.2v4.2h7.2v-4.2z"/><path class="x" d="M439.5 45v3M441.5 45v3M443.5 45v3"/></g><g><path class="e" d="M436.7 50.7h8.6v4.6h-8.6z"/><path class="c" d="M445 51v4h-8v-4h8m.6-.6h-9.2v5.2h9.2v-5.2z"/><path class="s" d="M437.7 50.7h6.6v3.6h-6.6z"/><path class="t" d="M444 51v3h-6v-3h6m.6-.6h-7.2v4.2h7.2v-4.2z"/><path class="x" d="M439.5 51v3M441.5 51v3M443.5 51v3"/></g><g><path class="e" d="M436.7 56.7h8.6v4.6h-8.6z"/><path class="c" d="M445 57v4h-8v-4h8m.6-.6h-9.2v5.2h9.2v-5.2z"/><path class="s" d="M437.7 57.7h6.6v3.6h-6.6z"/><path class="t" d="M444 58v3h-6v-3h6m.6-.6h-7.2v4.2h7.2v-4.2z"/><path class="x" d="M439.5 58v3M441.5 58v3M443.5 58v3"/></g><g><path class="e" d="M387.7 43.7h20.6v4.6h-20.6z"/><path class="c" d="M408 44v4h-20v-4h20m.6-.6h-21.2v5.2h21.2v-5.2z"/><path class="s" d="M388.7 44.7h18.6v3.6h-18.6z"/><path class="t" d="M407 45v3h-18v-3h18m.6-.6h-19.2v4.2h19.2v-4.2z"/><path class="x" d="M390.5 45v3M393.5 45v3M396.5 45v3M399.5 45v3M402.5 45v3M405.5 45v3"/></g><g><path class="e" d="M387.7 50.7h20.6v4.6h-20.6z"/><path class="c" d="M408 51v4h-20v-4h20m.6-.6h-21.2v5.2h21.2v-5.2z"/><path class="s" d="M388.7 50.7h18.6v3.6h-18.6z"/><path class="t" d="M407 51v3h-18v-3h18m.6-.6h-19.2v4.2h19.2v-4.2z"/><path class="x" d="M390.5 51v3M393.5 51v3M396.5 51v3M399.5 51v3M402.5 51v3M405.5 51v3"/></g><g><path class="q" d="M392.7 62.3v-3.5a3.1 3.1 0 0 1 3-3.1h.5a3.1 3.1 0 0 1 3.1 3v3.6z"/><path class="c" d="M396.2 56a2.8 2.8 0 0 1 2.8 2.8V62h-6v-3.2a2.8 2.8 0 0 1 2.8-2.8h.4m0-.6h-.4a3.4 3.4 0 0 0-3.4 3.4v3.8h7.2v-3.8a3.4 3.4 0 0 0-3.4-3.4z"/><path class="r" d="M393 59.5h5"/></g><g><path class="q" d="M397.7 62.3v-3.5a3.1 3.1 0 0 1 3-3.1h.5a3.1 3.1 0 0 1 3.1 3v3.6z"/><path class="c" d="M401.2 56a2.8 2.8 0 0 1 2.8 2.8V62h-6v-3.2a2.8 2.8 0 0 1 2.8-2.8h.4m0-.6h-.4a3.4 3.4 0 0 0-3.4 3.4v3.8h7.2v-3.8a3.4 3.4 0 0 0-3.4-3.4z"/><path class="r" d="M398 59.5h6"/></g></g><path class="m" d="M465 47h27v1h-27z"/><g><path class="j" d="M464.7 42.7h28.6v4.6h-28.6z"/><path class="c" d="M493 43v4h-28v-4h28m.6-.6h-29.2v5.2h29.2v-5.2z"/><path class="k" d="M465 43h28v4h-28z"/><path class="e" d="M464.7 41.7h28.6v1.6h-28.6z"/><path class="c" d="M493 42v1h-28v-1h28m.6-.6h-29.2v2.2h29.2v-2.2z"/><g><path class="e" d="M464.7 46.7h28.6v1.6h-28.6z"/><path class="c" d="M493 47v1h-28v-1h28m.6-.6h-29.2v2.2h29.2v-2.2z"/></g></g><g><path class="e" d="M466.7 43.7h6.6v3.6h-6.6z"/><path class="c" d="M473 44v3h-6v-3h6m.6-.6h-7.2v4.2h7.2v-4.2z"/><path class="n" d="M466.7 43.7h5.6v2.6h-5.6z"/><path class="o" d="M472 44v2h-5v-2h5m.6-.6h-6.2v3.2h6.2v-3.2z"/><path class="p" d="M468.5 45v1M469.5 45v1M471.5 45v1"/></g><g><path class="e" d="M472.7 43.7h6.6v3.6h-6.6z"/><path class="c" d="M479 44v3h-6v-3h6m.6-.6h-7.2v4.2h7.2v-4.2z"/><path class="n" d="M472.7 43.7h5.6v2.6h-5.6z"/><path class="o" d="M478 44v2h-5v-2h5m.6-.6h-6.2v3.2h6.2v-3.2z"/><path class="p" d="M474.5 45v1M475.5 45v1M477.5 45v1"/></g><g><path class="e" d="M478.7 43.7h6.6v3.6h-6.6z"/><path class="c" d="M485 44v3h-6v-3h6m.6-.6h-7.2v4.2h7.2v-4.2z"/><path class="n" d="M479.7 43.7h5.6v2.6h-5.6z"/><path class="o" d="M485 44v2h-5v-2h5m.6-.6h-6.2v3.2h6.2v-3.2z"/><path class="p" d="M480.5 45v1M482.5 45v1M483.5 45v1"/></g><g><path class="e" d="M484.7 43.7h6.6v3.6h-6.6z"/><path class="c" d="M491 44v3h-6v-3h6m.6-.6h-7.2v4.2h7.2v-4.2z"/><path class="n" d="M485.7 43.7h5.6v2.6h-5.6z"/><path class="o" d="M491 44v2h-5v-2h5m.6-.6h-6.2v3.2h6.2v-3.2z"/><path class="p" d="M486.5 45v1M488.5 45v1M489.5 45v1"/></g><g><path class="r" d="M493.7 55l-10.2 5v2"/><path class="c" d="M491 57h1v1h-1zM490 58h1v1h-1zM489 58h1v1h-1zM488 59h1v1h-1zM487 60h1v1h-1zM486 60h1v1h-1zM485 61h1v1h-1zM484 61h1v1h-1z"/><path class="r" d="M491.5 58v-2M490.5 58v-2M489.5 59v-2M488.5 59v-2M488.5 60v-2M487.5 60v-2M486.5 61v-2M485.5 61v-2M484.5 62v-3M483.5 62v-2"/><g><path class="q" d="M479.7 57.7h2.6v4.6h-2.6z"/><path class="c" d="M482 58v4h-2v-4h2m.6-.6h-3.2v5.2h3.2v-5.2z"/></g><path class="r" d="M480 59.5h2"/></g><g><path class="b" d="M503.1 62.5a1.2 1.2 0 0 1-.3 0h-.2a1.6 1.6 0 0 1-.3 0 1 1 0 0 1-.2-.1h-12v-.1a.8.8 0 0 1-.5-.5.9.9 0 0 1-.6-.8.9.9 0 0 1 .2-.5 1.9 1.9 0 0 1 1.6-3 1.8 1.8 0 0 1 .7.1 1.2 1.2 0 0 1 1-.7 1.2 1.2 0 0 1 1.2.9h.3c.9 0 1.6.4 1.6 1a.8.8 0 0 1 .1.2.7.7 0 0 1 .4.2.8.8 0 0 1 .9.8h.2a1.4 1.4 0 0 1 .8-.3 1.4 1.4 0 0 1 .9.3 1.3 1.3 0 0 1 .5.1 1 1 0 0 1 .7-.2 1.2 1.2 0 0 1 .5.1 4.4 4.4 0 0 1 .5 0 3 3 0 0 1 1.1.2 1 1 0 0 1 .9-.6 1 1 0 0 1 .9.7 1 1 0 0 1 .6 1.1.8.8 0 0 1-.5.6.6.6 0 0 1-.3.3.9.9 0 0 1-.6.2z"/><path class="c" d="M492.6 57.2a.9.9 0 0 1 .9.8v.1a2 2 0 0 1 .5 0c.7 0 1.3.2 1.3.6a.4.4 0 0 1-.1.2.4.4 0 0 1 .4.3.4.4 0 0 1 .3.3.6.6 0 0 1 .3 0 .5.5 0 0 1 .5.5.3.3 0 0 1 0 .2h.3a.8.8 0 0 1 .2 0 1.1 1.1 0 0 1 .8-.2 1 1 0 0 1 .8.3.7.7 0 0 1 .2 0 1 1 0 0 1 .5.1.8.8 0 0 1 .6-.2.8.8 0 0 1 .5.1 3.5 3.5 0 0 1 .6 0 2.2 2.2 0 0 1 1.2.3 1.3 1.3 0 0 1 .1-.3.7.7 0 0 1 1.3.2.7.7 0 0 1 .5.8.6.6 0 0 1-.4.4.3.3 0 0 1-.2.2.6.6 0 0 1-.5.2.7.7 0 0 1-.3 0h-.4l-.2-.1h-11.9v-.1a.5.5 0 0 1-.5-.4.6.6 0 0 1-.2-1.1 1.5 1.5 0 0 1-.5-1.1 1.6 1.6 0 0 1 1.6-1.6 1.5 1.5 0 0 1 1 .3.9.9 0 0 1 .8-.9m0-.6a1.5 1.5 0 0 0-1.2.7 2.3 2.3 0 0 0-.6 0 2.2 2.2 0 0 0-2.2 2 2.1 2.1 0 0 0 .3 1.2 1.1 1.1 0 0 0-.1.5 1.2 1.2 0 0 0 .6 1 1 1 0 0 0 .5.5v.1H502l.2.1a1.7 1.7 0 0 0 .4 0h.1a1.1 1.1 0 0 0 .4 0 1.2 1.2 0 0 0 .8-.2.8.8 0 0 0 .4-.3 1.2 1.2 0 0 0 .6-.8 1.3 1.3 0 0 0-.7-1.3 1.3 1.3 0 0 0-2.2-.3 3.7 3.7 0 0 0-.9-.1h-.4a1.7 1.7 0 0 0-.7-.1 1.4 1.4 0 0 0-.7.1 1.6 1.6 0 0 0-.4 0 1.8 1.8 0 0 0-1-.3 1.7 1.7 0 0 0-.7.2 1.1 1.1 0 0 0-1-.7 1 1 0 0 0-.3-.2c0-.7-.9-1.2-2-1.2h.1a1.5 1.5 0 0 0-1.4-1z"/><path class="d" d="M503.4 60.7a.6.6 0 0 0-.6-.5.6.6 0 0 0-.6.4.8.8 0 0 0 0 .2 2.4 2.4 0 0 0-1.2-.2 4.6 4.6 0 0 0-.6 0 1 1 0 0 0-.5-.1.9.9 0 0 0-.6.2 1 1 0 0 0-.4-.1h-.2a1.2 1.2 0 0 0-.8-.3 1.2 1.2 0 0 0-.7.2 1 1 0 0 0-.2 0h-.2a.4.4 0 0 0 0-.1.5.5 0 0 0-.6-.5.6.6 0 0 0-.2 0 .3.3 0 0 0-.4-.2.4.4 0 0 0-.4-.3.3.3 0 0 0 .1-.2c0-.2-.5-.5-1.2-.5a2.6 2.6 0 0 0-.5 0 .9.9 0 0 0-1.7 0 1.7 1.7 0 0 0-.9-.2 1.4 1.4 0 0 0-1.5 1.2 1.1 1.1 0 0 0 .5 1 .5.5 0 0 0-.3.3.5.5 0 0 0 .5.5.4.4 0 0 0 .4.3h.1v.2H502a1.1 1.1 0 0 1 .2 0 1 1 0 0 0 .4 0 .7.7 0 0 0 .3 0 .6.6 0 0 0 .5-.2.3.3 0 0 0 .2-.1.6.6 0 0 0 .4-.4c0-.2-.2-.5-.6-.6z"/></g><g><path class="e" d="M466.7 49.7h24.6v5.6h-24.6z"/><path class="c" d="M491 50v5h-24v-5h24m.6-.6h-25.2v6.2h25.2v-6.2z"/><path class="s" d="M466.7 49.7h23.6v4.6h-23.6z"/><path class="t" d="M490 50v4h-23v-4h23m.6-.6h-24.2v5.2h24.2v-5.2z"/><path class="x" d="M469.5 50v4M472.5 50v4M475.5 50v4M478.5 50v4M481.5 50v4M484.5 50v4M487.5 50v4"/></g><path stroke-width=".6" stroke-miterlimit="10" stroke="#ddd" fill="none" d="M321 59.5h9"/><g><path class="j" d="M236.7 38.7h100.6v23.6H236.7z"/><path class="c" d="M337 39v23H237V39h100m.6-.6H236.4v24.2H337.6V38.4z"/><path class="k" d="M237 39h100v23H237z"/><path class="m" d="M237 39h99v23h-99z"/></g><g><path class="j" d="M323.7 38.7h13.6v16.6h-13.6V38.7z"/><path class="c" d="M337 39v16h-13V39h13m.6-.6h-14.2v17.2h14.2V38.4z"/><path class="k" d="M337 55h-13V39h13v16z"/></g><g><path class="q" d="M279.7 56.3v-4a3.6 3.6 0 0 1 3.6-3.6h.4a3.6 3.6 0 0 1 3.6 3.6v4z"/><path class="c" d="M283.7 49a3.3 3.3 0 0 1 3.3 3.3V56h-7v-3.7a3.3 3.3 0 0 1 3.3-3.3h.4m0-.6h-.4a3.9 3.9 0 0 0-3.9 3.9v4.3h8.2v-4.3a3.9 3.9 0 0 0-3.9-3.9z"/><path class="r" d="M281 52.5h6"/></g><g><path class="q" d="M286.7 56.3v-4a3.6 3.6 0 0 1 3.6-3.6h.4a3.6 3.6 0 0 1 3.6 3.6v4z"/><path class="c" d="M290.7 49a3.3 3.3 0 0 1 3.3 3.3V56h-7v-3.7a3.3 3.3 0 0 1 3.3-3.3h.4m0-.6h-.4a3.9 3.9 0 0 0-3.9 3.9v4.3h8.2v-4.3a3.9 3.9 0 0 0-3.9-3.9z"/><path class="r" d="M287 52.5h7"/></g><g><path class="e" d="M326.7 40.7h8.6v8.6h-8.6z"/><path class="c" d="M335 41v8h-8v-8h8m.6-.6h-9.2v9.2h9.2v-9.2z"/><path class="n" d="M327.7 40.7h6.6v7.6h-6.6z"/><path class="o" d="M334 41v7h-6v-7h6m.6-.6h-7.2v8.2h7.2v-8.2z"/><path class="p" d="M328.5 42v6M330.5 42v6M332.5 42v6M334 43.5h-7M334 46.5h-7"/></g><g><path class="q" d="M327.7 50.7h2.6v4.6h-2.6z"/><path class="c" d="M330 51v4h-2v-4h2m.6-.6h-3.2v5.2h3.2v-5.2z"/><path class="r" d="M330 51.5h-2"/></g><g><path class="q" d="M330.7 50.7h2.6v4.6h-2.6z"/><path class="c" d="M333 51v4h-2v-4h2m.6-.6h-3.2v5.2h3.2v-5.2z"/><path class="r" d="M333 51.5h-2"/></g><g><path class="e" d="M236.4 39.3v-.2l-.2-.4 12-6h77.9l13.1 6.6H236.4z"/><path class="c" d="M326 33l12 6H236.3l12-6H326m.1-.6h-78l-12 6 .2.7v.5h104.2l-2.3-1.2-11.9-6h-.1z"/></g><g><path class="l" d="M236.9 40.3l-1-1.6h103l-1.9 1.6H236.9z"/><path class="c" d="M338 39l-1.1 1H237l-.7-1H338m1.6-.6H235.3l.6 1 .6 1 .2.2h100.4l.2-.1 1.1-1 1.3-1.1z"/></g><g><path class="e" d="M265.7 40.7h20.6v7.6h-20.6z"/><path class="c" d="M286 41v7h-20v-7h20m.6-.6h-21.2v8.2h21.2v-8.2z"/><path class="s" d="M266.7 40.7h18.6v6.6h-18.6z"/><path class="t" d="M285 41v6h-18v-6h18m.6-.6h-19.2v7.2h19.2v-7.2z"/><path class="x" d="M269.5 42v5M272.5 42v5M275.5 42v5M279.5 42v5M282.5 42v5"/></g><g><path class="e" d="M288.7 40.7h20.6v7.6h-20.6z"/><path class="c" d="M309 41v7h-20v-7h20m.6-.6h-21.2v8.2h21.2v-8.2z"/><path class="s" d="M289.7 40.7h18.6v6.6h-18.6z"/><path class="t" d="M308 41v6h-18v-6h18m.6-.6h-19.2v7.2h19.2v-7.2z"/><path class="x" d="M292.5 42v5M295.5 42v5M298.5 42v5M302.5 42v5M305.5 42v5"/></g><g><path class="e" d="M253.7 40.7h4.6v6.6h-4.6z"/><path class="c" d="M258 41v6h-4v-6h4m.6-.6h-5.2v7.2h5.2v-7.2z"/><path class="s" d="M253.7 40.7h3.6v5.6h-3.6z"/><path class="t" d="M257 41v5h-3v-5h3m.6-.6h-4.2v6.2h4.2v-6.2z"/><path class="e" d="M253.7 47.7h4.6v6.6h-4.6z"/><path class="c" d="M258 48v6h-4v-6h4m.6-.6h-5.2v7.2h5.2v-7.2z"/><path class="s" d="M253.7 48.7h3.6v5.6h-3.6z"/><path class="t" d="M257 49v5h-3v-5h3m.6-.6h-4.2v6.2h4.2v-6.2z"/><g><path class="e" d="M259.7 40.7h4.6v6.6h-4.6z"/><path class="c" d="M264 41v6h-4v-6h4m.6-.6h-5.2v7.2h5.2v-7.2z"/><g><path class="s" d="M259.7 40.7h3.6v5.6h-3.6z"/><path class="t" d="M263 41v5h-3v-5h3m.6-.6h-4.2v6.2h4.2v-6.2z"/></g></g><g><path class="e" d="M259.7 47.7h4.6v6.6h-4.6z"/><path class="c" d="M264 48v6h-4v-6h4m.6-.6h-5.2v7.2h5.2v-7.2z"/><g><path class="s" d="M259.7 48.7h3.6v5.6h-3.6z"/><path class="t" d="M263 49v5h-3v-5h3m.6-.6h-4.2v6.2h4.2v-6.2z"/></g></g><g><path class="e" d="M309.7 40.7h4.6v6.6h-4.6z"/><path class="c" d="M314 41v6h-4v-6h4m.6-.6h-5.2v7.2h5.2v-7.2z"/><g><path class="s" d="M310.7 40.7h3.6v5.6h-3.6z"/><path class="t" d="M314 41v5h-3v-5h3m.6-.6h-4.2v6.2h4.2v-6.2z"/></g></g><g><path class="e" d="M309.7 47.7h4.6v6.6h-4.6z"/><path class="c" d="M314 48v6h-4v-6h4m.6-.6h-5.2v7.2h5.2v-7.2z"/><g><path class="s" d="M310.7 48.7h3.6v5.6h-3.6z"/><path class="t" d="M314 49v5h-3v-5h3m.6-.6h-4.2v6.2h4.2v-6.2z"/></g></g><g><path class="e" d="M315.7 40.7h4.6v6.6h-4.6z"/><path class="c" d="M320 41v6h-4v-6h4m.6-.6h-5.2v7.2h5.2v-7.2z"/><g><path class="s" d="M316.7 40.7h3.6v5.6h-3.6z"/><path class="t" d="M320 41v5h-3v-5h3m.6-.6h-4.2v6.2h4.2v-6.2z"/></g></g><g><path class="e" d="M315.7 47.7h4.6v6.6h-4.6z"/><path class="c" d="M320 48v6h-4v-6h4m.6-.6h-5.2v7.2h5.2v-7.2z"/><g><path class="s" d="M316.7 48.7h3.6v5.6h-3.6z"/><path class="t" d="M320 49v5h-3v-5h3m.6-.6h-4.2v6.2h4.2v-6.2z"/></g></g></g><g><path class="j" d="M344.7 34.7h28.6v27.6h-28.6z"/><path class="c" d="M373 35v27h-28V35h28m.6-.6h-29.2v28.2h29.2V34.4z"/></g><path class="k" d="M345 35h28v27h-28z"/><g><path class="b" d="M375.9 62.4a.7.7 0 0 1-.3-.1h-2.9v-3.4a1 1 0 0 1-.5-1 1.1 1.1 0 0 1 1.1-1.2 1.2 1.2 0 0 1 1.2 1.1.8.8 0 0 1 .3.4.8.8 0 0 1 .7.5.8.8 0 0 1 .3.2 1.2 1.2 0 0 1 .4-.1 1 1 0 0 1 1 .8.7.7 0 0 1 0 .2.8.8 0 0 1-.1 1.3.6.6 0 0 1-.6.6.7.7 0 0 1-.6.7z"/><path class="c" d="M373.3 57a.9.9 0 0 1 1 .9.8.8 0 0 1 0 .1.5.5 0 0 1 .3.5.4.4 0 0 1 .1 0 .5.5 0 0 1 .6.5.5.5 0 0 1 .4.2.9.9 0 0 1 .5-.1c.4 0 .7.2.7.5a.4.4 0 0 1-.2.3.6.6 0 0 1 .4.5.6.6 0 0 1-.4.6.3.3 0 0 1 0 .1c0 .2-.2.4-.5.4a.4.4 0 0 1 0 .1.4.4 0 0 1-.3.4H373v-3.3a.8.8 0 0 1-.5-.8.8.8 0 0 1 .8-.9m0-.6A1.4 1.4 0 0 0 372 58a1.4 1.4 0 0 0 .5 1.1v3.6h3.2a.8.8 0 0 0 .3 0 1 1 0 0 0 .9-.6.9.9 0 0 0 .6-.7 1.2 1.2 0 0 0 .3-.8 1.1 1.1 0 0 0-.2-.7.5.5 0 0 0 0-.2 1.2 1.2 0 0 0-1.3-1 1.6 1.6 0 0 0-.4 0 1.1 1.1 0 0 0-.8-.6.9.9 0 0 0-.2-.3 1.5 1.5 0 0 0-1.5-1.2z"/><path class="d" d="M372.5 58.1a.7.7 0 0 1 .6-.4.7.7 0 0 1 .7.8.4.4 0 0 1 .4.5.4.4 0 0 1 .5.4.4.4 0 0 1 .3.2.7.7 0 0 1 .5-.1c.3 0 .6.1.6.4a.3.3 0 0 1-.2.2.5.5 0 0 1 .3.5.5.5 0 0 1-.3.5c0 .2-.1.4-.4.4a.6.6 0 0 1 0 .2l-.1.3H373v-3.4c-.4-.1-.4-.3-.5-.5z"/></g><g><path class="e" d="M362.7 30.7h2.6v2.6h-2.6z"/><path class="c" d="M365 31v2h-2v-2h2m.6-.6h-3.2v3.2h3.2v-3.2z"/></g><g><path class="e" d="M365.7 30.7h2.6v2.6h-2.6z"/><path class="c" d="M368 31v2h-2v-2h2m.6-.6h-3.2v3.2h3.2v-3.2z"/></g><g><path class="l" d="M345 35.3l-1.3-1.6h31.2l-1.3 1.6H345z"/><path class="c" d="M374.3 34l-.8 1H345l-.8-1h30m1.2-.6h-32.4l.7 1 .8 1 .2.2h29l.2-.2.8-1 .7-1z"/></g><g><path class="e" d="M343.7 32.7h30.6v1.6h-30.6z"/><path class="c" d="M374 33v1h-30v-1h30m.6-.6h-31.2v2.2h31.2v-2.2z"/></g><g><path class="e" d="M363.7 37.7h8.6v8.6h-8.6z"/><path class="c" d="M372 38v8h-8v-8h8m.6-.6h-9.2v9.2h9.2v-9.2z"/><path class="n" d="M364.7 38.7h6.6v7.6h-6.6z"/><path class="o" d="M371 39v7h-6v-7h6m.6-.6h-7.2v8.2h7.2v-8.2z"/><path class="p" d="M366.5 39v7M368.5 39v7M370.5 39v7M371 41.5h-6M371 43.5h-6"/></g><g><path class="e" d="M354.7 37.7h8.6v8.6h-8.6z"/><path class="c" d="M363 38v8h-8v-8h8m.6-.6h-9.2v9.2h9.2v-9.2z"/><path class="n" d="M355.7 38.7h6.6v7.6h-6.6z"/><path class="o" d="M362 39v7h-6v-7h6m.6-.6h-7.2v8.2h7.2v-8.2z"/><path class="p" d="M357.5 39v7M359.5 39v7M360.5 39v7M362 41.5h-6M362 43.5h-6"/></g><g><path class="e" d="M345.7 37.7h8.6v8.6h-8.6z"/><path class="c" d="M354 38v8h-8v-8h8m.6-.6h-9.2v9.2h9.2v-9.2z"/><path class="n" d="M346.7 38.7h6.6v7.6h-6.6z"/><path class="o" d="M353 39v7h-6v-7h6m.6-.6h-7.2v8.2h7.2v-8.2z"/><path class="p" d="M348.5 39v7M349.5 39v7M351.5 39v7M353 41.5h-6M353 43.5h-6"/></g><g><path class="q" d="M355.7 62.3v-3.5a3.1 3.1 0 0 1 3-3.1h.5a3.1 3.1 0 0 1 3.1 3v3.6z"/><path class="c" d="M359.2 56a2.8 2.8 0 0 1 2.8 2.8V62h-6v-3.2a2.8 2.8 0 0 1 2.8-2.8h.4m0-.6h-.4a3.4 3.4 0 0 0-3.4 3.4v3.8h7.2v-3.8a3.4 3.4 0 0 0-3.4-3.4z"/><path class="r" d="M356 59.5h6"/></g><g><path class="e" d="M344.7 49.7h28.6v5.6h-28.6z"/><path class="c" d="M373 50v5h-28v-5h28m.6-.6h-29.2v6.2h29.2v-6.2z"/></g><g><path class="n" d="M344.7 55.3V53a2.8 2.8 0 1 1 5.6 0v2.3z"/><path class="o" d="M347.5 50a2.8 2.8 0 0 1 2.5 3v2h-5v-2a2.8 2.8 0 0 1 2.5-3m0-.6a3.4 3.4 0 0 0-3.1 3.6v2.6h6.2V53a3.4 3.4 0 0 0-3-3.6z"/></g><g><path class="n" d="M349.7 55.3V53a2.8 2.8 0 1 1 5.6 0v2.3z"/><path class="o" d="M352.5 50a2.8 2.8 0 0 1 2.5 3v2h-5v-2a2.8 2.8 0 0 1 2.5-3m0-.6a3.4 3.4 0 0 0-3.1 3.6v2.6h6.2V53a3.4 3.4 0 0 0-3-3.6z"/></g><g><path class="n" d="M353.7 55.3V53a2.8 2.8 0 1 1 5.6 0v2.3z"/><path class="o" d="M356.5 50a2.8 2.8 0 0 1 2.5 3v2h-5v-2a2.8 2.8 0 0 1 2.5-3m0-.6a3.4 3.4 0 0 0-3.1 3.6v2.6h6.2V53a3.4 3.4 0 0 0-3-3.6z"/></g><g><path class="n" d="M358.7 55.3V53a2.8 2.8 0 1 1 5.6 0v2.3z"/><path class="o" d="M361.5 50a2.8 2.8 0 0 1 2.5 3v2h-5v-2a2.8 2.8 0 0 1 2.5-3m0-.6a3.4 3.4 0 0 0-3.1 3.6v2.6h6.2V53a3.4 3.4 0 0 0-3-3.6z"/></g><g><path class="n" d="M363.7 55.3V53a2.8 2.8 0 1 1 5.6 0v2.3z"/><path class="o" d="M366.5 50a2.8 2.8 0 0 1 2.5 3v2h-5v-2a2.8 2.8 0 0 1 2.5-3m0-.6a3.4 3.4 0 0 0-3.1 3.6v2.6h6.2V53a3.4 3.4 0 0 0-3-3.6z"/></g><g><path class="n" d="M367.7 55.3V53a2.8 2.8 0 1 1 5.6 0v2.3z"/><path class="o" d="M370.5 50a2.8 2.8 0 0 1 2.5 3v2h-5v-2a2.8 2.8 0 0 1 2.5-3m0-.6a3.4 3.4 0 0 0-3.1 3.6v2.6h6.2V53a3.4 3.4 0 0 0-3-3.6z"/></g><path class="z" d="M179.1 28.1l2 2.4 3.3-2.4M449.4 32.6l2 2.4 3.3-2.4M443.2 29l1.4 1.6 2.2-1.6M11 54.3l1 1.1 1.6-1.1M7.9 52.5l.7.8 1-.8M12.4 49.7l.7.8 1-.8"/><g><path class="b" d="M242.2 56.5a.8.8 0 0 1-.5-.3.6.6 0 0 1-.3-.2.8.8 0 0 1-.5-.5.7.7 0 0 1 .1-.5 1 1 0 0 1 .5-.4.9.9 0 0 1 .8-.6.9.9 0 0 1 .8.5 3 3 0 0 1 1-.1 3.4 3.4 0 0 1 .4 0 1.1 1.1 0 0 1 .5-.2 1.1 1.1 0 0 1 .6.2 1.2 1.2 0 0 1 .4 0 1.5 1.5 0 0 1 1.6-.1h.1a.8.8 0 0 1 .8-.6.6.6 0 0 1 .3-.2.9.9 0 0 1 .2-.2c0-.4.6-.8 1.4-.8h.2a1 1 0 0 1 1-.8 1.1 1.1 0 0 1 1 .6 1.7 1.7 0 0 1 .7 0 1.6 1.6 0 0 1 1.7 1.5 1.6 1.6 0 0 1-.3.9.7.7 0 0 1 .2.4.8.8 0 0 1-.5.8.7.7 0 0 1-.5.3H243l-.1.1h-.4a1 1 0 0 1-.4 0z"/><path class="c" d="M251.7 52a.8.8 0 0 1 .8.7 1.4 1.4 0 0 1 .8-.2 1.4 1.4 0 0 1 1.4 1.3 1.3 1.3 0 0 1-.4.9.5.5 0 0 1 .3.4.5.5 0 0 1-.4.5.4.4 0 0 1-.4.3H243l-.2.1h-.4a.6.6 0 0 1-.2 0 .6.6 0 0 1-.4-.1.3.3 0 0 1-.3-.2.6.6 0 0 1-.4-.3c0-.3.2-.6.5-.7a.6.6 0 0 1 .6-.5.6.6 0 0 1 .6.4 1 1 0 0 1 0 .2 2 2 0 0 1 1.2-.3 2.7 2.7 0 0 1 .5 0 .8.8 0 0 1 .4 0 .8.8 0 0 1 .6.1 1 1 0 0 1 .4 0h.2a1 1 0 0 1 .7-.3 1 1 0 0 1 .7.2 1 1 0 0 1 .2 0h.2a.5.5 0 0 1 0-.1.4.4 0 0 1 0-.1.5.5 0 0 1 .7-.4.3.3 0 0 1 .4-.3.4.4 0 0 1 .3-.2.3.3 0 0 1 0-.2c0-.3.5-.6 1-.6a2.3 2.3 0 0 1 .5 0 .8.8 0 0 1 .8-.7m0-.6a1.4 1.4 0 0 0-1.2.7c-1 0-1.6.5-1.7 1a1 1 0 0 0-.3.2 1.1 1.1 0 0 0-.9.6 1.8 1.8 0 0 0-1.6.2 1.3 1.3 0 0 0-.3 0 1.4 1.4 0 0 0-.7-.1 1.5 1.5 0 0 0-.6 0l-.4.1a3.6 3.6 0 0 0-.8 0 1.2 1.2 0 0 0-1-.3 1.2 1.2 0 0 0-1 .6 1.4 1.4 0 0 0-.5.5 1 1 0 0 0-.1.8 1.1 1.1 0 0 0 .6.7 1 1 0 0 0 .3.2 1.2 1.2 0 0 0 .7.3 1.3 1.3 0 0 0 .3-.1 1.7 1.7 0 0 0 .5 0 .7.7 0 0 0 .2 0H254v-.2a1 1 0 0 0 .4-.4 1 1 0 0 0 .6-1 1 1 0 0 0 0-.4 1.8 1.8 0 0 0 .1-1 2 2 0 0 0-2-1.8 2.2 2.2 0 0 0-.5 0 1.5 1.5 0 0 0-1-.5z"/><path class="d" d="M242 55a.5.5 0 0 1 .6-.4.6.6 0 0 1 .5.3 1.4 1.4 0 0 1 0 .2 2.4 2.4 0 0 1 1.1-.2 3.7 3.7 0 0 1 .5 0 .9.9 0 0 1 .5-.1.8.8 0 0 1 .5.1 1 1 0 0 1 .4 0h.2a1.1 1.1 0 0 1 .7-.3 1.2 1.2 0 0 1 .6.2h.4c0-.3.2-.4.5-.4a.7.7 0 0 1 .2 0 .3.3 0 0 1 .3-.3.4.4 0 0 1 .4-.1.2.2 0 0 1-.1-.2c0-.2.4-.4 1-.4a3.1 3.1 0 0 1 .5 0 .7.7 0 0 1 .8-.6.7.7 0 0 1 .7.6 1.7 1.7 0 0 1 .8-.2 1.2 1.2 0 0 1 1.4 1 1 1 0 0 1-.4.7.4.4 0 0 1 .2.3.4.4 0 0 1-.4.4.3.3 0 0 1-.4.3h-.1v.1h-10a1.6 1.6 0 0 0-.2 0 1 1 0 0 1-.4 0 .6.6 0 0 1-.2 0 .5.5 0 0 1-.4-.1.3.3 0 0 1-.2-.2.5.5 0 0 1-.4-.3c-.2-.1 0-.4.4-.4z"/></g><path class="z" d="M465.6 25l.9 1 1.4-1"/><g><path class="b" d="M316.8 62.3a.6.6 0 0 1-.6-.3.7.7 0 0 1-.4-.6.7.7 0 0 1 .1-.4 1.3 1.3 0 0 1 1.2-2 1.5 1.5 0 0 1 .4 0 1 1 0 0 1 .8-.4.9.9 0 0 1 .8.6h.3a.7.7 0 0 1 .2 0 .8.8 0 0 1 .6.2.8.8 0 0 1 .3 0 1 1 0 0 1 1.1 1 1.2 1.2 0 0 1-.1.6.6.6 0 0 1 0 .2.7.7 0 0 1 0 .3.5.5 0 0 1 .1.3.6.6 0 0 1-.3.5H316.9z"/><path class="c" d="M318.3 58.9a.6.6 0 0 1 .6.6 1.9 1.9 0 0 1 .3 0h.2a.4.4 0 0 1 .3-.1.4.4 0 0 1 .4.4.7.7 0 0 1 .4-.2.8.8 0 0 1 .8.8.8.8 0 0 1-.2.5.3.3 0 0 1 .1.3.3.3 0 0 1-.1.3.3.3 0 0 1 .2.2.3.3 0 0 1-.3.3H316.8a.3.3 0 0 1-.3-.3.4.4 0 0 1-.4-.4.4.4 0 0 1 .2-.3 1 1 0 0 1 .8-1.8 1.1 1.1 0 0 1 .6.2.6.6 0 0 1 .6-.5m0-.6a1.2 1.2 0 0 0-1 .4 1.6 1.6 0 0 0-1.7 2.3 1 1 0 0 0 0 .4 1 1 0 0 0 .4.8.9.9 0 0 0 .3.3h5.3v-.1a.8.8 0 0 0 .3-.7.8.8 0 0 0 0-.3 1.6 1.6 0 0 0 0-.3 1.3 1.3 0 0 0 0-.2 1.5 1.5 0 0 0 0-.6 1.4 1.4 0 0 0-1.3-1.3h-.2a1 1 0 0 0-.7-.3 1 1 0 0 0-.4.1 1.2 1.2 0 0 0-1-.6z"/><path class="d" d="M321.1 61.6a.2.2 0 0 0 .2-.2.2.2 0 0 0-.2-.2.6.6 0 0 0 .2-.5.7.7 0 0 0-.7-.6.7.7 0 0 0-.4.2.4.4 0 0 0-.5-.3.4.4 0 0 0-.2 0h-.2a1.7 1.7 0 0 0-.3 0 .6.6 0 0 0-1.1 0 1.1 1.1 0 0 0-.6-.1 1 1 0 0 0-1 .8.8.8 0 0 0 .3.6.3.3 0 0 0-.2.2.3.3 0 0 0 .3.3.3.3 0 0 0 .3.2h4c.1 0 .3 0 .3-.2s0-.2-.2-.2z"/></g><g><path class="s" d="M287.1 37.2c-2.4 0-6.4-.3-6.4-1.6s4-1.5 6.4-1.5 6.4.3 6.4 1.5-4 1.6-6.4 1.6z"/><path class="t" d="M287.1 34.4c3.4 0 6.1.5 6.1 1.2s-2.7 1.3-6 1.3-6.2-.5-6.2-1.3 2.7-1.2 6.1-1.2m0-.6c-1.6 0-6.7.1-6.7 1.8s5.1 2 6.7 2 6.7-.2 6.7-2-5.1-1.8-6.7-1.8z"/></g><path class="c" d="M253 56h69v1h-69z"/><path class="aa" d="M253 58h69v1h-69z"/><path class="c" d="M253 59h69v1h-69z"/><path class="aa" d="M253 60h69v1h-69z"/><path class="c" d="M253 61h69v1h-69z"/><g><path class="j" d="M236.7 38.7h13.6v16.6h-13.6V38.7z"/><path class="c" d="M250 39v16h-13V39h13m.6-.6h-14.2v17.2h14.2V38.4z"/><path class="k" d="M250 55h-13V39h13v16z"/></g><g><path class="j" d="M236.7 54.7h17.6v7.6h-17.6z"/><path class="c" d="M254 55v7h-17v-7h17m.6-.6h-18.2v8.2h18.2v-8.2z"/></g><path class="k" d="M237 55h17v7h-17z"/><g><path class="e" d="M238.7 40.7h8.6v8.6h-8.6z"/><path class="c" d="M247 41v8h-8v-8h8m.6-.6h-9.2v9.2h9.2v-9.2z"/><path class="n" d="M239.7 40.7h6.6v7.6h-6.6z"/><path class="o" d="M246 41v7h-6v-7h6m.6-.6h-7.2v8.2h7.2v-8.2z"/><path class="p" d="M241.5 42v6M243.5 42v6M245.5 42v6M246 43.5h-6M246 46.5h-6"/></g><g><path class="q" d="M245.7 50.7h2.6v4.6h-2.6z"/><path class="c" d="M248 51v4h-2v-4h2m.6-.6h-3.2v5.2h3.2v-5.2z"/><path class="r" d="M248 51.5h-2"/></g><g><path class="q" d="M241.7 50.7h2.6v4.6h-2.6z"/><path class="c" d="M244 51v4h-2v-4h2m.6-.6h-3.2v5.2h3.2v-5.2z"/><path class="r" d="M244 51.5h-2"/></g><g><path class="q" d="M237.7 50.7h2.6v4.6h-2.6z"/><path class="c" d="M240 51v4h-2v-4h2m.6-.6h-3.2v5.2h3.2v-5.2z"/><path class="r" d="M240 51.5h-2"/></g><g><path class="b" d="M236.7 62.3v-4.2a.5.5 0 0 0 0-.1 1 1 0 0 1-.1-.4 1.4 1.4 0 0 1 1.4-1.4 1.4 1.4 0 0 1 1.4 1.4v.2h.2a1.5 1.5 0 0 1 1.7 1.3 1.1 1.1 0 0 1 0 .3 1.1 1.1 0 0 1 .6-.2 1.3 1.3 0 0 1 1.1.8 2.4 2.4 0 0 1 1-.2 3.1 3.1 0 0 1 .4 0 1 1 0 0 1 .5-.1 1 1 0 0 1 .6.2 1.1 1.1 0 0 1 .4 0h.1a1.2 1.2 0 0 1 .8-.4 1.3 1.3 0 0 1 .8.2h.1a1 1 0 0 1 .7.3.7.7 0 0 1 .5-.1.7.7 0 0 1 .6.6.8.8 0 0 1 0 .3 1.3 1.3 0 0 1 .1.3v.1a.8.8 0 0 1 0 .3 1 1 0 0 1 0 .4l.2.4z"/><path class="c" d="M238 56.5a1.1 1.1 0 0 1 1 1 1 1 0 0 1-.1.7 1.7 1.7 0 0 1 .7-.2 1.2 1.2 0 0 1 1.3 1 .8.8 0 0 1-.1.5.8.8 0 0 1 .4.3.9.9 0 0 1 .7-.4 1 1 0 0 1 1 1 1.6 1.6 0 0 1 1-.3 2.1 2.1 0 0 1 .6 0 .7.7 0 0 1 .4-.1.7.7 0 0 1 .6.3.8.8 0 0 1 .4-.2h.2a.9.9 0 0 1 .7-.3.9.9 0 0 1 .7.3 1 1 0 0 1 .2 0 .7.7 0 0 1 .6.3.6.6 0 0 1 .2 0 .4.4 0 0 1 .4-.2.4.4 0 0 1 .3.4.3.3 0 0 1 0 .2.8.8 0 0 1 0 .3.4.4 0 0 1 0 .2.5.5 0 0 1 .1.3.6.6 0 0 1 0 .3v.2H237v-4l-.2-.5a1 1 0 0 1 1.1-1.1m0-.6a1.7 1.7 0 0 0-1.7 1.7 1.2 1.2 0 0 0 .2.5v4.5H250l-.3-.7a1.4 1.4 0 0 0 0-.4 1 1 0 0 0 0-.4 1.4 1.4 0 0 0 0-.4 1.2 1.2 0 0 0 0-.2 1 1 0 0 0-1-1 1 1 0 0 0-.4.1 1.2 1.2 0 0 0-.7-.2h-.1a1.5 1.5 0 0 0-.8-.2 1.4 1.4 0 0 0-1 .3 1.2 1.2 0 0 0-.2 0 1.3 1.3 0 0 0-.7-.2 1.4 1.4 0 0 0-.6.1 2.3 2.3 0 0 0-.4 0 2.9 2.9 0 0 0-.8.2 1.5 1.5 0 0 0-1.2-.8 1.6 1.6 0 0 0-.4 0 1.8 1.8 0 0 0-1.9-1.4 1.7 1.7 0 0 0-1.7-1.6z"/><g class="h"><path class="i" d="M249.3 61.6a.3.3 0 0 0-.1-.2.5.5 0 0 0 0-.2.5.5 0 0 0-.1-.2.2.2 0 0 0 0-.2c0-.1-.1-.3-.3-.3a.4.4 0 0 0-.3.2h-.3a.7.7 0 0 0-.8-.3 1 1 0 0 0-.7-.2 1 1 0 0 0-.7.3h-.1a1 1 0 0 0-.5 0 .8.8 0 0 0-.5-.1.8.8 0 0 0-.5.1 2.8 2.8 0 0 0-.5 0 2 2 0 0 0-1.1.2 1 1 0 0 0-1.6-.4.7.7 0 0 0-.5-.3.6.6 0 0 0 .2-.3c0-.5-.6-.8-1.4-.8a2 2 0 0 0-.7 0 .7.7 0 0 0 .2-.4c0-.5-.5-.9-1.1-.9a1 1 0 0 0-1 .9V62h12.3v-.1a.4.4 0 0 0 0-.3z"/></g></g><g><path class="j" d="M271.7 38.7h4.6v17.6h-4.6z"/><path class="c" d="M276 39v17h-4V39h4m.6-.6h-5.2v18.2h5.2V38.4z"/><path class="k" d="M272 39h4v17h-4z"/><path class="j" d="M272.7 38.7h2.6v17.6h-2.6z"/><path class="c" d="M275 39v17h-2V39h2m.6-.6h-3.2v18.2h3.2V38.4z"/><path class="k" d="M273 39h2v17h-2z"/><path class="m" d="M275 39h1v17h-1zM272 39h1v17h-1z"/><g><path class="j" d="M297.7 38.7h4.6v17.6h-4.6z"/><path class="c" d="M302 39v17h-4V39h4m.6-.6h-5.2v18.2h5.2V38.4z"/><path class="k" d="M298 39h4v17h-4z"/><path class="j" d="M298.7 38.7h2.6v17.6h-2.6z"/><path class="c" d="M301 39v17h-2V39h2m.6-.6h-3.2v18.2h3.2V38.4z"/><path class="k" d="M299 39h2v17h-2z"/><path class="m" d="M301 39h1v17h-1zM298 39h1v17h-1z"/></g><path class="m" d="M276 39h1v17h-1zM297 39h1v17h-1z"/></g><g><path class="j" d="M319.7 54.7h17.6v7.6h-17.6z"/><path class="c" d="M337 55v7h-17v-7h17m.6-.6h-18.2v8.2h18.2v-8.2z"/></g><path class="k" d="M320 55h17v7h-17z"/><g><path class="b" d="M334.8 62.5a1 1 0 0 1-.6-.3.7.7 0 0 1-.3-.3.9.9 0 0 1-.5-.5 1 1 0 0 1 .6-1.1 1 1 0 0 1 1.8-.1 3 3 0 0 1 1-.2 4.1 4.1 0 0 1 .6 0 1.2 1.2 0 0 1 .5-.2 1.2 1.2 0 0 1 .7.3 1.2 1.2 0 0 1 .4-.1h.1a1.4 1.4 0 0 1 .9-.3 1.4 1.4 0 0 1 .8.2h.2a.8.8 0 0 1 .8-.7.7.7 0 0 1 .4-.3 1 1 0 0 1 .2-.1v-.1c0-.6.7-1 1.6-1h.2a1.2 1.2 0 0 1 1.2-.9 1.2 1.2 0 0 1 1 .8 1.8 1.8 0 0 1 .8-.2 1.9 1.9 0 0 1 1.9 1.9 1.9 1.9 0 0 1-.4 1 .9.9 0 0 1-.3 1.4.8.8 0 0 1-.6.5H336a1 1 0 0 1-.2.1 1.6 1.6 0 0 1-.3 0h-.2a1.3 1.3 0 0 1-.3 0z"/><path class="c" d="M345.4 57.2a.9.9 0 0 1 1 .8 1.5 1.5 0 0 1 .8-.3 1.6 1.6 0 0 1 1.2 2.7.6.6 0 0 1 .3.5.6.6 0 0 1-.5.6.5.5 0 0 1-.5.4h-.1v.1h-11.8l-.2.1a.8.8 0 0 1-.2 0h-.2a.7.7 0 0 1-.3 0 .6.6 0 0 1-.5-.1.4.4 0 0 1-.2-.3.6.6 0 0 1-.5-.4.7.7 0 0 1 .6-.8.6.6 0 0 1 1.2-.2 1 1 0 0 1 .1.3 2.1 2.1 0 0 1 1.3-.3 3.4 3.4 0 0 1 .6 0 .9.9 0 0 1 .5 0 .8.8 0 0 1 .6.2 1 1 0 0 1 .5-.1.7.7 0 0 1 .2 0 1.1 1.1 0 0 1 .7-.4 1.1 1.1 0 0 1 .7.3.8.8 0 0 1 .3 0h.2v-.1a.6.6 0 0 1 0-.2.5.5 0 0 1 .6-.5.6.6 0 0 1 .2 0 .4.4 0 0 1 .4-.3.4.4 0 0 1 .4-.2.4.4 0 0 1 0-.3c0-.4.5-.6 1.2-.6a2.2 2.2 0 0 1 .5 0 .9.9 0 0 1 .9-1m0-.5a1.5 1.5 0 0 0-1.4.9c-1 0-1.8.4-1.8 1.1h-.1a1 1 0 0 0-.3.3 1.1 1.1 0 0 0-1 .7 1.7 1.7 0 0 0-.8-.2 1.8 1.8 0 0 0-1 .3 1.6 1.6 0 0 0-.3 0 1.5 1.5 0 0 0-.8-.2 1.6 1.6 0 0 0-.6.2h-.5a3.8 3.8 0 0 0-.9 0 1.2 1.2 0 0 0-1-.4 1.2 1.2 0 0 0-1.1.8 1.2 1.2 0 0 0-.7 1.3 1.2 1.2 0 0 0 .6.8 1 1 0 0 0 .4.2 1.2 1.2 0 0 0 .7.3 1.1 1.1 0 0 0 .5 0 1.7 1.7 0 0 0 .5 0H348v-.3a1 1 0 0 0 .5-.4 1.2 1.2 0 0 0 .7-1 1.1 1.1 0 0 0-.2-.6 2.2 2.2 0 0 0-1.9-3.2 2.3 2.3 0 0 0-.5 0 1.5 1.5 0 0 0-1.3-.6z"/><path class="d" d="M334.5 60.7a.6.6 0 0 1 .7-.5.6.6 0 0 1 .5.4.6.6 0 0 1 .1.2 2.5 2.5 0 0 1 1.2-.2 4.7 4.7 0 0 1 .6 0 1 1 0 0 1 .5-.1.9.9 0 0 1 .5.2 1.1 1.1 0 0 1 .5-.1h.2a1.2 1.2 0 0 1 .8-.3 1.2 1.2 0 0 1 .7.2 1 1 0 0 1 .2 0h.2a.4.4 0 0 1 0-.1.5.5 0 0 1 .6-.5.5.5 0 0 1 .2 0 .3.3 0 0 1 .4-.2.5.5 0 0 1 .3-.3.3.3 0 0 1 0-.2c0-.2.5-.5 1.2-.5a2.6 2.6 0 0 1 .5 0 .8.8 0 0 1 .8-.7.8.8 0 0 1 .9.7 1.7 1.7 0 0 1 .9-.2 1.4 1.4 0 0 1 1.5 1.2 1.1 1.1 0 0 1-.5.9.5.5 0 0 1 .3.4.5.5 0 0 1-.5.5.4.4 0 0 1-.4.3h-.1v.2H336a1 1 0 0 0-.2 0 1.1 1.1 0 0 1-.4 0 .6.6 0 0 1-.3 0 .6.6 0 0 1-.5-.2.3.3 0 0 1-.2-.1.6.6 0 0 1-.4-.4c0-.2.2-.5.5-.6z"/></g></g></svg>