<?xml version="1.0" encoding="utf-8"?><svg xmlns="http://www.w3.org/2000/svg" xmlns:xlink="http://www.w3.org/1999/xlink" width="1200" height="1200" viewBox="0 0 1200 1200"><title>Hello kitty Ninja - free.arinco.org</title><a xlink:href="http://free.arinco.org/mail/sanriotown/"><path fill-rule="evenodd" clip-rule="evenodd" d="M1091.51 857.076c-16.344-1.535-34.248-2.885-49.285-3.996-4.05-.834-11.47 1.707-13.32-1.33-4.05-.838-11.47 1.705-13.318-1.334.293-1.037 1.115-1.55 2.664-1.332 22.24-18.127 50.065-32.42 73.26-47.95 7.466-5 19.366-10.864 19.98-21.312-39.132-5.254-76.28 14.195-113.22 19.98 10.328-16.612 24.775-29.507 37.297-43.958 12.514-14.44 27.568-28.453 34.63-47.95-13.036-3.118-27.657 5.403-39.958 11.987-11.864 6.35-23.585 14.44-35.966 21.312-18.96 10.523-58.967 29.41-69.266 46.62-5.744 9.605-3.693 22.325-13.318 29.304-5.73-43.11-36.54-61.14-82.584-63.936-17.215-12.09-39.096-19.512-58.607-29.303 59.878-6.72 112.84-20.36 150.515-49.285 11.158 8.723 24.05 13.428 39.96 25.31 11.24 8.392 23.884 30.017 38.628 26.638 5.344-1.223 9.14-7.814 9.324-11.986.56-12.66-19.18-24.158-29.305-31.97-13.375-10.317-24.238-18.315-37.295-25.306 10.494-10.818 19.463-23.162 29.303-34.635 9.793 5.012 21.855 8.89 35.965 15.986 11.766 5.913 25.398 19.163 35.965 14.65 25.693-10.976-10.105-30.34-21.313-35.964-14.02-7.037-26.307-12.275-37.297-18.65 7.24-13.624 11.512-30.223 18.648-43.955 19.11 5.448 36.398 8.378 57.275 15.985 9.854 3.59 47.102 26.628 47.953 1.332.514-15.275-30.482-23.096-43.957-27.972-20.84-7.542-38.37-9.337-55.944-15.983 4.313-17.89 5.4-39 7.992-58.608v-13.32-17.316c1.037-9.03-1.82-14.166-1.332-22.645v-6.66c3.168-3.937 7.87-6.336 11.988-9.324 1.336.004 1.586-1.08 2.664-1.332 5.885-4.77 11.213-10.1 15.982-15.984-.002-1.336 1.08-1.585 1.332-2.664 19.443-32.026 63.676-69.037 54.613-119.88-5.977-33.526-34.014-50.036-61.27-65.268-3.085-5.352-.464-16.41-1.333-23.976-.207-18-6.732-29.677-13.32-41.293-5.12-5.536-10.447-10.864-15.984-15.984-10.867-6.45-23.72-10.913-38.63-13.32h-19.98c-25.91 3.39-47.753 10.852-70.595 17.315-4.648-17.996-14.965-30.324-23.977-43.957-5.21-5-11.395-9.03-15.982-14.652-15.38-9.042-28.777-20.063-50.617-22.644-1.984-3.833-14.928-3.66-18.648-1.333-14.93 2.83-26.728 8.792-37.296 15.983-4.328 5.44-9.21 10.325-14.652 14.652-9.65 11.66-16.13 26.496-27.973 35.964-36.72-9.014-75.608-15.856-118.55-18.65-8.568-.31-15.62-2.14-25.308-1.33-4.922-.85-13.27 1.724-15.983-1.334-42.955-29.862-82.546-63.087-139.86-78.588h-9.325c-59.762 15.72-78.793 72.167-86.58 139.86-1.384 11.747-1.384 21.553 0 33.3-.687 11.515 5.927 21.648-2.665 26.64-13.62-3.618-25.246-17-38.63-27.972-12.12-9.94-24.357-21.143-37.294-31.968-26.202-21.923-52.74-49.747-89.244-49.284-33.45.424-53.665 25.378-61.272 57.277v9.324c11.852 49.393 52.988 73.56 89.245 103.896 24.976 20.898 50.992 39.826 71.928 59.94-1.828 8.828-5.01 16.302-5.328 26.64-13.69-.96-25.465-3.838-39.96-3.995-13.76-1.447-26.2-1.447-39.96 0-19.126-2.757-21.514 21.56-7.992 26.64h43.956c13.327-.007 25.83.81 35.964 3.997.293 1.038 1.115 1.55 2.664 1.332v37.296H172.43c-4.485.843-12.373-1.716-14.653 1.332-30.712-8.19-40.014 35.863-2.664 27.972 5.352-3.083 16.41-.46 23.976-1.332H221.713c2.654 12.887 4.69 26.39 7.993 38.628-14.723 3.385-29.495 7.466-46.62 11.988-13.806 3.645-37.613 4.453-38.63 18.648-2.4 33.537 76.976-9.976 94.574-2.664-.163 5.935 3.286 8.258 3.996 13.32-17.124 2.413-31.39 7.684-42.624 15.984-3.882 4.998-8.322 9.438-13.32 13.32-8.057 12.81-16.632 25.103-18.647 43.956-2.24 8.063-1.48 19.744 0 27.973 6.012 37.943 26 61.91 45.288 86.58 5.885 4.77 11.213 10.1 15.984 15.982 20.132 20.273 38.808 42.002 63.936 57.277-29.29 38.643-61.503 74.36-65.27 138.53v27.972c2.81 38.928 16.45 67.023 34.633 90.576 4.998 3.88 9.438 8.32 13.32 13.32 18.19 13.777 38.112 25.822 67.932 27.97h18.648c30.69-1.278 53.943-17.093 71.93-26.64-.26 6.402-.64 12.684-2.666 17.316v25.31c10.77 72.7 74.546 92.397 150.517 99.9h18.648c115.047-7.944 161.63-84.347 162.504-206.462 3.22-13.492-.25-34.754 2.665-46.62.137-.563 3.496.57 2.664 1.333 15.267 6.483 30.91 12.6 49.282 15.98-.182 2.022 19.78 2.356 23.977 0 37.14-7.702 59.384-30.3 70.595-63.935 2.52-2.363 8.797-.97 13.32-1.332 3.168-2.213 15.48-2.213 18.648 0 13.934 2.26 23.604 16.213 38.627 17.316 10.56.774 24.352-6.608 37.297-10.657 12.936-4.047 26.693-7.613 38.63-10.656 28.18-7.188 55.306-12.08 73.257-23.977-6.77-11.872-25.493-10.497-41.294-11.984zm-181.153-6.66c7.438-7.215 13.428-15.875 27.97-15.984-3.598 11.052-17.567 11.734-27.97 15.984zm35.965 19.98c-6.848 2.03-14.813 2.95-23.977 2.664 3.05-4.498 9.758-5.338 15.982-6.66 1.486-2.676 10.305-1.527 11.99 0-.745 1.92-2.077 3.25-3.995 3.996z"/><path fill-rule="evenodd" clip-rule="evenodd" fill="#FFF" d="M251.016 686.58c-4.52 4.807-7.918 10.73-14.652 13.32-.59-1.186-1.17-2.383-2.665-2.664v-1.332c-18.626-20.002-35.72-41.537-41.293-74.592-2.214-4.482-2.214-18.162 0-22.645 5.133-27.722 19.436-46.276 47.952-50.616 1.865-2.206 12.786-2.206 14.65 0 16.166 8.203 27.25-2.437 42.626-5.327 13.75-2.584 26.79-1.254 27.972 14.652 3.096 8.892.453 23.523 1.333 34.632 1.965 5.14 4.288 9.92 5.33 15.984-8.77 9.882-18.094 19.204-27.973 27.974-1.08.252-1.328 1.336-2.664 1.33-5.66 6.773-11.875 12.99-18.648 18.648-8.77 9.88-18.093 19.205-27.973 27.973-1.75.472-2.096 2.347-3.996 2.665zM885.05 899.7c-1.57.208-3.782-.23-3.997 1.333-4.484.844-12.37-1.717-14.652 1.33-13.827 33.127-57.597 7.547-50.614-22.643 2.623-11.34 19.7-19.936 34.633-13.32 9.677-8.97 21.722-15.572 30.634-25.307 9.037-.31 9.855-15.87 6.662-23.98-4.41-27.558-26.06-37.876-55.945-39.958-22.66 25.734-44.194 52.598-65.267 79.92-5.42.4-5.088 13.502-2.666 17.318-.496 15.592 2.498 27.695 2.666 42.623 15.633 7.898 29.074 17.988 50.615 19.98 5.363 2.215 19.945 2.215 25.31 0 22.35-3.44 39.386-19.162 42.62-37.295zm78.59-309.024c5.733-13.357 14.222-23.96 17.313-39.96-17.555-2.674-44.484 1.595-43.955-15.984.197-6.515 2.986-9.313 9.324-11.988.592-3.848 10.063 1.184 10.654-2.664C762.39 434.504 540.058 376.667 280.32 356.244c-4.03-3.074-13.74-.47-19.98-1.332-1.936.73-6.885-1.557-6.66 1.332 3.73.708 6.925 1.955 10.655 2.664 14.09 6.19 38.808 3.85 38.63 21.312-.268 25.97-43.236 1.732-62.606 0v18.648c3.07 3.59.473 12.847 1.332 18.648 14.88 4.278 33.94 1.86 34.63 17.316.697 15.548-15.744 14.167-33.3 10.656 2.228 11.094 3.917 22.724 6.66 33.3 17.73-4.948 35.753-3.172 34.633 11.988-1.036 14.035-16.555 8.887-26.64 15.984 2.56 11.433 15.907 5.865 22.644 5.328 67.285-5.367 204.2-23.043 204.44-23.205 3.216-2.155 10.76.02 15.34-.77h35.963c4.485.843 12.373-1.717 14.652 1.33 159.968 12.302 222.772 121.776 331.67 185.15 5.647-3.675 13.34-5.31 15.983-11.987-8.295-4.854-15.123-4.484-15.984-14.652-1.973-23.293 28.2-11.69 39.96-2.666 8.524-10.566 19.814-18.37 25.308-31.967-11.08-6.757-27.97-5.15-27.97-19.98 0-22.023 29.595-8.912 43.957-2.664z"/><path fill="#AEACAE" d="M1104.83 782.484c-29.865 24.303-64.818 43.518-97.236 65.268-2.203 3.127-7.77 2.887-13.32 2.664h-13.32c-10.43-2.826-16.928 8.994-25.307 10.658-5.303 1.053-12.2-1.87-17.318-1.334-22.978 2.408-43.325 24.076-74.593 17.316 20.09-15.727 51.926-14.465 73.262-30.635 8.386-6.356 10.226-20.204 18.647-26.64 8.125-6.21 23.832-7.102 35.965-10.656 35.574-10.423 72.263-21.573 113.218-26.64zM855.746 871.73c39.346-4.167 48.053-38.972 86.58-43.956 7.273-15.816 26.525-19.648 45.287-23.977 22.55-32.064 51.287-57.938 74.592-89.244 1.04-.295 1.55-1.117 1.334-2.664-49.272 21.325-92.59 48.604-134.534 77.255-4.83 47.117-51.768 52.128-73.26 82.584zm190.475-11.99c-6.235-3.088-18.187-.46-26.64-1.332h-47.953c-13.93 6.05-18.118 21.84-39.958 19.98-1.847 3.04-9.272.496-13.32 1.332-20.353.072-38.034 2.816-57.276 3.996-7.936-15.58-37.13-20.158-39.963 0-3.16 22.525 30.907 42.826 38.632 15.984-1.617-6.945 5.488-5.168 10.654-5.328 6.238-3.088 18.19-.46 26.64-1.332 13.105.672 22.15-2.715 34.634-2.664 1.436-2.203 11.885-2.203 13.32 0 14.814 1.877 24.596 17.654 39.96 18.648 8.604.557 23.34-7.04 34.63-10.656 35.537-11.385 76.574-18.31 105.23-30.637-23.285-5.572-50.525-7.19-78.59-7.99z"/><path fill-rule="evenodd" clip-rule="evenodd" fill="#3A3A3C" d="M1012.922 185.747c-26.348-3.906-53.69.872-71.928 9.324-13.83-14.586-26.918-29.913-51.95-33.3 1.048-6.817-1.866-9.675-1.33-15.983 39.388-20.996 136.446-35.547 125.208 39.96zM95.172 161.77c2.052 13.554 12.597 22.226 21.31 31.97 16.306-20.105 33.586-39.232 49.286-59.94-25.243-25.32-76.898-13.628-70.597 27.97zm57.275 62.605c12.723 9.034 23.85 19.663 35.964 29.304 16.306-20.104 33.586-39.23 49.285-59.94-13.13-9.07-23.36-21.042-37.296-29.305-14.722 21.243-33.473 38.456-47.953 59.94zM759.84 823.777c13.287-19.572 29.902-35.813 42.627-55.945-18.896-6.86-38.613-19.99-58.61-21.313 7.108 23.972 8.508 53.652 15.983 77.257zM348.252 627.97c-30.693 29.25-62.243 57.642-90.576 89.247 17.418 15.438 32.025 33.686 53.28 45.287 32.335-32.932 62.947-67.59 94.572-101.232-19.945-10.247-37.866-22.518-57.276-33.3zm23.976 109.227c-5.712 6.238-15.058 14.957-13.32 19.98 94.563-15.158 144.894 48.033 150.517 126.54 6.468 90.304-51.104 130.34-50.616 202.464.464 68.753 81.374 88.755 147.85 83.917 48.12-3.502 91.575-29.31 110.558-67.932 11.418-23.232 14.164-53.742 17.316-85.248 10.154-101.555.207-198.02-19.98-281.055-15.664-5.646-33.13-9.492-55.943-7.99-7.677 44.775-36.815 75.232-82.584 79.918-71.28 7.303-119.06-41.44-103.896-117.215-13.754-4.893-26.22-11.076-39.96-15.984-18.662 19.717-41.723 42.705-59.942 62.607zM566.7 109.823c-13.515-.963-30.224 1.824-42.625-1.333-8.128-2.068-22.213-15.787-31.967-22.644-32.723-23-99.184-81.766-135.865-38.628-22.518 26.48-35.375 75.19-33.3 126.54 9.702-3.632 56.352-33.983 53.28-1.33-1.21 12.877-29.818 20.39-42.623 29.303-44.286 30.83-67.954 86.91-81.253 138.53 282.364 20.442 523.317 82.302 731.27 177.156 5.447-29.084 6.594-62.167 5.328-94.572-69.166 8.88-90.04-52.67-105.227-106.56-48.322 1.257-72.3-21.83-85.25-55.944-57.03 6.903-117.047.88-134.533-39.96-13.328-31.13 2.66-66.88 14.652-94.572-35.378-7.247-73.052-13.218-111.887-15.985zm155.845 460.873c-46.057-36.608-100.47-64.178-175.825-67.933-81.686-4.07-142.66 12.607-215.784 18.648 6.596 7.577 12.16 11.974 15.983 21.313 6.212 15.178-.116 33.663 5.328 49.284 3.83 10.99 31.962 25.63 45.288 33.3 18.928 10.895 36.787 19.408 53.28 26.64 105.597 46.3 284.83 68.78 408.926 25.308-44.605-35.808-91.047-69.878-137.197-106.56z"/><g fill-rule="evenodd" clip-rule="evenodd"><path d="M830.436 883.717c-.395 12.768 11.332 25.758 21.314 15.984.635-13.653-12.154-27.91-21.314-15.983z"/><path fill="#FFF" d="M846.422 895.705c-5.914 5.016-11.63-7.314-9.324-10.656 6.947-.29 5.974 7.343 9.324 10.655z"/></g><path fill-rule="evenodd" clip-rule="evenodd" d="M794.473 490.776c49.34-11.355 38.19 89.764-7.992 77.256-29.552-8.004-15.527-71.843 7.993-77.256zM378.888 433.5c-1.863-2.633-2.46 14.292 0 15.983 5.624 40.384 57.22 23.233 57.276-10.656 2.438-2.098 1.9-19.555 0-17.316-5.997-40.983-57.918-22.677-57.276 11.99z"/><path fill-rule="evenodd" clip-rule="evenodd" fill="#ED1C24" d="M866.4 160.438c-25.086 3.208-37.014-25.933-70.596-21.312-25.607 3.524-40.482 32.852-26.64 58.608 3.345 6.223 8.587 13.792 13.32 18.648 4.68 4.8 15.714 7.71 13.32 18.648-38.556 13.83-108.774 5.392-114.554-31.97-4.73-30.585 11.125-54.943 26.64-81.25 19.075-32.34 45.802-81.407 97.237-59.94 32.45 13.542 61.527 49.88 61.273 98.568zm-81.252 13.32c-2.14 12.593 9.174 22.698 18.648 29.305 5.633-13.902 16.803-22.27 26.64-31.967-11.555-8.562-41.926-17.133-45.288 2.663zm31.97 65.27c1.27 74.682 116.448 70.332 113.22-3.997-1.352-31.075-28.09-58.082-65.268-53.28-24.89 3.216-48.49 25.605-47.953 57.277zM946.32 393.54c22.852 19.07 52.113 4.22 70.596-11.988 23.777-20.855 54.707-63.82 62.604-90.577 19.443-65.88-82.752-104.736-130.537-73.26 9.072 20.625 37.762 26.81 45.29 50.617 7.476 23.64-7.208 48.907-29.306 51.948-23.14 3.185-40.388-14.653-58.608-11.988 2.69 30.74 19.29 68 39.96 85.248zm-13.32-102.565c8.676 4.2 18.092 7.66 31.967 6.66 19.696-12.31 2.132-40.382-14.65-43.956-2.252 15.954-10.617 25.795-17.318 37.295zm-444.89 406.26v3.997c-29.85 106.67 149.69 119.488 153.18 25.307-57.454-3.374-105.798-15.856-153.18-29.304z"/><path fill-rule="evenodd" clip-rule="evenodd" fill="#818285" d="M393.54 782.484c55.973 8.854 81.998 47.65 87.912 106.56v23.978c-2.63 43.545-19.136 73.217-39.96 98.568-5.44 4.326-10.325 9.21-14.652 14.652-23.546 30.04-100.236 41.8-130.536 9.324-3.883-5-8.322-9.438-13.32-13.32-44.595-44.102-30.687-158.088 10.656-194.473 6.772-5.66 12.988-11.877 18.648-18.648 16.547-12.756 33.915-24.693 61.272-26.64h19.98z"/></a></svg>