<?xml version="1.0" encoding="utf-8"?>
<!-- Generator: Adobe Illustrator 16.0.0, SVG Export Plug-In . SVG Version: 6.00 Build 0)  -->
<!DOCTYPE svg PUBLIC "-//W3C//DTD SVG 1.1//EN" "http://www.w3.org/Graphics/SVG/1.1/DTD/svg11.dtd" [
	<!ENTITY ns_flows "http://ns.adobe.com/Flows/1.0/">
	<!ENTITY ns_extend "http://ns.adobe.com/Extensibility/1.0/">
	<!ENTITY ns_ai "http://ns.adobe.com/AdobeIllustrator/10.0/">
	<!ENTITY ns_graphs "http://ns.adobe.com/Graphs/1.0/">
]>
<svg version="1.1" id="Layer_1" xmlns:x="&ns_extend;" xmlns:i="&ns_ai;" xmlns:graph="&ns_graphs;"
	 xmlns="http://www.w3.org/2000/svg" xmlns:xlink="http://www.w3.org/1999/xlink" xmlns:a="http://ns.adobe.com/AdobeSVGViewerExtensions/3.0/"
	 x="0px" y="0px" width="864px" height="864px" viewBox="0 0 864 864" enable-background="new 0 0 864 864" xml:space="preserve">
<path fill-rule="evenodd" clip-rule="evenodd" fill="#FFFFFF" d="M438.67,524.48c-20.57,0.596-41.098-0.134-61.554-2.45
	c-16.847-1.907-33.706-3.725-50.543-5.72c-11.32-1.341-22.065-4.997-32.76-8.727c-4.577-1.596-9.036-3.532-13.524-5.374
	c-2.645-1.086-4.583-2.941-5.466-5.72c-2.396-7.539-4.935-15.039-7.089-22.647c-3.221-11.38-6.166-22.839-9.211-34.269
	c-0.241-0.903-0.394-1.834-0.52-2.762c-0.396-2.92,0.589-4.811,3.486-5.293c3.158-0.526,6.46-0.801,9.636-0.503
	c13.495,1.266,27.104,2.028,40.409,4.429c12.87,2.321,25.479,6.211,38.092,9.802c14.264,4.062,28.432,8.472,42.591,12.892
	c10.375,3.238,20.256,7.658,29.431,13.525c6.101,3.9,12.133,4.546,18.838,1.237c9.396-4.638,18.901-9.118,28.611-13.046
	c20.244-8.188,41.057-14.554,62.284-19.858c20.796-5.196,41.819-8.022,63.094-9.603c2.709-0.201,5.462-0.133,8.173,0.087
	c3.64,0.295,5.078,2.084,4.378,5.685c-0.941,4.84-2.023,9.668-3.36,14.413c-3.624,12.859-7.415,25.674-11.14,38.505
	c-1.546,5.323-4.136,10.068-7.969,14.082c-0.736,0.77-1.728,1.423-2.726,1.797c-12.39,4.64-25.242,7.386-38.195,10.003
	c-16.066,3.246-32.18,5.961-48.501,7.189c-14.45,1.087-28.944,1.624-43.424,2.293C447.372,524.65,443.017,524.48,438.67,524.48z"/>
<g>
	<g>
		<path fill-rule="evenodd" clip-rule="evenodd" fill="#9A988E" d="M516.006,737.666c-4.798,4.873-9.198,9.238-13.475,13.722
			c-3.361,3.524-7.559,5.342-12.093,6.82c-11.745,3.828-23.826,4.978-36.077,4.981c-6.174,0.003-8.532-1.478-9.633-7.576
			c-1.066-5.911-1.714-12.01-1.543-17.998c0.158-5.568,3.881-9.892,8.12-13.129c20.989-16.034,43.86-28.353,70.146-33.014
			c17.43-3.09,35.064-4.128,52.767-2.478c2.03,0.189,4.066,0.517,6.051,0.986c5.428,1.284,7.317,3.186,7.593,8.759
			c0.481,9.704,0.91,19.431,0.762,29.14c-0.127,8.328-1.081,16.646-1.699,24.965c-0.05,0.668-0.36,1.312-0.494,1.979
			c-0.98,4.888-3.979,7.269-8.938,7.438c-10.156,0.349-20.326,0.635-30.31-1.642c-9.26-2.11-16.306-7.808-22.62-14.623
			C521.799,743.016,518.738,740.31,516.006,737.666z"/>
		<path fill-rule="evenodd" clip-rule="evenodd" fill="#9A988E" d="M312.927,689.562c15.929-0.795,31.457,1.292,46.629,6.331
			c18.062,5.997,34.559,14.913,49.875,26.08c3.001,2.188,5.722,4.826,8.295,7.521c2.481,2.599,3.814,5.898,3.776,9.539
			c-0.055,5.194-0.124,10.401-0.532,15.577c-0.395,5.012-2.143,6.769-7.185,7.41c-15.543,1.978-30.689,0.984-44.753-6.78
			c-6.939-3.831-13.06-8.676-17.658-15.249c-0.147-0.209-0.28-0.429-0.432-0.634c-2.515-3.409-2.498-3.393-5.331-0.34
			c-4.054,4.37-7.925,8.939-12.259,13.016c-6.223,5.854-13.844,9.042-22.343,9.743c-7.388,0.609-14.804,0.949-22.215,1.171
			c-6.15,0.184-9.264-2.231-10.568-8.374c-0.989-4.654-1.627-9.411-2.03-14.155c-1.148-13.545-0.825-27.096,0.346-40.629
			c0.562-6.496,2.035-8.139,8.545-8.965c4.65-0.59,9.336-1.01,14.019-1.217C303.707,689.404,308.32,689.562,312.927,689.562z"/>
		<path fill-rule="evenodd" clip-rule="evenodd" fill="#9A988E" d="M310.807,536.655c1.998-0.011,3.105,0.663,2.172,2.782
			c-1.334,3.032-2.602,6.118-4.232,8.991c-5.883,10.375-12.011,20.611-17.845,31.014c-5.495,9.8-9.054,20.325-11.427,31.316
			c-0.887,4.106-2.458,8.137-4.247,11.954c-1.343,2.863-2.564,2.789-4.888,0.541c-4.7-4.551-9.054-9.529-14.139-13.595
			c-8.409-6.724-18.055-10.815-29.03-11.261c-4.169-0.169-5.646-2.435-4.126-6.343c0.764-1.965,1.635-4.041,2.998-5.593
			c4.596-5.238,8.986-10.799,14.284-15.247c8.071-6.778,16.836-12.727,25.303-19.033c10.01-7.456,21.42-11.455,33.578-13.595
			C303.069,537.908,306.941,537.298,310.807,536.655z"/>
		<path fill-rule="evenodd" clip-rule="evenodd" fill="#9A988E" d="M550.928,535.425c1.756,0.189,3.535,0.256,5.265,0.588
			c18.908,3.63,36.588,10.233,52.213,21.748c11.87,8.747,22.448,18.857,31.52,30.479c4.062,5.205,3.342,7.29-2.882,9.361
			c-3.793,1.263-7.633,2.48-11.543,3.271c-11.349,2.297-19.896,8.744-26.953,17.562c-1.49,1.861-2.947,3.769-4.61,5.467
			c-1.942,1.981-3.207,1.708-4.48-0.816c-0.57-1.131-1.134-2.341-1.332-3.574c-2.317-14.388-7.487-27.856-14.104-40.67
			c-6.404-12.399-13.785-24.293-20.697-36.433c-1.149-2.018-2.093-4.152-3.131-6.233
			C550.437,535.924,550.683,535.674,550.928,535.425z"/>
	</g>
	<path fill-rule="evenodd" clip-rule="evenodd" fill="#9A988E" d="M433.229,637.048c-42.57,0-85.141,0.012-127.712-0.018
		c-4.262-0.003-8.527-0.207-12.786-0.413c-3.516-0.17-4.313-0.872-3.896-4.394c1.239-10.472,3.974-20.598,8.107-30.284
		c6.538-15.323,14.691-29.806,23.503-43.921c2.885-4.623,6.071-9.062,8.842-13.75c2.451-4.145,5.892-5.953,10.593-5.635
		c8.421,0.571,16.837,1.515,25.265,1.636c20.468,0.297,40.944,0.429,61.414,0.229c31.049-0.303,62.096-0.936,93.144-1.453
		c2.812-0.047,5.639-0.13,8.428-0.457c2.48-0.292,4.23,0.445,5.621,2.526c5.588,8.356,11.643,16.432,16.757,25.065
		c5.33,8.998,10.446,18.243,14.43,27.887c4.471,10.822,7.649,22.186,11.183,33.38c0.613,1.94,0.198,4.205,0.257,6.32
		c0.058,2.018-1.012,2.525-2.896,2.525c-12.369,0.001-24.739,0.143-37.11,0.152c-34.38,0.025-68.761,0.009-103.143,0.009
		C433.229,636.651,433.229,636.85,433.229,637.048z M413.452,570.246c-0.001-0.017-0.003-0.033-0.004-0.051
		c-0.768,0-1.535-0.005-2.302,0.001c-9.167,0.072-13.589-4.345-13.52-13.557c0.011-1.56-0.553-2.536-2.205-2.374
		c-2.438,0.24-4.93,0.36-7.281,0.98c-12.442,3.281-22.342,10.606-30.929,19.901c-1.904,2.061-3.659,4.274-5.307,6.546
		c-0.464,0.639-0.306,1.731-0.433,2.615c0.805,0.049,1.66,0.296,2.403,0.104c1.812-0.467,3.561-1.177,5.355-1.719
		c10.411-3.149,20.547-3.145,30.011,2.974c2.351,1.52,4.428,3.46,6.648,5.183c1.563,1.213,3.039,1.654,4.75,0.005
		c0.794-0.765,2.088-1.245,3.216-1.395c10.197-1.354,16.441,0.6,22.083,9.099c1.549,2.335,2.659,4.966,4.253,7.265
		c0.621,0.895,2.014,1.673,3.072,1.694c0.684,0.015,1.802-1.337,2.034-2.252c1.667-6.548,5.854-11.212,11.441-14.416
		c5.553-3.184,11.469-4.52,17.137,0.271c0.615,0.52,1.953,0.881,2.579,0.566c2.391-1.201,4.659-2.66,6.908-4.125
		c1.051-0.684,1.881-1.711,2.934-2.393c7.908-5.121,16.669-5.675,25.623-4.312c2.698,0.411,5.201,2.006,7.853,2.877
		c0.85,0.278,1.892-0.025,2.845-0.062c-0.121-0.875-0.107-1.798-0.402-2.609c-0.283-0.78-0.789-1.537-1.365-2.146
		c-3.386-3.573-6.615-7.332-10.282-10.597c-8.189-7.291-18.062-11.444-28.522-14.237c-4.172-1.113-5.878,0.089-5.685,4.236
		c0.192,4.123-1.646,6.926-4.314,9.638c-5.947,6.047-17.742,4.684-21.964-2.62c-1.829-3.164-2.634-3.474-5.934-1.903
		c-1.702,0.811-3.247,0.945-4.755-0.283c-1.578-1.284-2.703-0.535-3.558,0.862c-0.434,0.708-0.648,1.57-0.864,2.39
		c-0.563,2.138-1.793,3.401-4.115,3.475C418.386,569.956,415.919,570.12,413.452,570.246z"/>
</g>
<g>
	<path fill-rule="evenodd" clip-rule="evenodd" fill="#FFFFFF" d="M609.859,686.825c0,0.595-0.106,1.113,0.016,1.571
		c2.479,9.328,2.598,18.887,2.672,28.43c0.07,9.205-0.068,18.412-0.195,27.617c-0.019,1.336-0.129,2.905-0.831,3.935
		c-0.809,1.187-2.372,2.669-3.513,2.594c-1.146-0.076-2.938-1.795-3.121-2.996c-0.768-5.041-1.209-10.149-1.458-15.248
		c-0.812-16.688-1.493-33.381-2.211-50.072c-0.06-1.362-0.044-2.729-0.017-4.093c0.091-4.459,0.44-4.857,4.966-5.271
		c2.121-0.194,4.287-0.523,6.38-0.297c10.111,1.095,19.438-2.008,28.613-5.466c3.237-1.22,6.298-3.413,8.869-5.782
		c3.8-3.501,7.148-7.503,10.58-11.389c3.539-4.005,4.145-9.045,4.58-14.084c0.786-9.095-0.061-18.008-2.75-26.777
		c-0.964-3.144-1.35-6.48-1.812-9.756c-0.27-1.915,0.474-3.587,2.375-4.392c2.005-0.848,3.576,0.183,4.682,1.674
		c11.793,15.924,16.749,33.093,8.799,52.278c-6.108,14.741-16.284,25.939-30.847,32.624c-4.22,1.938-9.099,2.759-13.769,3.315
		c-6.589,0.784-13.265,0.839-19.901,1.226C611.306,686.506,610.652,686.687,609.859,686.825z"/>
	<path fill-rule="evenodd" clip-rule="evenodd" fill="#FFFFFF" d="M251.598,724.054c0.329-9.462,0.624-18.925,1.02-28.384
		c0.071-1.684,0.546-3.354,0.868-5.023c0.557-2.888-0.105-4.109-2.993-4.385c-4.658-0.444-9.396-0.245-14.008-0.938
		c-19.497-2.926-34.849-12.513-45.736-29.081c-2.773-4.22-3.913-8.829-3.891-13.817c0.033-7.764-0.207-15.538,0.123-23.288
		c0.137-3.226,1.017-6.583,2.303-9.561c2.559-5.926,6.52-10.979,11.472-15.145c0.902-0.76,2.578-1.271,3.611-0.957
		c0.643,0.195,1.212,2.247,1.007,3.311c-0.607,3.151-1.354,6.327-2.52,9.309c-2.296,5.871-5.007,11.562-5.591,17.985
		c-1.287,14.139,3.793,25.7,13.365,35.921c9.694,10.351,21.876,13.912,35.388,14.715c4.34,0.257,8.674,0.668,13.001,1.102
		c5.135,0.514,6.223,1.481,6.282,6.734c0.062,5.532-0.264,11.074-0.579,16.604c-0.766,13.442-1.598,26.881-2.464,40.318
		c-0.196,3.053-0.463,6.121-1.021,9.123c-0.471,2.534-3.194,4.308-5.729,4.091c-2.463-0.21-3.305-1.846-3.31-4.064
		c-0.017-8.188-0.007-16.376-0.007-24.564C251.992,724.057,251.795,724.056,251.598,724.054z"/>
</g>
<g>
	<path fill-rule="evenodd" clip-rule="evenodd" fill="#00A8DE" d="M572.217,381.123c4.74,0.032,6.304,1.935,4.189,8.276
		c-3.277,9.827-8.633,18.624-17.099,24.56c-8.552,5.997-21.77,6.478-28.563-2.179c-1.25-1.592-2.283-4.158-1.971-6.033
		c1.237-7.419,4.107-13.754,11.489-17.591C549.767,383.215,559.787,381.351,572.217,381.123z"/>
	<path fill-rule="evenodd" clip-rule="evenodd" fill="#00A8DE" d="M295.286,381.953c9.861,0.081,19.307,1.762,27.988,6.823
		c5.716,3.333,9.633,8.04,11.885,14.194c1.661,4.541,0.628,7.895-3.138,10.84c-7.133,5.576-18.394,6.866-26.667,0.825
		c-7.253-5.296-12.622-11.997-15.769-20.289c-1.132-2.983-0.931-6.491-1.209-9.771c-0.163-1.911,0.873-2.77,2.816-2.639
		C292.552,382.026,293.921,381.953,295.286,381.953z"/>
</g>
<g>
	<path fill-rule="evenodd" clip-rule="evenodd" fill="#E3BC3D" d="M433.555,668.112c48.8,0,97.6-0.003,146.398,0.005
		c3.866,0.001,4.166,0.281,4.132,3.379c-0.037,3.47-1.181,4.709-4.488,4.709c-48.114-0.002-96.228-0.022-144.341-0.021
		c-29.518,0.001-59.038-0.119-88.554,0.116c-14.313,0.114-28.618,1.023-42.932,1.363c-5.789,0.138-11.593-0.236-17.387-0.468
		c-3.837-0.153-5.178-1.3-5.215-4.154c-0.034-2.583,1.23-3.874,4.215-3.951c9.379-0.244,18.761-0.561,28.142-0.575
		c40.01-0.062,80.02-0.026,120.03-0.026C433.555,668.363,433.555,668.237,433.555,668.112z"/>
	<path fill-rule="evenodd" clip-rule="evenodd" fill="#E3BC3D" d="M370.245,664.45c-7.848,0-15.695,0-23.543,0.001
		c-5.232,0.001-9.506-3.9-10.286-9.15c-0.905-6.09,2.594-9.975,6.627-13.568c0.58-0.518,1.781-0.459,2.695-0.462
		c16.462-0.049,32.924-0.079,49.387-0.081c4.31-0.001,5.759,0.863,6.514,5.136c0.689,3.898,0.905,7.957,0.708,11.914
		c-0.213,4.3-1.953,5.671-6.268,5.707c-8.611,0.072-17.223,0.021-25.835,0.021C370.244,664.129,370.244,664.29,370.245,664.45z"/>
	<path fill-rule="evenodd" clip-rule="evenodd" fill="#E3BC3D" d="M493.614,641.232c6.819,0,13.638-0.008,20.457,0.01
		c1.106,0.002,2.216,0.088,3.318,0.19c6.648,0.62,8.028,2.093,8.132,8.81c0.039,2.555,0.088,5.125-0.137,7.663
		c-0.302,3.391-1.515,4.674-4.912,5.064c-4.053,0.466-8.135,0.879-12.208,0.925c-11.167,0.127-22.336,0.105-33.503,0.016
		c-2.967-0.023-5.959-0.34-8.877-0.867c-0.973-0.177-2.459-1.392-2.504-2.197c-0.276-5.06-0.411-10.147-0.171-15.205
		c0.108-2.281,1.856-3.761,4.343-3.942c1.953-0.143,3.905-0.409,5.859-0.425c6.733-0.053,13.468-0.02,20.202-0.02
		C493.614,641.247,493.614,641.24,493.614,641.232z"/>
	<path fill-rule="evenodd" clip-rule="evenodd" fill="#E3BC3D" d="M430.824,664.307c-6.636-0.271-13.534-0.431-20.414-0.888
		c-3.51-0.233-5.049-1.926-5.257-5.435c-0.207-3.483-0.195-6.991-0.058-10.479c0.114-2.867,1.476-4.476,4.565-5.01
		c3.514-0.606,7.103-1.003,10.666-1.055c9.72-0.142,19.443-0.055,29.165-0.054c0.597,0,1.193,0.031,1.79,0.066
		c6.483,0.382,7.922,1.829,8.03,8.227c0.044,2.555,0.117,5.127-0.112,7.665c-0.384,4.263-2.131,5.9-6.4,6.101
		C445.566,663.785,438.328,664.019,430.824,664.307z"/>
	<path fill-rule="evenodd" clip-rule="evenodd" fill="#E3BC3D" d="M548.417,641.298c5.617,0,11.255-0.301,16.847,0.08
		c6.209,0.422,7.983,2.594,8.229,8.771c0.078,1.954,0.137,3.928-0.035,5.871c-0.348,3.94-2.262,6.205-6.413,6.714
		c-10.831,1.324-21.708,1.715-32.609,0.802c-3.33-0.278-5.094-2.308-5.812-5.23c-1.425-5.799-0.835-11.364,2.882-16.259
		c0.496-0.654,1.708-1.054,2.599-1.073c4.77-0.104,9.541-0.049,14.312-0.049C548.416,641.05,548.416,641.174,548.417,641.298z"/>
	<path fill-rule="evenodd" clip-rule="evenodd" fill="#E3BC3D" d="M313.537,641.784c5.45,0,10.916-0.258,16.344,0.09
		c3.627,0.232,5.026,1.799,5.259,5.45c0.259,4.064,0.015,8.167-0.117,12.249c-0.084,2.607-1.745,3.799-4.186,3.875
		c-7.579,0.239-15.159,0.508-22.74,0.562c-3.91,0.028-7.823-0.389-11.736-0.578c-2.284-0.11-3.771-1.148-3.884-3.524
		c-0.205-4.336-0.51-8.685-0.358-13.014c0.121-3.437,1.125-4.369,4.556-4.672c5.604-0.496,11.231-0.729,16.85-1.071
		C313.528,641.361,313.533,641.572,313.537,641.784z"/>
</g>
<g>
	<path fill-rule="evenodd" clip-rule="evenodd" fill="#EC148E" d="M455.97,238.131c-0.901-5.753,3.21-13.265,6.567-21.01
		c5.302-12.236,11.4-24.038,19.353-34.763c3.489-4.707,7.446-9.097,11.468-13.37c3.91-4.156,9.001-6.026,14.686-6.269
		c1.533-0.065,3.085,0.013,4.599-0.192c11.304-1.534,19.574,4.053,27.252,11.317c5.431,5.138,8.237,11.792,11.367,18.319
		c1.43,2.982,3.303,5.75,4.868,8.671c1.364,2.545,2.724,5.112,3.809,7.781c0.772,1.902,0.56,3.938-1.067,5.444
		c-1.662,1.539-3.701,2.338-5.879,1.362c-2.553-1.144-5.091-2.402-7.428-3.929c-8.682-5.673-17.977-5.028-27.311-2.551
		c-4.117,1.092-7.073,4.204-8.661,8.173c-2.34,5.849-4.581,11.756-6.414,17.776c-0.58,1.907-0.166,4.417,0.56,6.367
		c2.727,7.326,8.234,12.36,14.493,16.721c4.859,3.386,5.701,8.142,1.964,12.341c-1.337,1.502-3.402,2.917-5.326,3.241
		c-8.705,1.468-17.443,3.063-26.233,3.616c-13.161,0.828-22.254-6.259-28.784-16.983
		C456.339,254.427,456.741,247.731,455.97,238.131z"/>
	<path fill-rule="evenodd" clip-rule="evenodd" fill="#EC148E" d="M647.506,239.594c3.864,0.267,8.977,0.506,14.065,0.994
		c10.282,0.986,17.743,5.735,20.659,16.154c2.959,10.573,5.396,21.36,3.425,32.304c-2.742,15.225-9.111,28.727-21.722,38.516
		c-5.658,4.392-12.359,6.29-19.229,7.772c-9.208,1.988-18.399,2.941-27.389-0.771c-2.533-1.046-5.109-2.447-7.078-4.308
		c-4.312-4.075-8.506-8.335-12.265-12.917c-4.09-4.985-2.908-9.292,2.769-12.3c3.716-1.969,7.543-2.784,11.831-2.136
		c4.194,0.634,8.486,0.819,12.737,0.84c7.414,0.037,11.877-4.376,14.946-10.588c0.678-1.372,1.139-2.85,1.766-4.249
		c5.286-11.799-1.943-21.377-9.377-25.72c-1.066-0.623-2.367-0.976-3.604-1.152c-2.488-0.355-4.293-1.61-4.658-4.044
		c-0.615-4.104-1.079-8.26-1.133-12.4c-0.014-1.139,1.441-2.922,2.601-3.328c2.936-1.026,6.059-1.675,9.157-2.034
		C638.726,239.797,642.496,239.824,647.506,239.594z"/>
	<path fill-rule="evenodd" clip-rule="evenodd" fill="#EC148E" d="M576.824,228.005c1.62,0,3.245,0.08,4.86-0.013
		c11.516-0.663,18.817,5.394,23.594,15.091c6.987,14.185,3.905,33.96-6.876,45.42c-4.497,4.78-10.376,6.354-16.623,6.86
		c-6.932,0.562-13.738-0.295-20.571-1.612c-7.731-1.492-12.495-6.656-16.625-12.557c-1.422-2.033-2.101-4.89-2.288-7.432
		c-0.653-8.844-1.043-17.754,1.688-26.367c3.728-11.755,12.453-18.504,24.658-19.274c2.717-0.171,5.455-0.025,8.184-0.025
		C576.824,228.065,576.824,228.036,576.824,228.005z"/>
	<path fill-rule="evenodd" clip-rule="evenodd" fill="#EC148E" d="M518.271,234.68c0.071-8.472,5.085-13.148,12.832-14.291
		c2.416-0.356,5.226,1.463,7.721,2.585c0.467,0.21,0.761,2.146,0.35,2.761c-4.154,6.222-8.398,12.389-12.785,18.45
		c-1.572,2.172-3.491,1.995-5.251-0.163C518.926,241.311,518.306,238.077,518.271,234.68z"/>
	<path fill-rule="evenodd" clip-rule="evenodd" fill="#EC148E" d="M632.574,283.921c-0.461,4.083-2.314,8.212-6.522,11.038
		c-2.646,1.776-5.499,1.719-8.308,0.609c-2.241-0.885-3.414-2.88-2.874-5.141c1.224-5.112,2.599-10.211,4.331-15.169
		c1.071-3.068,3.299-3.687,6.408-2.576C629.541,274.088,632.527,278.564,632.574,283.921z"/>
</g>
<g>
	<path fill-rule="evenodd" clip-rule="evenodd" d="M727.536,752.999c-0.36-1.591-0.807-2.795-0.879-4.022
		c-0.241-4.081-0.11-8.197-0.569-12.25c-0.472-4.169-2.657-6.321-6.748-6.863c-3.102-0.41-6.29-0.609-9.401-0.381
		c-4.707,0.345-6.602,2.424-6.734,7.306c-0.167,6.137-0.08,12.283,0.013,18.424c0.131,8.728-0.257,17.394-2.673,25.846
		c-0.57,1.999-1.38,3.929-2.079,5.891c-0.304,0.032-0.608,0.064-0.911,0.097c-0.57-1.228-1.334-2.403-1.679-3.692
		c-2.378-8.894-4.666-17.812-6.987-26.72c-1.514-5.81-3.812-11.15-8.923-14.787c-0.736-0.524-1.496-1.016-2.244-1.522
		c-0.295,0.082-0.589,0.164-0.883,0.246c0.087,1.664,0.107,3.335,0.273,4.99c0.619,6.183,1.628,12.35,1.821,18.543
		c0.146,4.65-0.635,9.345-1.193,13.996c-0.334,2.781-1.263,3.263-3.798,1.99c-5.235-2.629-8.736-7.062-11.477-12.042
		c-3.698-6.717-7.051-13.623-10.706-20.364c-1.349-2.485-3.138-4.731-4.995-7.486c-9.662,16.288-10.327,33.808-11.426,51.836
		c-2.712-3.745-4.997-6.873-7.255-10.021c-4.844-6.756-10.257-12.974-17.058-17.848c-1.232-0.883-2.62-1.636-4.045-2.147
		c-3.078-1.104-5.396-0.216-6.769,2.762c-2.103,4.562-3.745,9.345-5.998,13.826c-14.559,28.97-37.77,44.493-70.523,44.88
		c-15.122,0.179-30.192-0.504-45.119-3.232c-12.591-2.302-24.663-6.233-36.076-11.946c-7.073-3.54-13.634-3.665-20.737-0.076
		c-6.44,3.255-13.056,6.605-19.986,8.365c-24.226,6.152-48.915,8.854-73.841,5.941c-14.269-1.667-26.964-7.706-37.708-17.508
		c-10.519-9.598-17.523-21.425-22.297-34.702c-0.778-2.162-1.525-4.345-2.473-6.433c-1.177-2.593-3.079-3.56-5.611-2.319
		c-3.105,1.521-6.247,3.259-8.808,5.539c-4.255,3.788-8.168,7.983-12.005,12.208c-1.748,1.925-2.851,4.424-4.486,6.47
		c-0.693,0.868-2.003,1.243-3.033,1.842c-0.407-0.844-1.108-1.666-1.172-2.536c-0.382-5.183-0.296-10.418-0.981-15.555
		c-0.903-6.775-2.761-13.356-6.074-19.424c-2.78-5.092-6.778-8.722-12.504-10.208c-3.298-0.856-6.569-1.904-9.92-2.46
		c-6.702-1.11-12.236,1.036-15.737,7.01c-3.488,5.953-6.517,12.176-9.962,18.156c-1.782,3.094-4.031,5.919-6.069,8.865
		c-0.279-0.132-0.559-0.264-0.838-0.396c-0.235-3.696-0.451-7.393-0.708-11.088c-0.526-7.58-1.239-15.12-3.888-22.341
		c-2.299-6.269-6.913-9.919-12.389-9.625c-6.644,0.356-11.464,4.396-13.093,10.975c-0.267,1.076-0.368,2.235-0.851,3.204
		c-0.458,0.92-1.318,1.641-2,2.449c-0.802-0.681-1.929-1.202-2.354-2.067c-2.849-5.807-4.753-11.834-4.259-18.463
		c0.973-13.061,2.977-25.942,6.805-38.474c1.888-6.18,4.075-12.291,6.521-18.272c4.057-9.926,8.298-19.781,12.7-29.559
		c8.081-17.949,20.52-32.801,33.343-47.508c13.65-15.656,30.322-27.656,46.319-40.516c6.574-5.284,13.078-10.683,19.944-15.564
		c3.77-2.681,8.194-4.462,12.388-6.517c2.52-1.235,5.24-2.068,7.732-3.351c3.322-1.71,4.083-5.346,1.617-8.136
		c-1.378-1.559-3.22-2.751-4.976-3.925c-9.561-6.388-19.44-12.34-28.661-19.182c-8.189-6.074-15.69-13.082-23.439-19.744
		c-2.645-2.272-5.108-4.757-7.676-7.12c-3.161-2.91-6.951-3.806-10.944-2.543c-5.6,1.77-11.073,3.941-16.598,5.944
		c-3.847,1.395-7.669,2.859-11.548,4.158c-1.354,0.453-2.84,0.651-4.273,0.694c-1.904,0.057-3.805-0.15-4.666-2.334
		c-0.839-2.13,0.132-3.767,1.676-4.937c2.161-1.639,4.442-3.178,6.842-4.433c7.251-3.79,14.616-7.36,21.874-11.139
		c4.51-2.348,5.083-3.119,3.57-7.86c-2.76-8.648-6.008-17.14-9.043-25.701c-0.226-0.637-0.486-1.292-0.541-1.954
		c-0.41-4.869-3.402-6.41-7.948-6.415c-3.991-0.005-7.984,0.647-11.975,1.016c-5.267,0.488-10.526,1.18-15.804,1.386
		c-2.379,0.093-4.946-0.404-7.159-1.299c-3.077-1.246-3.194-3.475-0.391-5.273c4.656-2.985,9.889-4.438,15.297-5.498
		c6.247-1.225,12.435-2.759,18.628-4.246c2.14-0.514,3.349-2.069,3.427-4.26c0.381-10.673,0.224-21.319-1.611-31.889
		c-0.394-2.267-1.433-3.518-3.759-3.73c-7.472-0.684-14.941-1.396-22.408-2.122c-3.904-0.379-7.825-0.669-11.695-1.279
		c-2.048-0.323-4.714-0.312-4.863-3.454c-0.127-2.701,1.296-4.226,4.964-4.694c5.238-0.668,10.512-1.058,15.775-1.513
		c6.88-0.596,13.762-1.17,20.648-1.688c1.956-0.148,3-1.176,3.243-2.987c0.858-6.414,1.813-12.82,2.432-19.258
		c1.894-19.699,3.584-39.417,5.476-59.117c1.875-19.526,3.803-39.049,5.891-58.553c1.434-13.394,3.191-26.752,4.788-40.129
		c1.798-15.064,3.444-30.149,5.401-45.192c2.143-16.467,4.557-32.898,6.87-49.342c0.557-3.96,0.994-7.952,1.858-11.847
		c0.431-1.941,1.702-3.696,2.593-5.536c0.341,0.011,0.683,0.022,1.024,0.033c1.43,2.071,2.988,4.066,4.27,6.225
		c9.176,15.466,18.649,30.77,27.346,46.501c11.082,20.047,21.5,40.461,32.25,60.692c4.039,7.601,8.205,15.134,12.324,22.692
		c0.325,0.597,0.708,1.167,1.108,1.718c2.83,3.896,4.025,4.472,8.667,2.906c8.469-2.857,16.881-5.89,25.262-8.998
		c21.308-7.901,43.222-12.452,66.029-12.368c18.173,0.067,36.347-0.069,54.519,0.063c6.304,0.046,12.601,0.722,18.907,0.891
		c1.254,0.033,2.785-0.648,3.762-1.494c5.593-4.841,10.691-10.221,17.389-13.746c10.895-5.733,22.083-5.397,33.53-2.377
		c12.587,3.32,22.109,10.99,29.996,21.027c2.791,3.553,5.645,7.063,8.596,10.483c1.701,1.972,3.199,1.934,4.917-0.03
		c1.057-1.208,1.931-2.606,2.723-4.012c13.444-23.821,26.877-47.649,40.281-71.493c10.145-18.044,20.237-36.118,30.378-54.164
		c1.536-2.733,3.213-5.386,4.985-8.345c2.921,4.512,3.923,9.325,4.724,14.123c2.832,16.953,5.591,33.919,8.209,50.906
		c2.181,14.143,4.161,28.316,6.162,42.485c1.8,12.742,3.586,25.487,5.232,38.25c1.44,11.162,3.02,22.336,2.35,33.638
		c-0.167,2.814,0.87,4.225,3.322,5.479c11.451,5.853,19.063,15.041,22.481,27.444c2.605,9.455,3.073,19.145,2.28,28.917
		c-1.179,14.518-6.016,27.719-13.949,39.872c-1.155,1.769-2.094,3.726-2.841,5.705c-1.644,4.35,0.038,7.368,4.664,7.875
		c6.69,0.733,13.428,1.034,20.134,1.64c4.24,0.384,8.47,0.919,12.684,1.529c1.323,0.191,2.648,0.708,3.853,1.312
		c2.966,1.487,3.133,4.568,0.151,6.095c-2.071,1.06-4.481,1.805-6.794,1.98c-8.503,0.647-17.028,0.991-25.544,1.463
		c-8.354,0.462-9.245,1.136-9.254,9.557c-0.009,9.031,0.527,18.062,0.765,27.094c0.066,2.51,1.361,3.939,3.61,4.663
		c1.214,0.39,2.454,0.704,3.693,1.01c8.421,2.074,16.846,4.127,25.264,6.213c0.821,0.204,1.737,0.406,2.368,0.91
		c1.015,0.808,2.596,1.912,2.544,2.811c-0.075,1.29-1.145,2.882-2.266,3.651c-1.156,0.793-2.906,1.113-4.356,1.018
		c-8.084-0.524-16.186-0.984-24.223-1.951c-10.196-1.227-11.879-0.296-15.165,9.347c-2.776,8.147-5.83,16.199-8.666,24.326
		c-1.414,4.052-1.268,4.944,2.477,6.831c7.073,3.564,14.373,6.674,21.504,10.128c2.967,1.438,5.824,3.148,8.576,4.97
		c2.187,1.446,2.673,3.677,1.675,6.106c-1.064,2.591-3.396,2.544-5.45,1.998c-4.771-1.27-9.461-2.849-14.176-4.328
		c-6.981-2.191-13.962-4.384-20.929-6.622c-2.098-0.674-3.665,0.216-5.104,1.521c-4.67,4.24-9.319,8.502-13.965,12.77
		c-14.101,12.952-29.256,24.513-45.481,34.686c-2.734,1.714-5.262,3.782-7.768,5.829c-2.204,1.801-2.226,3.804,0.039,5.552
		c1.876,1.447,3.888,2.945,6.087,3.709c9.673,3.358,17.878,9.26,26.015,15.121c15.775,11.361,30.752,23.734,44.522,37.502
		c6.391,6.39,12.702,12.858,19.035,19.307c10.08,10.264,17.593,22.271,24.158,34.991c13.55,26.251,22.323,53.961,26.23,83.243
		c0.998,7.481,1.886,14.919,0.061,22.369C733.324,743.517,732.021,748.543,727.536,752.999z M438.67,524.48
		c4.347,0,8.702,0.17,13.04-0.031c14.479-0.669,28.974-1.206,43.424-2.293c16.321-1.229,32.435-3.943,48.501-7.189
		c12.953-2.617,25.806-5.363,38.195-10.003c0.998-0.374,1.989-1.027,2.726-1.797c3.833-4.014,6.423-8.759,7.969-14.082
		c3.725-12.831,7.516-25.646,11.14-38.505c1.337-4.745,2.419-9.573,3.36-14.413c0.7-3.601-0.738-5.39-4.378-5.685
		c-2.711-0.22-5.464-0.289-8.173-0.087c-21.274,1.581-42.298,4.406-63.094,9.603c-21.228,5.305-42.04,11.671-62.284,19.858
		c-9.71,3.928-19.215,8.408-28.611,13.046c-6.705,3.309-12.737,2.663-18.838-1.237c-9.175-5.867-19.056-10.287-29.431-13.525
		c-14.159-4.42-28.327-8.83-42.591-12.892c-12.613-3.591-25.222-7.48-38.092-9.802c-13.305-2.4-26.914-3.163-40.409-4.429
		c-3.175-0.298-6.478-0.023-9.636,0.503c-2.896,0.482-3.882,2.373-3.486,5.293c0.126,0.928,0.279,1.858,0.52,2.762
		c3.046,11.43,5.99,22.889,9.211,34.269c2.154,7.608,4.693,15.108,7.089,22.647c0.883,2.778,2.821,4.634,5.466,5.72
		c4.488,1.842,8.947,3.778,13.524,5.374c10.695,3.729,21.44,7.386,32.76,8.727c16.837,1.995,33.696,3.812,50.543,5.72
		C397.572,524.347,418.1,525.076,438.67,524.48z M433.229,637.048c0-0.198,0-0.396,0-0.595c34.382,0,68.763,0.017,103.143-0.009
		c12.371-0.01,24.741-0.151,37.11-0.152c1.884,0,2.953-0.508,2.896-2.525c-0.059-2.115,0.356-4.38-0.257-6.32
		c-3.533-11.194-6.712-22.558-11.183-33.38c-3.983-9.644-9.1-18.889-14.43-27.887c-5.114-8.634-11.169-16.709-16.757-25.065
		c-1.391-2.081-3.141-2.818-5.621-2.526c-2.789,0.327-5.615,0.41-8.428,0.457c-31.048,0.518-62.095,1.15-93.144,1.453
		c-20.469,0.2-40.945,0.068-61.414-0.229c-8.428-0.121-16.844-1.064-25.265-1.636c-4.701-0.318-8.142,1.49-10.593,5.635
		c-2.771,4.688-5.957,9.127-8.842,13.75c-8.812,14.115-16.965,28.598-23.503,43.921c-4.133,9.687-6.868,19.812-8.107,30.284
		c-0.417,3.521,0.38,4.224,3.896,4.394c4.259,0.206,8.524,0.41,12.786,0.413C348.088,637.06,390.659,637.048,433.229,637.048z
		 M516.006,737.666c2.732,2.644,5.793,5.35,8.556,8.331c6.314,6.815,13.36,12.513,22.62,14.623c9.983,2.276,20.153,1.99,30.31,1.642
		c4.959-0.17,7.958-2.551,8.938-7.438c0.134-0.666,0.444-1.311,0.494-1.979c0.618-8.319,1.572-16.637,1.699-24.965
		c0.148-9.709-0.28-19.436-0.762-29.14c-0.275-5.573-2.165-7.475-7.593-8.759c-1.984-0.47-4.021-0.797-6.051-0.986
		c-17.702-1.65-35.337-0.612-52.767,2.478c-26.285,4.661-49.156,16.979-70.146,33.014c-4.239,3.237-7.962,7.561-8.12,13.129
		c-0.171,5.988,0.477,12.087,1.543,17.998c1.101,6.099,3.459,7.579,9.633,7.576c12.251-0.004,24.332-1.153,36.077-4.981
		c4.534-1.479,8.731-3.296,12.093-6.82C506.808,746.904,511.208,742.539,516.006,737.666z M312.927,689.562
		c-4.606,0-9.22-0.158-13.817,0.045c-4.683,0.207-9.368,0.627-14.019,1.217c-6.51,0.826-7.983,2.469-8.545,8.965
		c-1.171,13.533-1.495,27.084-0.346,40.629c0.403,4.744,1.041,9.501,2.03,14.155c1.304,6.143,4.417,8.558,10.568,8.374
		c7.411-0.222,14.827-0.562,22.215-1.171c8.499-0.701,16.12-3.89,22.343-9.743c4.333-4.076,8.205-8.646,12.259-13.016
		c2.833-3.053,2.815-3.069,5.331,0.34c0.152,0.205,0.285,0.425,0.432,0.634c4.598,6.573,10.719,11.418,17.658,15.249
		c14.064,7.765,29.209,8.758,44.753,6.78c5.042-0.642,6.79-2.398,7.185-7.41c0.408-5.176,0.477-10.383,0.532-15.577
		c0.038-3.641-1.295-6.94-3.776-9.539c-2.574-2.694-5.294-5.332-8.295-7.521c-15.317-11.167-31.814-20.083-49.875-26.08
		C344.383,690.854,328.855,688.768,312.927,689.562z M455.97,238.131c0.771,9.6,0.369,16.296,3.881,22.062
		c6.53,10.724,15.623,17.811,28.784,16.983c8.79-0.553,17.528-2.148,26.233-3.616c1.924-0.325,3.989-1.739,5.326-3.241
		c3.737-4.2,2.896-8.956-1.964-12.341c-6.259-4.361-11.767-9.396-14.493-16.721c-0.726-1.949-1.14-4.46-0.56-6.367
		c1.833-6.02,4.074-11.927,6.414-17.776c1.588-3.969,4.544-7.081,8.661-8.173c9.334-2.477,18.629-3.122,27.311,2.551
		c2.337,1.527,4.875,2.785,7.428,3.929c2.178,0.976,4.217,0.177,5.879-1.362c1.627-1.506,1.84-3.542,1.067-5.444
		c-1.085-2.669-2.444-5.236-3.809-7.781c-1.565-2.921-3.438-5.688-4.868-8.671c-3.13-6.526-5.937-13.181-11.367-18.319
		c-7.678-7.264-15.948-12.852-27.252-11.317c-1.514,0.205-3.065,0.127-4.599,0.192c-5.685,0.243-10.775,2.113-14.686,6.269
		c-4.021,4.273-7.979,8.663-11.468,13.37c-7.952,10.726-14.051,22.527-19.353,34.763C459.18,224.866,455.068,232.377,455.97,238.131
		z M647.506,239.594c-5.01,0.229-8.78,0.203-12.498,0.634c-3.099,0.359-6.222,1.008-9.157,2.034
		c-1.159,0.406-2.614,2.188-2.601,3.328c0.054,4.14,0.518,8.296,1.133,12.4c0.365,2.434,2.17,3.689,4.658,4.044
		c1.236,0.176,2.537,0.529,3.604,1.152c7.434,4.343,14.663,13.921,9.377,25.72c-0.627,1.399-1.088,2.877-1.766,4.249
		c-3.069,6.211-7.532,10.625-14.946,10.588c-4.251-0.021-8.543-0.206-12.737-0.84c-4.288-0.648-8.115,0.167-11.831,2.136
		c-5.677,3.007-6.858,7.314-2.769,12.3c3.759,4.581,7.953,8.842,12.265,12.917c1.969,1.86,4.545,3.261,7.078,4.308
		c8.989,3.712,18.181,2.759,27.389,0.771c6.87-1.483,13.571-3.38,19.229-7.772c12.61-9.789,18.979-23.291,21.722-38.516
		c1.971-10.944-0.466-21.731-3.425-32.304c-2.916-10.419-10.377-15.167-20.659-16.154C656.482,240.1,651.37,239.861,647.506,239.594
		z M576.824,228.005c0,0.03,0,0.06,0,0.09c-2.729,0-5.467-0.146-8.184,0.025c-12.205,0.771-20.931,7.52-24.658,19.274
		c-2.73,8.612-2.341,17.522-1.688,26.367c0.188,2.542,0.866,5.398,2.288,7.432c4.13,5.901,8.894,11.065,16.625,12.557
		c6.833,1.317,13.64,2.174,20.571,1.612c6.247-0.506,12.126-2.08,16.623-6.86c10.781-11.46,13.863-31.235,6.876-45.42
		c-4.776-9.697-12.078-15.754-23.594-15.091C580.069,228.085,578.444,228.005,576.824,228.005z M310.807,536.655
		c-3.866,0.643-7.738,1.253-11.598,1.933c-12.158,2.14-23.568,6.139-33.578,13.595c-8.467,6.307-17.232,12.255-25.303,19.033
		c-5.298,4.448-9.688,10.009-14.284,15.247c-1.362,1.552-2.233,3.628-2.998,5.593c-1.52,3.908-0.043,6.174,4.126,6.343
		c10.975,0.445,20.621,4.537,29.03,11.261c5.085,4.065,9.438,9.044,14.139,13.595c2.323,2.248,3.545,2.322,4.888-0.541
		c1.789-3.817,3.36-7.848,4.247-11.954c2.374-10.991,5.932-21.517,11.427-31.316c5.833-10.402,11.962-20.639,17.845-31.014
		c1.63-2.873,2.897-5.959,4.232-8.991C313.913,537.318,312.805,536.645,310.807,536.655z M550.928,535.425
		c-0.245,0.249-0.491,0.499-0.736,0.749c1.038,2.081,1.981,4.216,3.131,6.233c6.912,12.14,14.293,24.033,20.697,36.433
		c6.617,12.813,11.787,26.282,14.104,40.67c0.198,1.233,0.762,2.443,1.332,3.574c1.273,2.524,2.538,2.798,4.48,0.816
		c1.663-1.698,3.12-3.605,4.61-5.467c7.057-8.817,15.604-15.265,26.953-17.562c3.91-0.791,7.75-2.009,11.543-3.271
		c6.224-2.071,6.944-4.156,2.882-9.361c-9.071-11.621-19.649-21.731-31.52-30.479c-15.625-11.515-33.305-18.118-52.213-21.748
		C554.463,535.681,552.684,535.614,550.928,535.425z M433.555,668.112c0,0.125,0,0.251,0,0.376c-40.01,0-80.02-0.036-120.03,0.026
		c-9.381,0.015-18.762,0.331-28.142,0.575c-2.985,0.077-4.249,1.368-4.215,3.951c0.037,2.854,1.378,4.001,5.215,4.154
		c5.794,0.231,11.598,0.605,17.387,0.468c14.313-0.34,28.618-1.249,42.932-1.363c29.517-0.235,59.036-0.115,88.554-0.116
		c48.113-0.001,96.227,0.02,144.341,0.021c3.308,0,4.451-1.239,4.488-4.709c0.034-3.098-0.266-3.378-4.132-3.379
		C531.154,668.109,482.354,668.112,433.555,668.112z M609.859,686.825c0.793-0.139,1.446-0.319,2.107-0.358
		c6.637-0.387,13.312-0.441,19.901-1.226c4.67-0.557,9.549-1.378,13.769-3.315c14.562-6.685,24.738-17.883,30.847-32.624
		c7.95-19.186,2.994-36.354-8.799-52.278c-1.105-1.491-2.677-2.521-4.682-1.674c-1.901,0.805-2.645,2.477-2.375,4.392
		c0.462,3.275,0.848,6.612,1.812,9.756c2.689,8.77,3.536,17.683,2.75,26.777c-0.436,5.039-1.041,10.079-4.58,14.084
		c-3.432,3.886-6.78,7.888-10.58,11.389c-2.571,2.369-5.632,4.562-8.869,5.782c-9.175,3.458-18.502,6.561-28.613,5.466
		c-2.093-0.227-4.259,0.103-6.38,0.297c-4.525,0.413-4.875,0.812-4.966,5.271c-0.027,1.364-0.043,2.73,0.017,4.093
		c0.718,16.691,1.398,33.385,2.211,50.072c0.249,5.099,0.69,10.207,1.458,15.248c0.183,1.201,1.976,2.92,3.121,2.996
		c1.141,0.075,2.704-1.407,3.513-2.594c0.702-1.029,0.812-2.599,0.831-3.935c0.127-9.205,0.266-18.412,0.195-27.617
		c-0.074-9.543-0.192-19.102-2.672-28.43C609.753,687.938,609.859,687.42,609.859,686.825z M251.598,724.054
		c0.197,0.002,0.394,0.003,0.591,0.005c0,8.188-0.01,16.376,0.007,24.564c0.004,2.219,0.846,3.854,3.31,4.064
		c2.535,0.217,5.258-1.557,5.729-4.091c0.559-3.002,0.825-6.07,1.021-9.123c0.866-13.438,1.698-26.876,2.464-40.318
		c0.315-5.529,0.641-11.071,0.579-16.604c-0.06-5.253-1.147-6.221-6.282-6.734c-4.327-0.434-8.661-0.845-13.001-1.102
		c-13.512-0.803-25.694-4.364-35.388-14.715c-9.572-10.221-14.652-21.782-13.365-35.921c0.584-6.423,3.295-12.114,5.591-17.985
		c1.166-2.981,1.913-6.157,2.52-9.309c0.205-1.063-0.364-3.115-1.007-3.311c-1.033-0.314-2.708,0.197-3.611,0.957
		c-4.952,4.165-8.913,9.219-11.472,15.145c-1.286,2.978-2.166,6.335-2.303,9.561c-0.33,7.75-0.09,15.524-0.123,23.288
		c-0.022,4.988,1.118,9.598,3.891,13.817c10.888,16.568,26.239,26.155,45.736,29.081c4.611,0.692,9.35,0.493,14.008,0.938
		c2.888,0.275,3.55,1.497,2.993,4.385c-0.322,1.67-0.797,3.34-0.868,5.023C252.221,705.129,251.927,714.592,251.598,724.054z
		 M370.245,664.45c0-0.16,0-0.321,0-0.482c8.612,0,17.224,0.051,25.835-0.021c4.315-0.036,6.055-1.407,6.268-5.707
		c0.196-3.957-0.02-8.016-0.708-11.914c-0.755-4.272-2.204-5.137-6.514-5.136c-16.462,0.002-32.925,0.032-49.387,0.081
		c-0.915,0.003-2.116-0.056-2.695,0.462c-4.033,3.594-7.532,7.479-6.627,13.568c0.779,5.25,5.053,9.151,10.286,9.15
		C354.549,664.45,362.397,664.45,370.245,664.45z M493.614,641.232c0,0.008,0,0.015,0,0.021c-6.734,0-13.469-0.033-20.202,0.02
		c-1.954,0.016-3.906,0.282-5.859,0.425c-2.486,0.182-4.234,1.661-4.343,3.942c-0.24,5.058-0.105,10.146,0.171,15.205
		c0.045,0.806,1.531,2.021,2.504,2.197c2.918,0.527,5.91,0.844,8.877,0.867c11.167,0.09,22.336,0.111,33.503-0.016
		c4.073-0.046,8.155-0.459,12.208-0.925c3.397-0.391,4.61-1.674,4.912-5.064c0.225-2.538,0.176-5.108,0.137-7.663
		c-0.104-6.717-1.483-8.189-8.132-8.81c-1.103-0.103-2.212-0.188-3.318-0.19C507.252,641.225,500.434,641.232,493.614,641.232z
		 M572.217,381.123c-12.43,0.228-22.45,2.092-31.954,7.032c-7.382,3.836-10.252,10.171-11.489,17.591
		c-0.312,1.875,0.721,4.441,1.971,6.033c6.794,8.657,20.012,8.176,28.563,2.179c8.466-5.936,13.821-14.733,17.099-24.56
		C578.521,383.057,576.957,381.155,572.217,381.123z M295.286,381.953c-1.365,0-2.734,0.073-4.093-0.018
		c-1.944-0.131-2.979,0.728-2.816,2.639c0.278,3.28,0.077,6.789,1.209,9.771c3.147,8.292,8.515,14.993,15.769,20.289
		c8.273,6.041,19.534,4.751,26.667-0.825c3.767-2.945,4.799-6.3,3.138-10.84c-2.251-6.154-6.168-10.861-11.885-14.194
		C314.593,383.715,305.147,382.034,295.286,381.953z M430.824,664.307c7.504-0.288,14.743-0.521,21.975-0.861
		c4.27-0.2,6.017-1.838,6.4-6.101c0.229-2.538,0.156-5.11,0.112-7.665c-0.108-6.397-1.547-7.845-8.03-8.227
		c-0.597-0.035-1.193-0.066-1.79-0.066c-9.722-0.001-19.445-0.088-29.165,0.054c-3.562,0.052-7.152,0.448-10.666,1.055
		c-3.09,0.534-4.452,2.143-4.565,5.01c-0.138,3.488-0.149,6.996,0.058,10.479c0.208,3.509,1.747,5.201,5.257,5.435
		C417.29,663.876,424.188,664.035,430.824,664.307z M548.417,641.298c-0.001-0.124-0.001-0.248-0.001-0.373
		c-4.771,0-9.543-0.055-14.312,0.049c-0.891,0.02-2.103,0.419-2.599,1.073c-3.717,4.895-4.307,10.46-2.882,16.259
		c0.718,2.923,2.481,4.952,5.812,5.23c10.901,0.913,21.778,0.522,32.609-0.802c4.151-0.509,6.065-2.773,6.413-6.714
		c0.172-1.943,0.113-3.917,0.035-5.871c-0.245-6.178-2.02-8.35-8.229-8.771C559.672,640.997,554.034,641.298,548.417,641.298z
		 M313.537,641.784c-0.004-0.212-0.008-0.423-0.012-0.634c-5.618,0.343-11.246,0.575-16.85,1.071
		c-3.431,0.303-4.435,1.235-4.556,4.672c-0.151,4.329,0.154,8.678,0.358,13.014c0.112,2.376,1.6,3.414,3.884,3.524
		c3.913,0.189,7.826,0.606,11.736,0.578c7.581-0.054,15.161-0.322,22.74-0.562c2.44-0.076,4.101-1.268,4.186-3.875
		c0.132-4.082,0.376-8.185,0.117-12.249c-0.233-3.651-1.632-5.218-5.259-5.45C324.453,641.526,318.986,641.784,313.537,641.784z
		 M518.27,234.681c0.036,3.396,0.656,6.63,2.868,9.342c1.76,2.157,3.679,2.335,5.251,0.163c4.387-6.061,8.631-12.228,12.785-18.45
		c0.411-0.615,0.117-2.551-0.35-2.761c-2.495-1.122-5.305-2.941-7.721-2.585C523.356,221.532,518.343,226.208,518.27,234.681z
		 M632.574,283.921c-0.047-5.357-3.033-9.833-6.965-11.239c-3.109-1.111-5.337-0.493-6.408,2.576
		c-1.732,4.958-3.107,10.057-4.331,15.169c-0.54,2.26,0.633,4.256,2.874,5.141c2.809,1.11,5.662,1.167,8.308-0.609
		C630.26,292.134,632.113,288.004,632.574,283.921z"/>
	<path fill-rule="evenodd" clip-rule="evenodd" d="M413.452,570.246c2.468-0.126,4.935-0.29,7.404-0.369
		c2.322-0.073,3.552-1.337,4.115-3.475c0.216-0.819,0.431-1.682,0.864-2.39c0.854-1.397,1.979-2.146,3.558-0.862
		c1.508,1.229,3.053,1.094,4.755,0.283c3.3-1.57,4.104-1.261,5.934,1.903c4.222,7.304,16.017,8.667,21.964,2.62
		c2.668-2.712,4.507-5.515,4.314-9.638c-0.193-4.147,1.513-5.35,5.685-4.236c10.46,2.793,20.333,6.946,28.522,14.237
		c3.667,3.265,6.896,7.023,10.282,10.597c0.576,0.608,1.082,1.365,1.365,2.146c0.295,0.812,0.281,1.734,0.402,2.609
		c-0.953,0.037-1.995,0.341-2.845,0.062c-2.651-0.871-5.154-2.466-7.853-2.877c-8.954-1.362-17.715-0.809-25.623,4.312
		c-1.053,0.682-1.883,1.709-2.934,2.393c-2.249,1.465-4.518,2.924-6.908,4.125c-0.626,0.314-1.964-0.047-2.579-0.566
		c-5.668-4.79-11.584-3.454-17.137-0.271c-5.587,3.204-9.774,7.868-11.441,14.416c-0.232,0.915-1.351,2.267-2.034,2.252
		c-1.059-0.021-2.451-0.8-3.072-1.694c-1.594-2.299-2.704-4.93-4.253-7.265c-5.642-8.499-11.886-10.453-22.083-9.099
		c-1.128,0.149-2.422,0.63-3.216,1.395c-1.71,1.649-3.186,1.208-4.75-0.005c-2.221-1.723-4.298-3.663-6.648-5.183
		c-9.463-6.118-19.6-6.123-30.011-2.974c-1.795,0.542-3.543,1.252-5.355,1.719c-0.743,0.191-1.598-0.056-2.403-0.104
		c0.127-0.884-0.032-1.977,0.433-2.615c1.648-2.271,3.403-4.485,5.307-6.546c8.586-9.295,18.486-16.62,30.929-19.901
		c2.351-0.62,4.843-0.74,7.281-0.98c1.651-0.162,2.216,0.814,2.205,2.374c-0.069,9.212,4.354,13.629,13.52,13.557
		c0.767-0.006,1.535-0.001,2.302-0.001C413.449,570.213,413.45,570.229,413.452,570.246z"/>
</g>
</svg>
