<?xml version="1.0" encoding="utf-8"?>

<svg 
  xmlns="http://www.w3.org/2000/svg" 
  xmlns:xlink="http://www.w3.org/1999/xlink" 
  height="640" 
  width="640" 
  viewBox="-64 -64 640 640">


  <!-- 動畫 小圓 -->
  <!-- repeatCount="indefinite" -->
  <path d="M 256 576 A 32 32 0 1 1 256.99 576" stroke="#00F1" fill="none" pathLength="100" stroke-dasharray="100" stroke-dashoffset="100">
    <animate attributeName="stroke-dashoffset" to="0" begin="0s" dur="1s" repeatCount="1" fill="freeze"/>
  </path>

  <path d="M 256 544 A 32 32 0 1 1 256.99 544" stroke="#00F1" fill="none" pathLength="100" stroke-dasharray="100" stroke-dashoffset="100">
    <animate attributeName="stroke-dashoffset" to="0" begin="1s" dur="1s" repeatCount="1" fill="freeze"/>
  </path>

  <path d="M 256 512 A 32 32 0 1 1 256.99 512" stroke="#00F1" fill="none" pathLength="100" stroke-dasharray="100" stroke-dashoffset="100">
    <animate attributeName="stroke-dashoffset" to="0" begin="2s" dur="1s" repeatCount="1" fill="freeze"/>
  </path>

  <path d="M 256 480 A 32 32 0 1 1 256.99 480" stroke="#00F1" fill="none" pathLength="100" stroke-dasharray="100" stroke-dashoffset="100">
    <animate attributeName="stroke-dashoffset" to="0" begin="3s" dur="1s" repeatCount="1" fill="freeze"/>
  </path>

  <path d="M 256 448 A 32 32 0 1 1 256.99 448" stroke="#00F1" fill="none" pathLength="100" stroke-dasharray="100" stroke-dashoffset="100">
    <animate attributeName="stroke-dashoffset" to="0" begin="4s" dur="1s" repeatCount="1" fill="freeze"/>
  </path>

  <path d="M 256 416 A 32 32 0 1 1 256.99 416" stroke="#00F1" fill="none" pathLength="100" stroke-dasharray="100" stroke-dashoffset="100">
    <animate attributeName="stroke-dashoffset" to="0" begin="5s" dur="1s" repeatCount="1" fill="freeze"/>
  </path>

  <path d="M 256 384 A 32 32 0 1 1 256.99 384" stroke="#00F1" fill="none" pathLength="100" stroke-dasharray="100" stroke-dashoffset="100">
    <animate attributeName="stroke-dashoffset" to="0" begin="6s" dur="1s" repeatCount="1" fill="freeze"/>
  </path>

  <path d="M 256 352 A 32 32 0 1 1 256.99 352" stroke="#00F1" fill="none" pathLength="100" stroke-dasharray="100" stroke-dashoffset="100">
    <animate attributeName="stroke-dashoffset" to="0" begin="7s" dur="1s" repeatCount="1" fill="freeze"/>
  </path>

  <path d="M 256 320 A 32 32 0 1 1 256.99 320" stroke="#00F1" fill="none" pathLength="100" stroke-dasharray="100" stroke-dashoffset="100">
    <animate attributeName="stroke-dashoffset" to="0" begin="8s" dur="1s" repeatCount="1" fill="freeze"/>
  </path>

  <path d="M 256 288 A 32 32 0 1 1 256.99 288" stroke="#00F1" fill="none" pathLength="100" stroke-dasharray="100" stroke-dashoffset="100">
    <animate attributeName="stroke-dashoffset" to="0" begin="9s" dur="1s" repeatCount="1" fill="freeze"/>
  </path>

  <path d="M 256 256 A 32 32 0 1 1 256.99 256" stroke="#00F1" fill="none" pathLength="100" stroke-dasharray="100" stroke-dashoffset="100">
    <animate attributeName="stroke-dashoffset" to="0" begin="10s" dur="1s" repeatCount="1" fill="freeze"/>
  </path>

  <path d="M 256 224 A 32 32 0 1 1 256.99 224" stroke="#00F1" fill="none" pathLength="100" stroke-dasharray="100" stroke-dashoffset="100">
    <animate attributeName="stroke-dashoffset" to="0" begin="11s" dur="1s" repeatCount="1" fill="freeze"/>
  </path>

  <path d="M 256 192 A 32 32 0 1 1 256.99 192" stroke="#00F1" fill="none" pathLength="100" stroke-dasharray="100" stroke-dashoffset="100">
    <animate attributeName="stroke-dashoffset" to="0" begin="12s" dur="1s" repeatCount="1" fill="freeze"/>
  </path>

  <path d="M 256 160 A 32 32 0 1 1 256.99 160" stroke="#00F1" fill="none" pathLength="100" stroke-dasharray="100" stroke-dashoffset="100">
    <animate attributeName="stroke-dashoffset" to="0" begin="13s" dur="1s" repeatCount="1" fill="freeze"/>
  </path>

  <path d="M 256 128 A 32 32 0 1 1 256.99 128" stroke="#00F1" fill="none" pathLength="100" stroke-dasharray="100" stroke-dashoffset="100">
    <animate attributeName="stroke-dashoffset" to="0" begin="14s" dur="1s" repeatCount="1" fill="freeze"/>
  </path>

  <path d="M 256  96 A 32 32 0 1 1 256.99  96" stroke="#00F1" fill="none" pathLength="100" stroke-dasharray="100" stroke-dashoffset="100">
    <animate attributeName="stroke-dashoffset" to="0" begin="15s" dur="1s" repeatCount="1" fill="freeze"/>
  </path>

  <path d="M 256  64 A 32 32 0 1 1 256.99  64" stroke="#00F1" fill="none" pathLength="100" stroke-dasharray="100" stroke-dashoffset="100">
    <animate attributeName="stroke-dashoffset" to="0" begin="16s" dur="1s" repeatCount="1" fill="freeze"/>
  </path>

  <path d="M 256  32 A 32 32 0 1 1 256.99  32" stroke="#00F1" fill="none" pathLength="100" stroke-dasharray="100" stroke-dashoffset="100">
    <animate attributeName="stroke-dashoffset" to="0" begin="17s" dur="1s" repeatCount="1" fill="freeze"/>
  </path>

  <path d="M 256   0 A 32 32 0 1 1 256.99   0" stroke="#00F1" fill="none" pathLength="100" stroke-dasharray="100" stroke-dashoffset="100">
    <animate attributeName="stroke-dashoffset" to="0" begin="18s" dur="1s" repeatCount="1" fill="freeze"/>
  </path>

  <!-- 動畫 大圓 -->

  <circle cx="256" cy="256" r="64" fill="#2EA9DF" stroke="#00F" stroke-width="5" pathLength="100" stroke-dasharray="100" stroke-dashoffset="100" transform="rotate(90,256,256)">
    <animate attributeName="stroke-dashoffset" to="0" begin="0s" dur="2s" repeatCount="1" fill="freeze"/>
  </circle>
 
  <path d="M 256 576 A 320 320 0 1 1 256.01 576" stroke="#00F" fill="none" stroke-width="2" pathLength="100" stroke-dasharray="100" stroke-dashoffset="100">
    <animate attributeName="stroke-dashoffset" to="0" begin="0s" dur="3s" repeatCount="1" fill="freeze"/>
  </path>

  <!-- 動畫 大圓 -->



</svg>




    