<?xml version="1.0" encoding="UTF-8" standalone="no"?>
<svg
   xmlns:dc="http://purl.org/dc/elements/1.1/"
   xmlns:cc="http://creativecommons.org/ns#"
   xmlns:rdf="http://www.w3.org/1999/02/22-rdf-syntax-ns#"
   xmlns:svg="http://www.w3.org/2000/svg"
   xmlns="http://www.w3.org/2000/svg"
   id="svg1405"
   version="1.1"
   viewBox="0 0 121.621 121.6234"
   height="121.6234mm"
   width="121.621mm">
  <defs
     id="defs1399" />
  <metadata
     id="metadata1402">
    <rdf:RDF>
      <cc:Work
         rdf:about="">
        <dc:format>image/svg+xml</dc:format>
        <dc:type
           rdf:resource="http://purl.org/dc/dcmitype/StillImage" />
        <dc:title></dc:title>
      </cc:Work>
    </rdf:RDF>
  </metadata>
  <g
     transform="translate(-42.754974,-53.337111)"
     id="layer1">
    <g
       id="Waseda_University_Logo.svg"
       transform="matrix(0.3846064,0,0,0.38460667,103.56663,114.14881)"
       style="clip-rule:evenodd;fill-rule:evenodd">
      <g
         transform="translate(-158.114,-158.114)"
         id="g1009">
        <g
           id="g1007">
          <path
             d="M 158.119,0 316.222,158.203 158.119,316.228 0,158.203 Z"
             style="fill:#881c28;fill-rule:nonzero"
             id="path835" />
          <g
             transform="translate(73.7865,152.843)"
             id="g1005">
            <g
               transform="translate(89.5979,21.0819)"
               id="g903">
              <path
                 d="m 52.789,21.925 c 0,0 10.346,10.662 -11.052,32.071"
                 style="fill:none;stroke:#ffffff;stroke-width:1.14px"
                 id="path837" />
              <g
                 transform="translate(15.8114,21.0819)"
                 id="g843">
                <path
                   d="m 1.871,47.555 c 0,0 15.458,-6.519 25.419,-25.904 7.516,-14.625 14.162,-18.9 21.341,-17.767 0,0 -8.649,-2.472 -16.37,22.716 C 24.845,50.607 3.579,51.519 3.579,51.519 Z"
                   style="fill:#ffffff;fill-rule:nonzero;stroke:#881c28;stroke-width:0.5px;stroke-linecap:round"
                   id="path839" />
                <path
                   d="m 48.631,3.879 c 0,0 -8.344,-3.062 -18.068,18.104 C 20.792,43.17 8.538,48.256 8.538,48.256"
                   style="fill:none;stroke:#881c28;stroke-width:0.5px;stroke-linecap:round"
                   id="path841" />
              </g>
              <g
                 transform="translate(0,21.0819)"
                 id="g849">
                <path
                   d="m 10.862,52.689 c 0,0 21.109,-5.534 32.414,-19.596 7.89,-9.845 18.072,-33.135 30.684,-30.906 0,0 -9.028,2.409 -16.159,18.104 C 49.89,37.557 43.444,44.778 33.794,50.913 25.725,55.978 15.89,58.355 5.023,59.93 Z"
                   style="fill:#ffffff;fill-rule:nonzero;stroke:#881c28;stroke-width:0.5px;stroke-linecap:round"
                   id="path845" />
                <path
                   d="m 6.441,56.968 c 0,0 26.204,-2.809 39.929,-22.204 C 57.227,19.385 60.689,3.953 73.955,2.193"
                   style="fill:none;stroke:#881c28;stroke-width:0.5px;stroke-linecap:round"
                   id="path847" />
              </g>
              <g
                 transform="translate(5.27046,26.3523)"
                 id="g861">
                <path
                   d="m 28.777,4.933 c 0,0 -9.234,-2.224 -15.464,23.085 0,0 16.238,-25.989 23.016,-18.294 0.006,0 0.322,-1.602 -7.552,-4.791 z"
                   style="fill:#ffffff;fill-rule:nonzero"
                   id="path851" />
                <g
                   id="g859">
                  <path
                     d="m 13.318,28.018 c 0,0 12.123,-28.313 20.65,-20.276"
                     style="fill:none;stroke:#881c28;stroke-width:0.5px"
                     id="path853" />
                  <path
                     d="m 5.339,43.018 c 0,0 7.31,-3.553 15.785,-11.848 7.742,-7.622 14.004,-20.777 9.192,-25.652 0,0 2.735,0.453 6.498,3.858 0,0 5.993,17.509 -31.739,41.284 z"
                     style="fill:#ffffff;fill-rule:nonzero;stroke:#881c28;stroke-width:0.5px;stroke-linecap:round"
                     id="path855" />
                  <path
                     d="m 34.132,7.3 c 0,0 7.42,17.255 -29.436,39.95"
                     style="fill:none;stroke:#881c28;stroke-width:0.5px;stroke-linecap:round"
                     id="path857" />
                </g>
              </g>
              <g
                 transform="translate(15.8114)"
                 id="g901">
                <path
                   d="m 10.251,19.053 c 1.918,1.323 1.186,5.365 -4.042,6.561 -1.613,0.422 -2.599,2.214 -2.599,2.214 0,0 1.081,-1.302 1.128,-3.083 0.111,-6.04 3.689,-7.015 5.513,-5.692 z"
                   style="fill:#ffffff;fill-rule:nonzero;stroke:#881c28;stroke-width:0.5px;stroke-linecap:round"
                   id="path863" />
                <path
                   d="m 11.437,13.329 c 1.95,1.655 1.112,5.766 -4.454,6.351 -1.76,0.169 -2.83,1.908 -2.83,1.908 0,0 1.16,-1.218 1.233,-3.052 0.248,-6.266 4.101,-6.825 6.051,-5.207 z"
                   style="fill:#ffffff;fill-rule:nonzero;stroke:#881c28;stroke-width:0.5px;stroke-linecap:round"
                   id="path865" />
                <path
                   d="m 15.743,15.4 c 2.134,1.376 1.85,5.534 -3.663,6.847 -1.681,0.4 -2.519,2.234 -2.519,2.234 0,0 0.99,-1.312 0.838,-3.146 -0.527,-6.256 3.178,-7.273 5.344,-5.935 z"
                   style="fill:#ffffff;fill-rule:nonzero;stroke:#881c28;stroke-width:0.5px;stroke-linecap:round"
                   id="path867" />
                <path
                   d="M 14.378,5.234 C 14.815,7.748 11.6,10.383 6.867,7.226 5.423,6.261 3.542,6.878 3.542,6.878 c 0,0 1.628,-0.179 2.893,-1.55 4.196,-4.622 7.521,-2.587 7.943,-0.094 z"
                   style="fill:#ffffff;fill-rule:nonzero;stroke:#881c28;stroke-width:0.5px;stroke-linecap:round"
                   id="path869" />
                <path
                   d="m 14.515,9.771 c 0.822,2.404 -1.966,5.503 -7.073,3.168 -1.587,-0.764 -3.378,0.19 -3.378,0.19 0,0 1.602,-0.475 2.624,-2.014 3.458,-5.223 7.02,-3.678 7.827,-1.344 z"
                   style="fill:#ffffff;fill-rule:nonzero;stroke:#881c28;stroke-width:0.5px;stroke-linecap:round"
                   id="path871" />
                <path
                   d="m 19.901,8.422 c -0.052,2.535 -3.763,4.475 -7.726,0.533 -1.234,-1.25 -3.257,-1.028 -3.257,-1.028 0,0 1.66,0.158 3.167,-0.954 5.023,-3.732 7.885,-1.081 7.816,1.449 z"
                   style="fill:#ffffff;fill-rule:nonzero;stroke:#881c28;stroke-width:0.5px;stroke-linecap:round"
                   id="path873" />
                <path
                   d="m 20.934,13.023 c 0.485,2.535 -2.746,5.192 -7.463,2.108 -1.454,-0.975 -3.389,-0.337 -3.389,-0.337 0,0 1.666,-0.168 2.894,-1.523 4.195,-4.68 7.484,-2.672 7.958,-0.248 z"
                   style="fill:#ffffff;fill-rule:nonzero;stroke:#881c28;stroke-width:0.5px;stroke-linecap:round"
                   id="path875" />
                <path
                   d="m 23.359,17.198 c 1.08,2.308 -1.392,5.692 -6.725,3.847 -1.661,-0.564 -3.358,0.564 -3.358,0.564 0,0 1.555,-0.617 2.404,-2.256 2.888,-5.544 6.625,-4.474 7.679,-2.155 z"
                   style="fill:#ffffff;fill-rule:nonzero;stroke:#881c28;stroke-width:0.5px;stroke-linecap:round"
                   id="path877" />
                <path
                   d="m 24.613,11.147 c -1.528,2.077 -5.645,1.507 -6.62,-4.037 -0.29,-1.729 -2.081,-2.672 -2.081,-2.672 0,0 1.275,1.07 3.146,1.027 6.198,-0.137 7.036,3.648 5.555,5.682 z"
                   style="fill:#ffffff;fill-rule:nonzero;stroke:#881c28;stroke-width:0.5px;stroke-linecap:round"
                   id="path879" />
                <path
                   d="m 27.227,15.4 c -1.117,2.33 -5.26,2.525 -7.226,-2.746 -0.632,-1.591 -2.619,-2.234 -2.619,-2.234 0,0 1.523,0.806 3.305,0.411 6.097,-1.297 7.626,2.287 6.54,4.569 z"
                   style="fill:#ffffff;fill-rule:nonzero;stroke:#881c28;stroke-width:0.5px;stroke-linecap:round"
                   id="path881" />
                <path
                   d="M 31.301,12.718 C 29.515,14.541 25.53,13.45 25.24,7.842 25.203,6.093 23.543,4.917 23.543,4.917 c 0,0 1.144,1.207 2.946,1.423 6.256,0.696 6.552,4.565 4.812,6.378 z"
                   style="fill:#ffffff;fill-rule:nonzero;stroke:#881c28;stroke-width:0.5px;stroke-linecap:round"
                   id="path883" />
                <path
                   d="M 35.902,15.738 C 33.478,16.586 30.395,13.756 32.803,8.67 33.531,7.099 32.614,5.286 32.614,5.286 c 0,0 0.427,1.592 1.987,2.63 5.202,3.442 3.715,7.015 1.301,7.822 z"
                   style="fill:#ffffff;fill-rule:nonzero;stroke:#881c28;stroke-width:0.5px;stroke-linecap:round"
                   id="path885" />
                <path
                   d="m 30.316,27.406 c 0.785,2.43 -2.072,5.429 -7.158,2.999 -1.554,-0.774 -3.388,0.095 -3.388,0.095 0,0 1.644,-0.4 2.698,-1.908 3.531,-5.16 7.078,-3.61 7.848,-1.186 z"
                   style="fill:#ffffff;fill-rule:nonzero;stroke:#881c28;stroke-width:0.5px;stroke-linecap:round"
                   id="path887" />
                <path
                   d="m 27.933,22.974 c 0.78,2.44 -2.097,5.407 -7.136,2.978 -1.555,-0.743 -3.42,0.105 -3.42,0.105 0,0 1.639,-0.39 2.693,-1.939 3.547,-5.139 7.11,-3.568 7.863,-1.144 z"
                   style="fill:#ffffff;fill-rule:nonzero;stroke:#881c28;stroke-width:0.5px;stroke-linecap:round"
                   id="path889" />
                <path
                   d="m 31.175,19.87 c -0.343,2.545 -4.232,4.058 -7.748,-0.317 -1.075,-1.375 -3.146,-1.333 -3.146,-1.333 0,0 1.67,0.316 3.246,-0.617 5.434,-3.146 7.953,-0.221 7.648,2.267 z"
                   style="fill:#ffffff;fill-rule:nonzero;stroke:#881c28;stroke-width:0.5px;stroke-linecap:round"
                   id="path891" />
                <path
                   d="m 34.079,23.633 c 0.79,2.472 -2.093,5.47 -7.136,2.978 -1.55,-0.765 -3.416,0.147 -3.416,0.147 0,0 1.629,-0.39 2.704,-1.96 3.531,-5.118 7.073,-3.516 7.848,-1.165 z"
                   style="fill:#ffffff;fill-rule:nonzero;stroke:#881c28;stroke-width:0.5px;stroke-linecap:round"
                   id="path893" />
                <path
                   d="m 34.39,17.403 c -1.139,2.319 -5.287,2.546 -7.268,-2.683 -0.633,-1.644 -2.535,-2.255 -2.535,-2.255 0,0 1.47,0.806 3.288,0.469 6.083,-1.371 7.569,2.219 6.515,4.469 z"
                   style="fill:#ffffff;fill-rule:nonzero;stroke:#881c28;stroke-width:0.5px;stroke-linecap:round"
                   id="path895" />
                <path
                   d="m 38.975,21.872 c -2.414,0.87 -5.497,-1.96 -3.115,-7.078 0.701,-1.57 -0.2,-3.368 -0.2,-3.368 0,0 0.432,1.56 1.966,2.63 5.254,3.442 3.752,7.042 1.349,7.816 z"
                   style="fill:#ffffff;fill-rule:nonzero;stroke:#881c28;stroke-width:0.5px;stroke-linecap:round"
                   id="path897" />
                <path
                   d="m 37.436,22.89 c -1.07,2.329 -5.255,2.566 -7.236,-2.715 -0.601,-1.634 -2.567,-2.234 -2.567,-2.234 0,0 1.465,0.817 3.289,0.421 6.135,-1.333 7.6,2.24 6.514,4.528 z"
                   style="fill:#ffffff;fill-rule:nonzero;stroke:#881c28;stroke-width:0.5px;stroke-linecap:round"
                   id="path899" />
              </g>
            </g>
            <g
               transform="translate(0,21.0819)"
               id="g971">
              <path
                 d="m 26.331,21.925 c 0,0 -10.34,10.662 11.063,32.071"
                 style="fill:none;stroke:#ffffff;stroke-width:1.14px"
                 id="path905" />
              <g
                 transform="translate(10.5409,21.0819)"
                 id="g911">
                <path
                   d="m 50.876,47.555 c 0,0 -15.422,-6.519 -25.372,-25.904 C 17.956,7.026 11.305,2.751 4.153,3.884 c 0,0 8.649,-2.472 16.375,22.716 7.411,24.007 28.645,24.919 28.645,24.919 z"
                   style="fill:#ffffff;fill-rule:nonzero;stroke:#881c28;stroke-width:0.5px;stroke-linecap:round"
                   id="path907" />
                <path
                   d="m 4.158,3.879 c 0,0 8.317,-3.062 18.052,18.104 9.761,21.187 22.025,26.273 22.025,26.273"
                   style="fill:none;stroke:#881c28;stroke-width:0.5px;stroke-linecap:round"
                   id="path909" />
              </g>
              <g
                 transform="translate(0,21.0819)"
                 id="g917">
                <path
                   d="m 68.274,52.689 c 0,0 -21.114,-5.534 -32.435,-19.596 C 27.965,23.248 17.788,-0.042 5.16,2.187 c 0,0 9.049,2.409 16.206,18.104 7.906,17.266 14.289,24.487 23.986,30.622 8.033,5.065 17.909,7.442 28.719,9.017 z"
                   style="fill:#ffffff;fill-rule:nonzero;stroke:#881c28;stroke-width:0.5px;stroke-linecap:round"
                   id="path913" />
                <path
                   d="m 72.669,56.968 c 0,0 -26.168,-2.809 -39.918,-22.204 C 21.883,19.385 18.415,3.953 5.16,2.193"
                   style="fill:none;stroke:#881c28;stroke-width:0.5px;stroke-linecap:round"
                   id="path915" />
              </g>
              <g
                 transform="translate(31.6228,26.3523)"
                 id="g929">
                <path
                   d="m 13.492,4.933 c 0,0 9.16,-2.224 15.469,23.085 0,0 -16.301,-25.989 -23.063,-18.294 -0.006,0 -0.285,-1.602 7.594,-4.791 z"
                   style="fill:#ffffff;fill-rule:nonzero"
                   id="path919" />
                <g
                   id="g927">
                  <path
                     d="m 28.961,28.018 c 0,0 -12.148,-28.313 -20.713,-20.276"
                     style="fill:none;stroke:#881c28;stroke-width:0.5px"
                     id="path921" />
                  <path
                     d="m 36.893,43.018 c 0,0 -7.299,-3.553 -15.785,-11.848 C 13.35,23.548 7.094,10.393 11.911,5.518 c 0,0 -2.709,0.453 -6.498,3.858 0,0 -6.009,17.509 31.728,41.284 z"
                     style="fill:#ffffff;fill-rule:nonzero;stroke:#881c28;stroke-width:0.5px;stroke-linecap:round"
                     id="path923" />
                  <path
                     d="m 8.106,7.3 c 0,0 -7.426,17.255 29.446,39.95"
                     style="fill:none;stroke:#881c28;stroke-width:0.5px;stroke-linecap:round"
                     id="path925" />
                </g>
              </g>
              <g
                 transform="translate(21.0819)"
                 id="g969">
                <path
                   d="m 31.981,19.053 c -1.866,1.323 -1.17,5.365 4.032,6.561 1.629,0.422 2.598,2.214 2.598,2.214 0,0 -1.064,-1.302 -1.085,-3.083 -0.153,-6.04 -3.69,-7.015 -5.545,-5.692 z"
                   style="fill:#ffffff;fill-rule:nonzero;stroke:#881c28;stroke-width:0.5px;stroke-linecap:round"
                   id="path931" />
                <path
                   d="m 30.806,13.329 c -1.929,1.655 -1.107,5.766 4.464,6.351 1.734,0.169 2.835,1.908 2.835,1.908 0,0 -1.191,-1.218 -1.264,-3.052 -0.253,-6.266 -4.101,-6.825 -6.035,-5.207 z"
                   style="fill:#ffffff;fill-rule:nonzero;stroke:#881c28;stroke-width:0.5px;stroke-linecap:round"
                   id="path933" />
                <path
                   d="m 26.5,15.4 c -2.172,1.376 -1.818,5.534 3.631,6.847 1.697,0.4 2.514,2.234 2.514,2.234 0,0 -0.943,-1.312 -0.796,-3.146 C 32.392,15.079 28.645,14.062 26.5,15.4 Z"
                   style="fill:#ffffff;fill-rule:nonzero;stroke:#881c28;stroke-width:0.5px;stroke-linecap:round"
                   id="path935" />
                <path
                   d="m 27.865,5.234 c -0.448,2.514 2.788,5.149 7.484,1.992 1.444,-0.965 3.352,-0.348 3.352,-0.348 0,0 -1.634,-0.179 -2.899,-1.55 -4.2,-4.622 -7.515,-2.587 -7.937,-0.094 z"
                   style="fill:#ffffff;fill-rule:nonzero;stroke:#881c28;stroke-width:0.5px;stroke-linecap:round"
                   id="path937" />
                <path
                   d="m 27.696,9.771 c -0.801,2.404 2.003,5.503 7.079,3.168 1.581,-0.764 3.42,0.19 3.42,0.19 0,0 -1.629,-0.475 -2.656,-2.014 C 32.102,5.892 28.54,7.437 27.696,9.771 Z"
                   style="fill:#ffffff;fill-rule:nonzero;stroke:#881c28;stroke-width:0.5px;stroke-linecap:round"
                   id="path939" />
                <path
                   d="m 22.357,8.422 c 0.037,2.535 3.721,4.475 7.722,0.533 1.228,-1.25 3.225,-1.028 3.225,-1.028 0,0 -1.634,0.158 -3.152,-0.954 -4.996,-3.732 -7.847,-1.081 -7.795,1.449 z"
                   style="fill:#ffffff;fill-rule:nonzero;stroke:#881c28;stroke-width:0.5px;stroke-linecap:round"
                   id="path941" />
                <path
                   d="m 21.303,13.023 c -0.49,2.535 2.783,5.192 7.432,2.108 1.502,-0.975 3.404,-0.337 3.404,-0.337 0,0 -1.655,-0.168 -2.898,-1.523 -4.159,-4.68 -7.453,-2.672 -7.938,-0.248 z"
                   style="fill:#ffffff;fill-rule:nonzero;stroke:#881c28;stroke-width:0.5px;stroke-linecap:round"
                   id="path943" />
                <path
                   d="m 18.895,17.198 c -1.076,2.308 1.38,5.692 6.735,3.847 1.608,-0.564 3.31,0.564 3.31,0.564 0,0 -1.523,-0.617 -2.408,-2.256 -2.862,-5.544 -6.583,-4.474 -7.637,-2.155 z"
                   style="fill:#ffffff;fill-rule:nonzero;stroke:#881c28;stroke-width:0.5px;stroke-linecap:round"
                   id="path945" />
                <path
                   d="m 17.609,11.147 c 1.523,2.077 5.65,1.507 6.625,-4.037 0.311,-1.729 2.076,-2.672 2.076,-2.672 0,0 -1.265,1.07 -3.131,1.027 -6.261,-0.137 -7.025,3.648 -5.57,5.682 z"
                   style="fill:#ffffff;fill-rule:nonzero;stroke:#881c28;stroke-width:0.5px;stroke-linecap:round"
                   id="path947" />
                <path
                   d="m 14.989,15.4 c 1.112,2.33 5.286,2.525 7.268,-2.746 0.633,-1.591 2.551,-2.234 2.551,-2.234 0,0 -1.47,0.806 -3.247,0.411 -6.15,-1.297 -7.605,2.287 -6.572,4.569 z"
                   style="fill:#ffffff;fill-rule:nonzero;stroke:#881c28;stroke-width:0.5px;stroke-linecap:round"
                   id="path949" />
                <path
                   d="m 10.931,12.718 c 1.781,1.823 5.797,0.732 6.024,-4.876 0.053,-1.749 1.745,-2.925 1.745,-2.925 0,0 -1.155,1.207 -2.973,1.423 -6.23,0.696 -6.541,4.565 -4.796,6.378 z"
                   style="fill:#ffffff;fill-rule:nonzero;stroke:#881c28;stroke-width:0.5px;stroke-linecap:round"
                   id="path951" />
                <path
                   d="M 6.34,15.738 C 8.744,16.586 11.822,13.756 9.445,8.67 8.712,7.099 9.634,5.286 9.634,5.286 c 0,0 -0.421,1.592 -1.992,2.63 -5.202,3.442 -3.71,7.015 -1.302,7.822 z"
                   style="fill:#ffffff;fill-rule:nonzero;stroke:#881c28;stroke-width:0.5px;stroke-linecap:round"
                   id="path953" />
                <path
                   d="m 11.901,27.406 c -0.796,2.43 2.082,5.429 7.141,2.999 1.571,-0.774 3.405,0.095 3.405,0.095 0,0 -1.639,-0.4 -2.688,-1.908 -3.521,-5.16 -7.084,-3.61 -7.858,-1.186 z"
                   style="fill:#ffffff;fill-rule:nonzero;stroke:#881c28;stroke-width:0.5px;stroke-linecap:round"
                   id="path955" />
                <path
                   d="m 14.304,22.974 c -0.78,2.44 2.129,5.407 7.094,2.978 1.608,-0.743 3.41,0.105 3.41,0.105 0,0 -1.607,-0.39 -2.656,-1.939 -3.526,-5.139 -7.094,-3.568 -7.848,-1.144 z"
                   style="fill:#ffffff;fill-rule:nonzero;stroke:#881c28;stroke-width:0.5px;stroke-linecap:round"
                   id="path957" />
                <path
                   d="m 11.084,19.87 c 0.284,2.545 4.174,4.058 7.695,-0.317 1.112,-1.375 3.162,-1.333 3.162,-1.333 0,0 -1.629,0.316 -3.231,-0.617 -5.428,-3.146 -7.974,-0.221 -7.626,2.267 z"
                   style="fill:#ffffff;fill-rule:nonzero;stroke:#881c28;stroke-width:0.5px;stroke-linecap:round"
                   id="path959" />
                <path
                   d="m 8.185,23.633 c -0.822,2.472 2.066,5.47 7.115,2.978 1.571,-0.765 3.41,0.147 3.41,0.147 0,0 -1.66,-0.39 -2.73,-1.96 C 12.465,19.68 8.928,21.282 8.185,23.633 Z"
                   style="fill:#ffffff;fill-rule:nonzero;stroke:#881c28;stroke-width:0.5px;stroke-linecap:round"
                   id="path961" />
                <path
                   d="m 7.842,17.403 c 1.113,2.319 5.287,2.546 7.242,-2.683 0.633,-1.644 2.546,-2.255 2.546,-2.255 0,0 -1.439,0.806 -3.226,0.469 -6.129,-1.371 -7.637,2.219 -6.562,4.469 z"
                   style="fill:#ffffff;fill-rule:nonzero;stroke:#881c28;stroke-width:0.5px;stroke-linecap:round"
                   id="path963" />
                <path
                   d="m 3.252,21.872 c 2.435,0.87 5.497,-1.96 3.146,-7.078 -0.722,-1.57 0.19,-3.368 0.19,-3.368 0,0 -0.448,1.56 -1.992,2.63 -5.228,3.442 -3.711,7.042 -1.344,7.816 z"
                   style="fill:#ffffff;fill-rule:nonzero;stroke:#881c28;stroke-width:0.5px;stroke-linecap:round"
                   id="path965" />
                <path
                   d="m 4.77,22.89 c 1.091,2.329 5.26,2.566 7.273,-2.715 0.59,-1.634 2.525,-2.234 2.525,-2.234 0,0 -1.434,0.817 -3.252,0.421 C 5.191,17.029 3.7,20.602 4.77,22.89 Z"
                   style="fill:#ffffff;fill-rule:nonzero;stroke:#881c28;stroke-width:0.5px;stroke-linecap:round"
                   id="path967" />
              </g>
            </g>
            <path
               d="m 75.547,97.435 c 0,0 -7.837,5.097 -16.723,2.361 0,0 7.816,4.101 5.444,11.279 0,0 13.64,-3.753 17.076,-10.251 3.389,-6.472 -5.797,-3.389 -5.797,-3.389 z"
               style="fill:#ffffff;fill-rule:nonzero;stroke:#881c28;stroke-width:0.75px"
               id="path973" />
            <path
               d="m 80.211,91.817 c 0,0 -13.656,-8.607 -13.656,-3.953 v 10.23 c 0,0 6.963,3.399 14.805,0.348 z"
               style="fill:#ffffff;fill-rule:nonzero;stroke:#881c28;stroke-width:0.75px"
               id="path975" />
            <path
               d="m 66.555,87.579 c 0,0 -0.922,5.418 13.83,5.418"
               style="fill:none;stroke:#881c28;stroke-width:0.75px"
               id="path977" />
            <g
               transform="translate(57.9751)"
               id="g993">
              <path
                 d="M 45.816,55.624 H 6.52 c -1.049,0 -1.898,0.86 -1.898,1.929 v 18.094 c 0,1.049 0.849,1.887 1.898,1.887 1.043,0 1.897,-0.838 1.897,-1.887 V 59.419 h 35.481 v 16.228 c 0,1.049 0.875,1.887 1.918,1.887 1.059,0 1.903,-0.838 1.903,-1.887 V 57.553 c 0,-1.064 -0.844,-1.929 -1.903,-1.929 z"
                 style="fill:#ffffff;fill-rule:nonzero"
                 id="path979" />
              <path
                 d="m 5.592,31.881 c -1.133,0.553 -1.576,1.918 -1.017,3.052 0.58,1.122 1.945,1.581 3.083,0.985 0,0 16.67,-8.469 18.531,-9.402 1.845,0.933 18.457,9.402 18.457,9.402 1.139,0.596 2.504,0.137 3.073,-0.985 0.564,-1.134 0.116,-2.493 -0.996,-3.052 L 28.439,22.542 v -9.329 h 14.636 v 11.426 c 0,1.26 1.039,2.288 2.298,2.288 1.265,0 2.283,-1.028 2.283,-2.288 V 10.957 c 0,-1.28 -1.012,-2.287 -2.283,-2.287 H 28.445 V 6.562 c 0,-1.27 -1.033,-2.288 -2.277,-2.288 -1.265,0 -2.282,1.018 -2.282,2.288 V 8.67 H 6.883 c -1.27,0 -2.282,1.007 -2.282,2.287 v 13.682 c 0,1.26 1.012,2.288 2.282,2.288 1.276,0 2.298,-1.028 2.298,-2.288 V 13.213 h 14.705 v 9.35 z"
                 style="fill:#ffffff;fill-rule:nonzero"
                 id="path981" />
              <path
                 d="m 45.911,37.167 c -1.012,0 -1.824,0.807 -1.871,1.845 h -8.586 c -1.054,0 -1.908,0.827 -1.908,1.887 0,1.038 0.849,1.897 1.908,1.897 h 8.56 v 2.003 h -8.56 c -1.054,0 -1.908,0.848 -1.908,1.887 0,1.07 0.849,1.897 1.908,1.897 h 8.56 v 1.982 h -8.56 c -1.054,0 -1.908,0.891 -1.908,1.929 0,1.038 0.849,1.887 1.908,1.887 h 10.457 c 1.044,0 1.903,-0.849 1.903,-1.887 V 39.086 c 0,-1.039 -0.859,-1.919 -1.903,-1.919 z"
                 style="fill:#ffffff;fill-rule:nonzero"
                 id="path983" />
              <path
                 d="m 6.393,54.381 h 10.441 c 1.064,0 1.908,-0.849 1.908,-1.887 0,-1.038 -0.849,-1.929 -1.908,-1.929 H 8.301 v -1.982 h 8.533 c 1.064,0 1.908,-0.827 1.908,-1.897 0,-1.039 -0.849,-1.887 -1.908,-1.887 H 8.301 v -2.003 h 8.533 c 1.064,0 1.908,-0.859 1.908,-1.897 0,-1.06 -0.849,-1.887 -1.908,-1.887 H 8.269 C 8.222,37.974 7.4,37.167 6.393,37.167 c -1.038,0 -1.908,0.88 -1.908,1.919 v 13.408 c 0,1.038 0.865,1.887 1.908,1.887 z"
                 style="fill:#ffffff;fill-rule:nonzero"
                 id="path985" />
              <path
                 d="m 32.303,39.012 c -0.38,-0.764 -1.313,-1.059 -2.061,-0.701 l -3.995,2.098 -4.016,-2.098 c -0.77,-0.358 -1.692,-0.063 -2.045,0.701 -0.401,0.69 -0.106,1.644 0.643,2.024 l 2.071,1.091 -2.071,1.028 c -0.749,0.379 -1.038,1.291 -0.643,2.044 0.353,0.754 1.275,1.049 2.045,0.67 l 4.016,-2.077 3.995,2.077 c 0.754,0.379 1.686,0.084 2.061,-0.67 0.39,-0.753 0.095,-1.665 -0.654,-2.044 l -2.066,-1.028 2.066,-1.091 c 0.749,-0.38 1.044,-1.334 0.654,-2.024 z"
                 style="fill:#ffffff;fill-rule:nonzero"
                 id="path987" />
              <path
                 d="m 32.303,47.26 c -0.38,-0.753 -1.313,-1.028 -2.061,-0.669 l -3.995,2.087 -4.032,-2.087 c -0.754,-0.359 -1.676,-0.084 -2.029,0.669 -0.401,0.733 -0.106,1.676 0.643,2.066 l 2.066,1.039 -2.066,1.059 c -0.754,0.369 -1.044,1.323 -0.643,2.045 0.353,0.732 1.275,1.059 2.029,0.659 l 4.032,-2.056 3.995,2.056 c 0.754,0.4 1.686,0.073 2.061,-0.659 0.39,-0.722 0.095,-1.676 -0.67,-2.045 l -2.055,-1.059 2.055,-1.039 c 0.765,-0.39 1.06,-1.333 0.67,-2.066 z"
                 style="fill:#ffffff;fill-rule:nonzero"
                 id="path989" />
              <path
                 d="m 39.908,60.985 c -1.038,0 -1.887,0.848 -1.887,1.939 v 10.831 h -9.898 v -1.497 h 5.85 c 1.039,0 1.908,-0.827 1.908,-1.887 v -7.442 c 0,-1.091 -0.869,-1.939 -1.908,-1.939 H 18.294 c -1.065,0 -1.908,0.848 -1.908,1.939 v 7.442 c 0,1.06 0.843,1.887 1.908,1.887 h 6.029 v 1.497 H 14.399 V 62.924 c 0,-1.091 -0.849,-1.939 -1.887,-1.939 -1.065,0 -1.913,0.848 -1.913,1.939 v 12.728 c 0,1.049 0.848,1.887 1.913,1.887 h 11.811 v 2.757 H 11.084 c -1.06,0 -1.908,0.838 -1.908,1.907 0,1.049 0.848,1.898 1.908,1.898 h 15.131 c 1.065,0 1.908,-0.849 1.908,-1.898 v -4.664 h 11.785 c 1.059,0 1.913,-0.838 1.913,-1.887 V 62.924 c 0.005,-1.091 -0.848,-1.939 -1.913,-1.939 z M 20.191,64.8 h 11.874 v 3.647 H 20.191 Z"
                 style="fill:#ffffff;fill-rule:nonzero"
                 id="path991" />
            </g>
            <g
               id="g1003">
              <path
                 d="m 92.85,97.435 c 0,0 7.837,5.097 16.712,2.361 0,0 -7.868,4.101 -5.481,11.279 0,0 -13.629,-3.753 -17.05,-10.251 -3.452,-6.472 5.819,-3.389 5.819,-3.389 z"
                 style="fill:#ffffff;fill-rule:nonzero;stroke:#881c28;stroke-width:0.75px"
                 id="path995" />
              <path
                 d="m 88.164,91.817 c 0,0 13.656,-8.607 13.656,-3.953 v 10.23 c 0,0 -6.999,3.399 -14.852,0.348 z"
                 style="fill:#ffffff;fill-rule:nonzero;stroke:#881c28;stroke-width:0.75px"
                 id="path997" />
              <path
                 d="m 101.82,87.579 c 0,0 0.922,5.418 -13.824,5.418"
                 style="fill:none;stroke:#881c28;stroke-width:0.75px"
                 id="path999" />
              <rect
                 x="79.995003"
                 y="91.615997"
                 width="8.3909998"
                 height="11.595"
                 style="fill:#ffffff;fill-rule:nonzero;stroke:#881c28;stroke-width:0.75px"
                 id="rect1001" />
            </g>
          </g>
        </g>
      </g>
    </g>
  </g>
</svg>
