<svg
   xmlns="http://www.w3.org/2000/svg" 
   xmlns:xlink="http://www.w3.org/1999/xlink" 
   version="1.1" 
   viewBox="-10 0 273 256">
<style>
    #da:hover{
        fill:#f00;
    }
</style>
<path id="da" fill="currentColor"
d="M102 22q7 4 14 5v1q1 1 1 2q-4 3 -3 10q-2 17 -4 47q30 -6 61 -14q-1 -3 9 -6q2 -1 4 0q7 4 18 5q4 3 5 7q-5 1 -14 -1q-3 0 -4 -1q-9 -1 -16 0q-31 9 -63 15v12q3 8 10 18q2 4 4 5q24 38 48 53q13 10 26 9q23 0 33 2q10 1 20 5q3 3 -1 2h-18q-8 1 -29 2q-12 2 -14 -1
q-44 -27 -80 -88q-13 66 -51 83q-4 1 -1 -2q39 -27 47 -87q-1 -1 -1 -2q-3 -5 -5 -7q-10 2 -27 6q-15 5 -27 0q-4 -1 1 -2q19 1 60 -11v-23q1 -16 2 -25q0 -10 -6 -18q-1 -2 1 -1z" />
</svg>