<?xml version="1.0" standalone="no"?>
<!DOCTYPE svg PUBLIC "-//W3C//DTD SVG 1.1//EN" "http://www.w3.org/Graphics/SVG/1.1/DTD/svg11.dtd" >
<svg xmlns="http://www.w3.org/2000/svg" xmlns:xlink="http://www.w3.org/1999/xlink" version="1.1" viewBox="-10 0 1034 1024">
   <style>
      path:hover {
         color: blue;
      }
   </style>

   <path fill="currentColor"
d="M260 942l-14 -9v-14h-22v-30q50 -45 82.5 -94t51 -105.5t22 -117t17.5 -120.5q15 -15 29.5 -19t32.5 -4t33 -3.5t36 -3.5q7 7 22 7t22 4t21.5 8t6.5 19h-14v23h-14q-7 45 -11 94t-7.5 97.5t-3.5 101.5t-8 98l-50 8v-98l7 -113h-14l-102 38q-7 30 -18 60t-32.5 60.5
t-36.5 56t-36 56.5zM927 904q-36 -15 -69.5 -22.5t-69 -19t-68 -30t-62.5 -40.5q-15 -15 -18 -34t-6.5 -38t-3.5 -38v-42h7l6 -52h-6v-45l6 -76l-6 -22l14 -23l102 -38l7 -60h-37l-65 22l-15 -38q8 -14 15.5 -21.5t11 -22.5t3.5 -30.5v-30.5l-15 -60l43 -8l15 45h15l87 -14
l6 7l-35 45l-73 16l-7 29l138 23v22l-44 76l-50 38q-7 7 -11 15t-15 8t-18.5 3.5t-13.5 3.5v31l51 7l22 -7l21 29h7v16l-123 15v22h101v8h7v7h8h-15v15h15v8l-116 30v23h138v15h28l8 52h-44l-72 -7l-15 7v16l30 7v8l166 14l80 -14l22 90l-44 52zM35 656l-6 -61l14 -38
l65 -22v-23l29 -7l8 -53h-22l-51 15l-15 -53l58 -52h22l8 -54h-22l-36 16l-15 -53l15 -37q21 -16 39.5 -19.5t40 -11t46.5 -7.5h47l29 29l-21 54h-66v60l66 15v15l-22 45l-22 8l-29 -8l-15 114l109 7v30l-15 30q-28 8 -61 8t-61.5 11.5t-54 26.5t-62.5 15zM499 640v-22
l8 -53h-15l-73 15l-7 60h87zM643 618l-6 -7l-7 7l7 8zM492 520l-7 -30h-15l-36 7v31h51zM289 437v-8l-8 -29l52 -46q6 0 13.5 -4t18.5 -4t14.5 -7t3.5 -15l-7 -38l-37 -7v-30q8 -15 15 -23t22 -8t22 -7.5t21 -7.5v-30l-7 -53l58 -15l7 46l-7 37l123 30v23l-21 8v7h-30l-7 68
l73 8v30l-15 29h-65l-72 -7zM456 324l36 -7v-46l-7 -30h-29l-44 8v14h7v45l-22 9v22h15z" />
</svg>
