<?xml version="1.0" encoding="UTF-8" standalone="no"?>
<svg 
  viewBox="7.478412828947368 -76.025390625 142.99538352272725 60.205078125"
  width="135.51697069377988"
  height="136.23046875"
  xmlns="http://www.w3.org/2000/svg"
  xmlns:svg="http://www.w3.org/2000/svg">

    <path id="p1" d="M11.43-94.92L11.43-94.92Q6.74-93.75 7.62-90.23L7.62-90.23Q10.84-90.53 13.48-87.89L13.48-87.89Q22.27-89.06 31.35-89.36L31.35-89.36Q31.05-82.91 28.42-76.17L28.42-76.17Q31.35-60.64 35.16-43.65L35.16-43.65Q33.40-42.19 31.64-41.60L31.64-41.60Q29.30-42.19 27.25-43.36L27.25-43.36Q25.49-57.71 21.39-65.63L21.39-65.63Q19.63-62.40 18.16-58.30L18.16-58.30Q22.27-34.57 24.02-10.84L24.02-10.84Q26.66-9.67 28.71-7.91L28.71-7.91Q32.23-11.13 30.76-13.18L30.76-13.18Q28.71-22.56 27.54-33.69L27.54-33.69Q31.35-36.91 37.21-37.21L37.21-37.21Q38.96-39.55 40.43-41.89L40.43-41.89Q40.72-47.46 39.84-52.44L39.84-52.44Q34.86-61.82 33.11-72.66L33.11-72.66Q34.86-82.32 38.96-90.53L38.96-90.53Q37.79-92.58 37.21-94.63L37.21-94.63Q24.02-94.92 11.43-94.92Z"/>

    <path id="p2" d="M96.97-112.21L96.97-112.21Q84.08-111.91 71.48-113.38L71.48-113.38Q68.26-112.79 67.09-110.45L67.09-110.45Q68.26-107.52 71.48-105.76L71.48-105.76Q84.96-107.23 99.02-106.93L99.02-106.93Q101.95-97.85 102.25-87.60L102.25-87.60Q93.16-84.08 82.32-81.45L82.32-81.45Q82.32-84.38 79.98-85.84L79.98-85.84Q78.22-85.84 77.34-84.38L77.34-84.38Q78.22-63.57 84.08-44.24L84.08-44.24Q86.43-41.60 89.94-39.26L89.94-39.26Q98.14-39.55 106.35-40.43L106.35-40.43Q107.81-33.40 106.93-25.20L106.93-25.20Q104.59-26.07 102.83-24.90L102.83-24.90Q91.99-13.77 81.74-2.05L81.74-2.05Q84.96-1.76 88.18-2.64L88.18-2.64Q96.97-12.89 108.11-20.51L108.11-20.51Q110.45-9.38 110.45 0.88L110.45 0.88Q106.64 1.17 105.47 3.81L105.47 3.81Q106.93 6.45 109.86 7.91L109.86 7.91Q114.26 6.45 115.43 2.05L115.43 2.05Q116.31-9.67 113.38-21.09L113.38-21.09Q127.44-18.16 140.33-10.84L140.33-10.84Q143.26-12.89 142.97-16.70L142.97-16.70Q126.56-22.27 111.62-30.18L111.62-30.18Q111.62-35.16 111.04-40.14L111.04-40.14Q115.43-44.82 121.88-47.75L121.88-47.75Q122.17-42.48 117.77-38.38L117.77-38.38Q121.58-37.50 124.80-40.43L124.80-40.43Q128.32-46.88 131.54-53.91L131.54-53.91Q133.30-60.94 133.01-68.55L133.01-68.55Q130.08-70.31 130.37-74.12L130.37-74.12Q124.51-81.15 117.48-84.96L117.48-84.96Q112.50-85.55 108.11-85.84L108.11-85.84Q105.18-95.51 105.18-106.05L105.18-106.05Q114.26-110.16 125.68-109.28L125.68-109.28Q128.03-112.21 126.56-114.84L126.56-114.84Q116.60-113.67 106.05-112.50L106.05-112.50Q101.37-118.07 101.95-126.86L101.95-126.86Q100.20-127.73 99.02-128.32L99.02-128.32Q96.68-120.70 96.97-112.21Z"/>

    <path id="p3" d="M110.45-80.86L110.45-80.86Q115.72-79.98 120.41-77.93L120.41-77.93Q124.51-72.95 127.44-66.80L127.44-66.80Q127.73-62.99 127.73-58.59L127.73-58.59Q121.58-50.39 111.04-48.05L111.04-48.05Q110.45-52.44 110.74-57.13L110.74-57.13Q111.91-58.89 113.67-60.35L113.67-60.35Q116.60-59.18 120.41-59.18L120.41-59.18Q120.70-62.70 117.19-63.87L117.19-63.87Q112.50-63.57 109.28-65.33L109.28-65.33Q108.11-74.12 110.45-80.86Z"/>

    <path id="p4" d="M102.83-81.74L102.83-81.74Q106.05-73.24 104.00-64.45L104.00-64.45Q97.27-64.16 91.41-62.70L91.41-62.70Q90.53-60.94 90.53-58.59L90.53-58.59Q98.14-58.30 106.35-59.18L106.35-59.18Q106.35-52.44 105.47-45.41L105.47-45.41Q98.44-44.24 91.11-44.24L91.11-44.24Q87.01-53.91 84.38-63.57L84.38-63.57Q84.67-69.14 84.96-74.71L84.96-74.71Q92.58-80.27 102.83-81.74Z"/>

  <style>
    /* <![CDATA[ */
      svg {
        background-color: #6A4C9C;
      }

      text {
        stroke: #F1EEF7;
        stroke-width: 0.1%;
        fill: none;
      }

      #p1 {
        stroke: #F1EEF7;
        stroke-width: 1%;
        stroke-dasharray: 296, 296;
        fill: none;
        animation:
          animation1
          5.5s
          linear
          infinite;
      }
      @keyframes animation1 {
        from {
          stroke-dashoffset: 0;
        }
        to {
          stroke-dashoffset: 296;
        }
      }

      #p2 {
        stroke: #F1EEF7;
        stroke-width: 1%;
        stroke-dasharray: 606, 606;
        fill: none;
        animation:
          animation2
          5.5s
          linear
          infinite;
      }
      @keyframes animation2 {
        from {
          stroke-dashoffset: 0;
        }
        to {
          stroke-dashoffset: 606;
        }
      }

      #p3 {
        stroke: #F1EEF7;
        stroke-width: 1%;
        stroke-dasharray: 102, 102;
        fill: none;
        animation:
          animation2
          5.5s
          linear
          infinite;
      }
      @keyframes animation2 {
        from {
          stroke-dashoffset: 0;
        }
        to {
          stroke-dashoffset: 102;
        }
      }

      #p4 {
        stroke: #F1EEF7;
        stroke-width: 1%;
        stroke-dasharray: 130, 130;
        fill: none;
        animation:
          animation2
          5.5s
          linear
          infinite;
      }
      @keyframes animation2 {
        from {
          stroke-dashoffset: 0;
        }
        to {
          stroke-dashoffset: 130;
        }
      }
    /* ]]> */
  </style>


  <text id="text1" x="16" y="16">16</text>
  <text id="text2" x="48" y="16">16</text>
  <text id="text3" x="80" y="16">16</text>
  <text id="text4" x="112" y="16">16</text>


  <script>
    <!-- https://jakearchibald.com/2013/animated-line-drawing-svg/ -->

    var path = document.querySelector('#p1');
    path.getTotalLength();
    console.log(  'path = ' + Math.round(path.getTotalLength())  );
    document.querySelector('#text1').innerHTML = Math.round(path.getTotalLength());

    path = document.querySelector('#p2');
    path.getTotalLength();
    console.log(  'path = ' + Math.round(path.getTotalLength())  );
    document.querySelector('#text2').innerHTML = Math.round(path.getTotalLength());

    path = document.querySelector('#p3');
    path.getTotalLength();
    console.log(  'path = ' + Math.round(path.getTotalLength())  );
    document.querySelector('#text3').innerHTML = Math.round(path.getTotalLength());

    path = document.querySelector('#p4');
    path.getTotalLength();
    console.log(  'path = ' + Math.round(path.getTotalLength())  );
    document.querySelector('#text4').innerHTML = Math.round(path.getTotalLength());
  </script>

</svg>
        