<svg xmlns="http://www.w3.org/2000/svg" width="512" height="512">
  <style>
  @keyframes svg-01-a-outer-group{0%{transform:rotate(360deg)}to{transform:rotate(0deg)}}
  @keyframes svg-01-a-rect{to{transform:rotate(360deg)}0%{transform:rotate(0deg)}}

  /*
  .svg-01-a-rect{stroke-width:.2;stroke:#000;fill:none}
  */

  .svg-01-a-inner-group:nth-child(even) 
  .svg-01-a-rect{transform-origin:0 0;animation:svg-01-a-rect 5s linear infinite}
  .svg-01-a-inner-group:nth-child(odd) 
  .svg-01-a-rect{transform-origin:0 0;animation:svg-01-a-rect 5s linear reverse infinite}
  .svg-01-a-outer-group{transform-origin:0 0;animation:svg-01-a-outer-group 4096s linear infinite}
  </style>
	<g class="svg-01-a-g svg-01-a-outer-group"><rect x="50" y="50" width="50" height="50" fill="none" stroke="red"></rect><rect x="100" y="50" width="50" height="50" fill="none" stroke="blue"></rect><rect x="150" y="50" width="50" height="50" fill="none" stroke="blue"></rect><rect x="200" y="50" width="50" height="50" fill="none" stroke="blue"></rect><rect x="250" y="50" width="50" height="50" fill="none" stroke="blue"></rect><rect x="300" y="50" width="50" height="50" fill="none" stroke="blue"></rect><rect x="350" y="50" width="50" height="50" fill="none" stroke="blue"></rect><rect x="400" y="50" width="50" height="50" fill="none" stroke="blue"></rect><rect x="100" y="50" width="50" height="50" fill="none" stroke="red"></rect><rect x="150" y="50" width="50" height="50" fill="none" stroke="blue"></rect><rect x="200" y="50" width="50" height="50" fill="none" stroke="blue"></rect><rect x="250" y="50" width="50" height="50" fill="none" stroke="blue"></rect><rect x="300" y="50" width="50" height="50" fill="none" stroke="blue"></rect><rect x="350" y="50" width="50" height="50" fill="none" stroke="blue"></rect><rect x="400" y="50" width="50" height="50" fill="none" stroke="blue"></rect><rect x="150" y="50" width="50" height="50" fill="none" stroke="red"></rect><rect x="200" y="50" width="50" height="50" fill="none" stroke="blue"></rect><rect x="250" y="50" width="50" height="50" fill="none" stroke="blue"></rect><rect x="300" y="50" width="50" height="50" fill="none" stroke="blue"></rect><rect x="350" y="50" width="50" height="50" fill="none" stroke="blue"></rect><rect x="400" y="50" width="50" height="50" fill="none" stroke="blue"></rect><rect x="200" y="50" width="50" height="50" fill="none" stroke="red"></rect><rect x="250" y="50" width="50" height="50" fill="none" stroke="blue"></rect><rect x="300" y="50" width="50" height="50" fill="none" stroke="blue"></rect><rect x="350" y="50" width="50" height="50" fill="none" stroke="blue"></rect><rect x="400" y="50" width="50" height="50" fill="none" stroke="blue"></rect><rect x="250" y="50" width="50" height="50" fill="none" stroke="red"></rect><rect x="300" y="50" width="50" height="50" fill="none" stroke="blue"></rect><rect x="350" y="50" width="50" height="50" fill="none" stroke="blue"></rect><rect x="400" y="50" width="50" height="50" fill="none" stroke="blue"></rect><rect x="300" y="50" width="50" height="50" fill="none" stroke="red"></rect><rect x="350" y="50" width="50" height="50" fill="none" stroke="blue"></rect><rect x="400" y="50" width="50" height="50" fill="none" stroke="blue"></rect><rect x="350" y="50" width="50" height="50" fill="none" stroke="red"></rect><rect x="400" y="50" width="50" height="50" fill="none" stroke="blue"></rect><rect x="50" y="100" width="50" height="50" fill="none" stroke="red"></rect><rect x="100" y="100" width="50" height="50" fill="none" stroke="blue"></rect><rect x="150" y="100" width="50" height="50" fill="none" stroke="blue"></rect><rect x="200" y="100" width="50" height="50" fill="none" stroke="blue"></rect><rect x="250" y="100" width="50" height="50" fill="none" stroke="blue"></rect><rect x="300" y="100" width="50" height="50" fill="none" stroke="blue"></rect><rect x="350" y="100" width="50" height="50" fill="none" stroke="blue"></rect><rect x="400" y="100" width="50" height="50" fill="none" stroke="blue"></rect><rect x="100" y="100" width="50" height="50" fill="none" stroke="red"></rect><rect x="150" y="100" width="50" height="50" fill="none" stroke="blue"></rect><rect x="200" y="100" width="50" height="50" fill="none" stroke="blue"></rect><rect x="250" y="100" width="50" height="50" fill="none" stroke="blue"></rect><rect x="300" y="100" width="50" height="50" fill="none" stroke="blue"></rect><rect x="350" y="100" width="50" height="50" fill="none" stroke="blue"></rect><rect x="400" y="100" width="50" height="50" fill="none" stroke="blue"></rect><rect x="150" y="100" width="50" height="50" fill="none" stroke="red"></rect><rect x="200" y="100" width="50" height="50" fill="none" stroke="blue"></rect><rect x="250" y="100" width="50" height="50" fill="none" stroke="blue"></rect><rect x="300" y="100" width="50" height="50" fill="none" stroke="blue"></rect><rect x="350" y="100" width="50" height="50" fill="none" stroke="blue"></rect><rect x="400" y="100" width="50" height="50" fill="none" stroke="blue"></rect><rect x="200" y="100" width="50" height="50" fill="none" stroke="red"></rect><rect x="250" y="100" width="50" height="50" fill="none" stroke="blue"></rect><rect x="300" y="100" width="50" height="50" fill="none" stroke="blue"></rect><rect x="350" y="100" width="50" height="50" fill="none" stroke="blue"></rect><rect x="400" y="100" width="50" height="50" fill="none" stroke="blue"></rect><rect x="250" y="100" width="50" height="50" fill="none" stroke="red"></rect><rect x="300" y="100" width="50" height="50" fill="none" stroke="blue"></rect><rect x="350" y="100" width="50" height="50" fill="none" stroke="blue"></rect><rect x="400" y="100" width="50" height="50" fill="none" stroke="blue"></rect><rect x="300" y="100" width="50" height="50" fill="none" stroke="red"></rect><rect x="350" y="100" width="50" height="50" fill="none" stroke="blue"></rect><rect x="400" y="100" width="50" height="50" fill="none" stroke="blue"></rect><rect x="350" y="100" width="50" height="50" fill="none" stroke="red"></rect><rect x="400" y="100" width="50" height="50" fill="none" stroke="blue"></rect><rect x="50" y="150" width="50" height="50" fill="none" stroke="red"></rect><rect x="100" y="150" width="50" height="50" fill="none" stroke="blue"></rect><rect x="150" y="150" width="50" height="50" fill="none" stroke="blue"></rect><rect x="200" y="150" width="50" height="50" fill="none" stroke="blue"></rect><rect x="250" y="150" width="50" height="50" fill="none" stroke="blue"></rect><rect x="300" y="150" width="50" height="50" fill="none" stroke="blue"></rect><rect x="350" y="150" width="50" height="50" fill="none" stroke="blue"></rect><rect x="400" y="150" width="50" height="50" fill="none" stroke="blue"></rect><rect x="100" y="150" width="50" height="50" fill="none" stroke="red"></rect><rect x="150" y="150" width="50" height="50" fill="none" stroke="blue"></rect><rect x="200" y="150" width="50" height="50" fill="none" stroke="blue"></rect><rect x="250" y="150" width="50" height="50" fill="none" stroke="blue"></rect><rect x="300" y="150" width="50" height="50" fill="none" stroke="blue"></rect><rect x="350" y="150" width="50" height="50" fill="none" stroke="blue"></rect><rect x="400" y="150" width="50" height="50" fill="none" stroke="blue"></rect><rect x="150" y="150" width="50" height="50" fill="none" stroke="red"></rect><rect x="200" y="150" width="50" height="50" fill="none" stroke="blue"></rect><rect x="250" y="150" width="50" height="50" fill="none" stroke="blue"></rect><rect x="300" y="150" width="50" height="50" fill="none" stroke="blue"></rect><rect x="350" y="150" width="50" height="50" fill="none" stroke="blue"></rect><rect x="400" y="150" width="50" height="50" fill="none" stroke="blue"></rect><rect x="200" y="150" width="50" height="50" fill="none" stroke="red"></rect><rect x="250" y="150" width="50" height="50" fill="none" stroke="blue"></rect><rect x="300" y="150" width="50" height="50" fill="none" stroke="blue"></rect><rect x="350" y="150" width="50" height="50" fill="none" stroke="blue"></rect><rect x="400" y="150" width="50" height="50" fill="none" stroke="blue"></rect><rect x="250" y="150" width="50" height="50" fill="none" stroke="red"></rect><rect x="300" y="150" width="50" height="50" fill="none" stroke="blue"></rect><rect x="350" y="150" width="50" height="50" fill="none" stroke="blue"></rect><rect x="400" y="150" width="50" height="50" fill="none" stroke="blue"></rect><rect x="300" y="150" width="50" height="50" fill="none" stroke="red"></rect><rect x="350" y="150" width="50" height="50" fill="none" stroke="blue"></rect><rect x="400" y="150" width="50" height="50" fill="none" stroke="blue"></rect><rect x="350" y="150" width="50" height="50" fill="none" stroke="red"></rect><rect x="400" y="150" width="50" height="50" fill="none" stroke="blue"></rect><rect x="50" y="200" width="50" height="50" fill="none" stroke="red"></rect><rect x="100" y="200" width="50" height="50" fill="none" stroke="blue"></rect><rect x="150" y="200" width="50" height="50" fill="none" stroke="blue"></rect><rect x="200" y="200" width="50" height="50" fill="none" stroke="blue"></rect><rect x="250" y="200" width="50" height="50" fill="none" stroke="blue"></rect><rect x="300" y="200" width="50" height="50" fill="none" stroke="blue"></rect><rect x="350" y="200" width="50" height="50" fill="none" stroke="blue"></rect><rect x="400" y="200" width="50" height="50" fill="none" stroke="blue"></rect><rect x="100" y="200" width="50" height="50" fill="none" stroke="red"></rect><rect x="150" y="200" width="50" height="50" fill="none" stroke="blue"></rect><rect x="200" y="200" width="50" height="50" fill="none" stroke="blue"></rect><rect x="250" y="200" width="50" height="50" fill="none" stroke="blue"></rect><rect x="300" y="200" width="50" height="50" fill="none" stroke="blue"></rect><rect x="350" y="200" width="50" height="50" fill="none" stroke="blue"></rect><rect x="400" y="200" width="50" height="50" fill="none" stroke="blue"></rect><rect x="150" y="200" width="50" height="50" fill="none" stroke="red"></rect><rect x="200" y="200" width="50" height="50" fill="none" stroke="blue"></rect><rect x="250" y="200" width="50" height="50" fill="none" stroke="blue"></rect><rect x="300" y="200" width="50" height="50" fill="none" stroke="blue"></rect><rect x="350" y="200" width="50" height="50" fill="none" stroke="blue"></rect><rect x="400" y="200" width="50" height="50" fill="none" stroke="blue"></rect><rect x="200" y="200" width="50" height="50" fill="none" stroke="red"></rect><rect x="250" y="200" width="50" height="50" fill="none" stroke="blue"></rect><rect x="300" y="200" width="50" height="50" fill="none" stroke="blue"></rect><rect x="350" y="200" width="50" height="50" fill="none" stroke="blue"></rect><rect x="400" y="200" width="50" height="50" fill="none" stroke="blue"></rect><rect x="250" y="200" width="50" height="50" fill="none" stroke="red"></rect><rect x="300" y="200" width="50" height="50" fill="none" stroke="blue"></rect><rect x="350" y="200" width="50" height="50" fill="none" stroke="blue"></rect><rect x="400" y="200" width="50" height="50" fill="none" stroke="blue"></rect><rect x="300" y="200" width="50" height="50" fill="none" stroke="red"></rect><rect x="350" y="200" width="50" height="50" fill="none" stroke="blue"></rect><rect x="400" y="200" width="50" height="50" fill="none" stroke="blue"></rect><rect x="350" y="200" width="50" height="50" fill="none" stroke="red"></rect><rect x="400" y="200" width="50" height="50" fill="none" stroke="blue"></rect><rect x="50" y="250" width="50" height="50" fill="none" stroke="red"></rect><rect x="100" y="250" width="50" height="50" fill="none" stroke="blue"></rect><rect x="150" y="250" width="50" height="50" fill="none" stroke="blue"></rect><rect x="200" y="250" width="50" height="50" fill="none" stroke="blue"></rect><rect x="250" y="250" width="50" height="50" fill="none" stroke="blue"></rect><rect x="300" y="250" width="50" height="50" fill="none" stroke="blue"></rect><rect x="350" y="250" width="50" height="50" fill="none" stroke="blue"></rect><rect x="400" y="250" width="50" height="50" fill="none" stroke="blue"></rect><rect x="100" y="250" width="50" height="50" fill="none" stroke="red"></rect><rect x="150" y="250" width="50" height="50" fill="none" stroke="blue"></rect><rect x="200" y="250" width="50" height="50" fill="none" stroke="blue"></rect><rect x="250" y="250" width="50" height="50" fill="none" stroke="blue"></rect><rect x="300" y="250" width="50" height="50" fill="none" stroke="blue"></rect><rect x="350" y="250" width="50" height="50" fill="none" stroke="blue"></rect><rect x="400" y="250" width="50" height="50" fill="none" stroke="blue"></rect><rect x="150" y="250" width="50" height="50" fill="none" stroke="red"></rect><rect x="200" y="250" width="50" height="50" fill="none" stroke="blue"></rect><rect x="250" y="250" width="50" height="50" fill="none" stroke="blue"></rect><rect x="300" y="250" width="50" height="50" fill="none" stroke="blue"></rect><rect x="350" y="250" width="50" height="50" fill="none" stroke="blue"></rect><rect x="400" y="250" width="50" height="50" fill="none" stroke="blue"></rect><rect x="200" y="250" width="50" height="50" fill="none" stroke="red"></rect><rect x="250" y="250" width="50" height="50" fill="none" stroke="blue"></rect><rect x="300" y="250" width="50" height="50" fill="none" stroke="blue"></rect><rect x="350" y="250" width="50" height="50" fill="none" stroke="blue"></rect><rect x="400" y="250" width="50" height="50" fill="none" stroke="blue"></rect><rect x="250" y="250" width="50" height="50" fill="none" stroke="red"></rect><rect x="300" y="250" width="50" height="50" fill="none" stroke="blue"></rect><rect x="350" y="250" width="50" height="50" fill="none" stroke="blue"></rect><rect x="400" y="250" width="50" height="50" fill="none" stroke="blue"></rect><rect x="300" y="250" width="50" height="50" fill="none" stroke="red"></rect><rect x="350" y="250" width="50" height="50" fill="none" stroke="blue"></rect><rect x="400" y="250" width="50" height="50" fill="none" stroke="blue"></rect><rect x="350" y="250" width="50" height="50" fill="none" stroke="red"></rect><rect x="400" y="250" width="50" height="50" fill="none" stroke="blue"></rect><rect x="50" y="300" width="50" height="50" fill="none" stroke="red"></rect><rect x="100" y="300" width="50" height="50" fill="none" stroke="blue"></rect><rect x="150" y="300" width="50" height="50" fill="none" stroke="blue"></rect><rect x="200" y="300" width="50" height="50" fill="none" stroke="blue"></rect><rect x="250" y="300" width="50" height="50" fill="none" stroke="blue"></rect><rect x="300" y="300" width="50" height="50" fill="none" stroke="blue"></rect><rect x="350" y="300" width="50" height="50" fill="none" stroke="blue"></rect><rect x="400" y="300" width="50" height="50" fill="none" stroke="blue"></rect><rect x="100" y="300" width="50" height="50" fill="none" stroke="red"></rect><rect x="150" y="300" width="50" height="50" fill="none" stroke="blue"></rect><rect x="200" y="300" width="50" height="50" fill="none" stroke="blue"></rect><rect x="250" y="300" width="50" height="50" fill="none" stroke="blue"></rect><rect x="300" y="300" width="50" height="50" fill="none" stroke="blue"></rect><rect x="350" y="300" width="50" height="50" fill="none" stroke="blue"></rect><rect x="400" y="300" width="50" height="50" fill="none" stroke="blue"></rect><rect x="150" y="300" width="50" height="50" fill="none" stroke="red"></rect><rect x="200" y="300" width="50" height="50" fill="none" stroke="blue"></rect><rect x="250" y="300" width="50" height="50" fill="none" stroke="blue"></rect><rect x="300" y="300" width="50" height="50" fill="none" stroke="blue"></rect><rect x="350" y="300" width="50" height="50" fill="none" stroke="blue"></rect><rect x="400" y="300" width="50" height="50" fill="none" stroke="blue"></rect><rect x="200" y="300" width="50" height="50" fill="none" stroke="red"></rect><rect x="250" y="300" width="50" height="50" fill="none" stroke="blue"></rect><rect x="300" y="300" width="50" height="50" fill="none" stroke="blue"></rect><rect x="350" y="300" width="50" height="50" fill="none" stroke="blue"></rect><rect x="400" y="300" width="50" height="50" fill="none" stroke="blue"></rect><rect x="250" y="300" width="50" height="50" fill="none" stroke="red"></rect><rect x="300" y="300" width="50" height="50" fill="none" stroke="blue"></rect><rect x="350" y="300" width="50" height="50" fill="none" stroke="blue"></rect><rect x="400" y="300" width="50" height="50" fill="none" stroke="blue"></rect><rect x="300" y="300" width="50" height="50" fill="none" stroke="red"></rect><rect x="350" y="300" width="50" height="50" fill="none" stroke="blue"></rect><rect x="400" y="300" width="50" height="50" fill="none" stroke="blue"></rect><rect x="350" y="300" width="50" height="50" fill="none" stroke="red"></rect><rect x="400" y="300" width="50" height="50" fill="none" stroke="blue"></rect><rect x="50" y="350" width="50" height="50" fill="none" stroke="red"></rect><rect x="100" y="350" width="50" height="50" fill="none" stroke="blue"></rect><rect x="150" y="350" width="50" height="50" fill="none" stroke="blue"></rect><rect x="200" y="350" width="50" height="50" fill="none" stroke="blue"></rect><rect x="250" y="350" width="50" height="50" fill="none" stroke="blue"></rect><rect x="300" y="350" width="50" height="50" fill="none" stroke="blue"></rect><rect x="350" y="350" width="50" height="50" fill="none" stroke="blue"></rect><rect x="400" y="350" width="50" height="50" fill="none" stroke="blue"></rect><rect x="100" y="350" width="50" height="50" fill="none" stroke="red"></rect><rect x="150" y="350" width="50" height="50" fill="none" stroke="blue"></rect><rect x="200" y="350" width="50" height="50" fill="none" stroke="blue"></rect><rect x="250" y="350" width="50" height="50" fill="none" stroke="blue"></rect><rect x="300" y="350" width="50" height="50" fill="none" stroke="blue"></rect><rect x="350" y="350" width="50" height="50" fill="none" stroke="blue"></rect><rect x="400" y="350" width="50" height="50" fill="none" stroke="blue"></rect><rect x="150" y="350" width="50" height="50" fill="none" stroke="red"></rect><rect x="200" y="350" width="50" height="50" fill="none" stroke="blue"></rect><rect x="250" y="350" width="50" height="50" fill="none" stroke="blue"></rect><rect x="300" y="350" width="50" height="50" fill="none" stroke="blue"></rect><rect x="350" y="350" width="50" height="50" fill="none" stroke="blue"></rect><rect x="400" y="350" width="50" height="50" fill="none" stroke="blue"></rect><rect x="200" y="350" width="50" height="50" fill="none" stroke="red"></rect><rect x="250" y="350" width="50" height="50" fill="none" stroke="blue"></rect><rect x="300" y="350" width="50" height="50" fill="none" stroke="blue"></rect><rect x="350" y="350" width="50" height="50" fill="none" stroke="blue"></rect><rect x="400" y="350" width="50" height="50" fill="none" stroke="blue"></rect><rect x="250" y="350" width="50" height="50" fill="none" stroke="red"></rect><rect x="300" y="350" width="50" height="50" fill="none" stroke="blue"></rect><rect x="350" y="350" width="50" height="50" fill="none" stroke="blue"></rect><rect x="400" y="350" width="50" height="50" fill="none" stroke="blue"></rect><rect x="300" y="350" width="50" height="50" fill="none" stroke="red"></rect><rect x="350" y="350" width="50" height="50" fill="none" stroke="blue"></rect><rect x="400" y="350" width="50" height="50" fill="none" stroke="blue"></rect><rect x="350" y="350" width="50" height="50" fill="none" stroke="red"></rect><rect x="400" y="350" width="50" height="50" fill="none" stroke="blue"></rect><rect x="50" y="400" width="50" height="50" fill="none" stroke="red"></rect><rect x="100" y="400" width="50" height="50" fill="none" stroke="blue"></rect><rect x="150" y="400" width="50" height="50" fill="none" stroke="blue"></rect><rect x="200" y="400" width="50" height="50" fill="none" stroke="blue"></rect><rect x="250" y="400" width="50" height="50" fill="none" stroke="blue"></rect><rect x="300" y="400" width="50" height="50" fill="none" stroke="blue"></rect><rect x="350" y="400" width="50" height="50" fill="none" stroke="blue"></rect><rect x="400" y="400" width="50" height="50" fill="none" stroke="blue"></rect><rect x="100" y="400" width="50" height="50" fill="none" stroke="red"></rect><rect x="150" y="400" width="50" height="50" fill="none" stroke="blue"></rect><rect x="200" y="400" width="50" height="50" fill="none" stroke="blue"></rect><rect x="250" y="400" width="50" height="50" fill="none" stroke="blue"></rect><rect x="300" y="400" width="50" height="50" fill="none" stroke="blue"></rect><rect x="350" y="400" width="50" height="50" fill="none" stroke="blue"></rect><rect x="400" y="400" width="50" height="50" fill="none" stroke="blue"></rect><rect x="150" y="400" width="50" height="50" fill="none" stroke="red"></rect><rect x="200" y="400" width="50" height="50" fill="none" stroke="blue"></rect><rect x="250" y="400" width="50" height="50" fill="none" stroke="blue"></rect><rect x="300" y="400" width="50" height="50" fill="none" stroke="blue"></rect><rect x="350" y="400" width="50" height="50" fill="none" stroke="blue"></rect><rect x="400" y="400" width="50" height="50" fill="none" stroke="blue"></rect><rect x="200" y="400" width="50" height="50" fill="none" stroke="red"></rect><rect x="250" y="400" width="50" height="50" fill="none" stroke="blue"></rect><rect x="300" y="400" width="50" height="50" fill="none" stroke="blue"></rect><rect x="350" y="400" width="50" height="50" fill="none" stroke="blue"></rect><rect x="400" y="400" width="50" height="50" fill="none" stroke="blue"></rect><rect x="250" y="400" width="50" height="50" fill="none" stroke="red"></rect><rect x="300" y="400" width="50" height="50" fill="none" stroke="blue"></rect><rect x="350" y="400" width="50" height="50" fill="none" stroke="blue"></rect><rect x="400" y="400" width="50" height="50" fill="none" stroke="blue"></rect><rect x="300" y="400" width="50" height="50" fill="none" stroke="red"></rect><rect x="350" y="400" width="50" height="50" fill="none" stroke="blue"></rect><rect x="400" y="400" width="50" height="50" fill="none" stroke="blue"></rect><rect x="350" y="400" width="50" height="50" fill="none" stroke="red"></rect><rect x="400" y="400" width="50" height="50" fill="none" stroke="blue"></rect><circle cx="225" cy="75" r="15"></circle><circle cx="125" cy="125" r="15"></circle><circle cx="375" cy="175" r="15"></circle><circle cx="175" cy="225" r="15"></circle><circle cx="325" cy="275" r="15"></circle><circle cx="425" cy="325" r="15"></circle><circle cx="275" cy="375" r="15"></circle><circle cx="75" cy="425" r="15"></circle></g>
</svg>