<?xml version="1.0" encoding="UTF-8" standalone="no"?>
<svg
   xmlns:dc="http://purl.org/dc/elements/1.1/"
   xmlns:cc="http://creativecommons.org/ns#"
   xmlns:rdf="http://www.w3.org/1999/02/22-rdf-syntax-ns#"
   xmlns:svg="http://www.w3.org/2000/svg"
   xmlns="http://www.w3.org/2000/svg"
   xmlns:xlink="http://www.w3.org/1999/xlink"
   id="svg17"
   version="1.1"
   viewBox="0 0 512 256"
   height="256"
   width="512">
  <metadata
     id="metadata21">
    <rdf:RDF>
      <cc:Work
         rdf:about="">
        <dc:format>image/svg+xml</dc:format>
        <dc:type
           rdf:resource="http://purl.org/dc/dcmitype/StillImage" />
        <dc:title></dc:title>
      </cc:Work>
    </rdf:RDF>
  </metadata>
  <rect
     id="rect2"
     style="fill:rgb(159, 53, 58); stroke-width:1px; stroke:rgb(159, 53, 58)"
     width="512"
     height="256" />
  <rect
     id="rect4"
     style="fill:none; stroke-width:1px; stroke:rgb(159, 53, 58)"
     height="256"
     width="512" />
  <defs
     id="defs7">
    <path
       d="M344.445 221.477c-.075-.067-.535-.17-1.022-.228-.487-.058-.981-.224-1.099-.37-.117-.145-.477-.304-.799-.354-.322-.048-.937-.429-1.366-.844-.43-.414-.672-.564-.54-.332.133.232-.504-.24-1.415-1.05-.992-.882-1.566-1.606-1.43-1.802.13-.186.093-.254-.083-.157-.172.095-.94-.41-1.705-1.123-.767-.711-1.18-1.194-.92-1.071.402.19.408.163.04-.17-.336-.305-.467-.314-.58-.043-.079.193-.353.351-.61.351-.255 0-.376.13-.267.286.11.157.353.201.54.097.208-.114.252-.057.113.144-.262.377-1.157.317-1.548-.105-.146-.157-.2.061-.123.492.08.448-.009.782-.212.794-.193.012-.067.129.28.261.603.231.599.243-.078.262-.39.012-.71-.107-.71-.262 0-.155-.138-.28-.306-.28-.168 0-.226.183-.13.407.134.31-.024.376-.666.271-.627-.1-.78-.042-.598.225.195.29.148.293-.24.013-.267-.192-.585-.26-.709-.15-.123.11-.122-.037.001-.325.193-.448.104-.504-.605-.383-.655.111-1.04-.063-1.816-.824-.542-.53-.906-1.035-.81-1.121.098-.086.01-.425-.195-.753-.204-.328-.344-.683-.311-.789.033-.106-.226-.174-.576-.15-.612.043-.609.062.085.538.397.273.567.499.377.502-.527.013-1.479-1.044-1.247-1.38.122-.174.017-.23-.256-.137-.286.098-.54-.063-.668-.426-.115-.32-.327-.583-.473-.583-.145 0-.194-.238-.109-.53.1-.34-.104-.69-.573-.984-.4-.25-.59-.456-.422-.459.17-.002-.048-.168-.482-.368-.59-.273-.772-.563-.723-1.158.059-.717.025-.745-.346-.292-.287.349-.48.403-.636.177-.124-.178-.075-.324.11-.324.183 0 .333-.134.333-.297 0-.165-.142-.22-.315-.124-.278.153-.468-.43-.348-1.067.023-.123-.236-.09-.575.071-.442.211-.68.203-.842-.033-.14-.202-.087-.25.139-.125.235.13.362-.025.359-.45-.004-.478-.077-.547-.28-.26-.152.213-.436.298-.632.19-.195-.108-.274-.314-.174-.458.1-.143.021-.261-.175-.261-.57 0-1.325-.778-.883-.909.211-.063.279-.32.157-.603-.117-.271-.355-.415-.53-.318-.175.096-.318.055-.318-.09 0-.146-.26-.326-.579-.4-.318-.074-.914-.555-1.324-1.068-.41-.513-.59-.848-.4-.743.189.104.422.012.517-.211.123-.286-.017-.37-.483-.289-.36.062-.584.048-.497-.025.088-.078-.27-.549-.792-1.046-.524-.498-1.142-1.307-1.374-1.8-.232-.492-.573-.977-.758-1.08-.232-.128-.22-.308.04-.588.207-.222.285-.485.174-.584-.112-.1-.203-.038-.203.138 0 .175-.221.244-.491.151-.27-.092-.417-.341-.326-.553.091-.213-.006-.387-.218-.388-.212-.001-.555-.329-.762-.728-.327-.628-.31-.703.123-.554.413.14.433.098.11-.248-.214-.23-.536-.392-.715-.358-.178.033-.388-.13-.467-.36-.126-.376-.105-.376.193 0 .289.363.335.353.34-.07.003-.439-.34-.624-.782-.423-.3.136-1.339-1.903-1.17-2.296.115-.27.04-.326-.233-.176-.301.166-.346.064-.177-.411.14-.395.107-.568-.088-.46-.173.095-.49-.017-.704-.246-.214-.23-.291-.42-.17-.42.12 0 0-.193-.264-.43-.266-.236-.394-.637-.285-.89.124-.286.072-.39-.138-.274-.363.2-.821-.56-.563-.933.087-.125-.055-.299-.314-.387-.26-.09-.472-.419-.472-.733s-.142-.572-.315-.572c-.174 0-.316-.253-.316-.562 0-.31-.142-.563-.315-.563-.174 0-.315-.316-.315-.703 0-.387-.178-.705-.395-.708-.263-.003-.236-.095.079-.276.41-.236.402-.273-.053-.277-.34-.003-.715-.476-1.06-1.34-.721-1.801-1.48-3.213-1.988-3.695-.23-.219-.348-.64-.261-.936.091-.311-.03-.602-.29-.69-.245-.085-.368-.267-.272-.405.097-.139.024-.252-.16-.252-.183 0-.333-.174-.333-.388 0-.213-.365-1.098-.81-1.966-.446-.867-.72-1.737-.608-1.932.111-.196-.013-.122-.273.165-.262.286-.618.442-.79.347-.174-.095-1.041-1.528-1.928-3.184-.888-1.656-1.806-3.205-2.04-3.442-.235-.237-.517-1-.628-1.696-.248-1.572-.353-2.065-.776-3.657-.43-1.622-.428-1.69.043-1.682.403.004 2.13 1.989 2.13 2.444 0 .138.178.41.395.602.217.194.394.443.394.555 0 .112.309.5.687.86.377.362.615.825.527 1.028-.275.64 9.296 17.113 13.56 23.338 1.164 1.7 6.845 9.394 7.373 9.986l2.501 2.813c3.643 4.098 8.002 8.434 9.514 9.463l1.033.703.963-.723c1.374-1.03 2.99-.979 4.579.145.675.477 1.356 1.079 1.514 1.336.158.258.473.568.699.688.67.358 3.265 3.491 3.05 3.683-.109.097-.039.177.155.177.45 0 2.319 2.4 2.054 2.636-.109.097-.051.176.129.176s.864.765 1.521 1.7c1.209 1.718 2.627 2.905 4.478 3.75.671.306.953.604.834.882-.17.396-.792.565-1.092.298zm-6.473-4.252c.108-.25.055-.364-.124-.265-.172.095-.312.29-.312.437 0 .404.226.315.436-.173zm-8.108-1.304c-.1-.225-.176-.158-.19.17-.015.296.06.463.165.37.105-.094.116-.337.025-.54zm3.255-2.355c0-.241-.144-.36-.32-.262-.177.097-.24.294-.14.439.27.39.46.317.46-.177zm-23.22-17.876c-.3-.295-.629-.462-.73-.37-.102.09.06.325.36.52.301.197.443.46.316.585-.128.126-.045.133.183.017.33-.17.304-.323-.13-.75zm36.187 22.483c-.533-.646-.9-1.237-.816-1.312.17-.152 2.329 1.94 2.35 2.277.033.536-.65.106-1.534-.965zm1.92.097c.051-.266-.171-1.176-.494-2.023-.548-1.439-.553-1.604-.074-2.524.282-.542.928-1.49 1.435-2.11.792-.965 1.196-1.92 1.31-3.094.046-.467.692-1.028 1.5-1.302l.762-.258-.665-.514c-.366-.283-.573-.597-.46-.697.112-.1.047-.182-.144-.182-.48 0-.415-2.222.09-3.095.6-1.037 2.343-2.07 3.53-2.09.571-.013 1.039-.114 1.04-.23 0-.116.249-.213.552-.216.355-.003.423-.078.189-.21-.2-.115-.433-.587-.519-1.052-.085-.463-.187-.97-.226-1.125a1 1 0 0 1 .006-.492c.149-.409.235-.778.274-1.174.066-.665 1.632-2.131 2.276-2.131.724 0 .744-.32.12-1.918-.261-.668-.4-1.321-.31-1.452.091-.132.026-.282-.146-.334-.172-.053-.35-.568-.396-1.148-.047-.58-.191-1.055-.321-1.055-.41-.001-.257-2.508.215-3.516.295-.628.736-1.029 1.262-1.147.446-.099.81-.273.81-.384 0-.113-1.679-1.713-3.73-3.557-3.004-2.699-3.834-3.622-4.26-4.738-.682-1.787-.655-2.395.144-3.25.606-.65.966-.722 5.117-1.022 8.746-.632 15.192-.136 15.192 1.17 0 .596.044.592-3.076.266-2.622-.275-3.628-.275-5.083-.004-.897.165-1.287.125-1.48-.153-.211-.306-.38-.281-.886.126-.344.278-.956.476-1.36.44-.405-.038-.972.025-1.26.138-.289.112-.963.142-1.5.066-.535-.075-.973-.016-.973.127 0 .145-.493.215-1.096.156-1.352-.133-1.62.062-.795.577.346.216.629.576.629.799 0 .223.177.408.394.41.263.003.237.095-.078.277-.421.243-.421.274 0 .281.38.004.39.056.052.247-.32.18-.264.274.237.39.434.102.596.044.476-.172-.1-.178.022-.103.271.167.25.271.583.492.742.492.442 0 1.419 1.118 1.223 1.4-.095.137-.006.341.197.453.23.127.285.081.144-.122-.123-.178-.074-.324.11-.324.183 0 .334.182.334.405a.77.77 0 0 0 .364.606c.226.125.279.077.14-.124-.125-.178-.076-.325.108-.325s.334.115.334.254c0 .14.462.518 1.026.84.564.321.91.587.77.59-.139.002.132.3.604.662.8.614.846 1.569.054 1.132-.213-.117-.251-.057-.1.16.174.252.337.264.584.043.525-.467.761-.371.978.398.109.387.354.703.546.703.244 0 .237.12-.022.397-.282.304-.28.446.01.606.257.142.297.09.125-.159-.171-.246-.132-.3.117-.163.205.113.341.354.303.536-.039.182.044.631.183.998.14.368.132.748-.017.844-.149.097-.27.362-.27.59 0 .227-.355.571-.789.764-.656.291-.815.28-.95-.061-.286-.728-.858.482-.602 1.274.125.387.251.514.28.281.037-.293.13-.25.305.14.138.31.124.866-.031 1.235-.155.37-.207.74-.116.82.092.083.167.005.167-.17 0-.176.212-.246.471-.158.26.09.393.275.297.413-.096.139-.016.252.179.252.194 0 .28.105.192.232-.088.127.046.584.297 1.016.587 1.009.576 1.264-.086 1.916-.429.423-.445.516-.079.444.256-.048.57-.218.697-.372.13-.16.234-.068.236.21.004.272-.172.495-.39.497-.262.003-.236.095.08.277.343.198.36.273.06.277-.227.002-.333.12-.236.26.274.394-.164 1.17-.542.962-.211-.116-.261-.012-.135.283.111.257.059.468-.115.468-.21 0-.21.18.004.535.277.461.224.519-.383.419-.485-.08-.428-.017.184.198.557.197.825.46.72.706-.093.216-.037.392.125.392.245 0 .228.925-.056 3.024-.026.194-.174.352-.33.352-.154 0-.18.158-.058.352.175.275.134.278-.189.012-.335-.276-.336-.42-.009-.773.517-.555.116-.568-.503-.017-.327.292-.38.56-.172.89.472.753-.612 1.523-2.77 1.967-1.394.287-2.091.314-2.545.097-.62-.296-.82-.07-.63.707.268 1.094.19 1.76-.262 2.228-.286.297-.359.456-.16.353.199-.103.443.001.542.233.1.232.043.42-.124.42-.168 0-.308.285-.31.633-.005.49-.07.541-.292.23-.239-.337-.371-.342-.788-.034-.366.271-.41.469-.164.734.262.28.191.328-.312.21-.368-.085-.649-.016-.649.164 0 .172-.23.314-.511.314-.42 0-.441-.076-.12-.422.248-.266.269-.422.058-.422a.745.745 0 0 0-.539.293c-.111.16-.462.22-.778.13-.42-.12-.817.14-1.472.966-.493.622-1.074 1.133-1.291 1.136-.217.003-.395.133-.395.288 0 .155-.19.281-.42.281-.314 0-.404.44-.351 1.705.039.938.006 1.924-.072 2.192-.193.659-1.431.742-1.307.087zm4.47-7.51c-.247-.572-.396-.515-.341.13.025.3.152.486.282.414.13-.072.156-.316.059-.543zm6.335-5.444c.095-.137-.066-.422-.357-.633-.452-.327-.49-.324-.26.017.208.307.132.356-.334.21-.586-.183-.585-.176.009.234.719.496.719.496.943.173zm2.983-.615c-.44-.242-.91-.091-.91.292 0 .13.296.169.658.085.48-.112.548-.214.252-.377zm1.109-.496c.09-.128-.038-.234-.283-.234-.245 0-.373.105-.283.234.09.13.216.235.283.235.066 0 .193-.106.283-.235zm1.767-2.719c.227-.243.258-.422.073-.422-.176 0-.402.19-.502.422-.1.232-.132.422-.072.422.06 0 .285-.19.501-.422zm-32.498 13.908c0-.164.142-.22.316-.124.173.096.315.23.315.298 0 .068-.142.124-.315.124-.174 0-.316-.135-.316-.298zm35.605-47.322c-3.607-2.453-3.643-5.114-.077-5.71.972-.163 1.072-.27 1.072-1.146 0-2.003 2.115-2.866 4.664-1.904 1.264.477 3.448.766 3.9.517.154-.085-.162-.701-.701-1.37-1.224-1.52-1.135-2.23.293-2.352.946-.081 1.03-.033.838.509-.217.607.313 1.193 1.968 2.176.389.232.629.533.533.671-.095.138-.052.25.096.25.323 0 .29 1.069-.054 1.759-.135.27-.523.492-.862.492-.39 0-.532.12-.387.33.15.215.06.271-.259.162-.267-.091-.623-.043-.789.103-.193.172-.613.165-1.16-.02-.63-.214-.8-.207-.638.024.208.3-.648.273-2.078-.067-.325-.077-.506.14-.577.694-.065.507-.326.857-.706.946-.332.077-.525.253-.43.39.172.249-.28.36-1.071.266-.23-.025-.605.087-.833.256-.283.21-.832.224-1.735.043-1.172-.236-1.294-.213-1.093.202.124.257.236.68.248.939.012.26.117.419.234.355.295-.163.955.59.71.81-.11.098.032.258.317.356.561.192.696.83.23 1.087-.158.087-.902-.259-1.653-.769zm2.573-3.138c0-.297-.606-.422-.786-.162-.109.157.023.286.294.286.27 0 .492-.055.492-.124zm11.358-7.97c0-.183-.518-.746-1.151-1.252-2.077-1.661-2.36-1.99-1.925-2.237.217-.123.252-.229.079-.236-.174-.004-.072-.14.226-.294.508-.263.502-.35-.088-1.36-.347-.593-.687-1.478-.756-1.966l-.127-.888 3.312.033c1.822.021 3.39-.037 3.487-.121.096-.086-.292-.89-.863-1.787-3.53-5.548-3.79-6.325-1.865-5.603 1.167.437 5.32 3.036 5.338 3.34.033.59-1.692-.247-4.624-2.24-.573-.391-1.043-.62-1.043-.509 0 .294 1.185 1.729 2.406 2.913.584.568 1.063 1.165 1.064 1.327 0 .163.179.454.396.647.217.194.412.472.434.619.023.147.068.299.103.338.512.567-.05 2.07-.652 1.738-.154-.085-.28-.003-.28.178 0 .24-.567.283-2.026.157-1.114-.096-2.214-.235-2.445-.307-.23-.073-.81-.191-1.287-.263-1.082-.162-1.12.26-.141 1.55.55.724.95.955 1.656.955.72 0 .93.127.93.563 0 .447-.242.58-1.182.65-.778.057-1.294.273-1.51.633-.259.431-.224.545.167.545.272 0 .57.178.664.395.094.217.43.455.747.528.864.202 1.774 1.555 1.32 1.961-.274.243-.363.241-.363-.004zm-99.444-10.331c-.198-.387-.487-.703-.643-.703-.156 0-.196-.127-.089-.281.107-.156-.01-.281-.26-.281-.251 0-.676-.299-.944-.664a9.464 9.464 0 0 0-.904-1.055c-.565-.53-1.865-2.686-1.793-2.973.031-.127-.027-.421-.13-.653-.102-.232-.62-1.989-1.15-3.903-.78-2.814-1.237-3.862-2.388-5.465-.783-1.091-1.423-2.168-1.423-2.394 0-.516.704.277 2.614 2.942 2.21 3.082 2.643 3.978 3.659 7.561.82 2.897 1.166 3.616 2.698 5.627.966 1.268 1.756 2.45 1.756 2.626 0 .577-.637.334-1.004-.384zm102.6-4.772c0-.971 1.087-1.41 3.97-1.605l.973-.065-.736-.967c-.867-1.138-.912-1.537-.241-2.135.762-.68 2.59-.674 6.55.017 1.36.237 2.55.362 2.646.277.095-.085-.27-.604-.811-1.154-.541-.55-1.077-1.345-1.19-1.768-.113-.422-.337-.917-.497-1.099-.16-.182-.26-.498-.222-.703.037-.205-.042-.597-.175-.871-.134-.275-.095-1.022.087-1.661.3-1.055.256-1.25-.477-2.106-1.045-1.223-1.067-3.083-.051-4.309.587-.707 1.987-1.474 2.013-1.101.004.061.239-.078.52-.31.283-.233.415-.55.295-.704-.12-.155-.4-.759-.622-1.342-.352-.925-.33-1.204.17-2.175.317-.612.746-1.06.954-.993.213.068.308-.042.218-.252-.144-.333.094-.446 1.849-.876.13-.034.37-.074.532-.093.353-.043.042-2.075-.352-2.307-.336-.197-.891-3.103-.73-3.82.065-.286.199-.865.299-1.287.2-.847 1.81-2.467 2.452-2.467.224 0 .575-.239.778-.53.3-.428.264-.628-.194-1.054-.92-.855-2.383-1.918-2.498-1.815-.271.24-2.901-1.702-2.7-1.993.132-.19.083-.244-.12-.132-.503.276-1.333-.935-1.333-1.944 0-.554.273-1.101.746-1.498l.746-.625-2.046-1.745c-1.125-.96-2.95-2.774-4.056-4.033-2.525-2.873-6.579-6.307-9.52-8.063-2.75-1.64-7.235-3.8-9.376-4.511-2.669-.888-8.16-2.488-8.992-2.62a35.968 35.968 0 0 1-2.05-.423c-1.513-.357-1.446-.345-5.207-.9-5.205-.765-10.311-1.21-14.592-1.27-2.564-.037-2.761-.079-2.761-.617 0-.49.151-.558.976-.443.537.076 1.057.209 1.154.296.098.087.367.02.598-.152.233-.172.787-.227 1.247-.125.455.102 2.055.235 3.554.296 5.181.209 7.725.46 11.685 1.15 2.187.382 4.26.734 4.607.783 1.777.25 3.944.83 3.944 1.053 0 .14.107.227.237.196.948-.228 5.3 1.199 4.89 1.603-.13.127-.075.15.122.048.517-.263 2.364.37 2.117.726-.122.176-.055.214.164.093.446-.246 2.567.334 2.567.702 0 .142.106.235.237.203.443-.104 1.656.374 1.656.654 0 .154.12.213.268.131.147-.08.548.086.892.372.343.285.935.606 1.314.713.38.108.609.313.51.457-.1.144.005.26.236.26.501 0 3.215 1.61 4.448 2.639.486.405.958.737 1.05.737.09 0 .616.405 1.166.9.55.494.802.791.558.66-.3-.164-.37-.136-.218.085.124.178.413.325.642.325.707 0 1.165.694.722 1.092-.306.275-.274.31.155.163.628-.213 2.114 1.118 2.13 1.909a.496.496 0 0 0 .483.492c.26 0 .473.127.473.283 0 .156.35.555.778.887.428.332.69.73.583.885-.108.156-.038.196.153.09.191-.105.509.077.705.403.196.327.428.53.516.453.164-.146 1.099.497 2.69 1.852.499.425 1.022.773 1.162.773.14 0 .235.475.212 1.055-.023.58-.2 1.055-.396 1.055-.667 0-.68.29-.042.989.35.384.536.527.413.318-.153-.26.038-.227.604.103.762.445 1.228.954.512.56-.174-.096-.316-.062-.316.076 0 .476.417.62.855.296.35-.258.477-.196.625.307.14.476.252.54.452.258.2-.281.268-.287.272-.021.004.193.293.352.646.352.353 0 .722.19.822.42.1.232.289.361.421.289.42-.232 1.184.801 1.405 1.901.117.585.348.989.513.898.404-.223.38.335-.047 1.046-.253.421-.252.525.004.385.492-.271-.286 1.226-1.05 2.02-.378.393-.861.589-1.285.52-.445-.072-.819.098-1.087.495-.338.5-.337.545.005.254.229-.194.547-.352.707-.352.165 0 .155.152-.024.352-.172.193-.27.59-.218.883.053.292-.109.714-.359.937-.487.434-.337.925.28.918.226-.002.187-.113-.098-.277-.404-.233-.393-.273.08-.276.478-.004.715.476.589 1.19-.02.117.104.212.278.212.173 0 .293.095.265.21-.078.331.442 1.315.816 1.544.228.139.21.208-.055.21-.217.003-.395.14-.395.302 0 .165.112.237.25.161.136-.075.277.178.313.562.037.41-.067.626-.254.523-.176-.097-.237-.294-.137-.438.1-.143.032-.261-.153-.261-.479 0-.412.453.14.944.547.488.65 1.437.123 1.147-.238-.132-.277.012-.124.44.154.431.115.572-.123.44-.213-.117-.35.038-.35.387 0 .319-.16.58-.354.58-.249 0-.241.12.028.41.21.225.296.532.192.683-.105.15-.024.366.18.478.23.127.284.082.144-.121-.485-.7.344-.272 1.331.687.883.858 1.009 1.146.826 1.899-.118.487-.376.98-.57 1.093-.318.185.105.329.775.264.102-.012.184.163.184.384 0 .281-.114.318-.379.122-.26-.193-.503-.148-.775.145-.218.234-.28.426-.139.426.141 0-.019.19-.356.422-.51.353-.52.394-.06.251.417-.13.552-.02.552.452 0 .424-.144.574-.45.469-.248-.085-.638.053-.868.305-.35.386-.347.421.028.221.303-.163.37-.134.215.092-.126.181-.34.268-.476.193-.136-.075-.516.059-.846.297-.329.239-.43.36-.226.268.476-.212.855.305.406.552-.234.129-.223.306.033.582.266.286.27.397.014.397-.195 0-.354.134-.354.298 0 .164.14.22.312.126.179-.099.232.016.125.263-.103.239-.33.356-.504.26-.196-.108-.234.055-.1.431.15.425.09.582-.204.528-.23-.043-.506-.185-.613-.316-.107-.13-.287.091-.4.493-.154.548-.407.73-1.015.73-.445 0-.758.136-.696.302.063.166.228.261.367.21.398-.142 1.141 1.26.958 1.806-.122.363-.033.446.342.317.279-.095.478-.063.443.072-.037.136.107.616.315 1.068.442.957.353 1.71-.203 1.71-.214 0-.354.126-.31.28.042.156.195.247.338.205.708-.21-.294.575-1.34 1.051-1.273.579-2.553.65-2.942.165-.156-.194-.344-.15-.548.127-.17.232-.313.281-.315.109-.004-.175-.33-.258-.744-.186-.407.07-.94-.054-1.186-.273-.246-.219-.628-.345-.85-.279-.22.066-.645.025-.943-.09a6.606 6.606 0 0 0-.897-.279c-.196-.037-.671-.157-1.057-.266-.588-.167-.67-.113-.51.336.104.294.01.756-.214 1.026-.419.511-1 .632-4.17.864-1.038.076-1.938.27-1.998.431-.223.596-1.004.285-1.004-.4zm22.243-17.592c-.107-.155-.364-.279-.57-.276-.226.002-.187.113.097.276.606.35.716.35.474 0zm.474-1.031c0-.206-.127-.375-.282-.375-.155 0-.354.169-.443.375-.09.206.037.375.281.375.244 0 .444-.169.444-.375zm-3.316-2.622c.11-.16-.018-.207-.296-.11-.547.187-.647.388-.193.388.163 0 .383-.125.49-.278zm1.896-18.007c-.107-.155-.364-.279-.571-.276-.226.002-.187.113.098.276.606.35.715.35.473 0zm.967 24.222c-.096-.139.028-.322.28-.408.304-.104.397-.02.28.252-.203.472-.318.504-.56.155zm-139.366-5.21c-1.065-1.56-1.94-2.995-1.945-3.189-.004-.193-.116-.351-.248-.351-.566 0-1.972-3.304-2.982-7.005-1.258-4.609-1.28-4.81-.533-4.81.379 0 .727.427 1.09 1.337.294.734 1.335 2.665 2.314 4.29.979 1.624 1.844 3.206 1.923 3.516.079.309.215.875.303 1.257.089.382.287.83.441.996.155.165.357.688.45 1.161.094.473.515 1.554.936 2.403 2.008 4.048.913 4.295-1.749.395zm1.739-14.019c.052-.193.036-.256-.037-.14-.073.116-.542.21-1.042.21-.723 0-.875-.1-.74-.491.155-.443.139-.446-.163-.034-.284.392-.495.412-1.407.133-1.305-.4-2.146-.99-1.907-1.335.098-.14-.01-.222-.24-.179-.23.043-.387-.069-.349-.247.038-.178-.147-.399-.41-.489-.273-.093-.397-.043-.287.114.106.153.11.278.009.278-.102 0-.323-.324-.492-.72-.169-.396-.45-.642-.625-.545-.175.096-.416-.054-.535-.334a3.005 3.005 0 0 0-.632-.885c-.228-.206-.344-.476-.258-.6.087-.126-.057-.386-.32-.58-.274-.204-.397-.575-.29-.876.13-.368.03-.523-.342-.523-.33 0-.463-.152-.355-.404.096-.222.027-.447-.153-.5-.18-.054-.35-.43-.376-.835-.028-.406-.147-.685-.265-.62-.118.065-.304-.013-.413-.168-.11-.157-.048-.286.136-.286s.334-.123.334-.272c0-.15-.23-.194-.51-.099-.4.137-.465.048-.304-.404.157-.439-.025-.725-.751-1.186-.527-.334-1.047-.924-1.155-1.31-.125-.442-.358-.646-.632-.552-.239.081-.434.025-.434-.124 0-.15-.284-.273-.631-.273-.347 0-.631-.178-.631-.396 0-.257-.221-.344-.631-.248-.368.085-.631.012-.631-.185 0-.182-.249-.31-.553-.282-1.059.096-1.692-.017-1.517-.27.098-.14-.108-.188-.456-.107-.348.081-.845-.013-1.105-.202-.259-.191-.471-.255-.471-.141 0 .113-.355 0-.788-.253-.433-.253-1.107-.41-1.498-.349-.392.062-1.067-.016-1.5-.17-.434-.156-1.393-.257-2.13-.226-.738.034-1.341-.057-1.341-.197s-.433-.197-.963-.127c-.681.09-1.103-.025-1.443-.4-.264-.29-.4-.383-.304-.208.127.228-.566.296-2.421.24l-5.833-.178c-1.78-.055-3.234-.002-3.234.115 0 .118-1.172.204-2.603.19-4.293-.037-4.72.064-5.442 1.316-.862 1.496-3.822 4.063-5.688 4.934-1.84.86-2.08 1.276-.882 1.532.49.104 1.021.257 1.182.339.161.082.867.187 1.568.234 1.457.097 3.03.61 3.03.989 0 .48-.846.546-3.342.263-2.131-.24-2.549-.219-2.866.153-.287.337-.817.407-2.366.31-1.097-.069-2.35-.209-2.784-.312-.683-.162-.704-.149-.158.098.494.225.392.247-.473.105-1.674-.276-4.16-.184-5.71.211-.764.196-1.602.365-1.863.379-.26.012-.632.114-.827.224-.38.217-3.76 1.073-4.536 1.15-.26.025-.55.138-.643.248-.093.11-.471.13-.84.043-.579-.135-.631-.263-.376-.915.224-.572.53-.774 1.252-.823 1.473-.1 4.922-1.675 3.86-1.762-.912-.075-1.861-.314-2.102-.528-.155-.138-.478-.184-.717-.103-.239.082-.435.001-.435-.18 0-.18.133-.254.294-.166.162.09.373.048.47-.091.097-.14-.102-.319-.44-.398-.365-.085-.59-.013-.55.179.038.177-.109.31-.326.294a127.03 127.03 0 0 1-.867-.07c-.26-.02-.485-.264-.498-.534-.017-.313-.085-.36-.189-.13-.125.28-.266.289-.606.038-.243-.18-.443-.241-.443-.136 0 .105-.423-.034-.94-.304-.654-.345-.822-.562-.552-.715.3-.17.294-.22-.025-.224-.227-.002-.323-.163-.213-.356.11-.194-.043-.099-.34.21-.49.512-.52.516-.335.038.16-.412.085-.487-.352-.35-.469.145-.46.106.057-.251.6-.414.597-.423-.08-.423-.38 0-.69.147-.69.325 0 .191-.244.129-.593-.153-.578-.467-2.01-.47-4.403-.012-.538.103-.674.042-.506-.222.185-.291.146-.293-.195-.012-.503.417-2.766.464-3.895.08-.597-.202-.916-.166-1.26.141-.565.504-.946.54-.623.06.161-.239.066-.228-.297.033-.452.328-.534.328-.538 0-.002-.232-.098-.274-.237-.104-.324.393-1.78.552-1.51.165.137-.2-.223-.288-1.058-.259-.696.025-1.211.124-1.144.22.264.382-1.782.11-2.09-.276-.268-.34-.295-.326-.149.08.136.375 0 .492-.582.492-.419 0-.863-.148-.989-.33-.152-.22-.057-.27.287-.153.283.097.58.081.66-.033.233-.335-1.157-.334-1.61 0-.294.219-.54.206-.881-.047-.345-.256-.474-.262-.474-.02 0 .204-.47.302-1.262.26-.694-.037-1.262-.182-1.262-.323 0-.14-.2-.187-.447-.103a.514.514 0 0 1-.629-.269c-.1-.231-.34-.335-.533-.228-.247.137-.225.264.074.428.266.146.072.193-.519.125-.519-.06-.943-.135-.943-.165 0-.033-.399-.076-.886-.1-.487-.02-1.017-.228-1.178-.455-.161-.227-.295-.302-.298-.167-.002.135-.22.086-.485-.11-.408-.302-.447-.275-.256.176.193.46.155.482-.28.167-.301-.218-.58-.257-.691-.097-.24.346-1.448.07-1.448-.33 0-.212-.107-.209-.354.013-.441.394-1.298.135-1.003-.303.127-.19.008-.172-.287.042-.41.297-.533.297-.666 0-.125-.278-.17-.28-.189-.012-.014.193-.175.351-.359.351s-.251-.12-.15-.265c.107-.154-.247-.206-.85-.125-1.17.157-3.303-.738-3.144-1.32.07-.259-.057-.247-.473.047-.314.22-.656.504-.76.631-.106.128-.406.043-.668-.193-.333-.297-.576-.336-.808-.129-.232.207-.553.157-1.068-.164-.405-.253-.69-.524-.634-.602.056-.078.032-.298-.054-.487-.086-.19-.168-.043-.182.324-.023.627-.109.657-1.365.481-2.078-.29-3.354-.771-3.171-1.195.088-.205.287-.304.443-.218.155.085.282.037.282-.107 0-.145-.38-.263-.843-.263-.463 0-1.015-.21-1.225-.465-.344-.42-.4-.422-.573-.021-.11.257-.059.372.12.273.172-.095.313-.038.313.126s.213.297.473.297.473.127.473.281c0 .35-.004.35-1.215-.025-.546-.17-.993-.41-.993-.536 0-.125-.251-.169-.558-.098-.668.156-3.322-.849-3-1.136.124-.11-.021-.117-.321-.017-.3.103-.758.033-1.016-.16-.258-.19-.47-.264-.47-.163 0 .102-.294.043-.655-.127-.36-.172-.583-.48-.495-.686.216-.5-.125-.767-.564-.443-.401.297-2.387-.446-2.387-.894 0-.151-.183-.213-.407-.136-.225.077-.678-.038-1.007-.251-.33-.215-.43-.391-.224-.391.207 0 .376-.135.376-.3 0-.172-.269-.224-.631-.122-.357.101-.631.048-.631-.116 0-.162-.381-.38-.847-.484-1.305-.293-2.212-.783-2.083-1.128.064-.171-.102-.387-.37-.479-.267-.091-.486-.042-.486.106 0 .15-.15.273-.334.273-.184 0-.247-.127-.14-.281.11-.158-.141-.281-.573-.281-.423 0-.945-.19-1.16-.42-.214-.23-.486-.365-.605-.3-.119.066-.422-.012-.674-.17-.358-.225-.321-.248.165-.106.554.163.54.103-.133-.536-.799-.758-1.302-.999-.671-.321.556.597-.105.78-.814.225-.34-.265-.893-.629-1.231-.808-.338-.178-.575-.473-.527-.653.048-.18-.066-.245-.252-.142-.41.225-2.597-1.77-2.343-2.137.098-.142.42-.26.713-.26.66-.005 4.892.929 5.108 1.125.087.078.3.142.473.142 1.096 0 10.015 2.623 13.883 4.083.913.345 2.66.766 4.023.97.65.097 1.183.3 1.183.45 0 .151.347.197.771.103.424-.095.956-.068 1.183.06.227.128.483.244.57.258.087.013 1.01.126 2.051.25 1.041.124 2.035.322 2.209.44.173.117.778.302 1.343.41.584.11.942.32.829.484-.126.18.04.22.443.107.355-.1.732-.057.839.098.107.154.403.209.657.122.255-.087.464-.017.464.153 0 .17.106.285.236.254.253-.062 4.548 1.061 5.6 1.464.348.133 1.697.513 2.998.845 1.302.333 2.508.642 2.682.688.174.048.457.114.631.153.174.037.67.193 1.104.343.434.15 1.073.324 1.42.383 1.036.178 4.417.913 4.417.96 0 .02.395.088.876.145.482.057 1.618.237 2.525.402 3.893.705 16.664 1.743 15.451 1.256-.502-.202-.517-.698-.018-.604.206.037.43-.156.499-.433.103-.422-.022-.473-.77-.318-.856.178-.867.167-.263-.247.356-.245.509-.534.351-.667-.154-.128-.343-.075-.42.12-.079.194-.267.284-.419.2-.155-.085-.14-.474.037-.887.286-.67.266-.7-.217-.343-.482.357-.517.31-.383-.506.082-.494.032-.834-.11-.756-.142.078-.259-.004-.259-.186 0-.21.315-.27.868-.168.477.087.69.091.473.004a.662.662 0 0 1-.394-.568c0-.228-.142-.337-.315-.241-.174.096-.316.037-.316-.124 0-.164.223-.298.495-.298.36 0 .437-.161.281-.598-.143-.402-.098-.534.137-.405.192.106.35.054.35-.116 0-.222.196-.223.709 0 .673.29.679.284.111-.122-.329-.236-.72-.362-.867-.28-.148.081-.27.016-.27-.15 0-.164.143-.298.316-.298.49 0 1.55-1.051 1.315-1.303-.116-.124.025-.065.314.13.437.298.623.268 1.105-.174.825-.758 1.684-.97 2.257-.557.386.279.442.28.257.004-.5-.742 1.318-.36 2.006.422.603.685.664.704.536.165-.121-.512-.025-.589.608-.487a35.76 35.76 0 0 0 1.653.215c1.118.116 1.69.415 1.452.759-.1.144-.043.262.126.262.17 0 .364-.15.432-.333.095-.253.5-.243 1.683.042 1.707.413 2.427.79 2.18 1.146-.087.127-.014.31.162.406.177.097.32-.02.32-.261 0-.51.125-.534.873-.178.797.379 1.774.679 2.046.627.13-.025.237.082.237.237 0 .155.171.25.38.211.21-.037.387.12.396.352.01.248.338.435.803.454.902.038 2.926.78 2.694.987-.086.076.338.297.941.492.603.194 1.096.542 1.096.774 0 .23.126.35.28.266.154-.086.454.033.667.261.213.23.548.334.746.233.197-.1.277-.1.178 0-.1.1.509.848 1.352 1.66.842.813 1.641 1.856 1.776 2.318l.244.84 1.401-1.594c.771-.876 1.658-1.98 1.971-2.453l.57-.86-.728.239c-.873.288-1.515.128-1.515-.377 0-.426 3.713-1.093 8.774-1.578 2.986-.287 15.167-.216 17.594.102.532.07 1.775.216 2.76.326.986.11 1.793.286 1.794.39.001.105.547.21 1.213.23 2.422.08 8.789 2.316 10.03 3.524.902.876 3.134 4.174 4.101 6.06 1.217 2.371 2.62 3.857 4.302 4.554 2.226.924 3.844.866 7.459-.266.97-.304 1.901-.584 2.07-.621.17-.038.5-.227.733-.42.234-.194.608-.352.833-.352.224 0 .78-.26 1.235-.58.455-.319 1.103-.598 1.44-.621.338-.02.545-.142.46-.264-.085-.123.012-.223.216-.223s1.043-.44 1.866-.978c.822-.539 1.586-.897 1.698-.797.112.1.204.037.204-.136 0-.174.338-.606.75-.96 1.06-.91 3.036-3.514 3.036-4.001 0-.224.142-.486.316-.582.173-.096.315-.427.315-.737 0-.309.13-.491.286-.405.158.087.212-.096.121-.406-.09-.309-.042-.563.109-.563.15 0 .321-1.234.38-2.742.059-1.509.148-3.152.198-3.652.05-.5-.01-.854-.133-.786-.123.068-.477-.6-.787-1.482-.31-.883-.902-2.122-1.315-2.754-.413-.632-.644-1.244-.515-1.36.13-.116.095-.176-.079-.134-.174.043-.924-.44-1.667-1.068-.96-.811-1.9-1.28-3.241-1.615-1.29-.323-1.818-.58-1.664-.808.145-.216.043-.203-.287.033-.726.525-5.601-.388-5.609-1.05-.004-.39-.042-.393-.31-.021-.28.386-.456.196-.345-.373.024-.127-.09-.157-.256-.065-.166.09-1.028-.216-1.915-.683-.888-.466-1.684-.848-1.77-.848-.474 0-1.97-1.262-1.804-1.522.108-.168.084-.216-.052-.106-.375.302-2.118-.594-1.865-.959.128-.184.074-.234-.133-.12-.192.106-.984-.223-1.76-.73a127.292 127.292 0 0 0-2.558-1.626c-.63-.387-1.316-.83-1.522-.984-.207-.155-.956-.632-1.664-1.061-.71-.429-1.59-1.03-1.96-1.336-.368-.307-.796-.557-.95-.557-.473 0-1.641-1.03-1.406-1.239.122-.108-.047-.106-.373.004-.387.133-.522.099-.387-.096.114-.165-.012-.375-.28-.467-.32-.11-.42-.048-.29.182.11.192-.112.033-.492-.355-.38-.387-.781-.67-.892-.632-.11.038-.627-.212-1.147-.558-.521-.347-1.089-.638-1.262-.647-.174-.013-.277-.179-.23-.376.049-.198-.04-.29-.195-.204-.156.085-1.97-.702-4.03-1.75-2.062-1.047-4.98-2.465-6.485-3.15-1.505-.686-2.654-1.365-2.554-1.51.1-.143.024-.174-.169-.068-.295.163-5.58-1.883-6.057-2.345-.087-.083-.37-.193-.627-.245-1.303-.257-5.368-1.812-5.368-2.054 0-.152-.113-.215-.25-.14-.138.076-2.09-.434-4.339-1.133-2.248-.7-4.265-1.282-4.482-1.294-.217-.012-.395-.135-.395-.273s-.139-.174-.308-.08c-.17.093-1.057-.038-1.972-.291-.915-.254-2.075-.512-2.577-.575-.502-.063-1.083-.24-1.29-.394-.209-.154-.443-.222-.522-.151-.08.07-1.765-.128-3.746-.44s-4.885-.684-6.453-.828c-3.665-.336-14.196-.338-18.47-.004-1.822.142-3.525.26-3.786.26-1.503.001-15.45 2.363-20.981 3.553-1.736.373-3.51.736-3.944.807-.434.07-1.641.338-2.682.595-2.835.7-9.71 2.335-13.017 3.096-1.605.369-3.046.74-3.2.826-.155.085-.371-.053-.48-.306-.233-.541-.153-.64.642-.793.327-.063 2.344-.628 4.483-1.257 2.138-.628 4.126-1.143 4.417-1.144.29-.001.908-.178 1.372-.394.464-.216 1.424-.465 2.134-.554.71-.088 1.555-.286 1.877-.44.321-.153.674-.2.784-.102.11.098.199.025.199-.163 0-.187.177-.308.394-.27.217.038.699-.078 1.07-.261.372-.184 1.153-.389 1.736-.456.583-.068 1.449-.257 1.924-.42.476-.165 1.103-.218 1.393-.119.331.114.45.069.32-.119-.231-.334 1.219-.754 1.696-.491.166.091.301.025.301-.145 0-.17.178-.284.395-.252.217.033.804-.093 1.306-.277.5-.184.985-.269 1.075-.188.09.08.342.017.559-.146.275-.204.46-.2.61.016.153.222.337.217.654-.016.243-.18.664-.251.935-.158.276.095.411.048.307-.101-.238-.344 1.253-.69 1.762-.41.229.126.301.093.18-.082-.113-.163.143-.351.582-.426.432-.074.785-.017.785.129 0 .144.236.053.523-.205.305-.27.832-.413 1.263-.34.406.07.739.017.739-.121 0-.137.352-.191.783-.122.431.07.872 0 .979-.154.107-.154.376-.219.599-.143.222.076 1.024-.053 1.782-.286.758-.233 1.946-.47 2.64-.527.694-.056 1.83-.184 2.524-.284.694-.1 1.787-.205 2.427-.233.641-.025 1.268-.142 1.394-.254.352-.314 1.765-.243 1.543.077-.107.155-.044.281.14.281.183 0 .333-.142.333-.314 0-.176.279-.249.631-.167.362.083.634.004.636-.179.002-.19.126-.155.293.081.233.329.443.343 1.1.076.631-.256.812-.252.816.017.004.226.106.203.298-.068.162-.228.395-.324.519-.214.123.11.415.06.648-.112.313-.232.546-.223.896.037.382.282.476.275.484-.037.006-.274.134-.24.436.114.374.44.449.447.615.06.216-.503 2.409-.514 2.799-.016.148.19.233.158.237-.09.004-.326.086-.326.538 0 .363.263.458.274.297.034-.13-.193-.095-.352.079-.352.173 0 .403.128.51.283.13.185.422.174.856-.034.552-.263.629-.243.47.126-.13.305-.049.392.266.284.25-.085.377-.269.282-.407-.098-.14.165-.136.599.013.425.144 1.086.189 1.47.099.423-.099.806-.013.975.23.153.215.28.251.284.08.003-.202.591-.276 1.66-.21 2.31.143 3.086.334 2.996.737-.048.217.31.35.956.356.692.004.984-.104.884-.337-.166-.385.616-.214 1.378.302.345.233.397.222.218-.043-.289-.428.38-.462 1.515-.077.445.15.814.499.819.773.009.474.026.474.331.004.4-.612 1.347-.635 2.003-.048.273.243.496.319.496.167 0-.151.284-.208.631-.127.347.08.631.227.631.325s.699.203 1.551.232c1.147.038 1.6-.059 1.738-.38a.522.522 0 0 1 .637-.281c.248.085.495.054.55-.068.127-.284 8.166-2.635 8.374-2.45.085.077.872-.113 1.749-.421 1.274-.448 1.646-.487 1.854-.195.186.262.261.27.265.025.006-.397 1.971-.936 2.86-.784.338.059.615-.025.615-.192 0-.164.268-.236.596-.16.328.077.786.034 1.017-.092.25-.138.519-.095.661.104.18.253.242.245.245-.033.003-.203.144-.292.314-.198.17.094.625.021 1.01-.164.522-.249.733-.253.822-.013.066.177.259.322.428.322.17 0 .234-.106.144-.236-.09-.13.335-.253.944-.273.609-.021 1.242-.112 1.407-.203.165-.091.3.033.3.273 0 .241.157.439.35.439.191 0 .267-.19.167-.422-.223-.517.757-.58 1.313-.085.23.206.378.223.378.043 0-.16.71-.315 1.578-.343.897-.025 1.578.074 1.578.237 0 .158.22.287.491.287s.405-.127.297-.281c-.25-.362.04-.358.81.012.336.16.61.182.61.048s.423-.187.94-.12c.838.11.903.188.61.725-.27.493-.214.475.315-.1l.645-.704.017.703c.015.615.066.647.404.25.303-.354.559-.392 1.173-.172.433.154 1 .306 1.26.338 2.107.254 2.685.55 2.571 1.316-.05.342.877.497 1.096.182.13-.19.073-.234-.148-.112-.2.11-.364.066-.364-.097 0-.373.073-.372 1.163.025.488.178 1.03.356 1.203.394 1.045.23 2.051.719 2.051.996 0 .241-.11.243-.431.004-.33-.244-.534-.206-.868.16-.24.264-.284.4-.098.3.186-.099.733.002 1.216.226.774.358.857.357.697-.016-.245-.57.101-.532.656.071.277.301.364.329.225.07-.181-.335-.144-.352.184-.082.335.277.336.42.009.774-.516.553-.206.567.41.016.372-.331.667-.354 1.443-.113 1.017.316 1.271.997.597 1.598-.208.186-.243.338-.076.338.166 0 .487-.263.712-.584.286-.409.522-.5.785-.305.374.276.554.326 1.166.326.174 0 .315.14.315.312 0 .17-.22.236-.49.144-.297-.102-.408-.054-.283.13.114.163.4.23.638.149.237-.081.507-.037.599.095.093.134.458.175.812.093.44-.103.615-.025.552.237-.058.244.129.354.503.296.436-.067.543.025.4.362-.247.572.59.894 1.182.456.65-.481 2.174.196 1.974.878-.096.328.094.629.531.836.603.286.634.272.272-.12-.324-.35-.328-.487-.019-.658.219-.12.446-.07.515.116.068.182.443.33.834.33.39 0 .816.096.946.211.13.116.367.227.526.247.704.085.736.13.29.41-.367.228-.308.253.264.109.943-.238 2.967.093 2.722.445-.115.167-.415.158-.797-.025-.375-.179-.612-.187-.612-.02 0 .463 1.077.513 1.657.077.501-.377.555-.354.588.261.026.477.08.532.181.184.155-.526 1.045-.692 1.045-.195 0 .165-.164.208-.365.098-.234-.13-.278-.077-.122.148.146.21.357.247.53.093.472-.42 2.165-.07 2.17.45.004.381.054.392.288.06.242-.34.498-.325 1.744.098 1.27.433 1.407.556 1.053.945-.348.381-.327.42.144.262.304-.101.553-.066.553.079 0 .145.212.191.47.103.303-.103.58.077.77.5.163.365.306.505.317.312.01-.194.127-.35.257-.348.308.004 1.795 1.04 3.024 2.106.536.464 1.02.805 1.078.758.057-.048.488.184.959.513.47.33.69.525.488.436-.413-.183-.38.546.04.887.149.12.168.06.043-.133s-.076-.351.107-.351c.184 0 .334.19.334.422 0 .232.267.422.593.422.326 0 .768.188.982.419.215.23.503.356.641.28.441-.242 1.255.188 1.26.667.004.301.086.35.237.142.168-.232.344-.213.638.07.304.293.311.391.026.391-.209 0-.289.081-.177.18.111.1.425.017.697-.184.374-.277.582-.287.86-.043.2.179.691.326 1.09.326.4 0 .728.158.73.352.005.253.083.242.282-.038.208-.292.502-.324 1.179-.125.495.145 1.647.231 2.558.191.91-.037 1.656.021 1.656.13 0 .113.478.183 1.062.159 1.195-.048 1.955.255 1.667.67-.193.278-2.327.516-7.044.786-2.742.157-6.254-.377-7.58-1.151-.387-.226-.886-.41-1.109-.412-.223 0-1.599-.633-3.057-1.406-1.458-.773-2.7-1.406-2.762-1.406-.436 0-2.912-1.626-2.727-1.79.128-.115-.013-.125-.313-.022-.3.103-.728.054-.95-.111-.706-.523-3.435-.952-6.688-1.052-1.735-.053-4.149-.24-5.363-.417-3.484-.504-7.79-1.877-8.265-2.633-.244-.389-.373-.445-1.019-.445-.16 0-.728-.328-1.262-.728-.534-.401-.97-.653-.97-.56 0 .092-.853-.351-1.894-.985s-1.893-1.289-1.893-1.456c0-.166-.087-.226-.193-.13-.107.094-1.252-.486-2.544-1.29-1.293-.804-2.626-1.586-2.962-1.74-.336-.152-.611-.373-.611-.491s-.202-.215-.448-.215c-.508 0-2.45-.863-2.743-1.22-.106-.129-.248-.199-.315-.155-.068.043-.833-.122-1.7-.367a34.095 34.095 0 0 0-2.84-.663 38.958 38.958 0 0 1-1.735-.332c-1.314-.319-9.642-.119-12.779.308-5.79.787-14.25 2.493-14.25 2.875 0 .19.19.28.424.2.272-.094.361 0 .25.26-.105.244.014.407.297.407.26 0 .4-.106.31-.235-.089-.129.068-.235.349-.235.28 0 .446.095.367.211-.079.116.082.397.357.624.443.366.477.358.292-.07-.293-.682.364-.607 1.32.15.44.348.61.411.376.14-.601-.699-.179-.61.588.124.354.339.644.465.644.28 0-.482.434-.411 1.224.2.38.294.935.477 1.233.408.728-.17 2.913.665 2.882 1.102-.02.272-.06.271-.184-.004-.088-.194-.307-.352-.487-.352-.21 0-.195.142.037.393.202.216.645.328.986.248.342-.08.619-.004.619.17 0 .172.15.314.334.314.184 0 .243-.132.131-.293-.26-.375 1.123-.075 2.927.635.815.321 1.343.716 1.346 1.007.004.35.073.384.259.123.198-.28.61-.225 1.888.248.899.333 1.634.73 1.634.88 0 .15.213.2.473.112.26-.089.473-.038.473.11 0 .15.107.253.237.228.13-.025.52.059.868.185 2.082.758 3.628 1.241 3.628 1.133 0-.068.604.07 1.341.307.738.237 1.554.473 1.814.524 1.469.288 2.487.566 3.471.945.607.235 1.246.44 1.42.458.47.048 2.98.692 4.417 1.135 1.256.388 6.52 1.858 10.728 2.998 1.214.328 2.705.752 3.312.94 2.705.837 3.348 1.024 3.88 1.127.311.061 1.731.487 3.155.946 1.424.46 3.324 1.062 4.223 1.339.899.277 1.573.59 1.498.699-.075.108.17.124.545.037.526-.123.62-.068.413.238-.218.322-.18.332.209.053.379-.273.61-.26 1.123.06.356.223.72.34.809.26.088-.079.78.144 1.537.496.757.352 1.57.665 1.807.696.238.033.78.347 1.204.703.58.486.72.526.563.161-.294-.684-.004-.607 1.188.315.57.44 1.517.884 2.105.985.587.101 1.325.45 1.64.772.314.324.711.511.882.417.17-.094.396-.048.5.103.104.15.398.203.653.115.254-.087.463-.016.463.153 0 .172.199.312.442.312.403 0 5.062 1.883 6.184 2.499.26.142 4.84 2.197 10.178 4.564 7.687 3.41 9.622 4.375 9.308 4.647-.313.269-.902.223-2.764-.217-3.912-.923-9.655-2.521-10.885-3.029-1.773-.731-2.812-.856-4.85-.584-1.15.154-2.434.322-2.852.373-.704.087-2.725-.145-8.416-.963-1.522-.22-2.235-.446-2.235-.711 0-.27.444-.402 1.446-.429.796-.02 1.943-.065 2.55-.098.608-.034 1.283.063 1.5.213.246.171.394.173.394.004 0-.147.32-.245.71-.217.39.025.887-.004 1.104-.077.661-.216.44-.631-.337-.631-.402 0-1.466-.195-2.363-.432-.897-.238-1.74-.442-1.872-.456-.132-.012-.563-.133-.958-.267a10.972 10.972 0 0 0-1.42-.36c-1.88-.314-6.107-1.378-6.433-1.619-.203-.15-.7-.306-1.105-.348-1.014-.105-2.564-.493-2.944-.738-.174-.111-1.406-.5-2.739-.863-1.333-.364-2.34-.78-2.239-.927.102-.146.027-.18-.165-.074s-.725.11-1.183.004c-.525-.117-.696-.262-.461-.39.265-.147.228-.255-.128-.377-.275-.094-.5-.042-.5.112 0 .189-.196.189-.59 0-.324-.154-.701-.19-.838-.08-.138.111-.16-.02-.052-.29.133-.332.04-.493-.284-.493-.278 0-.389.135-.262.318.135.195.05.263-.218.176-.24-.078-.407-.273-.37-.432.039-.159-.146-.363-.41-.453-.273-.094-.396-.043-.287.113.106.153.043.279-.141.279s-.334-.177-.334-.392c0-.506-.86-.804-1.143-.397-.127.183-.074.234.128.122.436-.24.978.592.794 1.218-.076.26.084.637.357.838.302.224.495.25.495.068 0-.165-.144-.38-.32-.476-.177-.097-.247-.285-.155-.417.189-.272 2.999 1.045 2.999 1.405 0 .129-.177.304-.394.39-.265.105-.24.147.078.13 1.046-.055 1.324.057 1.148.464-.238.553.082.536.8-.043.317-.256.576-.337.576-.18 0 .158.364.224.808.149.623-.107.847-.004.978.441.093.319.404.659.69.756.418.142.444.106.128-.178-.704-.631-.418-.83.552-.382.52.24.946.345.946.233 0-.112.17-.054.379.133.208.186.74.34 1.183.342.65.004.714.06.331.296-.388.24-.36.274.158.186.347-.058 1.022.065 1.499.274.963.422 1.177.728.315.452-.303-.097-.447-.073-.318.053s.057.432-.158.678c-.354.405-.333.407.212.025.48-.335.632-.346.742-.055.102.27.254.233.58-.14.406-.466.427-.467.25-.018-.133.341-.03.493.334.493.336 0 .44-.127.288-.352-.332-.493.7.22 2.323 1.604.734.626 1.338 1.233 1.341 1.348.004.115.326.536.717.936.39.4.71.85.71.997 0 .148.156.36.347.47.384.222 1.076 1.3 1.065 1.66-.004.125-.297-.088-.652-.475-.551-.6-.596-.613-.308-.089.44.805.425 1.012-.058.76-.217-.113-.124.07.207.406.671.682 1.119.85.503.19-.323-.348-.296-.423.154-.423.437 0 .52.194.419.971-.088.676-.023.894.215.718.225-.167.358-.065.389.295.025.301-.123.552-.329.557-.206.004-.098.196.24.424.785.529.982 2.5.224 2.242-.361-.124-.328-.004.125.456.4.406.45.55.14.413-.28-.125-.249-.048.08.194.38.279.551.807.551 1.708 0 1.16-.34 1.685-.71 1.094-.073-.115-.09-.053-.036.141.052.193-.042.352-.21.352-.168 0-.303.285-.3.633.003.462.077.53.275.25.453-.635.698.102.472 1.42-.114.667-.335 1.358-.491 1.535-.156.177-.262.43-.235.562.123.612-.058 1.226-.36 1.226-.185 0-.248-.126-.142-.279.11-.159-.017-.206-.297-.11-.555.19-.664.67-.152.67.186 0 .289.285.23.633-.06.348-.269.605-.464.572-.195-.033-.296.157-.225.422.165.615-.482 1.493-.717.975-.088-.193-.292-.352-.452-.352-.16 0-.127.236.075.525.304.434.218.698-.506 1.544-.48.561-1.02.939-1.202.839-.18-.1-.239-.053-.13.107.27.389-.995 1.648-1.551 1.544-.244-.043-.444.025-.444.157s-.223.485-.496.786c-.273.3-.388.356-.255.124.207-.362.166-.368-.289-.038-.292.211-.434.528-.315.704.118.175-.03.143-.327-.072-.467-.339-.516-.334-.358.033.195.452-.64.9-1.151.619-.162-.09-.256-.013-.208.175.048.185-.34.464-.86.62-.52.155-1.17.456-1.445.668-.274.212-.744.385-1.044.385-.3 0-.458.127-.35.281.11.16-.161.281-.632.281-.55 0-.75.11-.598.33.152.218.06.271-.273.157-.277-.095-.678.017-.892.247-.313.336-.44.347-.65.053-.198-.28-.26-.26-.264.083-.004.416-2.28 1.294-2.956 1.14-.149-.032-.456.077-.682.244-.286.211-.475.215-.617.013-.292-.422-.798-.365-.798.09 0 .26-.3.354-.933.288-.513-.053-1.018.025-1.123.178-.283.409-1.728.34-1.614-.078zm6.825-1.327c0-.15-.213-.2-.473-.11-.26.089-.473.211-.473.272 0 .061.212.11.473.11.26 0 .473-.122.473-.272zm-76.734-6.743c.287-.137.162-.296-.414-.53-.468-.19-.74-.212-.628-.053.11.16-.13.283-.55.283-.412 0-1.023.193-1.36.43-.565.396-.489.415.965.246.868-.1 1.762-.271 1.987-.379zm1.8-.298c.558-.214.531-.244-.238-.261-.477-.013-.867.106-.867.261 0 .33.242.33 1.104 0zm8.991-.405c0-.069-.142-.202-.315-.298-.174-.095-.316-.037-.316.124 0 .164.142.298.316.298.173 0 .315-.056.315-.124zm-1.893-.636c-.607-.25-1.175-.468-1.262-.484-.68-.121-2.208-.842-2.208-1.04 0-.137-.179-.248-.397-.248-.425 0-3.442-1.361-3.705-1.672-.087-.102-.718-.559-1.403-1.015-2.005-1.334-2.77-2.045-2.548-2.367.139-.199.495-.126 1.055.215 1.219.743 10.726 4.84 11.231 4.84.234 0 .5-.254.59-.563.122-.413.431-.563 1.163-.563 1.135 0 2.217-.434 2.217-.89 0-.306-.647-.877-1.785-1.578-.95-.586-2.778-1.582-2.948-1.607-.087-.013-.441-.16-.789-.328-.347-.167-1.411-.52-2.366-.785-.954-.265-1.948-.543-2.209-.619a9.137 9.137 0 0 0-.63-.164 92.132 92.132 0 0 1-1.263-.271 28.436 28.436 0 0 0-2.05-.366l-2.525-.325c-.867-.112-1.755-.174-1.972-.139-.216.038-.396-.1-.399-.3-.002-.222-.094-.254-.236-.083-.128.155-1.013.296-1.968.315-3.289.062-3.182.033-3.016.85.137.676 1.248 2.07 1.835 2.305.131.053.145.23.03.396-.115.165-.067.223.105.128s.797.197 1.39.648c.591.452 1.225.826 1.407.833.182.004.488.15.678.32.535.477 7.323 3.201 9.009 3.615.824.203 1.498.475 1.498.605s.178.178.395.107c.217-.07 1.033.054 1.814.272 1.922.541 2.617.519 1.262-.043zm83.901-1.41c.073-.043-.09-.08-.36-.08-.271 0-.582.208-.691.461-.173.402-.127.412.36.08.308-.21.619-.418.691-.462zM189.55 95.205c.006-.127-.203-.043-.463.19-.26.233-.473.582-.473.778 0 .378.92-.573.936-.968zm21.939.934c.107-.155-.027-.281-.297-.281-.27 0-.492.127-.492.281a.29.29 0 0 0 .297.281c.163 0 .384-.127.492-.281zm-58.678-3.603c-.097-.086-.352 0-.566.192-.309.278-.273.31.177.157.311-.105.486-.263.389-.349zm-5.214-.335c0-.155-.15-.281-.334-.281-.184 0-.247.127-.14.28.108.156.258.282.334.282.077 0 .14-.127.14-.281zm-6.942-1.206c0-.2-.32-.376-.71-.393-.39-.017-.531.033-.313.104.218.075.316.252.218.393-.098.142.043.258.313.258.271 0 .492-.163.492-.362zm154.188-.535c-.101-.224-.176-.157-.191.17-.015.297.06.463.166.37.104-.094.116-.336.025-.54zm-161.999-1.26c-.218-.077-.316-.257-.218-.399.099-.142.028-.257-.155-.257-.375 0-.445.37-.124.656.116.103.364.178.552.165.19-.012.165-.086-.055-.164zm-1.15-.7c.139-.2.086-.248-.14-.123-.2.11-.364.048-.364-.144 0-.19-.086-.27-.19-.176-.18.16.094.769.348.769.066 0 .221-.146.345-.325zm-3.344-.924c0-.068-.142-.202-.315-.298-.174-.096-.316-.037-.316.124 0 .164.142.298.316.298.173 0 .315-.056.315-.124zm.316-.83c0-.061-.22-.186-.49-.279-.28-.096-.407-.047-.297.111.185.267.787.396.787.168zm-2.63-.862c0-.225-.12-.343-.268-.262-.147.081-.186.266-.086.41.255.368.354.326.354-.148zm74.152-.487c-.1-.224-.176-.158-.19.17-.014.297.06.463.165.37.105-.094.116-.336.025-.54zm-15.532-.49c.1-.144.052-.333-.106-.421-.158-.087-.369.033-.468.262-.196.456.278.586.574.158zm11.639-.454c-.103-.24-.255-.374-.337-.3-.083.074-.057.269.057.434.312.449.493.362.28-.134zm-7.13-.762c-.046-.207.181-.318.553-.27.507.067.54.026.168-.194-.517-.31-1.387.142-1.092.566.251.364.463.306.372-.102zm4.812.07c0-.155-.062-.28-.139-.28-.076 0-.227.126-.334.28-.107.155-.044.281.14.281.183 0 .333-.126.333-.28zm101.597-1.406c0-.155-.063-.281-.14-.281-.076 0-.226.127-.334.28-.107.156-.044.282.14.282.183 0 .334-.127.334-.281zm-4.904-9.194c-.27-.24-.575-.362-.678-.27-.273.243.553 1.047.887.863.155-.086.061-.353-.209-.593zm-8.033-4.433c0-.068-.142-.202-.315-.297-.174-.096-.316-.038-.316.124 0 .164.142.297.316.297.174 0 .315-.055.315-.124zm-10.727-4.376c0-.155-.249-.28-.552-.277-.472.004-.484.043-.079.277.595.343.631.343.631 0zm-1.893-.844c0-.155-.142-.281-.316-.281-.173 0-.315.127-.315.28 0 .156.142.282.315.282.174 0 .316-.127.316-.281zm.475-.561c-.581-.573-1.624-.803-1.26-.279.108.158.325.216.48.13.157-.086.46.096.677.404.216.309.456.504.534.435.078-.07-.116-.38-.431-.69zm19.632.11c-.104-.094-.377-.104-.604-.021-.252.09-.177.157.19.17.333.012.52-.055.414-.148zm-22-.393c0-.155-.063-.281-.14-.281-.076 0-.227.127-.334.28-.107.156-.044.282.14.282.183 0 .334-.127.334-.281zm20.738-.17c-.105-.094-.377-.104-.604-.021-.252.09-.177.156.19.17.333.012.519-.054.414-.148zm-2.596-15.302c.107-.155.044-.28-.14-.28-.183 0-.334.126-.334.28 0 .155.063.281.14.281.076 0 .226-.127.334-.28zm-52.14-1.17c.754.11.702-.137-.066-.315-.354-.082-.794.048-1.026.303-.342.377-.331.406.067.189.26-.142.722-.221 1.026-.177zm41.228-2.004a44.668 44.668 0 0 1-.762-.492c-.584-.381-.599-.376-.198.08.238.27.581.492.762.492.181 0 .27-.038.198-.08zm-50.456-1.045c0-.155-.142-.281-.315-.281-.174 0-.316.126-.316.28 0 .156.142.282.316.282.173 0 .315-.127.315-.281zm41.773-2.485c.09-.129-.038-.235-.283-.235-.245 0-.372.105-.283.235.09.129.217.235.283.235.067 0 .194-.106.283-.235zm-56.918-1.172c0-.155-.221-.281-.492-.281-.27 0-.404.126-.297.28.108.156.33.282.492.282.164 0 .297-.127.297-.281zm50.167-1.829c0-.232-.137-.422-.305-.422-.168 0-.224.19-.124.422.1.232.237.422.305.422s.124-.19.124-.422zm-5.764-1.998c-.105-.094-.377-.104-.605-.02-.252.089-.177.156.19.17.333.012.52-.055.415-.148zM145.229 92.2c.108-.155.258-.28.334-.28.077 0 .14.126.14.28 0 .155-.15.281-.334.281-.184 0-.247-.127-.14-.28zm58.785-5.537c.228-.081.5-.071.605.021.104.094-.082.16-.415.148-.367-.013-.442-.08-.19-.17zm124.2-7.979c-.321-.317-2.65-1.5-5.175-2.627-6.173-2.758-10.429-5.26-10.429-6.133 0-.311 5.232-.033 8.362.448.52.08 1.905.162 3.077.182 2.4.043 2.524.322.357.808-1.545.347-7.378.373-7.378.034 0-.11-.213-.199-.474-.199-.951 0-.428.41 1.499 1.173 3.998 1.584 4.646 1.893 4.478 2.136-.095.136.022.181.258.1.237-.08.693.11 1.012.425.32.315.772.573 1.006.573.233 0 .424.127.424.281 0 .155.18.281.4.281.481 0 3.702 2.466 3.702 2.835 0 .433-.5.292-1.118-.317zm-227-3.726c-.78-.163-1.523-.432-1.65-.599-.128-.166-.235-.203-.237-.082-.003.122-.272.094-.598-.062-.677-.323-1.067-1.622-.545-1.815.192-.07.123-.138-.154-.15-.707-.034-1.66-1.04-1.372-1.455.148-.214.105-.27-.114-.15-.203.113-.558-.164-.845-.659-.272-.47-.403-.853-.29-.853.112 0 .01-.214-.229-.476-.294-.324-.307-.408-.038-.265.217.116.394.077.394-.087 0-.164-.15-.297-.334-.297-.184 0-.247-.127-.14-.281.108-.156.045-.281-.139-.281-.183 0-.334-.135-.334-.298 0-.164.113-.237.25-.16.137.075.195-.281.128-.792-.091-.696.06-1.08.598-1.528.465-.386.566-.598.286-.598-.296 0-.238-.143.177-.443.337-.243.41-.35.164-.235-.286.132-.228-.055.158-.514.333-.397.664-.672.735-.61.072.06.296-.173.5-.52.203-.348.545-.597.761-.555.216.043.314-.037.218-.173-.242-.35.947-1.254 1.45-1.103.227.068.667-.247.977-.7.35-.51.74-.765 1.022-.668.259.089.424.004.382-.186-.043-.192.18-.302.508-.252.37.057.503-.025.363-.23-.128-.184-.04-.292.205-.256.694.103 1.543-.34 1.32-.688-.113-.176-.09-.228.052-.113s.449.068.681-.105c.312-.23.424-.23.424.002 0 .174.137.316.305.316.168 0 .215-.211.103-.47-.155-.361-.075-.428.342-.285.324.11.467.074.352-.092-.106-.153-.043-.294.141-.313.81-.086.926-.117 1.15-.317.13-.116.567-.21.972-.21s.736-.127.736-.282c0-.155.107-.266.237-.248.13.017.308.013.394-.02.087-.034.371-.104.631-.164.26-.06 1.255-.35 2.209-.643.954-.294 1.948-.499 2.209-.454.26.042.58.09.71.102.13.013.235.18.234.374-.004.396-5.561 2.934-6.11 2.79-.196-.054-.25 0-.121.115s-.58.644-1.578 1.175c-5.708 3.044-8.62 5.38-9.236 7.407-.48 1.586-.598 2.528-.295 2.36.334-.183.666.692.413 1.087-.116.18-.104.242.025.138.129-.103.471.025.76.283.612.547.829 2.482.393 3.504-.267.627-.197.745.622 1.048.508.187.846.452.75.59-.094.136.12.248.478.248.357 0 .65.127.65.28 0 .33-.291.319-2.209-.081zm-2.839-12.981c0-.068-.142-.202-.315-.298-.174-.095-.316-.037-.316.124 0 .164.142.298.316.298.173 0 .315-.056.315-.124zm231.896 7.152c-.353-.195-.354-.31-.006-.684.552-.593.478-.636-1.898-1.105-1.117-.22-3.168-.684-4.556-1.03-1.388-.347-3.057-.689-3.707-.761-.651-.072-1.184-.245-1.184-.383 0-.139-.745-.265-1.656-.28-1.953-.034-3.486-.374-2.76-.614.26-.086 4.022-.285 8.36-.44 7.428-.267 12.779-.878 12.779-1.46 0-.513-3.268-.873-10.122-1.113-4.092-.144-7.819-.39-8.282-.547-1.284-.435-1.049-1.044.34-.883.217.025.395-.086.395-.248 0-.161.345-.293.768-.293.423 0 1.132-.124 1.578-.275.815-.276 1.065-.066.51.43-.19.168.42.272 1.656.282 2.266.016 4.438.263 4.985.565.254.14.299.091.135-.145-.175-.252-.075-.31.346-.2.325.085 1.121.224 1.769.309 3.352.44 6.868 1.549 6.868 2.165 0 .36-2.749 1.396-5.467 2.061-2.357.578-2.431.62-1.638.943.457.185.744.461.639.614-.108.155.012.207.273.118.603-.207 1.776.842 1.776 1.588 0 .319-.14.502-.312.408-.171-.095-.24-.004-.154.195.21.486-.888 1.085-1.435.783zm-199.398-2.72c0-.106.269-.454.597-.774.685-.667 1.296-2.963 1.296-4.87 0-1.72.58-1.244.836.686.221 1.662-.242 3.125-1.364 4.314-.742.786-1.365 1.08-1.365.644zm-10.63-2.07c-1.142-.394-1.784-1.58-1.87-3.457-.043-.947.071-1.883.255-2.08.183-.197.21-.36.058-.362-.152-.002-.063-.125.198-.271.26-.146.473-.398.473-.56 0-.472 1.713-1.647 2.676-1.836.908-.178 2.479.286 3.634 1.071.977.665.45.77-.948.188-1.272-.53-2.423-.489-3.284.114-.99.695-1.74 2.937-1.638 4.897.053 1.024 1.398 2.027 2.72 2.027.625 0 1.06.112.965.248-.22.318-2.338.331-3.239.02zm.218-11.836c0-.962 6.824-2.225 7.415-1.373.115.166-.234.282-.85.283-.573 0-2.286.297-3.804.659-1.518.362-2.76.556-2.76.43zm84.243-14.04c0-.15.213-.273.473-.273s.474.048.474.11-.213.184-.474.273c-.26.09-.473.038-.473-.11z"
       id="fish" />
  </defs>
  <use
     id="use9"
     style="fill:#f9eced"
     xlink:href="#fish" />
  <!-- Red circle which will be moved along the motion path. -->
  <circle
     id="circle11"
     fill="#f9eced"
     r="6"
     cy=""
     cx="">
    <!-- Define the motion path animation -->
    <animateMotion
       repeatCount="indefinite"
       dur="24s">
      <mpath
         xlink:href="#fish" />
    </animateMotion>
  </circle>
  <!-- Red circle which will be moved along the motion path. -->
  <circle
     id="circle13"
     fill="#9f353a"
     r="5"
     cy=""
     cx="">
    <!-- Define the motion path animation -->
    <animateMotion
       repeatCount="indefinite"
       dur="24s">
      <mpath
         xlink:href="#fish" />
    </animateMotion>
  </circle>
  <text
     id="text15"
     style="font-size:36px; writing-mode:tb; fill:none; stroke:#f9eced;"
     y="-50"
     x="30">
				♪作業十二♪
			  <animateMotion
   repeatCount="indefinite"
   dur="24s">
  <mpath
     xlink:href="#fish" />
</animateMotion>
</text>
</svg>
