<?xml version="1.0" encoding="utf-8"?>
<!-- Generator: Adobe Illustrator 16.0.0, SVG Export Plug-In . SVG Version: 6.00 Build 0)  -->
<!DOCTYPE svg PUBLIC "-//W3C//DTD SVG 1.1//EN" "http://www.w3.org/Graphics/SVG/1.1/DTD/svg11.dtd" [
	<!ENTITY ns_flows "http://ns.adobe.com/Flows/1.0/">
	<!ENTITY ns_extend "http://ns.adobe.com/Extensibility/1.0/">
	<!ENTITY ns_ai "http://ns.adobe.com/AdobeIllustrator/10.0/">
	<!ENTITY ns_graphs "http://ns.adobe.com/Graphs/1.0/">
]>
<svg version="1.1" id="Layer_1" xmlns:x="&ns_extend;" xmlns:i="&ns_ai;" xmlns:graph="&ns_graphs;"
	 xmlns="http://www.w3.org/2000/svg" xmlns:xlink="http://www.w3.org/1999/xlink" xmlns:a="http://ns.adobe.com/AdobeSVGViewerExtensions/3.0/"
	 x="0px" y="0px" width="864px" height="864px" viewBox="0 0 864 864" enable-background="new 0 0 864 864" xml:space="preserve">
<path fill-rule="evenodd" clip-rule="evenodd" fill="#F190AC" d="M601.081,700.614c-6.126,1.328-12.221,2.745-18.357,3.95
	c-5.425,1.065-10.888,1.946-16.349,2.812c-4.309,0.684-8.638,1.253-12.965,1.813c-5.415,0.702-10.833,1.383-16.258,2
	c-5.102,0.58-10.22,1.021-15.32,1.605c-5.256,0.603-10.498,1.335-15.753,1.951c-3.597,0.423-7.202,0.782-10.811,1.1
	c-7.979,0.703-15.962,1.362-23.944,2.035c-0.339,0.028-0.683,0.013-1.023,0.021c-6.283,0.171-12.565,0.387-18.85,0.503
	c-11.062,0.206-22.125,0.538-33.185,0.464c-9.241-0.062-18.487-0.481-27.715-1.015c-8.25-0.476-16.498-1.136-24.709-2.054
	c-10.346-1.156-20.647-2.704-30.98-3.985c-4.014-0.498-8.071-0.642-12.091-1.1c-6.425-0.734-12.842-1.543-19.249-2.418
	c-6.067-0.829-12.147-1.621-18.168-2.723c-8.041-1.473-16.031-3.228-24.02-4.856c0.724-4.619,1.306-8.675,2.003-12.711
	c1.326-7.675,2.506-15.382,4.132-22.994c2.655-12.429,5.166-24.918,8.564-37.152c4.295-15.468,9.044-30.835,14.297-46.003
	c4.708-13.593,10.137-26.951,15.671-40.236c4.578-10.988,9.796-21.711,14.675-32.575c0.808-1.799,1.746-2.079,3.736-1.683
	c7.311,1.456,14.684,2.603,22.045,3.798c2.733,0.444,5.526,0.565,8.228,1.138c0.698,0.148,1.462,1.368,1.672,2.225
	c1.672,6.814,2.927,13.744,4.874,20.475c2.818,9.749,7.276,18.838,13.839,26.597c5.071,5.994,10.857,11.353,17.892,15.192
	c6.002,3.276,12.269,5.85,18.908,7.366c3.915,0.895,7.949,1.535,11.955,1.706c11.003,0.469,22.036,0.295,32.625-3.139
	c9.599-3.111,18.174-8.029,25.668-15.031c12.074-11.281,17.928-25.773,22.254-41.119c1.13-4.01,1.499-8.236,2.163-12.373
	c0.219-1.363,0.772-1.874,2.269-2.059c6.409-0.787,12.803-1.729,19.179-2.76c3.79-0.613,7.522-1.59,11.316-2.175
	c0.654-0.102,1.832,0.765,2.18,1.474c3.334,6.783,6.688,13.564,9.747,20.475c3.765,8.499,7.401,17.061,10.83,25.698
	c7.661,19.296,14.785,38.786,20.212,58.853c3.493,12.913,7.204,25.773,10.34,38.773c2.234,9.266,3.771,18.707,5.436,28.103
	C599.197,687.086,600.036,693.645,601.081,700.614z"/>
<g>
	<path fill-rule="evenodd" clip-rule="evenodd" fill="#FFFFFF" d="M603.911,137.66c6.346-5.607,12.173-11.47,15.631-19.143
		c2.108-4.677,4.215-9.48,5.324-14.45c1.667-7.466,1.591-15.058-2.033-22.151c-1.507-2.951-3.198-5.807-4.978-9.014
		c2.111-0.475,4.537-1.361,7.006-1.501c4.523-0.258,9.077-0.217,13.607-0.036c4.412,0.177,6.778,3.542,8.594,6.852
		c2.021,3.684,3.639,7.69,4.764,11.742c2.116,7.623,3.965,15.335,5.519,23.092c1.231,6.15,1.975,12.408,2.72,18.643
		c0.967,8.094,1.722,16.213,2.564,24.321c0.026,0.254,0.02,0.511,0.023,0.767c0.171,11.657,0.59,23.317,0.411,34.969
		c-0.094,6.103-1.146,12.201-1.937,18.279c-0.517,3.969-1.366,7.894-1.999,11.849c-0.082,0.516,0.124,1.165,0.398,1.636
		c2.435,4.187,5.202,8.208,7.312,12.55c2.987,6.148,5.816,12.412,8.132,18.836c2.934,8.137,5.567,16.409,7.791,24.766
		c1.605,6.033,2.327,12.301,3.453,18.462c0.163,0.89,0.385,1.77,0.596,2.728c-5.784,1.51-11.458,2.814-17.018,4.495
		c-5.479,1.655-10.897,3.549-16.23,5.625c-2.505,0.975-3.671,3.253-3.167,6.006c0.465,2.534,1.916,4.129,4.404,5.317
		c3.042,1.454,5.724,0.299,8.525-0.142c8.244-1.297,16.472-2.705,25.52-4.204c-0.85,13.083-1.669,25.696-2.504,38.549
		c-3.876,0-7.025-0.193-10.141,0.05c-3.65,0.285-7.28,0.893-10.903,1.466c-2.648,0.418-4.142,1.99-4.18,4.769
		c-0.033,2.459,1.476,4.559,4.406,5.439c5.416,1.626,10.896,3.045,16.527,4.599c-3.071,10.551-6.95,20.952-12.415,30.775
		c-3.612,6.493-3.349,6.399-10.743,4.866c-5.063-1.049-10.191-2.252-15.482-1.311c-2.576,0.458-5.045,2.433-5.33,4.567
		c-0.339,2.534,0.977,6.504,4.064,7.547c4.325,1.462,8.499,3.372,13.428,5.37c-4.481,4.57-8.646,9.058-13.079,13.262
		c-3.478,3.299-7.11,6.491-10.989,9.295c-5.683,4.105-11.4,8.28-17.551,11.596c-9.028,4.866-18.249,9.509-27.766,13.302
		c-9.724,3.875-19.799,6.991-29.911,9.734c-9.968,2.703-20.14,4.701-30.288,6.662c-6.325,1.223-12.77,1.832-19.168,2.66
		c-6.822,0.882-13.645,1.775-20.483,2.508c-3.445,0.369-6.925,0.504-10.392,0.551c-15.667,0.216-31.334,0.401-47.001,0.518
		c-10.153,0.076-20.31,0.143-30.46-0.028c-7.361-0.124-14.735-0.415-22.068-1.047c-9.032-0.778-18.049-1.829-27.031-3.062
		c-6.867-0.944-13.708-2.175-20.491-3.603c-8.723-1.838-17.49-3.618-26.033-6.122c-10.138-2.973-20.176-6.378-30.043-10.155
		c-13.548-5.187-26.304-12.021-38.08-20.534c-4.484-3.241-8.804-6.765-12.872-10.514c-5.078-4.682-9.82-9.728-15.043-14.953
		c5.016-2.074,9.379-4.038,13.863-5.669c2.49-0.907,3.165-2.932,3.583-4.974c0.42-2.056,0.096-3.951-2.086-5.474
		c-2.772-1.935-5.642-2.01-8.631-1.568c-5.37,0.793-10.702,1.855-16.074,2.635c-0.59,0.086-1.609-0.794-1.974-1.471
		c-2.731-5.074-5.653-10.079-7.925-15.36c-2.82-6.555-5.072-13.355-7.517-19.907c5.907-1.636,11.387-3.053,16.799-4.69
		c3.173-0.96,4.671-3.181,4.459-5.9c-0.225-2.888-3.495-5.179-7.443-5.327c-5.59-0.21-11.177-0.49-17.084-0.755
		c-2.293-12.403-2.944-25.072-2.513-38.278c9.981,1.75,19.828,3.48,29.677,5.2c2.898,0.506,7.409-2.64,8.09-5.618
		c0.666-2.911-1.453-6.638-4.548-7.59c-8.44-2.595-16.901-5.123-25.38-7.585c-2.057-0.598-4.215-0.843-6.599-1.303
		c0.953-5.259,1.564-10.334,2.824-15.242c2.752-10.731,5.387-21.527,8.897-32.02c4.191-12.527,9.645-24.577,16.581-35.896
		c4.013-6.549,7.91-13.168,11.866-19.752c0.851-1.415,1.954-2.724,2.552-4.236c1.036-2.618-0.088-6.667-1.965-8.059
		c-1.803-1.337-5.967-1.229-8.144,0.314c-3.279,2.324-6.507,4.72-9.796,7.114c-3.386-6.236-5.439-13.148-6.196-20.414
		c-0.524-5.032-1.113-10.111-0.966-15.148c0.24-8.208,1.192-16.333,3.329-24.364c2.36-8.868,5.371-17.364,10.39-25.069
		c3.009-4.62,6.394-9.003,11.348-11.641c5.009-2.667,10.456-3.367,16.09-2.333c7.305,1.34,14.757,2.129,21.889,4.089
		c9.142,2.513,18.107,5.74,26.999,9.062c7.73,2.887,15.282,6.264,22.856,9.555c5.138,2.233,10.166,4.72,15.277,7.016
		c0.677,0.304,1.602,0.336,2.344,0.178c9.784-2.084,19.507-4.5,29.347-6.26c7.339-1.312,14.813-1.95,22.252-2.598
		c6.484-0.565,13-0.893,19.508-1.031c13.532-0.286,27.07-0.27,40.599-0.632c2.885-0.077,4.149,0.973,4.689,3.297
		c-6.21,1.153-12.604,1.736-18.612,3.575c-15.47,4.732-28.753,12.638-36.069,27.993c-4.085,8.575-5.212,17.586-3.952,27.011
		c0.789,5.896,2.265,11.415,5.718,16.364c3.688,5.285,8.551,9.146,14.023,12.379c7.121,4.206,14.803,6.98,22.873,8.507
		c5.942,1.125,11.954,1.993,18.078,0.863c4.724-0.871,9.517-1.363,14.321-2.03c-1.332,9.739-0.248,19.761,3.1,29.297
		c3.619,10.312,9.633,19.276,19.019,25.366c5.515,3.578,11.635,5.666,18.317,6.259c8.395,0.745,16.417-0.102,23.882-4.194
		c8.219-4.506,14.573-11.006,19.897-18.659c4.983-7.162,8.466-14.928,10.091-23.485c0.541-2.852,0.656-5.784,0.982-8.83
		c7.301,6.24,16.104,8.798,25.155,10.474c7.576,1.403,15.255,1.476,22.97,0.654c9.467-1.009,18.08-4.075,25.672-9.793
		c3.702-2.788,6.91-6.061,8.973-10.375c1.605-3.359,4.072-6.368,5.304-9.834c3.466-9.757,1.697-19.341-1.941-28.701
		c-2.769-7.121-6.947-13.422-12.222-18.853C618.086,145.247,611.616,140.586,603.911,137.66z M431.301,426.627
		c1.365,0,2.732,0.03,4.095-0.004c9.021-0.231,16.905-3.294,23.232-9.792c5.004-5.14,7.121-11.417,5.453-18.468
		c-2.375-10.035-9.874-15.065-18.952-18.3c-4.872-1.736-9.954-1.414-15.013-1.604c-7.729-0.29-14.784,1.534-21.279,5.665
		c-5.79,3.683-9.936,8.748-10.796,15.594c-1.447,11.515,5.892,19.57,15.318,23.812C419.069,426.098,425.041,427.215,431.301,426.627
		z M586.388,359.395c0.162-8.558-2.169-15.906-8.326-21.636c-7.948-7.395-18.97-5.231-25.003,3.557
		c-4.064,5.92-5.509,12.496-5.139,19.645c0.39,7.518,2.78,14.072,8.252,19.341c6.396,6.159,15.938,5.795,22.011-0.05
		C584.171,374.488,586.54,367.277,586.388,359.395z M276.05,359.244c-0.132,7.955,2.124,15.146,8.053,20.834
		c7.979,7.655,19.393,5.667,25.488-3.604c3.299-5.018,4.86-10.495,4.958-16.562c0.141-8.686-2.075-16.357-8.571-22.36
		c-6.203-5.731-15.238-5.703-21.438,0.041C278.295,343.379,275.883,350.762,276.05,359.244z"/>
	<path fill-rule="evenodd" clip-rule="evenodd" fill="#FFFFFF" d="M258.445,722c5.524,1.2,10.538,2.441,15.611,3.352
		c6.093,1.095,12.227,1.962,18.357,2.831c7.548,1.069,15.105,2.089,22.669,3.035c4.918,0.615,9.857,1.062,14.786,1.587
		c7.936,0.846,15.866,1.754,23.809,2.519c4.87,0.469,9.762,0.687,14.64,1.07c8.229,0.649,16.454,1.36,24.684,2.006
		c3.033,0.238,6.072,0.417,9.112,0.536c5.34,0.209,10.684,0.316,16.022,0.549c1.4,0.061,2.788,0.421,4.902,0.759
		c0,9.305-0.071,18.638,0.02,27.968c0.09,9.305-0.561,18.538-2.631,27.61c-1,4.381-2.556,8.555-5.262,12.34
		c-2.763,3.867-6.535,5.541-10.86,6.574c-14.582,3.482-29.43,4.276-44.291,3.454c-9.171-0.507-18.366-1.872-27.37-3.729
		c-8.04-1.658-15.937-4.22-23.706-6.93c-9.285-3.238-17.853-7.891-25.244-14.575c-9.984-9.031-16.188-20.235-19.996-33.021
		c-2.352-7.899-4-15.881-4.519-24.096C258.893,731.293,258.694,726.743,258.445,722z"/>
	<path fill-rule="evenodd" clip-rule="evenodd" fill="#FFFFFF" d="M604.179,722.232c-0.475,6.051-0.596,12.138-1.512,18.103
		c-1.099,7.153-2.443,14.328-4.46,21.268c-2.946,10.142-7.994,19.222-15.182,27.152c-4.988,5.504-10.825,9.689-17.247,13.202
		c-12.576,6.879-26.111,10.932-40.173,13.275c-6.523,1.088-13.099,2.033-19.689,2.503c-7.277,0.52-14.631,0.925-21.893,0.454
		c-7.911-0.512-15.757-2.067-23.626-3.204c-4.481-0.647-8.708-1.933-11.729-5.602c-3.824-4.646-5.536-10.214-6.701-15.985
		c-2.757-13.66-2.013-27.5-2.016-41.294c-0.001-3.959,0.449-7.918,0.715-12.264c6.192-0.296,12.433-0.528,18.664-0.909
		c8.981-0.548,17.956-1.191,26.933-1.818c7.188-0.503,14.39-0.895,21.56-1.595c12.241-1.195,24.467-2.558,36.691-3.923
		c6.36-0.711,12.714-1.495,19.05-2.401c7.616-1.089,15.223-2.264,22.809-3.551C592.119,724.668,597.825,723.459,604.179,722.232z"/>
	<path fill-rule="evenodd" clip-rule="evenodd" fill="#FFFFFF" d="M235.356,525.573c2.374,4.335,4.455,8.05,6.456,11.806
		c5.119,9.607,10.363,19.153,15.244,28.88c3.367,6.71,6.238,13.67,9.251,20.552c0.29,0.661,0.187,1.616-0.021,2.354
		c-2.844,10.098-5.712,20.188-8.67,30.252c-0.22,0.749-1.059,1.57-1.806,1.873c-9.083,3.674-18.651,4.769-28.264,3.896
		c-10.435-0.946-20.713-3.127-29.453-9.508c-5.824-4.252-9.884-9.995-12.6-16.631c-1.942-4.745-3.129-9.675-3.143-14.881
		c-0.022-8.386,2.582-15.803,7.893-22.239c1.514-1.835,1.953-3.382,1.163-5.856c-1.468-4.599-2.562-9.31-1.437-14.329
		c1.522-6.793,6.093-10.282,12.241-12.168c7.162-2.197,13.702-0.485,19.603,3.847c1.852,1.359,2.966,1.191,4.635-0.45
		C229.123,530.341,232.217,528.138,235.356,525.573z"/>
	<path fill-rule="evenodd" clip-rule="evenodd" fill="#FFFFFF" d="M630.394,625.331c-8.323,0.068-15.982-1.163-23.319-4.087
		c-0.734-0.293-1.526-1.151-1.748-1.906c-2.955-10.062-5.913-20.127-8.587-30.266c-0.397-1.506,0.332-3.554,1.086-5.081
		c6.654-13.492,13.402-26.938,20.188-40.365c2.68-5.299,5.542-10.505,8.286-15.771c0.651-1.25,1.179-1.903,2.586-0.671
		c2.331,2.04,4.985,3.727,7.214,5.863c1.602,1.534,2.867,2.17,4.699,0.553c3.67-3.241,8.269-4.708,12.885-4.919
		c5.772-0.264,11.051,1.631,15.23,6.175c5.305,5.769,4.767,12.438,2.7,18.893c-1.405,4.392-0.26,7.093,2.261,10.511
		c5.745,7.792,7.388,16.774,5.609,26.29c-1.096,5.867-3.388,11.247-6.72,16.261c-5.349,8.048-12.963,12.743-21.993,15.361
		C643.992,624.137,637.075,625.474,630.394,625.331z"/>
</g>
<g>
	<path fill-rule="evenodd" clip-rule="evenodd" fill="#E9187E" d="M471.343,209.837c0-5.432,0.007-10.865-0.002-16.297
		c-0.006-3.22-0.377-3.431-3.343-2.594c-7.26,2.047-14.445,4.631-21.851,5.81c-6.188,0.985-12.647,0.43-18.98,0.29
		c-6.758-0.149-13.137-2.087-19.088-5.211c-6.342-3.33-11.404-8.026-12.99-15.302c-0.696-3.196-0.75-6.665-0.394-9.933
		c0.91-8.335,4.957-15.278,11.479-20.312c4.136-3.191,9.006-5.618,13.854-7.655c9.036-3.797,18.634-5.612,28.354-6.75
		c3.844-0.45,7.671-1.046,11.516-1.491c2.266-0.263,2.787-1.158,1.562-3.162c-1.758-2.875-3.687-5.65-5.359-8.572
		c-5.615-9.81-9.582-20.195-10.899-31.514c-0.859-7.379-0.998-14.676,1.519-21.804c2.437-6.897,6.563-12.029,13.935-14.204
		c4.037-1.191,7.895-2.92,12.25-2.696c6.372,0.329,11.937,2.776,17.031,6.401c11.744,8.355,18.834,20.384,25.369,32.756
		c2.188,4.141,3.617,8.683,5.368,13.051c0.983,2.452,1.992,2.748,3.812,0.804c2.661-2.843,4.908-6.132,7.821-8.669
		c4.701-4.093,9.666-7.919,14.764-11.513c7.789-5.492,16.38-9.336,25.79-11.131c10.997-2.099,21.011,0.048,28.861,8.283
		c3.823,4.011,6.017,9.249,7.018,14.908c1.572,8.883-2.107,16.069-7.271,22.607c-6.051,7.661-13.273,14.222-20.785,20.45
		c-1.63,1.352-3.192,2.787-4.755,4.217c-1.248,1.143-1.485,2.058,0.563,2.58c10.018,2.552,19.162,6.985,27.256,13.38
		c7.365,5.82,13.739,12.544,17.286,21.496c2.528,6.381,3.161,12.938,0.225,19.19c-1.307,2.784-3.916,5.172-6.405,7.146
		c-8.242,6.532-17.758,9.64-28.276,9.006c-7.61-0.458-14.927-2.479-21.846-5.697c-8.301-3.862-15.975-8.742-23.026-14.61
		c-1.092-0.909-2.604-1.311-3.923-1.947c-0.255,1.361-0.736,2.724-0.729,4.083c0.084,14.906-3.399,28.906-10.622,41.939
		c-3.41,6.152-7.777,11.576-14.086,14.913c-3.437,1.818-7.184,3.154-11.334,2.39c-2.479-0.457-5.121-0.171-7.533-0.807
		c-11.154-2.945-17.775-10.297-20.623-21.411C470.959,224.86,470.67,217.385,471.343,209.837z M538.928,147.724
		c0.774-15.888-13.594-28.383-26.868-29.146c-17.303-0.994-29.755,14.046-30.469,27.216c-1.031,19,14.755,30.625,26.864,31.342
		C525.455,178.142,539.833,163.398,538.928,147.724z"/>
	<path fill-rule="evenodd" clip-rule="evenodd" fill="#E9187E" d="M375.274,515.245c14.958,0.229,29.473,0.428,43.987,0.679
		c6.625,0.114,13.249,0.486,19.873,0.464c10.292-0.035,20.585-0.233,30.873-0.515c3.958-0.108,7.903-0.665,11.858-0.946
		c1.515-0.107,3.044-0.018,5.048-0.018c-0.396,2.173-0.759,4.09-1.091,6.011c-1.639,9.471-4.623,18.531-9.784,26.616
		c-7.009,10.978-17.373,17.304-29.996,20.276c-5.891,1.388-11.796,2.501-17.805,1.941c-12.168-1.135-23.613-4.279-33.261-12.435
		c-8.214-6.942-12.72-16.027-15.727-26.001C377.638,525.973,376.548,520.47,375.274,515.245z"/>
	<path fill-rule="evenodd" clip-rule="evenodd" fill="#E9187E" d="M297.563,508.971c-7.395,16.744-14.871,33.67-22.305,50.502
		c-6.748-13.061-13.658-26.438-20.701-40.072C268.239,512.438,282.828,509.354,297.563,508.971z"/>
	<path fill-rule="evenodd" clip-rule="evenodd" fill="#E9187E" d="M565.315,508.813c4.304,0.462,8.998,0.793,13.634,1.501
		c8.663,1.323,17.142,3.382,25.062,7.299c3.771,1.865,3.791,1.881,1.845,5.682c-6.041,11.793-12.1,23.577-18.158,35.361
		c-0.14,0.271-0.365,0.5-0.208,0.289C580.162,542.379,572.761,525.646,565.315,508.813z"/>
</g>
<g>
	<path fill-rule="evenodd" clip-rule="evenodd" d="M173.726,416.804c-6.771-12.838-11.546-26.404-15.033-40.452
		c-6.238,0.546-12.477,1.193-18.731,1.616c-8.939,0.604-17.886,1.154-26.838,1.466c-1.887,0.066-3.922-0.767-5.693-1.6
		c-1.949-0.917-2.368-3.817-1.306-5.759c2.418-4.42,6.746-5.411,11.12-6.353c10.274-2.211,20.545-4.444,30.832-6.595
		c1.801-0.377,3.698-0.291,5.508-0.64c0.616-0.118,1.608-0.962,1.569-1.399c-0.547-6.185-1.544-12.343-1.823-18.536
		c-0.332-7.375-0.078-14.775-0.078-22.462c-1.834-0.165-4.065-0.446-6.305-0.554c-11.334-0.542-22.669-1.045-34.005-1.551
		c-4.147-0.185-8.298-0.302-12.443-0.533c-1.325-0.074-2.712-0.212-3.933-0.682c-1.887-0.727-3.692-1.664-3.789-4.181
		c-0.104-2.741,0.668-4.912,3.151-6.388c4.129-2.455,8.553-3.506,13.355-3.594c12.479-0.229,24.955-0.699,37.434-0.946
		c2.92-0.058,5.85,0.385,8.677,0.591c2.85-17.163,6.47-33.785,12.214-49.835c3.627-10.135,7.98-20.017,13.611-29.253
		c1.299-2.131,1.709-4.084,0.515-6.442c-4.333-8.548-6.804-17.757-8.864-27.033c-1.213-5.461-1.744-11.105-2.189-16.698
		c-0.445-5.576-0.656-11.198-0.519-16.789c0.309-12.639,2.724-24.872,6.757-36.909c3.387-10.108,8.284-19.254,14.292-27.963
		c5.224-7.572,12.912-11.068,21.286-13.403c7.748-2.161,15.667-1.848,23.627-1.127c15.638,1.417,30.453,6.021,44.961,11.595
		c13.31,5.114,26.364,10.892,39.554,16.323c0.716,0.294,1.733,0.338,2.451,0.071c8.099-3.011,16.477-4.758,25.016-5.953
		c11.133-1.558,22.293-2.505,33.543-2.555c12.341-0.054,24.68-0.364,37.021-0.447c2.925-0.02,5.854,0.42,9.075,0.671
		c-0.256-1.605-0.349-2.762-0.631-3.871c-2.076-8.154-1.325-16.339,0.688-24.261c1.685-6.633,4.844-12.758,9.574-17.997
		c3.073-3.404,6.484-6.285,10.34-8.679c1.263-0.784,2.732-1.233,4.009-2c6.875-4.124,14.481-5.123,22.235-4.768
		c11.33,0.52,21.18,4.78,29.818,12.248c9.851,8.518,16.931,18.986,22.768,30.444c0.265,0.519,0.578,1.018,0.917,1.491
		c0.194,0.271,0.488,0.47,0.301,0.295c4.776-3.977,9.23-8.231,14.222-11.717c8.324-5.815,17.727-9.191,27.771-10.835
		c6.611-1.082,13.121-0.292,19.651,0.574c0.163,0.022,0.335,0.088,0.472,0.179c4.361,2.909,8.655,2.007,13.29,0.373
		c7.417-2.615,15.104-4.155,23.01-4.793c7.374-0.595,14.677-0.85,21.835,1.17c9.407,2.655,15.023,9.273,18.761,18.042
		c4.944,11.601,7.584,23.813,10.066,36.063c1.245,6.147,1.933,12.418,2.662,18.658c0.966,8.266,1.728,16.556,2.573,24.835
		c0.025,0.254,0.01,0.512,0.014,0.768c0.171,11.828,0.776,23.671,0.374,35.479c-0.317,9.291-1.633,18.575-3.006,27.788
		c-0.576,3.865,0.829,6.76,2.382,9.89c2.746,5.538,5.619,11.029,8.017,16.719c2.942,6.984,5.649,14.084,8.102,21.255
		c3.948,11.54,6.597,23.425,8.672,35.437c0.141,0.817,0.019,1.681,0.019,3.005c2.685-0.237,5.168-0.624,7.655-0.646
		c8.532-0.079,17.071-0.226,25.598,0.032c6.649,0.2,13.353,0.548,19.892,1.658c3.079,0.522,6.172,2.601,8.577,4.741
		c1.15,1.023,1.287,3.965,0.86,5.8c-0.635,2.734-3.549,2.94-5.869,3.582c-0.159,0.044-0.341,0.005-0.511,0.009
		c-8.33,0.17-16.665,0.208-24.987,0.549c-8.355,0.344-16.7,0.969-25.046,1.527c-1.319,0.088-2.618,0.478-3.591,0.664
		c0,4.296,0.195,8.524-0.04,12.728c-0.517,9.26-1.278,18.506-1.831,27.765c-0.034,0.583,0.798,1.668,1.361,1.769
		c7.24,1.303,14.544,2.273,21.752,3.729c6.614,1.335,13.145,3.105,19.686,4.783c3.03,0.778,5.108,3,6.5,5.594
		c1.632,3.043-1.907,6.964-6.432,6.884c-6.936-0.123-13.865-0.573-20.794-0.965c-4.801-0.272-9.599-0.625-14.39-1.044
		c-3.74-0.327-7.466-0.812-11.252-1.232c-3.517,14.125-8.301,27.769-14.895,40.249c12.611,5.975,25.163,11.814,37.6,17.888
		c3.285,1.604,6.984,2.826,8.725,6.711c1.801,4.021,0.074,7.825-3.988,9.495c-3.691,1.517-6.485-0.534-9.488-1.604
		c-10.442-3.721-20.811-7.65-31.208-11.497c-3.202-1.186-6.413-2.348-9.611-3.545c-1.497-0.561-2.479-0.119-3.555,1.107
		c-3.904,4.458-7.63,9.152-12.035,13.07c-7.594,6.755-15.262,13.547-23.59,19.328c-14.463,10.039-30.239,17.757-46.815,23.774
		c-1.608,0.584-3.128,1.414-4.937,2.244c10.006,1.707,19.47,4.073,28.425,7.986c7.175,3.135,14.029,6.996,21.154,10.253
		c1.271,0.581,3.196-0.081,4.774-0.395c11.412-2.266,22.47-1.848,32.406,4.954c8.646,5.919,14.109,14.065,14.998,24.692
		c0.367,4.387-0.256,8.849-0.183,13.271c0.023,1.39,0.571,2.951,1.352,4.116c5.99,8.941,8.362,18.852,7.547,29.435
		c-0.916,11.894-4.462,22.803-12.531,32.072c-5.248,6.028-11.62,10.316-18.464,14.122c-7.574,4.212-15.678,7.119-24.153,8.593
		c-10.672,1.854-21.429,1.993-32.271-0.844c1.587,7.723,3.225,15.262,4.665,22.838c1.109,5.83,2.13,11.687,2.905,17.568
		c1.164,8.821,2.418,17.653,2.997,26.523c0.499,7.646,0.284,15.356,0.076,23.03c-0.45,16.565-3.468,32.572-10.671,47.665
		c-4.874,10.213-10.911,19.704-18.905,27.631c-4.511,4.473-10.109,7.99-15.604,11.297c-11.691,7.034-24.593,11.157-37.824,14.108
		c-7.495,1.671-15.149,2.636-22.742,3.858c-12.635,2.033-25.391,1.865-38.092,1.431c-11.553-0.396-23.077-1.79-34.193-5.265
		c-4.426-1.384-8.695-3.264-13.05-4.877c-0.576-0.213-1.316-0.413-1.851-0.233c-2.679,0.901-5.392,1.767-7.951,2.949
		c-6.753,3.121-14.006,4.198-21.216,5.492c-13.855,2.487-27.866,2.398-41.825,1.91c-8.353-0.293-16.663-1.878-24.987-2.924
		c-10.144-1.273-19.947-3.982-29.628-7.173c-9.082-2.994-17.762-6.962-25.822-12.042c-8.409-5.301-14.932-12.597-20.552-20.839
		c-5.837-8.562-10.608-17.623-13.753-27.432c-1.927-6.007-3.051-12.297-4.214-18.52c-2.403-12.86-1.63-25.89-1.472-38.852
		c0.075-6.188,1.153-12.373,1.932-18.54c0.944-7.479,1.884-14.967,3.139-22.398c1.181-6.992,2.763-13.917,4.182-20.868
		c0.414-2.025,0.874-4.041,1.343-6.201c-3.354,0.49-6.602,1.182-9.881,1.396c-4.991,0.324-10.073,0.896-14.989,0.304
		c-6.09-0.731-12.16-2.187-18.033-3.998c-4.977-1.534-9.877-3.634-14.413-6.191c-4.928-2.778-9.686-6.032-13.986-9.702
		c-5.084-4.339-8.871-9.895-11.472-16.093c-3.307-7.879-4.911-16.118-4.746-24.706s2.511-16.515,7.126-23.702
		c1.545-2.404,2.036-4.682,1.615-7.476c-1.618-10.747,0.884-20.275,7.86-28.878c5.338-6.583,12.168-10.271,20.076-11.922
		c4.192-0.875,8.71-0.451,13.06-0.224c3.149,0.164,6.265,1.341,9.396,1.347c1.81,0.004,3.741-1.221,5.412-2.232
		c9.722-5.885,20.232-9.862,31.104-12.938c4.776-1.352,9.651-2.358,14.712-3.577c-3.895-1.564-7.744-3.071-11.563-4.652
		c-11.611-4.806-22.847-10.349-33.556-16.947c-9.45-5.822-18.504-12.189-26.49-19.917c-5.521-5.342-10.785-10.955-15.999-16.6
		c-1.281-1.387-2.205-1.677-3.958-1.032c-14.313,5.267-28.735,10.252-42.947,15.773c-2.78,1.081-4.931,1.369-7.562,0.36
		c-3.36-1.288-5.264-4.794-3.892-8.097c0.95-2.289,2.253-4.312,4.799-5.521c6.356-3.016,12.479-6.527,18.845-9.519
		C158.063,423.519,165.835,420.274,173.726,416.804z M603.911,137.66c7.705,2.926,14.175,7.586,19.757,13.333
		c5.274,5.431,9.453,11.732,12.222,18.853c3.639,9.359,5.407,18.943,1.941,28.701c-1.231,3.467-3.698,6.475-5.304,9.834
		c-2.062,4.314-5.271,7.587-8.973,10.375c-7.592,5.718-16.205,8.784-25.672,9.793c-7.715,0.822-15.394,0.749-22.97-0.654
		c-9.052-1.676-17.854-4.234-25.155-10.474c-0.326,3.045-0.441,5.978-0.982,8.83c-1.625,8.557-5.107,16.323-10.091,23.485
		c-5.324,7.653-11.679,14.153-19.897,18.659c-7.465,4.093-15.487,4.939-23.882,4.194c-6.683-0.593-12.803-2.681-18.317-6.259
		c-9.386-6.09-15.399-15.053-19.019-25.366c-3.348-9.536-4.432-19.558-3.1-29.297c-4.805,0.667-9.598,1.159-14.321,2.03
		c-6.124,1.13-12.136,0.262-18.078-0.863c-8.07-1.527-15.752-4.301-22.873-8.507c-5.473-3.234-10.336-7.095-14.023-12.379
		c-3.453-4.949-4.929-10.468-5.718-16.364c-1.26-9.424-0.133-18.436,3.952-27.011c7.316-15.355,20.6-23.26,36.069-27.993
		c6.009-1.838,12.402-2.421,18.612-3.575c-0.54-2.324-1.805-3.375-4.689-3.297c-13.529,0.363-27.067,0.346-40.599,0.632
		c-6.508,0.138-13.024,0.465-19.508,1.031c-7.439,0.648-14.914,1.286-22.252,2.598c-9.84,1.76-19.563,4.176-29.347,6.26
		c-0.742,0.158-1.667,0.126-2.344-0.178c-5.112-2.296-10.139-4.783-15.277-7.016c-7.574-3.291-15.125-6.668-22.856-9.555
		c-8.891-3.321-17.857-6.549-26.999-9.062c-7.132-1.96-14.584-2.749-21.889-4.089c-5.634-1.034-11.081-0.334-16.09,2.333
		c-4.954,2.637-8.339,7.021-11.348,11.641c-5.019,7.706-8.03,16.201-10.39,25.069c-2.137,8.031-3.089,16.156-3.329,24.364
		c-0.147,5.037,0.442,10.116,0.966,15.148c0.757,7.266,2.81,14.178,6.196,20.414c3.289-2.394,6.517-4.79,9.796-7.114
		c2.177-1.543,6.341-1.651,8.144-0.314c1.877,1.392,3.001,5.44,1.965,8.059c-0.598,1.512-1.702,2.821-2.552,4.236
		c-3.957,6.583-7.854,13.203-11.866,19.752c-6.936,11.319-12.389,23.368-16.581,35.896c-3.51,10.493-6.145,21.289-8.897,32.02
		c-1.259,4.908-1.871,9.982-2.824,15.242c2.384,0.46,4.542,0.705,6.599,1.303c8.479,2.463,16.94,4.99,25.38,7.585
		c3.095,0.952,5.214,4.679,4.548,7.59c-0.681,2.978-5.192,6.124-8.09,5.618c-9.849-1.72-19.695-3.45-29.677-5.2
		c-0.432,13.206,0.22,25.875,2.513,38.278c5.907,0.265,11.494,0.545,17.084,0.755c3.948,0.148,7.218,2.439,7.443,5.327
		c0.212,2.72-1.287,4.94-4.459,5.9c-5.413,1.637-10.892,3.054-16.799,4.69c2.445,6.552,4.697,13.352,7.517,19.907
		c2.272,5.281,5.193,10.286,7.925,15.36c0.365,0.677,1.384,1.557,1.974,1.471c5.372-0.78,10.704-1.842,16.074-2.635
		c2.99-0.441,5.859-0.367,8.631,1.568c2.182,1.523,2.506,3.418,2.086,5.474c-0.418,2.042-1.093,4.067-3.583,4.974
		c-4.483,1.632-8.847,3.595-13.863,5.669c5.224,5.225,9.965,10.271,15.043,14.953c4.068,3.749,8.388,7.272,12.872,10.514
		c11.776,8.513,24.532,15.348,38.08,20.534c9.868,3.777,19.906,7.183,30.043,10.155c8.543,2.504,17.31,4.284,26.033,6.122
		c6.783,1.428,13.624,2.658,20.491,3.603c8.982,1.233,17.999,2.284,27.031,3.062c7.333,0.632,14.707,0.923,22.068,1.047
		c10.151,0.171,20.308,0.104,30.46,0.028c15.667-0.116,31.334-0.302,47.001-0.518c3.467-0.047,6.946-0.182,10.392-0.551
		c6.839-0.732,13.661-1.626,20.483-2.508c6.398-0.828,12.843-1.438,19.168-2.66c10.148-1.961,20.32-3.959,30.288-6.662
		c10.112-2.743,20.188-5.859,29.911-9.734c9.517-3.793,18.737-8.436,27.766-13.302c6.15-3.315,11.868-7.49,17.551-11.596
		c3.879-2.804,7.512-5.996,10.989-9.295c4.433-4.204,8.598-8.692,13.079-13.262c-4.929-1.998-9.103-3.908-13.428-5.37
		c-3.088-1.043-4.403-5.014-4.064-7.547c0.285-2.135,2.754-4.109,5.33-4.567c5.291-0.941,10.419,0.262,15.482,1.311
		c7.395,1.533,7.131,1.627,10.743-4.866c5.465-9.824,9.344-20.225,12.415-30.775c-5.632-1.554-11.111-2.973-16.527-4.599
		c-2.931-0.88-4.439-2.979-4.406-5.439c0.038-2.779,1.531-4.35,4.18-4.769c3.623-0.573,7.253-1.182,10.903-1.466
		c3.115-0.243,6.265-0.05,10.141-0.05c0.835-12.854,1.654-25.467,2.504-38.549c-9.048,1.499-17.275,2.907-25.52,4.204
		c-2.802,0.441-5.483,1.596-8.525,0.142c-2.488-1.188-3.939-2.783-4.404-5.317c-0.504-2.753,0.662-5.031,3.167-6.006
		c5.333-2.077,10.752-3.97,16.23-5.625c5.56-1.68,11.233-2.984,17.018-4.495c-0.211-0.958-0.433-1.837-0.596-2.728
		c-1.126-6.161-1.848-12.429-3.453-18.462c-2.224-8.357-4.857-16.628-7.791-24.766c-2.315-6.424-5.145-12.688-8.132-18.836
		c-2.11-4.342-4.878-8.363-7.312-12.55c-0.274-0.471-0.48-1.12-0.398-1.636c0.633-3.956,1.482-7.88,1.999-11.849
		c0.79-6.078,1.843-12.176,1.937-18.279c0.179-11.651-0.24-23.312-0.411-34.969c-0.004-0.256,0.003-0.513-0.023-0.767
		c-0.843-8.108-1.598-16.228-2.564-24.321c-0.745-6.235-1.488-12.493-2.72-18.643c-1.554-7.757-3.402-15.469-5.519-23.092
		c-1.125-4.052-2.743-8.058-4.764-11.742c-1.815-3.31-4.182-6.675-8.594-6.852c-4.53-0.181-9.084-0.222-13.607,0.036
		c-2.469,0.141-4.895,1.026-7.006,1.501c1.779,3.208,3.471,6.063,4.978,9.014c3.624,7.093,3.7,14.685,2.033,22.151
		c-1.109,4.969-3.216,9.773-5.324,14.45C616.084,126.19,610.257,132.053,603.911,137.66z M601.081,700.614
		c-1.045-6.97-1.884-13.528-3.036-20.033c-1.664-9.396-3.201-18.837-5.436-28.103c-3.136-13-6.847-25.86-10.34-38.773
		c-5.427-20.066-12.551-39.557-20.212-58.853c-3.429-8.638-7.065-17.199-10.83-25.698c-3.06-6.91-6.413-13.691-9.747-20.475
		c-0.348-0.709-1.525-1.575-2.18-1.474c-3.794,0.585-7.526,1.562-11.316,2.175c-6.376,1.031-12.77,1.973-19.179,2.76
		c-1.496,0.185-2.05,0.695-2.269,2.059c-0.664,4.137-1.033,8.363-2.163,12.373c-4.326,15.346-10.18,29.838-22.254,41.119
		c-7.494,7.002-16.069,11.92-25.668,15.031c-10.589,3.434-21.622,3.607-32.625,3.139c-4.006-0.171-8.041-0.812-11.955-1.706
		c-6.639-1.517-12.906-4.09-18.908-7.366c-7.035-3.84-12.821-9.198-17.892-15.192c-6.563-7.759-11.021-16.848-13.839-26.597
		c-1.946-6.73-3.201-13.66-4.874-20.475c-0.21-0.856-0.974-2.076-1.672-2.225c-2.702-0.572-5.495-0.693-8.228-1.138
		c-7.361-1.195-14.734-2.342-22.045-3.798c-1.99-0.396-2.928-0.116-3.736,1.683c-4.879,10.864-10.097,21.587-14.675,32.575
		c-5.535,13.285-10.964,26.644-15.671,40.236c-5.253,15.168-10.001,30.535-14.297,46.003c-3.398,12.234-5.909,24.724-8.564,37.152
		c-1.625,7.612-2.806,15.319-4.132,22.994c-0.698,4.036-1.279,8.092-2.003,12.711c7.989,1.629,15.979,3.384,24.02,4.856
		c6.021,1.102,12.101,1.894,18.168,2.723c6.407,0.875,12.824,1.684,19.249,2.418c4.02,0.458,8.078,0.602,12.091,1.1
		c10.333,1.281,20.635,2.829,30.98,3.985c8.211,0.918,16.459,1.578,24.709,2.054c9.228,0.533,18.474,0.953,27.715,1.015
		c11.06,0.074,22.123-0.258,33.185-0.464c6.284-0.116,12.566-0.332,18.85-0.503c0.341-0.009,0.685,0.007,1.023-0.021
		c7.982-0.673,15.965-1.332,23.944-2.035c3.608-0.317,7.214-0.677,10.811-1.1c5.255-0.616,10.497-1.349,15.753-1.951
		c5.101-0.585,10.219-1.025,15.32-1.605c5.425-0.617,10.843-1.298,16.258-2c4.327-0.561,8.656-1.13,12.965-1.813
		c5.461-0.866,10.924-1.747,16.349-2.812C588.86,703.359,594.955,701.942,601.081,700.614z M471.343,209.837
		c-0.673,7.548-0.384,15.023,1.511,22.419c2.848,11.114,9.469,18.466,20.623,21.411c2.412,0.636,5.055,0.35,7.533,0.807
		c4.15,0.765,7.897-0.572,11.334-2.39c6.309-3.337,10.676-8.761,14.086-14.913c7.223-13.033,10.706-27.033,10.622-41.939
		c-0.008-1.36,0.474-2.722,0.729-4.083c1.318,0.636,2.831,1.038,3.923,1.947c7.052,5.868,14.726,10.748,23.026,14.61
		c6.919,3.219,14.235,5.239,21.846,5.697c10.519,0.633,20.034-2.475,28.276-9.006c2.489-1.973,5.099-4.361,6.405-7.146
		c2.937-6.252,2.304-12.81-0.225-19.19c-3.547-8.952-9.921-15.676-17.286-21.496c-8.094-6.396-17.238-10.828-27.256-13.38
		c-2.049-0.522-1.812-1.437-0.563-2.58c1.562-1.431,3.125-2.866,4.755-4.217c7.512-6.228,14.734-12.789,20.785-20.45
		c5.164-6.539,8.844-13.724,7.271-22.607c-1.001-5.659-3.194-10.897-7.018-14.908c-7.851-8.235-17.864-10.382-28.861-8.283
		c-9.41,1.795-18.001,5.64-25.79,11.131c-5.098,3.594-10.062,7.419-14.764,11.513c-2.913,2.537-5.16,5.826-7.821,8.669
		c-1.819,1.944-2.828,1.648-3.812-0.804c-1.751-4.369-3.181-8.911-5.368-13.051c-6.535-12.372-13.625-24.401-25.369-32.756
		c-5.095-3.625-10.659-6.072-17.031-6.401c-4.355-0.225-8.213,1.505-12.25,2.696c-7.371,2.174-11.498,7.307-13.935,14.204
		c-2.517,7.127-2.378,14.424-1.519,21.804c1.317,11.319,5.284,21.704,10.899,31.514c1.673,2.922,3.602,5.697,5.359,8.572
		c1.226,2.004,0.704,2.899-1.562,3.162c-3.845,0.445-7.672,1.041-11.516,1.491c-9.721,1.138-19.318,2.953-28.354,6.75
		c-4.849,2.038-9.719,4.464-13.854,7.655c-6.522,5.034-10.569,11.977-11.479,20.312c-0.356,3.268-0.302,6.737,0.394,9.933
		c1.586,7.275,6.648,11.972,12.99,15.302c5.951,3.124,12.33,5.062,19.088,5.211c6.333,0.14,12.792,0.695,18.98-0.29
		c7.405-1.179,14.591-3.762,21.851-5.81c2.966-0.836,3.337-0.625,3.343,2.594C471.35,198.972,471.343,204.405,471.343,209.837z
		 M258.445,722c0.249,4.743,0.448,9.293,0.735,13.839c0.52,8.215,2.167,16.196,4.519,24.096
		c3.808,12.785,10.011,23.989,19.996,33.021c7.391,6.685,15.958,11.337,25.244,14.575c7.769,2.71,15.666,5.271,23.706,6.93
		c9.003,1.857,18.199,3.223,27.37,3.729c14.861,0.822,29.709,0.028,44.291-3.454c4.326-1.033,8.097-2.707,10.86-6.574
		c2.706-3.785,4.262-7.959,5.262-12.34c2.07-9.072,2.721-18.306,2.631-27.61c-0.091-9.33-0.02-18.663-0.02-27.968
		c-2.114-0.338-3.501-0.698-4.902-0.759c-5.338-0.232-10.682-0.34-16.022-0.549c-3.04-0.119-6.08-0.298-9.112-0.536
		c-8.23-0.646-16.455-1.356-24.684-2.006c-4.877-0.384-9.77-0.602-14.64-1.07c-7.943-0.765-15.874-1.673-23.809-2.519
		c-4.929-0.525-9.868-0.972-14.786-1.587c-7.564-0.946-15.121-1.966-22.669-3.035c-6.13-0.869-12.265-1.736-18.357-2.831
		C268.983,724.441,263.969,723.2,258.445,722z M604.179,722.232c-6.354,1.227-12.06,2.436-17.806,3.411
		c-7.586,1.287-15.192,2.462-22.809,3.551c-6.336,0.906-12.689,1.69-19.05,2.401c-12.225,1.365-24.45,2.728-36.691,3.923
		c-7.17,0.7-14.371,1.092-21.56,1.595c-8.977,0.627-17.951,1.271-26.933,1.818c-6.231,0.381-12.472,0.613-18.664,0.909
		c-0.266,4.346-0.716,8.305-0.715,12.264c0.003,13.794-0.741,27.634,2.016,41.294c1.165,5.771,2.877,11.339,6.701,15.985
		c3.021,3.669,7.247,4.954,11.729,5.602c7.869,1.137,15.715,2.692,23.626,3.204c7.262,0.471,14.615,0.065,21.893-0.454
		c6.591-0.47,13.166-1.415,19.689-2.503c14.062-2.344,27.597-6.396,40.173-13.275c6.422-3.513,12.259-7.698,17.247-13.202
		c7.188-7.931,12.235-17.011,15.182-27.152c2.017-6.939,3.361-14.114,4.46-21.268C603.583,734.37,603.704,728.283,604.179,722.232z
		 M235.356,525.573c-3.139,2.564-6.233,4.768-8.907,7.396c-1.669,1.642-2.783,1.81-4.635,0.45
		c-5.901-4.332-12.44-6.044-19.603-3.847c-6.148,1.886-10.719,5.375-12.241,12.168c-1.125,5.02-0.031,9.73,1.437,14.329
		c0.79,2.475,0.351,4.021-1.163,5.856c-5.311,6.437-7.916,13.854-7.893,22.239c0.014,5.206,1.201,10.136,3.143,14.881
		c2.716,6.636,6.776,12.379,12.6,16.631c8.74,6.381,19.019,8.562,29.453,9.508c9.612,0.872,19.181-0.223,28.264-3.896
		c0.748-0.303,1.586-1.124,1.806-1.873c2.958-10.063,5.827-20.154,8.67-30.252c0.208-0.737,0.31-1.692,0.021-2.354
		c-3.014-6.882-5.884-13.842-9.251-20.552c-4.881-9.727-10.125-19.272-15.244-28.88C239.811,533.623,237.73,529.908,235.356,525.573
		z M630.394,625.331c6.682,0.143,13.599-1.194,20.378-3.159c9.03-2.618,16.645-7.313,21.993-15.361
		c3.332-5.014,5.624-10.394,6.72-16.261c1.778-9.516,0.136-18.498-5.609-26.29c-2.521-3.418-3.666-6.119-2.261-10.511
		c2.066-6.454,2.604-13.124-2.7-18.893c-4.18-4.544-9.458-6.438-15.23-6.175c-4.616,0.211-9.215,1.678-12.885,4.919
		c-1.832,1.617-3.098,0.981-4.699-0.553c-2.229-2.137-4.883-3.823-7.214-5.863c-1.407-1.232-1.935-0.579-2.586,0.671
		c-2.744,5.266-5.606,10.472-8.286,15.771c-6.786,13.427-13.534,26.873-20.188,40.365c-0.754,1.527-1.483,3.575-1.086,5.081
		c2.674,10.139,5.632,20.203,8.587,30.266c0.222,0.755,1.014,1.613,1.748,1.906C614.411,624.168,622.07,625.399,630.394,625.331z
		 M375.274,515.245c1.274,5.225,2.364,10.728,3.976,16.073c3.007,9.974,7.513,19.059,15.727,26.001
		c9.648,8.155,21.092,11.3,33.261,12.435c6.009,0.56,11.914-0.554,17.805-1.941c12.623-2.973,22.987-9.299,29.996-20.276
		c5.161-8.085,8.146-17.146,9.784-26.616c0.332-1.921,0.695-3.838,1.091-6.011c-2.004,0-3.533-0.09-5.048,0.018
		c-3.955,0.281-7.9,0.838-11.858,0.946c-10.288,0.281-20.581,0.479-30.873,0.515c-6.624,0.022-13.248-0.35-19.873-0.464
		C404.747,515.673,390.231,515.474,375.274,515.245z M297.563,508.971c-14.735,0.384-29.325,3.467-43.006,10.43
		c7.043,13.634,13.954,27.012,20.701,40.072C282.692,542.641,290.168,525.715,297.563,508.971z M565.315,508.813
		c7.445,16.832,14.847,33.565,22.175,50.132c-0.157,0.211,0.068-0.018,0.208-0.289c6.059-11.784,12.117-23.568,18.158-35.361
		c1.946-3.801,1.926-3.816-1.845-5.682c-7.921-3.917-16.399-5.976-25.062-7.299C574.313,509.606,569.619,509.275,565.315,508.813z"
		/>
	<path fill-rule="evenodd" clip-rule="evenodd" d="M431.301,426.627c-6.26,0.588-12.232-0.529-17.941-3.098
		c-9.426-4.241-16.765-12.296-15.318-23.812c0.86-6.846,5.006-11.911,10.796-15.594c6.495-4.131,13.55-5.955,21.279-5.665
		c5.059,0.189,10.141-0.133,15.013,1.604c9.078,3.234,16.577,8.265,18.952,18.3c1.668,7.05-0.449,13.328-5.453,18.468
		c-6.327,6.499-14.212,9.561-23.232,9.792C434.033,426.657,432.667,426.627,431.301,426.627z M431.266,414.873
		c2.781-0.247,5.702-0.044,8.309-0.854c3.319-1.031,6.752-2.398,9.483-4.477c6.17-4.692,3.869-11.209-2.091-14.621
		c-8.147-4.664-16.96-4.223-25.689-2.317c-2.843,0.621-5.678,2.262-8.002,4.089c-5.91,4.646-3.776,10.952,2.079,14.507
		C420.228,414.16,425.602,415.096,431.266,414.873z"/>
	<path fill-rule="evenodd" clip-rule="evenodd" d="M586.388,359.395c0.152,7.883-2.217,15.093-8.205,20.856
		c-6.072,5.845-15.615,6.208-22.011,0.05c-5.472-5.269-7.862-11.823-8.252-19.341c-0.37-7.149,1.074-13.725,5.139-19.645
		c6.033-8.788,17.055-10.952,25.003-3.557C584.219,343.488,586.55,350.836,586.388,359.395z"/>
	<path fill-rule="evenodd" clip-rule="evenodd" d="M276.05,359.244c-0.167-8.482,2.246-15.865,8.491-21.651
		c6.2-5.744,15.234-5.772,21.438-0.041c6.496,6.002,8.712,13.674,8.571,22.36c-0.098,6.067-1.659,11.544-4.958,16.562
		c-6.095,9.271-17.509,11.259-25.488,3.604C278.174,374.391,275.918,367.199,276.05,359.244z"/>
	<path fill-rule="evenodd" clip-rule="evenodd" d="M538.928,147.724c0.905,15.675-13.473,30.418-30.473,29.413
		c-12.109-0.717-27.896-12.342-26.864-31.342c0.714-13.169,13.166-28.21,30.469-27.216
		C525.334,119.341,539.702,131.835,538.928,147.724z M510.313,162.743c8.314,0.651,15.344-7.165,15.529-14.755
		c0.205-8.433-7.305-15.476-15.004-15.668c-8.889-0.222-16.099,7.106-16.054,15.401C494.828,155.65,501.823,163.305,510.313,162.743
		z"/>
</g>
<g>
	<path fill-rule="evenodd" clip-rule="evenodd" fill="#F9A01B" d="M431.266,416.281c-5.664,0.224-11.038-0.712-15.912-3.672
		c-5.855-3.556-7.989-9.861-2.079-14.507c2.325-1.828,5.159-3.469,8.002-4.089c8.729-1.905,17.542-2.346,25.689,2.317
		c5.96,3.412,8.261,9.929,2.091,14.621c-2.731,2.079-6.164,3.445-9.483,4.477C436.968,416.237,434.047,416.034,431.266,416.281z"/>
	<path fill-rule="evenodd" clip-rule="evenodd" fill="#F9A01B" d="M510.313,164.151c-8.49,0.562-15.485-7.093-15.528-15.022
		c-0.045-8.294,7.165-15.623,16.054-15.401c7.699,0.192,15.209,7.235,15.004,15.668
		C525.657,156.986,518.628,164.803,510.313,164.151z"/>
</g>
</svg>
