<?xml version="1.0" encoding="iso-8859-1"?>
<!-- Generator: Adobe Illustrator 19.0.0, SVG Export Plug-In . SVG Version: 6.00 Build 0)  -->
<svg version="1.1" id="Layer_1" xmlns="http://www.w3.org/2000/svg" xmlns:xlink="http://www.w3.org/1999/xlink" x="0px" y="0px"
	 viewBox="0 0 512 512" style="enable-background:new 0 0 512 512;fill:#9F353A;stroke:#f9eced;stroke-width:5px;" xml:space="preserve">
<g>
	<g>
		<path d="M499.677,426.489c4.427,0,8.017-3.589,8.017-8.017V84.977c0-2.1-0.863-4.184-2.348-5.668l-76.96-76.96
			C426.899,0.863,424.817,0,422.716,0H106.323C92.473,0,81.204,11.268,81.204,25.119v9.086H12.261
			c-6.987,0-10.616,8.738-5.668,13.685l62.741,62.741l-62.74,62.741c-4.947,4.947-1.32,13.685,5.668,13.685h68.944v299.825
			c0,13.851,11.268,25.119,25.119,25.119h376.251c13.851,0,25.119-11.268,25.119-25.119v-34.205c0-4.427-3.589-8.017-8.017-8.017
			s-8.017,3.589-8.017,8.017v34.205c0,5.01-4.076,9.086-9.086,9.086H106.324c-5.01,0-9.086-4.076-9.086-9.086V187.056h51.841
			c4.427,0,8.017-3.589,8.017-8.017s-3.589-8.017-8.017-8.017H31.615l54.724-54.724c3.131-3.131,3.131-8.207,0-11.337L31.615,50.238
			h348.88v120.785H183.285c-4.427,0-8.017,3.589-8.017,8.017s3.589,8.017,8.017,8.017h205.228c4.427,0,8.017-3.589,8.017-8.017
			V42.221c0-4.427-3.589-8.017-8.017-8.017H97.239v-9.086c0-5.01,4.076-9.086,9.086-9.086H414.7v51.841
			c0,13.851,11.268,25.119,25.119,25.119h51.841v325.478C491.66,422.9,495.25,426.489,499.677,426.489z M439.818,76.96
			c-5.01,0-9.086-4.076-9.086-9.086V27.37l24.795,24.795l24.795,24.795H439.818z"/>
	</g>
</g>
<g>
	<g>
		<path d="M414.166,213.779H174.734c-9.136,0-16.568,7.432-16.568,16.568v222.33c0,9.136,7.432,16.568,16.568,16.568h239.432
			c9.136,0,16.568-7.432,16.568-16.568v-222.33C430.734,221.211,423.302,213.779,414.166,213.779z M414.7,452.676
			c0,0.295-0.239,0.534-0.534,0.534H174.734c-0.295,0-0.534-0.239-0.534-0.534v-222.33c0-0.295,0.239-0.534,0.534-0.534h239.432
			c0.295,0,0.534,0.239,0.534,0.534V452.676z"/>
	</g>
</g>
<g>
	<g>
		<path d="M372.728,359.257c-4.369-0.726-8.498,2.222-9.226,6.59l-4.498,26.99l-6.078-12.154c-2.896-5.793-11.445-5.794-14.34,0
			l-6.078,12.154l-4.498-26.99c-0.728-4.367-4.863-7.318-9.226-6.59c-4.367,0.728-7.318,4.858-6.59,9.226l8.551,51.307
			c0.547,3.28,3.154,5.944,6.423,6.56c3.48,0.655,7.071-1.124,8.655-4.293l9.932-19.863l9.932,19.863
			c1.609,3.218,5.278,4.991,8.799,4.263c3.206-0.662,5.741-3.302,6.279-6.53l8.551-51.307
			C380.046,364.115,377.095,359.985,372.728,359.257z"/>
	</g>
</g>
<g>
	<g>
		<path d="M371.41,256.534H217.489c-4.427,0-8.017,3.589-8.017,8.017s3.589,8.017,8.017,8.017H371.41
			c4.427,0,8.017-3.589,8.017-8.017S375.837,256.534,371.41,256.534z"/>
	</g>
</g>
<g>
	<g>
		<path d="M371.41,307.841H217.489c-4.427,0-8.017,3.589-8.017,8.017s3.589,8.017,8.017,8.017H371.41
			c4.427,0,8.017-3.589,8.017-8.017S375.837,307.841,371.41,307.841z"/>
	</g>
</g>
<g>
	<g>
		<path d="M285.898,359.148h-68.409c-4.427,0-8.017,3.589-8.017,8.017c0,4.427,3.589,8.017,8.017,8.017h68.409
			c4.427,0,8.017-3.589,8.017-8.017C293.915,362.738,290.326,359.148,285.898,359.148z"/>
	</g>
</g>
<g>
	<g>
		<path d="M285.898,410.455h-68.409c-4.427,0-8.017,3.589-8.017,8.017c0,4.427,3.589,8.017,8.017,8.017h68.409
			c4.427,0,8.017-3.589,8.017-8.017C293.915,414.044,290.326,410.455,285.898,410.455z"/>
	</g>
</g>
<g>
	<g>
		<path d="M311.552,128.267h-17.637V92.994h17.637c4.427,0,8.017-3.589,8.017-8.017s-3.589-8.017-8.017-8.017h-25.653
			c-4.427,0-8.017,3.589-8.017,8.017v51.307c0,4.427,3.589,8.017,8.017,8.017h25.653c4.427,0,8.017-3.589,8.017-8.017
			S315.979,128.267,311.552,128.267z"/>
	</g>
</g>
<g>
	<g>
		<path d="M260.245,76.96H226.04c-4.427,0-8.017,3.589-8.017,8.017v51.307c0,4.427,3.589,8.017,8.017,8.017h34.205
			c4.427,0,8.017-3.589,8.017-8.017V84.977C268.262,80.55,264.672,76.96,260.245,76.96z M252.228,128.267h-18.171V92.994h18.171
			V128.267z"/>
	</g>
</g>
<g>
	<g>
		<path d="M183.285,76.96h-25.653c-4.427,0-8.017,3.589-8.017,8.017v51.307c0,4.427,3.589,8.017,8.017,8.017h42.756
			c4.427,0,8.017-3.589,8.017-8.017v-34.205C208.404,88.229,197.135,76.96,183.285,76.96z M192.37,128.267h-26.722V92.994h17.637
			c5.01,0,9.086,4.076,9.086,9.086V128.267z"/>
	</g>
</g>
<g>
</g>
<g>
</g>
<g>
</g>
<g>
</g>
<g>
</g>
<g>
</g>
<g>
</g>
<g>
</g>
<g>
</g>
<g>
</g>
<g>
</g>
<g>
</g>
<g>
</g>
<g>
</g>
<g>
</g>
</svg>
