<?xml version="1.0" encoding="iso-8859-1"?>
<!-- Generator: Adobe Illustrator 19.0.0, SVG Export Plug-In . SVG Version: 6.00 Build 0)  -->
<svg version="1.1" id="Layer_1" xmlns="http://www.w3.org/2000/svg" xmlns:xlink="http://www.w3.org/1999/xlink" x="0px" y="0px"
	 viewBox="0 0 512 512" style="enable-background:new 0 0 512 512;fill:#f9eced;" xml:space="preserve">
<g>
	<g>
		<path d="M499.677,426.489c4.428,0,8.017-3.588,8.017-8.017V84.977c0-2.1-0.863-4.184-2.347-5.669l-76.96-76.96
			C426.899,0.863,424.817,0,422.716,0H106.324C92.473,0,81.205,11.268,81.205,25.119v9.086H12.261
			c-6.987,0-10.615,8.738-5.669,13.686l62.741,62.74L6.592,173.37c-4.945,4.948-1.319,13.686,5.669,13.686h68.944v299.825
			c0,13.851,11.268,25.119,25.119,25.119h376.251c13.851,0,25.119-11.268,25.119-25.119v-34.205c0-4.428-3.588-8.017-8.017-8.017
			c-4.428,0-8.017,3.588-8.017,8.017v34.205c0,5.01-4.076,9.086-9.086,9.086H106.324c-5.01,0-9.086-4.076-9.086-9.086V187.056
			h51.841c4.428,0,8.017-3.588,8.017-8.017s-3.588-8.017-8.017-8.017H31.615L86.339,116.3c3.131-3.132,3.131-8.207,0-11.338
			L31.615,50.238h348.88v120.785H183.284c-4.428,0-8.017,3.588-8.017,8.017s3.588,8.017,8.017,8.017h205.228
			c4.428,0,8.017-3.588,8.017-8.017V42.221c0-4.428-3.588-8.017-8.017-8.017H97.238v-9.086c0-5.01,4.076-9.086,9.086-9.086H414.7
			v51.841c0,13.851,11.268,25.119,25.119,25.119h51.841v325.478C491.66,422.9,495.248,426.489,499.677,426.489z M439.819,76.96
			c-5.01,0-9.086-4.076-9.086-9.086V27.37l49.589,49.59H439.819z"/>
	</g>
</g>
<g>
	<g>
		<path d="M362.858,265.086H226.04c-4.428,0-8.017,3.588-8.017,8.017v136.818c0,4.428,3.588,8.017,8.017,8.017h136.818
			c4.428,0,8.017-3.588,8.017-8.017V273.102C370.875,268.674,367.287,265.086,362.858,265.086z M286.432,401.904h-52.376v-52.376
			h52.376V401.904z M286.432,333.495h-52.376v-52.376h52.376V333.495z M354.842,401.904h-52.376v-52.376h52.376V401.904z
			 M354.842,333.495h-52.376v-52.376h52.376V333.495z"/>
	</g>
</g>
<g>
	<g>
		<path d="M414.165,265.086h-25.653c-4.428,0-8.017,3.588-8.017,8.017c0,4.428,3.588,8.017,8.017,8.017h25.653
			c4.428,0,8.017-3.588,8.017-8.017C422.182,268.674,418.592,265.086,414.165,265.086z"/>
	</g>
</g>
<g>
	<g>
		<path d="M362.858,213.779c-4.428,0-8.017,3.588-8.017,8.017v25.653c0,4.428,3.588,8.017,8.017,8.017
			c4.428,0,8.017-3.588,8.017-8.017v-25.653C370.875,217.367,367.287,213.779,362.858,213.779z"/>
	</g>
</g>
<g>
	<g>
		<path d="M226.04,213.779c-4.428,0-8.017,3.588-8.017,8.017v25.653c0,4.428,3.588,8.017,8.017,8.017s8.017-3.588,8.017-8.017
			v-25.653C234.057,217.367,230.468,213.779,226.04,213.779z"/>
	</g>
</g>
<g>
	<g>
		<path d="M200.386,265.086h-25.653c-4.428,0-8.017,3.588-8.017,8.017c0,4.428,3.588,8.017,8.017,8.017h25.653
			c4.428,0,8.017-3.588,8.017-8.017C208.403,268.674,204.814,265.086,200.386,265.086z"/>
	</g>
</g>
<g>
	<g>
		<path d="M362.858,427.557c-4.428,0-8.017,3.588-8.017,8.017v25.653c0,4.428,3.588,8.017,8.017,8.017
			c4.428,0,8.017-3.588,8.017-8.017v-25.653C370.875,431.146,367.286,427.557,362.858,427.557z"/>
	</g>
</g>
<g>
	<g>
		<path d="M414.165,401.904h-25.653c-4.428,0-8.017,3.588-8.017,8.017c0,4.428,3.588,8.017,8.017,8.017h25.653
			c4.428,0,8.017-3.588,8.017-8.017C422.182,405.492,418.592,401.904,414.165,401.904z"/>
	</g>
</g>
<g>
	<g>
		<path d="M200.386,401.904h-25.653c-4.428,0-8.017,3.588-8.017,8.017c0,4.428,3.588,8.017,8.017,8.017h25.653
			c4.428,0,8.017-3.588,8.017-8.017C208.403,405.492,204.814,401.904,200.386,401.904z"/>
	</g>
</g>
<g>
	<g>
		<path d="M226.04,427.557c-4.428,0-8.017,3.588-8.017,8.017v25.653c0,4.428,3.588,8.017,8.017,8.017s8.017-3.588,8.017-8.017
			v-25.653C234.057,431.146,230.468,427.557,226.04,427.557z"/>
	</g>
</g>
<g>
	<g>
		<path d="M166.182,76.96h-17.102c-4.428,0-8.017,3.588-8.017,8.017v51.307c0,4.428,3.588,8.017,8.017,8.017h34.205
			c4.427,0,8.017-3.588,8.017-8.017v-34.205C191.301,88.229,180.033,76.96,166.182,76.96z M175.267,128.267h-18.171V92.994h9.086
			c5.01,0,9.086,4.076,9.086,9.086V128.267z"/>
	</g>
</g>
<g>
	<g>
		<path d="M261.562,77.068c-4.379-0.728-8.498,2.223-9.227,6.59l-4.498,26.99l-6.078-12.154c-1.359-2.715-4.133-4.432-7.17-4.432
			s-5.813,1.716-7.17,4.432l-6.078,12.154l-4.498-26.99c-0.729-4.366-4.852-7.315-9.227-6.59c-4.366,0.729-7.318,4.859-6.59,9.227
			l8.551,51.307c0.573,3.426,3.284,6.094,6.718,6.61c3.429,0.509,6.81-1.237,8.362-4.343l9.932-19.864l9.932,19.864
			c1.609,3.218,5.278,4.99,8.799,4.263c3.206-0.662,5.741-3.303,6.279-6.53l8.551-51.307
			C268.88,81.927,265.929,77.797,261.562,77.068z"/>
	</g>
</g>
<g>
	<g>
		<path d="M320.102,102.614h-8.551c-4.428,0-8.017,3.588-8.017,8.017s3.588,8.017,8.017,8.017h0.534v9.62h-18.171V92.994h26.188
			c4.428,0,8.017-3.588,8.017-8.017c0-4.428-3.588-8.017-8.017-8.017h-34.205c-4.428,0-8.017,3.588-8.017,8.017v51.307
			c0,4.428,3.588,8.017,8.017,8.017h34.205c4.428,0,8.017-3.588,8.017-8.017V110.63
			C328.119,106.202,324.531,102.614,320.102,102.614z"/>
	</g>
</g>
<g>
</g>
<g>
</g>
<g>
</g>
<g>
</g>
<g>
</g>
<g>
</g>
<g>
</g>
<g>
</g>
<g>
</g>
<g>
</g>
<g>
</g>
<g>
</g>
<g>
</g>
<g>
</g>
<g>
</g>
</svg>
