<?xml version="1.0" encoding="utf-8"?>
<!-- Generator: Adobe Illustrator 16.0.0, SVG Export Plug-In . SVG Version: 6.00 Build 0)  -->
<!DOCTYPE svg PUBLIC "-//W3C//DTD SVG 1.1//EN" "http://www.w3.org/Graphics/SVG/1.1/DTD/svg11.dtd" [
	<!ENTITY ns_flows "http://ns.adobe.com/Flows/1.0/">
	<!ENTITY ns_extend "http://ns.adobe.com/Extensibility/1.0/">
	<!ENTITY ns_ai "http://ns.adobe.com/AdobeIllustrator/10.0/">
	<!ENTITY ns_graphs "http://ns.adobe.com/Graphs/1.0/">
]>
<svg version="1.1" id="Layer_1" xmlns:x="&ns_extend;" xmlns:i="&ns_ai;" xmlns:graph="&ns_graphs;"
	 xmlns="http://www.w3.org/2000/svg" xmlns:xlink="http://www.w3.org/1999/xlink" xmlns:a="http://ns.adobe.com/AdobeSVGViewerExtensions/3.0/"
	 x="0px" y="0px" width="864px" height="864px" viewBox="0 0 864 864" enable-background="new 0 0 864 864" xml:space="preserve">
<g>
	<path fill-rule="evenodd" clip-rule="evenodd" fill="#FFFFFF" d="M262.463,383.234c1.128-5.385,1.958-10.733,3.38-15.918
		c10.418-37.964,33.581-66.679,65.456-88.738c28.848-19.964,61.261-30.49,95.896-34.625c5.657-0.675,5.643-0.428,6.106,5.225
		c1.535,18.717,13.135,39.104,40.048,40.391c10.613,0.507,20.579-1.95,30.319-5.838c6.821-2.723,6.774-2.379,11.023,3.29
		c7.967,10.634,18.96,16.515,31.973,18.415c3.688,0.538,6.256,1.342,8.229,4.949c5.493,10.046,12.6,18.875,22.528,24.928
		c15.213,9.274,29.98,6.981,44.286-2.297c4.562-2.96,4.824-3.162,7.008,1.972c3.636,8.546,6.815,17.287,10.226,25.93
		c1.27,3.219,0.538,4.961-3.168,5.45c-2.604,0.344-5.186,1.187-7.663,2.111c-3.107,1.159-5.356,3.438-4.85,6.919
		c0.531,3.642,3.849,4.243,6.783,4.294c2.895,0.05,5.868-0.354,8.684-1.055c3.02-0.751,4.265,0.147,4.397,3.152
		c0.328,7.441,0.733,14.878,1.074,22.318c0.106,2.31-1.013,3.423-3.387,3.354c-1.325-0.038-2.841-0.201-3.945,0.348
		c-1.749,0.867-4.078,2.018-4.555,3.549c-0.409,1.315,1.296,3.421,2.346,4.991c0.447,0.667,1.589,0.903,2.446,1.257
		c5.711,2.354,6,2.438,4.068,8.496c-2.012,6.313-4.636,12.433-7.027,18.623c-0.964,2.493-2.686,3.325-5.399,2.726
		c-2.454-0.544-5.011-0.726-7.533-0.836c-3.16-0.14-5.867,0.797-6.835,4.222c-0.923,3.267,1.333,4.93,3.627,6.377
		c1.857,1.173,3.872,2.096,6.986,3.751c-5.611,5.611-10.39,10.914-15.705,15.608c-18.76,16.568-41.293,25.553-65.251,31.179
		c-34.113,8.013-68.784,9.202-103.644,7.546c-26.408-1.255-52.458-4.853-78.06-11.507c-20.76-5.396-40.486-13.11-57.944-25.914
		c-3.968-2.909-3.899-4.392,0.453-6.66c2.227-1.16,4.753-2.121,6.417-3.866c1.217-1.276,2.151-4.059,1.559-5.481
		c-0.607-1.461-3.377-3.116-4.931-2.884c-4.423,0.661-8.911,1.785-12.997,3.583c-4.45,1.957-7.804,1.267-10.456-2.48
		c-3.909-5.523-7.615-11.192-11.307-16.865c-1.665-2.558-0.689-4.178,2.13-5.041c3.175-0.973,6.464-1.789,9.382-3.295
		c1.608-0.83,2.557-2.938,3.803-4.47c-1.92-1.35-3.743-3.634-5.783-3.849c-3.771-0.395-7.693,0.251-11.508,0.783
		c-3.502,0.488-5.589-0.342-6.109-4.206c-1.026-7.626-2.286-15.222-3.421-22.834c-0.412-2.758,0.794-3.847,3.602-3.755
		c4.66,0.151,9.329,0.08,13.994,0.031c3.083-0.032,5.623-1.077,6.027-4.54c0.401-3.441-1.708-5.212-4.789-5.786
		C274.85,385.215,269.211,384.356,262.463,383.234z M456.138,458.634c5.027-1.559,10.641-2.284,15.158-4.9
		c10.851-6.283,10.951-20.848,0.359-27.32c-9.857-6.024-20.507-6.526-30.908-1.581c-5.908,2.809-9.763,7.851-9.806,14.85
		c-0.042,6.986,3.388,12.094,9.741,14.635C445.407,456.208,450.527,457.11,456.138,458.634z M346.809,386.852
		c-6.534,0.117-10.681,3.541-13.148,9.031c-3.125,6.953-3.29,14.219-1.084,21.45c1.746,5.721,7.078,9.405,13.342,9.663
		c6.566,0.271,10.564-2.134,13.271-8.09c3.485-7.665,3.633-15.472,0.502-23.241C357.362,389.885,352.762,387.163,346.809,386.852z
		 M573.307,403.416c-1.158-4.234-1.823-8.633-3.569-12.55c-2.256-5.056-6.838-7.29-12.345-7.305
		c-5.567-0.016-9.809,2.477-12.235,7.483c-3.648,7.523-4.271,15.341-1.202,23.22c2.394,6.143,7.388,9.061,13.653,9.4
		c5.849,0.317,9.898-3.236,12.213-8.171C571.527,411.854,572.121,407.693,573.307,403.416z"/>
	<path fill-rule="evenodd" clip-rule="evenodd" fill="#FFFFFF" d="M323.135,610.592c1.517-4.573,2.794-8.909,4.471-13.084
		c0.345-0.858,2.239-1.68,3.321-1.568c12.974,1.339,25.926,2.894,38.893,4.309c4.495,0.491,9.018,1.028,13.521,0.983
		c1.655-0.017,3.292-1.656,4.938-2.555c-1.083-1.541-1.848-3.828-3.322-4.458c-2.582-1.105-5.586-1.546-8.436-1.65
		c-12.042-0.44-23.889-1.858-35.171-6.353c-2.672-1.065-5.165-2.582-7.436-3.735c-0.076-0.719-0.13-0.856-0.098-0.968
		c2.178-7.469,2.178-7.471,9.997-7.353c19.91,0.299,38.928,5.391,57.89,10.783c16.121,4.585,32.229,9.026,49.082,10.378
		c17.443,1.398,34.292-1.239,50.8-6.351c7.711-2.387,15.171-5.672,22.557-8.97c2.904-1.297,6.881-3.432,5.56-7.146
		c-0.678-1.904-4.975-3.668-7.536-3.538c-7.514,0.382-15.343,0.629-22.387,2.943c-17.451,5.733-35.151,5.724-52.987,4.089
		c-33.891-3.106-66.901-10.985-99.854-19.095c-0.373-0.093-0.715-0.315-1.68-0.754c1.683-2.871,3.199-5.75,5.051-8.395
		c0.404-0.577,2.155-0.71,3.029-0.376c4.712,1.801,9.619,3.341,13.94,5.86c6.968,4.061,14.284,6.613,22.279,6.769
		c6.907,0.133,13.831-0.218,20.736-0.574c1.551-0.08,3.055-1.073,5.689-2.062c-2.395-1.867-3.728-3.41-5.412-4.127
		c-4.884-2.076-10-3.615-14.854-5.753c-4.942-2.175-10.097-4.241-14.41-7.382c-6.039-4.398-12.898-5.908-20.777-7.604
		c3.07-3.54,5.647-6.673,8.445-9.595c0.547-0.572,1.992-0.569,2.955-0.414c5.383,0.867,10.773,1.734,16.094,2.904
		c1.352,0.297,3.028,1.43,3.598,2.632c9.147,19.331,25.476,29.064,45.505,32.706c19.788,3.599,39.305,1.609,57.638-7.427
		c9.642-4.754,16.808-12.003,21.114-22.021c0.555-1.294,2.312-2.61,3.724-2.904c7.03-1.468,14.151-2.488,21.194-3.897
		c3.078-0.616,4.18,1.442,5.812,3.203c1.809,1.95,0.572,3.331-0.377,4.931c-3.562,6.002-8.228,10.351-15.556,11.229
		c-3.669,0.441-6.395,2.517-7.859,6.024c-2.039,4.88,0.949,8.875,6.232,7.741c9.744-2.09,19.428-4.498,29.046-7.106
		c2.487-0.675,3.765-0.69,5,1.788c3.317,6.649,6.882,13.175,10.568,20.17c-22.57,10.556-44.279,21.917-66.906,30.985
		c-28.378,11.373-57.979,11.315-87.624,4.58c-10.065-2.288-20.094-1.879-30.075,0.478c-1.536,0.362-3.106,0.931-4.429,1.77
		c-2.425,1.537-2.883,3.724-0.371,5.437c2.499,1.702,5.252,3.201,8.102,4.192c24.645,8.567,50.031,11.296,75.573,6.192
		c25.532-5.102,50.676-12.116,76.075-17.919c11.782-2.691,23.76-4.541,35.665-6.688c4.623-0.834,7.359,2.058,6.617,6.768
		c-1.037,6.587-4.075,9.957-10.7,10.372c-9.692,0.606-19.429,0.49-29.135,0.929c-4.096,0.185-8.22,0.745-12.216,1.647
		c-1.526,0.346-3.664,2.013-3.816,3.283c-0.157,1.305,1.458,3.352,2.836,4.221c5.984,3.777,12.707,5.519,19.447,3.073
		c12.467-4.524,24.993-7.488,38.968-4.67c0.993,4.881,2.094,10.291,3.152,15.494c-7.927,1.829-15.782,3.129-23.31,5.48
		c-17.634,5.507-34.984,11.941-52.682,17.222c-26.1,7.788-52.807,10.239-79.82,6.021c-9.648-1.508-19.2-3.008-28.972-2.253
		c-2.249,0.174-4.545,0.401-6.686,1.046c-1.387,0.418-2.532,1.64-3.785,2.5c0.998,1.125,1.786,2.812,3.031,3.276
		c5.841,2.175,11.743,4.245,17.742,5.931c30.168,8.478,60.143,5.477,89.987-1.882c22.462-5.538,44.864-11.324,67.351-16.759
		c6.262-1.514,12.73-2.169,19.381-3.264c0.672,6.056,1.268,11.421,1.875,16.896c-17.309,4.859-34.039,10.084-51.043,14.162
		c-13.68,3.28-27.714,5.054-41.54,7.756c-4.013,0.785-8.029,2.098-11.698,3.878c-2.102,1.02-3.511,3.468-5.23,5.272
		c2.18,0.947,4.361,2.709,6.54,2.705c10.52-0.016,21.046-0.358,31.555-0.868c10.511-0.511,21.012-1.249,31.502-2.083
		c11.944-0.95,23.871-2.121,35.806-3.178c0.922-0.081,1.856-0.01,3.275-0.01c0,4.172,0.201,8.393-0.142,12.57
		c-0.085,1.039-1.786,2.172-2.978,2.859c-12.727,7.351-26.598,11.511-40.973,13.917c-5.988,1.003-12.219,0.53-18.228,1.449
		c-3.628,0.556-7.438,1.923-10.444,3.979c-2.942,2.012-2.02,5.598,1.477,6.745c2.602,0.854,5.466,1.244,8.216,1.259
		c18.924,0.104,37.848,0.055,57.034,0.055c-1.925,5.449-6.131,9.174-11.057,12.075c-8.479,4.994-18.073,6.188-27.592,7.2
		c-17.674,1.878-35.396,1.923-53.076,0.025c-5.231-0.562-10.384-1.859-15.572-2.819c0.018-0.451,0.034-0.902,0.051-1.353
		c4.772-0.426,9.566-0.688,14.308-1.336c3.13-0.428,6.418-0.94,9.181-2.323c1.605-0.803,3.343-3.546,3.118-5.15
		c-0.206-1.479-2.961-3.703-4.583-3.694c-7.56,0.039-15.112,0.846-22.677,1.16c-4.241,0.176-8.5-0.147-12.749-0.11
		c-3.918,0.034-5.781-2.128-6.468-5.667c-0.397-2.052-0.706-4.121-1.11-6.508c7.169-0.592,13.884-1.136,20.597-1.705
		c9.277-0.787,18.571-1.429,27.818-2.489c2.966-0.341,5.893-1.61,8.655-2.858c1.122-0.508,1.761-2.088,2.62-3.18
		c-1.229-0.853-2.392-2.31-3.694-2.447c-4.497-0.477-9.052-0.379-13.568-0.707c-10.614-0.772-21.214-1.728-31.829-2.469
		c-3.413-0.238-6.856-0.038-10.796-0.038c0-4.384,0.146-8.223-0.051-12.044c-0.136-2.633-0.428-5.344-1.215-7.842
		c-1.662-5.271-9.359-7.35-13.437-3.578c-1.18,1.092-1.254,3.301-2.106,4.85c-0.637,1.157-1.581,2.812-2.606,2.989
		c-12.312,2.14-24.621,4.409-37.021,5.9c-10.563,1.271-21.251,1.472-31.867,2.357c-3.954,0.331-7.925,1.008-11.752,2.032
		c-1.708,0.458-3.082,2.164-4.607,3.303c1.269,1.587,2.226,3.709,3.862,4.668c6.603,3.867,14.06,5.023,21.527,5.11
		c17.861,0.209,35.726,0,53.589-0.025c9.365-0.014,9.369,0,9.441,9.307c0.006,0.77-0.093,1.541-0.121,1.974
		c-12.035,2.815-23.798,5.469-35.487,8.417c-1.574,0.397-2.771,2.282-4.144,3.479c1.371,1.204,2.562,2.97,4.154,3.477
		c2.208,0.704,4.716,0.581,7.097,0.604c6.705,0.064,13.411,0.022,20.167,0.665c-5.451,5.192-12.016,7.254-18.886,8.01
		c-18.773,2.063-37.55,1.061-56.242-1.076c-8.428-0.963-16.812-2.636-25.072-4.595c-3.566-0.846-6.769-3.23-10.137-4.916
		c0.12-0.389,0.239-0.776,0.359-1.166c8.208-1.097,16.389-2.477,24.629-3.224c11.802-1.069,23.649-1.633,35.469-2.519
		c2.231-0.167,4.506-0.603,6.604-1.353c1.194-0.428,2.875-1.738,2.879-2.658c0.005-1.065-1.404-2.761-2.523-3.095
		c-3.654-1.09-7.474-2.435-11.197-2.342c-18.375,0.459-36.37-2.284-54.313-5.684c-1.949-0.369-3.875-0.941-5.754-1.587
		c-6.072-2.085-10.474-5.426-10.602-12.703c-0.112-6.342-0.812-12.673-1.324-20.027c8.169,1.505,15.784,2.154,22.914,4.367
		c18.093,5.615,35.57,1.745,53.115-2.306c1.429-0.33,2.669-1.474,5.251-2.962c-3.169-1.377-5.15-2.735-7.292-3.079
		c-8.01-1.283-16.088-2.132-24.108-3.359c-3.129-0.479-6.439-1.006-9.203-2.418c-8.88-4.54-18.304-5.28-27.987-5.002
		c-4.088,0.117-8.182,0.02-12.243,0.02c0-4.931,0-9.668,0-14.902c1.779,0,3.18-0.021,4.58,0.003
		c16.258,0.285,32.515,0.575,48.773,0.864c0.133,0.003,0.267,0,0.4-0.001c5.585-0.074,8.256-1.503,8.181-4.379
		c-0.082-3.104-4.228-6.387-8.642-6.188c-10.347,0.468-20.097-2.059-29.586-5.674c-5.074-1.934-10.023-4.347-14.726-7.068
		c-6.736-3.897-6.618-4.102-4.458-12.401c7.258,1.896,14.566,3.659,21.788,5.722c19.939,5.693,39.706,12.045,59.788,17.167
		c38.759,9.884,77.137,6.74,114.908-5.43c3.51-1.131,6.975-4.039,9.228-7.046c3.428-4.573,1.087-9.827-4.569-10.87
		c-3.159-0.583-6.722-0.5-9.819,0.334c-28.59,7.689-57.363,7.052-85.869,0.651c-25.272-5.674-50.162-13.046-75.25-19.553
		C340.039,614.355,331.853,612.625,323.135,610.592z"/>
	<path fill-rule="evenodd" clip-rule="evenodd" fill="#FFFFFF" d="M357.913,160.008c8.632,5.459,17.131,8.973,27.351,2.056
		c-0.763,2.354-1.033,3.289-1.366,4.201c-4.52,12.37-4.636,25.158-2.293,37.8c0.829,4.473,3.945,9.141,7.299,12.398
		c7.144,6.94,16.509,3.471,17.875-6.429c0.757-5.487,0.386-11.14,0.38-16.719c-0.01-10.997,0.5-21.857,6.332-31.693
		c3.028-5.107,2.967-5.144,9.31-4.887c-0.112,0.5-0.1,1.028-0.334,1.402c-10.382,16.609-6.88,33.13,0.51,49.508
		c0.745,1.651,3.043,2.602,4.621,3.876c1.25-1.602,3.235-3.05,3.612-4.836c1.065-5.049,1.636-10.222,2.105-15.374
		c1.088-11.95,3.901-23.309,10.369-33.608c1.359-2.166,2.853-3.21,5.435-3.145c4.795,0.122,9.604,0.164,14.392-0.077
		c4.19-0.21,4.198,3.313,5.614,5.64c1.438,2.364-0.502,3.322-1.86,4.493c-8.946,7.721-15.656,17.196-20.169,27.966
		c-4.305,10.27-7.699,20.932-11.194,31.521c-0.717,2.173-1.449,2.905-3.675,3.109c-27.508,2.52-54.023,8.93-79.165,20.579
		c-34.414,15.945-62.68,39.114-83.3,71.181c-1.405,2.185-2.773,2.798-5.206,2.188c-4.377-1.096-8.888-1.705-13.205-2.985
		c-3.016-0.895-6.007-2.247-8.65-3.953c-7.936-5.12-8.366-6.9-4.688-15.771c9.122,2.124,18.261,4.256,27.403,6.374
		c1.161,0.269,2.421,0.846,3.49,0.614c2.186-0.475,5.423-0.852,6.11-2.284c0.869-1.812,0.365-5.18-0.893-6.882
		c-1.496-2.026-4.256-3.739-6.756-4.295c-10.6-2.36-18.48-11.388-18.9-22.08c-0.146-3.691-0.763-7.365-1.114-10.588
		c8.183,1.674,16.15,3.451,24.182,4.855c2.407,0.421,5.085,0.143,7.47-0.472c1.442-0.372,3.31-1.833,3.61-3.125
		c0.302-1.3-0.695-3.542-1.846-4.394c-1.827-1.352-4.187-2.251-6.447-2.686c-2.981-0.573-6.081-0.61-9.136-0.704
		c-8.787-0.269-14.065-5.533-18.078-12.593c-0.504-0.888-0.876-1.988-0.89-2.996c-0.083-5.967-0.041-11.936-0.041-18.528
		c5.083,1.538,9.094,2.752,13.145,3.978c0.631,4.885,0.938,10.088,2.024,15.123c2.681,12.42,11.366,15.546,21.48,7.758
		c8.438-6.497,16.198-13.979,25.068-19.786c12.774-8.363,26.086-15.97,39.542-23.203c10.084-5.42,12.379-14.938,4.231-22.987
		c-2.53-2.5-2.759-4.324-0.999-7.118C353.074,168.616,355.228,164.645,357.913,160.008z"/>
	<path fill-rule="evenodd" clip-rule="evenodd" fill="#FFFFFF" d="M346.094,524.626c-0.234,0.57-0.364,1.217-0.717,1.699
		c-18.389,25.055-30.082,53.137-37.408,83.147c-2.74,11.224-4.942,22.579-7.656,33.812c-0.332,1.371-2.189,3.154-3.56,3.375
		c-14.325,2.298-27.315-0.426-36.536-12.466c-9.137-11.931-9.352-25.173-2.917-38.406c2.261-4.649,2.893-8.462-0.169-12.963
		c-1.479-2.176-2.194-5.194-2.356-7.886c-0.532-8.866,7.608-15.571,15.242-11.374c9.907,5.448,16.089,0.506,22.695-5.064
		c13.256-11.179,26.789-21.959,42.251-30.007c3.425-1.783,7.062-3.161,10.6-4.727C345.741,524.054,345.918,524.34,346.094,524.626z"
		/>
	<path fill-rule="evenodd" clip-rule="evenodd" fill="#FFFFFF" d="M566.353,524.003c1.152,0.414,2.326,0.775,3.452,1.252
		c18.173,7.673,33.312,19.873,48.274,32.346c2.246,1.872,4.648,3.557,6.965,5.346c4.625,3.573,9.191,4.576,14.689,1.275
		c4.354-2.614,9.422-2.62,13.459,0.964c3.874,3.438,5.11,8.019,3.438,13.097c-0.577,1.755-1.132,3.619-2.17,5.103
		c-2.717,3.881-2.433,7.53-0.269,11.575c4.998,9.342,6.122,19.176,2.784,29.338c-4.955,15.091-19.552,24.308-36.229,22.962
		c-8.593-0.692-8.319-0.751-9.899-8.267c-5.978-28.411-12.68-56.652-26.219-82.626c-5.029-9.65-11.144-18.734-16.77-28.073
		c-0.702-1.166-1.443-2.309-2.167-3.461C565.911,524.556,566.132,524.279,566.353,524.003z"/>
	<path fill-rule="evenodd" clip-rule="evenodd" fill="#FFFFFF" d="M231.035,388.497c2.669-1.928,5.29-3.364,7.333-5.383
		c6.139-6.066,4.968-14.066-2.476-18.328c-0.69-0.396-1.426-0.716-2.154-1.042c-6.896-3.096-6.929-3.096-6.607-10.776
		c0.122-2.913,0.434-5.817,0.688-9.087c8.86,1.574,17.51,3.111,26.768,4.756c-10.471,28.227-12.382,56.604-2.93,85.948
		C243.879,427.301,232.012,398.756,231.035,388.497z"/>
	<path fill-rule="evenodd" clip-rule="evenodd" fill="#FFFFFF" d="M496.938,532.235c-14.42,13.559-32.536,14.912-50.985,13.855
		c-13.427-0.769-25.34-5.816-34.821-16.648C440.167,530.388,468.426,531.307,496.938,532.235z"/>
	<path fill-rule="evenodd" clip-rule="evenodd" fill="#FFFFFF" d="M522.657,162.428c5.602,0.598,11.024,4.58,16.229-0.281
		c4.443,5.705,3.218,14.825,11.669,17.006c-0.867,2.368-2.312,4.984-2.74,7.757c-0.914,5.914,2.373,10.857,8.84,13.609
		c15.51,6.602,29.847,15.229,43.604,24.885c1.064,0.747,2.091,1.545,3.464,2.564c-4.999,1.67-9.52,3.41-14.184,4.578
		c-1.162,0.292-3.148-0.929-4.141-2.015c-6.401-7.012-13.448-13.61-23.053-14.809c-7.924-0.988-10.671-4.994-12.837-11.912
		C544.465,187.697,536.193,173.398,522.657,162.428z"/>
	<path fill-rule="evenodd" clip-rule="evenodd" fill="#FFFFFF" d="M261.439,658.336c-1.065,2.747-1.706,4.399-2.554,6.589
		c-6.66-2.475-13.324-4.952-18.838-7.002c-1.284-3.595-2.208-6.181-3.131-8.767c-1.666,1.443-3.331,2.888-5.595,4.85
		c-4.417-2.313-9.538-4.995-14.658-7.677c0.375-0.223,0.75-0.444,1.124-0.666c-0.871-2.613-1.001-6.076-2.791-7.635
		c-2.47-2.149-4.448,0.608-6.002,3.514c-5.088-4.2-9.927-8.193-14.727-12.156c4.133-3,7.827-5.683,11.94-8.669
		c3.353,4.587-2.808,8.476-1.199,13.418c2.206-2.536,4.277-4.919,6.378-7.335c4.739,3.524,9.246,6.792,13.62,10.228
		c0.605,0.476,0.759,1.777,0.771,2.7c0.019,1.444-0.455,2.902-0.373,4.335c0.141,2.462,2.001,3.35,3.401,1.571
		c3.867-4.911,7.437-2.378,11.206-0.207c0.805,0.465,1.647,0.914,2.529,1.184c3.102,0.947,5.233,2.277,3.966,6.197
		c-0.346,1.068,0.657,2.574,1.396,5.084c2.21-2.834,3.701-4.744,5.402-6.926c2.176,1.394,4.29,3.02,6.632,4.189
		c4.495,2.244,9.104,4.265,13.697,6.307c1.583,0.703,3.006,0.803,3.847,3.142c0.908,2.528,4.143,2.266,6.144,0.632
		c3.776-3.083,8.157-1.074,12.183-1.832c0.416-0.078,1.399,1.351,1.633,2.212c0.267,0.981-0.012,2.111-0.054,3.176
		c-0.237,6.124-0.34,6.194-5.521,4.499c-1.23-2.075-2.172-3.665-3.115-5.255c-1.434,1.135-2.868,2.27-4.862,3.848
		c-5.024-1.346-10.821-2.777-16.522-4.525c-1.135-0.348-2.072-1.792-2.796-2.925C263.551,662.836,262.813,661.059,261.439,658.336z"
		/>
	<path fill-rule="evenodd" clip-rule="evenodd" fill="#FFFFFF" d="M659.835,385.334c6.898,0,13.578,0,20.498,0
		c-4.221,25.647-13.99,48.886-32.169,68.242C659.173,432.239,661.755,409.474,659.835,385.334z"/>
	<path fill-rule="evenodd" clip-rule="evenodd" fill="#FFFFFF" d="M652.593,166.859c-3.192,2.664-6.043,4.486-8.092,6.97
		c-1.146,1.391-1.733,4.176-1.118,5.772c0.448,1.163,3.244,1.829,5.048,1.958c2.188,0.157,4.432-0.485,7.319-0.87
		c0.867,7.703,1.785,15.328,2.504,22.971c0.079,0.847-0.765,2.079-1.536,2.659c-3.9,2.93-7.918,5.703-11.693,8.388
		c-0.375-4.868-0.672-10.803-1.321-16.7c-1.286-11.68-3.433-23.153-8.894-33.76c-0.523-1.017-0.771-2.667-0.31-3.619
		c2.59-5.347,5.435-10.57,8.809-17.009C646.686,152.072,649.737,159.71,652.593,166.859z"/>
	<path fill-rule="evenodd" clip-rule="evenodd" fill="#FFFFFF" d="M259.368,153.324c1.528-2.884,2.684-5.064,3.883-7.327
		c13.177,12.002,16.994,10.971,25.788-6.81c2.275,0.267,4.649,0.44,6.984,0.845c2.98,0.516,5.927,1.219,8.316,1.721
		c0,3.834-0.26,7.25,0.12,10.592c0.167,1.466,1.636,2.785,2.514,4.17c0.918-1.304,2.268-2.483,2.685-3.931
		c2.633-9.148,2.566-9.171,11.574-6.328c1.005,0.318,1.99,0.7,3.235,1.141c-1.345,4.923-2.654,9.716-3.746,13.712
		c-9.938-1.861-19.49-3.997-29.152-5.329c-5.826-0.803-11.717-0.039-16.645,4.018c-0.583,0.48-2.038,0.439-2.811,0.065
		C267.947,157.852,263.869,155.658,259.368,153.324z"/>
	<path fill-rule="evenodd" clip-rule="evenodd" fill="#FFFFFF" d="M646.853,334.727c5.821,0.703,11.314,1.759,16.832,1.919
		c5.401,0.157,10.828-0.6,16.523-0.974c-0.135-0.17,0.125,0.012,0.171,0.237c1.56,7.831,1.586,7.879-5.405,12.093
		c-5.727,3.454-11.59,6.689-18.595,6.298c-1.046-0.058-2.625-0.854-2.961-1.702C651.075,346.68,648.995,340.658,646.853,334.727z"/>
	<path fill-rule="evenodd" clip-rule="evenodd" fill="#FFFFFF" d="M661.08,277.426c2.596,6.228,5.274,12.423,7.685,18.722
		c0.312,0.815-0.506,2.396-1.245,3.226c-5.851,6.57-13.535,9.466-22.826,10.877C651.83,299.818,657.703,289.378,661.08,277.426z"/>
	<path fill-rule="evenodd" clip-rule="evenodd" fill="#FFFFFF" d="M566.786,167.475c-4.818,3.151-9.332,6.103-13.588,8.885
		c-1.291-5.105-2.566-10.388-3.979-15.635c-0.732-2.724,0.246-4.159,2.819-5.113c2.571-0.954,4.994-2.309,7.754-3.617
		C562.198,157.319,564.467,162.341,566.786,167.475z"/>
	<path fill-rule="evenodd" clip-rule="evenodd" fill="#FFFFFF" d="M594.824,156.604c-0.642-5.716-1.248-10.288-1.585-14.88
		c-0.062-0.838,0.816-2.34,1.537-2.541c4.179-1.162,8.44-2.026,13.9-3.27c-1.613,6.278-2.324,11.896-4.65,16.736
		C603.049,154.683,598.653,155.073,594.824,156.604z"/>
	<path fill-rule="evenodd" clip-rule="evenodd" fill="#FFFFFF" d="M250.567,187.626c3.426,0.674,6.683,1.205,9.862,2.036
		c0.638,0.167,1.447,1.523,1.378,2.256c-0.509,5.386-1.221,10.753-1.869,16.126C250.558,207.184,247.458,200.654,250.567,187.626z"
		/>
	<path fill-rule="evenodd" clip-rule="evenodd" fill="#FFFFFF" d="M644.989,224.988c3.9,2.309,7.551,4.785,11.487,6.662
		c1.833,0.874,2.691,1.518,2.625,3.639c-0.161,5.125-0.053,10.258-0.053,15.287c-5.072-5.43-9.7-10.36-14.284-15.33
		c-0.391-0.424-0.741-1.133-0.695-1.674C644.337,230.442,644.728,227.322,644.989,224.988z"/>
</g>
<g>
	<path fill-rule="evenodd" clip-rule="evenodd" fill="#EC148E" d="M521.992,184.909c-0.36,0.398-0.769,0.849-1.294,1.43
		c0.439,0.22,0.819,0.305,1.045,0.54c2.139,2.225,4.879,4.15,6.242,6.785c2.985,5.766,5.482,11.819,7.682,17.933
		c0.516,1.434-0.577,3.863-1.668,5.258c-0.458,0.584-3.068,0.074-4.299-0.636c-5.891-3.397-11.757-7.141-18.848-6.538
		c-10.153,0.863-22.869,9.749-22.626,22.788c0.126,6.81-0.194,13.207,4.92,18.404c1.747,1.775,3.714,3.338,5.634,4.935
		c2.58,2.146,5.212,4.231,7.74,6.276c-4.133,6.38-10.239,7.081-16.027,8.32c-5.317,1.139-10.648,2.397-16.041,2.917
		c-2.2,0.212-4.578-1.371-6.865-2.168c-0.453-0.159-0.858-0.664-1.285-0.663c-7.613,0.014-11.979-5.636-15.498-10.708
		c-2.739-3.947-3.28-9.817-3.662-14.917c-0.804-10.728,2.484-20.789,6.538-30.583c1.921-4.643,3.651-9.403,6.019-13.815
		c2.509-4.677,5.323-9.283,8.643-13.406c3.43-4.263,7.234-8.436,11.596-11.68c4.532-3.371,9.521-6.677,15.773-6.073
		c8.038,0.777,15.123,3.461,20.467,9.899C517.82,181.185,519.857,182.837,521.992,184.909z"/>
	<path fill-rule="evenodd" clip-rule="evenodd" fill="#EC148E" d="M636.512,248.428c1.931-0.729,3.767-1.854,4.2,1.336
		c0.051,0.37,0.204,0.797,0.456,1.057c5.845,6.039,6.752,13.458,5.848,21.314c-0.229,1.98-0.765,4.012-1.593,5.821
		c-3.149,6.875-6.001,13.957-9.91,20.386c-2.451,4.029-6.55,7.073-9.989,10.478c-2.422,2.396-4.709,5.072-7.526,6.897
		c-8.061,5.223-16.374,10.082-26.593,8.99c-1.174-0.125-2.274-0.891-3.422-1.326c-2.409-0.915-5.003-1.501-7.207-2.769
		c-5.673-3.262-10.127-7.861-13.415-13.542c-1.557-2.691,1.148-6.292,5.22-8.179c3.984-1.848,7.124-0.157,10.689,1.029
		c2.409,0.801,5.318,0.938,7.826,0.452c7.942-1.538,14.791-4.043,17.663-13.315c2.983-9.633,1.438-18.742-6.301-24.903
		c-2.297-1.828-4.473-3.815-6.842-5.541c-3.214-2.342-3.134-5.691-2.551-8.886c0.558-3.058,2.869-4.105,6.041-5.051
		c8.65-2.575,17.359-1.546,25.954-1.075c3.941,0.216,7.729,3.359,11.55,5.252C636.776,246.936,636.561,247.788,636.512,248.428z"/>
	<path fill-rule="evenodd" clip-rule="evenodd" fill="#EC148E" d="M549.688,230.436c5.157,1.534,10.356,2.323,14.778,4.611
		c4.285,2.217,7.82,5.733,10.664,10.063c2.047,3.115,2.67,6.153,3.441,9.577c1.646,7.306-0.619,13.383-3.841,19.727
		c-3.94,7.761-10.602,12.492-17.775,16.037c-3.587,1.773-8.884,0.847-13.228,0.095c-3.749-0.649-7.724-2.145-10.719-4.423
		c-3.313-2.521-6.056-6.088-8.289-9.673c-5.5-8.827-5.25-18.36-1.728-27.749c2.047-5.455,5.688-10.469,10.655-13.262
		C538.311,232.818,544.046,232.102,549.688,230.436z"/>
	<path fill-rule="evenodd" clip-rule="evenodd" fill="#EC148E" d="M507.756,244.74c-5.536-3.895-7.334-8.905-5.563-14.043
		c1.164-3.377,7.875-7.645,11.614-6.806c1.86,0.417,3.471,2.146,5.038,3.465c0.257,0.215-0.122,1.916-0.495,2.036
		c-4.778,1.536-4.801,6.547-7.243,9.76C509.848,240.81,508.94,242.735,507.756,244.74z"/>
	<path fill-rule="evenodd" clip-rule="evenodd" fill="#EC148E" d="M585.546,287.462c1.572-3.265,3.028-6.308,4.505-9.34
		c0.507-1.04,0.892-2.219,1.654-3.033c0.702-0.751,1.995-1.702,2.748-1.503c1.843,0.486,3.769,7.072,2.823,8.773
		C594.335,287.648,592.464,288.566,585.546,287.462z"/>
</g>
<g>
	<path fill-rule="evenodd" clip-rule="evenodd" d="M578.724,513.71c19.074,9.257,35.094,21.814,50.584,35.127
		c2.415,2.076,4.632,2.904,8.176,1.64c9.981-3.563,19.386-1.883,26.761,6.028c7.748,8.312,9.007,18.197,4.63,28.555
		c-1.347,3.188-1.429,5.666-0.143,8.897c6.937,17.415,5.401,34.197-6.199,49.036c-11.736,15.011-27.956,20.031-46.599,17.966
		c-0.632-0.069-1.269-0.088-1.457-0.101c0,15.018,0.328,29.881-0.106,44.721c-0.33,11.276-0.759,22.676-2.681,33.754
		c-4.021,23.19-18.45,36.733-41.442,41.262c-22.539,4.44-45.25,4.836-68.033,2.612c-6.207-0.605-12.451-1.46-18.498-2.94
		c-10.136-2.48-19.23-7.072-26.066-15.618c-0.789,0.537-1.543,0.845-2.005,1.396c-8.634,10.306-20.155,15.433-33.062,16.706
		c-28.41,2.805-56.665,1.146-84.607-4.951c-16.303-3.558-26.381-14.192-32.656-28.982c-5.482-12.923-7.5-26.59-7.979-40.509
		c-0.201-5.858-0.109-11.733,0.062-17.594c0.079-2.696-0.632-3.909-3.529-4.586c-25.452-5.943-50.412-13.388-73.713-25.544
		c-14.909-7.779-28.287-17.532-39.076-30.608c-1.036-1.256-2.594-2.25-4.108-2.916c-21.659-9.526-32.947-26.462-35.698-49.59
		c-0.706-5.938-1.246-11.919-2.417-17.771c-1.452-7.257-5.369-13.211-10.883-18.199c-2.762-2.497-7.145-4.832-5.529-9.273
		c1.542-4.241,6.467-4.102,10.113-4.098c32.963,0.026,64.043,11.866,74.147,52.772c1.807,7.315,2.188,14.98,3.307,22.471
		c0.208,1.393,0.498,2.93,1.258,4.057c6.807,10.07,16.233,17.145,26.715,22.963c0.314,0.175,0.77,0.093,1.668,0.18
		c-0.297-1.522-0.502-2.874-0.829-4.196c-2.694-10.892-2.423-21.684,1.623-32.176c1.329-3.445,1.351-6.35,0.091-9.857
		c-5.857-16.307,2.322-32.557,18.647-37.412c5.258-1.562,10.583-1.336,15.617,0.921c2.866,1.283,4.938,0.682,7.214-1.303
		c14.197-12.369,29.093-23.77,45.878-32.501c0.854-0.444,1.446-1.391,2.16-2.102c-0.933-0.841-1.732-1.964-2.819-2.479
		c-10.457-4.955-21.228-9.313-31.402-14.783c-32.121-17.268-57.222-41.507-72.33-75.19c-10.816-24.115-14.245-49.465-12.084-75.682
		c2.011-24.39,8.91-47.469,18.393-69.912c1.336-3.162,1.961-6.998,1.67-10.416c-2.591-30.473-1.316-60.742,5.217-90.619
		c2.143-9.798,5.173-19.646,9.458-28.684c9.59-20.221,17.159-22.424,38.238-21.417c29.374,1.404,56.233,12.178,82.646,24.05
		c4.258,1.914,8.036,2.396,12.552,1.042c17.169-5.144,34.887-7.214,52.68-8.719c0.779-0.065,1.555-0.153,2.988-0.296
		c-2.25-3.243-4.479-6.007-6.22-9.051c-4.074-7.126-7.996-14.343-11.775-21.629c-0.75-1.446-0.768-3.361-0.817-5.068
		c-0.263-9.182,4.42-12.07,12.692-7.907c6.055,3.048,9.254,8.585,12.173,14.058c0-4.633-0.076-9.381,0.018-14.126
		c0.137-6.886,2.229-13.055,6.929-18.246c5.277-5.832,11.54-5.771,15.411,1.037c2.482,4.364,4.42,9.592,4.687,14.536
		c0.435,8.048-0.693,16.181-1.172,24.277c-0.07,1.182-0.19,2.36,0.178,3.686c1.794-3.787,3.225-7.805,5.467-11.305
		c3.211-5.011,6.611-10.03,10.714-14.292c2.435-2.529,6.201-4.195,9.673-5.221c6.997-2.066,11.656,1.909,10.173,9.073
		c-1.076,5.202-3.036,10.639-6.076,14.926c-5.372,7.572-11.863,14.351-17.899,21.45c-0.913,1.074-1.903,2.083-3.151,3.443
		c8.863,0.995,17.169,1.65,25.379,2.926c8.395,1.304,16.743,3.013,25.016,4.954c3.757,0.881,6.889,0.559,10.306-1.228
		c20.112-10.518,40.859-19.425,63.232-24.02c13.422-2.756,26.881-3.66,40.484-1.295c4.171,0.725,7.312,2.473,9.869,5.963
		c10.031,13.69,15.943,29.116,19.557,45.514c5.989,27.182,6.651,54.677,4.255,82.289c-0.657,7.571-0.066,14.547,3.245,21.685
		c8.981,19.354,16.191,39.394,19.264,60.642c8.45,58.458-12.48,126.603-75.303,159.349c-7.524,3.922-15.58,6.825-23.399,10.178
		C591.866,508.144,585.543,510.812,578.724,513.71z M262.463,383.234c6.748,1.123,12.386,1.981,17.991,3.025
		c3.081,0.574,5.19,2.345,4.789,5.786c-0.404,3.463-2.944,4.508-6.027,4.54c-4.665,0.049-9.333,0.12-13.994-0.031
		c-2.808-0.091-4.014,0.997-3.602,3.755c1.135,7.612,2.395,15.208,3.421,22.834c0.52,3.864,2.607,4.694,6.109,4.206
		c3.815-0.531,7.737-1.178,11.508-0.783c2.04,0.214,3.863,2.499,5.783,3.849c-1.246,1.532-2.195,3.64-3.803,4.47
		c-2.918,1.506-6.208,2.322-9.382,3.295c-2.819,0.863-3.795,2.483-2.13,5.041c3.692,5.673,7.398,11.342,11.307,16.865
		c2.652,3.747,6.006,4.438,10.456,2.48c4.085-1.798,8.573-2.922,12.997-3.583c1.554-0.232,4.323,1.423,4.931,2.884
		c0.592,1.423-0.342,4.205-1.559,5.481c-1.664,1.745-4.19,2.706-6.417,3.866c-4.352,2.269-4.42,3.751-0.453,6.66
		c17.458,12.804,37.185,20.518,57.944,25.914c25.602,6.654,51.652,10.252,78.06,11.507c34.859,1.656,69.53,0.467,103.644-7.546
		c23.958-5.626,46.491-14.61,65.251-31.179c5.315-4.694,10.094-9.997,15.705-15.608c-3.114-1.655-5.129-2.578-6.986-3.751
		c-2.294-1.447-4.55-3.11-3.627-6.377c0.968-3.425,3.675-4.361,6.835-4.222c2.522,0.11,5.079,0.292,7.533,0.836
		c2.714,0.6,4.436-0.232,5.399-2.726c2.392-6.189,5.016-12.309,7.027-18.623c1.932-6.058,1.643-6.142-4.068-8.496
		c-0.857-0.354-1.999-0.59-2.446-1.257c-1.05-1.57-2.755-3.676-2.346-4.991c0.477-1.531,2.806-2.682,4.555-3.549
		c1.104-0.548,2.62-0.386,3.945-0.348c2.374,0.069,3.493-1.044,3.387-3.354c-0.341-7.44-0.746-14.877-1.074-22.318
		c-0.133-3.005-1.378-3.903-4.397-3.152c-2.815,0.701-5.789,1.105-8.684,1.055c-2.935-0.051-6.252-0.652-6.783-4.294
		c-0.507-3.481,1.742-5.76,4.85-6.919c2.478-0.924,5.059-1.768,7.663-2.111c3.706-0.489,4.438-2.23,3.168-5.45
		c-3.41-8.644-6.59-17.384-10.226-25.93c-2.184-5.133-2.445-4.932-7.008-1.972c-14.306,9.278-29.073,11.571-44.286,2.297
		c-9.929-6.052-17.035-14.882-22.528-24.928c-1.973-3.607-4.541-4.411-8.229-4.949c-13.013-1.9-24.006-7.781-31.973-18.415
		c-4.249-5.669-4.202-6.013-11.023-3.29c-9.74,3.889-19.706,6.346-30.319,5.838c-26.913-1.287-38.513-21.674-40.048-40.391
		c-0.463-5.653-0.45-5.9-6.106-5.225c-34.635,4.134-67.047,14.661-95.896,34.625c-31.875,22.06-55.038,50.774-65.456,88.738
		C264.421,372.5,263.591,377.849,262.463,383.234z M323.135,610.592c8.718,2.033,16.903,3.764,24.994,5.862
		c25.088,6.507,49.978,13.879,75.25,19.553c28.505,6.4,57.279,7.038,85.869-0.651c3.098-0.834,6.66-0.917,9.819-0.334
		c5.656,1.043,7.997,6.297,4.569,10.87c-2.253,3.007-5.718,5.915-9.228,7.046c-37.771,12.17-76.149,15.313-114.908,5.43
		c-20.082-5.122-39.849-11.474-59.788-17.167c-7.222-2.062-14.53-3.825-21.788-5.722c-2.161,8.3-2.279,8.504,4.458,12.401
		c4.703,2.722,9.651,5.135,14.726,7.068c9.489,3.615,19.239,6.142,29.586,5.674c4.415-0.199,8.561,3.084,8.642,6.188
		c0.075,2.876-2.596,4.305-8.181,4.379c-0.133,0.001-0.267,0.004-0.4,0.001c-16.258-0.289-32.515-0.579-48.773-0.864
		c-1.4-0.024-2.801-0.003-4.58-0.003c0,5.234,0,9.972,0,14.902c4.061,0,8.155,0.098,12.243-0.02
		c9.684-0.278,19.107,0.462,27.987,5.002c2.764,1.412,6.073,1.938,9.203,2.418c8.02,1.228,16.099,2.076,24.108,3.359
		c2.143,0.344,4.123,1.702,7.292,3.079c-2.582,1.488-3.823,2.632-5.251,2.962c-17.545,4.051-35.022,7.921-53.115,2.306
		c-7.13-2.213-14.745-2.862-22.914-4.367c0.512,7.354,1.212,13.686,1.324,20.027c0.128,7.277,4.53,10.618,10.602,12.703
		c1.879,0.646,3.805,1.218,5.754,1.587c17.943,3.399,35.938,6.143,54.313,5.684c3.723-0.093,7.543,1.252,11.197,2.342
		c1.119,0.334,2.528,2.029,2.523,3.095c-0.004,0.92-1.685,2.23-2.879,2.658c-2.098,0.75-4.374,1.186-6.604,1.353
		c-11.82,0.886-23.667,1.449-35.469,2.519c-8.24,0.747-16.421,2.127-24.629,3.224c-0.12,0.39-0.239,0.777-0.359,1.166
		c3.368,1.686,6.57,4.07,10.137,4.916c8.26,1.959,16.644,3.632,25.072,4.595c18.691,2.137,37.468,3.14,56.242,1.076
		c6.871-0.756,13.435-2.817,18.886-8.01c-6.756-0.643-13.462-0.601-20.167-0.665c-2.381-0.022-4.89,0.101-7.097-0.604
		c-1.592-0.507-2.783-2.272-4.154-3.477c1.373-1.196,2.57-3.081,4.144-3.479c11.689-2.948,23.452-5.602,35.487-8.417
		c0.028-0.433,0.127-1.204,0.121-1.974c-0.072-9.307-0.076-9.32-9.441-9.307c-17.863,0.025-35.728,0.234-53.589,0.025
		c-7.467-0.087-14.925-1.243-21.527-5.11c-1.637-0.959-2.593-3.081-3.862-4.668c1.525-1.139,2.899-2.845,4.607-3.303
		c3.827-1.024,7.798-1.701,11.752-2.032c10.615-0.886,21.304-1.087,31.867-2.357c12.4-1.491,24.708-3.761,37.021-5.9
		c1.025-0.178,1.97-1.832,2.606-2.989c0.853-1.549,0.927-3.758,2.106-4.85c4.077-3.771,11.774-1.692,13.437,3.578
		c0.787,2.498,1.079,5.209,1.215,7.842c0.197,3.821,0.051,7.66,0.051,12.044c3.939,0,7.383-0.2,10.796,0.038
		c10.615,0.741,21.215,1.696,31.829,2.469c4.517,0.328,9.071,0.23,13.568,0.707c1.303,0.138,2.466,1.595,3.694,2.447
		c-0.859,1.092-1.498,2.672-2.62,3.18c-2.763,1.248-5.689,2.518-8.655,2.858c-9.247,1.061-18.541,1.702-27.818,2.489
		c-6.713,0.569-13.428,1.113-20.597,1.705c0.404,2.387,0.713,4.456,1.11,6.508c0.687,3.539,2.55,5.701,6.468,5.667
		c4.249-0.037,8.508,0.286,12.749,0.11c7.564-0.314,15.117-1.121,22.677-1.16c1.622-0.009,4.377,2.215,4.583,3.694
		c0.225,1.604-1.513,4.348-3.118,5.15c-2.763,1.383-6.051,1.896-9.181,2.323c-4.741,0.648-9.535,0.91-14.308,1.336
		c-0.017,0.45-0.033,0.901-0.051,1.353c5.188,0.96,10.341,2.258,15.572,2.819c17.681,1.897,35.402,1.853,53.076-0.025
		c9.519-1.012,19.113-2.206,27.592-7.2c4.926-2.901,9.132-6.626,11.057-12.075c-19.187,0-38.11,0.05-57.034-0.055
		c-2.75-0.015-5.614-0.404-8.216-1.259c-3.496-1.147-4.419-4.733-1.477-6.745c3.007-2.057,6.816-3.424,10.444-3.979
		c6.009-0.919,12.239-0.446,18.228-1.449c14.375-2.406,28.246-6.566,40.973-13.917c1.191-0.688,2.893-1.82,2.978-2.859
		c0.343-4.178,0.142-8.398,0.142-12.57c-1.419,0-2.354-0.071-3.275,0.01c-11.935,1.057-23.861,2.228-35.806,3.178
		c-10.49,0.834-20.991,1.572-31.502,2.083c-10.509,0.51-21.035,0.853-31.555,0.868c-2.179,0.004-4.36-1.758-6.54-2.705
		c1.72-1.805,3.129-4.253,5.23-5.272c3.669-1.78,7.686-3.093,11.698-3.878c13.826-2.702,27.86-4.476,41.54-7.756
		c17.004-4.078,33.734-9.303,51.043-14.162c-0.607-5.476-1.203-10.841-1.875-16.896c-6.65,1.095-13.119,1.75-19.381,3.264
		c-22.486,5.435-44.889,11.221-67.351,16.759c-29.845,7.358-59.819,10.359-89.987,1.882c-5.999-1.686-11.9-3.756-17.742-5.931
		c-1.245-0.464-2.033-2.151-3.031-3.276c1.253-0.86,2.398-2.082,3.785-2.5c2.141-0.645,4.437-0.872,6.686-1.046
		c9.771-0.755,19.323,0.745,28.972,2.253c27.014,4.219,53.721,1.768,79.82-6.021c17.697-5.28,35.048-11.715,52.682-17.222
		c7.527-2.352,15.383-3.651,23.31-5.48c-1.059-5.203-2.159-10.613-3.152-15.494c-13.975-2.818-26.501,0.146-38.968,4.67
		c-6.74,2.445-13.463,0.704-19.447-3.073c-1.378-0.869-2.993-2.916-2.836-4.221c0.152-1.271,2.29-2.938,3.816-3.283
		c3.996-0.902,8.12-1.463,12.216-1.647c9.706-0.438,19.442-0.322,29.135-0.929c6.625-0.415,9.663-3.785,10.7-10.372
		c0.742-4.71-1.994-7.602-6.617-6.768c-11.905,2.146-23.883,3.996-35.665,6.688c-25.399,5.803-50.543,12.817-76.075,17.919
		c-25.542,5.104-50.928,2.375-75.573-6.192c-2.849-0.991-5.603-2.49-8.102-4.192c-2.512-1.713-2.054-3.899,0.371-5.437
		c1.323-0.839,2.893-1.407,4.429-1.77c9.981-2.356,20.01-2.766,30.075-0.478c29.645,6.735,59.246,6.793,87.624-4.58
		c22.627-9.068,44.336-20.43,66.906-30.985c-3.687-6.995-7.251-13.521-10.568-20.17c-1.235-2.479-2.513-2.463-5-1.788
		c-9.618,2.608-19.302,5.017-29.046,7.106c-5.283,1.134-8.271-2.861-6.232-7.741c1.465-3.508,4.19-5.583,7.859-6.024
		c7.328-0.879,11.994-5.228,15.556-11.229c0.949-1.6,2.186-2.98,0.377-4.931c-1.632-1.761-2.733-3.819-5.812-3.203
		c-7.043,1.409-14.164,2.43-21.194,3.897c-1.411,0.294-3.169,1.61-3.724,2.904c-4.307,10.019-11.473,17.268-21.114,22.021
		c-18.333,9.036-37.85,11.025-57.638,7.427c-20.029-3.642-36.358-13.375-45.505-32.706c-0.569-1.202-2.246-2.335-3.598-2.632
		c-5.32-1.17-10.711-2.037-16.094-2.904c-0.963-0.155-2.408-0.158-2.955,0.414c-2.798,2.922-5.375,6.055-8.445,9.595
		c7.879,1.696,14.738,3.206,20.777,7.604c4.313,3.141,9.468,5.207,14.41,7.382c4.854,2.138,9.97,3.677,14.854,5.753
		c1.684,0.717,3.017,2.26,5.412,4.127c-2.634,0.988-4.138,1.981-5.689,2.062c-6.905,0.356-13.829,0.707-20.736,0.574
		c-7.996-0.155-15.312-2.708-22.279-6.769c-4.321-2.52-9.228-4.06-13.94-5.86c-0.874-0.334-2.625-0.201-3.029,0.376
		c-1.852,2.645-3.369,5.523-5.051,8.395c0.965,0.438,1.307,0.661,1.68,0.754c32.952,8.109,65.963,15.988,99.854,19.095
		c17.836,1.635,35.536,1.645,52.987-4.089c7.044-2.314,14.873-2.562,22.387-2.943c2.562-0.13,6.858,1.634,7.536,3.538
		c1.321,3.714-2.655,5.849-5.56,7.146c-7.386,3.298-14.846,6.583-22.557,8.97c-16.508,5.111-33.356,7.749-50.8,6.351
		c-16.853-1.352-32.961-5.793-49.082-10.378c-18.962-5.393-37.979-10.484-57.89-10.783c-7.819-0.118-7.819-0.116-9.997,7.353
		c-0.033,0.111,0.021,0.249,0.098,0.968c2.271,1.153,4.764,2.67,7.436,3.735c11.283,4.494,23.129,5.912,35.171,6.353
		c2.85,0.104,5.854,0.545,8.436,1.65c1.474,0.63,2.238,2.917,3.322,4.458c-1.646,0.898-3.284,2.538-4.938,2.555
		c-4.504,0.045-9.026-0.492-13.521-0.983c-12.967-1.415-25.919-2.97-38.893-4.309c-1.082-0.111-2.977,0.71-3.321,1.568
		C325.93,601.683,324.652,606.019,323.135,610.592z M357.913,160.008c-2.685,4.636-4.839,8.608-7.243,12.422
		c-1.761,2.794-1.531,4.619,0.999,7.118c8.148,8.048,5.854,17.566-4.231,22.987c-13.457,7.233-26.768,14.84-39.542,23.203
		c-8.871,5.808-16.63,13.289-25.068,19.786c-10.114,7.789-18.799,4.663-21.48-7.758c-1.087-5.034-1.394-10.237-2.024-15.123
		c-4.051-1.226-8.062-2.44-13.145-3.978c0,6.592-0.042,12.561,0.041,18.528c0.014,1.008,0.386,2.108,0.89,2.996
		c4.012,7.06,9.291,12.324,18.078,12.593c3.055,0.093,6.154,0.13,9.136,0.704c2.26,0.434,4.62,1.333,6.447,2.686
		c1.151,0.852,2.148,3.094,1.846,4.394c-0.3,1.292-2.168,2.752-3.61,3.125c-2.385,0.615-5.063,0.894-7.47,0.472
		c-8.032-1.404-16-3.182-24.182-4.855c0.352,3.224,0.969,6.897,1.114,10.588c0.42,10.692,8.3,19.72,18.9,22.08
		c2.5,0.557,5.26,2.27,6.756,4.295c1.258,1.703,1.762,5.07,0.893,6.882c-0.687,1.433-3.925,1.809-6.11,2.284
		c-1.069,0.232-2.33-0.345-3.49-0.614c-9.142-2.118-18.281-4.25-27.403-6.374c-3.678,8.872-3.248,10.651,4.688,15.771
		c2.643,1.706,5.635,3.058,8.65,3.953c4.316,1.28,8.828,1.889,13.205,2.985c2.433,0.609,3.801-0.004,5.206-2.188
		c20.621-32.067,48.886-55.236,83.3-71.181c25.141-11.649,51.656-18.059,79.165-20.579c2.226-0.204,2.958-0.936,3.675-3.109
		c3.495-10.589,6.89-21.25,11.194-31.521c4.513-10.77,11.223-20.245,20.169-27.966c1.358-1.171,3.298-2.129,1.86-4.493
		c-1.416-2.327-1.424-5.85-5.614-5.64c-4.787,0.24-9.597,0.199-14.392,0.077c-2.582-0.065-4.075,0.979-5.435,3.145
		c-6.468,10.3-9.281,21.658-10.369,33.608c-0.469,5.152-1.04,10.325-2.105,15.374c-0.377,1.787-2.362,3.234-3.612,4.836
		c-1.578-1.275-3.876-2.226-4.621-3.876c-7.391-16.378-10.892-32.899-0.51-49.508c0.234-0.375,0.222-0.903,0.334-1.402
		c-6.343-0.257-6.282-0.221-9.31,4.887c-5.832,9.836-6.341,20.696-6.332,31.693c0.005,5.579,0.376,11.232-0.38,16.719
		c-1.365,9.9-10.731,13.369-17.875,6.429c-3.354-3.258-6.47-7.926-7.299-12.398c-2.343-12.642-2.227-25.43,2.293-37.8
		c0.333-0.912,0.604-1.847,1.366-4.201C375.044,168.981,366.545,165.468,357.913,160.008z M346.094,524.626
		c-0.176-0.286-0.354-0.572-0.53-0.859c-3.539,1.565-7.175,2.943-10.6,4.727c-15.462,8.048-28.995,18.828-42.251,30.007
		c-6.605,5.57-12.788,10.513-22.695,5.064c-7.634-4.197-15.774,2.508-15.242,11.374c0.162,2.691,0.876,5.71,2.356,7.886
		c3.062,4.501,2.43,8.313,0.169,12.963c-6.435,13.233-6.221,26.476,2.917,38.406c9.22,12.04,22.21,14.764,36.536,12.466
		c1.37-0.221,3.228-2.004,3.56-3.375c2.714-11.232,4.916-22.588,7.656-33.812c7.326-30.011,19.02-58.093,37.408-83.147
		C345.73,525.843,345.86,525.196,346.094,524.626z M566.353,524.003c-0.221,0.276-0.441,0.553-0.661,0.83
		c0.724,1.152,1.465,2.295,2.167,3.461c5.626,9.339,11.74,18.423,16.77,28.073c13.539,25.974,20.241,54.215,26.219,82.626
		c1.58,7.516,1.307,7.574,9.899,8.267c16.678,1.346,31.274-7.871,36.229-22.962c3.338-10.162,2.214-19.996-2.784-29.338
		c-2.164-4.045-2.448-7.694,0.269-11.575c1.038-1.483,1.593-3.348,2.17-5.103c1.673-5.078,0.437-9.658-3.438-13.097
		c-4.037-3.584-9.105-3.578-13.459-0.964c-5.498,3.301-10.064,2.298-14.689-1.275c-2.316-1.789-4.719-3.474-6.965-5.346
		c-14.962-12.473-30.102-24.673-48.274-32.346C568.679,524.778,567.505,524.417,566.353,524.003z M521.992,184.909
		c-2.135-2.071-4.172-3.724-5.815-5.703c-5.344-6.438-12.429-9.122-20.467-9.899c-6.252-0.604-11.241,2.702-15.773,6.073
		c-4.361,3.245-8.166,7.417-11.596,11.68c-3.319,4.124-6.134,8.729-8.643,13.406c-2.367,4.412-4.098,9.172-6.019,13.815
		c-4.054,9.793-7.342,19.854-6.538,30.583c0.382,5.101,0.923,10.97,3.662,14.917c3.52,5.072,7.885,10.722,15.498,10.708
		c0.427-0.001,0.832,0.504,1.285,0.663c2.287,0.797,4.665,2.381,6.865,2.168c5.393-0.52,10.724-1.778,16.041-2.917
		c5.788-1.239,11.895-1.94,16.027-8.32c-2.528-2.045-5.16-4.13-7.74-6.276c-1.92-1.596-3.887-3.16-5.634-4.935
		c-5.114-5.197-4.794-11.594-4.92-18.404c-0.243-13.039,12.473-21.924,22.626-22.788c7.091-0.604,12.957,3.141,18.848,6.538
		c1.23,0.71,3.841,1.22,4.299,0.636c1.091-1.395,2.184-3.825,1.668-5.258c-2.199-6.114-4.696-12.167-7.682-17.933
		c-1.363-2.634-4.104-4.56-6.242-6.785c-0.226-0.235-0.605-0.32-1.045-0.54C521.224,185.758,521.632,185.307,521.992,184.909z
		 M636.512,248.428c0.049-0.64,0.265-1.492,0.099-1.575c-3.82-1.893-7.608-5.037-11.55-5.252c-8.595-0.471-17.304-1.5-25.954,1.075
		c-3.172,0.945-5.483,1.993-6.041,5.051c-0.583,3.195-0.663,6.544,2.551,8.886c2.369,1.726,4.545,3.712,6.842,5.541
		c7.739,6.162,9.284,15.271,6.301,24.903c-2.872,9.272-9.721,11.778-17.663,13.315c-2.508,0.485-5.417,0.349-7.826-0.452
		c-3.565-1.186-6.705-2.877-10.689-1.029c-4.071,1.887-6.776,5.488-5.22,8.179c3.288,5.681,7.742,10.28,13.415,13.542
		c2.204,1.268,4.798,1.854,7.207,2.769c1.147,0.435,2.248,1.2,3.422,1.326c10.219,1.092,18.532-3.767,26.593-8.99
		c2.817-1.825,5.104-4.5,7.526-6.897c3.439-3.404,7.538-6.448,9.989-10.478c3.909-6.429,6.761-13.511,9.91-20.386
		c0.828-1.809,1.364-3.841,1.593-5.821c0.904-7.855-0.003-15.275-5.848-21.314c-0.252-0.26-0.405-0.687-0.456-1.057
		C640.278,246.573,638.442,247.699,636.512,248.428z M549.688,230.436c-5.642,1.666-11.377,2.382-16.04,5.004
		c-4.967,2.793-8.608,7.807-10.655,13.262c-3.522,9.389-3.772,18.922,1.728,27.749c2.233,3.584,4.976,7.152,8.289,9.673
		c2.995,2.279,6.97,3.774,10.719,4.423c4.344,0.751,9.641,1.678,13.228-0.095c7.174-3.545,13.835-8.276,17.775-16.037
		c3.222-6.344,5.486-12.421,3.841-19.727c-0.771-3.423-1.395-6.462-3.441-9.577c-2.844-4.331-6.379-7.847-10.664-10.063
		C560.044,232.759,554.845,231.97,549.688,230.436z M231.035,388.497c0.977,10.259,12.844,38.804,20.621,46.088
		c-9.452-29.345-7.541-57.722,2.93-85.948c-9.257-1.645-17.908-3.182-26.768-4.756c-0.253,3.27-0.566,6.175-0.688,9.087
		c-0.322,7.68-0.289,7.68,6.607,10.776c0.728,0.326,1.463,0.646,2.154,1.042c7.444,4.262,8.615,12.261,2.476,18.328
		C236.324,385.133,233.704,386.569,231.035,388.497z M496.938,532.235c-28.512-0.929-56.771-1.848-85.807-2.793
		c9.481,10.832,21.394,15.88,34.821,16.648C464.401,547.147,482.518,545.794,496.938,532.235z M522.657,162.428
		c13.536,10.97,21.808,25.269,26.853,41.383c2.166,6.918,4.913,10.924,12.837,11.912c9.604,1.199,16.651,7.797,23.053,14.809
		c0.992,1.086,2.979,2.307,4.141,2.015c4.664-1.168,9.185-2.908,14.184-4.578c-1.373-1.019-2.399-1.817-3.464-2.564
		c-13.758-9.656-28.095-18.283-43.604-24.885c-6.467-2.752-9.754-7.695-8.84-13.609c0.429-2.773,1.873-5.39,2.74-7.757
		c-8.451-2.181-7.226-11.301-11.669-17.006C533.682,167.008,528.259,163.025,522.657,162.428z M261.439,658.336
		c1.375,2.723,2.112,4.5,3.132,6.097c0.724,1.133,1.661,2.577,2.796,2.925c5.701,1.748,11.498,3.18,16.522,4.525
		c1.994-1.578,3.428-2.713,4.862-3.848c0.942,1.59,1.885,3.18,3.115,5.255c5.181,1.695,5.284,1.625,5.521-4.499
		c0.042-1.064,0.32-2.194,0.054-3.176c-0.234-0.861-1.217-2.29-1.633-2.212c-4.026,0.758-8.407-1.251-12.183,1.832
		c-2,1.634-5.235,1.896-6.144-0.632c-0.84-2.339-2.264-2.438-3.847-3.142c-4.593-2.042-9.202-4.062-13.697-6.307
		c-2.342-1.17-4.457-2.796-6.632-4.189c-1.701,2.182-3.191,4.092-5.402,6.926c-0.739-2.51-1.742-4.016-1.396-5.084
		c1.268-3.92-0.864-5.25-3.966-6.197c-0.882-0.27-1.724-0.719-2.529-1.184c-3.769-2.171-7.338-4.704-11.206,0.207
		c-1.4,1.778-3.26,0.891-3.401-1.571c-0.082-1.433,0.392-2.891,0.373-4.335c-0.012-0.923-0.166-2.225-0.771-2.7
		c-4.375-3.436-8.881-6.703-13.62-10.228c-2.102,2.416-4.172,4.799-6.378,7.335c-1.609-4.942,4.551-8.831,1.199-13.418
		c-4.113,2.986-7.808,5.669-11.94,8.669c4.8,3.963,9.639,7.956,14.727,12.156c1.554-2.905,3.533-5.663,6.002-3.514
		c1.789,1.559,1.92,5.021,2.791,7.635c-0.375,0.222-0.75,0.443-1.124,0.666c5.121,2.682,10.242,5.363,14.658,7.677
		c2.264-1.962,3.929-3.406,5.595-4.85c0.924,2.586,1.847,5.172,3.131,8.767c5.514,2.05,12.178,4.527,18.838,7.002
		C259.733,662.735,260.374,661.083,261.439,658.336z M659.835,385.334c1.92,24.14-0.662,46.905-11.671,68.242
		c18.179-19.356,27.948-42.595,32.169-68.242C673.413,385.334,666.733,385.334,659.835,385.334z M652.593,166.859
		c-2.855-7.149-5.907-14.787-9.284-23.241c-3.374,6.439-6.219,11.662-8.809,17.009c-0.461,0.952-0.214,2.602,0.31,3.619
		c5.461,10.607,7.607,22.081,8.894,33.76c0.649,5.896,0.946,11.832,1.321,16.7c3.775-2.685,7.793-5.458,11.693-8.388
		c0.771-0.58,1.615-1.812,1.536-2.659c-0.719-7.643-1.637-15.268-2.504-22.971c-2.888,0.385-5.132,1.027-7.319,0.87
		c-1.804-0.129-4.6-0.795-5.048-1.958c-0.615-1.596-0.027-4.381,1.118-5.772C646.55,171.345,649.4,169.522,652.593,166.859z
		 M259.368,153.324c4.501,2.334,8.579,4.528,12.745,6.54c0.773,0.374,2.228,0.415,2.811-0.065
		c4.927-4.057,10.818-4.821,16.645-4.018c9.662,1.332,19.213,3.468,29.152,5.329c1.092-3.996,2.401-8.789,3.746-13.712
		c-1.245-0.441-2.23-0.823-3.235-1.141c-9.008-2.843-8.941-2.82-11.574,6.328c-0.417,1.448-1.766,2.627-2.685,3.931
		c-0.878-1.385-2.348-2.704-2.514-4.17c-0.379-3.342-0.12-6.758-0.12-10.592c-2.389-0.502-5.336-1.205-8.316-1.721
		c-2.334-0.405-4.708-0.578-6.984-0.845c-8.793,17.781-12.61,18.812-25.788,6.81C262.051,148.26,260.896,150.44,259.368,153.324z
		 M646.853,334.727c2.143,5.931,4.223,11.953,6.565,17.872c0.336,0.849,1.915,1.644,2.961,1.702
		c7.005,0.391,12.868-2.845,18.595-6.298c6.991-4.214,6.965-4.262,5.405-12.093c-0.046-0.225-0.306-0.407-0.171-0.237
		c-5.695,0.374-11.122,1.131-16.523,0.974C658.167,336.486,652.674,335.429,646.853,334.727z M661.08,277.426
		c-3.377,11.953-9.25,22.392-16.387,32.825c9.291-1.412,16.976-4.307,22.826-10.877c0.739-0.83,1.557-2.411,1.245-3.226
		C666.354,289.849,663.676,283.653,661.08,277.426z M566.786,167.475c-2.319-5.134-4.588-10.156-6.993-15.48
		c-2.76,1.308-5.183,2.664-7.754,3.617c-2.573,0.955-3.552,2.39-2.819,5.113c1.412,5.247,2.688,10.529,3.979,15.635
		C557.454,173.577,561.968,170.625,566.786,167.475z M594.824,156.604c3.829-1.532,8.225-1.921,9.202-3.955
		c2.326-4.841,3.037-10.458,4.65-16.736c-5.46,1.244-9.722,2.108-13.9,3.27c-0.721,0.2-1.599,1.703-1.537,2.541
		C593.576,146.316,594.183,150.889,594.824,156.604z M250.567,187.626c-3.109,13.028-0.009,19.557,9.371,20.418
		c0.648-5.373,1.36-10.74,1.869-16.126c0.069-0.733-0.74-2.089-1.378-2.256C257.25,188.831,253.993,188.301,250.567,187.626z
		 M507.756,244.74c1.185-2.005,2.092-3.931,3.351-5.588c2.442-3.212,2.465-8.224,7.243-9.76c0.373-0.12,0.752-1.82,0.495-2.036
		c-1.567-1.319-3.178-3.048-5.038-3.465c-3.739-0.839-10.45,3.429-11.614,6.806C500.422,235.835,502.22,240.846,507.756,244.74z
		 M644.989,224.988c-0.262,2.334-0.652,5.454-0.92,8.584c-0.046,0.541,0.305,1.25,0.695,1.674c4.584,4.97,9.212,9.9,14.284,15.33
		c0-5.029-0.108-10.162,0.053-15.287c0.066-2.121-0.792-2.765-2.625-3.639C652.54,229.773,648.89,227.297,644.989,224.988z
		 M585.546,287.462c6.918,1.104,8.789,0.187,11.73-5.103c0.945-1.701-0.98-8.287-2.823-8.773c-0.753-0.199-2.046,0.752-2.748,1.503
		c-0.763,0.814-1.147,1.993-1.654,3.033C588.574,281.154,587.118,284.197,585.546,287.462z"/>
	<path fill-rule="evenodd" clip-rule="evenodd" d="M456.138,458.634c-5.61-1.523-10.73-2.426-15.455-4.316
		c-6.354-2.541-9.783-7.648-9.741-14.635c0.043-6.999,3.897-12.042,9.806-14.85c10.401-4.945,21.051-4.444,30.908,1.581
		c10.592,6.473,10.491,21.037-0.359,27.32C466.778,456.35,461.165,457.075,456.138,458.634z M454.335,431.117
		c-5.717,0.727-8.697,1.947-11.201,5.214c-2.079,2.713-1.795,6.457,0.653,8.623c4.776,4.223,15.887,4.997,21.108,1.471
		c4.598-3.104,4.673-9.082-0.207-11.691C461.504,433.03,457.804,432.289,454.335,431.117z"/>
	<path fill-rule="evenodd" clip-rule="evenodd" d="M346.809,386.852c5.953,0.311,10.553,3.034,12.882,8.812
		c3.131,7.77,2.983,15.576-0.502,23.241c-2.707,5.956-6.706,8.36-13.271,8.09c-6.264-0.258-11.596-3.941-13.342-9.663
		c-2.206-7.231-2.041-14.497,1.084-21.45C336.128,390.392,340.275,386.969,346.809,386.852z"/>
	<path fill-rule="evenodd" clip-rule="evenodd" d="M573.307,403.416c-1.186,4.277-1.779,8.438-3.485,12.077
		c-2.314,4.935-6.364,8.488-12.213,8.171c-6.266-0.34-11.26-3.257-13.653-9.4c-3.068-7.879-2.446-15.697,1.202-23.22
		c2.427-5.006,6.668-7.499,12.235-7.483c5.507,0.016,10.089,2.25,12.345,7.305C571.483,394.782,572.148,399.182,573.307,403.416z"/>
</g>
<path fill-rule="evenodd" clip-rule="evenodd" fill="#E3BC3D" d="M454.335,431.117c3.469,1.172,7.169,1.913,10.354,3.616
	c4.88,2.609,4.805,8.587,0.207,11.691c-5.222,3.526-16.332,2.752-21.108-1.471c-2.448-2.166-2.732-5.91-0.653-8.623
	C445.638,433.064,448.618,431.844,454.335,431.117z"/>
</svg>
