<?xml version="1.0" encoding="iso-8859-1"?>
<!-- Uploaded to: SVG Repo, www.svgrepo.com, Generator: SVG Repo Mixer Tools -->
<svg height="800px" width="800px" version="1.1" id="Layer_1" xmlns="http://www.w3.org/2000/svg" xmlns:xlink="http://www.w3.org/1999/xlink" 
	 viewBox="0 0 512 512" xml:space="preserve">
<circle style="fill:#5B5D6E;" cx="208" cy="268.052" r="200.001"/>
<g>
	<path style="fill:#464655;" d="M146.323,329.727c-59.734-59.735-79.726-144.15-60.007-220.42
		c-6.858,5.271-13.457,11.04-19.738,17.321c-78.106,78.105-78.106,204.739,0,282.844s204.738,78.105,282.844,0
		c6.281-6.281,12.05-12.88,17.32-19.738C290.473,409.452,206.058,389.461,146.323,329.727z"/>
	<path style="fill:#464655;" d="M320,99.48L336.97,82.51c6.223-6.223,16.405-6.223,22.628,0l33.941,33.941
		c6.223,6.222,6.223,16.405,0,22.628l-16.971,16.971L320,99.48z"/>
</g>
<path d="M443.551,93.187c-2.179,2.178-5.133,3.338-8.348,3.298c-3.303-0.053-6.426-1.388-8.795-3.756l-3.609-3.609
	c-0.002-0.002-0.003-0.003-0.005-0.005l-3.878-3.878c-5.638-5.638-13.158-8.744-21.173-8.744s-15.535,3.106-21.173,8.744
	c-0.508,0.509-0.925,1.072-1.268,1.667l-10.048-10.048c-4.52-4.52-10.546-7.01-16.97-7.01c-6.423,0-12.449,2.49-16.97,7.01
	l-14.101,14.1C284.712,70.825,247.186,60.049,208,60.049c-55.559,0-107.792,21.636-147.078,60.923
	C21.636,160.257,0,212.491,0,268.05s21.636,107.792,60.922,147.078c40.549,40.549,93.813,60.823,147.078,60.823
	c53.263,0,106.529-20.274,147.078-60.823c39.286-39.286,60.921-91.519,60.921-147.078c0-39.187-10.776-76.712-30.905-109.214
	l14.102-14.101c9.356-9.357,9.356-24.582-0.001-33.939l-12.98-12.98c0.595-0.343,1.159-0.76,1.668-1.269
	c2.617-2.617,6.118-4.058,9.86-4.058c3.741,0,7.244,1.441,9.861,4.058l3.879,3.878c0.002,0.002,0.003,0.003,0.005,0.005l3.608,3.609
	c5.322,5.322,12.371,8.32,19.849,8.441c0.157,0.002,0.313,0.004,0.471,0.004c7.397,0,14.288-2.826,19.447-7.985
	c3.124-3.124,3.124-8.188,0-11.311C451.74,90.063,446.674,90.063,443.551,93.187z M343.765,403.816
	c-74.862,74.861-196.671,74.861-271.532,0C35.97,367.551,15.998,319.335,15.998,268.05c0-51.287,19.972-99.502,56.236-135.766
	C108.498,96.018,156.714,76.047,208,76.047s99.502,19.972,135.766,56.237s56.236,84.48,56.236,135.766
	C400.001,319.335,380.03,367.551,343.765,403.816z M387.884,133.422l-11.904,11.904c-6.282-8.56-13.252-16.707-20.902-24.355
	c-7.649-7.65-15.796-14.62-24.355-20.902l11.904-11.904c1.499-1.499,3.508-2.324,5.658-2.324s4.159,0.825,5.658,2.324l33.941,33.941
	C391.004,125.226,391.004,130.303,387.884,133.422z M440.001,68.049V44.048c0-4.417,3.581-7.999,7.999-7.999
	s7.999,3.581,7.999,7.999v24.001c0,4.418-3.581,7.999-7.999,7.999S440.001,72.467,440.001,68.049z M474.345,81.705
	c-3.125-3.124-3.125-8.188,0-11.311l16-16.001c3.124-3.124,8.189-3.124,11.312,0c3.125,3.124,3.125,8.189,0,11.312l-16,16
	c-1.562,1.562-3.608,2.343-5.656,2.343C477.954,84.047,475.907,83.266,474.345,81.705z M512,108.049
	c0,4.417-3.581,7.999-7.999,7.999h-24.001c-4.417,0-7.999-3.581-7.999-7.999c0-4.418,3.581-7.999,7.999-7.999h24
	C508.419,100.05,512,103.632,512,108.049z M332.45,143.599c7.371,7.371,14.107,15.406,20.021,23.883
	c2.528,3.622,1.641,8.609-1.983,11.136c-1.394,0.973-2.99,1.44-4.57,1.44c-2.526,0-5.011-1.193-6.566-3.423
	c-5.378-7.707-11.505-15.017-18.213-21.725c-13.05-13.05-28.04-23.639-44.553-31.469c-3.991-1.894-5.693-6.664-3.8-10.654
	c1.894-3.992,6.663-5.693,10.654-3.8C301.611,117.604,318.101,129.25,332.45,143.599z M263.688,109.303
	c-1.033,3.474-4.215,5.722-7.664,5.722c-0.755,0-1.522-0.107-2.283-0.334c-9.916-2.948-20.176-4.939-30.498-5.921
	c-4.397-0.418-7.624-4.322-7.206-8.72s4.318-7.631,8.72-7.206c11.35,1.079,22.636,3.271,33.541,6.512
	C262.534,100.615,264.946,105.068,263.688,109.303z"/>
</svg>