<?xml version="1.0" encoding="UTF-8" standalone="no"?>
        <svg 
    viewBox="7.03125 -76.11328125 142.70833333333331 60.17578125"
    width="135.67708333333331"
    height="136.2890625"
   xmlns="http://www.w3.org/2000/svg"
   xmlns:svg="http://www.w3.org/2000/svg">
   <path d="M24.90-84.67L24.90-84.67Q25.49-75.29 23.73-66.80L23.73-66.80Q15.23-66.80 7.91-65.04L7.91-65.04Q7.62-62.99 7.03-60.94L7.03-60.94Q14.94-58.59 24.90-60.64L24.90-60.64Q25.49-53.61 28.13-47.46L28.13-47.46Q32.52-43.36 37.21-38.67L37.21-38.67Q42.19-38.67 46.58-36.04L46.58-36.04Q46.58-23.44 42.77-12.89L42.77-12.89Q42.48-10.84 44.82-9.38L44.82-9.38Q48.63-9.08 50.39-12.60L50.39-12.60Q50.68-23.44 51.27-34.57L51.27-34.57Q59.47-41.31 62.11-50.68L62.11-50.68Q57.13-47.75 52.73-43.07L52.73-43.07Q49.80-53.32 51.27-63.57L51.27-63.57Q59.77-67.68 68.85-71.48L68.85-71.48Q70.31-74.71 68.26-77.05L68.26-77.05Q60.06-72.66 50.68-71.19L50.68-71.19Q51.27-78.81 47.75-84.67L47.75-84.67Q45.70-83.79 44.53-82.32L44.53-82.32Q45.12-75.59 43.95-69.73L43.95-69.73Q37.21-69.14 30.76-68.26L30.76-68.26Q29.59-76.76 29.00-85.25L29.00-85.25Q26.66-87.60 24.90-84.67ZM44.82-64.45L44.82-64.45Q48.63-53.91 44.82-42.77L44.82-42.77Q41.31-43.95 38.09-45.12L38.09-45.12Q31.35-51.56 29.88-60.35L29.88-60.35Q36.04-64.16 44.82-64.45ZM106.35-106.05L106.35-106.05Q108.11-97.56 113.09-90.23L113.09-90.23Q115.43-90.23 116.89-92.87L116.89-92.87Q112.79-99.61 111.91-106.05L111.91-106.05Q108.69-109.28 106.35-106.05ZM129.49-109.86L129.49-109.86Q125.39-96.68 118.65-84.38L118.65-84.38Q113.09-79.10 109.28-72.95L109.28-72.95Q97.27-72.07 85.84-70.61L85.84-70.61Q83.50-66.80 87.60-63.87L87.60-63.87Q93.75-65.04 100.49-65.63L100.49-65.63Q100.78-57.13 99.32-50.10L99.32-50.10Q89.36-48.05 80.57-49.22L80.57-49.22Q79.69-45.70 82.62-41.89L82.62-41.89Q90.23-42.77 98.44-43.95L98.44-43.95Q99.61-41.31 99.32-37.50L99.32-37.50Q94.34-24.61 91.70-11.43L91.70-11.43Q92.58-10.25 94.34-9.08L94.34-9.08Q100.20-13.48 106.64-15.82L106.64-15.82Q111.33-14.94 114.84-10.84L114.84-10.84Q111.04-0.88 103.42 7.03L103.42 7.03Q104.59 8.20 107.23 7.91L107.23 7.91Q114.55 1.17 119.82-6.15L119.82-6.15Q129.20 0.88 140.63 4.98L140.63 4.98Q142.97 3.52 142.68 0.59L142.68 0.59Q131.54-4.39 123.34-12.89L123.34-12.89Q127.15-19.34 130.37-24.90L130.37-24.90Q129.79-27.54 129.79-30.18L129.79-30.18Q128.03-31.93 125.98-31.35L125.98-31.35Q112.21-24.02 98.73-17.58L98.73-17.58Q101.37-29.88 104.59-42.77L104.59-42.77Q116.31-48.63 130.08-52.15L130.08-52.15Q132.13-54.20 132.42-56.54L132.42-56.54Q119.82-53.32 106.05-51.86L106.05-51.86Q104.00-56.84 104.88-62.11L104.88-62.11Q106.35-64.75 108.40-66.80L108.40-66.80Q115.43-69.14 123.93-68.55L123.93-68.55Q124.80-70.02 125.39-71.48L125.39-71.48Q120.70-74.41 114.84-74.71L114.84-74.71Q117.77-78.81 121.88-81.74L121.88-81.74Q130.66-95.51 135.06-109.86L135.06-109.86Q134.18-111.33 133.59-111.91L133.59-111.91Q130.96-112.50 129.49-109.86ZM122.46-22.85L122.46-22.85Q121.58-19.63 119.24-16.11L119.24-16.11Q116.02-16.99 116.02-19.92L116.02-19.92Q118.36-23.14 122.46-22.85ZM112.50-120.41L112.50-120.41Q90.53-119.53 73.54-115.14L73.54-115.14Q75.88-113.67 78.52-111.33L78.52-111.33Q83.50-111.91 89.65-112.21L89.65-112.21Q87.30-106.05 88.48-99.32L88.48-99.32Q92.29-92.87 94.34-85.25L94.34-85.25Q96.09-84.96 98.14-84.96L98.14-84.96Q95.51-97.27 92.58-111.62L92.58-111.62Q109.57-114.26 125.10-119.24L125.10-119.24Q127.15-121.00 128.91-122.46L128.91-122.46Q129.49-126.27 127.44-128.32L127.44-128.32Q120.12-123.93 112.50-120.41Z"/>
    </svg>
        