<?xml version="1.0" encoding="UTF-8" standalone="no"?>
        <svg 
    viewBox="9.375 -71.79066051136364 140.06347656250003 60.44477982954545"
    width="130.68847656250003"
    height="132.2354403409091"
   xmlns="http://www.w3.org/2000/svg"
   xmlns:svg="http://www.w3.org/2000/svg">
   <path d="M58.59-24.90L58.59-24.90Q59.18-16.99 61.82-9.38L61.82-9.38Q65.33-7.91 66.80-10.84L66.80-10.84Q65.92-25.78 61.82-38.67L61.82-38.67Q58.30-32.81 58.59-24.90ZM30.18-39.26L30.18-39.26Q18.46-25.49 9.38-11.13L9.38-11.13Q12.01-10.25 15.23-10.84L15.23-10.84Q19.04-17.58 25.49-21.97L25.49-21.97Q28.71-7.91 30.47 5.57L30.47 5.57Q34.57 6.15 36.04 3.52L36.04 3.52Q35.16-14.36 29.30-29.59L29.30-29.59Q36.91-37.79 44.53-45.12L44.53-45.12Q46.88-50.10 47.17-56.25L47.17-56.25Q38.67-48.05 30.18-39.26ZM88.77-65.33L88.77-65.33Q87.89-58.59 87.30-51.86L87.30-51.86Q88.18-47.17 91.70-43.65L91.70-43.65Q106.35-44.82 118.95-45.12L118.95-45.12Q115.43-34.86 110.16-25.49L110.16-25.49Q104.88-29.88 100.20-34.86L100.20-34.86Q97.56-36.33 94.63-36.04L94.63-36.04Q92.58-34.86 91.99-32.81L91.99-32.81Q100.20-26.95 107.81-19.04L107.81-19.04Q107.23-12.30 103.42-7.03L103.42-7.03L99.61-7.03Q98.14-4.39 101.07-2.05L101.07-2.05L106.64-2.05Q110.45-7.91 113.38-12.89L113.38-12.89Q121.88-5.27 132.71 3.22L132.71 3.22Q135.35 4.39 138.87 4.39L138.87 4.39Q140.92 0.88 139.45-2.64L139.45-2.64Q133.30-6.15 127.15-9.67L127.15-9.67Q120.41-14.65 115.72-21.09L115.72-21.09Q119.82-34.57 125.10-47.17L125.10-47.17Q130.37-51.86 138.28-53.91L138.28-53.91Q138.57-56.84 137.70-58.89L137.70-58.89Q120.12-52.73 102.25-49.80L102.25-49.80Q99.32-50.39 96.39-50.98L96.39-50.98Q93.16-59.18 91.99-67.38L91.99-67.38Q89.65-67.09 88.77-65.33ZM15.82-110.16L15.82-110.16Q16.99-96.68 16.70-82.91L16.70-82.91Q15.53-82.62 14.65-81.45L14.65-81.45Q14.94-76.46 19.63-75.59L19.63-75.59Q22.27-79.69 23.44-84.08L23.44-84.08Q22.85-93.16 23.73-98.73L23.73-98.73Q30.18-98.44 37.21-100.78L37.21-100.78Q43.36-89.06 51.27-79.69L51.27-79.69Q53.91-79.69 54.79-82.62L54.79-82.62Q51.27-93.46 43.95-100.49L43.95-100.49Q47.75-105.18 52.44-109.57L52.44-109.57Q50.68-111.62 47.75-111.33L47.75-111.33Q36.04-106.05 23.14-106.05L23.14-106.05Q20.21-109.28 22.27-113.09L22.27-113.09Q21.09-115.72 18.75-115.43L18.75-115.43Q17.58-113.09 15.82-110.16ZM74.41-113.38L74.41-113.38Q77.64-98.14 79.69-81.74L79.69-81.74Q82.32-82.62 84.38-85.25L84.38-85.25Q83.20-93.75 83.20-102.54L83.20-102.54Q87.60-106.05 93.75-105.76L93.75-105.76Q94.63-101.95 96.97-98.14L96.97-98.14Q105.47-92.87 114.26-88.18L114.26-88.18Q115.43-89.36 117.77-88.77L117.77-88.77Q118.65-90.23 118.65-92.58L118.65-92.58Q109.57-98.14 100.78-105.47L100.78-105.47Q104.30-108.98 109.28-110.45L109.28-110.45Q111.33-113.38 108.98-115.43L108.98-115.43Q95.80-112.50 82.03-111.33L82.03-111.33Q79.39-117.48 79.69-123.63L79.69-123.63Q78.22-126.27 75.59-126.56L75.59-126.56Q73.24-121.00 74.41-113.38Z"/>
    </svg>
        