<?xml version="1.0" encoding="UTF-8" standalone="no"?>
        <svg 
    viewBox="7.478412828947368 -76.11328125 442.70833333333326 60.17578125"
    width="435.2299205043859"
    height="136.2890625"
   xmlns="http://www.w3.org/2000/svg"
   xmlns:svg="http://www.w3.org/2000/svg">
   <path d="M11.43-94.92L11.43-94.92Q6.74-93.75 7.62-90.23L7.62-90.23Q10.84-90.53 13.48-87.89L13.48-87.89Q22.27-89.06 31.35-89.36L31.35-89.36Q31.05-82.91 28.42-76.17L28.42-76.17Q31.35-60.64 35.16-43.65L35.16-43.65Q33.40-42.19 31.64-41.60L31.64-41.60Q29.30-42.19 27.25-43.36L27.25-43.36Q25.49-57.71 21.39-65.63L21.39-65.63Q19.63-62.40 18.16-58.30L18.16-58.30Q22.27-34.57 24.02-10.84L24.02-10.84Q26.66-9.67 28.71-7.91L28.71-7.91Q32.23-11.13 30.76-13.18L30.76-13.18Q28.71-22.56 27.54-33.69L27.54-33.69Q31.35-36.91 37.21-37.21L37.21-37.21Q38.96-39.55 40.43-41.89L40.43-41.89Q40.72-47.46 39.84-52.44L39.84-52.44Q34.86-61.82 33.11-72.66L33.11-72.66Q34.86-82.32 38.96-90.53L38.96-90.53Q37.79-92.58 37.21-94.63L37.21-94.63Q24.02-94.92 11.43-94.92ZM96.97-112.21L96.97-112.21Q84.08-111.91 71.48-113.38L71.48-113.38Q68.26-112.79 67.09-110.45L67.09-110.45Q68.26-107.52 71.48-105.76L71.48-105.76Q84.96-107.23 99.02-106.93L99.02-106.93Q101.95-97.85 102.25-87.60L102.25-87.60Q93.16-84.08 82.32-81.45L82.32-81.45Q82.32-84.38 79.98-85.84L79.98-85.84Q78.22-85.84 77.34-84.38L77.34-84.38Q78.22-63.57 84.08-44.24L84.08-44.24Q86.43-41.60 89.94-39.26L89.94-39.26Q98.14-39.55 106.35-40.43L106.35-40.43Q107.81-33.40 106.93-25.20L106.93-25.20Q104.59-26.07 102.83-24.90L102.83-24.90Q91.99-13.77 81.74-2.05L81.74-2.05Q84.96-1.76 88.18-2.64L88.18-2.64Q96.97-12.89 108.11-20.51L108.11-20.51Q110.45-9.38 110.45 0.88L110.45 0.88Q106.64 1.17 105.47 3.81L105.47 3.81Q106.93 6.45 109.86 7.91L109.86 7.91Q114.26 6.45 115.43 2.05L115.43 2.05Q116.31-9.67 113.38-21.09L113.38-21.09Q127.44-18.16 140.33-10.84L140.33-10.84Q143.26-12.89 142.97-16.70L142.97-16.70Q126.56-22.27 111.62-30.18L111.62-30.18Q111.62-35.16 111.04-40.14L111.04-40.14Q115.43-44.82 121.88-47.75L121.88-47.75Q122.17-42.48 117.77-38.38L117.77-38.38Q121.58-37.50 124.80-40.43L124.80-40.43Q128.32-46.88 131.54-53.91L131.54-53.91Q133.30-60.94 133.01-68.55L133.01-68.55Q130.08-70.31 130.37-74.12L130.37-74.12Q124.51-81.15 117.48-84.96L117.48-84.96Q112.50-85.55 108.11-85.84L108.11-85.84Q105.18-95.51 105.18-106.05L105.18-106.05Q114.26-110.16 125.68-109.28L125.68-109.28Q128.03-112.21 126.56-114.84L126.56-114.84Q116.60-113.67 106.05-112.50L106.05-112.50Q101.37-118.07 101.95-126.86L101.95-126.86Q100.20-127.73 99.02-128.32L99.02-128.32Q96.68-120.70 96.97-112.21ZM110.45-80.86L110.45-80.86Q115.72-79.98 120.41-77.93L120.41-77.93Q124.51-72.95 127.44-66.80L127.44-66.80Q127.73-62.99 127.73-58.59L127.73-58.59Q121.58-50.39 111.04-48.05L111.04-48.05Q110.45-52.44 110.74-57.13L110.74-57.13Q111.91-58.89 113.67-60.35L113.67-60.35Q116.60-59.18 120.41-59.18L120.41-59.18Q120.70-62.70 117.19-63.87L117.19-63.87Q112.50-63.57 109.28-65.33L109.28-65.33Q108.11-74.12 110.45-80.86ZM102.83-81.74L102.83-81.74Q106.05-73.24 104.00-64.45L104.00-64.45Q97.27-64.16 91.41-62.70L91.41-62.70Q90.53-60.94 90.53-58.59L90.53-58.59Q98.14-58.30 106.35-59.18L106.35-59.18Q106.35-52.44 105.47-45.41L105.47-45.41Q98.44-44.24 91.11-44.24L91.11-44.24Q87.01-53.91 84.38-63.57L84.38-63.57Q84.67-69.14 84.96-74.71L84.96-74.71Q92.58-80.27 102.83-81.74ZM208.59-24.90L208.59-24.90Q209.18-16.99 211.82-9.38L211.82-9.38Q215.33-7.91 216.80-10.84L216.80-10.84Q215.92-25.78 211.82-38.67L211.82-38.67Q208.30-32.81 208.59-24.90ZM180.18-39.26L180.18-39.26Q168.46-25.49 159.38-11.13L159.38-11.13Q162.01-10.25 165.23-10.84L165.23-10.84Q169.04-17.58 175.49-21.97L175.49-21.97Q178.71-7.91 180.47 5.57L180.47 5.57Q184.57 6.15 186.04 3.52L186.04 3.52Q185.16-14.36 179.30-29.59L179.30-29.59Q186.91-37.79 194.53-45.12L194.53-45.12Q196.88-50.10 197.17-56.25L197.17-56.25Q188.67-48.05 180.18-39.26ZM238.77-65.33L238.77-65.33Q237.89-58.59 237.30-51.86L237.30-51.86Q238.18-47.17 241.70-43.65L241.70-43.65Q256.35-44.82 268.95-45.12L268.95-45.12Q265.43-34.86 260.16-25.49L260.16-25.49Q254.88-29.88 250.20-34.86L250.20-34.86Q247.56-36.33 244.63-36.04L244.63-36.04Q242.58-34.86 241.99-32.81L241.99-32.81Q250.20-26.95 257.81-19.04L257.81-19.04Q257.23-12.30 253.42-7.03L253.42-7.03L249.61-7.03Q248.14-4.39 251.07-2.05L251.07-2.05L256.64-2.05Q260.45-7.91 263.38-12.89L263.38-12.89Q271.88-5.27 282.71 3.22L282.71 3.22Q285.35 4.39 288.87 4.39L288.87 4.39Q290.92 0.88 289.45-2.64L289.45-2.64Q283.30-6.15 277.15-9.67L277.15-9.67Q270.41-14.65 265.72-21.09L265.72-21.09Q269.82-34.57 275.10-47.17L275.10-47.17Q280.37-51.86 288.28-53.91L288.28-53.91Q288.57-56.84 287.70-58.89L287.70-58.89Q270.12-52.73 252.25-49.80L252.25-49.80Q249.32-50.39 246.39-50.98L246.39-50.98Q243.16-59.18 241.99-67.38L241.99-67.38Q239.65-67.09 238.77-65.33ZM165.82-110.16L165.82-110.16Q166.99-96.68 166.70-82.91L166.70-82.91Q165.53-82.62 164.65-81.45L164.65-81.45Q164.94-76.46 169.63-75.59L169.63-75.59Q172.27-79.69 173.44-84.08L173.44-84.08Q172.85-93.16 173.73-98.73L173.73-98.73Q180.18-98.44 187.21-100.78L187.21-100.78Q193.36-89.06 201.27-79.69L201.27-79.69Q203.91-79.69 204.79-82.62L204.79-82.62Q201.27-93.46 193.95-100.49L193.95-100.49Q197.75-105.18 202.44-109.57L202.44-109.57Q200.68-111.62 197.75-111.33L197.75-111.33Q186.04-106.05 173.14-106.05L173.14-106.05Q170.21-109.28 172.27-113.09L172.27-113.09Q171.09-115.72 168.75-115.43L168.75-115.43Q167.58-113.09 165.82-110.16ZM224.41-113.38L224.41-113.38Q227.64-98.14 229.69-81.74L229.69-81.74Q232.32-82.62 234.38-85.25L234.38-85.25Q233.20-93.75 233.20-102.54L233.20-102.54Q237.60-106.05 243.75-105.76L243.75-105.76Q244.63-101.95 246.97-98.14L246.97-98.14Q255.47-92.87 264.26-88.18L264.26-88.18Q265.43-89.36 267.77-88.77L267.77-88.77Q268.65-90.23 268.65-92.58L268.65-92.58Q259.57-98.14 250.78-105.47L250.78-105.47Q254.30-108.98 259.28-110.45L259.28-110.45Q261.33-113.38 258.98-115.43L258.98-115.43Q245.80-112.50 232.03-111.33L232.03-111.33Q229.39-117.48 229.69-123.63L229.69-123.63Q228.22-126.27 225.59-126.56L225.59-126.56Q223.24-121.00 224.41-113.38ZM324.90-84.67L324.90-84.67Q325.49-75.29 323.73-66.80L323.73-66.80Q315.23-66.80 307.91-65.04L307.91-65.04Q307.62-62.99 307.03-60.94L307.03-60.94Q314.94-58.59 324.90-60.64L324.90-60.64Q325.49-53.61 328.13-47.46L328.13-47.46Q332.52-43.36 337.21-38.67L337.21-38.67Q342.19-38.67 346.58-36.04L346.58-36.04Q346.58-23.44 342.77-12.89L342.77-12.89Q342.48-10.84 344.82-9.38L344.82-9.38Q348.63-9.08 350.39-12.60L350.39-12.60Q350.68-23.44 351.27-34.57L351.27-34.57Q359.47-41.31 362.11-50.68L362.11-50.68Q357.13-47.75 352.73-43.07L352.73-43.07Q349.80-53.32 351.27-63.57L351.27-63.57Q359.77-67.68 368.85-71.48L368.85-71.48Q370.31-74.71 368.26-77.05L368.26-77.05Q360.06-72.66 350.68-71.19L350.68-71.19Q351.27-78.81 347.75-84.67L347.75-84.67Q345.70-83.79 344.53-82.32L344.53-82.32Q345.12-75.59 343.95-69.73L343.95-69.73Q337.21-69.14 330.76-68.26L330.76-68.26Q329.59-76.76 329.00-85.25L329.00-85.25Q326.66-87.60 324.90-84.67ZM344.82-64.45L344.82-64.45Q348.63-53.91 344.82-42.77L344.82-42.77Q341.31-43.95 338.09-45.12L338.09-45.12Q331.35-51.56 329.88-60.35L329.88-60.35Q336.04-64.16 344.82-64.45ZM406.35-106.05L406.35-106.05Q408.11-97.56 413.09-90.23L413.09-90.23Q415.43-90.23 416.89-92.87L416.89-92.87Q412.79-99.61 411.91-106.05L411.91-106.05Q408.69-109.28 406.35-106.05ZM429.49-109.86L429.49-109.86Q425.39-96.68 418.65-84.38L418.65-84.38Q413.09-79.10 409.28-72.95L409.28-72.95Q397.27-72.07 385.84-70.61L385.84-70.61Q383.50-66.80 387.60-63.87L387.60-63.87Q393.75-65.04 400.49-65.63L400.49-65.63Q400.78-57.13 399.32-50.10L399.32-50.10Q389.36-48.05 380.57-49.22L380.57-49.22Q379.69-45.70 382.62-41.89L382.62-41.89Q390.23-42.77 398.44-43.95L398.44-43.95Q399.61-41.31 399.32-37.50L399.32-37.50Q394.34-24.61 391.70-11.43L391.70-11.43Q392.58-10.25 394.34-9.08L394.34-9.08Q400.20-13.48 406.64-15.82L406.64-15.82Q411.33-14.94 414.84-10.84L414.84-10.84Q411.04-0.88 403.42 7.03L403.42 7.03Q404.59 8.20 407.23 7.91L407.23 7.91Q414.55 1.17 419.82-6.15L419.82-6.15Q429.20 0.88 440.63 4.98L440.63 4.98Q442.97 3.52 442.68 0.59L442.68 0.59Q431.54-4.39 423.34-12.89L423.34-12.89Q427.15-19.34 430.37-24.90L430.37-24.90Q429.79-27.54 429.79-30.18L429.79-30.18Q428.03-31.93 425.98-31.35L425.98-31.35Q412.21-24.02 398.73-17.58L398.73-17.58Q401.37-29.88 404.59-42.77L404.59-42.77Q416.31-48.63 430.08-52.15L430.08-52.15Q432.13-54.20 432.42-56.54L432.42-56.54Q419.82-53.32 406.05-51.86L406.05-51.86Q404.00-56.84 404.88-62.11L404.88-62.11Q406.35-64.75 408.40-66.80L408.40-66.80Q415.43-69.14 423.93-68.55L423.93-68.55Q424.80-70.02 425.39-71.48L425.39-71.48Q420.70-74.41 414.84-74.71L414.84-74.71Q417.77-78.81 421.88-81.74L421.88-81.74Q430.66-95.51 435.06-109.86L435.06-109.86Q434.18-111.33 433.59-111.91L433.59-111.91Q430.96-112.50 429.49-109.86ZM422.46-22.85L422.46-22.85Q421.58-19.63 419.24-16.11L419.24-16.11Q416.02-16.99 416.02-19.92L416.02-19.92Q418.36-23.14 422.46-22.85ZM412.50-120.41L412.50-120.41Q390.53-119.53 373.54-115.14L373.54-115.14Q375.88-113.67 378.52-111.33L378.52-111.33Q383.50-111.91 389.65-112.21L389.65-112.21Q387.30-106.05 388.48-99.32L388.48-99.32Q392.29-92.87 394.34-85.25L394.34-85.25Q396.09-84.96 398.14-84.96L398.14-84.96Q395.51-97.27 392.58-111.62L392.58-111.62Q409.57-114.26 425.10-119.24L425.10-119.24Q427.15-121.00 428.91-122.46L428.91-122.46Q429.49-126.27 427.44-128.32L427.44-128.32Q420.12-123.93 412.50-120.41Z"/>
    </svg>
        