<?xml version="1.0" encoding="UTF-8" standalone="no"?>
<svg
   version="1.1"
   id="svg1"
   width="283"
   height="282.80124"
   xmlns="http://www.w3.org/2000/svg"
   xmlns:svg="http://www.w3.org/2000/svg">
  <defs
     id="defs1" />
  <path
     id="SVG-base"
     d="m 0,141.30123 h 283 v 100 c 0,23.5 -18,41.5 -41.5,41.5 h -200 c -23.5,0 -41.5,-18 -41.5,-41.5 z" />
  <path
     fill="#ffb13b"
     stroke="#000000"
     stroke-width="38.0086"
     d="m 257.352,125.45023 c -8.755,-8.755 -22.948,-8.755 -31.703,0 h -45.88 l 32.442,-32.442 c 12.381,0 22.417,-10.037 22.417,-22.417 0,-12.381 -10.036,-22.417 -22.417,-22.417 -12.381,0 -22.418,10.037 -22.418,22.417 l -32.441,32.441 v -45.88 c 8.754,-8.754 8.754,-22.948 0,-31.702 -8.755,-8.754 -22.948,-8.754 -31.703,0 -8.755,8.754 -8.754,22.948 0,31.702 v 45.88 l -32.442,-32.441 c 0,-12.381 -10.037,-22.417 -22.417,-22.417 -12.381,0 -22.417,10.037 -22.417,22.417 0,12.38 10.037,22.417 22.417,22.417 l 32.442,32.442 h -45.88 c -8.754,-8.755 -22.948,-8.755 -31.702,0 -8.754,8.754 -8.754,22.948 0,31.703 8.754,8.754 22.948,8.754 31.702,0 h 45.88 l -32.442,32.441 c -12.381,0 -22.417,10.037 -22.417,22.418 0,12.381 10.037,22.417 22.417,22.417 12.38,0 22.417,-10.036 22.417,-22.417 l 32.442,-32.442 v 45.88 c -8.754,8.755 -8.754,22.948 0,31.703 8.754,8.754 22.948,8.754 31.703,0 8.754,-8.755 8.754,-22.948 0,-31.703 v -45.879 l 32.441,32.441 c 0,12.381 10.037,22.417 22.418,22.417 12.381,0 22.417,-10.036 22.417,-22.417 0,-12.381 -10.036,-22.418 -22.417,-22.418 l -32.441,-32.441 h 45.879 c 8.755,8.754 22.948,8.754 31.703,0 8.753,-8.755 8.753,-22.949 0,-31.703 z"
     id="path1" />
  <path
     id="SVG-bar"
     fill="#ffb13b"
     d="m 257.352,125.45023 c -8.755,-8.755 -22.948,-8.755 -31.703,0 h -45.88 l 32.442,-32.442 c 12.381,0 22.417,-10.037 22.417,-22.417 0,-12.381 -10.036,-22.417 -22.417,-22.417 -12.381,0 -22.418,10.037 -22.418,22.417 l -32.441,32.441 v -45.88 c 8.754,-8.754 8.754,-22.948 0,-31.702 -8.755,-8.754 -22.948,-8.754 -31.703,0 -8.755,8.754 -8.754,22.948 0,31.702 v 45.88 l -32.442,-32.441 c 0,-12.381 -10.037,-22.417 -22.417,-22.417 -12.381,0 -22.417,10.037 -22.417,22.417 0,12.38 10.037,22.417 22.417,22.417 l 32.442,32.442 h -45.88 c -8.754,-8.755 -22.948,-8.755 -31.702,0 -8.754,8.754 -8.754,22.948 0,31.703 8.754,8.754 22.948,8.754 31.702,0 h 45.88 l -32.442,32.441 c -12.381,0 -22.417,10.037 -22.417,22.418 0,12.381 10.037,22.417 22.417,22.417 12.38,0 22.417,-10.036 22.417,-22.417 l 32.442,-32.442 v 45.88 c -8.754,8.755 -8.754,22.948 0,31.703 8.754,8.754 22.948,8.754 31.703,0 8.754,-8.755 8.754,-22.948 0,-31.703 v -45.879 l 32.441,32.441 c 0,12.381 10.037,22.417 22.418,22.417 12.381,0 22.417,-10.036 22.417,-22.417 0,-12.381 -10.036,-22.418 -22.417,-22.418 l -32.441,-32.441 h 45.879 c 8.755,8.754 22.948,8.754 31.703,0 8.753,-8.755 8.753,-22.949 0,-31.703 z" />
  <path
     id="SVG-base_1_"
     d="m 0,141.30123 h 283 v 100 c 0,23.5 -18,41.5 -41.5,41.5 h -200 c -23.5,0 -41.5,-18 -41.5,-41.5 z" />
  <path
     id="SVG-S"
     fill="#ffffff"
     d="m 42.464,211.94023 c -6.638,-6.637 -10.746,-15.801 -10.746,-25.923 0,-20.252 16.426,-36.668 36.668,-36.668 20.252,0 36.678,16.416 36.678,36.668 h -21.48 c 0,-8.388 -6.808,-15.187 -15.198,-15.187 -8.388,0 -15.186,6.799 -15.186,15.187 0,4.19 1.702,7.986 4.44,10.726 h 0.01 c 2.75,2.761 5.04,3.559 10.736,4.463 v 0 c 10.132,1.054 19.296,4.107 25.932,10.744 v 0 c 6.638,6.638 10.746,15.802 10.746,25.924 0,20.252 -16.426,36.678 -36.678,36.678 -20.242,0 -36.668,-16.426 -36.668,-36.678 H 53.2 c 0,8.388 6.798,15.195 15.186,15.195 8.39,0 15.198,-6.808 15.198,-15.195 0,-4.19 -1.702,-7.977 -4.442,-10.727 h -0.01 c -2.75,-2.75 -6.696,-3.697 -10.746,-4.451 v -0.01 c -9.82,-1.507 -19.286,-4.11 -25.922,-10.746 z" />
  <path
     id="SVG-V"
     fill="#ffffff"
     d="m 178.404,149.34923 -25.94,125.202 h -21.48 l -25.92,-125.202 h 21.48 l 15.2,73.326 15.18,-73.326 z" />
  <path
     id="SVG-G"
     fill="#ffffff"
     d="m 215.084,201.20523 h 36.668 v 36.668 h 0.01 c 0,20.254 -16.426,36.68 -36.678,36.68 -20.254,0 -36.668,-16.426 -36.668,-36.68 v 0 -51.854 h -0.01 c 0,-20.253 16.424,-36.669 36.678,-36.669 20.242,0 36.668,16.416 36.668,36.669 H 230.27 c 0,-8.381 -6.808,-15.189 -15.186,-15.189 -8.391,0 -15.188,6.809 -15.188,15.189 v 51.854 0 c 0,8.39 6.797,15.188 15.188,15.188 8.378,0 15.176,-6.798 15.186,-15.178 v -0.01 -15.176 h -15.186 z" />
</svg>
