<?xml version="1.0" encoding="UTF-8" standalone="no"?>
        <svg 
    viewBox="3.8818359375 -85.693359375 449.853515625 56.8359375"
    width="445.9716796875"
    height="142.529296875"
   xmlns="http://www.w3.org/2000/svg"
   xmlns:svg="http://www.w3.org/2000/svg">
   <path d="M49.51-44.38L48.27-48.63L77.42-48.63L86.87-60.28Q86.87-60.28 89.83-58.08Q92.80-55.88 96.86-52.73Q100.93-49.58 104.22-46.80L104.22-46.80Q103.56-44.38 100.05-44.38L100.05-44.38L49.51-44.38ZM93.46-20.87L94.48-21.90Q107.96-21.61 116.46-18.68Q124.95-15.75 129.27-11.46Q133.59-7.18 134.44-2.71Q135.28 1.76 133.41 5.20Q131.54 8.64 127.62 9.89Q123.71 11.13 118.51 8.86L118.51 8.86Q115.87 3.59 111.66-1.87Q107.45-7.32 102.61-12.23Q97.78-17.14 93.46-20.87L93.46-20.87ZM78.74-97.92L80.57-99.02Q84.01-89.58 90.09-82.58Q96.17-75.59 103.93-70.53L103.93-70.53Q107.08-78.15 108.91-85.03L108.91-85.03L91.33-85.03L90.01-89.28L108.18-89.28L118.65-99.76L136.82-82.76Q135.28-81.08 130.81-80.71L130.81-80.71Q126.86-77.34 121.33-73.65Q115.80-69.95 109.94-67.02L109.94-67.02Q118.14-62.77 127.33-59.95Q136.52-57.13 146.12-55.22L146.12-55.22L145.97-53.54Q139.89-52.08 135.79-47.42Q131.69-42.77 129.79-35.52L129.79-35.52Q116.60-41.16 106.57-49.07Q96.53-56.98 89.58-68.81Q82.62-80.64 78.74-97.92L78.74-97.92ZM23.58-27.17L22.34-31.35L99.90-31.35L109.35-42.63Q109.35-42.63 112.32-40.47Q115.28-38.31 119.38-35.27Q123.49-32.23 126.78-29.52L126.78-29.52Q126.34-27.17 122.68-27.17L122.68-27.17L85.62-27.17L85.62-8.42Q85.62-1.83 84.01 3.04Q82.40 7.91 77.31 10.77Q72.22 13.62 61.82 14.43L61.82 14.43Q61.60 9.81 61.16 6.41Q60.72 3.00 59.40 0.88L59.40 0.88Q58.30-1.10 56.18-2.71Q54.05-4.32 49.37-5.27L49.37-5.27L49.37-7.03Q49.37-7.03 52.00-6.88Q54.64-6.74 57.71-6.59Q60.79-6.45 62.11-6.45L62.11-6.45Q64.67-6.45 64.67-8.72L64.67-8.72L64.67-27.17L38.53-27.17L60.28-14.87Q59.77-13.70 58.48-13.15Q57.20-12.60 54.57-13.04L54.57-13.04Q46.58-5.42 34.13 1.03Q21.68 7.47 7.18 10.47L7.18 10.47L6.15 8.86Q13.18 4.25 19.45-1.90Q25.71-8.06 30.51-14.65Q35.30-21.24 38.09-27.17L38.09-27.17L23.58-27.17ZM37.21-55.81L37.21-55.81Q38.75-57.57 40.28-59.40Q41.82-61.23 43.21-62.99L43.21-62.99Q41.16-62.99 38.67-64.38L38.67-64.38Q38.01-66.72 36.58-69.36Q35.16-72.00 33.47-74.12L33.47-74.12Q31.20-72.29 28.82-70.53Q26.44-68.77 23.88-67.24L23.88-67.24Q31.86-65.77 34.75-62.37Q37.65-58.96 37.21-55.81ZM5.13-107.37L4.03-111.62L41.38-111.62L41.38-128.10L67.24-125.98Q67.09-124.44 66.06-123.41Q65.04-122.39 62.11-121.95L62.11-121.95L62.11-111.62L86.57-111.62L86.57-128.10L112.94-125.98Q112.72-124.44 111.66-123.41Q110.60-122.39 107.52-121.95L107.52-121.95L107.52-111.62L119.53-111.62L128.98-124.07Q128.98-124.07 131.95-121.73Q134.91-119.38 138.90-116.05Q142.90-112.72 145.97-109.79L145.97-109.79Q145.31-107.37 141.72-107.37L141.72-107.37L107.52-107.37L107.52-99.90Q107.52-98.66 102.43-97.34Q97.34-96.02 90.01-96.02L90.01-96.02L86.57-96.02L86.57-107.37L62.11-107.37L62.11-99.17Q62.11-98.22 58.63-97.05Q55.15-95.87 49.95-95.43L49.95-95.43L55.81-94.04Q55.44-92.80 54.31-92.25Q53.17-91.70 50.10-91.77L50.10-91.77Q48.05-88.84 45.63-85.99L45.63-85.99L54.27-85.99L64.53-95.58L81.01-81.30Q79.76-79.32 74.85-78.88L74.85-78.88Q65.19-61.67 47.46-48.67Q29.74-35.67 4.98-28.93L4.98-28.93L3.88-30.91Q11.57-34.72 18.49-39.59Q25.42-44.46 31.49-50.10L31.49-50.10Q28.20-49.37 24.90-51.78L24.90-51.78Q24.68-55.00 23.11-58.45Q21.53-61.89 19.48-64.53L19.48-64.53Q16.33-62.84 13.07-61.30Q9.81-59.77 6.45-58.52L6.45-58.52L5.27-59.84Q10.84-64.31 15.93-70.79Q21.02-77.27 24.94-84.70Q28.86-92.14 31.05-99.46L31.05-99.46L41.38-97.19L41.38-107.37L5.13-107.37ZM49.66-72.44L49.66-72.44Q52.51-77.20 54.42-81.74L54.42-81.74L41.67-81.74L37.79-77.86Q42.85-77.42 45.70-75.88Q48.56-74.34 49.66-72.44ZM229.47-123.78L230.42-124.95Q242.58-127.29 250.63-126.20Q258.69-125.10 263.16-121.98Q267.63-118.87 269.02-114.95Q270.41-111.04 269.13-107.52Q267.85-104.00 264.44-102.17Q261.04-100.34 255.91-101.51L255.91-101.51Q252.98-105.62 248.47-109.86Q243.97-114.11 238.95-117.77Q233.94-121.44 229.47-123.78L229.47-123.78ZM162.16-112.50L160.99-116.67L184.35-116.67L192.92-128.10Q192.92-128.10 195.59-125.94Q198.27-123.78 201.93-120.70Q205.59-117.63 208.52-114.92L208.52-114.92Q207.86-112.50 204.42-112.50L204.42-112.50L162.16-112.50ZM161.43-73.83L160.18-78.00L185.08-78.00L193.36-89.14Q193.36-89.14 195.96-86.98Q198.56-84.81 202.08-81.81Q205.59-78.81 208.37-76.17L208.37-76.17Q207.93-73.83 204.27-73.83L204.27-73.83L161.43-73.83ZM161.43-54.13L160.18-58.37L185.08-58.37L193.36-69.43Q193.36-69.43 195.96-67.31Q198.56-65.19 202.08-62.18Q205.59-59.18 208.37-56.54L208.37-56.54Q207.93-54.13 204.27-54.13L204.27-54.13L161.43-54.13ZM154.17-93.46L153.00-97.63L189.77-97.63L198.27-108.91Q198.27-108.91 200.90-106.75Q203.54-104.59 207.13-101.59Q210.72-98.58 213.57-95.87L213.57-95.87Q213.13-93.46 209.55-93.46L209.55-93.46L154.17-93.46ZM220.02-89.43L219.29-93.60L240.75-93.60L249.76-104.08L268.95-89.28Q268.07-88.11 266.35-87.08Q264.62-86.06 261.91-85.33L261.91-85.33Q263.89-70.97 267.77-59.84L267.77-59.84Q269.24-64.89 270.70-70.35Q272.17-75.81 273.34-80.64Q274.51-85.47 275.10-88.62L275.10-88.62L298.68-74.71Q298.10-73.68 296.56-73.02Q295.02-72.36 292.68-73.02L292.68-73.02Q289.01-69.80 282.53-64.64Q276.05-59.47 269.53-55.08L269.53-55.08Q274.95-41.75 282.60-33.76Q290.26-25.78 298.83-20.87L298.83-20.87L298.17-19.34Q292.24-17.65 287.73-12.23Q283.23-6.81 281.40 0.59L281.40 0.59Q275.17-7.76 271.33-17.40Q267.48-27.03 265.28-39.59Q263.09-52.15 261.91-69.29L261.91-69.29L261.91-6.59Q261.91-0.44 260.27 3.92Q258.62 8.28 253.31 10.88Q248.00 13.48 237.16 14.43L237.16 14.43Q236.79 10.03 235.99 6.81Q235.18 3.59 233.42 1.68L233.42 1.68Q231.52-0.37 228.59-1.94Q225.66-3.52 219.58-4.47L219.58-4.47L219.58-6.45Q219.58-6.45 222.11-6.30Q224.63-6.15 228.15-5.93Q231.67-5.71 234.81-5.57Q237.96-5.42 239.28-5.42L239.28-5.42Q241.19-5.42 241.81-6.19Q242.43-6.96 242.43-8.57L242.43-8.57L242.43-63.72L240.75-63.43Q239.21-52.66 235.36-41.64Q231.52-30.62 224.78-20.62Q218.04-10.62 207.57-2.86L207.57-2.86L207.57 5.27Q207.57 5.93 205.04 7.18Q202.51 8.42 198.85 9.45Q195.19 10.47 191.97 10.47L191.97 10.47L188.67 10.47L188.67-0.88L178.78-0.88L178.78 8.42Q178.78 9.23 176.44 10.62Q174.10 12.01 170.40 13.15Q166.70 14.28 162.74 14.28L162.74 14.28L160.03 14.28L160.03-45.12L179.37-37.50L187.35-37.50L195.78-46.51L212.99-33.47Q212.33-32.67 211.05-31.86Q209.77-31.05 207.57-30.76L207.57-30.76L207.57-7.98Q212.33-16.04 215.26-25.74Q218.19-35.45 219.73-45.67Q221.26-55.88 221.85-65.55L221.85-65.55L207.93-65.55L206.54-69.73L220.53-69.73L229.47-79.32L242.43-68.85L242.43-89.43L220.02-89.43ZM188.67-5.13L188.67-33.33L178.78-33.33L178.78-5.13L188.67-5.13ZM362.99-106.64L362.99-128.10L391.04-125.39Q390.82-123.85 389.72-122.68Q388.62-121.51 385.47-121.07L385.47-121.07L385.47-106.64L402.32-106.64L411.91-116.82L431.10-102.32Q430.44-101.51 429.16-100.71Q427.88-99.90 425.83-99.46L425.83-99.46L425.83-85.47L434.40-98.88Q434.40-98.88 436.01-97.34Q437.62-95.80 440.11-93.38Q442.60-90.97 445.20-88.26Q447.80-85.55 449.85-83.28L449.85-83.28Q449.19-80.86 445.83-80.86L445.83-80.86L425.83-80.86L425.83-56.98Q425.83-56.54 424.15-55.63Q422.46-54.71 419.97-53.69L419.97-53.69Q421.58-52.66 424.88-50.28Q428.17-47.90 431.98-44.97Q435.79-42.04 439.01-39.48L439.01-39.48Q438.43-37.06 434.69-37.06L434.69-37.06L385.47-37.06L385.47-18.90L412.65-18.90L424.22-33.18Q424.22-33.18 426.34-31.60Q428.47-30.03 431.80-27.58Q435.13-25.12 438.76-22.34Q442.38-19.56 445.39-17.07L445.39-17.07Q444.73-14.72 440.99-14.72L440.99-14.72L385.47-14.72L385.47 6.59Q385.47 7.62 382.69 9.45Q379.91 11.28 375.70 12.78Q371.48 14.28 367.24 14.28L367.24 14.28L362.99 14.28L362.99-14.72L305.57-14.72L304.32-18.90L362.99-18.90L362.99-37.06L315.31-37.06L314.14-41.24L362.99-41.24L362.99-58.96L319.92-58.96L318.60-63.13L362.99-63.13L362.99-80.86L305.13-80.86L303.88-85.03L362.99-85.03L362.99-102.47L321.02-102.47L319.63-106.64L362.99-106.64ZM403.78-80.86L385.47-80.86L385.47-63.13L403.78-63.13L403.78-80.86ZM385.47-102.47L385.47-85.03L403.78-85.03L403.78-102.47L385.47-102.47ZM385.47-58.96L385.47-41.24L407.67-41.24L417.33-52.81Q415.06-52.15 412.50-51.64Q409.94-51.12 407.67-51.12L407.67-51.12L403.78-51.12L403.78-58.96L385.47-58.96Z"/>
    </svg>
        