<?xml version="1.0" encoding="UTF-8" standalone="no"?>
        <svg 
    viewBox="4.6142578125 -86.4990234375 446.5576171875 57.3486328125"
    width="441.943359375"
    height="143.84765625"
   xmlns="http://www.w3.org/2000/svg"
   xmlns:svg="http://www.w3.org/2000/svg">
   <path d="M20.87-69.29L20.87-114.48L20.87-122.68L45.26-114.48L108.62-114.48L118.51-125.54L138.28-109.94Q137.40-108.91 135.86-108.00Q134.33-107.08 131.98-106.64L131.98-106.64L131.98-9.74Q131.98-2.64 130.30 2.31Q128.61 7.25 123.23 10.11Q117.85 12.96 106.64 13.92L106.64 13.92Q106.35 8.79 105.73 4.98Q105.10 1.17 103.64-1.03L103.64-1.03Q102.10-3.44 99.76-5.13Q97.41-6.81 92.29-7.98L92.29-7.98L92.29-9.74Q92.29-9.74 94.19-9.63Q96.09-9.52 98.77-9.38Q101.44-9.23 103.89-9.12Q106.35-9.01 107.37-9.01L107.37-9.01Q109.20-9.01 109.72-9.81Q110.23-10.62 110.23-12.01L110.23-12.01L110.23-110.23L42.11-110.23L42.11-69.29Q42.11-58.89 41.24-47.68Q40.36-36.47 36.95-25.42Q33.54-14.36 26.18-4.28Q18.82 5.79 5.86 13.92L5.86 13.92L4.61 12.89Q12.23 1.10 15.64-12.56Q19.04-26.22 19.96-40.69Q20.87-55.15 20.87-69.29L20.87-69.29ZM63.87-89.43L63.87-107.52L87.60-105.62Q87.45-104.22 86.61-103.34Q85.77-102.47 83.42-102.17L83.42-102.17L83.42-89.43L86.43-89.43L94.19-98.88Q94.19-98.88 96.68-97.05Q99.17-95.21 102.58-92.61Q105.98-90.01 108.76-87.60L108.76-87.60Q108.11-85.18 104.74-85.18L104.74-85.18L83.42-85.18L83.42-66.72L85.99-66.72L94.48-77.27Q94.48-77.27 97.19-75.26Q99.90-73.24 103.56-70.39Q107.23-67.53 110.23-64.97L110.23-64.97Q109.57-62.55 106.20-62.55L106.20-62.55L44.09-62.55L42.92-66.72L63.87-66.72L63.87-85.18L45.92-85.18L44.68-89.43L63.87-89.43ZM47.39-6.01L47.39-50.39L47.39-58.08L67.24-50.39L80.71-50.39L89.28-59.55L106.79-46.36Q106.13-45.56 104.85-44.75Q103.56-43.95 101.51-43.51L101.51-43.51L101.51-15.89Q101.44-15.23 98.80-13.99Q96.17-12.74 92.43-11.68Q88.70-10.62 85.47-10.62L85.47-10.62L82.03-10.62L82.03-20.87L66.58-20.87L66.58-11.87Q66.58-10.99 64.12-9.59Q61.67-8.20 57.86-7.10Q54.05-6.01 50.10-6.01L50.10-6.01L47.39-6.01ZM66.58-46.22L66.58-25.05L82.03-25.05L82.03-46.22L66.58-46.22ZM214.82-6.30L214.82-61.82L241.04-59.69Q240.67-56.47 235.99-55.66L235.99-55.66L235.99-6.45Q235.99 0.07 234.27 4.43Q232.54 8.79 227.23 11.24Q221.92 13.70 211.08 14.58L211.08 14.58Q210.79 10.40 210.28 7.36Q209.77 4.32 208.23 2.42L208.23 2.42Q206.62 0.73 204.35-0.77Q202.08-2.27 196.66-3.30L196.66-3.30L196.66-5.13Q196.66-5.13 198.67-4.98Q200.68-4.83 203.50-4.65Q206.32-4.47 208.85-4.32Q211.38-4.17 212.40-4.17L212.40-4.17Q214.82-4.17 214.82-6.30L214.82-6.30ZM181.35 8.28L166.63-11.13Q170.87-11.94 178.09-13.66Q185.30-15.38 194.24-17.65Q203.17-19.92 212.55-22.49L212.55-22.49L212.99-21.17Q208.74-16.77 201.93-10.58Q195.12-4.39 184.79 4.03L184.79 4.03Q183.84 7.32 181.35 8.28L181.35 8.28ZM236.13-20.87L236.72-22.49Q251.51-22.85 260.60-20.32Q269.68-17.80 274.00-13.73Q278.32-9.67 278.87-5.31Q279.42-0.95 277.22 2.42Q275.02 5.79 271.00 6.96Q266.97 8.13 262.21 5.71L262.21 5.71Q260.52 2.49 256.90-2.09Q253.27-6.67 248.00-11.61Q242.72-16.55 236.13-20.87L236.13-20.87ZM209.55-129.27L209.55-129.27L239.28-123.49Q238.77-121.73 237.41-120.78Q236.06-119.82 233.28-119.82L233.28-119.82Q232.54-116.89 231.85-114.00Q231.15-111.11 230.27-108.18L230.27-108.18L261.18-108.18L271.51-120.92Q271.51-120.92 273.41-119.49Q275.32-118.07 278.32-115.87Q281.32-113.67 284.58-111.15Q287.84-108.62 290.55-106.35L290.55-106.35Q289.89-103.93 286.23-103.93L286.23-103.93L229.03-103.93Q227.93-100.49 226.68-97.08Q225.44-93.68 223.97-90.45L223.97-90.45L256.93-90.45L266.67-102.47Q266.67-102.47 269.71-100.20Q272.75-97.92 276.89-94.70Q281.03-91.48 284.40-88.62L284.40-88.62Q283.96-86.28 280.22-86.28L280.22-86.28L238.92-86.28Q242.07-81.74 246.17-77.89Q250.27-74.05 254.88-70.83L254.88-70.83L264.77-70.83L275.68-84.45Q275.68-84.45 277.70-82.95Q279.71-81.45 282.86-79.06Q286.01-76.68 289.42-74.01Q292.82-71.34 295.68-68.99L295.68-68.99Q295.46-67.75 294.21-67.16Q292.97-66.58 291.28-66.58L291.28-66.58L261.62-66.58Q270.04-61.74 279.38-58.56Q288.72-55.37 297.58-53.54L297.58-53.54L297.29-51.27Q290.19-47.61 285.97-42.37Q281.76-37.13 281.10-30.62L281.10-30.62Q273.63-34.57 266.82-40.21L266.82-40.21Q265.58-38.67 262.06-39.18L262.06-39.18Q256.86-35.45 251.18-31.71Q245.51-27.98 240.31-25.20L240.31-25.20L238.33-26.37Q239.94-30.91 241.88-38.05Q243.82-45.19 245.73-52.22L245.73-52.22L261.91-44.53Q251.81-54.42 244.48-66.58L244.48-66.58L209.84-66.58Q206.03-61.74 201.60-57.24Q197.17-52.73 191.82-48.63L191.82-48.63Q200.10-46.73 204.35-43.47Q208.59-40.21 209.66-36.44Q210.72-32.67 209.36-29.37Q208.01-26.07 204.97-24.10Q201.93-22.12 197.97-22.38Q194.02-22.63 189.92-26.07L189.92-26.07Q190.36-30.69 189.22-35.41Q188.09-40.14 185.82-44.09L185.82-44.09Q179.22-39.62 171.35-35.63Q163.48-31.64 154.32-28.34L154.32-28.34L153.30-29.74Q165.31-37.72 174.17-47.09Q183.03-56.47 189.33-66.58L189.33-66.58L156.88-66.58L155.71-70.83L191.67-70.83Q193.87-74.63 195.74-78.48Q197.61-82.32 199.22-86.28L199.22-86.28L168.75-86.28L167.58-90.45L200.68-90.45Q201.93-93.82 202.95-97.19Q203.98-100.56 204.93-103.93L204.93-103.93L163.77-103.93L162.60-108.18L205.96-108.18Q208.45-118.95 209.55-129.27ZM234.89-86.28L222.00-86.28Q218.26-78.37 212.99-70.83L212.99-70.83L242.07-70.83Q237.96-78.44 234.89-86.28L234.89-86.28ZM403.49-11.43L404.37-12.60Q417.48-14.36 426.05-12.78Q434.62-11.21 439.34-7.69Q444.07-4.17 445.50 0Q446.92 4.17 445.57 7.80Q444.21 11.43 440.63 13.18Q437.04 14.94 431.84 13.48L431.84 13.48Q428.83 8.94 424.07 4.21Q419.31-0.51 413.89-4.61Q408.47-8.72 403.49-11.43L403.49-11.43ZM306.88-93.16L305.57-97.34L324.32-97.34L324.32-128.10L349.80-126.12Q349.66-124.58 348.56-123.49Q347.46-122.39 344.38-121.95L344.38-121.95L344.38-99.90L352.95-108.03L367.02-91.92L367.02-98.07L389.14-90.01L391.77-90.01L391.77-127.37L419.38-125.24Q419.17-123.71 418.14-122.61Q417.11-121.51 413.96-121.07L413.96-121.07L413.96-109.20L416.82-109.20L427.51-122.53Q427.51-122.53 429.42-121.07Q431.32-119.60 434.33-117.30Q437.33-114.99 440.59-112.35Q443.85-109.72 446.56-107.37L446.56-107.37Q446.34-106.13 445.13-105.58Q443.92-105.03 442.38-105.03L442.38-105.03L413.96-105.03L413.96-90.01L416.82-90.01L426.93-101.37L445.02-87.30Q444.29-86.28 442.93-85.44Q441.58-84.59 438.87-84.16L438.87-84.16L438.87-18.75Q438.87-17.94 434.14-15.86Q429.42-13.77 421.36-13.77L421.36-13.77L417.63-13.77L417.63-20.73L387.30-20.73L387.30-15.75Q387.30-15.38 386.72-15.01L386.72-15.01L407.23-1.83Q406.71-0.81 405.43-0.26Q404.15 0.29 401.51-0.15L401.51-0.15Q392.58 5.57 379.03 9.30Q365.48 13.04 350.98 13.77L350.98 13.77L350.10 12.30Q359.11 7.76 367.24 1.21Q375.37-5.35 380.57-12.01L380.57-12.01Q376.46-10.77 370.83-10.77L370.83-10.77L367.02-10.77L367.02-49.07Q366.36-46.00 363.98-44.06Q361.60-42.11 358.30-42.11Q355.00-42.11 351.42-44.82L351.42-44.82Q350.76-49.22 349.04-53.87Q347.31-58.52 345.12-62.55L345.12-62.55L345.12 7.76Q345.12 8.42 342.99 9.92Q340.87 11.43 337.02 12.78Q333.18 14.14 327.91 14.14L327.91 14.14L323.88 14.14L323.88-47.09Q318.82-43.29 313.51-39.88Q308.20-36.47 302.71-33.76L302.71-33.76L301.46-34.94Q309.89-42.92 317.40-52.84Q324.90-62.77 330.69-73.24Q336.47-83.72 339.77-93.16L339.77-93.16L306.88-93.16ZM417.63-63.72L387.30-63.72L387.30-46.66L417.63-46.66L417.63-63.72ZM387.30-85.77L387.30-67.97L417.63-67.97L417.63-85.77L387.30-85.77ZM417.63-42.48L387.30-42.48L387.30-24.90L417.63-24.90L417.63-42.48ZM367.02-53.69L367.02-89.43Q366.14-88.92 364.86-88.62Q363.57-88.33 361.67-88.18L361.67-88.18Q355.81-78.37 346.66-68.26L346.66-68.26Q356.54-65.77 361.30-61.74Q366.06-57.71 367.02-53.69L367.02-53.69Z"/>
    </svg>
        