<?xml version="1.0" encoding="UTF-8" standalone="no"?>
        <svg 
    viewBox="1.8310546875 -85.83984375 448.1689453125 56.982421875"
    width="446.337890625"
    height="142.822265625"
   xmlns="http://www.w3.org/2000/svg"
   xmlns:svg="http://www.w3.org/2000/svg">
   <path d="M24.46-90.01L24.46-127.95L50.98-125.39Q50.76-123.71 49.69-122.61Q48.63-121.51 45.48-121.07L45.48-121.07L45.48-91.48L52.66-103.34Q52.66-103.34 55.19-100.78Q57.71-98.22 61.08-94.67Q64.45-91.11 66.87-88.18L66.87-88.18Q66.21-85.77 62.84-85.77L62.84-85.77L45.48-85.77L45.48-73.68Q55.15-71.19 60.24-67.42Q65.33-63.65 67.02-59.69L67.02-59.69L121.36-59.69L127.81-68.26Q125.90-67.90 123.45-67.64Q121.00-67.38 118.21-67.38L118.21-67.38L114.33-67.38L114.33-73.17L88.33-73.17L88.33-70.02Q88.33-69.07 83.86-67.31Q79.39-65.55 71.56-65.55L71.56-65.55L67.82-65.55L67.82-125.54L89.87-117.33L113.67-117.33L123.63-128.39L141.72-114.62Q141.06-113.60 139.78-112.90Q138.50-112.21 135.86-111.77L135.86-111.77L135.86-71.56Q135.86-71.04 133.23-69.87L133.23-69.87Q135.79-67.75 140.00-64.27Q144.21-60.79 147.44-57.93L147.44-57.93Q146.78-55.52 143.26-55.52L143.26-55.52L96.90-55.52Q93.31-49.44 88.04-43.95L88.04-43.95L120.12-43.95L130.37-53.54L147.73-39.18Q145.97-37.13 141.72-36.33L141.72-36.33Q140.99-21.61 139.64-12.56Q138.28-3.52 135.90 1.54Q133.52 6.59 129.57 9.30L129.57 9.30Q122.61 14.14 111.18 14.14L111.18 14.14Q111.25 9.74 110.82 6.26Q110.38 2.78 109.06 0.88L109.06 0.88Q107.67-1.10 105.58-2.60Q103.49-4.10 99.90-5.13L99.90-5.13Q87.89 6.23 69.73 14.43L69.73 14.43L68.41 12.45Q81.37 2.86 89.43-10.62Q97.49-24.10 101.37-39.77L101.37-39.77Q94.63-26.73 82.69-16.44Q70.75-6.15 55.37 1.03L55.37 1.03L53.83-1.03Q63.21-8.28 70.39-18.09Q77.56-27.91 82.18-38.38L82.18-38.38Q75.88-33.11 68.23-28.71Q60.57-24.32 52.08-20.87L52.08-20.87L50.83-22.78Q59.03-29.08 65.19-37.72Q71.34-46.36 75.29-55.52L75.29-55.52L68.12-55.52Q68.26-51.49 65.70-48.74Q63.13-46.00 59.22-45.74Q55.30-45.48 51.27-49.07L51.27-49.07Q51.05-54.42 49.33-59.99Q47.61-65.55 45.48-70.17L45.48-70.17L45.48 8.42Q45.48 9.23 42.92 10.62Q40.36 12.01 36.47 13.15Q32.59 14.28 28.64 14.28L28.64 14.28L24.46 14.28L24.46-43.80Q19.92-37.65 14.69-32.08Q9.45-26.51 3.44-21.61L3.44-21.61L1.83-23.07Q7.03-31.49 11.06-41.89Q15.09-52.29 18.02-63.54Q20.95-74.78 22.78-85.77L22.78-85.77L6.88-85.77L5.71-90.01L24.46-90.01ZM121.36-37.94L121.36-37.94Q118.07-28.93 113.20-21.09Q108.33-13.26 101.51-6.59L101.51-6.59L111.47-6.30Q114.18-6.30 115.65-7.32L115.65-7.32Q117.70-9.01 119.13-16.33Q120.56-23.66 121.36-37.94ZM114.33-93.31L88.33-93.31L88.33-77.42L114.33-77.42L114.33-93.31ZM88.33-113.09L88.33-97.49L114.33-97.49L114.33-113.09L88.33-113.09ZM164.28 6.15L163.04 1.98L212.70 1.98L212.70-67.68L156.30-67.68L155.13-71.85L212.70-71.85L212.70-125.98L242.29-123.27Q241.99-121.58 240.93-120.48Q239.87-119.38 236.72-118.95L236.72-118.95L236.72-71.85L260.52-71.85L272.83-87.60Q272.83-87.60 275.10-85.88Q277.37-84.16 280.85-81.45Q284.33-78.74 288.13-75.73Q291.94-72.73 295.02-70.02L295.02-70.02Q294.36-67.68 290.55-67.68L290.55-67.68L236.72-67.68L236.72 1.98L253.78 1.98L266.24-13.92Q266.24-13.92 268.51-12.23Q270.78-10.55 274.29-7.80Q277.81-5.05 281.62-2.01Q285.42 1.03 288.57 3.74L288.57 3.74Q287.92 6.15 284.11 6.15L284.11 6.15L164.28 6.15ZM361.96-62.99L361.96-90.60L361.96-98.22L381.59-90.60L389.72-90.60L389.72-103.34L357.28-103.34L356.10-107.52L389.72-107.52L389.72-127.37L414.92-124.95Q414.70-123.49 413.67-122.50Q412.65-121.51 409.94-121.07L409.94-121.07L409.94-107.52L418.21-107.52L428.10-121.22Q428.10-121.22 429.93-119.68Q431.76-118.14 434.55-115.76Q437.33-113.38 440.37-110.71Q443.41-108.03 445.83-105.76L445.83-105.76Q445.17-103.34 441.58-103.34L441.58-103.34L409.94-103.34L409.94-90.60L418.36-90.60L427.08-99.76L444.58-86.57Q444.07-85.77 442.71-84.96Q441.36-84.16 439.38-83.72L439.38-83.72L439.38-46.07Q439.31-45.41 436.63-44.09Q433.96-42.77 430.19-41.71Q426.42-40.65 423.12-40.65L423.12-40.65L419.82-40.65L419.82-44.68L412.79-44.68Q418.80-34.50 428.43-26.84Q438.06-19.19 448.17-15.01L448.17-15.01L447.73-13.33Q435.94-10.33 431.84 5.57L431.84 5.57Q423.05-3.00 417.96-15.38Q412.87-27.76 409.94-43.95L409.94-43.95L409.94 7.32Q409.94 8.35 407.41 10.03Q404.88 11.72 401.11 13.07Q397.34 14.43 393.60 14.43L393.60 14.43L389.72 14.43L389.72-21.02Q381.74-12.67 371.59-5.90Q361.45 0.88 349.51 6.15L349.51 6.15L348.12 4.47Q360.06-4.83 368.96-18.02Q377.86-31.20 382.98-44.68L382.98-44.68L380.71-44.68L380.71-44.09Q380.71-43.29 378.33-41.89Q375.95-40.50 372.25-39.37Q368.55-38.23 364.67-38.23L364.67-38.23L361.96-38.23L361.96-49.80Q359.69-46.73 355.66-46.29Q351.64-45.85 347.53-49.80L347.53-49.80Q347.68-52.37 347.39-55.04Q347.09-57.71 346.66-60.28L346.66-60.28L342.92-58.67L342.92-41.97L343.80-42.33Q353.91-37.72 358.41-32.34Q362.92-26.95 363.24-22.08Q363.57-17.21 361.12-14.06Q358.67-10.91 354.79-10.69Q350.90-10.47 347.09-14.43L347.09-14.43Q347.31-20.58 346.00-27.25Q344.68-33.91 342.92-39.48L342.92-39.48L342.92 9.30Q342.92 10.11 338.82 12.27Q334.72 14.43 327.61 14.43L327.61 14.43L324.17 14.43L324.17-28.49Q321.02-18.68 316.48-10.58Q311.94-2.49 305.86 3.15L305.86 3.15L303.59 1.98Q306.15-6.74 307.58-17.94Q309.01-29.15 309.16-40.21L309.16-40.21L324.17-37.35L324.17-50.68L314.58-46.80Q313.26-44.02 310.18-43.51L310.18-43.51L303.74-62.70L321.02-63.28Q324.32-70.53 327.54-78.48Q330.76-86.43 333.54-94.12Q336.33-101.81 338.23-108.18L338.23-108.18L362.70-99.90Q362.11-98.58 360.68-97.78Q359.25-96.97 356.69-97.19L356.69-97.19Q351.78-90.23 344.09-81.15Q336.40-72.07 328.05-63.57L328.05-63.57L345.63-64.53Q344.82-67.53 343.84-70.39Q342.85-73.24 341.82-75.73L341.82-75.73L343.36-76.32Q350.90-73.54 355.41-70.02Q359.91-66.50 361.96-62.99L361.96-62.99ZM389.72-48.93L389.72-65.41L380.71-65.41L380.71-48.93L389.72-48.93ZM380.71-69.58L389.72-69.58L389.72-86.43L380.71-86.43L380.71-69.58ZM419.82-65.41L409.94-65.41L409.94-48.93L419.82-48.93L419.82-65.41ZM409.94-86.43L409.94-69.58L419.82-69.58L419.82-86.43L409.94-86.43ZM302.56-100.93L303.88-101.73Q310.55-100.34 315.31-98.07L315.31-98.07Q316.85-104.59 318.35-112.68Q319.85-120.78 321.02-128.39L321.02-128.39L346.36-120.48Q345.92-119.09 344.42-118.21Q342.92-117.33 340.36-117.33L340.36-117.33Q335.74-111.33 330.47-105.69Q325.20-100.05 319.78-95.58L319.78-95.58Q324.32-92.43 325.78-88.88Q327.25-85.33 326.40-82.29Q325.56-79.25 323.14-77.34Q320.73-75.44 317.43-75.51Q314.14-75.59 310.62-78.44L310.62-78.44Q310.33-84.30 307.84-90.42Q305.35-96.53 302.56-100.93L302.56-100.93Z"/>
    </svg>
        