<?xml version="1.0" encoding="UTF-8" standalone="no"?>
        <svg 
    viewBox="3.5888671875 -86.1328125 448.3154296875 56.982421875"
    width="444.7265625"
    height="143.115234375"
   xmlns="http://www.w3.org/2000/svg"
   xmlns:svg="http://www.w3.org/2000/svg">
   <path d="M13.48-112.50L12.30-116.67L37.21-116.67L45.92-127.95Q45.92-127.95 48.60-125.83Q51.27-123.71 54.93-120.67Q58.59-117.63 61.52-114.92L61.52-114.92Q61.08-112.50 57.42-112.50L57.42-112.50L13.48-112.50ZM12.74-73.83L11.57-78.00L37.79-78.00L46.22-88.92Q46.22-88.92 48.85-86.83Q51.49-84.74 55.08-81.77Q58.67-78.81 61.52-76.17L61.52-76.17Q60.86-73.83 57.42-73.83L57.42-73.83L12.74-73.83ZM12.74-54.13L11.57-58.37L37.79-58.37L46.22-69.29Q46.22-69.29 48.85-67.20Q51.49-65.11 55.08-62.15Q58.67-59.18 61.52-56.54L61.52-56.54Q60.86-54.13 57.42-54.13L57.42-54.13L12.74-54.13ZM4.83-93.46L3.59-97.63L46.07-97.63L54.57-108.91Q54.57-108.91 57.31-106.75Q60.06-104.59 63.76-101.59Q67.46-98.58 70.39-95.87L70.39-95.87Q69.73-93.46 66.28-93.46L66.28-93.46L4.83-93.46ZM75.29-127.95L75.29-127.95L105.47-120.12Q104.88-118.65 103.45-117.74Q102.03-116.82 99.32-116.82L99.32-116.82Q97.71-112.13 95.84-107.81Q93.97-103.49 91.92-99.46L91.92-99.46L117.33-99.46L127.37-112.94Q127.37-112.94 129.20-111.44Q131.03-109.94 133.89-107.59Q136.74-105.25 139.86-102.61Q142.97-99.98 145.53-97.63L145.53-97.63Q144.87-95.21 141.28-95.21L141.28-95.21L115.06-95.21L115.06-54.42L123.27-54.42L132.71-68.70Q132.71-68.70 134.44-67.13Q136.16-65.55 138.79-63.06Q141.43-60.57 144.25-57.79Q147.07-55.00 149.27-52.66L149.27-52.66Q148.61-50.24 145.17-50.24L145.17-50.24L115.06-50.24L115.06 7.76Q115.06 8.57 113.01 10.14Q110.96 11.72 107.08 13.07Q103.20 14.43 97.63 14.43L97.63 14.43L93.75 14.43L93.75-50.24L63.87-50.24L62.70-54.42L93.75-54.42L93.75-95.21L89.72-95.21Q79.91-77.71 64.97-66.58L64.97-66.58L63.28-67.68Q66.21-75.44 68.70-85.40Q71.19-95.36 72.91-106.31Q74.63-117.26 75.29-127.95ZM41.67-5.13L41.67-33.33L30.62-33.33L30.62-5.13L41.67-5.13ZM11.43 14.28L11.43-37.50L11.43-45.12L31.05-37.50L40.21-37.50L48.93-46.80L66.58-33.47Q66.06-32.67 64.71-31.79Q63.35-30.91 61.38-30.62L61.38-30.62L61.38 6.30Q61.30 6.96 58.63 8.28Q55.96 9.59 52.22 10.66Q48.49 11.72 45.12 11.72L45.12 11.72L41.67 11.72L41.67-0.88L30.62-0.88L30.62 8.28Q30.62 9.16 28.16 10.58Q25.71 12.01 21.94 13.15Q18.16 14.28 14.14 14.28L14.14 14.28L11.43 14.28ZM161.28-40.65L161.28-40.65L178.05-36.77L178.05-50.54L163.92-46.22Q162.30-43.14 159.30-42.92L159.30-42.92L153.59-62.99Q160.55-62.77 174.02-62.99L174.02-62.99Q177.98-70.46 181.93-78.74Q185.89-87.01 189.40-95.07Q192.92-103.13 195.48-109.79L195.48-109.79L220.83-100.63Q220.24-99.32 218.81-98.51Q217.38-97.71 214.67-97.92L214.67-97.92L211.67-94.34L239.28-94.34L239.28-125.83L266.38-123.93Q266.16-122.31 265.17-121.22Q264.18-120.12 261.04-119.53L261.04-119.53L261.04-94.34L266.53-94.34L277.51-108.62Q277.51-108.62 279.49-107.04Q281.47-105.47 284.55-102.98Q287.62-100.49 290.99-97.74Q294.36-95.00 297.14-92.58L297.14-92.58Q296.48-90.16 292.82-90.16L292.82-90.16L285.28-90.16Q282.93-72.07 277.66-55.74Q272.39-39.40 262.35-25.78L262.35-25.78Q270.12-18.68 279.02-13.29Q287.92-7.91 297.58-3.59L297.58-3.59L297.00-1.98Q290.04-1.39 284.62 2.82Q279.20 7.03 276.12 14.14L276.12 14.14Q268.36 8.50 261.84 2.16Q255.32-4.17 249.90-11.87L249.90-11.87Q241.11-3.66 229.50 2.97Q217.90 9.59 202.95 14.43L202.95 14.43L202.08 12.89Q215.70 5.27 225.66-4.10Q235.62-13.48 242.72-24.17L242.72-24.17Q236.43-36.55 232.25-52.73Q228.08-68.92 226.03-90.16L226.03-90.16L210.57-90.16L209.99-92.43Q204.05-85.62 196.40-77.89Q188.75-70.17 180.76-62.99L180.76-62.99L202.51-63.43Q200.17-69.80 197.24-74.71L197.24-74.71L198.63-75.44Q208.96-72.88 214.64-68.92Q220.31-64.97 222.29-60.64Q224.27-56.32 223.46-52.55Q222.66-48.78 219.84-46.47Q217.02-44.17 213.17-44.24Q209.33-44.31 205.37-47.83L205.37-47.83Q205.37-53.39 203.69-59.25L203.69-59.25L197.53-57.13L197.53-40.65L198.27-40.94Q208.15-37.43 213.46-32.89Q218.77-28.34 220.50-23.73Q222.22-19.12 221.23-15.31Q220.24-11.50 217.42-9.27Q214.60-7.03 210.83-7.29Q207.06-7.54 203.25-11.28L203.25-11.28Q203.47-18.24 201.75-25.45Q200.02-32.67 197.53-38.53L197.53-38.53L197.53 9.01Q197.53 9.89 193.32 12.08Q189.11 14.28 181.64 14.28L181.64 14.28L178.05 14.28L178.05-30.32Q173.88-19.92 168.27-11.65Q162.67-3.37 155.71 2.27L155.71 2.27L153.59 1.17Q156.52-7.10 158.53-18.31Q160.55-29.52 161.28-40.65ZM262.79-90.16L228.74-90.16Q231.59-73.75 237.16-61.01Q242.72-48.27 250.49-38.38L250.49-38.38Q255.98-50.32 258.87-63.35Q261.77-76.39 262.79-90.16L262.79-90.16ZM153.15-101.37L154.32-102.17Q159.08-101.44 162.82-100.38Q166.55-99.32 169.48-97.92L169.48-97.92Q171.17-104.37 172.96-112.50Q174.76-120.63 176.07-128.25L176.07-128.25L202.37-119.38Q201.42-116.24 196.36-116.24L196.36-116.24Q191.38-110.38 185.67-104.85Q179.96-99.32 174.32-94.92L174.32-94.92Q179.44-91.04 180.29-86.57Q181.13-82.10 178.93-78.77Q176.73-75.44 172.63-74.67Q168.53-73.90 163.92-77.27L163.92-77.27Q163.04-83.64 159.78-90.20Q156.52-96.75 153.15-101.37L153.15-101.37ZM400.78-111.04L400.78-127.81L426.78-125.10Q426.64-123.63 425.46-122.42Q424.29-121.22 421.36-120.78L421.36-120.78Q421.14-112.28 420.96-104.00Q420.78-95.73 420.78-87.60L420.78-87.60L422.83-87.60L429.79-97.92L428.54-99.02Q428.91-104.15 427.51-109.64Q426.12-115.14 424.22-118.95L424.22-118.95L425.54-119.68Q435.21-117.33 439.75-113.64Q444.29-109.94 444.98-106.09Q445.68-102.25 443.66-99.35Q441.65-96.46 438.28-95.73L438.28-95.73Q440.77-93.31 443.48-90.67Q446.19-88.04 448.32-85.77L448.32-85.77Q447.73-83.42 444.14-83.42L444.14-83.42L420.92-83.42Q421.14-63.50 423.71-46.40Q426.27-29.30 433.52-17.87L433.52-17.87Q434.55-16.04 435.24-16.11Q435.94-16.19 436.96-18.02L436.96-18.02Q438.65-21.02 441.03-26.15Q443.41-31.27 445.39-36.04L445.39-36.04L446.85-35.67L443.41-8.72Q446.34-0.29 446.92 5.02Q447.51 10.33 444.87 12.01L444.87 12.01Q441.21 14.28 437.37 13.95Q433.52 13.62 429.97 11.68Q426.42 9.74 423.63 6.96Q420.85 4.17 419.38 1.46L419.38 1.46Q414.70-7.03 411.33-16.48L411.33-16.48L411.47-14.87Q402.91-10.55 389.50-4.87Q376.10 0.81 356.40 8.28L356.40 8.28Q354.93 11.28 351.93 12.01L351.93 12.01L342.33-10.03L355.96-11.13L355.96-67.38L374.71-65.70Q374.49-64.38 373.61-63.50Q372.73-62.62 370.39-62.26L370.39-62.26L370.39-12.45L375.15-12.89L375.15-78.30L397.05-76.46Q396.83-75.07 395.80-74.01Q394.78-72.95 391.92-72.58L391.92-72.58L391.92-47.68L398.22-58.96L403.34-53.10Q402.54-60.28 401.99-67.90Q401.44-75.51 401.22-83.42L401.22-83.42L356.40-83.42L355.22-87.60L352.37-87.60Q351.56-78.59 350.24-69.47Q348.93-60.35 346.66-51.42L346.66-51.42Q352.37-44.46 353.80-38.20Q355.22-31.93 353.43-27.72Q351.64-23.51 347.61-22.45Q343.58-21.39 338.53-24.90L338.53-24.90L337.94-26.73Q332.45-14.65 324.24-4.14Q316.04 6.37 304.17 14.58L304.17 14.58L303.00 13.33Q312.82 0.07 318.57-15.97Q324.32-32.01 327.17-48.93L327.17-48.93Q322.56-56.10 317.14-62.70Q311.72-69.29 306.45-74.56L306.45-74.56L307.98-75.59Q314.28-73.46 319.56-71.01Q324.83-68.55 329.22-65.84L329.22-65.84Q329.74-71.34 329.96-76.83Q330.18-82.32 330.32-87.60L330.32-87.60L304.17-87.60L303.00-91.77L320.73-91.77L320.73-128.54L347.09-126.64Q346.88-125.02 345.78-123.93Q344.68-122.83 341.53-122.24L341.53-122.24L341.53-91.77L342.63-91.77L351.78-104.37Q351.78-104.37 354.60-101.99Q357.42-99.61 361.30-96.28Q365.19-92.94 368.26-90.01L368.26-90.01Q367.60-87.60 364.01-87.60L364.01-87.60L401.07-87.60L400.78-104.08L360.57-104.08L359.40-108.33L378.59-108.33L388.33-121.66Q388.33-121.66 390.23-120.08Q392.14-118.51 395.00-116.05Q397.85-113.60 400.78-111.04L400.78-111.04ZM404.88-42.48L391.92-42.48L391.92-14.58L411.33-16.63Q409.13-22.71 407.56-29.15Q405.98-35.60 404.88-42.48L404.88-42.48Z"/>
    </svg>
        