<?xml version="1.0" encoding="UTF-8" standalone="no"?>
        <svg 
    viewBox="10.3271484375 -85.7666015625 448.828125 56.9091796875"
    width="438.5009765625"
    height="142.67578125"
   xmlns="http://www.w3.org/2000/svg"
   xmlns:svg="http://www.w3.org/2000/svg">
   <path d="M58.37-42.92L58.37-89.58L58.37-97.34L78.44-89.58L88.48-89.58L88.48-101.22L56.25-101.22Q52.22-94.41 47.02-86.50Q41.82-78.59 36.91-72.58L36.91-72.58Q46.00-66.87 51.27-58.89Q56.54-50.90 58.37-42.92L58.37-42.92ZM10.33 14.43L10.33-116.53L10.33-124.66L32.23-116.53L37.50-116.53L47.24-125.98L66.14-108.91Q64.45-106.79 59.40-106.79L59.40-106.79L58.67-105.47L88.48-105.47L88.48-126.93L114.33-124.37Q114.11-122.75 113.01-121.69Q111.91-120.63 108.76-120.12L108.76-120.12L108.76-105.47L118.95-105.47L129.27-119.53Q129.27-119.53 131.14-117.99Q133.01-116.46 135.90-114.00Q138.79-111.55 141.94-108.80Q145.09-106.05 147.58-103.64L147.58-103.64Q146.92-101.22 143.26-101.22L143.26-101.22L108.76-101.22L108.76-89.58L117.11-89.58L125.83-98.88L143.70-85.47Q143.04-84.74 141.72-83.94Q140.41-83.13 138.28-82.62L138.28-82.62L138.28-39.77Q138.21-39.26 135.50-38.16Q132.79-37.06 129.02-36.15Q125.24-35.23 122.09-35.23L122.09-35.23L118.65-35.23L118.65-43.07L109.94-43.07Q113.96-34.42 120.45-28.56Q126.93-22.71 134.40-19.04Q141.87-15.38 148.97-13.33L148.97-13.33L148.68-12.01Q142.82-10.18 138.87-4.76Q134.91 0.66 133.37 8.13L133.37 8.13Q126.78 2.05 122.06-4.91Q117.33-11.87 114.11-20.73Q110.89-29.59 108.76-41.53L108.76-41.53L108.76 7.03Q108.76 8.13 106.27 9.78Q103.78 11.43 100.01 12.78Q96.24 14.14 92.43 14.14L92.43 14.14L88.48 14.14L88.48-19.63Q79.83-10.84 68.33-3.99Q56.84 2.86 42.77 7.98L42.77 7.98L41.53 6.30Q55.52-2.71 65.59-15.78Q75.66-28.86 81.15-43.07L81.15-43.07L77.56-43.07L77.56-39.62Q77.56-38.67 75.11-37.24Q72.66-35.82 68.88-34.72Q65.11-33.62 61.08-33.62L61.08-33.62L59.25-33.62Q59.03-23.00 53.98-16.66Q48.93-10.33 36.47-10.18L36.47-10.18Q36.47-14.36 35.93-19.26Q35.38-24.17 34.50-26.07L34.50-26.07Q33.40-28.27 30.32-29.74L30.32-29.74L30.32 8.13Q30.32 8.86 28.34 10.36Q26.37 11.87 22.71 13.15Q19.04 14.43 13.92 14.43L13.92 14.43L10.33 14.43ZM88.48-47.24L88.48-64.53L77.56-64.53L77.56-47.24L88.48-47.24ZM118.65-64.53L108.76-64.53L108.76-47.24L118.65-47.24L118.65-64.53ZM77.56-68.70L88.48-68.70L88.48-85.33L77.56-85.33L77.56-68.70ZM108.76-85.33L108.76-68.70L118.65-68.70L118.65-85.33L108.76-85.33ZM38.82-112.35L30.32-112.35L30.32-32.23L35.23-32.23Q37.13-32.23 38.23-33.03L38.23-33.03Q40.80-34.64 40.80-40.65L40.80-40.65Q40.80-48.41 39.11-56.73Q37.43-65.04 33.18-72.14L33.18-72.14Q34.20-77.20 35.34-84.30Q36.47-91.41 37.43-98.88Q38.38-106.35 38.82-112.35L38.82-112.35ZM260.08-118.51L260.08-118.51Q256.71-111.11 250.63-104.33Q244.56-97.56 236.76-91.92Q228.96-86.28 220.53-82.18L220.53-82.18L220.83-81.88Q220.09-81.01 218.55-80.09Q217.02-79.17 214.82-78.74L214.82-78.74L214.82-44.38Q219.07-50.24 222.44-57.71Q225.81-65.19 227.27-70.83L227.27-70.83L235.18-66.43L235.18-73.54L218.55-73.54L217.24-77.71L233.72-77.71L241.48-86.72L254.88-76.68L254.37-77.86L269.24-77.86L277.22-87.01L294.58-73.83Q293.92-72.88 292.46-72.07Q290.99-71.26 288.72-70.83L288.72-70.83L288.72-8.42Q288.72-1.90 287.33 2.78Q285.94 7.47 281.40 10.25Q276.86 13.04 267.33 13.92L267.33 13.92Q267.04 9.08 266.49 5.46Q265.94 1.83 264.62-0.44L264.62-0.44Q263.23-2.78 261.00-4.32Q258.76-5.86 254.37-6.74L254.37-6.74L254.37-8.86Q254.37-8.86 256.09-8.75Q257.81-8.64 260.27-8.53Q262.72-8.42 264.92-8.35Q267.11-8.28 268.07-8.28L268.07-8.28Q270.78-8.28 270.78-10.99L270.78-10.99L270.78-28.20Q266.82-24.90 262.24-21.90Q257.67-18.90 252.61-16.48L252.61-16.48L252.61-7.62Q252.61-1.25 251.29 3.30Q249.98 7.84 245.58 10.58Q241.19 13.33 232.03 14.28L232.03 14.28Q231.81 9.52 231.26 5.97Q230.71 2.42 229.47 0.29L229.47 0.29Q228.15-2.05 226.03-3.55Q223.90-5.05 219.73-5.86L219.73-5.86L219.73-8.13Q219.73-8.13 222.47-7.91Q225.22-7.69 228.33-7.51Q231.45-7.32 232.62-7.32L232.62-7.32Q235.18-7.32 235.18-10.03L235.18-10.03L235.18-25.93Q230.13-22.12 224.01-18.60Q217.90-15.09 211.38-12.60L211.38-12.60L209.84-14.28L213.43-18.46L196.36-18.46L196.36 10.03Q196.22 10.69 191.82 12.41Q187.43 14.14 179.52 14.14L179.52 14.14L175.63 14.14L175.63-18.46L155.13-18.46L153.88-22.63L175.63-22.63L175.63-40.80Q175.63-40.06 173.44-38.78Q171.24-37.50 167.83-36.44Q164.43-35.38 160.77-35.38L160.77-35.38L158.28-35.38L158.28-93.16L175.63-86.28L175.63-102.03L155.27-102.03L154.03-106.20L175.63-106.20L175.63-128.25L201.93-126.27Q201.71-124.58 200.61-123.56Q199.51-122.53 196.36-121.95L196.36-121.95L196.36-107.08L205.37-119.38Q205.37-119.38 207.13-117.92Q208.89-116.46 211.60-114.15Q214.31-111.84 217.27-109.24Q220.24-106.64 222.58-104.37L222.58-104.37Q221.92-102.03 218.41-102.03L218.41-102.03L196.36-102.03L196.36-87.60L203.25-95.07L217.38-84.45Q223.39-90.60 228.66-98.33Q233.94-106.05 237.49-113.89Q241.04-121.73 242.07-128.10L242.07-128.10L267.48-122.83Q267.11-121.58 265.87-120.89Q264.62-120.19 261.62-119.82L261.62-119.82Q265.21-114.77 271.55-111.00Q277.88-107.23 285.13-104.88Q292.38-102.54 298.68-101.51L298.68-101.51L298.83-99.76Q293.26-97.71 290.22-92.58Q287.18-87.45 286.67-81.74L286.67-81.74Q277.00-87.23 270.01-97.01Q263.01-106.79 260.08-118.51ZM261.62-71.12L261.62-71.12L270.78-65.84L270.78-73.68L258.76-73.68Q257.96-72.73 256.42-71.92Q254.88-71.12 252.61-70.68L252.61-70.68L252.61-48.12Q255.62-53.76 258.03-60.13Q260.45-66.50 261.62-71.12ZM228.74-44.97L228.74-44.97L235.18-41.24L235.18-53.10Q230.93-49.58 225.77-46.40Q220.61-43.21 214.97-40.94L214.97-40.94L213.87-42.11Q212.11-41.16 207.68-39.84Q203.25-38.53 199.51-38.53L199.51-38.53L196.36-38.53L196.36-23.73L204.93-36.18Q204.93-36.18 206.91-34.39Q208.89-32.59 211.89-29.92Q214.89-27.25 217.82-24.46L217.82-24.46Q225.37-35.52 228.74-44.97ZM262.94-46.80L262.94-46.80L270.78-42.48L270.78-54.57Q266.89-51.34 262.21-48.19Q257.52-45.04 252.61-42.63L252.61-42.63L252.61-23.22Q256.20-29.00 258.91-35.41Q261.62-41.82 262.94-46.80ZM175.63-45.48L196.36-45.48L196.36-61.52L175.63-61.52L175.63-45.48ZM175.63-65.70L196.36-65.70L196.36-81.74L175.63-81.74L175.63-65.70ZM311.28-33.03L311.28-33.03Q312.96-33.03 313.77-33.40Q314.58-33.76 315.89-36.04L315.89-36.04Q316.77-37.57 317.58-39.04Q318.38-40.50 319.67-43.40Q320.95-46.29 323.40-51.93Q325.85-57.57 329.99-67.31Q334.13-77.05 340.65-92.43L340.65-92.43L342.92-91.92Q341.46-86.13 339.62-78.52Q337.79-70.90 336.00-63.28Q334.20-55.66 332.85-49.58Q331.49-43.51 330.91-40.80L330.91-40.80Q330.25-37.28 329.77-33.62Q329.30-29.96 329.37-27.17L329.37-27.17Q329.52-22.85 331.27-19.19Q333.03-15.53 334.61-10.91Q336.18-6.30 335.82 0.73L335.82 0.73Q335.60 6.74 331.75 10.33Q327.91 13.92 322.19 13.92L322.19 13.92Q319.63 13.92 316.99 12.16Q314.36 10.40 313.33 6.01L313.33 6.01Q314.87-2.05 315.20-9.30Q315.53-16.55 314.76-21.53Q313.99-26.51 312.30-27.76L312.30-27.76Q309.59-29.88 304.61-30.32L304.61-30.32L304.61-33.03Q304.61-33.03 305.93-33.03Q307.25-33.03 308.83-33.03Q310.40-33.03 311.28-33.03ZM309.45-126.64L310.62-127.37Q321.39-125.68 327.47-122.28Q333.54-118.87 335.85-114.81Q338.16-110.74 337.61-107.04Q337.06-103.34 334.42-100.89Q331.79-98.44 327.91-98.25Q324.02-98.07 319.78-101.22L319.78-101.22Q318.82-108.03 315.71-114.77Q312.60-121.51 309.45-126.64L309.45-126.64ZM302.71-92.07L304.03-92.87Q314.06-90.89 319.59-87.45Q325.12-84.01 327.14-80.05Q329.15-76.10 328.38-72.55Q327.61-68.99 324.98-66.80Q322.34-64.60 318.60-64.60Q314.87-64.60 310.99-67.82L310.99-67.82Q310.69-74.19 308.28-80.79Q305.86-87.38 302.71-92.07L302.71-92.07ZM363.72-29.08L363.72-29.08L365.55-29.08Q369.21-18.09 369.32-10.62Q369.43-3.15 367.20 1.32Q364.97 5.79 361.56 7.58Q358.15 9.38 354.71 9.01Q351.27 8.64 348.93 6.48Q346.58 4.32 346.55 0.77Q346.51-2.78 349.95-7.18L349.95-7.18Q354.93-9.81 358.78-15.20Q362.62-20.58 363.72-29.08ZM373.68-26.88L375.44-27.47Q383.86-21.90 387.27-16.15Q390.67-10.40 390.45-5.57Q390.23-0.73 387.67 2.20Q385.11 5.13 381.52 5.13Q377.93 5.13 374.71 1.03L374.71 1.03Q376.03-5.93 375.59-13.48Q375.15-21.02 373.68-26.88L373.68-26.88ZM377.56-107.52L377.56-108.76L377.56-116.53L394.92-109.50Q395.29-113.89 395.51-119.02Q395.73-124.15 395.87-128.10L395.87-128.10L421.95-124.22Q421.58-122.75 420.30-121.73Q419.02-120.70 416.53-120.63L416.53-120.63Q413.16-117.99 408.62-114.77Q404.08-111.55 399.61-108.76L399.61-108.76L417.11-108.76L425.68-117.77L443.12-104.74Q442.53-104.00 441.39-103.31Q440.26-102.61 438.43-102.32L438.43-102.32L438.43-70.39Q438.43-70.02 437.22-69.40Q436.01-68.77 434.11-68.12L434.11-68.12Q436.45-66.21 440.52-62.66Q444.58-59.11 447.73-56.10L447.73-56.10Q447.07-53.69 443.70-53.69L443.70-53.69L396.31-53.69L396.31-43.21L422.09-43.21L431.84-52.37L448.83-38.53Q446.92-36.47 442.82-35.82L442.82-35.82Q442.09-21.17 440.88-12.16Q439.67-3.15 437.44 1.79Q435.21 6.74 431.54 9.30L431.54 9.30Q425.02 14.14 413.67 14.14L413.67 14.14Q413.67 9.96 413.31 6.70Q412.94 3.44 411.62 1.46L411.62 1.46Q410.38-0.44 408.36-1.79Q406.35-3.15 403.05-4.03L403.05-4.03Q401.22-3.59 399.17-4.10Q397.12-4.61 394.92-6.45L394.92-6.45Q395.07-11.87 392.69-17.58Q390.31-23.29 387.16-27.17L387.16-27.17L388.62-28.05Q397.05-26.37 401.70-23.40Q406.35-20.43 408.03-17.07Q409.72-13.70 409.09-10.66Q408.47-7.62 406.35-5.86L406.35-5.86L414.18-5.57Q416.75-5.57 418.21-6.59L418.21-6.59Q420.19-8.35 421.51-16.63L421.51-16.63Q419.90-15.31 417.55-15.01Q415.21-14.72 412.50-16.19L412.50-16.19Q411.47-20.14 408.29-24.24Q405.10-28.34 401.88-30.62L401.88-30.62L403.05-31.64Q411.40-32.30 416.09-30.73Q420.78-29.15 422.68-26.51L422.68-26.51L423.49-38.96L396.31-38.96L396.31-36.62Q396.31-35.60 394.01-34.13Q391.70-32.67 388.07-31.49Q384.45-30.32 380.42-30.32L380.42-30.32L377.56-30.32L377.56-44.09Q372.29-39.92 364.56-34.42Q356.84-28.93 346.51-22.05L346.51-22.05Q345.34-18.97 342.63-18.02L342.63-18.02L331.64-38.82L348.12-41.82L348.12-100.93L339.62-100.93L338.38-105.18L356.98-105.18L365.84-118.65Q365.84-118.65 367.64-117.00Q369.43-115.36 372.14-112.79Q374.85-110.23 377.56-107.52L377.56-107.52ZM418.51-74.56L418.51-87.45L396.31-87.45L396.31-74.56L418.51-74.56ZM396.31-91.63L418.51-91.63L418.51-104.52L396.31-104.52L396.31-91.63ZM418.51-65.84L418.51-70.39L396.31-70.39L396.31-57.93L423.63-57.93L430.22-67.02Q425.90-65.84 421.95-65.84L421.95-65.84L418.51-65.84ZM366.28-100.93L366.28-45.63L377.56-47.97L377.56-100.93L366.28-100.93Z"/>
    </svg>
        