<?xml version="1.0" encoding="UTF-8" standalone="no"?>
        <svg 
    viewBox="3.7353515625 -86.0595703125 448.0224609375 56.9091796875"
    width="444.287109375"
    height="142.96875"
   xmlns="http://www.w3.org/2000/svg"
   xmlns:svg="http://www.w3.org/2000/svg">
   <path d="M13.18-57.42L13.18-90.31L13.18-97.92L33.33-90.31L56.69-90.31L65.41-99.76L84.01-86.13Q83.20-85.18 81.70-84.27Q80.20-83.35 77.86-82.76L77.86-82.76L77.86-63.87Q77.71-63.43 74.85-62.48Q72.00-61.52 68.41-60.72L68.41-60.72L81.88-48.93Q80.49-47.46 76.03-47.24L76.03-47.24Q72.36-45.56 67.57-43.69Q62.77-41.82 57.93-40.36L57.93-40.36L62.84-39.92Q62.26-36.62 57.93-36.04L57.93-36.04L57.93-33.33L88.48-35.38L88.48-101.37Q87.38-100.93 85.99-100.93L85.99-100.93L4.98-100.93L3.74-105.18L34.79-105.18L34.79-127.37L61.23-125.39Q61.08-123.85 60.02-122.75Q58.96-121.66 55.81-121.22L55.81-121.22L55.81-105.18L62.26-105.18L72.29-118.95Q72.29-118.95 74.96-116.71Q77.64-114.48 81.41-111.22Q85.18-107.96 88.48-104.88L88.48-104.88L88.48-123.78L110.52-113.67L118.07-113.67L128.69-124.22L149.56-105.76Q147.95-103.56 142.68-103.34L142.68-103.34Q139.75-98.51 135.68-92.21Q131.62-85.91 127.04-79.54Q122.46-73.17 117.92-68.12L117.92-68.12Q127.08-63.35 132.86-56.65Q138.65-49.95 141.39-42.66Q144.14-35.38 144.14-28.93L144.14-28.93Q144.14-21.31 141.69-15.45Q139.23-9.59 133.56-6.26Q127.88-2.93 118.21-2.86L118.21-2.86Q118.21-5.93 117.96-9.63Q117.70-13.33 117.19-16.44Q116.67-19.56 115.94-21.02L115.94-21.02Q114.04-24.32 109.20-25.78L109.20-25.78L109.20-27.47Q111.11-27.47 113.82-27.47Q116.53-27.47 117.77-27.47L117.77-27.47Q119.60-27.47 120.78-28.20L120.78-28.20Q122.24-29.08 123.01-30.80Q123.78-32.52 123.78-35.67L123.78-35.67Q123.78-43.43 121.58-52.04Q119.38-60.64 113.96-67.68L113.96-67.68Q115.06-72.95 116.20-80.38Q117.33-87.82 118.25-95.54Q119.17-103.27 119.53-109.50L119.53-109.50L108.62-109.50L108.62 8.42Q108.62 9.08 106.64 10.55Q104.66 12.01 101.00 13.29Q97.34 14.58 92.29 14.58L92.29 14.58L88.48 14.58L88.48-33.18Q82.54-30.98 74.96-28.67Q67.38-26.37 57.93-23.73L57.93-23.73L57.93-7.03Q57.93-0.51 56.18 3.92Q54.42 8.35 49.04 10.91Q43.65 13.48 32.67 14.43L32.67 14.43Q32.23 10.03 31.53 6.92Q30.83 3.81 28.93 1.68L28.93 1.68Q27.17-0.29 24.39-1.83Q21.61-3.37 15.75-4.32L15.75-4.32L15.75-6.30Q15.75-6.30 18.24-6.15Q20.73-6.01 24.17-5.79Q27.61-5.57 30.69-5.42Q33.76-5.27 34.94-5.27L34.94-5.27Q37.50-5.27 37.50-7.47L37.50-7.47L37.50-18.31L16.92-13.04Q15.38-10.11 12.45-9.59L12.45-9.59L3.74-30.76Q9.16-30.83 17.87-31.20Q26.59-31.57 37.50-32.23L37.50-32.23L37.50-41.82L50.10-40.94Q51.71-42.99 53.25-45.26Q54.79-47.53 56.10-49.66L56.10-49.66L10.33-49.66L9.01-53.83L56.84-53.83L62.99-59.99L61.67-59.99L58.23-59.99L58.23-66.72L32.67-66.72L32.67-63.13Q32.67-62.33 30.14-60.97Q27.61-59.62 23.73-58.52Q19.85-57.42 15.89-57.42L15.89-57.42L13.18-57.42ZM32.67-70.97L58.23-70.97L58.23-86.13L32.67-86.13L32.67-70.97ZM174.02-118.80L174.02-118.80L175.78-118.80Q177.25-115.80 178.20-112.87Q179.15-109.94 179.88-107.23L179.88-107.23L213.43-107.23L213.43-128.39L241.33-126.42Q241.26-124.88 240.20-123.78Q239.14-122.68 235.99-122.09L235.99-122.09L235.99-107.23L267.77-107.23L277.95-117.48L295.68-100.78Q294.73-99.76 293.44-99.43Q292.16-99.10 289.82-98.88L289.82-98.88Q286.08-96.24 280.92-93.38Q275.76-90.53 270.63-88.18L270.63-88.18L275.83-83.86Q275.61-82.62 274.40-82.03Q273.19-81.45 271.66-81.45L271.66-81.45L236.43-81.45Q238.62-72.66 242.18-65.22Q245.73-57.79 250.20-51.64L250.20-51.64Q255.69-58.45 260.85-66.06Q266.02-73.68 268.80-79.03L268.80-79.03L291.87-62.84Q291.36-61.82 290.04-61.30Q288.72-60.79 286.08-61.38L286.08-61.38Q279.79-57.64 271.40-53.69Q263.01-49.73 254.08-46.51L254.08-46.51Q262.87-36.04 273.93-28.71Q284.99-21.39 296.70-16.19L296.70-16.19L296.26-14.58Q282.35-12.67 276.27 2.86L276.27 2.86Q264.84-6.23 256.42-17.54Q248.00-28.86 242.43-44.35Q236.87-59.84 233.86-81.45L233.86-81.45L233.57-81.45Q226.17-74.71 215.41-68.99L215.41-68.99Q224.34-62.33 230.02-53.91Q235.69-45.48 238.62-36.55Q241.55-27.61 242.03-19.15Q242.50-10.69 241.00-3.85Q239.50 3.00 236.43 7.03L236.43 7.03Q233.28 11.13 226.90 12.71Q220.53 14.28 211.67 14.28L211.67 14.28Q211.45 5.27 207.93 0.88L207.93 0.88Q204.93-2.78 195.12-5.57L195.12-5.57L195.12-7.03Q198.27-6.74 202.11-6.48Q205.96-6.23 209.33-6.04Q212.70-5.86 214.53-5.86L214.53-5.86Q216.06-5.86 217.24-6.19Q218.41-6.52 218.99-7.47L218.99-7.47Q220.02-9.52 220.75-12.93Q221.48-16.33 221.70-20.87L221.70-20.87Q207.50-13.40 189.88-7.73Q172.27-2.05 153.88 0.44L153.88 0.44L153.00-1.32Q165.97-5.64 178.56-12.41Q191.16-19.19 201.86-27.50Q212.55-35.82 219.87-44.68L219.87-44.68L219.43-46.66Q211.30-42.11 201.16-37.90Q191.02-33.69 180.03-30.25Q169.04-26.81 158.28-24.61L158.28-24.61L157.47-26.22Q167.72-30.76 178.02-37.54Q188.31-44.31 197.17-52.04Q206.03-59.77 211.96-67.24L211.96-67.24Q200.46-61.38 186.91-56.95Q173.36-52.51 159.01-49.51L159.01-49.51L158.28-51.12Q171.75-56.91 183.69-65.19Q195.63-73.46 203.83-81.45L203.83-81.45L178.78-81.45L177.61-85.62L246.61-85.62L257.08-99.02L265.06-92.72Q266.09-95.29 266.89-97.92Q267.70-100.56 268.36-103.05L268.36-103.05L180.47-103.05Q181.57-94.63 179.08-88.81Q176.59-82.98 172.19-80.42L172.19-80.42Q169.34-78.59 166.00-78.66Q162.67-78.74 159.85-80.53Q157.03-82.32 155.86-85.77L155.86-85.77Q154.39-90.75 156.74-94.37Q159.08-98.00 163.33-100.05L163.33-100.05Q165.89-101.44 168.46-104.30Q171.02-107.15 172.67-110.93Q174.32-114.70 174.02-118.80ZM376.83-111.47L378.88-128.10L404.22-125.10Q403.56-121.29 398.22-120.63L398.22-120.63L397.05-111.47L407.08-111.47L416.09-120.78L433.81-107.52Q433.15-106.79 431.76-105.98Q430.37-105.18 428.10-104.74L428.10-104.74L428.10-90.45L434.99-102.47Q434.99-102.47 437.26-100.01Q439.53-97.56 442.57-94.15Q445.61-90.75 447.73-87.89L447.73-87.89Q447.07-85.47 443.85-85.47L443.85-85.47L354.93-85.47L353.69-89.72L373.68-89.72L376.17-107.23L364.53-107.23L363.13-111.47L376.83-111.47ZM393.75-89.72L408.62-89.72L408.62-107.23L396.46-107.23L393.75-89.72ZM364.82-10.77L364.82-33.76L364.82-41.67L386.43-33.76L395.21-33.76L395.21-47.97L413.09-46.51L413.09-50.24L381.59-50.24Q381.59-49.44 379.03-48.05Q376.46-46.66 372.55-45.52Q368.63-44.38 364.67-44.38L364.67-44.38L361.96-44.38L361.96-82.62L382.47-74.85L411.62-74.85L420.63-84.74L439.67-70.53Q438.94-69.58 437.48-68.70Q436.01-67.82 433.67-67.38L433.67-67.38L433.67-51.12Q433.67-50.61 430.81-49.48Q427.95-48.34 424.00-47.35Q420.04-46.36 416.67-46.36L416.67-46.36L415.06-46.36L420.48-45.92Q420.19-44.68 419.38-43.80Q418.58-42.92 416.24-42.48L416.24-42.48L416.24-33.76L420.63-33.76L429.27-44.97Q429.27-44.97 431.98-42.85Q434.69-40.72 438.32-37.68Q441.94-34.64 444.87-31.93L444.87-31.93Q444.43-29.52 440.84-29.52L440.84-29.52L416.24-29.52L416.24-10.77L422.53-10.77L431.69-23.07Q431.69-23.07 434.51-20.76Q437.33-18.46 441.14-15.16Q444.95-11.87 448.02-9.01L448.02-9.01Q447.36-6.59 443.85-6.59L443.85-6.59L416.24-6.59L416.24 9.45Q416.24 10.11 413.56 11.28Q410.89 12.45 406.90 13.44Q402.91 14.43 399.02 14.43L399.02 14.43L395.21 14.43L395.21-6.59L349.80-6.59L348.63-10.77L364.82-10.77ZM384.30-10.77L395.21-10.77L395.21-29.52L384.30-29.52L384.30-10.77ZM381.59-70.68L381.59-54.42L413.09-54.42L413.09-70.68L381.59-70.68ZM311.13-1.98L302.12-26.07L319.48-29.22L319.48-65.84L306.74-65.84L305.57-70.02L319.48-70.02L319.48-107.52L305.27-107.52L304.03-111.77L334.50-111.77L343.95-125.68Q343.95-125.68 345.67-124.15Q347.39-122.61 350.02-120.19Q352.66-117.77 355.52-115.03Q358.37-112.28 360.57-109.94L360.57-109.94Q360.13-107.52 356.54-107.52L356.54-107.52L340.50-107.52L340.50-72.73L346.51-82.76Q346.51-82.76 348.85-80.35Q351.20-77.93 354.31-74.52Q357.42-71.12 359.69-68.26L359.69-68.26Q359.25-65.84 355.81-65.84L355.81-65.84L340.50-65.84L340.50-33.47L359.69-37.65L359.99-36.18Q353.47-30.98 342.44-23.36Q331.42-15.75 315.45-6.15L315.45-6.15Q314.21-2.64 311.13-1.98L311.13-1.98Z"/>
    </svg>
        