<?xml version="1.0" encoding="UTF-8" standalone="no"?>
        <svg 
    viewBox="3.4423828125 -86.865234375 446.8505859375 57.12890625"
    width="443.408203125"
    height="143.994140625"
   xmlns="http://www.w3.org/2000/svg"
   xmlns:svg="http://www.w3.org/2000/svg">
   <path d="M15.75-30.18L17.29-30.91Q25.71-28.71 30.10-25.56Q34.50-22.41 35.78-19.01Q37.06-15.60 36.00-12.74Q34.94-9.89 32.34-8.28Q29.74-6.67 26.40-7.03Q23.07-7.40 19.92-10.47L19.92-10.47Q20.29-15.67 18.97-20.98Q17.65-26.29 15.75-30.18L15.75-30.18ZM120.92-10.03L120.92-125.98L145.97-123.63Q145.75-121.95 144.47-120.89Q143.19-119.82 140.41-119.38L140.41-119.38L140.41-8.72Q140.41-1.98 138.79 2.78Q137.18 7.54 132.02 10.33Q126.86 13.11 116.09 14.14L116.09 14.14Q115.80 9.23 115.06 5.79Q114.33 2.34 112.50 0L112.50 0Q110.67-2.27 107.96-3.85Q105.25-5.42 99.61-6.45L99.61-6.45L99.61-8.42Q99.61-8.42 101.92-8.28Q104.22-8.13 107.48-7.95Q110.74-7.76 113.71-7.62Q116.67-7.47 117.92-7.47L117.92-7.47Q120.92-7.47 120.92-10.03L120.92-10.03ZM34.79-129.13L34.79-129.13L46.51-118.36L72.73-118.36L80.71-125.98L94.92-114.48L94.92-116.09L118.21-113.96Q117.99-112.57 116.97-111.55Q115.94-110.52 113.23-110.08L113.23-110.08L113.23-27.76Q113.23-27.03 110.96-25.82Q108.69-24.61 105.29-23.62Q101.88-22.63 98.36-22.63L98.36-22.63L94.92-22.63L94.92-114.18Q93.46-112.43 89.72-111.77L89.72-111.77Q88.92-95.65 87.34-87.74Q85.77-79.83 81.59-76.68L81.59-76.68Q79.10-74.85 75.95-74.16Q72.80-73.46 69.29-73.32L69.29-73.32Q69.29-75.81 68.88-78.11Q68.48-80.42 67.53-81.88L67.53-81.88Q65.33-85.25 60.13-86.87L60.13-86.87L60.13-88.77Q62.40-88.55 64.97-88.44Q67.53-88.33 68.99-88.33L68.99-88.33Q70.24-88.33 70.83-89.28L70.83-89.28Q72.07-90.82 72.88-96.64Q73.68-102.47 74.12-114.18L74.12-114.18L68.55-114.18Q67.75-104.15 63.98-95.21Q60.21-86.28 49.95-80.13L49.95-80.13L64.67-77.27Q64.23-75.81 62.55-74.93Q60.86-74.05 57.28-73.97L57.28-73.97Q69.51-72.95 76.61-70.13Q83.72-67.31 86.68-63.61Q89.65-59.91 89.54-56.32Q89.43-52.73 87.12-50.17Q84.81-47.61 81.30-47.02Q77.78-46.44 74.12-48.93L74.12-48.93L73.97-49.22Q73.32-47.53 70.53-47.53L70.53-47.53L56.69-47.53L56.69-37.06L63.87-37.06L71.85-46.95Q71.85-46.95 74.38-45.04Q76.90-43.14 80.38-40.43Q83.86-37.72 86.72-35.23L86.72-35.23Q86.06-32.89 82.62-32.89L82.62-32.89L56.69-32.89L56.69-7.62L58.96-7.76Q60.64-12.89 62.18-19.52Q63.72-26.15 64.67-31.35L64.67-31.35L85.47-24.17Q84.96-22.92 83.57-22.16Q82.18-21.39 79.83-21.61L79.83-21.61Q76.54-18.68 71.92-15.01Q67.31-11.35 62.55-8.13L62.55-8.13L91.63-10.18L91.77-8.13Q79.76-4.25 61.93 0.55Q44.09 5.35 18.31 11.43L18.31 11.43Q16.70 14.14 13.77 14.87L13.77 14.87L6.30-4.98Q11.50-5.05 19.78-5.46Q28.05-5.86 38.38-6.45L38.38-6.45L38.38-32.89L9.30-32.89L8.13-37.06L38.38-37.06L38.38-47.53L26.07-47.53L25.49-49.51Q20.58-46.66 15.31-44.31Q10.03-41.97 4.61-40.06L4.61-40.06L3.74-41.24Q10.99-46.80 17.47-54.09Q23.95-61.38 29.00-68.88Q34.06-76.39 36.91-82.62L36.91-82.62L47.97-80.57L47.09-81.45Q48.19-83.28 49.04-85.07Q49.88-86.87 50.54-88.77L50.54-88.77Q48.63-86.13 44.97-85.51Q41.31-84.89 37.50-88.04L37.50-88.04L37.21-91.63Q33.84-87.96 28.97-82.91Q24.10-77.86 17.58-71.70L17.58-71.70Q16.85-68.48 14.43-67.53L14.43-67.53L3.44-84.16L10.33-86.13L10.33-123.12L26.51-118.80Q29.15-121.73 31.35-124.55Q33.54-127.37 34.79-129.13ZM73.17-51.12L73.17-51.12Q70.97-56.10 66.58-62.00Q62.18-67.90 56.25-72.73L56.25-72.73Q51.20-67.46 44.35-62.04Q37.50-56.62 29.37-51.78L29.37-51.78L52.66-51.78L60.28-61.38Q60.28-61.38 62.40-59.77Q64.53-58.15 67.53-55.81Q70.53-53.47 73.17-51.12ZM30.62-107.67L32.08-108.47Q42.77-106.42 47.24-102.36Q51.71-98.29 52.08-94.34L52.08-94.34Q53.03-99.10 53.32-104.04Q53.61-108.98 53.69-114.18L53.69-114.18L50.10-114.18Q48.71-112.94 45.63-114.18L45.63-114.18Q42.70-113.23 37.61-112.32Q32.52-111.40 27.03-110.67L27.03-110.67L27.03-91.48L36.47-94.78Q35.52-98.36 33.95-101.81Q32.37-105.25 30.62-107.67L30.62-107.67ZM164.28 6.15L163.04 1.98L212.70 1.98L212.70-67.68L156.30-67.68L155.13-71.85L212.70-71.85L212.70-125.98L242.29-123.27Q241.99-121.58 240.93-120.48Q239.87-119.38 236.72-118.95L236.72-118.95L236.72-71.85L260.52-71.85L272.83-87.60Q272.83-87.60 275.10-85.88Q277.37-84.16 280.85-81.45Q284.33-78.74 288.13-75.73Q291.94-72.73 295.02-70.02L295.02-70.02Q294.36-67.68 290.55-67.68L290.55-67.68L236.72-67.68L236.72 1.98L253.78 1.98L266.24-13.92Q266.24-13.92 268.51-12.23Q270.78-10.55 274.29-7.80Q277.81-5.05 281.62-2.01Q285.42 1.03 288.57 3.74L288.57 3.74Q287.92 6.15 284.11 6.15L284.11 6.15L164.28 6.15ZM323.88-76.98L323.88-76.98L325.63-77.12Q326.66-74.85 327.47-72.80Q328.27-70.75 328.78-68.70L328.78-68.70L419.24-68.70L429.42-78.74L446.85-62.26Q445.46-60.64 440.99-60.42L440.99-60.42Q437.84-58.81 433.56-56.87Q429.27-54.93 424.88-53.10Q420.48-51.27 416.82-50.10L416.82-50.10L415.65-50.98Q416.53-53.69 417.66-57.42Q418.80-61.16 419.68-64.53L419.68-64.53L400.05-64.53Q402.76-62.48 407.08-59.11Q411.40-55.74 414.92-52.81L414.92-52.81Q414.26-50.39 410.67-50.39L410.67-50.39L388.77-50.39Q391.04-44.24 394.26-39.33Q397.49-34.42 401.37-30.47L401.37-30.47Q406.79-35.08 411.91-40.54Q417.04-46.00 419.97-49.95L419.97-49.95L440.11-34.94Q439.53-33.91 438.24-33.47Q436.96-33.03 434.40-33.62L434.40-33.62Q428.69-31.57 421.11-29.74Q413.53-27.91 405.91-26.51L405.91-26.51Q413.67-20.36 423.41-16.70Q433.15-13.04 443.85-10.62L443.85-10.62L443.70-9.01Q437.62-7.40 433.41-2.60Q429.20 2.20 427.22 9.59L427.22 9.59Q416.02 3.81 407.89-3.70Q399.76-11.21 394.45-22.41Q389.14-33.62 386.28-50.39L386.28-50.39L383.28-50.39Q380.64-48.85 377.64-47.46Q374.63-46.07 371.41-44.68L371.41-44.68Q379.39-38.89 383.94-31.46Q388.48-24.02 390.09-16.44Q391.70-8.86 390.82-2.34Q389.94 4.17 387.01 8.13L387.01 8.13Q384.30 11.72 378.44 13.00Q372.58 14.28 364.53 14.28L364.53 14.28Q364.31 6.45 361.23 2.71L361.23 2.71Q359.99 1.32 357.13-0.04Q354.27-1.39 350.54-2.56L350.54-2.56L350.54-3.44Q328.78 3.66 306.30 6.88L306.30 6.88L305.42 4.83Q317.36 1.25 329.48-4.17Q341.60-9.59 352.40-16.08Q363.21-22.56 371.12-29.22L371.12-29.22L370.83-30.62Q362.18-26.51 351.71-23.00Q341.24-19.48 330.03-16.88Q318.82-14.28 308.13-12.89L308.13-12.89L307.32-15.16Q317.07-17.87 327.10-22.01Q337.13-26.15 346.22-31.20Q355.30-36.25 362.11-41.53L362.11-41.53Q351.49-38.31 339.40-36.22Q327.32-34.13 314.72-33.03L314.72-33.03L313.92-34.79Q324.98-37.65 334.79-41.78Q344.60-45.92 352.08-50.39L352.08-50.39L333.62-50.39L332.37-54.57L387.45-54.57L395.58-64.53L329.74-64.53Q330.91-56.03 328.16-50.35Q325.42-44.68 320.73-42.92L320.73-42.92Q316.19-41.09 311.57-42.99Q306.96-44.90 305.86-50.10L305.86-50.10Q304.76-55.15 307.43-58.45Q310.11-61.74 314.43-63.28L314.43-63.28Q318.02-64.75 321.17-68.48Q324.32-72.22 323.88-76.98ZM372.00-11.72L372.00-11.72Q367.38-9.59 362.33-7.65Q357.28-5.71 351.93-3.88L351.93-3.88Q355.59-3.59 360.31-3.37Q365.04-3.15 367.02-3.15L367.02-3.15Q369.65-3.15 370.39-4.32L370.39-4.32Q371.56-6.74 372.00-11.72ZM333.33-70.02L333.33-98.07L333.33-106.35L355.66-98.07L394.48-98.07L403.05-107.08L309.16-107.08L307.98-111.33L363.43-111.33L363.43-128.69L391.19-126.78Q391.11-125.17 390.01-124.07Q388.92-122.97 385.77-122.39L385.77-122.39L385.77-111.33L413.53-111.33L424.37-125.83Q424.37-125.83 426.38-124.26Q428.39-122.68 431.51-120.15Q434.62-117.63 437.99-114.81Q441.36-111.99 444.14-109.50L444.14-109.50Q443.48-107.08 439.82-107.08L439.82-107.08L404.08-107.08L422.09-93.90Q421.51-93.24 420.45-92.50Q419.38-91.77 417.48-91.33L417.48-91.33L417.48-76.68Q417.41-76.03 414.33-74.96Q411.25-73.90 407.15-73.02Q403.05-72.14 399.76-72.14L399.76-72.14L395.87-72.14L395.87-77.27L354.57-77.27L354.57-76.17Q354.57-75.37 351.75-73.90Q348.93-72.44 344.68-71.23Q340.43-70.02 336.18-70.02L336.18-70.02L333.33-70.02ZM354.57-93.90L354.57-81.45L395.87-81.45L395.87-93.90L354.57-93.90Z"/>
    </svg>
        