<?xml version="1.0" encoding="UTF-8" standalone="no"?>
        <svg 
    viewBox="2.8564453125 -86.1328125 448.3175223214285 57.275390625"
    width="445.4610770089285"
    height="143.408203125"
   xmlns="http://www.w3.org/2000/svg"
   xmlns:svg="http://www.w3.org/2000/svg">
   <path d="M31.49-128.39L31.49-128.39L56.10-115.06Q55.66-113.89 54.46-113.31Q53.25-112.72 50.39-112.94L50.39-112.94Q45.04-108.11 37.76-102.61Q30.47-97.12 22.08-92.03Q13.70-86.94 5.27-83.13L5.27-83.13L4.03-84.45Q9.38-90.75 14.69-98.77Q20.00-106.79 24.43-114.66Q28.86-122.53 31.49-128.39ZM108.62-39.77L109.94-40.50Q122.90-37.13 130.44-32.08Q137.99-27.03 141.17-21.50Q144.36-15.97 144.10-11.06Q143.85-6.15 141.06-3.00Q138.28 0.15 133.89 0.48Q129.49 0.81 124.51-3.00L124.51-3.00Q122.68-12.60 118.07-22.30Q113.45-32.01 108.62-39.77L108.62-39.77ZM34.20-99.61L34.20-99.61L59.25-85.99Q58.81-84.81 57.50-84.16Q56.18-83.50 53.39-83.72L53.39-83.72Q50.39-79.98 46.69-75.81Q42.99-71.63 38.82-67.53L38.82-67.53L47.09-64.53Q46.44-62.33 42.48-61.52L42.48-61.52L42.48 6.88Q42.41 7.76 39.99 9.52Q37.57 11.28 33.73 12.71Q29.88 14.14 25.34 14.14L25.34 14.14L21.46 14.14L21.46-52.08Q13.04-45.34 4.17-40.21L4.17-40.21L2.86-41.53Q7.76-47.83 12.49-55.37Q17.21-62.92 21.39-70.86Q25.56-78.81 28.86-86.21Q32.15-93.60 34.20-99.61ZM60.57-43.80L60.57-43.80L84.89-34.35L84.89-49.22L50.68-49.22L49.51-53.39L84.89-53.39L84.89-72.73L66.28-72.73L65.41-75.73Q61.23-73.02 57.06-70.61Q52.88-68.19 48.78-66.14L48.78-66.14L47.83-67.53Q53.91-73.32 59.77-80.90Q65.63-88.48 70.57-96.72Q75.51-104.96 78.96-112.94Q82.40-120.92 83.57-127.51L83.57-127.51L112.06-120.78Q111.69-119.38 110.30-118.65Q108.91-117.92 105.47-117.48L105.47-117.48Q109.79-110.45 117.26-105.21Q124.73-99.98 133.19-96.42Q141.65-92.87 148.97-90.89L148.97-90.89L148.97-88.92Q142.46-86.79 138.61-80.86Q134.77-74.93 133.96-68.41L133.96-68.41Q130.37-71.12 126.93-74.56L126.93-74.56Q126.12-72.73 123.12-72.73L123.12-72.73L106.49-72.73L106.49-53.39L117.11-53.39L127.08-66.28Q127.08-66.28 128.87-64.86Q130.66-63.43 133.45-61.19Q136.23-58.96 139.31-56.40Q142.38-53.83 144.87-51.64L144.87-51.64Q144.21-49.22 140.70-49.22L140.70-49.22L106.49-49.22L106.49-8.72Q106.49-2.12 104.74 2.71Q102.98 7.54 97.49 10.44Q91.99 13.33 80.86 14.14L80.86 14.14Q80.64 9.52 80.09 6.12Q79.54 2.71 77.86 0.59L77.86 0.59Q76.39-1.39 73.86-3.04Q71.34-4.69 65.70-5.71L65.70-5.71L65.70-7.47Q65.70-7.47 67.79-7.36Q69.87-7.25 72.77-7.07Q75.66-6.88 78.33-6.74Q81.01-6.59 82.18-6.59L82.18-6.59Q84.89-6.59 84.89-9.16L84.89-9.16L84.89-32.23Q83.94-31.27 80.86-31.05L80.86-31.05Q75.44-21.97 66.47-12.45Q57.50-2.93 45.92 3.15L45.92 3.15L44.68 1.83Q48.93-4.54 52.15-12.67Q55.37-20.80 57.50-29.00Q59.62-37.21 60.57-43.80ZM103.64-115.94L103.64-115.94Q98.36-105.03 88.51-94.92Q78.66-84.81 67.24-76.98L67.24-76.98L100.49-76.98L109.94-88.62L122.68-78.88Q116.09-86.43 111.11-95.95Q106.13-105.47 103.64-115.94ZM157.32-122.83L158.42-123.63Q170.73-122.24 177.80-118.65Q184.86-115.06 187.72-110.52Q190.58-105.98 190.06-101.66Q189.55-97.34 186.66-94.45Q183.76-91.55 179.37-91.26Q174.98-90.97 170.07-94.48L170.07-94.48Q169.12-102.17 165.42-109.75Q161.72-117.33 157.32-122.83L157.32-122.83ZM220.39-88.18L220.39-62.84L232.62-62.84L232.62-88.18L220.39-88.18ZM191.82-55.08L191.82-55.08L191.82-19.34Q193.21-18.09 194.49-17.07Q195.78-16.04 197.24-15.16L197.24-15.16Q205.30-20.00 209.62-25.74Q213.94-31.49 215.73-38.31Q217.53-45.12 217.82-53.39L217.82-53.39Q215.41-52.15 211.49-50.98Q207.57-49.80 203.54-49.80L203.54-49.80L200.83-49.80L200.83-85.03Q197.61-83.28 194.31-81.70Q191.02-80.13 187.50-78.74L187.50-78.74L186.62-79.98Q192.99-85.40 198.85-93.42Q204.71-101.44 209.25-110.56Q213.79-119.68 216.28-128.54L216.28-128.54L245.07-122.68Q244.63-121.44 243.46-120.85Q242.29-120.26 239.28-120.26L239.28-120.26Q237.67-118.07 235.95-115.80Q234.23-113.53 232.32-111.33L232.32-111.33L242.72-111.33L252.91-121.66L270.92-106.35Q269.46-104.66 265.06-104.22L265.06-104.22Q260.67-101.29 254.99-98.07Q249.32-94.85 243.60-92.43L243.60-92.43L262.65-92.43L271.36-101.73L289.38-88.18Q288.79-87.38 287.48-86.57Q286.16-85.77 284.11-85.33L284.11-85.33L284.11-56.98Q284.03-56.40 281.21-55.37Q278.39-54.35 274.58-53.50Q270.78-52.66 267.63-52.66L267.63-52.66L264.18-52.66L264.18-58.67L262.21-58.67L262.21-34.35Q262.21-33.11 262.76-32.59Q263.31-32.08 265.36-32.08L265.36-32.08L272.68-32.08Q274.58-32.08 276.20-32.12Q277.81-32.15 278.69-32.23L278.69-32.23Q280.74-32.23 281.84-33.91L281.84-33.91Q283.01-35.60 284.69-40.03Q286.38-44.46 288.57-50.54L288.57-50.54L290.11-50.54L290.55-33.33Q293.92-31.86 294.95-30.03Q295.97-28.20 295.97-25.49L295.97-25.49Q295.97-20.07 290.52-17.25Q285.06-14.43 270.26-14.43L270.26-14.43L259.79-14.43Q252.76-14.43 249.24-15.78Q245.73-17.14 244.59-20.47Q243.46-23.80 243.46-29.74L243.46-29.74L243.46-58.67L237.89-58.67Q237.08-41.02 228.74-29.92Q220.39-18.82 200.68-13.18L200.68-13.18Q206.98-10.18 216.03-9.38Q225.07-8.57 240.45-8.57L240.45-8.57Q248.80-8.57 258.69-8.57Q268.58-8.57 278.87-8.72Q289.16-8.86 298.68-9.16L298.68-9.16L298.68-7.47Q286.38-4.10 284.99 10.77L284.99 10.77Q278.83 10.77 271.22 10.77Q263.60 10.77 255.69 10.77Q247.78 10.77 240.75 10.77L240.75 10.77Q229.76 10.77 221.81 9.63Q213.87 8.50 208.15 5.49Q202.44 2.49 198.19-3.00Q193.95-8.50 190.21-17.29L190.21-17.29Q186.91-12.60 182.78-7.43Q178.64-2.27 174.57 2.45Q170.51 7.18 167.29 10.47L167.29 10.47Q167.29 12.08 166.48 12.96Q165.67 13.84 164.58 14.43L164.58 14.43L153.74-9.01Q157.32-9.89 161.94-11.39Q166.55-12.89 171.61-14.58L171.61-14.58L171.61-57.71L154.61-57.71L153.74-62.11L169.19-62.11L178.93-75L199.80-58.52Q198.78-57.35 196.95-56.47Q195.12-55.59 191.82-55.08ZM251.37-62.84L264.18-62.84L264.18-88.18L251.37-88.18L251.37-62.84ZM221.41-92.43L232.62-92.43L237.89-92.43Q239.36-95.58 240.75-99.61Q242.14-103.64 243.16-107.08L243.16-107.08L228.59-107.08Q225.59-103.86 222.22-100.74Q218.85-97.63 215.26-94.78L215.26-94.78L221.41-92.43ZM321.90-63.43L321.90-84.89L321.90-89.87L321.46-89.87L318.31-89.87L318.31-123.93L344.68-121.80Q344.46-120.34 343.40-119.24Q342.33-118.14 339.18-117.63L339.18-117.63L339.18-101.07L363.43-101.07L363.43-128.98L390.31-127.08Q390.09-125.46 388.99-124.37Q387.89-123.27 384.74-122.68L384.74-122.68L384.74-101.07L410.08-101.07L410.08-123.93L437.11-121.80Q436.89-120.34 435.83-119.20Q434.77-118.07 431.69-117.63L431.69-117.63L431.69-96.17Q431.69-95.51 428.03-94.30Q424.37-93.09 419.53-92.43L419.53-92.43L433.96-81.01Q432.42-79.03 427.81-78.30L427.81-78.30Q427.37-71.85 427.29-64.20Q427.22-56.54 427.70-48.74Q428.17-40.94 429.31-33.98Q430.44-27.03 432.28-21.94Q434.11-16.85 436.82-14.72L436.82-14.72Q438.72-13.18 439.82-15.75L439.82-15.75Q441.14-18.82 442.35-22.63Q443.55-26.44 444.58-30.62L444.58-30.62L446.12-30.47L444.87-7.32Q447.80-1.25 448.24 3.30Q448.68 7.84 446.56 10.18L446.56 10.18Q443.48 13.33 439.82 13.59Q436.16 13.84 432.50 12.12Q428.83 10.40 425.83 7.62L425.83 7.62Q419.90 2.78 416.16-5.38Q412.43-13.55 410.41-24.02Q408.40-34.50 407.52-46.36L407.52-46.36Q406.64-45.48 404.52-44.97L404.52-44.97L404.52-24.32Q404.44-23.73 402.06-22.63Q399.68-21.53 396.39-20.65Q393.09-19.78 390.31-19.78L390.31-19.78L387.30-19.78L387.30-23.73L382.98-23.73L382.98-8.72L393.31-8.86Q392.43-11.13 391.41-13.29Q390.38-15.45 389.43-17.29L389.43-17.29L390.75-18.02Q400.93-15.45 406.46-11.57Q411.99-7.69 413.85-3.44Q415.72 0.81 414.84 4.47Q413.96 8.13 411.15 10.33Q408.33 12.52 404.48 12.38Q400.63 12.23 396.75 8.72L396.75 8.72Q396.75 5.57 396.24 2.34Q395.73-0.88 394.78-4.03L394.78-4.03Q379.17 1.46 348.78 10.03L348.78 10.03Q347.97 11.50 346.73 12.30Q345.48 13.11 344.24 13.33L344.24 13.33L333.76-8.72Q338.82-8.57 346.98-8.50Q355.15-8.42 365.26-8.57L365.26-8.57L365.26-23.73L360.72-23.73L360.72-19.92Q360.72-19.19 358.59-17.98Q356.47-16.77 353.17-15.82Q349.88-14.87 346.51-14.87L346.51-14.87L344.09-14.87L344.09-57.57L361.52-50.83L365.26-50.83L365.26-61.38Q359.55-61.16 353.76-61.12Q347.97-61.08 342.63-61.23L342.63-61.23L342.11-63.13Q350.10-65.26 358.96-68.30Q367.82-71.34 375.84-74.63Q383.86-77.93 389.28-80.71L389.28-80.71L341.53-80.71L341.53-63.43Q341.53-55.08 340.47-44.86Q339.40-34.64 335.78-23.95Q332.15-13.26 324.61-3.41Q317.07 6.45 304.03 14.14L304.03 14.14L302.86 12.89Q311.50 1.25 315.53-11.94Q319.56-25.12 320.73-38.42Q321.90-51.71 321.90-63.43L321.90-63.43ZM410.08-96.90L339.18-96.90L339.18-94.19Q339.18-93.53 335.96-92.32Q332.74-91.11 328.34-90.45L328.34-90.45L344.53-84.89L404.88-84.89L411.33-91.92L410.08-91.92L410.08-96.90ZM406.64-80.71L390.16-80.71L406.64-63.57L406.64-80.71ZM360.72-46.66L360.72-27.91L367.24-27.91L367.24-46.66L360.72-46.66ZM381.01-27.91L387.30-27.91L387.30-46.66L381.01-46.66L381.01-27.91ZM382.98-50.83L386.13-50.83L393.46-58.52L407.37-48.12Q407.15-51.78 406.97-55.48Q406.79-59.18 406.79-62.99L406.79-62.99Q403.56-60.94 397.05-63.72L397.05-63.72Q391.04-62.84 382.98-62.40L382.98-62.40L382.98-50.83Z"/>
    </svg>
        