<?xml version="1.0" encoding="UTF-8" standalone="no"?>
        <svg 
    viewBox="1.8310546875 -85.9130859375 446.2646484375 57.0556640625"
    width="444.43359375"
    height="142.96875"
   xmlns="http://www.w3.org/2000/svg"
   xmlns:svg="http://www.w3.org/2000/svg">
   <path d="M24.46-90.01L24.46-127.95L50.98-125.39Q50.76-123.71 49.69-122.61Q48.63-121.51 45.48-121.07L45.48-121.07L45.48-91.48L52.66-103.34Q52.66-103.34 55.19-100.78Q57.71-98.22 61.08-94.67Q64.45-91.11 66.87-88.18L66.87-88.18Q66.21-85.77 62.84-85.77L62.84-85.77L45.48-85.77L45.48-73.68Q55.15-71.19 60.24-67.42Q65.33-63.65 67.02-59.69L67.02-59.69L121.36-59.69L127.81-68.26Q125.90-67.90 123.45-67.64Q121.00-67.38 118.21-67.38L118.21-67.38L114.33-67.38L114.33-73.17L88.33-73.17L88.33-70.02Q88.33-69.07 83.86-67.31Q79.39-65.55 71.56-65.55L71.56-65.55L67.82-65.55L67.82-125.54L89.87-117.33L113.67-117.33L123.63-128.39L141.72-114.62Q141.06-113.60 139.78-112.90Q138.50-112.21 135.86-111.77L135.86-111.77L135.86-71.56Q135.86-71.04 133.23-69.87L133.23-69.87Q135.79-67.75 140.00-64.27Q144.21-60.79 147.44-57.93L147.44-57.93Q146.78-55.52 143.26-55.52L143.26-55.52L96.90-55.52Q93.31-49.44 88.04-43.95L88.04-43.95L120.12-43.95L130.37-53.54L147.73-39.18Q145.97-37.13 141.72-36.33L141.72-36.33Q140.99-21.61 139.64-12.56Q138.28-3.52 135.90 1.54Q133.52 6.59 129.57 9.30L129.57 9.30Q122.61 14.14 111.18 14.14L111.18 14.14Q111.25 9.74 110.82 6.26Q110.38 2.78 109.06 0.88L109.06 0.88Q107.67-1.10 105.58-2.60Q103.49-4.10 99.90-5.13L99.90-5.13Q87.89 6.23 69.73 14.43L69.73 14.43L68.41 12.45Q81.37 2.86 89.43-10.62Q97.49-24.10 101.37-39.77L101.37-39.77Q94.63-26.73 82.69-16.44Q70.75-6.15 55.37 1.03L55.37 1.03L53.83-1.03Q63.21-8.28 70.39-18.09Q77.56-27.91 82.18-38.38L82.18-38.38Q75.88-33.11 68.23-28.71Q60.57-24.32 52.08-20.87L52.08-20.87L50.83-22.78Q59.03-29.08 65.19-37.72Q71.34-46.36 75.29-55.52L75.29-55.52L68.12-55.52Q68.26-51.49 65.70-48.74Q63.13-46.00 59.22-45.74Q55.30-45.48 51.27-49.07L51.27-49.07Q51.05-54.42 49.33-59.99Q47.61-65.55 45.48-70.17L45.48-70.17L45.48 8.42Q45.48 9.23 42.92 10.62Q40.36 12.01 36.47 13.15Q32.59 14.28 28.64 14.28L28.64 14.28L24.46 14.28L24.46-43.80Q19.92-37.65 14.69-32.08Q9.45-26.51 3.44-21.61L3.44-21.61L1.83-23.07Q7.03-31.49 11.06-41.89Q15.09-52.29 18.02-63.54Q20.95-74.78 22.78-85.77L22.78-85.77L6.88-85.77L5.71-90.01L24.46-90.01ZM121.36-37.94L121.36-37.94Q118.07-28.93 113.20-21.09Q108.33-13.26 101.51-6.59L101.51-6.59L111.47-6.30Q114.18-6.30 115.65-7.32L115.65-7.32Q117.70-9.01 119.13-16.33Q120.56-23.66 121.36-37.94ZM114.33-93.31L88.33-93.31L88.33-77.42L114.33-77.42L114.33-93.31ZM88.33-113.09L88.33-97.49L114.33-97.49L114.33-113.09L88.33-113.09ZM215.99-69.87L215.11-72.58L255.18-72.58L252.91-73.54Q251.00-78.22 247.67-83.06Q244.34-87.89 240.34-92.21Q236.35-96.53 232.47-99.61L232.47-99.61L233.57-100.63Q242.65-100.63 249.13-99.10Q255.62-97.56 259.79-95.07L259.79-95.07Q262.28-99.46 264.70-104.37Q267.11-109.28 268.80-113.67L268.80-113.67L220.53-113.67L219.14-117.92L268.51-117.92L278.54-127.81L295.68-111.62Q294.73-110.60 293.37-110.23Q292.02-109.86 289.67-109.64L289.67-109.64Q284.91-105.25 277.88-100.52Q270.85-95.80 263.82-92.07L263.82-92.07Q267.70-88.40 268.43-84.38Q269.17-80.35 267.52-77.12Q265.87-73.90 262.50-72.58L262.50-72.58L272.09-72.58L282.28-82.62L299.71-66.14Q298.17-64.38 293.70-64.23L293.70-64.23Q290.41-60.57 285.83-56.36Q281.25-52.15 276.27-48.19Q271.29-44.24 266.67-41.38L266.67-41.38L265.50-42.33Q267.63-47.83 269.64-55.08Q271.66-62.33 272.97-68.41L272.97-68.41L264.18-68.41L264.18-10.18Q264.18-3.52 262.50 1.65Q260.82 6.81 255.54 10.03Q250.27 13.26 239.58 14.14L239.58 14.14Q239.36 9.16 238.66 5.49Q237.96 1.83 236.43-0.44L236.43-0.44Q234.81-2.71 232.10-4.43Q229.39-6.15 223.83-7.18L223.83-7.18L223.83-9.01Q223.83-9.01 225.99-8.86Q228.15-8.72 231.23-8.53Q234.30-8.35 237.08-8.24Q239.87-8.13 241.04-8.13L241.04-8.13Q243.90-8.13 243.90-10.77L243.90-10.77L243.90-68.41L217.68-68.41L225.88-60.86Q225.22-58.52 221.85-58.52L221.85-58.52L198.12-58.52L198.12-39.92L205.37-47.53L222.73-34.50Q222.22-33.84 220.97-33.03Q219.73-32.23 217.82-31.79L217.82-31.79L217.82 6.74Q217.75 7.32 215.00 8.46Q212.26 9.59 208.56 10.51Q204.86 11.43 201.78 11.43L201.78 11.43L198.27 11.43L198.27 0.88L178.64 0.88L178.64 7.76Q178.64 8.72 176.26 10.14Q173.88 11.57 170.10 12.67Q166.33 13.77 162.30 13.77L162.30 13.77L159.59 13.77L159.59-46.22L178.64-38.82L178.64-58.52L155.27-58.52L154.03-62.70L178.64-62.70L178.64-82.47L165.01-82.47Q158.72-78.00 151.98-74.41L151.98-74.41L150.88-75.44Q156.59-82.62 161.28-92.21Q165.97-101.81 169.23-111.47Q172.49-121.14 173.88-128.54L173.88-128.54L202.22-120.78Q201.78-119.17 200.32-118.29Q198.85-117.41 195.63-117.11L195.63-117.11Q206.84-115.28 213.35-112.13Q219.87-108.98 222.66-105.32Q225.44-101.66 225.29-98.07Q225.15-94.48 223.02-91.74Q220.90-88.99 217.68-87.74L217.68-87.74L221.12-84.89Q220.46-82.47 217.02-82.47L217.02-82.47L198.12-82.47L198.12-62.70L202.08-62.70L210.57-74.41L215.99-69.87ZM194.82-115.80L194.82-115.80Q190.80-108.47 184.53-100.89Q178.27-93.31 170.43-86.72L170.43-86.72L197.83-86.72L204.93-95.58Q203.91-100.42 201.45-105.80Q199.00-111.18 194.82-115.80ZM178.64-3.30L198.27-3.30L198.27-34.35L178.64-34.35L178.64-3.30ZM309.59-126.27L310.77-127.08Q321.68-125.54 327.87-122.20Q334.06-118.87 336.40-114.81Q338.75-110.74 338.12-107.01Q337.50-103.27 334.79-100.82Q332.08-98.36 328.09-98.18Q324.10-98.00 319.78-101.22L319.78-101.22Q318.90-107.89 315.82-114.62Q312.74-121.36 309.59-126.27L309.59-126.27ZM301.83-92.72L303.00-93.46Q313.40-91.85 319.15-88.59Q324.90-85.33 326.95-81.41Q329.00-77.49 328.23-73.90Q327.47-70.31 324.72-68.04Q321.97-65.77 318.13-65.73Q314.28-65.70 310.18-68.99L310.18-68.99Q309.89-75.29 307.43-81.70Q304.98-88.11 301.83-92.72L301.83-92.72ZM310.18-33.03L310.18-33.03Q312.01-33.03 312.82-33.40Q313.62-33.76 314.87-36.18L314.87-36.18Q315.82-37.87 316.66-39.51Q317.50-41.16 319.01-44.60Q320.51-48.05 323.33-54.82Q326.15-61.60 331.05-73.39Q335.96-85.18 343.65-103.78L343.65-103.78L346.07-103.20Q344.53-97.63 342.74-90.64Q340.94-83.64 339.11-76.21Q337.28-68.77 335.63-61.96Q333.98-55.15 332.78-49.88Q331.57-44.60 331.05-41.97L331.05-41.97Q330.18-38.09 329.59-34.17Q329.00-30.25 329.08-27.32L329.08-27.32Q329.22-22.85 330.98-19.19Q332.74-15.53 334.39-11.02Q336.04-6.52 335.82 0.44L335.82 0.44Q335.60 6.52 331.71 10.22Q327.83 13.92 321.75 13.92L321.75 13.92Q318.97 13.92 316.26 12.19Q313.55 10.47 312.45 6.01L312.45 6.01Q313.99-1.98 314.36-9.23Q314.72-16.48 313.95-21.50Q313.18-26.51 311.43-27.76L311.43-27.76Q308.50-29.81 303.44-30.32L303.44-30.32L303.44-33.03Q303.44-33.03 304.80-33.03Q306.15-33.03 307.76-33.03Q309.38-33.03 310.18-33.03ZM413.38-81.74L413.38-81.74L422.97-75.73L422.97-95.73L445.39-93.60Q445.09-92.58 444.36-91.77Q443.63-90.97 441.72-90.60L441.72-90.60L441.72 6.45Q441.72 7.25 439.34 8.61Q436.96 9.96 433.48 11.06Q430.00 12.16 426.78 12.16L426.78 12.16L422.97 12.16L422.97 0.73L362.40 0.73L362.40 8.42Q362.40 9.23 360.10 10.58Q357.79 11.94 354.42 13.04Q351.05 14.14 347.83 14.14L347.83 14.14L344.24 14.14L344.24-95.21L365.99-93.16Q365.92-92.14 365.19-91.30Q364.45-90.45 362.40-90.16L362.40-90.16L362.40-76.68L362.84-76.98Q371.92-75.95 377.16-73.32Q382.40-70.68 384.56-67.35Q386.72-64.01 386.50-60.86Q386.28-57.71 384.30-55.52Q382.32-53.32 379.21-52.99Q376.10-52.66 372.58-55.08L372.58-55.08Q371.70-60.35 368.74-65.77Q365.77-71.19 362.40-75L362.40-75L362.40-39.62Q367.60-41.75 374.74-44.97Q381.88-48.19 389.43-51.64L389.43-51.64L389.72-85.77L386.57-85.77L385.03-81.30Q382.32-79.61 377.49-79.39Q372.66-79.17 367.38-81.01L367.38-81.01Q368.77-84.52 370.42-89.76Q372.07-95.00 373.54-100.49Q375-105.98 375.88-110.23L375.88-110.23L344.24-110.23L343.07-114.48L417.77-114.48L427.95-128.54Q427.95-128.54 429.82-127.00Q431.69-125.46 434.58-123.01Q437.48-120.56 440.59-117.81Q443.70-115.06 446.26-112.65L446.26-112.65Q445.61-110.23 442.02-110.23L442.02-110.23L393.90-110.23Q392.80-105.76 391.15-100.34Q389.50-94.92 388.04-90.01L388.04-90.01L396.75-98.73L411.91-85.77Q411.11-84.89 409.68-84.16Q408.25-83.42 405.76-83.13L405.76-83.13L405.62-64.53Q408.11-69.36 410.19-73.97Q412.28-78.59 413.38-81.74ZM362.40-32.89L362.40-3.44L422.97-3.44L422.97-22.92Q420.78-21.46 417.77-21.75Q414.77-22.05 411.62-24.61L411.62-24.61Q411.18-29.44 409.35-34.61Q407.52-39.77 405.18-44.24L405.18-44.24Q404.81-33.98 404.00-27.47Q403.20-20.95 401.81-17.10Q400.42-13.26 398.22-11.13L398.22-11.13Q392.07-4.98 381.15-4.98L381.15-4.98Q381.15-8.86 380.71-11.68Q380.27-14.50 378.88-16.19L378.88-16.19Q376.10-19.63 368.85-21.46L368.85-21.46L368.85-23.58Q371.92-23.29 375.84-23.11Q379.76-22.92 381.74-22.92L381.74-22.92Q384.59-22.92 385.99-24.32L385.99-24.32Q387.38-25.85 388.15-31.60Q388.92-37.35 389.28-48.63L389.28-48.63Q386.79-44.97 383.06-39.84Q379.32-34.72 374.27-28.05L374.27-28.05Q374.05-24.90 371.85-23.73L371.85-23.73L362.40-32.89ZM422.97-41.24L422.97-41.24L422.97-64.82Q419.38-62.55 414.77-59.99Q410.16-57.42 405.47-55.22L405.47-55.22L405.47-51.12Q411.84-49.22 416.13-46.66Q420.41-44.09 422.97-41.24Z"/>
    </svg>
        