<?xml version="1.0" encoding="UTF-8" standalone="no"?>
        <svg 
    viewBox="3.0029296875 -85.546875 446.5576171875 56.982421875"
    width="443.5546875"
    height="142.529296875"
   xmlns="http://www.w3.org/2000/svg"
   xmlns:svg="http://www.w3.org/2000/svg">
   <path d="M28.05-90.01L28.05-128.10L54.57-125.54Q54.35-123.85 53.28-122.75Q52.22-121.66 49.07-121.22L49.07-121.22L49.07-90.89L57.42-102.91Q57.42-102.91 59.73-100.85Q62.04-98.80 65.30-95.84Q68.55-92.87 71.41-90.01L71.41-90.01L90.89-90.01L90.89-127.81L117.48-125.24Q117.26-123.71 116.16-122.53Q115.06-121.36 111.91-120.92L111.91-120.92L111.91-90.01L119.68-90.01L129.27-103.34Q129.27-103.34 131.03-101.88Q132.79-100.42 135.50-98.07Q138.21-95.73 141.14-93.13Q144.07-90.53 146.41-88.18L146.41-88.18Q145.75-85.77 142.24-85.77L142.24-85.77L115.21-85.77Q119.90-69.95 128.94-58.19Q137.99-46.44 148.83-40.80L148.83-40.80L148.83-38.96Q141.72-33.62 138.21-26.66Q134.69-19.70 133.67-10.99L133.67-10.99Q127.15-19.12 122.94-31.16Q118.73-43.21 116.24-57.31Q113.75-71.41 112.35-85.77L112.35-85.77L111.91-85.77L111.91 6.59Q111.91 7.62 109.28 9.38Q106.64 11.13 102.76 12.52Q98.88 13.92 94.92 13.92L94.92 13.92L90.89 13.92L90.89-43.80Q77.05-23.80 54.79-9.74L54.79-9.74L53.10-11.28Q61.96-20.80 68.63-32.96Q75.29-45.12 79.87-58.63Q84.45-72.14 87.01-85.77L87.01-85.77L71.41-85.77L71.26-86.28Q70.39-85.77 69.14-85.77L69.14-85.77L49.07-85.77L49.07-77.86Q59.03-74.63 64.38-70.31Q69.73-65.99 71.37-61.49Q73.02-56.98 71.89-53.17Q70.75-49.37 67.79-47.20Q64.82-45.04 60.90-45.41Q56.98-45.78 53.10-49.66L53.10-49.66Q53.54-55.74 52.29-61.96Q51.05-68.19 49.07-73.54L49.07-73.54L49.07 8.28Q49.07 9.08 46.51 10.47Q43.95 11.87 40.10 13.00Q36.25 14.14 32.23 14.14L32.23 14.14L28.05 14.14L28.05-43.07Q23.22-36.84 17.36-31.27Q11.50-25.71 4.61-20.87L4.61-20.87L3.00-22.34Q9.16-30.69 13.81-41.05Q18.46-51.42 21.68-62.88Q24.90-74.34 26.88-85.77L26.88-85.77L6.59-85.77L5.42-90.01L28.05-90.01ZM260.08-118.51L260.08-118.51Q256.71-111.11 250.63-104.33Q244.56-97.56 236.76-91.92Q228.96-86.28 220.53-82.18L220.53-82.18L220.83-81.88Q220.09-81.01 218.55-80.09Q217.02-79.17 214.82-78.74L214.82-78.74L214.82-44.38Q219.07-50.24 222.44-57.71Q225.81-65.19 227.27-70.83L227.27-70.83L235.18-66.43L235.18-73.54L218.55-73.54L217.24-77.71L233.72-77.71L241.48-86.72L254.88-76.68L254.37-77.86L269.24-77.86L277.22-87.01L294.58-73.83Q293.92-72.88 292.46-72.07Q290.99-71.26 288.72-70.83L288.72-70.83L288.72-8.42Q288.72-1.90 287.33 2.78Q285.94 7.47 281.40 10.25Q276.86 13.04 267.33 13.92L267.33 13.92Q267.04 9.08 266.49 5.46Q265.94 1.83 264.62-0.44L264.62-0.44Q263.23-2.78 261.00-4.32Q258.76-5.86 254.37-6.74L254.37-6.74L254.37-8.86Q254.37-8.86 256.09-8.75Q257.81-8.64 260.27-8.53Q262.72-8.42 264.92-8.35Q267.11-8.28 268.07-8.28L268.07-8.28Q270.78-8.28 270.78-10.99L270.78-10.99L270.78-28.20Q266.82-24.90 262.24-21.90Q257.67-18.90 252.61-16.48L252.61-16.48L252.61-7.62Q252.61-1.25 251.29 3.30Q249.98 7.84 245.58 10.58Q241.19 13.33 232.03 14.28L232.03 14.28Q231.81 9.52 231.26 5.97Q230.71 2.42 229.47 0.29L229.47 0.29Q228.15-2.05 226.03-3.55Q223.90-5.05 219.73-5.86L219.73-5.86L219.73-8.13Q219.73-8.13 222.47-7.91Q225.22-7.69 228.33-7.51Q231.45-7.32 232.62-7.32L232.62-7.32Q235.18-7.32 235.18-10.03L235.18-10.03L235.18-25.93Q230.13-22.12 224.01-18.60Q217.90-15.09 211.38-12.60L211.38-12.60L209.84-14.28L213.43-18.46L196.36-18.46L196.36 10.03Q196.22 10.69 191.82 12.41Q187.43 14.14 179.52 14.14L179.52 14.14L175.63 14.14L175.63-18.46L155.13-18.46L153.88-22.63L175.63-22.63L175.63-40.80Q175.63-40.06 173.44-38.78Q171.24-37.50 167.83-36.44Q164.43-35.38 160.77-35.38L160.77-35.38L158.28-35.38L158.28-93.16L175.63-86.28L175.63-102.03L155.27-102.03L154.03-106.20L175.63-106.20L175.63-128.25L201.93-126.27Q201.71-124.58 200.61-123.56Q199.51-122.53 196.36-121.95L196.36-121.95L196.36-107.08L205.37-119.38Q205.37-119.38 207.13-117.92Q208.89-116.46 211.60-114.15Q214.31-111.84 217.27-109.24Q220.24-106.64 222.58-104.37L222.58-104.37Q221.92-102.03 218.41-102.03L218.41-102.03L196.36-102.03L196.36-87.60L203.25-95.07L217.38-84.45Q223.39-90.60 228.66-98.33Q233.94-106.05 237.49-113.89Q241.04-121.73 242.07-128.10L242.07-128.10L267.48-122.83Q267.11-121.58 265.87-120.89Q264.62-120.19 261.62-119.82L261.62-119.82Q265.21-114.77 271.55-111.00Q277.88-107.23 285.13-104.88Q292.38-102.54 298.68-101.51L298.68-101.51L298.83-99.76Q293.26-97.71 290.22-92.58Q287.18-87.45 286.67-81.74L286.67-81.74Q277.00-87.23 270.01-97.01Q263.01-106.79 260.08-118.51ZM261.62-71.12L261.62-71.12L270.78-65.84L270.78-73.68L258.76-73.68Q257.96-72.73 256.42-71.92Q254.88-71.12 252.61-70.68L252.61-70.68L252.61-48.12Q255.62-53.76 258.03-60.13Q260.45-66.50 261.62-71.12ZM228.74-44.97L228.74-44.97L235.18-41.24L235.18-53.10Q230.93-49.58 225.77-46.40Q220.61-43.21 214.97-40.94L214.97-40.94L213.87-42.11Q212.11-41.16 207.68-39.84Q203.25-38.53 199.51-38.53L199.51-38.53L196.36-38.53L196.36-23.73L204.93-36.18Q204.93-36.18 206.91-34.39Q208.89-32.59 211.89-29.92Q214.89-27.25 217.82-24.46L217.82-24.46Q225.37-35.52 228.74-44.97ZM262.94-46.80L262.94-46.80L270.78-42.48L270.78-54.57Q266.89-51.34 262.21-48.19Q257.52-45.04 252.61-42.63L252.61-42.63L252.61-23.22Q256.20-29.00 258.91-35.41Q261.62-41.82 262.94-46.80ZM175.63-45.48L196.36-45.48L196.36-61.52L175.63-61.52L175.63-45.48ZM175.63-65.70L196.36-65.70L196.36-81.74L175.63-81.74L175.63-65.70ZM314.28-52.81L315.45-53.39Q321.53-37.87 330.47-28.93L330.47-28.93Q333.18-37.72 334.64-47.09Q336.11-56.47 336.77-66.14L336.77-66.14L330.62-66.14L327.03-58.67Q323.07-57.50 318.24-57.79Q313.40-58.08 307.32-60.42L307.32-60.42Q311.06-68.33 314.79-77.34Q318.53-86.35 321.94-95.03Q325.34-103.71 327.91-110.67L327.91-110.67L308.86-110.67L307.47-114.92L327.76-114.92L336.47-124.80L355.22-109.64Q354.27-108.62 352.59-107.81Q350.90-107.01 348.27-106.64L348.27-106.64Q346.51-102.17 343.91-96.13Q341.31-90.09 338.31-83.42Q335.30-76.76 332.37-70.39L332.37-70.39L335.23-70.39L345.26-80.86L359.55-68.99L358.52-72.73L387.01-72.73L387.01-104.74Q379.91-104.22 372.84-104.08Q365.77-103.93 359.11-103.93L359.11-103.93L358.81-105.76Q366.36-107.74 374.74-110.45Q383.13-113.16 391.30-116.20Q399.46-119.24 406.49-122.28Q413.53-125.32 418.51-127.95L418.51-127.95L438.43-108.33Q435.21-105.69 427.66-108.62L427.66-108.62Q419.68-107.30 409.06-106.35L409.06-106.35L409.06-72.73L416.38-72.73L427.08-88.04Q427.08-88.04 429.02-86.35Q430.96-84.67 433.92-82.03Q436.89-79.39 440.11-76.43Q443.33-73.46 445.97-70.97L445.97-70.97Q445.31-68.55 441.58-68.55L441.58-68.55L409.06-68.55L409.06-25.93L412.79-25.93L422.97-40.36Q422.97-40.36 424.84-38.75Q426.71-37.13 429.60-34.64Q432.50-32.15 435.64-29.37Q438.79-26.59 441.28-24.17L441.28-24.17Q440.63-21.75 437.11-21.75L437.11-21.75L362.40-21.75L361.23-25.93L387.01-25.93L387.01-68.55L359.99-68.55L363.28-65.84Q362.55-64.60 361.38-64.05Q360.21-63.50 357.57-63.13L357.57-63.13Q356.03-51.42 352.92-40.25Q349.80-29.08 343.95-19.19L343.95-19.19Q356.10-12.89 373.13-10.88Q390.16-8.86 413.53-8.86L413.53-8.86Q417.11-8.86 423.23-8.86Q429.35-8.86 435.72-8.90Q442.09-8.94 446.56-9.01L446.56-9.01L446.56-7.18Q440.70-5.86 437.73-0.70Q434.77 4.47 434.40 10.62L434.40 10.62Q431.76 10.62 427.51 10.62Q423.27 10.62 419.02 10.62Q414.77 10.62 412.21 10.62L412.21 10.62Q394.26 10.62 380.16 9.01Q366.06 7.40 355.26 3.26Q344.46-0.88 336.47-8.57L336.47-8.57Q330.69-1.83 322.81 3.96Q314.94 9.74 304.47 14.28L304.47 14.28L303.30 12.60Q311.72 6.08 317.61-2.12Q323.51-10.33 327.32-19.78L327.32-19.78Q323.22-26.22 319.96-34.39Q316.70-42.55 314.28-52.81L314.28-52.81Z"/>
    </svg>
        