<?xml version="1.0" encoding="UTF-8" standalone="no"?>
        <svg 
    viewBox="2.7099609375 -86.2060546875 449.4140625 57.0556640625"
    width="446.7041015625"
    height="143.26171875"
   xmlns="http://www.w3.org/2000/svg"
   xmlns:svg="http://www.w3.org/2000/svg">
   <path d="M118.21-119.97L119.53-120.78Q129.64-119.02 135.39-115.69Q141.14-112.35 143.37-108.47Q145.61-104.59 145.13-101.00Q144.65-97.41 142.20-95.03Q139.75-92.65 136.16-92.47Q132.57-92.29 128.69-95.21L128.69-95.21Q128.03-101.81 124.91-108.54Q121.80-115.28 118.21-119.97L118.21-119.97ZM119.09-50.39L119.09-65.11L96.02-65.11L96.02-50.39L119.09-50.39ZM96.02-69.29L119.09-69.29L119.09-84.01L96.02-84.01L96.02-69.29ZM34.64-58.37L34.64-70.97L58.67-68.55Q58.45-66.94 57.28-65.88Q56.10-64.82 53.10-64.38L53.10-64.38L53.10-43.51L54.93-43.51L63.13-57.13Q63.13-57.13 65.41-54.82Q67.68-52.51 70.83-49.22Q73.97-45.92 76.46-42.92L76.46-42.92L76.46-72.88Q75.59-72.14 73.68-72.14L73.68-72.14L5.42-72.14L4.17-76.32L30.91-76.32L30.91-99.32L8.86-99.32L7.62-103.49L30.91-103.49L30.91-128.69L55.52-126.64Q55.30-125.24 54.38-124.37Q53.47-123.49 50.98-122.97L50.98-122.97L50.98-103.49L52.95-103.49L61.38-115.50Q61.38-115.50 63.68-113.45Q65.99-111.40 69.29-108.47Q72.58-105.54 75.44-102.76L75.44-102.76Q77.05-107.59 78.44-112.79Q79.83-117.99 80.86-123.27L80.86-123.27L97.49-115.21L97.49-127.37L121.51-125.39Q121.36-124.07 120.52-123.19Q119.68-122.31 117.33-121.95L117.33-121.95L117.33-88.18L117.77-88.18L125.83-97.19L143.12-84.30Q142.53-83.50 141.39-82.80Q140.26-82.10 138.43-81.74L138.43-81.74L138.43-32.52Q138.43-26.37 136.93-22.01Q135.42-17.65 130.55-15.09Q125.68-12.52 115.65-11.72L115.65-11.72Q115.43-16.11 114.88-19.41Q114.33-22.71 112.94-24.76L112.94-24.76Q111.62-26.66 109.39-28.09Q107.15-29.52 102.47-30.47L102.47-30.47L102.47-32.37Q102.47-32.37 104.22-32.30Q105.98-32.23 108.44-32.12Q110.89-32.01 113.12-31.90Q115.36-31.79 116.38-31.79L116.38-31.79Q118.07-31.79 118.58-32.48Q119.09-33.18 119.09-34.50L119.09-34.50L119.09-46.22L96.02-46.22L96.02-18.02Q96.02-16.99 93.60-15.49Q91.19-13.99 87.41-12.78Q83.64-11.57 79.47-11.57L79.47-11.57L76.46-11.57L76.46-40.21Q75.59-39.33 73.68-39.33L73.68-39.33L53.10-39.33L53.10-10.03Q60.06-8.79 68.48-8.39Q76.90-7.98 87.16-7.98L87.16-7.98Q92.07-7.98 99.90-7.98Q107.74-7.98 116.60-8.02Q125.46-8.06 133.56-8.13Q141.65-8.20 147.00-8.42L147.00-8.42L147.00-6.59Q141.28-5.27 138.39-0.18Q135.50 4.91 135.28 10.99L135.28 10.99Q131.32 10.99 124.80 10.99Q118.29 10.99 111.00 10.99Q103.71 10.99 97.16 10.99Q90.60 10.99 86.57 10.99L86.57 10.99Q69.95 10.99 57.90 8.61Q45.85 6.23 37.46 0.07Q29.08-6.08 23.58-17.43L23.58-17.43Q20.73-8.42 16.04-0.18Q11.35 8.06 4.03 14.58L4.03 14.58L2.71 13.18Q6.15 5.27 8.20-4.25Q10.25-13.77 11.21-23.91Q12.16-34.06 12.16-43.91Q12.16-53.76 11.43-62.40L11.43-62.40L34.64-58.37ZM97.49-88.18L97.49-110.23L96.31-110.38Q90.16-101.15 81.74-94.04L81.74-94.04L96.61-88.18L97.49-88.18ZM76.46-75.88L76.46-88.18L76.46-90.01Q75.15-89.14 73.79-88.22Q72.44-87.30 70.97-86.57L70.97-86.57L69.14-87.89Q70.53-90.38 71.78-93.31Q73.02-96.24 74.27-99.61L74.27-99.61L72.44-99.32L50.98-99.32L50.98-76.32L52.95-76.32L61.96-89.28Q61.96-89.28 64.38-87.12Q66.80-84.96 70.20-81.85Q73.61-78.74 76.46-75.88L76.46-75.88ZM25.63-25.20L25.63-25.20Q29.59-20.43 34.64-16.92L34.64-16.92L34.64-56.40Q33.25-54.49 29.74-54.27L29.74-54.27Q29.22-47.24 28.34-39.88Q27.47-32.52 25.63-25.20ZM246.31-38.09L204.13-38.09L204.13-23.73L246.31-23.73L246.31-38.09ZM204.13-56.10L204.13-42.33L246.31-42.33L246.31-56.10L204.13-56.10ZM240.89-98.36L241.92-99.32Q255.62-98.51 264.18-95.14Q272.75-91.77 277.00-87.19Q281.25-82.62 281.98-78.00Q282.71-73.39 280.70-69.95Q278.69-66.50 274.62-65.37Q270.56-64.23 265.36-66.72L265.36-66.72Q263.67-70.46 261.25-74.34Q258.84-78.22 256.05-81.88L256.05-81.88Q243.24-78.96 225.73-75.70Q208.23-72.44 184.35-68.41L184.35-68.41L205.37-60.28L244.78-60.28L254.22-70.83L273.93-55.81Q273.19-54.93 271.80-54.02Q270.41-53.10 268.07-52.66L268.07-52.66L268.07-6.88Q268.07-0.66 266.27 3.77Q264.48 8.20 258.84 10.84Q253.20 13.48 241.63 14.43L241.63 14.43Q241.33 9.89 240.60 6.63Q239.87 3.37 238.04 1.17L238.04 1.17Q236.28-0.81 233.61-2.45Q230.93-4.10 225-5.13L225-5.13L225-6.88Q225-6.88 227.27-6.74Q229.54-6.59 232.80-6.45Q236.06-6.30 239.06-6.15Q242.07-6.01 243.46-6.01L243.46-6.01Q245.14-6.01 245.73-6.74Q246.31-7.47 246.31-8.86L246.31-8.86L246.31-19.48L204.13-19.48L204.13 6.88Q204.13 7.98 201.49 9.59Q198.85 11.21 194.68 12.49Q190.50 13.77 186.04 13.77L186.04 13.77L182.89 13.77L182.89-68.12L179.08-67.53Q177.17-64.60 174.32-64.38L174.32-64.38L165.01-86.28L195.92-86.13Q197.02-90.38 198.08-95.00Q199.15-99.61 199.95-103.64L199.95-103.64L158.13-103.64L156.88-107.89L213.87-107.89L213.87-128.25L241.04-126.27Q240.82-124.73 239.79-123.63Q238.77-122.53 235.62-122.09L235.62-122.09L235.62-107.89L265.21-107.89L275.54-121.07Q275.54-121.07 277.48-119.60Q279.42-118.14 282.39-115.83Q285.35-113.53 288.57-110.93Q291.80-108.33 294.43-106.05L294.43-106.05Q293.77-103.64 290.26-103.64L290.26-103.64L227.42-103.64Q223.10-99.24 218.08-94.70Q213.06-90.16 207.93-86.28L207.93-86.28L252.17-86.72Q246.46-93.31 240.89-98.36L240.89-98.36ZM375.59-122.53L376.98-123.27Q385.40-121.58 389.94-118.65Q394.48-115.72 395.91-112.46Q397.34-109.20 396.42-106.35Q395.51-103.49 393.02-101.77Q390.53-100.05 387.23-100.23Q383.94-100.42 380.71-103.34L380.71-103.34Q381.01-108.40 379.43-113.67Q377.86-118.95 375.59-122.53L375.59-122.53ZM424.66-124.22L424.66-124.22L445.53-116.09Q445.17-114.99 443.81-114.15Q442.46-113.31 439.97-113.53L439.97-113.53Q436.82-111.11 431.29-107.56Q425.76-104.00 420.48-101.07L420.48-101.07L419.24-101.88Q420.26-105.25 421.36-109.46Q422.46-113.67 423.34-117.63Q424.22-121.58 424.66-124.22ZM363.43-39.33L369.29-46.51L375.73-41.09Q379.17-53.76 380.57-67.24L380.57-67.24L399.17-62.70L399.17-80.13Q394.12-75.73 388.11-72.00Q382.10-68.26 375.59-65.26L375.59-65.26L375.59-58.67Q375.51-58.15 373.50-57.20Q371.48-56.25 368.70-55.52Q365.92-54.79 363.57-54.79L363.57-54.79L361.08-54.79L361.08-58.37L324.02-58.37Q324.02-49.95 323.47-41.09Q322.92-32.23 321.02-23.44Q319.12-14.65 315.05-6.45Q310.99 1.76 303.88 8.72L303.88 8.72L302.12 7.47Q305.86-2.42 307.25-13.99Q308.64-25.56 308.83-37.79Q309.01-50.02 309.01-61.96L309.01-61.96L309.01-114.92L326.51-108.47L334.94-108.47L334.94-127.08L358.67-125.10Q358.45-123.78 357.42-122.79Q356.40-121.80 353.69-121.36L353.69-121.36L353.69-108.47L355.08-108.47L363.43-119.09Q363.43-119.09 366.06-117.08Q368.70-115.06 372.29-112.17Q375.88-109.28 378.74-106.64L378.74-106.64Q378.08-104.22 374.71-104.22L374.71-104.22L324.02-104.22L324.02-90.16L328.20-90.16L328.20-103.64L343.07-102.17Q342.85-99.98 340.36-99.61L340.36-99.61L340.36-90.16L344.38-90.16L344.38-103.64L359.25-102.17Q359.03-99.98 356.54-99.61L356.54-99.61L356.54-90.16L359.84-90.16L366.43-96.90L379.83-86.87Q378.74-85.25 375.59-84.59L375.59-84.59L375.59-69.43Q380.57-74.63 384.52-81.01Q388.48-87.38 391.19-93.90L391.19-93.90L372.44-93.90L371.26-98.07L399.17-98.07L399.17-127.95L422.68-125.83Q422.46-124.29 421.36-123.19Q420.26-122.09 417.11-121.66L417.11-121.66L417.11-98.07L424.95-98.07L432.57-107.67Q432.57-107.67 435.02-105.83Q437.48-104.00 440.81-101.37Q444.14-98.73 446.85-96.31L446.85-96.31Q446.19-93.90 442.82-93.90L442.82-93.90L422.24-93.90Q427.00-90.09 433.63-87.60Q440.26-85.11 447.00-84.01L447.00-84.01L446.85-82.32Q437.70-79.54 434.69-65.55L434.69-65.55Q428.17-70.17 424.00-77.31Q419.82-84.45 417.11-93.90L417.11-93.90L417.11-65.84Q417.11-65.19 414.88-64.16Q412.65-63.13 409.24-62.33Q405.83-61.52 402.32-61.52L402.32-61.52L399.17-61.52L399.17-62.26Q398.14-59.47 393.90-59.25L393.90-59.25Q392.36-54.05 390.31-49.37L390.31-49.37L391.19-49.37L398.07-56.40L406.49-49.37L421.95-49.37L421.95-64.82L440.70-62.99Q440.48-61.89 439.71-61.12Q438.94-60.35 436.96-59.99L436.96-59.99L436.96-51.78L440.11-56.40Q440.11-56.40 441.65-54.97Q443.19-53.54 445.28-51.49Q447.36-49.44 448.97-47.53L448.97-47.53Q448.54-45.12 445.39-45.12L445.39-45.12L436.96-45.12L436.96-15.75L440.11-20.43Q440.11-20.43 441.72-18.90Q443.33-17.36 445.50-15.20Q447.66-13.04 449.41-11.13L449.41-11.13Q448.97-8.72 445.68-8.72L445.68-8.72L436.96-8.72L436.96 9.74Q436.96 10.40 435.06 11.43Q433.15 12.45 430.37 13.29Q427.59 14.14 424.95 14.14L424.95 14.14L421.95 14.14L421.95-8.72L397.92-8.72L396.75-12.89L406.79-12.89L406.79-43.80L405.32-43.51Q403.42-32.08 399.32-21.35Q395.21-10.62 387.71-1.50Q380.20 7.62 367.97 14.28L367.97 14.28L366.72 12.16Q373.24 6.74 378.00 0L378.00 0Q374.19 2.86 364.97 2.86L364.97 2.86L360.13 2.86Q353.17 2.86 351.42 0.26Q349.66-2.34 349.66-8.57L349.66-8.57L349.66-12.74Q346.73-9.52 342.19-4.65Q337.65 0.22 331.35 6.30L331.35 6.30Q330.47 9.45 327.76 10.18L327.76 10.18L317.58-8.13L327.32-9.89L327.32-54.79L345.12-52.95Q345.04-51.71 344.13-50.83Q343.21-49.95 341.09-49.66L341.09-49.66L341.09-38.53L344.09-43.80L349.66-37.21L349.66-54.79L367.97-52.95Q367.75-51.64 366.65-50.57Q365.55-49.51 363.43-49.22L363.43-49.22L363.43-39.33ZM328.20-85.99L324.02-85.99L324.02-62.55L328.20-62.55L328.20-85.99ZM348.63-31.49L341.09-31.49L341.09-12.89L349.66-14.87L349.66-31.64L348.63-31.49ZM344.38-85.99L340.36-85.99L340.36-62.55L344.38-62.55L344.38-85.99ZM361.08-85.99L356.54-85.99L356.54-62.55L361.08-62.55L361.08-85.99ZM380.57-5.27L380.42-3.74Q384.52-11.06 387.16-18.75L387.16-18.75Q385.47-18.60 383.64-19.26Q381.81-19.92 380.13-21.75L380.13-21.75Q381.30-26.29 380.42-30.62L380.42-30.62Q375.51-23.44 370.02-18.60L370.02-18.60L367.82-19.78Q369.36-22.92 370.90-26.62Q372.44-30.32 373.68-34.35L373.68-34.35L363.43-31.93L363.43-12.30Q363.43-10.33 364.97-10.33L364.97-10.33L366.43-10.33Q366.80-10.33 367.27-10.33Q367.75-10.33 368.12-10.33L368.12-10.33Q369.43-10.33 370.17-11.13L370.17-11.13Q370.97-11.87 372.03-14.61Q373.10-17.36 374.12-20.21L374.12-20.21L375.73-20.21L376.17-10.99Q378.81-9.81 379.69-8.53Q380.57-7.25 380.57-5.27L380.57-5.27ZM421.95-12.89L421.95-45.12L418.36-45.12L418.36-12.89L421.95-12.89ZM384.16-36.62L384.16-36.62Q388.40-34.57 390.60-32.37L390.60-32.37Q391.77-38.82 392.43-45.12L392.43-45.12L388.48-45.12Q387.45-42.92 386.43-40.76Q385.40-38.60 384.16-36.62Z"/>
    </svg>
        