<?xml version="1.0" encoding="UTF-8" standalone="no"?>
        <svg 
    viewBox="3.5888671875 -85.546875 449.12109375 56.982421875"
    width="445.5322265625"
    height="142.529296875"
   xmlns="http://www.w3.org/2000/svg"
   xmlns:svg="http://www.w3.org/2000/svg">
   <path d="M63.87-63.87L63.87-95.73L90.45-93.31Q90.31-91.85 89.32-90.86Q88.33-89.87 85.62-89.43L85.62-89.43L85.62-63.87L115.50-63.87L126.12-77.71Q126.12-77.71 128.06-76.17Q130.00-74.63 132.97-72.25Q135.94-69.87 139.23-67.16Q142.53-64.45 145.17-62.11L145.17-62.11Q144.58-59.69 140.84-59.69L140.84-59.69L90.01-59.69Q96.17-49.15 105.29-40.47Q114.40-31.79 125.02-25.38Q135.64-18.97 146.41-15.16L146.41-15.16L145.97-13.48Q139.97-12.23 135.50-7.51Q131.03-2.78 128.98 4.61L128.98 4.61Q113.38-5.49 103.31-21.64Q93.24-37.79 87.16-59.69L87.16-59.69L85.62-59.69L85.62 7.76Q85.62 8.79 82.91 10.33Q80.20 11.87 76.10 13.07Q72.00 14.28 67.97 14.28L67.97 14.28L63.87 14.28L63.87-37.79Q43.14-10.47 4.83 4.98L4.83 4.98L3.59 3.44Q14.58-4.25 23.58-14.58Q32.59-24.90 39.37-36.51Q46.14-48.12 50.24-59.69L50.24-59.69L6.30-59.69L5.13-63.87L63.87-63.87ZM24.76-113.96L24.76-113.96L26.51-113.96Q28.78-108.62 29.74-103.64L29.74-103.64L63.43-103.64L63.43-128.25L91.33-126.27Q91.26-124.73 90.20-123.63Q89.14-122.53 85.99-121.95L85.99-121.95L85.99-103.64L118.21-103.64L128.83-114.18L147.00-97.05Q145.46-95.29 141.14-95.07L141.14-95.07Q137.77-92.36 133.19-89.28Q128.61-86.21 123.67-83.46Q118.73-80.71 114.33-78.74L114.33-78.74L113.23-79.61Q114.92-83.72 116.49-89.21Q118.07-94.70 119.09-99.46L119.09-99.46L30.47-99.46Q31.35-91.04 28.82-85.03Q26.29-79.03 22.05-76.32L22.05-76.32Q19.26-74.56 15.86-74.60Q12.45-74.63 9.59-76.43Q6.74-78.22 5.57-81.74L5.57-81.74Q3.96-86.57 6.26-90.27Q8.57-93.97 12.74-96.02L12.74-96.02Q15.45-97.34 18.24-100.09Q21.02-102.83 22.89-106.42Q24.76-110.01 24.76-113.96ZM174.61 1.46L174.61-78.00L203.54-75.59Q203.32-74.05 202.22-72.91Q201.12-71.78 197.97-71.26L197.97-71.26L197.97 1.46L216.28 1.46L216.28-108.18L163.48-108.18L162.30-112.35L255.91-112.35L268.07-127.81Q268.07-127.81 270.26-126.12Q272.46-124.44 275.90-121.77Q279.35-119.09 283.12-116.13Q286.89-113.16 289.97-110.52L289.97-110.52Q289.31-108.18 285.57-108.18L285.57-108.18L240.01-108.18L240.01-59.40L252.47-59.40L264.18-74.56Q264.18-74.56 266.31-72.91Q268.43-71.26 271.73-68.66Q275.02-66.06 278.69-63.13Q282.35-60.21 285.28-57.57L285.28-57.57Q284.62-55.22 280.81-55.22L280.81-55.22L240.01-55.22L240.01 1.46L261.33 1.46L273.78-14.28Q273.78-14.28 276.01-12.56Q278.25-10.84 281.76-8.13Q285.28-5.42 289.12-2.38Q292.97 0.66 296.12 3.30L296.12 3.30Q295.46 5.71 291.58 5.71L291.58 5.71L154.98 5.71L153.74 1.46L174.61 1.46ZM366.72-74.56L365.55-78.74L390.45-78.74L400.34-91.77Q400.34-91.77 402.17-90.34Q404.00-88.92 406.86-86.65Q409.72-84.38 412.83-81.77Q415.94-79.17 418.51-76.98L418.51-76.98Q417.85-74.56 414.33-74.56L414.33-74.56L366.72-74.56ZM348.27 14.28L348.27-61.82L348.27-70.17L369.73-61.82L416.09-61.82L424.66-71.26L442.97-57.71Q442.38-56.98 441.25-56.25Q440.11-55.52 438.28-55.22L438.28-55.22L438.28-9.59Q438.28-2.71 436.85 2.05Q435.42 6.81 430.85 9.48Q426.27 12.16 416.82 12.89L416.82 12.89Q416.82 7.98 416.56 4.28Q416.31 0.59 415.65-1.68L415.65-1.68Q415.21-3.44 414.26-4.80Q413.31-6.15 411.33-7.03L411.33-7.03L411.33 6.88Q411.33 7.47 407.92 9.05Q404.52 10.62 398.58 10.62L398.58 10.62L395.87 10.62L395.87-28.78L389.72-28.78L389.72 7.62Q389.58 8.20 386.24 9.74Q382.91 11.28 376.98 11.28L376.98 11.28L374.27 11.28L374.27-28.78L368.70-28.78L368.70 7.47Q368.70 8.57 366.17 10.14Q363.65 11.72 359.66 13.00Q355.66 14.28 351.27 14.28L351.27 14.28L348.27 14.28ZM368.70-33.03L374.27-33.03L374.27-57.57L368.70-57.57L368.70-33.03ZM389.72-57.57L389.72-33.03L395.87-33.03L395.87-57.57L389.72-57.57ZM411.33-28.78L411.33-9.45L415.36-9.30Q416.67-9.30 417.08-10.00Q417.48-10.69 417.48-11.72L417.48-11.72L417.48-28.78L411.33-28.78ZM411.33-57.57L411.33-33.03L417.48-33.03L417.48-57.57L411.33-57.57ZM398.88-115.94L398.88-115.94Q393.60-105.76 384.01-96.31Q374.41-86.87 362.59-79.17Q350.76-71.48 338.82-66.43L338.82-66.43L338.82 7.98Q338.67 8.72 336.15 10.11Q333.62 11.50 329.74 12.63Q325.85 13.77 321.75 13.77L321.75 13.77L317.87 13.77L317.87-60.72Q314.36-56.84 310.58-53.28Q306.81-49.73 302.86-46.51L302.86-46.51L301.17-47.53Q306.37-57.50 311.43-70.79Q316.48-84.08 320.69-98.88Q324.90-113.67 327.47-128.25L327.47-128.25L356.69-119.68Q355.74-116.53 350.68-116.53L350.68-116.53Q347.53-108.25 343.95-100.67Q340.36-93.09 336.47-86.28L336.47-86.28L343.51-83.72Q343.14-82.54 342.11-81.85Q341.09-81.15 338.82-80.71L338.82-80.71L338.82-68.70Q345.70-74.56 352.19-82.03Q358.67-89.50 364.05-97.63Q369.43-105.76 373.10-113.60Q376.76-121.44 378.00-127.95L378.00-127.95L407.67-120.92Q407.37-119.46 405.87-118.69Q404.37-117.92 400.63-117.48L400.63-117.48Q405.69-110.45 414.07-105.36Q422.46-100.27 431.80-96.94Q441.14-93.60 449.12-91.92L449.12-91.92L448.97-89.87Q442.31-87.74 438.39-81.56Q434.47-75.37 433.67-68.70L433.67-68.70Q421.73-76.03 412.35-88.40Q402.98-100.78 398.88-115.94Z"/>
    </svg>
        