<?xml version="1.0" encoding="UTF-8" standalone="no"?>
        <svg 
    viewBox="3.0029296875 -85.6201171875 448.3154296875 57.0556640625"
    width="445.3125"
    height="142.67578125"
   xmlns="http://www.w3.org/2000/svg"
   xmlns:svg="http://www.w3.org/2000/svg">
   <path d="M84.74-41.38L84.74-41.38L100.78-30.32Q99.32-28.42 95.21-29.37L95.21-29.37Q86.13-25.05 75.18-21.68Q64.23-18.31 53.83-16.48L53.83-16.48L52.37-18.90Q61.01-22.92 69.43-28.86Q77.86-34.79 84.74-41.38ZM97.78-28.34L97.78-28.34L114.33-16.77Q113.38-15.82 111.99-15.60Q110.60-15.38 108.18-16.04L108.18-16.04Q93.16-9.08 76.87-5.46Q60.57-1.83 43.51-0.59L43.51-0.59L42.63-3.15Q57.93-6.96 71.96-13.04Q85.99-19.12 97.78-28.34ZM114.77-13.77L114.77-13.77L133.23 0.73Q131.25 2.71 126.27 1.17L126.27 1.17Q103.71 9.52 81.74 12.05Q59.77 14.58 35.52 13.77L35.52 13.77L35.08 11.43Q57.50 8.35 77.42 2.86Q97.34-2.64 114.77-13.77ZM67.97-85.18L67.97-92.72L55.08-92.72L67.97-85.18ZM89.43-95.21L88.77-96.90L117.63-96.90L126.12-106.35L34.35-106.35L34.35-71.70Q39.33-75.95 43.73-81.85Q48.12-87.74 50.68-92.72L50.68-92.72L37.65-92.72L36.33-96.90L66.43-96.90L74.71-106.05L89.43-95.21ZM14.14-70.39L14.14-110.52L14.14-118.51L37.35-110.52L67.68-110.52L67.68-127.81L93.31-125.83Q93.16-124.37 92.10-123.30Q91.04-122.24 87.89-121.66L87.89-121.66L87.89-110.52L119.09-110.52L128.83-124.07Q128.83-124.07 130.66-122.57Q132.50-121.07 135.28-118.73Q138.06-116.38 141.10-113.71Q144.14-111.04 146.56-108.76L146.56-108.76Q145.90-106.35 142.38-106.35L142.38-106.35L126.42-106.35L144.58-92.72Q143.92-91.77 142.46-90.89Q140.99-90.01 138.57-89.58L138.57-89.58L138.57-55.08Q138.50-54.49 135.79-53.50Q133.08-52.51 129.31-51.67Q125.54-50.83 122.39-50.83L122.39-50.83L119.09-50.83L119.09-66.87L118.80-66.87Q113.96-63.87 107.15-60.94Q100.34-58.01 93.16-56.10L93.16-56.10L97.19-54.93Q96.83-53.54 95.32-52.73Q93.82-51.93 90.01-51.64L90.01-51.64Q96.75-48.12 105.91-45.37Q115.06-42.63 125.61-40.91Q136.16-39.18 147.00-38.82L147.00-38.82L147.00-36.62Q141.94-34.57 139.56-29.52Q137.18-24.46 136.67-19.04L136.67-19.04Q122.24-23.44 109.39-31.31Q96.53-39.18 88.18-50.10L88.18-50.10Q79.17-39.55 63.68-31.09Q48.19-22.63 29.08-17.58L29.08-17.58L28.34-19.48Q37.65-24.39 45.92-31.20Q54.20-38.01 60.53-45.45Q66.87-52.88 70.39-59.55L70.39-59.55L67.97-59.55L67.97-64.82Q61.96-60.21 53.43-55.52Q44.90-50.83 36.18-47.53L36.18-47.53L34.64-49.37Q39.33-53.32 43.91-58.52Q48.49-63.72 52.29-68.99Q56.10-74.27 58.37-78.44L58.37-78.44L67.97-72.44L67.97-83.72Q66.72-82.47 63.43-83.13L63.43-83.13Q58.37-78.96 50.79-75.26Q43.21-71.56 35.08-69.43L35.08-69.43L34.35-70.53Q34.35-60.79 33.65-50.02Q32.96-39.26 30.18-28.38Q27.39-17.50 21.28-7.40Q15.16 2.71 4.32 10.99L4.32 10.99L3.00 9.89Q8.50-1.90 10.80-15.45Q13.11-29.00 13.62-43.03Q14.14-57.06 14.14-70.39L14.14-70.39ZM100.20-92.72L92.43-92.72Q90.89-90.67 86.43-89.58L86.43-89.58L86.43-74.85Q90.45-78.66 94.19-83.61Q97.92-88.55 100.20-92.72L100.20-92.72ZM107.08-79.17L107.08-79.17L119.09-71.56L119.09-92.72L104.74-92.72L118.51-84.30Q117.85-83.20 116.64-82.73Q115.43-82.25 112.94-82.76L112.94-82.76Q108.03-79.39 100.93-76.35Q93.82-73.32 86.43-71.56L86.43-71.56L86.43-63.57Q86.28-63.06 83.79-62.11Q81.30-61.16 78.00-60.42L78.00-60.42L88.48-57.42Q92.07-60.42 95.69-64.31Q99.32-68.19 102.32-72.11Q105.32-76.03 107.08-79.17ZM221.70-26.07L223.02-26.73Q232.76-23.80 237.96-19.81Q243.16-15.82 244.78-11.68Q246.39-7.54 245.29-4.06Q244.19-0.59 241.33 1.39Q238.48 3.37 234.70 3.04Q230.93 2.71 227.27-0.88L227.27-0.88Q227.27-7.40 225.55-14.10Q223.83-20.80 221.70-26.07L221.70-26.07ZM163.33-101.22L163.33-101.22L165.60-101.22Q170.87-88.18 170.62-78.44Q170.36-68.70 167.07-63.72L167.07-63.72Q164.72-60.28 160.44-59.77Q156.15-59.25 153.88-62.55L153.88-62.55Q152.12-65.48 153.08-68.59Q154.03-71.70 156.74-74.12L156.74-74.12Q158.64-76.39 160.36-80.82Q162.08-85.25 162.96-90.64Q163.84-96.02 163.33-101.22ZM193.07-103.05L193.51-103.20Q200.90-100.20 204.86-96.46Q208.81-92.72 210.13-89.14L210.13-89.14L210.13-122.83L233.28-120.92Q233.13-119.68 232.29-118.80Q231.45-117.92 229.03-117.63L229.03-117.63L229.03-96.17L239.28-96.17L239.28-127.22L264.48-125.24Q264.26-123.78 263.31-122.79Q262.35-121.80 259.64-121.36L259.64-121.36L259.64-96.17L271.07-96.17L271.07-122.83L295.39-120.78Q295.09-119.38 294.18-118.43Q293.26-117.48 290.55-116.97L290.55-116.97L290.55-91.77Q290.55-91.26 287.66-90.23Q284.77-89.21 280.81-88.62L280.81-88.62Q281.98-87.67 284.80-85.40Q287.62-83.13 290.92-80.42Q294.21-77.71 296.85-75.29L296.85-75.29Q296.41-72.88 292.82-72.88L292.82-72.88L207.13-72.88L205.96-76.98Q204.05-76.17 201.64-76.72Q199.22-77.27 196.95-79.47L196.95-79.47Q197.17-84.59 195.96-89.98Q194.75-95.36 193.07-99.76L193.07-99.76L193.07 8.72Q193.07 9.52 190.65 10.84Q188.23 12.16 184.53 13.22Q180.83 14.28 177.03 14.28L177.03 14.28L172.92 14.28L172.92-128.10L198.63-125.54Q198.34-124.00 197.20-122.90Q196.07-121.80 193.07-121.36L193.07-121.36L193.07-103.05ZM270.78-77.12L279.42-88.33Q278.25-88.26 276.93-88.15Q275.61-88.04 274.37-88.04L274.37-88.04L271.07-88.04L271.07-91.92L229.03-91.92L229.03-89.28Q229.03-88.62 226.61-87.71Q224.19-86.79 220.61-86.06Q217.02-85.33 213.57-85.33L213.57-85.33L210.86-85.33Q211.01-82.40 209.62-80.20Q208.23-78.00 206.10-77.12L206.10-77.12L270.78-77.12ZM262.06-26.73L262.06-26.73L287.11-19.34Q286.67-18.02 285.31-17.21Q283.96-16.41 281.40-16.48L281.40-16.48Q277.22-11.79 270.85-5.97Q264.48-0.15 257.67 4.83L257.67 4.83L271.51 4.83L281.54-7.76Q281.54-7.76 284.66-5.42Q287.77-3.08 292.02 0.26Q296.26 3.59 299.71 6.59L299.71 6.59Q299.05 9.01 295.53 9.01L295.53 9.01L202.95 9.01L201.78 4.83L254.52 4.83Q256.93-2.20 258.91-11.02Q260.89-19.85 262.06-26.73ZM212.40-26.51L212.40-61.08L212.40-68.99L233.72-61.08L266.67-61.08L275.98-71.56L293.55-58.52Q292.97-57.50 291.76-56.80Q290.55-56.10 287.99-55.66L287.99-55.66L287.99-31.49Q287.99-31.05 283.56-29.48Q279.13-27.91 271.07-27.91L271.07-27.91L267.33-27.91L267.33-32.67L232.18-32.67L232.18-30.76Q232.18-29.88 227.93-28.20Q223.68-26.51 215.99-26.51L215.99-26.51L212.40-26.51ZM232.18-56.84L232.18-36.91L267.33-36.91L267.33-56.84L232.18-56.84ZM370.53-63.57L369.29-67.82L391.33-67.82L400.78-80.27Q400.78-80.27 403.71-77.93Q406.64-75.59 410.63-72.25Q414.62-68.92 417.77-65.99L417.77-65.99Q417.33-63.57 413.67-63.57L413.67-63.57L370.53-63.57ZM377.86-15.75L367.68-37.79Q372.00-38.23 379.91-39.40Q387.82-40.58 397.74-42.19Q407.67-43.80 418.07-45.63L418.07-45.63L418.36-44.09Q412.87-39.84 403.89-33.76Q394.92-27.69 381.88-19.78L381.88-19.78Q380.71-16.48 377.86-15.75L377.86-15.75ZM349.95-52.81L349.95-52.81L370.02-46.80Q369.07-43.65 364.38-43.65L364.38-43.65Q361.01-37.72 356.87-31.68Q352.73-25.63 348.63-21.02L348.63-21.02L346.36-22.05Q347.24-27.91 348.27-36.40Q349.29-44.90 349.95-52.81ZM308.86-52.08L310.62-52.51Q319.19-46.51 322.60-40.43Q326.00-34.35 325.78-29.26Q325.56-24.17 323.00-21.17Q320.43-18.16 316.77-18.16Q313.11-18.16 309.74-22.34L309.74-22.34Q310.99-29.66 310.55-37.65Q310.11-45.63 308.86-52.08L308.86-52.08ZM315.89 13.18L304.03-9.01Q307.91-9.45 313.73-10.25Q319.56-11.06 326.88-12.30L326.88-12.30L326.88-57.93L307.32-57.93L306.15-62.11L326.88-62.11L326.88-80.27L317.72-80.27L317.43-81.30Q310.69-75.29 302.86-70.68L302.86-70.68L301.46-71.70Q305.86-77.34 309.78-84.59Q313.70-91.85 316.85-99.68Q320.00-107.52 322.23-114.99Q324.46-122.46 325.49-128.39L325.49-128.39L350.68-120.12Q350.39-118.80 349.22-117.92Q348.05-117.04 345.48-116.82L345.48-116.82Q354.93-115.21 360.13-112.32Q365.33-109.42 367.16-106.09Q368.99-102.76 368.30-99.68Q367.60-96.61 365.15-94.59Q362.70-92.58 359.36-92.25Q356.03-91.92 352.66-94.19L352.66-94.19Q355.15-91.92 358.67-88.70Q362.18-85.47 364.82-82.62L364.82-82.62Q364.38-80.27 360.72-80.27L360.72-80.27L344.97-80.27L344.97-62.11L345.78-62.11L354.79-75.88L359.40-71.41Q365.55-82.18 370.68-97.08Q375.81-111.99 378.30-127.66L378.30-127.66L405.18-119.68Q404.15-116.31 399.17-116.53L399.17-116.53Q397.27-111.91 395.03-107.67Q392.80-103.42 390.45-99.46L390.45-99.46L420.12-99.46L430.81-110.38L448.32-94.78Q446.48-92.50 441.43-91.63L441.43-91.63Q440.92-67.09 440.00-50.02Q439.09-32.96 437.59-21.86Q436.08-10.77 433.74-4.25Q431.40 2.27 427.95 5.71L427.95 5.71Q423.56 10.11 418.10 12.01Q412.65 13.92 405.32 13.92L405.32 13.92Q405.54 3.59 402.61-0.15L402.61-0.15Q398.88-4.98 389.28-7.18L389.28-7.18L389.28-9.01Q393.53-8.64 398.88-8.39Q404.22-8.13 406.79-8.13L406.79-8.13Q410.23-8.13 412.35-10.18L412.35-10.18Q416.75-13.99 418.76-34.50Q420.78-55.00 421.80-95.21L421.80-95.21L387.74-95.21Q376.76-79.17 361.82-69.14L361.82-69.14Q364.01-67.02 366.36-64.67Q368.70-62.33 370.53-60.28L370.53-60.28Q369.87-57.93 366.43-57.93L366.43-57.93L344.97-57.93L344.97-15.16L371.56-19.63L371.85-18.16Q363.94-13.11 351.42-6.34Q338.89 0.44 320.07 9.30L320.07 9.30Q318.75 12.52 315.89 13.18L315.89 13.18ZM341.97-112.06L341.97-112.06Q338.16-105.10 332.81-98.00Q327.47-90.89 320.87-84.45L320.87-84.45L340.65-84.45L349.37-97.05L351.78-94.92Q350.54-98.29 348.01-102.91Q345.48-107.52 341.97-112.06Z"/>
    </svg>
        