<?xml version="1.0" encoding="UTF-8" standalone="no"?>
        <svg 
    viewBox="10.3271484375 -85.9130859375 446.9970703125 56.7626953125"
    width="436.669921875"
    height="142.67578125"
   xmlns="http://www.w3.org/2000/svg"
   xmlns:svg="http://www.w3.org/2000/svg">
   <path d="M58.37-42.92L58.37-89.58L58.37-97.34L78.44-89.58L88.48-89.58L88.48-101.22L56.25-101.22Q52.22-94.41 47.02-86.50Q41.82-78.59 36.91-72.58L36.91-72.58Q46.00-66.87 51.27-58.89Q56.54-50.90 58.37-42.92L58.37-42.92ZM10.33 14.43L10.33-116.53L10.33-124.66L32.23-116.53L37.50-116.53L47.24-125.98L66.14-108.91Q64.45-106.79 59.40-106.79L59.40-106.79L58.67-105.47L88.48-105.47L88.48-126.93L114.33-124.37Q114.11-122.75 113.01-121.69Q111.91-120.63 108.76-120.12L108.76-120.12L108.76-105.47L118.95-105.47L129.27-119.53Q129.27-119.53 131.14-117.99Q133.01-116.46 135.90-114.00Q138.79-111.55 141.94-108.80Q145.09-106.05 147.58-103.64L147.58-103.64Q146.92-101.22 143.26-101.22L143.26-101.22L108.76-101.22L108.76-89.58L117.11-89.58L125.83-98.88L143.70-85.47Q143.04-84.74 141.72-83.94Q140.41-83.13 138.28-82.62L138.28-82.62L138.28-39.77Q138.21-39.26 135.50-38.16Q132.79-37.06 129.02-36.15Q125.24-35.23 122.09-35.23L122.09-35.23L118.65-35.23L118.65-43.07L109.94-43.07Q113.96-34.42 120.45-28.56Q126.93-22.71 134.40-19.04Q141.87-15.38 148.97-13.33L148.97-13.33L148.68-12.01Q142.82-10.18 138.87-4.76Q134.91 0.66 133.37 8.13L133.37 8.13Q126.78 2.05 122.06-4.91Q117.33-11.87 114.11-20.73Q110.89-29.59 108.76-41.53L108.76-41.53L108.76 7.03Q108.76 8.13 106.27 9.78Q103.78 11.43 100.01 12.78Q96.24 14.14 92.43 14.14L92.43 14.14L88.48 14.14L88.48-19.63Q79.83-10.84 68.33-3.99Q56.84 2.86 42.77 7.98L42.77 7.98L41.53 6.30Q55.52-2.71 65.59-15.78Q75.66-28.86 81.15-43.07L81.15-43.07L77.56-43.07L77.56-39.62Q77.56-38.67 75.11-37.24Q72.66-35.82 68.88-34.72Q65.11-33.62 61.08-33.62L61.08-33.62L59.25-33.62Q59.03-23.00 53.98-16.66Q48.93-10.33 36.47-10.18L36.47-10.18Q36.47-14.36 35.93-19.26Q35.38-24.17 34.50-26.07L34.50-26.07Q33.40-28.27 30.32-29.74L30.32-29.74L30.32 8.13Q30.32 8.86 28.34 10.36Q26.37 11.87 22.71 13.15Q19.04 14.43 13.92 14.43L13.92 14.43L10.33 14.43ZM88.48-47.24L88.48-64.53L77.56-64.53L77.56-47.24L88.48-47.24ZM118.65-64.53L108.76-64.53L108.76-47.24L118.65-47.24L118.65-64.53ZM77.56-68.70L88.48-68.70L88.48-85.33L77.56-85.33L77.56-68.70ZM108.76-85.33L108.76-68.70L118.65-68.70L118.65-85.33L108.76-85.33ZM38.82-112.35L30.32-112.35L30.32-32.23L35.23-32.23Q37.13-32.23 38.23-33.03L38.23-33.03Q40.80-34.64 40.80-40.65L40.80-40.65Q40.80-48.41 39.11-56.73Q37.43-65.04 33.18-72.14L33.18-72.14Q34.20-77.20 35.34-84.30Q36.47-91.41 37.43-98.88Q38.38-106.35 38.82-112.35L38.82-112.35ZM165.31-123.93L166.33-124.80Q177.76-124.95 184.53-122.57Q191.31-120.19 194.27-116.53Q197.24-112.87 197.13-109.06Q197.02-105.25 194.60-102.39Q192.19-99.54 188.16-98.84Q184.13-98.14 179.37-100.78L179.37-100.78Q177.61-107.08 173.47-113.42Q169.34-119.75 165.31-123.93L165.31-123.93ZM153.00-92.07L154.03-92.87Q165.01-92.36 171.28-89.65Q177.54-86.94 179.99-83.20Q182.45-79.47 181.97-75.81Q181.49-72.14 178.82-69.58Q176.15-67.02 172.12-66.69Q168.09-66.36 163.62-69.43L163.62-69.43Q162.89-75.66 159.74-81.81Q156.59-87.96 153.00-92.07L153.00-92.07ZM162.16-31.79L162.16-31.79Q164.06-31.79 164.90-32.15Q165.75-32.52 167.07-34.79L167.07-34.79Q168.24-36.47 169.19-38.05Q170.14-39.62 171.75-42.74Q173.36-45.85 176.37-51.93Q179.37-58.01 184.46-68.55Q189.55-79.10 197.53-95.73L197.53-95.73L199.80-95.21Q197.90-89.06 195.48-80.93Q193.07-72.80 190.76-64.60Q188.45-56.40 186.66-49.88Q184.86-43.36 184.20-40.36L184.20-40.36Q183.33-36.62 182.67-32.74Q182.01-28.86 182.08-25.93L182.08-25.93Q182.23-22.71 183.36-20.00Q184.50-17.29 185.93-14.47Q187.35-11.65 188.34-8.02Q189.33-4.39 189.18 0.73L189.18 0.73Q188.89 6.81 184.72 10.55Q180.54 14.28 174.17 14.28L174.17 14.28Q171.24 14.28 168.35 12.63Q165.45 10.99 164.28 6.45L164.28 6.45Q165.82-1.39 166.19-8.50Q166.55-15.60 165.78-20.47Q165.01-25.34 163.18-26.51L163.18-26.51Q159.96-28.86 155.27-29.08L155.27-29.08L155.27-31.79Q155.27-31.79 156.63-31.79Q157.98-31.79 159.67-31.79Q161.35-31.79 162.16-31.79ZM209.55-124.51L209.55-124.51L235.03-116.38L235.03-127.66L261.62-125.54Q261.40-123.85 260.30-122.75Q259.20-121.66 256.05-121.22L256.05-121.22L256.05-95.21L267.33-95.21L277.22-108.91Q277.22-108.91 279.02-107.37Q280.81-105.83 283.63-103.45Q286.45-101.07 289.45-98.40Q292.46-95.73 294.87-93.46L294.87-93.46Q294.43-91.04 290.70-91.04L290.70-91.04L256.05-91.04L256.05-63.72L270.12-63.72L280.37-77.86Q280.37-77.86 282.24-76.32Q284.11-74.78 286.96-72.33Q289.82-69.87 292.97-67.13Q296.12-64.38 298.68-61.96L298.68-61.96Q298.02-59.55 294.43-59.55L294.43-59.55L194.53-59.55L193.36-63.72L235.03-63.72L235.03-91.04L220.02-91.04Q215.77-84.16 210.57-77.67Q205.37-71.19 199.66-66.14L199.66-66.14L198.49-67.68Q200.90-73.75 202.88-81.19Q204.86-88.62 206.25-96.46Q207.64-104.30 208.48-111.55Q209.33-118.80 209.55-124.51ZM235.03-95.21L235.03-114.92Q234.16-113.75 231.30-113.96L231.30-113.96Q228.37-105.40 222.58-95.21L222.58-95.21L235.03-95.21ZM207.71 14.14L207.71-43.07L207.71-51.12L229.61-43.07L264.62-43.07L274.51-54.13L292.68-40.36Q291.87-39.33 290.63-38.56Q289.38-37.79 286.67-37.35L286.67-37.35L286.67 9.01Q286.67 9.59 282.06 11.39Q277.44 13.18 269.09 13.18L269.09 13.18L265.21 13.18L265.21 0.73L228.15 0.73L228.15 9.45Q228.15 10.47 223.75 12.30Q219.36 14.14 211.52 14.14L211.52 14.14L207.71 14.14ZM228.15-38.82L228.15-3.44L265.21-3.44L265.21-38.82L228.15-38.82ZM391.63-108.33L391.48-127.22L418.51-124.80Q417.85-121.36 412.79-120.48L412.79-120.48L412.65-89.87L418.80-89.87L429.42-100.49L447.00-85.18Q446.12-84.16 444.54-83.31Q442.97-82.47 440.41-82.03L440.41-82.03Q440.19-62.62 439.86-48.63Q439.53-34.64 438.87-25.05Q438.21-15.45 437.15-9.23Q436.08-3.00 434.36 0.77Q432.64 4.54 430.22 7.03L430.22 7.03Q426.27 10.99 421.22 12.78Q416.16 14.58 409.94 14.58L409.94 14.58Q410.08 9.38 409.64 5.93Q409.20 2.49 408.03 0.44L408.03 0.44Q406.42-1.83 404.08-3.44Q401.73-5.05 397.78-6.15L397.78-6.15L397.78-7.98Q400.49-7.69 404.15-7.51Q407.81-7.32 409.94-7.32L409.94-7.32Q412.79-7.32 414.62-9.16L414.62-9.16Q416.82-11.28 418.03-19.45Q419.24-27.61 419.75-43.69Q420.26-59.77 420.63-85.62L420.63-85.62L412.50-85.62Q412.28-67.97 410.71-53.14Q409.13-38.31 404.55-26.00Q399.98-13.70 390.93-3.74Q381.88 6.23 366.72 14.14L366.72 14.14L365.26 12.01Q370.46 6.74 374.34 0.99Q378.22-4.76 381.01-10.99L381.01-10.99Q370.75-6.81 355.33-1.65Q339.92 3.52 318.02 10.03L318.02 10.03Q316.41 12.96 313.33 13.48L313.33 13.48L304.47-9.30Q309.23-9.45 316.77-9.78Q324.32-10.11 333.76-10.77L333.76-10.77L333.76-23.36L311.28-23.36L310.03-27.61L333.76-27.61L333.76-40.06L308.42-40.06L307.18-44.24L333.76-44.24L333.76-57.42L327.47-57.42L327.47-53.98Q327.47-53.10 323.40-51.53Q319.34-49.95 312.16-49.95L312.16-49.95L308.86-49.95L308.86-92.72L328.93-85.03L359.40-85.03L366.58-93.02Q364.82-92.36 361.89-91.77Q358.96-91.19 354.93-91.19L354.93-91.19L349.66-91.19L349.66-105.18L337.79-105.18L337.79-94.63Q337.79-94.12 334.24-92.36Q330.69-90.60 323.22-90.60L323.22-90.60L318.16-90.60L318.16-105.18L304.83-105.18L303.74-109.35L318.16-109.35L318.16-128.10L341.97-126.12Q341.89-124.80 340.98-123.89Q340.06-122.97 337.79-122.53L337.79-122.53L337.79-109.35L349.66-109.35L349.66-128.10L374.12-126.12Q373.97-124.80 373.06-123.74Q372.14-122.68 369.73-122.24L369.73-122.24L369.73-109.35L370.68-109.35L378.44-120.78Q378.44-120.78 380.60-118.87Q382.76-116.97 385.84-114.11Q388.92-111.25 391.63-108.33L391.63-108.33ZM382.98-85.62L381.59-89.87L391.63-89.87L391.63-106.64Q390.82-105.18 388.33-105.18L388.33-105.18L369.73-105.18L369.73-95.21Q369.73-94.92 368.99-94.34L368.99-94.34L385.03-82.47Q384.38-81.52 383.17-80.82Q381.96-80.13 379.32-79.61L379.32-79.61L379.32-55.66Q379.32-55.22 377.20-54.27Q375.07-53.32 371.12-52.66L371.12-52.66Q373.46-50.61 376.94-47.75Q380.42-44.90 383.13-42.48L383.13-42.48Q382.47-40.06 379.03-40.06L379.03-40.06L353.25-40.06L353.25-27.61L359.55-27.61L367.38-37.94Q367.38-37.94 369.84-35.93Q372.29-33.91 375.66-31.09Q379.03-28.27 381.74-25.78L381.74-25.78Q381.08-23.36 377.71-23.36L377.71-23.36L353.25-23.36L353.25-12.01L382.47-14.14Q388.48-28.71 390.05-46.33Q391.63-63.94 391.63-85.62L391.63-85.62L382.98-85.62ZM359.40-44.24L365.41-52.08L363.43-52.08L359.84-52.08L359.84-57.42L353.25-57.42L353.25-44.24L359.40-44.24ZM327.47-80.86L327.47-61.67L333.76-61.67L333.76-80.86L327.47-80.86ZM353.25-61.67L359.84-61.67L359.84-80.86L353.25-80.86L353.25-61.67Z"/>
    </svg>
        