<?xml version="1.0" encoding="UTF-8" standalone="no"?>
        <svg 
    viewBox="1.025390625 -86.279296875 450.732421875 56.8359375"
    width="449.70703125"
    height="143.115234375"
   xmlns="http://www.w3.org/2000/svg"
   xmlns:svg="http://www.w3.org/2000/svg">
   <path d="M8.28-51.27L10.18-51.78Q18.46-45.78 21.83-39.73Q25.20-33.69 24.98-28.67Q24.76-23.66 22.23-20.62Q19.70-17.58 16.11-17.58Q12.52-17.58 9.30-21.61L9.30-21.61Q10.55-28.93 10.07-36.91Q9.59-44.90 8.28-51.27L8.28-51.27ZM15.60 13.62L3.30-8.28Q6.88-8.72 12.56-9.67Q18.24-10.62 25.34-11.87L25.34-11.87L25.34-57.13L7.18-57.13L6.01-61.38L25.34-61.38L25.34-79.47L16.92-79.47L16.19-81.88Q13.04-78.96 9.56-76.32Q6.08-73.68 2.42-71.41L2.42-71.41L1.03-72.44Q5.13-78.00 8.68-85.18Q12.23-92.36 15.16-100.05Q18.09-107.74 20.10-115.03Q22.12-122.31 23.07-128.10L23.07-128.10L48.27-120.12Q47.83-118.80 46.58-117.92Q45.34-117.04 42.77-116.82L42.77-116.82Q51.78-115.14 56.76-112.43Q61.74-109.72 63.87-106.64L63.87-106.64L63.43-108.33Q71.34-110.01 79.94-112.39Q88.55-114.77 96.86-117.52Q105.18-120.26 112.39-123.08Q119.60-125.90 124.66-128.39L124.66-128.39L143.12-109.79Q139.89-107.37 132.71-110.23L132.71-110.23Q128.25-109.57 123.01-108.98Q117.77-108.40 112.06-107.89L112.06-107.89L112.06-94.63L121.51-94.63L130.66-106.93Q130.66-106.93 133.48-104.59Q136.30-102.25 140.15-98.99Q143.99-95.73 147.00-92.87L147.00-92.87Q146.34-90.45 142.97-90.45L142.97-90.45L112.06-90.45L112.06-78.30L119.09-78.30L127.81-87.89L146.12-74.12Q145.46-73.17 143.88-72.25Q142.31-71.34 139.97-70.83L139.97-70.83L139.97-31.49Q139.82-30.91 136.52-29.74Q133.23-28.56 129.27-27.76L129.27-27.76Q130.74-26.66 133.34-24.54Q135.94-22.41 138.83-19.96Q141.72-17.50 144.14-15.31L144.14-15.31Q143.48-12.89 139.97-12.89L139.97-12.89L112.06-12.89L112.06 3.74L120.26 3.74L130.22-9.74Q130.22-9.74 132.06-8.24Q133.89-6.74 136.74-4.39Q139.60-2.05 142.68 0.59Q145.75 3.22 148.17 5.57L148.17 5.57Q147.73 7.98 143.99 7.98L143.99 7.98L57.28 7.98L56.10 3.74L92.87 3.74L92.87-12.89L66.58-12.89L65.55-16.77Q58.23-11.94 47.06-5.38Q35.89 1.17 19.48 9.74L19.48 9.74Q18.31 12.89 15.60 13.62L15.60 13.62ZM119.09-17.07L126.93-27.32L123.93-27.17L120.63-27.17L120.63-33.62L112.06-33.62L112.06-17.07L119.09-17.07ZM47.09-52.08L47.09-52.08L65.70-46.51L65.70-58.81Q65.11-57.13 62.26-57.13L62.26-57.13L42.77-57.13L42.77-15.01L67.02-19.63L67.38-18.02L65.99-17.07L92.87-17.07L92.87-33.62L84.59-33.62L84.59-30.03Q84.59-29.15 82.21-27.76Q79.83-26.37 76.10-25.27Q72.36-24.17 68.41-24.17L68.41-24.17L65.70-24.17L65.70-45.12Q64.53-43.07 60.86-43.07L60.86-43.07Q57.64-37.28 53.72-31.31Q49.80-25.34 45.92-20.73L45.92-20.73L43.51-21.75Q44.38-27.47 45.41-35.89Q46.44-44.31 47.09-52.08ZM65.70-60.13L65.70-78.30L65.70-85.99L85.47-78.30L92.87-78.30L92.87-90.45L64.82-90.45L63.57-94.63L92.87-94.63L92.87-106.64Q85.55-106.35 78.22-106.24Q70.90-106.13 64.01-106.35L64.01-106.35Q66.14-103.05 65.41-99.90Q64.67-96.75 62.11-94.74Q59.55-92.72 56.07-92.54Q52.59-92.36 49.22-94.92L49.22-94.92Q48.05-98.29 45.59-102.98Q43.14-107.67 39.77-112.21L39.77-112.21Q36.04-105.03 30.54-97.63Q25.05-90.23 18.16-83.72L18.16-83.72L39.18-83.72L47.53-95.73Q47.53-95.73 50.13-93.42Q52.73-91.11 56.21-87.89Q59.69-84.67 62.40-81.88L62.40-81.88Q61.74-79.47 58.37-79.47L58.37-79.47L42.77-79.47L42.77-61.38L43.51-61.38L51.78-73.97Q51.78-73.97 54.16-71.70Q56.54-69.43 59.80-66.21Q63.06-62.99 65.70-60.13L65.70-60.13ZM120.63-37.79L120.63-53.98L112.06-53.98L112.06-37.79L120.63-37.79ZM112.06-58.23L120.63-58.23L120.63-74.12L112.06-74.12L112.06-58.23ZM92.87-53.98L84.59-53.98L84.59-37.79L92.87-37.79L92.87-53.98ZM84.59-74.12L84.59-58.23L92.87-58.23L92.87-74.12L84.59-74.12ZM206.84-109.06L205.66-113.23L262.79-113.23L273.49-127.95Q273.49-127.95 275.43-126.34Q277.37-124.73 280.37-122.17Q283.37-119.60 286.63-116.75Q289.89-113.89 292.53-111.47L292.53-111.47Q291.87-109.06 288.28-109.06L288.28-109.06L206.84-109.06ZM163.62-123.93L164.72-124.80Q176.07-124.95 182.85-122.57Q189.62-120.19 192.59-116.53Q195.56-112.87 195.45-109.06Q195.34-105.25 192.92-102.39Q190.50-99.54 186.51-98.84Q182.52-98.14 177.76-100.78L177.76-100.78Q175.93-107.08 171.83-113.42Q167.72-119.75 163.62-123.93L163.62-123.93ZM153.44-91.77L154.47-92.58Q165.45-92.07 171.72-89.36Q177.98-86.65 180.43-82.91Q182.89-79.17 182.41-75.51Q181.93-71.85 179.26-69.29Q176.59-66.72 172.56-66.39Q168.53-66.06 164.14-69.14L164.14-69.14Q163.33-75.37 160.18-81.52Q157.03-87.67 153.44-91.77L153.44-91.77ZM162.45-33.62L162.45-33.62Q164.36-33.62 165.20-34.02Q166.04-34.42 167.43-36.77L167.43-36.77Q168.31-38.23 169.12-39.62Q169.92-41.02 171.13-43.40Q172.34-45.78 174.35-50.06Q176.37-54.35 179.70-61.56Q183.03-68.77 188.12-79.91Q193.21-91.04 200.54-107.08L200.54-107.08L202.81-106.49Q200.98-100.71 198.82-93.46Q196.66-86.21 194.46-78.52Q192.26-70.83 190.32-63.76Q188.38-56.69 186.95-51.27Q185.52-45.85 184.94-43.21L184.94-43.21Q183.91-39.18 183.18-35.05Q182.45-30.91 182.52-27.91L182.52-27.91Q182.67-24.68 183.80-22.01Q184.94-19.34 186.33-16.52Q187.72-13.70 188.71-10.07Q189.70-6.45 189.62-1.32L189.62-1.32Q189.40 4.61 185.27 8.39Q181.13 12.16 174.61 12.16L174.61 12.16Q171.75 12.16 168.86 10.51Q165.97 8.86 164.72 4.32L164.72 4.32Q166.26-3.37 166.63-10.40Q166.99-17.43 166.19-22.30Q165.38-27.17 163.48-28.34L163.48-28.34Q160.25-30.69 155.57-30.91L155.57-30.91L155.57-33.62Q155.57-33.62 156.92-33.62Q158.28-33.62 159.96-33.62Q161.65-33.62 162.45-33.62ZM199.66-68.99L198.49-73.17L268.21-73.17L278.98-88.33Q278.98-88.33 280.96-86.68Q282.93-85.03 285.97-82.40Q289.01-79.76 292.27-76.83Q295.53-73.90 298.17-71.41L298.17-71.41Q297.51-68.99 293.85-68.99L293.85-68.99L269.38-68.99L269.38-13.48Q269.38-12.01 269.82-11.39Q270.26-10.77 271.95-10.77L271.95-10.77L276.12-10.77Q277.29-10.77 278.21-10.77Q279.13-10.77 279.93-10.77L279.93-10.77Q281.62-10.77 282.71-12.89L282.71-12.89Q284.11-15.23 286.16-21.61Q288.21-27.98 290.55-35.52L290.55-35.52L291.87-35.52L292.53-11.57Q295.97-9.74 297.00-7.65Q298.02-5.57 298.02-2.56L298.02-2.56Q298.02 3.52 292.53 6.77Q287.04 10.03 273.27 10.03L273.27 10.03L264.62 10.03Q257.30 10.03 253.67 8.42Q250.05 6.81 248.84 2.97Q247.63-0.88 247.63-7.62L247.63-7.62L247.63-68.99L239.43-68.99Q238.48-55.30 235.66-42.74Q232.84-30.18 226.94-19.34Q221.04-8.50 211.01 0.15Q200.98 8.79 185.67 14.72L185.67 14.72L184.94 13.33Q197.97 2.64 204.64-10.55Q211.30-23.73 213.57-38.53Q215.84-53.32 215.84-68.99L215.84-68.99L199.66-68.99ZM314.58-101.07L314.58-101.07L316.77-101.07Q322.34-87.96 322.05-78.15Q321.75-68.33 318.16-63.28L318.16-63.28Q316.41-61.01 313.70-60.13Q310.99-59.25 308.35-59.99Q305.71-60.72 304.17-63.13L304.17-63.13Q302.27-66.43 303.41-69.69Q304.54-72.95 307.47-75.29L307.47-75.29Q309.38-77.56 311.21-81.74Q313.04-85.91 314.06-91.00Q315.09-96.09 314.58-101.07ZM343.36-100.20L344.24-100.63Q352.66-98.22 357.09-94.85Q361.52-91.48 362.88-87.93Q364.23-84.38 363.24-81.41Q362.26-78.44 359.73-76.76Q357.20-75.07 353.94-75.37Q350.68-75.66 347.53-78.74L347.53-78.74Q347.90-83.79 346.58-89.17Q345.26-94.56 343.36-98.73L343.36-98.73L343.36 8.72Q343.36 9.52 340.94 10.84Q338.53 12.16 334.83 13.22Q331.13 14.28 327.32 14.28L327.32 14.28L323.22 14.28L323.22-128.10L348.93-125.54Q348.71-124.00 347.53-122.90Q346.36-121.80 343.36-121.36L343.36-121.36L343.36-100.20ZM351.12-109.64L349.95-113.82L416.82-113.82L427.81-128.39Q427.81-128.39 429.79-126.82Q431.76-125.24 434.80-122.72Q437.84-120.19 441.14-117.37Q444.43-114.55 447.14-112.06L447.14-112.06Q446.48-109.64 442.97-109.64L442.97-109.64L392.07-109.64L388.33-86.28L412.35-86.28L421.51-97.49L441.58-80.71Q440.55-79.47 439.20-78.92Q437.84-78.37 434.99-78.00L434.99-78.00L425.24 3.30L433.81-9.59Q433.81-9.59 435.57-7.98Q437.33-6.37 440.04-3.85Q442.75-1.32 445.64 1.50Q448.54 4.32 450.73 6.74L450.73 6.74Q450.07 9.16 446.56 9.16L446.56 9.16L347.24 9.16L346.07 4.98L402.91 4.98L413.67-82.03L387.60-82.03L385.99-72.29Q395.21-71.70 400.45-69.32Q405.69-66.94 407.70-63.68Q409.72-60.42 409.17-57.24Q408.62-54.05 406.27-51.86Q403.93-49.66 400.45-49.40Q396.97-49.15 393.16-51.78L393.16-51.78Q392.58-56.25 390.38-60.97Q388.18-65.70 385.33-69.14L385.33-69.14L380.71-44.24Q390.67-43.87 396.35-41.38Q402.03-38.89 404.19-35.41Q406.35-31.93 405.80-28.53Q405.25-25.12 402.69-22.78Q400.12-20.43 396.35-20.10Q392.58-19.78 388.33-22.63L388.33-22.63Q387.67-27.47 385.36-32.41Q383.06-37.35 380.13-41.09L380.13-41.09Q378.74-34.94 377.56-29.33Q376.39-23.73 375.29-19.19L375.29-19.19Q372.36-16.92 366.39-16.48Q360.42-16.04 353.54-17.87L353.54-17.87Q355.37-24.76 357.42-34.06Q359.47-43.36 361.45-53.76Q363.43-64.16 365.19-74.52Q366.94-84.89 368.26-93.97Q369.58-103.05 370.17-109.64L370.17-109.64L351.12-109.64Z"/>
    </svg>
        