<?xml version="1.0" encoding="UTF-8" standalone="no"?>
        <svg 
    viewBox="3.0029296875 -85.7666015625 448.3154296875 56.9091796875"
    width="445.3125"
    height="142.67578125"
   xmlns="http://www.w3.org/2000/svg"
   xmlns:svg="http://www.w3.org/2000/svg">
   <path d="M10.33-112.50L9.16-116.67L28.34-116.67L36.62-127.51Q36.62-127.51 39.15-125.46Q41.67-123.41 45.15-120.48Q48.63-117.55 51.27-114.92L51.27-114.92Q50.83-112.50 47.39-112.50L47.39-112.50L10.33-112.50ZM9.59-73.83L8.42-78.00L29.74-78.00L37.50-88.33Q37.50-88.33 39.95-86.32Q42.41-84.30 45.74-81.48Q49.07-78.66 51.78-76.17L51.78-76.17Q51.12-73.83 47.68-73.83L47.68-73.83L9.59-73.83ZM9.59-54.13L8.42-58.37L29.74-58.37L37.50-68.70Q37.50-68.70 39.95-66.69Q42.41-64.67 45.74-61.85Q49.07-59.03 51.78-56.54L51.78-56.54Q51.12-54.13 47.68-54.13L47.68-54.13L9.59-54.13ZM8.28 14.28L8.28-37.50L8.28-44.82L26.73-37.50L31.20-37.50L39.18-45.78L51.78-36.47L48.49-47.24L54.57-47.68L54.57-95.07Q53.98-93.46 51.12-93.46L51.12-93.46L4.17-93.46L3.00-97.63L32.08-97.63L40.36-108.62Q40.36-108.62 42.77-106.64Q45.19-104.66 48.52-101.84Q51.86-99.02 54.57-96.46L54.57-96.46L54.57-115.50L66.58-110.82Q66.94-115.14 67.05-119.82Q67.16-124.51 67.02-128.25L67.02-128.25L92.29-124.37Q91.70-121.00 87.01-120.78L87.01-120.78Q83.94-118.07 79.87-114.92Q75.81-111.77 71.41-109.06L71.41-109.06L73.54-108.33L77.86-108.33L85.62-117.11L102.03-104.52Q100.71-102.69 97.05-101.88L97.05-101.88L97.05-67.02L101.37-65.55L99.90-72.73L101.51-73.32Q107.08-70.31 110.74-67.09Q114.40-63.87 116.38-60.57L116.38-60.57L116.38-87.01L98.22-87.01L97.19-91.19L116.38-91.19L116.38-125.68L141.43-123.27Q141.21-121.58 139.97-120.56Q138.72-119.53 135.86-119.09L135.86-119.09L135.86-97.19L139.01-103.05Q139.01-103.05 141.03-100.74Q143.04-98.44 145.61-95.21Q148.17-91.99 150-89.43L150-89.43Q149.34-87.01 146.26-87.01L146.26-87.01L135.86-87.01L135.86-8.13Q135.86-1.32 134.44 3.33Q133.01 7.98 128.25 10.66Q123.49 13.33 113.53 14.28L113.53 14.28Q113.31 9.52 112.83 6.04Q112.35 2.56 111.18 0.29L111.18 0.29Q109.94-1.83 107.89-3.41Q105.83-4.98 101.51-5.86L101.51-5.86L101.51-7.76Q101.51-7.76 104.11-7.62Q106.71-7.47 109.68-7.32Q112.65-7.18 113.82-7.18L113.82-7.18Q116.38-7.18 116.38-9.30L116.38-9.30L116.38-42.33Q113.67-39.62 109.72-39.73Q105.76-39.84 102.17-44.09L102.17-44.09Q102.61-48.12 102.54-52.33Q102.47-56.54 102.03-60.57L102.03-60.57L101.73-60.57Q100.71-58.15 99.54-55.55Q98.36-52.95 97.05-50.39L97.05-50.39L97.05-6.45Q97.05-0.22 95.69 4.14Q94.34 8.50 89.83 11.02Q85.33 13.55 76.03 14.43L76.03 14.43Q75.81 10.11 75.29 6.77Q74.78 3.44 73.68 1.68L73.68 1.68Q72.29-0.37 70.24-1.83Q68.19-3.30 63.87-4.17L63.87-4.17L63.87-6.15Q63.87-6.15 66.54-6.01Q69.21-5.86 72.25-5.71Q75.29-5.57 76.46-5.57L76.46-5.57Q78.22-5.57 78.70-6.23Q79.17-6.88 79.17-8.28L79.17-8.28L79.17-23.88Q73.46-17.36 66.36-11.57Q59.25-5.79 50.68-1.46L50.68-1.46L50.68 1.46Q50.61 2.20 48.16 3.44Q45.70 4.69 42.22 5.71Q38.75 6.74 35.67 6.74L35.67 6.74L32.52 6.74L32.52-0.88L26.22-0.88L26.22 8.57Q26.22 9.38 23.95 10.73Q21.68 12.08 18.16 13.18Q14.65 14.28 10.77 14.28L10.77 14.28L8.28 14.28ZM75.88-40.65L75.88-40.65L59.69-28.78Q58.15-25.49 55.22-25.05L55.22-25.05L53.10-31.93Q52.08-31.42 50.68-31.20L50.68-31.20L50.68-4.17Q58.81-11.72 65.11-21.17Q71.41-30.62 75.88-40.65ZM71.41-65.84L71.41-49.37L79.17-50.10L79.17-65.84L71.41-65.84ZM79.17-104.22L71.41-104.22L71.41-89.28L79.17-89.28L79.17-104.22ZM79.17-85.18L71.41-85.18L71.41-69.87L79.17-69.87L79.17-85.18ZM32.52-5.13L32.52-33.33L26.22-33.33L26.22-5.13L32.52-5.13ZM238.04-127.37L238.04-127.37L269.97-121.80Q269.17-117.92 263.82-117.48L263.82-117.48Q260.23-113.53 255.21-107.92Q250.20-102.32 246.02-97.92L246.02-97.92L266.53-97.92L277.22-110.08L295.83-95.21Q294.87-94.12 293.44-93.16Q292.02-92.21 289.38-91.63L289.38-91.63L289.38 5.57Q289.38 6.15 287.15 7.58Q284.91 9.01 280.85 10.22Q276.78 11.43 271.22 11.43L271.22 11.43L267.48 11.43L267.48-0.59L237.30-0.59L237.30 7.03Q237.30 8.20 232.80 10.40Q228.30 12.60 220.17 12.60L220.17 12.60L216.43 12.60L216.43-48.27Q214.09-45.48 210.06-45.04Q206.03-44.60 201.93-48.27L201.93-48.27Q201.71-53.69 199.95-59.25Q198.19-64.82 196.07-69.43L196.07-69.43L196.07 8.42Q196.07 9.23 193.51 10.62Q190.94 12.01 187.10 13.15Q183.25 14.28 179.22 14.28L179.22 14.28L175.05 14.28L175.05-44.09Q170.58-37.94 165.20-32.23Q159.81-26.51 153.59-21.61L153.59-21.61L151.83-23.07Q157.18-31.49 161.35-41.89Q165.53-52.29 168.53-63.54Q171.53-74.78 173.36-85.77L173.36-85.77L156.74-85.77L155.57-90.01L175.05-90.01L175.05-127.95L201.64-125.39Q201.34-123.71 200.28-122.61Q199.22-121.51 196.07-121.07L196.07-121.07L196.07-90.31L203.98-103.34Q203.98-103.34 206.07-101.22Q208.15-99.10 211.05-96.06Q213.94-93.02 216.43-90.16L216.43-90.16L216.43-106.35L238.18-98.22Q238.33-104.44 238.29-112.65Q238.26-120.85 238.04-127.37ZM214.23-85.77L196.07-85.77L196.07-72.88Q204.35-70.75 209.29-67.68Q214.23-64.60 216.43-61.23L216.43-61.23L216.43-86.28Q215.55-85.77 214.23-85.77L214.23-85.77ZM267.48-50.24L237.30-50.24L237.30-4.83L267.48-4.83L267.48-50.24ZM237.30-93.75L237.30-54.42L267.48-54.42L267.48-93.75L237.30-93.75ZM347.09-52.08L347.09-52.08L366.58-46.22Q366.06-44.82 364.67-43.95Q363.28-43.07 360.86-43.07L360.86-43.07Q357.64-37.28 353.72-31.31Q349.80-25.34 345.92-20.73L345.92-20.73L343.51-21.75Q344.38-27.47 345.41-35.89Q346.44-44.31 347.09-52.08ZM308.28-51.27L310.18-51.78Q318.46-45.78 321.83-39.73Q325.20-33.69 324.98-28.67Q324.76-23.66 322.23-20.62Q319.70-17.58 316.11-17.58Q312.52-17.58 309.30-21.61L309.30-21.61Q310.55-28.93 310.07-36.91Q309.59-44.90 308.28-51.27L308.28-51.27ZM364.38-10.18L363.13-14.43L391.04-14.43L391.04-28.78L371.12-28.78L369.87-33.03L391.04-33.03L391.04-45.78L369.58-45.78L368.41-49.95L391.04-49.95L391.04-64.82L415.94-62.55Q415.72-61.23 414.70-60.24Q413.67-59.25 411.04-58.81L411.04-58.81L411.04-49.95L415.80-49.95L424.51-60.13Q424.51-60.13 427.29-58.19Q430.08-56.25 433.89-53.47Q437.70-50.68 440.84-48.12L440.84-48.12Q440.19-45.78 436.67-45.78L436.67-45.78L411.04-45.78L411.04-33.03L416.53-33.03L424.95-44.38Q424.95-44.38 427.62-42.22Q430.30-40.06 433.92-36.99Q437.55-33.91 440.41-31.20L440.41-31.20Q439.75-28.78 436.38-28.78L436.38-28.78L411.04-28.78L411.04-14.43L420.26-14.43L429.42-26.22Q429.42-26.22 432.24-23.99Q435.06-21.75 438.90-18.57Q442.75-15.38 445.83-12.60L445.83-12.60Q445.39-10.18 441.72-10.18L441.72-10.18L411.04-10.18L411.04 9.01Q411.04 9.74 408.51 10.95Q405.98 12.16 402.17 13.15Q398.36 14.14 394.63 14.14L394.63 14.14L391.04 14.14L391.04-10.18L364.38-10.18ZM384.45-95.87L384.45-95.87Q379.47-91.33 373.86-87.56Q368.26-83.79 362.11-81.01L362.11-81.01L361.82-81.15Q361.16-79.47 358.37-79.47L358.37-79.47L342.77-79.47L342.77-61.38L343.51-61.38L351.78-73.97Q351.78-73.97 354.09-71.74Q356.40-69.51 359.62-66.36Q362.84-63.21 365.55-60.42L365.55-60.42Q381.81-69.51 393.16-82.62L393.16-82.62Q390.67-85.55 388.51-88.92Q386.35-92.29 384.45-95.87ZM387.60-98.73L387.60-98.73Q389.94-96.31 392.87-94.30Q395.80-92.29 399.17-90.45L399.17-90.45Q404.66-98.14 408.18-107.23L408.18-107.23L395.43-107.23Q393.60-105.03 391.63-102.87Q389.65-100.71 387.60-98.73ZM315.60 13.62L303.30-8.28Q306.88-8.72 312.56-9.67Q318.24-10.62 325.34-11.87L325.34-11.87L325.34-57.13L307.18-57.13L306.01-61.38L325.34-61.38L325.34-79.47L316.92-79.47L316.19-81.88Q313.04-78.96 309.56-76.32Q306.08-73.68 302.42-71.41L302.42-71.41L301.03-72.44Q305.13-78.00 308.68-85.18Q312.23-92.36 315.16-100.05Q318.09-107.74 320.10-115.03Q322.12-122.31 323.07-128.10L323.07-128.10L348.27-120.12Q347.83-118.80 346.58-117.92Q345.34-117.04 342.77-116.82L342.77-116.82Q352.29-115.14 357.46-112.17Q362.62-109.20 364.38-105.87Q366.14-102.54 365.30-99.50Q364.45-96.46 361.89-94.52Q359.33-92.58 355.92-92.50Q352.51-92.43 349.22-94.92L349.22-94.92Q348.05-98.29 345.59-102.98Q343.14-107.67 339.77-112.21L339.77-112.21Q336.04-105.03 330.54-97.63Q325.05-90.23 318.16-83.72L318.16-83.72L339.18-83.72L347.53-95.73Q347.53-95.73 349.91-93.60Q352.29-91.48 355.55-88.48Q358.81-85.47 361.52-82.76L361.52-82.76Q366.21-88.11 370.28-95.62Q374.34-103.13 377.34-111.51Q380.35-119.90 381.88-127.95L381.88-127.95L409.20-120.78Q408.76-119.53 407.59-119.06Q406.42-118.58 403.49-118.80L403.49-118.80Q402.39-116.97 401.15-115.10Q399.90-113.23 398.58-111.47L398.58-111.47L407.89-111.47L418.65-121.80L436.38-106.49Q435.57-105.40 434.33-104.85Q433.08-104.30 430.37-104.08L430.37-104.08Q427.51-98.73 423.93-93.68Q420.34-88.62 415.94-84.16L415.94-84.16Q422.90-82.32 431.03-81.19Q439.16-80.05 448.32-79.47L448.32-79.47L448.17-77.86Q442.60-75.37 439.89-70.68Q437.18-65.99 436.52-58.81L436.52-58.81Q425.68-61.16 417.44-64.75Q409.20-68.33 402.91-73.17L402.91-73.17Q393.90-67.02 382.76-62.26Q371.63-57.50 358.52-54.57L358.52-54.57L357.57-56.40L359.25-57.13L342.77-57.13L342.77-15.01L367.02-19.63L367.38-18.02Q360.06-13.04 348.49-6.19Q336.91 0.66 319.48 9.74L319.48 9.74Q318.31 12.89 315.60 13.62L315.60 13.62Z"/>
    </svg>
        