<?xml version="1.0" encoding="UTF-8" standalone="no"?>
        <svg 
    viewBox="3.0029296875 -86.0595703125 445.9716796875 56.9091796875"
    width="442.96875"
    height="142.96875"
   xmlns="http://www.w3.org/2000/svg"
   xmlns:svg="http://www.w3.org/2000/svg">
   <path d="M98.88-32.08L100.20-33.03Q114.77-29.15 123.56-23.51Q132.35-17.87 136.45-11.68Q140.55-5.49 140.84 0.04Q141.14 5.57 138.65 9.23Q136.16 12.89 131.76 13.51Q127.37 14.14 122.09 10.33L122.09 10.33Q120.41 3.00 116.75-4.61Q113.09-12.23 108.40-19.30Q103.71-26.37 98.88-32.08L98.88-32.08ZM67.97-36.04L94.48-23.36Q93.68-21.46 89.58-21.90L89.58-21.90Q85.03-15.31 77.34-8.39Q69.65-1.46 60.13 4.50Q50.61 10.47 40.65 14.28L40.65 14.28L39.77 12.60Q46.14 6.45 51.82-2.20Q57.50-10.84 61.71-19.81Q65.92-28.78 67.97-36.04L67.97-36.04ZM12.16-31.93L12.16-31.93Q13.92-31.93 14.83-32.34Q15.75-32.74 16.92-35.08L16.92-35.08Q17.80-36.62 18.57-38.01Q19.34-39.40 20.43-41.75Q21.53-44.09 23.44-48.45Q25.34-52.81 28.45-60.06Q31.57-67.31 36.33-78.52Q41.09-89.72 47.97-105.91L47.97-105.91L50.24-105.32Q48.63-99.54 46.69-92.25Q44.75-84.96 42.77-77.23Q40.80-69.51 39.04-62.40Q37.28-55.30 36.00-49.84Q34.72-44.38 34.20-41.67L34.20-41.67Q33.33-37.65 32.67-33.54Q32.01-29.44 32.08-26.37L32.08-26.37Q32.23-23.14 33.36-20.43Q34.50-17.72 35.93-14.90Q37.35-12.08 38.34-8.46Q39.33-4.83 39.18 0.29L39.18 0.29Q39.04 6.30 34.94 10.03Q30.83 13.77 24.32 13.77L24.32 13.77Q21.39 13.77 18.42 12.12Q15.45 10.47 14.28 6.01L14.28 6.01Q15.82-1.68 16.22-8.72Q16.63-15.75 15.89-20.65Q15.16-25.56 13.33-26.88L13.33-26.88Q11.65-27.83 9.70-28.49Q7.76-29.15 5.42-29.22L5.42-29.22L5.42-31.93Q5.42-31.93 6.74-31.93Q8.06-31.93 9.70-31.93Q11.35-31.93 12.16-31.93ZM3.00-92.43L4.03-93.16Q15.01-92.65 21.28-89.94Q27.54-87.23 29.99-83.50Q32.45-79.76 31.97-76.10Q31.49-72.44 28.82-69.87Q26.15-67.31 22.12-66.98Q18.09-66.65 13.62-69.73L13.62-69.73Q12.89-75.95 9.74-82.10Q6.59-88.26 3.00-92.43L3.00-92.43ZM12.60-124.07L13.62-124.95Q25.05-125.10 31.82-122.72Q38.60-120.34 41.56-116.67Q44.53-113.01 44.42-109.20Q44.31-105.40 41.89-102.54Q39.48-99.68 35.49-98.99Q31.49-98.29 26.73-100.93L26.73-100.93Q24.90-107.23 20.76-113.56Q16.63-119.90 12.60-124.07L12.60-124.07ZM83.72-42.33L98.88-42.33L98.88-82.62L83.72-82.62L83.72-42.33ZM119.38-88.18L128.10-100.78Q128.10-100.78 129.86-99.24Q131.62-97.71 134.29-95.29Q136.96-92.87 139.86-90.12Q142.75-87.38 145.02-85.03L145.02-85.03Q144.58-82.62 140.99-82.62L140.99-82.62L119.38-82.62L119.38-42.33L120.12-42.33L130.37-57.28Q130.37-57.28 132.24-55.63Q134.11-53.98 137.00-51.38Q139.89-48.78 143.04-45.89Q146.19-42.99 148.68-40.50L148.68-40.50Q148.02-38.09 144.43-38.09L144.43-38.09L39.62-38.09L38.38-42.33L63.28-42.33L63.28-82.62L47.09-82.62L45.92-86.87L63.28-86.87L63.28-126.64L89.28-124.37Q88.99-122.75 87.93-121.66Q86.87-120.56 83.72-119.97L83.72-119.97L83.72-86.87L98.88-86.87L98.88-126.64L124.95-124.37Q124.73-122.75 123.63-121.66Q122.53-120.56 119.38-119.97L119.38-119.97L119.38-88.18ZM248.22-70.68L248.22-91.77L271.22-90.16Q270.78-87.01 266.67-86.43L266.67-86.43L266.67-74.85Q266.67-73.75 267.19-73.32Q267.70-72.88 269.24-72.88L269.24-72.88L274.80-72.88Q276.12-72.88 277.44-72.88Q278.76-72.88 279.42-72.88L279.42-72.88Q281.47-72.88 282.71-73.97L282.71-73.97Q283.67-74.71 285.13-76.98Q286.60-79.25 288.13-82.62L288.13-82.62L289.67-82.62L290.26-73.83Q293.41-72.36 294.40-70.72Q295.39-69.07 295.39-66.58L295.39-66.58Q295.39-61.23 290.08-58.59Q284.77-55.96 272.24-55.96L272.24-55.96L263.23-55.96Q256.57-55.96 253.38-57.31Q250.20-58.67 249.21-61.89Q248.22-65.11 248.22-70.68L248.22-70.68ZM204.27-79.17L197.09-101.73L220.02-101.51Q222.44-108.11 224.41-115.39Q226.39-122.68 227.56-128.39L227.56-128.39L258.33-120.26Q257.89-118.87 256.53-118.03Q255.18-117.19 252.61-117.33L252.61-117.33Q248.29-113.82 242.18-109.68Q236.06-105.54 229.47-101.73L229.47-101.73L267.92-102.32Q262.72-109.13 257.23-113.67L257.23-113.67L258.47-114.77Q270.92-113.89 278.54-110.71Q286.16-107.52 289.82-103.23Q293.48-98.95 293.88-94.67Q294.29-90.38 292.24-87.23Q290.19-84.08 286.34-83.17Q282.50-82.25 277.81-84.89L277.81-84.89Q275.46-91.63 270.92-98.22L270.92-98.22Q262.94-95.87 252.54-93.13Q242.14-90.38 228.74-87.16L228.74-87.16L244.04-83.86Q243.60-82.25 242.25-81.34Q240.89-80.42 238.04-80.57L238.04-80.57Q236.35-75.73 233.35-71.26Q230.35-66.80 225.15-62.84L225.15-62.84L250.78-56.25Q250.34-55.00 249.17-54.53Q248.00-54.05 244.92-54.27L244.92-54.27Q243.24-51.64 241.26-49.00Q239.28-46.36 237.01-43.80L237.01-43.80L254.88-43.80L266.38-54.42L284.55-38.38Q283.74-37.13 282.42-36.62Q281.10-36.11 278.39-35.82L278.39-35.82Q271.73-24.10 261.47-14.72L261.47-14.72Q269.46-12.30 278.76-10.80Q288.06-9.30 298.54-8.57L298.54-8.57L298.32-6.74Q291.72-4.17 288.54 0.95Q285.35 6.08 284.55 14.14L284.55 14.14Q272.17 11.21 262.76 6.88Q253.34 2.56 246.17-3.30L246.17-3.30Q223.97 9.81 191.38 14.58L191.38 14.58L190.65 12.60Q204.35 8.13 215.84 1.57Q227.34-4.98 236.28-13.18L236.28-13.18Q229.39-21.61 224.56-31.79L224.56-31.79Q218.48-26.88 211.67-22.78Q204.86-18.68 197.39-15.89L197.39-15.89L196.36-17.07Q202.51-22.19 208.01-29.59Q213.50-36.99 217.75-45.45Q222.00-53.91 224.41-62.26L224.41-62.26Q219.36-58.67 211.96-55.66Q204.57-52.66 194.24-50.39L194.24-50.39L193.51-52.22Q206.18-58.30 211.49-66.94Q216.80-75.59 217.82-84.59L217.82-84.59L209.11-82.47Q207.42-79.69 204.27-79.17L204.27-79.17ZM255.18-39.62L255.18-39.62L233.13-39.62L227.56-34.35Q234.23-26.73 244.04-21.61L244.04-21.61Q251.00-30.10 255.18-39.62ZM179.74-128.39L179.74-128.39L208.52-119.82Q207.93-118.36 206.43-117.48Q204.93-116.60 202.37-116.67L202.37-116.67Q195.63-99.39 187.06-85.62L187.06-85.62L196.22-82.32Q195.85-81.37 194.82-80.60Q193.80-79.83 191.53-79.32L191.53-79.32L191.53 8.13Q191.38 8.94 188.75 10.40Q186.11 11.87 182.12 13.07Q178.13 14.28 173.88 14.28L173.88 14.28L169.78 14.28L169.78-63.57Q161.87-55.44 152.42-48.78L152.42-48.78L150.73-49.80Q156.67-59.40 162.30-72.14Q167.94-84.89 172.52-99.32Q177.10-113.75 179.74-128.39ZM349.95-52.08L349.95-52.08L370.02-46.07Q369.07-42.92 364.38-42.92L364.38-42.92Q361.01-36.91 356.87-30.87Q352.73-24.83 348.63-20.21L348.63-20.21L346.36-21.31Q347.24-27.17 348.27-35.67Q349.29-44.17 349.95-52.08ZM308.86-51.27L310.62-51.78Q319.19-45.78 322.60-39.70Q326.00-33.62 325.78-28.53Q325.56-23.44 323.00-20.40Q320.43-17.36 316.77-17.40Q313.11-17.43 309.74-21.61L309.74-21.61Q310.99-28.93 310.55-36.91Q310.11-44.90 308.86-51.27L308.86-51.27ZM413.23-103.64L399.17-103.64Q396.02-99.39 392.32-95.36Q388.62-91.33 384.59-87.60L384.59-87.60Q392.50-86.57 396.75-83.83Q401.00-81.08 402.47-77.86L402.47-77.86Q405.83-84.16 408.58-90.64Q411.33-97.12 413.23-103.64L413.23-103.64ZM387.60-128.39L387.60-128.39L414.18-119.68Q413.67-118.58 412.46-118.10Q411.25-117.63 408.33-118.07L408.33-118.07Q406.93-115.43 405.43-112.87Q403.93-110.30 402.17-107.89L402.17-107.89L412.50-107.89L423.78-118.80L442.02-102.61Q441.28-101.37 439.93-100.82Q438.57-100.27 435.72-99.90L435.72-99.90Q430.00-85.47 420.74-72.47Q411.47-59.47 398.07-48.93L398.07-48.93L399.61-48.27L418.36-48.27L426.64-58.96L445.97-44.82Q445.24-43.95 443.85-43.21Q442.46-42.48 440.11-42.11L440.11-42.11L440.11 6.59Q440.11 7.62 435.72 9.59Q431.32 11.57 423.27 11.57L423.27 11.57L419.68 11.57L419.68 0.88L397.63 0.88L397.63 8.13Q397.63 9.08 393.49 11.50Q389.36 13.92 381.88 13.92L381.88 13.92L378.30 13.92L378.30-35.82Q369.07-31.13 358.52-27.32L358.52-27.32L357.42-28.93Q368.12-35.82 377.27-44.75Q386.43-53.69 393.75-63.87L393.75-63.87Q389.72-63.65 385.62-66.43L385.62-66.43Q385.40-70.83 383.64-75.22Q381.88-79.61 379.17-83.13L379.17-83.13Q370.31-75.95 359.55-70.97L359.55-70.97L358.37-72.14Q365.26-78.44 371.08-87.67Q376.90-96.90 381.15-107.48Q385.40-118.07 387.60-128.39ZM397.63-44.09L397.63-3.30L419.68-3.30L419.68-44.09L397.63-44.09ZM315.89 13.92L304.03-8.28Q307.91-8.72 313.73-9.52Q319.56-10.33 326.88-11.57L326.88-11.57L326.88-57.13L307.32-57.13L306.15-61.38L326.88-61.38L326.88-79.47L317.72-79.47L317.29-81.15Q313.84-78.22 310.25-75.55Q306.67-72.88 302.86-70.68L302.86-70.68L301.46-71.70Q305.86-77.34 309.78-84.59Q313.70-91.85 316.85-99.68Q320.00-107.52 322.23-114.99Q324.46-122.46 325.49-128.39L325.49-128.39L350.68-120.12Q350.39-118.80 349.07-117.85Q347.75-116.89 344.82-116.67L344.82-116.67Q355.08-114.84 360.64-111.73Q366.21-108.62 368.23-105.07Q370.24-101.51 369.47-98.36Q368.70-95.21 366.17-93.16Q363.65-91.11 360.17-90.93Q356.69-90.75 353.25-93.31L353.25-93.31Q351.78-97.05 348.93-102.14Q346.07-107.23 342.11-112.21L342.11-112.21Q338.23-105.03 332.59-97.63Q326.95-90.23 319.92-83.72L319.92-83.72L339.92-83.72L348.63-96.31Q348.63-96.31 351.34-93.93Q354.05-91.55 357.71-88.18Q361.38-84.81 364.23-81.88L364.23-81.88Q363.57-79.47 360.13-79.47L360.13-79.47L344.97-79.47L344.97-63.43L352.66-75.15Q352.66-75.15 354.31-73.61Q355.96-72.07 358.45-69.65Q360.94-67.24 363.61-64.56Q366.28-61.89 368.41-59.55L368.41-59.55Q367.75-57.13 364.38-57.13L364.38-57.13L344.97-57.13L344.97-14.43L371.56-18.90L371.85-17.43Q363.94-12.30 351.42-5.57Q338.89 1.17 320.07 10.03L320.07 10.03Q318.75 13.26 315.89 13.92L315.89 13.92Z"/>
    </svg>
        