<?xml version="1.0" encoding="UTF-8" standalone="no"?>
        <svg 
    viewBox="1.46484375 -86.0595703125 446.4111328125 56.9091796875"
    width="444.9462890625"
    height="142.96875"
   xmlns="http://www.w3.org/2000/svg"
   xmlns:svg="http://www.w3.org/2000/svg">
   <path d="M124.37-106.49L127.95-111.18Q125.83-109.72 122.79-109.57Q119.75-109.42 116.38-111.33L116.38-111.33Q115.58-114.92 113.60-118.43Q111.62-121.95 109.50-124.66L109.50-124.66Q109.28-123.27 108.29-122.46Q107.30-121.66 104.74-121.22L104.74-121.22L104.74-106.49L124.37-106.49ZM83.42-106.49L83.42-127.37L109.06-125.10L107.89-126.64L108.91-127.37Q118.51-128.25 123.74-126.56Q128.98-124.88 130.74-121.91Q132.50-118.95 131.69-116.09L131.69-116.09L132.57-117.33Q132.57-117.33 135.13-115.25Q137.70-113.16 141.17-110.23Q144.65-107.30 147.44-104.74L147.44-104.74Q147.00-102.32 143.41-102.32L143.41-102.32L125.98-102.32L144.43-88.48Q143.77-87.74 142.49-86.94Q141.21-86.13 139.23-85.62L139.23-85.62L139.23-50.24Q139.16-49.80 136.05-48.78Q132.93-47.75 128.76-46.91Q124.58-46.07 121.22-46.07L121.22-46.07L117.48-46.07L117.48-58.96L104.74-58.96L104.74-49.22Q104.74-48.34 101.88-46.95L101.88-46.95L126.93-44.97Q126.49-41.89 121.95-41.24L121.95-41.24L121.95-33.18L122.53-33.18L132.13-46.36Q132.13-46.36 133.89-44.90Q135.64-43.43 138.35-41.13Q141.06-38.82 143.99-36.22Q146.92-33.62 149.27-31.35L149.27-31.35Q148.61-28.93 145.02-28.93L145.02-28.93L121.95-28.93L121.95-7.76Q121.95-1.03 120.30 3.55Q118.65 8.13 113.53 10.73Q108.40 13.33 97.78 14.28L97.78 14.28Q97.56 9.67 97.08 6.34Q96.61 3.00 95.21 0.88L95.21 0.88Q93.90-1.03 91.96-2.53Q90.01-4.03 85.62-4.98L85.62-4.98Q83.06-1.90 78.44-1.25Q73.83-0.59 68.85-4.17L68.85-4.17Q68.04-10.40 65.22-16.52Q62.40-22.63 59.40-27.03L59.40-27.03L60.42-27.76Q73.10-26.81 79.47-23.14Q85.84-19.48 87.34-14.98Q88.84-10.47 87.01-6.88L87.01-6.88L98.73-6.30Q100.93-6.30 100.93-8.13L100.93-8.13L100.93-28.93L45.63-28.93L44.38-33.18L100.93-33.18L100.93-46.66Q98.36-45.56 94.63-44.60Q90.89-43.65 87.30-43.65L87.30-43.65L83.42-43.65L83.42-58.96L72.29-58.96L72.29-47.53Q72.29-46.66 69.62-45.12Q66.94-43.58 62.81-42.33Q58.67-41.09 54.27-41.09L54.27-41.09L51.27-41.09L51.27-101.22L73.32-92.87L83.42-92.87L83.42-102.32L48.78-102.32L47.53-106.49L83.42-106.49ZM115.94-92.87L124.66-102.32L104.74-102.32L104.74-92.87L115.94-92.87ZM117.48-77.86L117.48-88.62L104.74-88.62L104.74-77.86L117.48-77.86ZM117.48-63.13L117.48-73.68L104.74-73.68L104.74-63.13L117.48-63.13ZM83.42-73.68L72.29-73.68L72.29-63.13L83.42-63.13L83.42-73.68ZM72.29-88.62L72.29-77.86L83.42-77.86L83.42-88.62L72.29-88.62ZM27.76-128.25L27.76-128.25L56.98-119.68Q56.03-116.53 50.98-116.53L50.98-116.53Q47.75-107.89 43.95-100.01Q40.14-92.14 36.04-85.03L36.04-85.03L43.80-82.18Q43.43-81.08 42.41-80.35Q41.38-79.61 39.18-79.17L39.18-79.17L39.18 8.28Q38.96 9.01 36.44 10.44Q33.91 11.87 30.03 13.07Q26.15 14.28 22.05 14.28L22.05 14.28L18.16 14.28L18.16-60.72Q14.65-56.84 10.88-53.28Q7.10-49.73 3.15-46.51L3.15-46.51L1.46-47.53Q6.67-57.50 11.76-70.79Q16.85-84.08 21.02-98.88Q25.20-113.67 27.76-128.25ZM240.31-33.47L255.76-33.47Q256.64-37.87 257.56-43.32Q258.47-48.78 259.06-53.25L259.06-53.25L230.42-53.25Q237.67-51.20 241.19-48.30Q244.70-45.41 245.32-42.44Q245.95-39.48 244.48-37.06Q243.02-34.64 240.31-33.47L240.31-33.47ZM158.72-40.21L158.72-40.21L173.73-37.35L173.73-50.24L164.14-46.36Q162.82-43.58 159.74-43.07L159.74-43.07L153.30-62.26L168.31-62.70Q171.75-70.09 175.16-78.41Q178.56-86.72 181.49-94.74Q184.42-102.76 186.47-109.35L186.47-109.35L209.25-102.03L209.25-125.83L229.32-118.21L270.92-118.21L279.79-128.10L296.56-115.65Q295.90-114.62 294.69-113.93Q293.48-113.23 290.99-112.79L290.99-112.79L290.99-85.99Q290.99-85.47 287.55-84.16Q284.11-82.84 277.95-82.47L277.95-82.47Q280.30-80.57 283.59-77.93Q286.89-75.29 289.53-73.02L289.53-73.02Q289.31-71.78 288.17-71.23Q287.04-70.68 285.57-70.68L285.57-70.68L260.82-70.68L260.82-57.42L271.51-57.42L280.52-68.55Q280.52-68.55 283.26-66.47Q286.01-64.38 289.82-61.38Q293.63-58.37 296.70-55.66L296.70-55.66Q296.26-53.25 292.68-53.25L292.68-53.25L266.24-53.25L282.13-49.22Q281.40-46.22 276.64-46.22L276.64-46.22Q273.56-43.36 269.24-39.92Q264.92-36.47 260.52-33.47L260.52-33.47L271.95-33.47L280.37-43.80Q280.37-43.80 282.97-41.82Q285.57-39.84 289.12-37.02Q292.68-34.20 295.53-31.64L295.53-31.64Q295.09-29.22 291.58-29.22L291.58-29.22L260.82-29.22L260.82-14.58L267.33-14.58L276.12-25.49Q276.12-25.49 278.91-23.40Q281.69-21.31 285.50-18.35Q289.31-15.38 292.38-12.74L292.38-12.74Q291.72-10.33 288.28-10.33L288.28-10.33L260.82-10.33L260.82 10.47Q260.74 10.99 256.31 12.63Q251.88 14.28 243.75 14.28L243.75 14.28L239.87 14.28L239.87-10.33L215.55-10.33L214.38-14.58L239.87-14.58L239.87-29.22L211.08-29.22L209.84-33.47L232.18-33.47Q229.98-34.35 227.86-36.47L227.86-36.47Q228.52-40.94 227.75-45.45Q226.98-49.95 225.59-53.25L225.59-53.25L212.99-53.25Q211.96-50.17 209.40-48.45Q206.84-46.73 203.58-47.06Q200.32-47.39 197.09-50.54L197.09-50.54Q197.31-54.93 196.36-59.99L196.36-59.99L192.48-58.23L192.48-42.77L193.36-43.07Q203.47-38.45 207.97-33.07Q212.48-27.69 212.81-22.85Q213.13-18.02 210.68-14.87Q208.23-11.72 204.35-11.46Q200.46-11.21 196.66-15.16L196.66-15.16Q196.88-21.31 195.56-28.02Q194.24-34.72 192.48-40.21L192.48-40.21L192.48 9.30Q192.48 10.11 188.34 12.27Q184.20 14.43 177.17 14.43L177.17 14.43L173.73 14.43L173.73-28.49Q170.58-18.68 166.04-10.58Q161.50-2.49 155.42 3.15L155.42 3.15L153.15 1.98Q155.71-6.74 157.14-17.94Q158.57-29.15 158.72-40.21ZM232.62-93.16L232.62-113.96L227.86-113.96L227.86-93.16L232.62-93.16ZM252.17-113.96L247.05-113.96L247.05-93.16L252.17-93.16L252.17-113.96ZM271.51-113.96L266.67-113.96L266.67-93.16L271.51-93.16L271.51-113.96ZM191.38-76.46L192.92-77.12Q203.91-72.95 208.59-67.57Q213.28-62.18 213.57-57.42L213.57-57.42L239.87-57.42L239.87-70.68L214.53-70.68L213.28-74.85L239.87-74.85L239.87-87.89L265.06-85.77Q264.84-84.59 264.04-83.68Q263.23-82.76 260.82-82.32L260.82-82.32L260.82-74.85L266.24-74.85L272.24-82.32L271.51-82.32L271.51-88.92L227.86-88.92L227.86-83.86Q227.86-82.98 223.79-81.41Q219.73-79.83 212.55-79.83L212.55-79.83L209.25-79.83L209.25-99.46Q208.59-99.02 207.57-98.73Q206.54-98.44 205.08-98.58L205.08-98.58Q199.73-91.11 191.49-81.52Q183.25-71.92 174.46-62.99L174.46-62.99L195.48-64.01Q194.68-67.46 193.62-70.64Q192.55-73.83 191.38-76.46L191.38-76.46ZM153.00-102.76L154.32-103.49Q161.21-102.25 166.04-99.90L166.04-99.90Q167.43-105.98 168.71-113.60Q170.00-121.22 171.02-128.39L171.02-128.39L196.36-120.63Q195.41-117.48 190.36-117.48L190.36-117.48Q181.35-105.91 170.87-97.05L170.87-97.05Q175.85-93.31 176.51-89.17Q177.17-85.03 174.90-82.03Q172.63-79.03 168.71-78.44Q164.79-77.86 160.62-81.30L160.62-81.30Q160.40-86.94 158.06-92.76Q155.71-98.58 153.00-102.76L153.00-102.76ZM412.79-112.65L423.78-127.22Q423.78-127.22 425.79-125.61Q427.81-124.00 430.92-121.51Q434.03-119.02 437.40-116.16Q440.77-113.31 443.55-110.82L443.55-110.82Q442.90-108.47 439.23-108.47L439.23-108.47L412.94-108.47Q413.82-107.74 416.97-105.40Q420.12-103.05 424.04-100.05Q427.95-97.05 431.10-94.34L431.10-94.34Q430.44-91.92 426.93-91.92L426.93-91.92L409.06-91.92L425.54-79.83Q424.95-79.03 423.71-78.22Q422.46-77.42 420.26-76.98L420.26-76.98L420.26-61.38Q420.19-60.79 417.15-59.77Q414.11-58.74 409.97-57.86Q405.83-56.98 402.47-56.98L402.47-56.98L399.61-56.98L412.21-55.08Q411.84-53.61 410.52-52.59Q409.20-51.56 406.64-51.42L406.64-51.42Q403.71-49.66 399.61-47.46Q395.51-45.26 391.33-43.36L391.33-43.36L415.50-43.36L426.42-57.28Q426.42-57.28 428.47-55.77Q430.52-54.27 433.63-51.86Q436.74-49.44 440.15-46.69Q443.55-43.95 446.41-41.53L446.41-41.53Q446.19-40.28 444.98-39.73Q443.77-39.18 442.24-39.18L442.24-39.18L305.57-39.18L304.32-43.36L349.95-43.36Q347.83-45.26 346.95-48.78L346.95-48.78Q347.53-50.68 346.91-53.43Q346.29-56.18 344.68-57.71L344.68-57.71Q341.97-56.84 338.82-56.18Q335.67-55.52 332.52-55.52L332.52-55.52L329.74-55.52L329.74-91.92L319.63-91.92L318.46-96.17L361.38-96.17L361.38-108.47L309.16-108.47L307.98-112.65L361.38-112.65L361.38-128.25L389.43-126.12Q389.21-124.58 388.11-123.49Q387.01-122.39 383.86-121.95L383.86-121.95L383.86-112.65L412.79-112.65ZM351.42-62.11L351.42-61.82Q351.42-60.86 348.12-59.11L348.12-59.11Q356.10-59.55 361.45-57.68Q366.80-55.81 367.82-51.78L367.82-51.78Q368.33-49.29 367.09-47.06Q365.84-44.82 363.57-43.36L363.57-43.36L383.57-43.36Q384.23-47.09 384.92-51.42Q385.62-55.74 385.99-59.11L385.99-59.11L398.58-57.13L398.58-62.11L351.42-62.11ZM337.94-3.59L337.94-3.59Q340.80-3.37 344.64-3.19Q348.49-3.00 350.24-3.00L350.24-3.00Q353.10-3.00 354.13-3.88L354.13-3.88Q356.76-5.86 357.93-22.19L357.93-22.19L347.24-22.19Q346.22-17.36 344.09-12.67Q341.97-7.98 337.94-3.59ZM329.08-37.94L353.69-36.18Q353.47-34.72 352.40-33.69Q351.34-32.67 348.93-32.23L348.93-32.23L348.12-26.37L356.69-26.37L365.70-34.79L381.74-21.90Q380.27-20.00 376.03-19.34L376.03-19.34Q375.29-5.93 373.24 0.59Q371.19 7.10 366.58 10.03L366.58 10.03Q363.43 11.94 359.33 12.67Q355.22 13.40 349.51 13.48L349.51 13.48Q349.51 9.89 349.04 7.43Q348.56 4.98 347.09 3.30L347.09 3.30Q344.31-0.15 337.35-1.68L337.35-1.68L337.35-3.00Q332.74 1.98 325.05 6.41Q317.36 10.84 305.57 14.58L305.57 14.58L304.17 12.74Q312.74 7.40 317.65 1.68Q322.56-4.03 324.94-10.03Q327.32-16.04 328.20-22.19L328.20-22.19L312.30-22.19L310.99-26.37L328.64-26.37Q328.86-29.30 328.93-32.15Q329.00-35.01 329.08-37.94L329.08-37.94ZM400.93 1.32L400.93 4.83Q400.93 5.64 398.47 7.03Q396.02 8.42 392.21 9.52Q388.40 10.62 384.45 10.62L384.45 10.62L381.74 10.62L381.74-36.04L401.73-28.34L413.96-28.34L422.53-37.35L440.26-24.32Q439.67-23.66 438.54-22.92Q437.40-22.19 435.57-21.75L435.57-21.75L435.57 3.74Q435.50 4.32 432.71 5.42Q429.93 6.52 426.05 7.40Q422.17 8.28 418.95 8.28L418.95 8.28L415.36 8.28L415.36 1.32L400.93 1.32ZM415.36-2.86L415.36-24.17L400.93-24.17L400.93-2.86L415.36-2.86ZM352.51-84.16L397.05-84.16L404.22-91.92L331.64-91.92L352.51-84.16ZM398.58-66.28L398.58-79.98L351.42-79.98L351.42-66.28L398.58-66.28ZM383.86-108.47L383.86-96.17L402.32-96.17L412.21-108.47L383.86-108.47Z"/>
    </svg>
        