<?xml version="1.0" encoding="UTF-8" standalone="no"?>
        <svg 
    viewBox="3.1494140625 -85.986328125 448.0224609375 56.8359375"
    width="444.873046875"
    height="142.822265625"
   xmlns="http://www.w3.org/2000/svg"
   xmlns:svg="http://www.w3.org/2000/svg">
   <path d="M15.89-124.66L16.92-125.39Q28.78-124.80 35.63-121.88Q42.48-118.95 45.30-114.92Q48.12-110.89 47.75-106.93Q47.39-102.98 44.68-100.20Q41.97-97.41 37.72-96.94Q33.47-96.46 28.64-99.61L28.64-99.61Q27.10-106.35 23.36-113.09Q19.63-119.82 15.89-124.66L15.89-124.66ZM3.15-90.75L4.17-91.48Q15.53-91.33 22.23-88.73Q28.93-86.13 31.75-82.40Q34.57-78.66 34.35-74.85Q34.13-71.04 31.64-68.30Q29.15-65.55 25.16-64.97Q21.17-64.38 16.48-67.24L16.48-67.24Q14.94-73.54 11.02-79.94Q7.10-86.35 3.15-90.75L3.15-90.75ZM15.16-33.91L15.16-33.91Q17.07-33.91 18.02-34.28Q18.97-34.64 20.43-36.91L20.43-36.91Q21.68-38.67 22.78-40.39Q23.88-42.11 25.74-45.48Q27.61-48.85 31.13-55.44Q34.64-62.04 40.65-73.46Q46.66-84.89 56.10-102.91L56.10-102.91L58.23-102.32Q56.25-96.83 53.87-89.98Q51.49-83.13 49.04-75.92Q46.58-68.70 44.42-62.07Q42.26-55.44 40.69-50.35Q39.11-45.26 38.38-42.77L38.38-42.77Q37.28-38.82 36.44-34.75Q35.60-30.69 35.67-27.76L35.67-27.76Q35.82-24.46 36.95-21.68Q38.09-18.90 39.48-16.04Q40.87-13.18 41.86-9.52Q42.85-5.86 42.77-0.73L42.77-0.73Q42.55 5.42 38.27 9.23Q33.98 13.04 27.61 13.04L27.61 13.04Q24.54 13.04 21.68 11.32Q18.82 9.59 17.58 5.13L17.58 5.13Q19.12-3.00 19.48-10.22Q19.85-17.43 19.01-22.41Q18.16-27.39 16.19-28.64L16.19-28.64Q12.96-30.76 7.98-31.20L7.98-31.20L7.98-33.91Q7.98-33.91 9.41-33.91Q10.84-33.91 12.60-33.91Q14.36-33.91 15.16-33.91ZM45.12 3.00L43.95-1.17L82.76-1.17L82.76-106.20L50.98-106.20L49.80-110.38L113.96-110.38L125.10-125.68Q125.10-125.68 127.15-124.04Q129.20-122.39 132.31-119.75Q135.42-117.11 138.83-114.15Q142.24-111.18 144.87-108.62L144.87-108.62Q144.21-106.20 140.55-106.20L140.55-106.20L105.32-106.20L105.32-1.17L116.53-1.17L128.10-17.29Q128.10-17.29 130.22-15.49Q132.35-13.70 135.64-10.95Q138.94-8.20 142.49-5.13Q146.04-2.05 148.97 0.59L148.97 0.59Q148.32 3.00 144.43 3.00L144.43 3.00L45.12 3.00ZM172.78-113.23L172.78-113.23L174.61-113.23Q175.85-110.74 176.70-108.33Q177.54-105.91 178.20-103.64L178.20-103.64L213.57-103.64L213.57-128.25L241.48-126.27Q241.41-124.73 240.34-123.63Q239.28-122.53 236.13-121.95L236.13-121.95L236.13-103.64L266.97-103.64L277.51-114.18L295.68-97.05Q294.65-96.17 293.37-95.76Q292.09-95.36 289.67-95.07L289.67-95.07Q285.35-92.14 278.98-88.92Q272.61-85.69 266.82-83.72L266.82-83.72L275.83-76.17Q275.17-73.83 271.66-73.83L271.66-73.83L236.13-73.83L236.13-49.22L266.24-49.22L276.78-62.99Q276.78-62.99 278.72-61.49Q280.66-59.99 283.63-57.57Q286.60-55.15 289.89-52.44Q293.19-49.73 295.83-47.39L295.83-47.39Q295.17-44.97 291.58-44.97L291.58-44.97L236.13-44.97L236.13-11.72Q236.13-4.47 234.12 1.10Q232.10 6.67 225.92 10.14Q219.73 13.62 207.28 14.58L207.28 14.58Q207.06 9.01 206.07 4.91Q205.08 0.81 202.81-1.68L202.81-1.68Q200.68-4.03 197.28-5.90Q193.87-7.76 186.47-9.01L186.47-9.01L186.47-10.77Q186.47-10.77 189.55-10.62Q192.63-10.47 196.95-10.22Q201.27-9.96 205.11-9.78Q208.96-9.59 210.42-9.59L210.42-9.59Q213.57-9.59 213.57-12.45L213.57-12.45L213.57-44.97L156.30-44.97L155.13-49.22L213.57-49.22L213.57-73.83L178.78-73.83L177.61-78.00L246.02-78.00L256.64-91.48L264.62-85.33Q265.50-88.48 266.42-92.29Q267.33-96.09 267.92-99.46L267.92-99.46L179.08-99.46Q180.47-91.33 178.45-85.58Q176.44-79.83 172.49-77.27L172.49-77.27Q169.85-75.51 166.55-75.62Q163.26-75.73 160.40-77.53Q157.54-79.32 156.45-82.76L156.45-82.76Q154.98-87.67 157.32-91.26Q159.67-94.85 163.77-96.90L163.77-96.90Q165.89-98.22 168.13-100.78Q170.36-103.34 171.75-106.57Q173.14-109.79 172.78-113.23ZM308.72-31.20L308.72-88.33L308.72-95.73L327.17-88.33L330.03-88.33L330.03-102.47L304.98-102.47L303.74-106.64L330.03-106.64L330.03-128.25L355.22-126.27Q355.00-124.80 354.02-123.74Q353.03-122.68 350.24-122.24L350.24-122.24L350.24-106.64L353.25-106.64L362.55-119.53Q362.55-119.53 365.44-117.08Q368.33-114.62 372.25-111.18Q376.17-107.74 379.32-104.88L379.32-104.88Q378.66-102.47 375.15-102.47L375.15-102.47L350.24-102.47L350.24-88.33L352.81-88.33L361.23-97.19L378.15-84.30Q377.56-83.50 376.21-82.73Q374.85-81.96 372.73-81.59L372.73-81.59L372.73-64.67L394.04-64.67L394.04-110.08L375.59-110.08L374.41-114.33L416.09-114.33L425.98-127.37Q425.98-127.37 427.81-125.90Q429.64-124.44 432.46-122.17Q435.28-119.90 438.39-117.33Q441.50-114.77 443.99-112.50L443.99-112.50Q443.33-110.08 439.82-110.08L439.82-110.08L416.24-110.08L416.24-64.67L419.53-64.67L429.79-79.47Q429.79-79.47 431.65-77.86Q433.52-76.25 436.41-73.65Q439.31-71.04 442.46-68.19Q445.61-65.33 448.02-62.84L448.02-62.84Q447.36-60.42 443.85-60.42L443.85-60.42L416.24-60.42L416.24 8.28Q416.16 9.23 411.47 11.76Q406.79 14.28 398.22 14.28L398.22 14.28L394.04 14.28L394.04-60.42L372.73-60.42L372.73-38.67Q372.73-38.09 370.28-36.84Q367.82-35.60 364.23-34.53Q360.64-33.47 357.42-33.47L357.42-33.47L354.27-33.47L354.27-37.65L349.95-37.65L349.95-20.73L354.13-20.73L363.87-33.33Q363.87-33.33 366.91-30.94Q369.95-28.56 374.05-25.20Q378.15-21.83 381.45-18.90L381.45-18.90Q380.79-16.48 377.27-16.48L377.27-16.48L349.95-16.48L349.95 9.01Q349.95 10.03 345.59 12.23Q341.24 14.43 333.47 14.43L333.47 14.43L329.74 14.43L329.74-16.48L304.47-16.48L303.30-20.73L329.74-20.73L329.74-37.65L326.37-37.65L326.37-36.77Q326.37-35.89 324.17-34.57Q321.97-33.25 318.49-32.23Q315.01-31.20 311.28-31.20L311.28-31.20L308.72-31.20ZM331.35-41.82L331.35-61.23L326.37-61.23L326.37-41.82L331.35-41.82ZM354.27-61.23L348.49-61.23L348.49-41.82L354.27-41.82L354.27-61.23ZM326.37-65.41L331.35-65.41L331.35-84.16L326.37-84.16L326.37-65.41ZM348.49-84.16L348.49-65.41L354.27-65.41L354.27-84.16L348.49-84.16Z"/>
    </svg>
        