<?xml version="1.0" encoding="UTF-8" standalone="no"?>
        <svg 
    viewBox="3.1494140625 -85.83984375 447.7294921875 56.982421875"
    width="444.580078125"
    height="142.822265625"
   xmlns="http://www.w3.org/2000/svg"
   xmlns:svg="http://www.w3.org/2000/svg">
   <path d="M31.64-54.42L30.32-58.67L94.34-58.67L104.37-68.55L121.66-52.37Q120.04-50.76 115.65-50.54L115.65-50.54Q110.82-48.19 103.78-45.89Q96.75-43.58 90.16-41.97L90.16-41.97Q89.58-39.70 85.47-38.96L85.47-38.96L85.47-30.32L117.77-30.32L128.10-43.95Q128.10-43.95 130.00-42.44Q131.91-40.94 134.88-38.60Q137.84-36.25 141.10-33.54Q144.36-30.83 147.00-28.49L147.00-28.49Q146.34-26.07 142.68-26.07L142.68-26.07L85.47-26.07L85.47-9.16Q85.47-2.20 83.72 2.64Q81.96 7.47 76.32 10.25Q70.68 13.04 59.11 13.92L59.11 13.92Q58.74 9.08 58.01 5.64Q57.28 2.20 55.37-0.15L55.37-0.15Q53.54-2.27 50.83-3.92Q48.12-5.57 42.11-6.59L42.11-6.59L42.11-8.57Q42.11-8.57 44.60-8.39Q47.09-8.20 50.54-8.02Q53.98-7.84 57.02-7.65Q60.06-7.47 61.23-7.47L61.23-7.47Q63.72-7.47 63.72-9.74L63.72-9.74L63.72-26.07L4.98-26.07L3.74-30.32L63.72-30.32L63.72-44.82L84.16-43.21Q86.50-45.70 88.95-48.67Q91.41-51.64 93.31-54.42L93.31-54.42L31.64-54.42ZM63.72-105.76L63.72-128.39L90.89-126.12Q90.82-124.58 89.72-123.49Q88.62-122.39 85.47-121.80L85.47-121.80L85.47-105.76L115.36-105.76L125.83-119.38Q125.83-119.38 127.77-117.88Q129.71-116.38 132.68-114.04Q135.64-111.69 138.94-109.02Q142.24-106.35 144.87-103.93L144.87-103.93Q144.21-101.51 140.55-101.51L140.55-101.51L91.48-101.51Q97.85-95.43 107.12-91.04Q116.38-86.65 126.71-83.75Q137.04-80.86 146.56-79.17L146.56-79.17L146.26-77.56Q140.26-75.88 136.34-70.86Q132.42-65.84 130.66-58.08L130.66-58.08Q116.02-65.33 105.03-75.81Q94.04-86.28 87.60-101.51L87.60-101.51L85.47-101.51L85.47-68.70Q85.47-68.04 82.76-66.91Q80.05-65.77 75.92-64.82Q71.78-63.87 67.53-63.87L67.53-63.87L63.72-63.87L63.72-85.77Q52.51-76.03 37.32-68.63Q22.12-61.23 4.17-56.25L4.17-56.25L3.15-57.93Q18.82-65.92 31.20-77.67Q43.58-89.43 51.12-101.51L51.12-101.51L6.74-101.51L5.57-105.76L63.72-105.76ZM274.37-128.39L274.37-128.39L293.12-111.18Q289.89-108.69 283.08-111.18L283.08-111.18Q276.05-109.79 266.09-108.47Q256.13-107.15 246.02-106.35L246.02-106.35L246.02-92.43L246.02-90.89L270.26-90.89L280.08-104.08Q280.08-104.08 281.84-102.61Q283.59-101.15 286.34-98.84Q289.09-96.53 292.05-93.93Q295.02-91.33 297.44-89.14L297.44-89.14Q297.00-86.72 293.26-86.72L293.26-86.72L276.93-86.72L276.93-49.37Q276.93-48.56 272.86-46.40Q268.80-44.24 261.47-43.80L261.47-43.80L278.83-30.62Q278.17-29.81 276.86-28.89Q275.54-27.98 273.12-27.47L273.12-27.47L273.12 8.13Q273.05 8.72 269.93 9.85Q266.82 10.99 262.50 11.94Q258.18 12.89 254.52 12.89L254.52 12.89L250.63 12.89L250.63 2.42L201.12 2.42L201.12 7.47Q201.12 8.50 198.34 10.11Q195.56 11.72 191.24 13.00Q186.91 14.28 182.37 14.28L182.37 14.28L179.37 14.28L179.37-42.92L178.49-42.77Q178.27-46.80 177.76-49.80Q177.25-52.81 175.63-54.57L175.63-54.57Q174.32-56.32 172.12-57.75Q169.92-59.18 164.87-59.99L164.87-59.99L164.87-61.82Q164.87-61.82 166.74-61.71Q168.60-61.60 171.24-61.45Q173.88-61.30 176.22-61.19Q178.56-61.08 179.52-61.08L179.52-61.08Q181.93-61.08 181.93-63.13L181.93-63.13L181.93-74.27L166.19-68.26Q164.79-65.26 161.87-64.53L161.87-64.53L153.88-84.74Q158.50-85.11 165.78-85.80Q173.07-86.50 181.93-87.60L181.93-87.60L181.93-101.88L158.28-101.88L157.03-106.05L181.93-106.05L181.93-127.81L207.71-125.54Q207.35-122.31 202.51-121.66L202.51-121.66L202.51-110.23L208.52-118.80Q208.52-118.80 211.34-116.38Q214.16-113.96 218.01-110.56Q221.85-107.15 224.85-104.22L224.85-104.22Q224.19-101.88 220.83-101.88L220.83-101.88L202.51-101.88L202.51-90.45L219.87-93.16L220.02-91.19Q216.36-89.43 212.00-87.30Q207.64-85.18 202.51-82.98L202.51-82.98L202.51-63.28Q202.51-57.13 201.09-52.99Q199.66-48.85 195.19-46.44Q190.72-44.02 181.49-43.07L181.49-43.07L202.37-35.08L249.17-35.08L257.08-43.80L255.32-43.80L255.32-86.72L245.87-86.72Q245.43-81.15 243.60-75.22Q241.77-69.29 237.60-63.50Q233.42-57.71 226.03-52.62Q218.63-47.53 206.98-43.80L206.98-43.80L206.10-45.48Q214.75-52.37 218.85-60.35Q222.95-68.33 224.19-76.61Q225.44-84.89 225.44-92.72L225.44-92.72L225.44-120.26L249.61-113.53Q256.71-117.26 263.38-121.33Q270.04-125.39 274.37-128.39ZM250.63-1.83L250.63-30.91L201.12-30.91L201.12-1.83L250.63-1.83ZM416.97-33.18L418.36-33.91Q429.79-30.83 436.27-26.26Q442.75-21.68 445.24-16.74Q447.73-11.79 447.11-7.47Q446.48-3.15 443.70-0.44Q440.92 2.27 436.78 2.31Q432.64 2.34 428.25-1.32L428.25-1.32Q427.59-9.67 424.26-18.16Q420.92-26.66 416.97-33.18L416.97-33.18ZM310.47-35.82L310.47-35.82Q312.30-35.82 313.11-36.22Q313.92-36.62 315.31-38.82L315.31-38.82Q316.33-40.50 317.21-42.08Q318.09-43.65 319.63-46.80Q321.17-49.95 324.02-56.07Q326.88-62.18 331.75-72.84Q336.62-83.50 344.24-100.20L344.24-100.20L346.51-99.76Q344.68-93.46 342.33-85.18Q339.99-76.90 337.72-68.59Q335.45-60.28 333.73-53.69Q332.01-47.09 331.35-44.09L331.35-44.09Q330.54-40.50 329.92-36.62Q329.30-32.74 329.37-29.88L329.37-29.88Q329.52-25.49 331.27-21.86Q333.03-18.24 334.64-13.73Q336.25-9.23 336.04-2.27L336.04-2.27Q335.74 3.81 331.86 7.47Q327.98 11.13 322.05 11.13L322.05 11.13Q319.26 11.13 316.52 9.38Q313.77 7.62 312.74 3.15L312.74 3.15Q314.28-4.98 314.58-12.23Q314.87-19.48 314.10-24.43Q313.33-29.37 311.57-30.62L311.57-30.62Q308.64-32.67 303.74-33.18L303.74-33.18L303.74-35.82Q303.74-35.82 305.09-35.82Q306.45-35.82 308.06-35.82Q309.67-35.82 310.47-35.82ZM312.60-126.27L313.77-127.08Q324.68-125.54 330.87-122.20Q337.06-118.87 339.40-114.81Q341.75-110.74 341.13-107.01Q340.50-103.27 337.79-100.82Q335.08-98.36 331.09-98.18Q327.10-98.00 322.78-101.22L322.78-101.22Q321.90-107.89 318.82-114.62Q315.75-121.36 312.60-126.27L312.60-126.27ZM302.86-92.29L304.03-93.02Q314.50-91.48 320.29-88.26Q326.07-85.03 328.20-81.12Q330.32-77.20 329.59-73.61Q328.86-70.02 326.11-67.71Q323.36-65.41 319.52-65.33Q315.67-65.26 311.57-68.55L311.57-68.55Q311.21-74.85 308.64-81.30Q306.08-87.74 302.86-92.29L302.86-92.29ZM373.68-38.38L373.68-92.58L373.68-100.20L393.16-92.58L393.75-92.58Q394.12-96.61 394.30-101.48Q394.48-106.35 394.48-110.23L394.48-110.23L367.02-110.23L367.02-77.86Q367.02-67.38 366.25-55.30Q365.48-43.21 362.44-30.80Q359.40-18.38 352.81-6.85Q346.22 4.69 334.64 13.92L334.64 13.92L333.33 13.04Q339.84-0.59 342.74-16.08Q345.63-31.57 346.36-47.39Q347.09-63.21 347.09-77.86L347.09-77.86L347.09-124.07L370.02-114.48L418.65-114.48L428.98-128.25Q428.98-128.25 430.88-126.75Q432.79-125.24 435.72-122.83Q438.65-120.41 441.87-117.70Q445.09-114.99 447.73-112.65L447.73-112.65Q447.07-110.23 443.41-110.23L443.41-110.23L400.93-110.23L418.80-106.05Q418.36-104.74 417.04-103.82Q415.72-102.91 413.23-103.05L413.23-103.05Q410.52-100.71 407.41-97.92Q404.30-95.14 400.93-92.58L400.93-92.58L417.77-92.58L426.42-102.03L444.43-88.48Q443.92-87.74 442.68-86.94Q441.43-86.13 439.53-85.62L439.53-85.62L439.53-44.82Q439.45-44.24 436.60-43.14Q433.74-42.04 429.82-41.13Q425.90-40.21 422.68-40.21L422.68-40.21L419.09-40.21L419.09-46.51L416.24-46.51L416.24-10.18Q416.24-3.37 414.55 1.87Q412.87 7.10 407.67 10.33Q402.47 13.55 391.77 14.43L391.77 14.43Q391.70 9.30 391.22 5.60Q390.75 1.90 389.28-0.44L389.28-0.44Q388.04-2.71 385.69-4.43Q383.35-6.15 378.30-7.03L378.30-7.03L378.30-9.01Q378.30-9.01 380.09-8.90Q381.88-8.79 384.41-8.64Q386.94-8.50 389.28-8.39Q391.63-8.28 392.72-8.28L392.72-8.28Q395.21-8.28 395.21-10.62L395.21-10.62L395.21-22.92Q394.26-22.56 391.77-22.78L391.77-22.78Q385.25-15.01 375.26-7.47Q365.26 0.07 353.10 4.61L353.10 4.61L351.93 3.15Q357.20-2.20 361.82-9.16Q366.43-16.11 369.84-23.29Q373.24-30.47 375.15-36.47L375.15-36.47L395.21-26.07L395.21-46.51L392.43-46.51L392.43-44.24Q392.43-43.43 390.05-42.04Q387.67-40.65 384.01-39.51Q380.35-38.38 376.32-38.38L376.32-38.38L373.68-38.38ZM419.09-50.68L419.09-67.53L392.43-67.53L392.43-50.68L419.09-50.68ZM392.43-71.70L419.09-71.70L419.09-88.33L392.43-88.33L392.43-71.70Z"/>
    </svg>
        