<?xml version="1.0" encoding="UTF-8" standalone="no"?>
        <svg 
    viewBox="10.3271484375 -85.83984375 447.5830078125 56.982421875"
    width="437.255859375"
    height="142.822265625"
   xmlns="http://www.w3.org/2000/svg"
   xmlns:svg="http://www.w3.org/2000/svg">
   <path d="M58.37-42.92L58.37-89.58L58.37-97.34L78.44-89.58L88.48-89.58L88.48-101.22L56.25-101.22Q52.22-94.41 47.02-86.50Q41.82-78.59 36.91-72.58L36.91-72.58Q46.00-66.87 51.27-58.89Q56.54-50.90 58.37-42.92L58.37-42.92ZM10.33 14.43L10.33-116.53L10.33-124.66L32.23-116.53L37.50-116.53L47.24-125.98L66.14-108.91Q64.45-106.79 59.40-106.79L59.40-106.79L58.67-105.47L88.48-105.47L88.48-126.93L114.33-124.37Q114.11-122.75 113.01-121.69Q111.91-120.63 108.76-120.12L108.76-120.12L108.76-105.47L118.95-105.47L129.27-119.53Q129.27-119.53 131.14-117.99Q133.01-116.46 135.90-114.00Q138.79-111.55 141.94-108.80Q145.09-106.05 147.58-103.64L147.58-103.64Q146.92-101.22 143.26-101.22L143.26-101.22L108.76-101.22L108.76-89.58L117.11-89.58L125.83-98.88L143.70-85.47Q143.04-84.74 141.72-83.94Q140.41-83.13 138.28-82.62L138.28-82.62L138.28-39.77Q138.21-39.26 135.50-38.16Q132.79-37.06 129.02-36.15Q125.24-35.23 122.09-35.23L122.09-35.23L118.65-35.23L118.65-43.07L109.94-43.07Q113.96-34.42 120.45-28.56Q126.93-22.71 134.40-19.04Q141.87-15.38 148.97-13.33L148.97-13.33L148.68-12.01Q142.82-10.18 138.87-4.76Q134.91 0.66 133.37 8.13L133.37 8.13Q126.78 2.05 122.06-4.91Q117.33-11.87 114.11-20.73Q110.89-29.59 108.76-41.53L108.76-41.53L108.76 7.03Q108.76 8.13 106.27 9.78Q103.78 11.43 100.01 12.78Q96.24 14.14 92.43 14.14L92.43 14.14L88.48 14.14L88.48-19.63Q79.83-10.84 68.33-3.99Q56.84 2.86 42.77 7.98L42.77 7.98L41.53 6.30Q55.52-2.71 65.59-15.78Q75.66-28.86 81.15-43.07L81.15-43.07L77.56-43.07L77.56-39.62Q77.56-38.67 75.11-37.24Q72.66-35.82 68.88-34.72Q65.11-33.62 61.08-33.62L61.08-33.62L59.25-33.62Q59.03-23.00 53.98-16.66Q48.93-10.33 36.47-10.18L36.47-10.18Q36.47-14.36 35.93-19.26Q35.38-24.17 34.50-26.07L34.50-26.07Q33.40-28.27 30.32-29.74L30.32-29.74L30.32 8.13Q30.32 8.86 28.34 10.36Q26.37 11.87 22.71 13.15Q19.04 14.43 13.92 14.43L13.92 14.43L10.33 14.43ZM88.48-47.24L88.48-64.53L77.56-64.53L77.56-47.24L88.48-47.24ZM118.65-64.53L108.76-64.53L108.76-47.24L118.65-47.24L118.65-64.53ZM77.56-68.70L88.48-68.70L88.48-85.33L77.56-85.33L77.56-68.70ZM108.76-85.33L108.76-68.70L118.65-68.70L118.65-85.33L108.76-85.33ZM38.82-112.35L30.32-112.35L30.32-32.23L35.23-32.23Q37.13-32.23 38.23-33.03L38.23-33.03Q40.80-34.64 40.80-40.65L40.80-40.65Q40.80-48.41 39.11-56.73Q37.43-65.04 33.18-72.14L33.18-72.14Q34.20-77.20 35.34-84.30Q36.47-91.41 37.43-98.88Q38.38-106.35 38.82-112.35L38.82-112.35ZM156.74 8.13L155.57 3.88L266.67 3.88L277.22-9.74Q277.22-9.74 279.16-8.24Q281.10-6.74 284.11-4.39Q287.11-2.05 290.37 0.66Q293.63 3.37 296.26 5.71L296.26 5.71Q295.61 8.13 292.02 8.13L292.02 8.13L156.74 8.13ZM243.60-39.33L203.39-39.33L203.39-19.34L243.60-19.34L243.60-39.33ZM203.39-63.72L203.39-43.51L243.60-43.51L243.60-63.72L203.39-63.72ZM182.23-4.03L182.23-67.97L182.23-76.32L204.93-67.97L243.02-67.97L253.20-79.47L271.80-65.26Q271.00-64.23 269.68-63.46Q268.36-62.70 265.80-62.26L265.80-62.26L265.80-11.87Q265.80-11.21 260.96-9.27Q256.13-7.32 247.49-7.32L247.49-7.32L243.60-7.32L243.60-15.16L203.39-15.16L203.39-9.01Q203.39-7.91 198.82-5.97Q194.24-4.03 186.18-4.03L186.18-4.03L182.23-4.03ZM175.63-120.12L175.63-120.12L177.47-120.12Q179.66-114.62 180.62-109.50L180.62-109.50L213.57-109.50L213.57-128.39L241.48-126.42Q241.41-124.88 240.34-123.78Q239.28-122.68 236.13-122.09L236.13-122.09L236.13-109.50L267.11-109.50L277.37-119.68L295.02-103.05Q293.48-101.51 289.23-101.07L289.23-101.07Q285.06-98.29 278.98-95.21Q272.90-92.14 267.33-90.01L267.33-90.01L271.66-86.43Q271.00-84.01 267.48-84.01L267.48-84.01L182.23-84.01L181.05-88.18L243.75-88.18L253.64-100.34L264.18-92.43Q265.14-95.36 266.13-98.80Q267.11-102.25 267.92-105.32L267.92-105.32L181.05-105.32Q181.71-97.34 179.30-91.74Q176.88-86.13 172.78-83.42L172.78-83.42Q170.14-81.59 166.92-81.56Q163.70-81.52 160.91-83.20Q158.13-84.89 156.88-88.18L156.88-88.18Q155.42-92.72 157.58-96.24Q159.74-99.76 163.62-101.73L163.62-101.73Q166.33-103.13 169.08-105.94Q171.83-108.76 173.69-112.43Q175.56-116.09 175.63-120.12ZM415.80-125.98L415.80-125.98L439.23-104.52Q437.77-103.34 434.84-103.20Q431.91-103.05 427.66-104.52L427.66-104.52Q422.46-103.34 416.20-102.28Q409.94-101.22 403.05-100.34L403.05-100.34L403.05-58.96L416.24-58.96L427.51-74.56Q427.51-74.56 429.57-72.84Q431.62-71.12 434.77-68.44Q437.92-65.77 441.36-62.77Q444.80-59.77 447.58-57.13L447.58-57.13Q447.29-55.88 446.04-55.33Q444.80-54.79 443.26-54.79L443.26-54.79L403.05-54.79L403.05 2.86L411.91 2.86L423.49-13.04Q423.49-13.04 425.54-11.32Q427.59-9.59 430.81-6.85Q434.03-4.10 437.55-1.06Q441.06 1.98 443.85 4.61L443.85 4.61Q443.63 5.86 442.42 6.45Q441.21 7.03 439.53 7.03L439.53 7.03L349.66 7.03L348.49 2.86L380.57 2.86L380.57-54.79L346.95-54.79L345.78-58.96L380.57-58.96L380.57-97.92Q372.80-97.27 365.00-96.83Q357.20-96.39 349.80-96.31L349.80-96.31L349.51-97.78Q358.23-100.34 367.60-103.75Q376.98-107.15 386.02-111.00Q395.07-114.84 402.76-118.69Q410.45-122.53 415.80-125.98ZM330.76-128.39L330.76-128.39L359.55-119.82Q358.96-118.36 357.46-117.48Q355.96-116.60 353.39-116.67L353.39-116.67Q346.58-99.24 337.94-85.47L337.94-85.47L346.80-82.32Q346.44-81.37 345.41-80.60Q344.38-79.83 342.11-79.32L342.11-79.32L342.11 8.13Q341.97 8.94 339.37 10.40Q336.77 11.87 332.74 13.07Q328.71 14.28 324.46 14.28L324.46 14.28L320.43 14.28L320.43-63.13Q312.67-55.22 303.44-48.78L303.44-48.78L301.83-49.80Q307.69-59.40 313.37-72.14Q319.04-84.89 323.58-99.32Q328.13-113.75 330.76-128.39Z"/>
    </svg>
        