<?xml version="1.0" encoding="UTF-8" standalone="no"?>
        <svg 
    viewBox="3.0029296875 -86.9384765625 450 56.6162109375"
    width="446.9970703125"
    height="143.5546875"
   xmlns="http://www.w3.org/2000/svg"
   xmlns:svg="http://www.w3.org/2000/svg">
   <path d="M28.34-82.47L28.34-97.92L41.53-96.90L41.53-107.37L5.13-107.37L4.03-111.62L41.53-111.62L41.53-128.10L67.38-125.98Q67.24-124.44 66.14-123.41Q65.04-122.39 62.11-121.95L62.11-121.95L62.11-111.62L86.43-111.62L86.43-128.10L112.79-125.98Q112.72-124.44 111.58-123.41Q110.45-122.39 107.37-121.95L107.37-121.95L107.37-111.62L119.53-111.62L129.13-124.07Q129.13-124.07 132.06-121.73Q134.99-119.38 138.94-116.05Q142.90-112.72 145.97-109.79L145.97-109.79Q145.31-107.37 141.72-107.37L141.72-107.37L107.37-107.37L107.37-99.90Q107.37-98.80 102.32-97.34L102.32-97.34L120.92-96.02Q120.78-94.78 120.01-93.97Q119.24-93.16 116.82-92.72L116.82-92.72L116.82-82.47L118.21-82.47L127.66-94.78Q127.66-94.78 130.59-92.47Q133.52-90.16 137.51-86.87Q141.50-83.57 144.73-80.71L144.73-80.71Q144.07-78.30 140.55-78.30L140.55-78.30L116.82-78.30L116.82-59.55Q116.82-58.59 114.11-56.95Q111.40-55.30 107.41-53.98Q103.42-52.66 99.61-52.66L99.61-52.66L97.05-52.66L97.05-59.99L83.28-59.99L83.28-55.22Q83.28-54.42 80.60-53.21Q77.93-52.00 73.97-51.05Q70.02-50.10 66.14-50.10L66.14-50.10L62.99-50.10L62.99-78.30L48.63-78.30L48.63-47.24L112.65-47.24L122.24-59.11Q122.24-59.11 125.24-56.87Q128.25-54.64 132.39-51.45Q136.52-48.27 139.82-45.48L139.82-45.48Q139.16-43.07 135.57-43.07L135.57-43.07L90.31-43.07Q89.14-41.38 85.47-40.80L85.47-40.80L85.47-29.52L117.77-29.52L127.81-41.97Q127.81-41.97 130.96-39.62Q134.11-37.28 138.43-33.98Q142.75-30.69 146.26-27.76L146.26-27.76Q145.61-25.34 142.02-25.34L142.02-25.34L90.31-25.34Q97.12-20.87 106.38-17.40Q115.65-13.92 125.90-11.65Q136.16-9.38 145.83-8.57L145.83-8.57L145.53-6.74Q139.89-5.20 135.86-0.29Q131.84 4.61 130.37 12.16L130.37 12.16Q114.70 6.67 103.71-2.60Q92.72-11.87 85.47-24.90L85.47-24.90L85.47 10.47Q85.47 11.21 82.80 12.30Q80.13 13.40 76.06 14.28Q72.00 15.16 67.82 15.16L67.82 15.16L64.23 15.16L64.23-14.58Q53.54-5.35 38.20 1.03Q22.85 7.40 3.74 11.28L3.74 11.28L3.00 9.45Q17.94 3.52 29.37-5.57Q40.80-14.65 47.53-25.34L47.53-25.34L4.98-25.34L3.74-29.52L64.23-29.52L64.23-43.07L48.63-43.07L48.63-39.92Q48.63-38.96 45.92-37.43Q43.21-35.89 39.22-34.68Q35.23-33.47 31.35-33.47L31.35-33.47L28.34-33.47L28.34-78.30L6.88-78.30L5.71-82.47L28.34-82.47ZM62.99-82.47L62.99-98.73L86.43-96.75L86.43-107.37L62.11-107.37L62.11-99.17Q62.11-98.36 59.73-97.38Q57.35-96.39 53.54-95.87L53.54-95.87Q53.32-94.48 52.37-93.53Q51.42-92.58 48.63-92.07L48.63-92.07L48.63-82.47L62.99-82.47ZM97.05-64.23L97.05-78.30L83.28-78.30L83.28-64.23L97.05-64.23ZM83.28-82.47L97.05-82.47L97.05-96.46Q93.68-96.02 89.87-96.02L89.87-96.02L87.74-96.02Q87.67-94.85 86.68-94.01Q85.69-93.16 83.28-92.87L83.28-92.87L83.28-82.47ZM241.04-62.70L241.04-62.70L217.53-62.70Q214.60-55.15 211.27-47.24Q207.93-39.33 204.93-32.23L204.93-32.23Q211.52-31.93 217.60-31.27Q223.68-30.62 229.03-29.88L229.03-29.88Q237.67-43.36 241.04-62.70ZM205.81-96.02L205.81-96.02L233.42-90.89Q233.06-89.36 231.63-88.29Q230.20-87.23 226.98-87.16L226.98-87.16Q225.59-83.57 223.61-78.26Q221.63-72.95 219.29-66.87L219.29-66.87L265.50-66.87L276.12-81.01Q276.12-81.01 278.10-79.47Q280.08-77.93 283.12-75.48Q286.16-73.02 289.49-70.28Q292.82-67.53 295.53-65.11L295.53-65.11Q294.87-62.70 291.14-62.70L291.14-62.70L265.21-62.70Q262.72-51.42 259.28-42.15Q255.83-32.89 250.78-25.20L250.78-25.20Q263.82-21.46 271.73-16.66Q279.64-11.87 283.30-6.88Q286.96-1.90 287.18 2.49Q287.40 6.88 285.10 9.89Q282.79 12.89 278.69 13.77Q274.58 14.65 269.68 12.45L269.68 12.45Q264.99 7.62 256.86 1.39Q248.73-4.83 238.04-11.13L238.04-11.13Q225.66-0.95 205.66 5.05Q185.67 11.06 154.61 13.92L154.61 13.92L154.03 12.01Q177.91 6.37 194.35-1.25Q210.79-8.86 221.41-20.07L221.41-20.07Q217.02-22.27 212.40-24.24Q207.79-26.22 202.95-28.05L202.95-28.05L198.49-18.31Q194.60-16.63 188.31-16.85Q182.01-17.07 175.34-19.78L175.34-19.78Q177.98-24.98 181.16-31.97Q184.35-38.96 187.72-46.91Q191.09-54.86 194.24-62.70L194.24-62.70L156.30-62.70L155.13-66.87L195.92-66.87Q199.29-75.66 201.93-83.35Q204.57-91.04 205.81-96.02ZM174.02-116.09L174.02-116.09L175.63-116.09Q177.25-112.72 178.34-109.64Q179.44-106.57 180.03-103.64L180.03-103.64L213.43-103.64L213.43-128.25L241.33-126.27Q241.26-124.73 240.20-123.63Q239.14-122.53 235.99-121.95L235.99-121.95L235.99-103.64L266.67-103.64L277.37-114.18L295.53-97.05Q293.92-95.29 289.67-95.07L289.67-95.07Q286.23-92.14 281.43-88.84Q276.64-85.55 271.47-82.51Q266.31-79.47 261.77-77.42L261.77-77.42L260.67-78.30Q262.50-82.69 264.44-88.59Q266.38-94.48 267.63-99.46L267.63-99.46L180.76-99.46Q181.79-91.48 179.63-85.77Q177.47-80.05 173.58-77.27L173.58-77.27Q170.87-75.22 167.43-75.18Q163.99-75.15 161.02-76.98Q158.06-78.81 156.74-82.32L156.74-82.32Q155.05-87.30 157.36-91.11Q159.67-94.92 163.77-97.05L163.77-97.05Q166.19-98.58 168.68-101.48Q171.17-104.37 172.74-108.18Q174.32-111.99 174.02-116.09ZM402.03-20.58L403.05-21.61Q417.04-20.73 425.61-17.10Q434.18-13.48 438.24-8.61Q442.31-3.74 442.75 1.14Q443.19 6.01 440.84 9.59Q438.50 13.18 434.22 14.14Q429.93 15.09 424.66 12.01L424.66 12.01Q422.83 6.01 419.31-0.04Q415.80-6.08 411.29-11.39Q406.79-16.70 402.03-20.58L402.03-20.58ZM373.83-26.37L373.83-26.37L397.05-12.60Q396.46-11.50 395.21-10.91Q393.97-10.33 391.33-10.77L391.33-10.77Q382.47-2.78 368.85 4.06Q355.22 10.91 339.48 14.43L339.48 14.43L338.38 12.89Q346.07 7.91 352.95 1.10Q359.84-5.71 365.26-12.89Q370.68-20.07 373.83-26.37ZM311.57-0.29L301.68-23.88L318.31-27.76L318.31-65.84L305.71-65.84L304.47-70.02L318.31-70.02L318.31-107.52L304.17-107.52L303.00-111.77L333.47-111.77L342.92-125.68Q342.92-125.68 344.64-124.15Q346.36-122.61 349.00-120.19Q351.64-117.77 354.46-115.03Q357.28-112.28 359.55-109.94L359.55-109.94Q359.11-107.52 355.52-107.52L355.52-107.52L339.33-107.52L339.33-72.58L345.48-82.76Q345.48-82.76 347.83-80.35Q350.17-77.93 353.28-74.52Q356.40-71.12 358.67-68.26L358.67-68.26Q358.23-65.84 354.79-65.84L354.79-65.84L339.33-65.84L339.33-33.33L357.93-38.38L358.37-37.06L351.42-31.20L368.41-31.20L368.41-96.31L354.27-96.31L353.10-100.49L368.41-100.49L368.41-128.39L393.90-126.12Q393.68-124.66 392.72-123.67Q391.77-122.68 388.92-122.24L388.92-122.24L388.92-100.49L406.05-100.49L406.05-128.39L431.84-126.12Q431.62-124.66 430.70-123.67Q429.79-122.68 427.08-122.24L427.08-122.24L427.08-105.03L432.13-113.38Q432.13-113.38 434.62-110.89Q437.11-108.40 440.41-104.96Q443.70-101.51 446.12-98.73L446.12-98.73Q445.46-96.31 442.02-96.31L442.02-96.31L427.08-96.31L427.08-34.06L434.25-45.48Q434.25-45.48 435.90-43.87Q437.55-42.26 440.04-39.77Q442.53-37.28 445.24-34.53Q447.95-31.79 450-29.37L450-29.37Q449.34-27.03 445.97-27.03L445.97-27.03L350.39-27.03L349.66-29.74Q343.43-24.61 334.97-18.35Q326.51-12.08 315.60-4.83L315.60-4.83Q314.58-1.32 311.57-0.29L311.57-0.29ZM406.05-96.31L388.92-96.31L388.92-77.71L406.05-77.71L406.05-96.31ZM388.92-49.95L388.92-31.20L406.05-31.20L406.05-49.95L388.92-49.95ZM406.05-73.54L388.92-73.54L388.92-54.13L406.05-54.13L406.05-73.54Z"/>
    </svg>
        