<?xml version="1.0" encoding="UTF-8" standalone="no"?>
        <svg 
    viewBox="3.1494140625 -86.2060546875 447.4365234375 57.0556640625"
    width="444.287109375"
    height="143.26171875"
   xmlns="http://www.w3.org/2000/svg"
   xmlns:svg="http://www.w3.org/2000/svg">
   <path d="M58.52-53.10L58.52-53.10L87.89-50.83Q87.67-49.29 86.54-48.23Q85.40-47.17 82.76-46.80L82.76-46.80Q82.32-43.43 81.85-40.17Q81.37-36.91 80.57-33.76L80.57-33.76L98.22-33.76L98.22-58.23L38.53-58.23L38.53-50.24Q38.53-49.58 35.85-48.41Q33.18-47.24 29.22-46.25Q25.27-45.26 21.46-45.26L21.46-45.26L17.58-45.26L17.58-112.50L42.77-110.23Q42.55-109.13 41.75-108.22Q40.94-107.30 38.53-106.93L38.53-106.93L38.53-62.40L96.75-62.40L106.49-72.58L125.54-58.37Q124.88-57.42 123.41-56.62Q121.95-55.81 119.53-55.37L119.53-55.37L119.53-33.76L120.12-33.76L130.37-48.27Q130.37-48.27 132.24-46.66Q134.11-45.04 136.96-42.52Q139.82-39.99 142.86-37.17Q145.90-34.35 148.32-31.93L148.32-31.93Q147.95-29.52 144.14-29.52L144.14-29.52L84.01-29.52Q90.09-21.24 99.94-16.66Q109.79-12.08 121.91-10.14Q134.03-8.20 146.85-7.62L146.85-7.62L147.00-6.01Q140.84-3.88 137.00 1.32Q133.15 6.52 131.69 14.28L131.69 14.28Q118.95 10.77 109.09 5.60Q99.24 0.44 92.18-7.95Q85.11-16.33 80.86-29.52L80.86-29.52L79.47-29.52Q77.27-21.90 72.69-15.01Q68.12-8.13 59.73-2.38Q51.34 3.37 37.72 7.69Q24.10 12.01 3.74 14.58L3.74 14.58L3.15 12.74Q20.95 8.35 31.68 1.90Q42.41-4.54 47.97-12.52Q53.54-20.51 55.81-29.52L55.81-29.52L4.61-29.52L3.44-33.76L56.69-33.76Q57.57-38.38 57.97-43.25Q58.37-48.12 58.52-53.10ZM104.08-85.62L104.08-111.62L69.73-111.62L69.73-85.62L104.08-85.62ZM48.93-70.17L48.93-115.80L48.93-124.07L70.68-115.80L102.61-115.80L111.91-125.98L131.40-111.47Q130.74-110.52 129.24-109.61Q127.73-108.69 125.39-108.18L125.39-108.18L125.39-77.27Q125.32-76.76 122.35-75.70Q119.38-74.63 115.32-73.75Q111.25-72.88 107.89-72.88L107.89-72.88L104.08-72.88L104.08-81.45L69.73-81.45L69.73-76.46Q69.73-75.59 67.05-74.08Q64.38-72.58 60.28-71.37Q56.18-70.17 51.93-70.17L51.93-70.17L48.93-70.17ZM243.60-78.44L243.60-112.21L206.10-112.21L206.10-78.44L243.60-78.44ZM184.35-59.84L184.35-116.38L184.35-125.10L206.98-116.38L242.07-116.38L251.73-126.93L271.36-112.06Q270.70-111.18 269.20-110.19Q267.70-109.20 265.36-108.76L265.36-108.76L265.36-67.24Q265.28-66.50 262.35-65.15Q259.42-63.79 255.25-62.66Q251.07-61.52 247.34-61.52L247.34-61.52L243.60-61.52L243.60-74.27L206.10-74.27L206.10-66.58Q206.10-65.63 203.32-64.01Q200.54-62.40 196.25-61.12Q191.97-59.84 187.50-59.84L187.50-59.84L184.35-59.84ZM198.49-7.62L198.49-47.09L181.93-47.09L181.93-7.62L198.49-7.62ZM161.43 12.60L161.43-51.27L161.43-59.55L182.67-51.27L196.95-51.27L206.25-61.52L225.15-46.95Q224.49-46.07 223.06-45.15Q221.63-44.24 219.29-43.80L219.29-43.80L219.29 4.17Q219.21 4.91 216.43 6.26Q213.65 7.62 209.66 8.75Q205.66 9.89 202.08 9.89L202.08 9.89L198.49 9.89L198.49-3.44L181.93-3.44L181.93 6.01Q181.93 6.96 179.37 8.53Q176.81 10.11 172.78 11.35Q168.75 12.60 164.43 12.60L164.43 12.60L161.43 12.60ZM268.21-7.62L268.21-47.09L250.49-47.09L250.49-7.62L268.21-7.62ZM229.98 12.60L229.98-51.27L229.98-59.55L251.22-51.27L266.67-51.27L276.12-61.67L295.53-46.95Q294.80-46.07 293.33-45.15Q291.87-44.24 289.53-43.65L289.53-43.65L289.53 5.71Q289.45 6.30 286.49 7.43Q283.52 8.57 279.42 9.52Q275.32 10.47 271.80 10.47L271.80 10.47L268.21 10.47L268.21-3.44L250.49-3.44L250.49 6.01Q250.49 6.96 247.92 8.53Q245.36 10.11 241.33 11.35Q237.30 12.60 232.98 12.60L232.98 12.60L229.98 12.60ZM408.62-17.29L409.79-18.16Q422.39-17.21 430.11-13.95Q437.84-10.69 441.54-6.37Q445.24-2.05 445.72 2.23Q446.19 6.52 444.10 9.67Q442.02 12.82 438.13 13.70Q434.25 14.58 429.42 12.01L429.42 12.01Q427.44 6.88 424.00 1.57Q420.56-3.74 416.49-8.61Q412.43-13.48 408.62-17.29L408.62-17.29ZM342.11-7.32L342.11-46.07L342.11-52.37L358.37-46.07L359.40-46.07L359.40-79.17L356.40-79.17L356.40-73.17Q356.40-72.73 353.25-71.37Q350.10-70.02 344.68-70.02L344.68-70.02L342.11-70.02L342.11-86.28Q341.31-85.18 338.96-84.74L338.96-84.74L338.96-31.35Q338.96-30.47 336.11-29.19Q333.25-27.91 330.32-27.91L330.32-27.91L328.20-27.91L328.20-89.58L342.11-88.18L342.11-110.23L324.90-110.23L324.90-7.32L342.11-7.32ZM377.12-14.58L377.12-94.19L377.12-102.32L396.02-94.63L396.17-110.23L377.71-110.23L376.46-114.48L416.82-114.48L427.66-128.69Q427.66-128.69 429.68-127.11Q431.69-125.54 434.80-123.08Q437.92-120.63 441.32-117.85Q444.73-115.06 447.44-112.65L447.44-112.65Q446.78-110.23 443.12-110.23L443.12-110.23L418.07-110.23Q414.26-105.98 409.94-101.73Q405.62-97.49 401.51-94.19L401.51-94.19L416.53-94.19L425.39-103.64L442.97-90.16Q442.38-89.36 441.14-88.59Q439.89-87.82 437.84-87.45L437.84-87.45L437.84-22.34Q437.77-21.75 435.06-20.54Q432.35-19.34 428.54-18.31Q424.73-17.29 421.36-17.29L421.36-17.29L417.92-17.29L417.92-22.05L396.61-22.05L396.61-21.02Q396.61-19.92 393.46-18.02L393.46-18.02L412.94-6.15Q411.84-4.32 408.03-5.27L408.03-5.27Q402.54-1.17 393.93 2.75Q385.33 6.67 375.44 9.78Q365.55 12.89 356.25 14.43L356.25 14.43L355.37 12.74Q360.72 9.74 366.21 5.46Q371.70 1.17 376.68-3.44L376.68-3.44Q375.44-3.15 374.56-3.15L374.56-3.15L324.90-3.15L324.90 2.71Q324.90 3.59 321.28 5.86Q317.65 8.13 311.13 8.13L311.13 8.13L308.13 8.13L308.13-122.24L328.49-114.48L348.12-114.48L357.93-127.51Q357.93-127.51 359.73-126.05Q361.52-124.58 364.34-122.31Q367.16-120.04 370.20-117.48Q373.24-114.92 375.73-112.65L375.73-112.65Q375.07-110.23 371.56-110.23L371.56-110.23L356.40-110.23L356.40-83.42L358.08-83.42L364.01-89.87L377.12-79.98Q375.59-78.15 371.41-77.27L371.41-77.27L371.41-38.23Q371.34-37.72 369.65-36.91Q367.97-36.11 365.63-35.45Q363.28-34.79 361.38-34.79L361.38-34.79L359.40-34.79L359.40-41.82L356.40-41.82L356.40-8.28L364.01-19.63Q364.01-19.63 366.58-17.29Q369.14-14.94 372.55-11.68Q375.95-8.42 378.59-5.57L378.59-5.57L378.30-5.13Q381.01-7.76 383.35-10.44Q385.69-13.11 387.74-15.60L387.74-15.60Q385.99-15.16 384.05-14.87Q382.10-14.58 380.13-14.58L380.13-14.58L377.12-14.58ZM417.92-49.22L417.92-67.97L396.61-67.97L396.61-49.22L417.92-49.22ZM396.61-72.14L417.92-72.14L417.92-90.01L396.61-90.01L396.61-72.14ZM417.92-26.22L417.92-44.97L396.61-44.97L396.61-26.22L417.92-26.22Z"/>
    </svg>
        