<?xml version="1.0" encoding="UTF-8" standalone="no"?>
        <svg 
    viewBox="2.4169921875 -86.3525390625 446.5576171875 57.2021484375"
    width="444.140625"
    height="143.5546875"
   xmlns="http://www.w3.org/2000/svg"
   xmlns:svg="http://www.w3.org/2000/svg">
   <path d="M35.38-39.48L35.38-39.48L59.55-26.37Q58.96-25.27 57.71-24.68Q56.47-24.10 53.83-24.46L53.83-24.46Q45.78-15.23 33.14-6.56Q20.51 2.12 4.98 7.18L4.98 7.18L3.88 5.71Q11.13-0.29 17.29-8.17Q23.44-16.04 28.09-24.24Q32.74-32.45 35.38-39.48ZM92.72-34.94L93.90-35.82Q109.06-33.84 118.29-29.26Q127.51-24.68 131.84-19.04Q136.16-13.40 136.56-8.02Q136.96-2.64 134.40 1.14Q131.84 4.91 127.19 5.75Q122.53 6.59 116.82 3.00L116.82 3.00Q114.77-3.74 110.96-10.62Q107.15-17.50 102.39-23.77Q97.63-30.03 92.72-34.94L92.72-34.94ZM82.32-114.77L82.32-114.77Q76.68-106.05 67.93-97.56Q59.18-89.06 48.52-81.41Q37.87-73.75 26.26-67.57Q14.65-61.38 3.30-57.28L3.30-57.28L2.42-58.81Q12.08-65.19 21.53-73.90Q30.98-82.62 39.04-92.29Q47.09-101.95 52.73-111.40Q58.37-120.85 60.42-128.69L60.42-128.69L92.87-120.26Q92.43-118.58 90.60-117.77Q88.77-116.97 84.59-116.53L84.59-116.53Q89.79-110.01 97.49-105.25Q105.18-100.49 114.04-97.12Q122.90-93.75 131.87-91.48Q140.84-89.21 148.68-87.74L148.68-87.74L148.54-85.33Q143.70-83.94 140.11-80.35Q136.52-76.76 134.29-72.22Q132.06-67.68 131.40-63.28L131.40-63.28Q120.85-68.77 111.22-76.06Q101.59-83.35 94.08-92.91Q86.57-102.47 82.32-114.77ZM39.62-69.58L38.38-73.83L80.13-73.83L90.89-87.89Q90.89-87.89 92.87-86.35Q94.85-84.81 97.96-82.36Q101.07-79.91 104.44-77.16Q107.81-74.41 110.52-72.00L110.52-72.00Q109.86-69.58 106.20-69.58L106.20-69.58L86.57-69.58L86.57-49.22L108.03-49.22L119.24-63.43Q119.24-63.43 121.33-61.89Q123.41-60.35 126.60-57.90Q129.79-55.44 133.30-52.66Q136.82-49.88 139.67-47.39L139.67-47.39Q139.01-44.97 135.28-44.97L135.28-44.97L86.57-44.97L86.57-11.28Q86.57-4.03 84.59 1.39Q82.62 6.81 76.54 10.11Q70.46 13.40 58.08 14.28L58.08 14.28Q57.71 8.86 57.02 4.94Q56.32 1.03 54.27-1.32L54.27-1.32Q52.51-3.74 49.62-5.57Q46.73-7.40 40.36-8.57L40.36-8.57L40.36-10.18Q40.36-10.18 42.85-10.07Q45.34-9.96 48.82-9.78Q52.29-9.59 55.48-9.45Q58.67-9.30 59.99-9.30L59.99-9.30Q62.84-9.30 62.84-11.87L62.84-11.87L62.84-44.97L13.48-44.97L12.30-49.22L62.84-49.22L62.84-69.58L39.62-69.58ZM189.77-93.16L194.97-91.19L217.38-91.19Q218.85-94.34 220.28-98.47Q221.70-102.61 222.73-106.20L222.73-106.20L203.98-106.20Q200.76-102.69 197.17-99.43Q193.58-96.17 189.77-93.16L189.77-93.16ZM202.22-87.01L192.92-87.01L192.92-54.79Q199.44-61.16 200.76-69.14Q202.08-77.12 202.22-87.01L202.22-87.01ZM209.25-48.78L209.25-48.78L237.01-46.80Q236.72-43.29 231.74-42.63L231.74-42.63Q231.30-38.96 230.71-35.60Q230.13-32.23 229.17-28.93L229.17-28.93L265.21-28.93L274.07-40.36Q271.44-39.26 268.07-38.38Q264.70-37.50 261.77-37.50L261.77-37.50L258.18-37.50L258.18-57.57Q254.15-56.54 246.17-56.54L246.17-56.54L240.01-56.54Q234.38-56.54 231.77-57.79Q229.17-59.03 228.44-61.85Q227.71-64.67 227.71-69.43L227.71-69.43L227.71-87.01L220.39-87.01Q219.80-78.74 217.57-71.96Q215.33-65.19 209.58-59.84Q203.83-54.49 192.92-50.68L192.92-50.68L192.92-41.67Q192.92-40.72 188.53-38.27Q184.13-35.82 176.37-35.82L176.37-35.82L172.63-35.82L172.63-81.45Q168.60-79.17 164.36-77.20Q160.11-75.22 155.86-73.68L155.86-73.68L154.98-74.85Q162.67-80.86 169.81-89.72Q176.95-98.58 182.59-108.80Q188.23-119.02 191.38-128.98L191.38-128.98L220.97-122.39Q220.53-121.14 219.32-120.52Q218.12-119.90 214.97-119.97L214.97-119.97Q211.52-114.99 207.57-110.38L207.57-110.38L222.29-110.38L232.98-121.22L251.73-105.18Q249.98-103.42 245.73-103.20L245.73-103.20Q240.97-100.20 234.81-96.86Q228.66-93.53 222.58-91.19L222.58-91.19L256.64-91.19L265.80-100.78L284.11-87.01Q283.45-86.21 282.13-85.40Q280.81-84.59 278.69-84.16L278.69-84.16L278.69-43.21Q278.69-42.70 276.78-41.67L276.78-41.67Q278.17-40.50 281.25-38.01Q284.33-35.52 287.92-32.63Q291.50-29.74 294.43-27.17L294.43-27.17Q293.77-24.76 290.26-24.76L290.26-24.76L233.28-24.76Q239.72-17.94 249.72-14.32Q259.72-10.69 271.77-9.38Q283.81-8.06 296.26-7.98L296.26-7.98L296.26-6.15Q290.19-4.03 286.45 1.32Q282.71 6.67 281.40 14.58L281.40 14.58Q268.80 11.50 258.80 6.85Q248.80 2.20 241.48-5.35Q234.16-12.89 229.47-24.76L229.47-24.76L228.00-24.76Q225.66-18.09 221.08-12.30Q216.50-6.52 208.30-1.61Q200.10 3.30 187.02 7.29Q173.95 11.28 154.61 14.43L154.61 14.43L153.74 12.16Q170.51 6.74 180.94 0.95Q191.38-4.83 197.13-11.21Q202.88-17.58 205.52-24.76L205.52-24.76L158.13-24.76L156.88-28.93L206.84-28.93Q208.01-33.54 208.52-38.45Q209.03-43.36 209.25-48.78ZM258.18-71.85L258.18-87.01L243.90-87.01L243.90-73.02Q243.90-70.97 245.73-70.97L245.73-70.97L248.58-70.97Q249.24-70.97 249.98-70.97Q250.71-70.97 251.22-70.97L251.22-70.97Q251.81-70.97 252.80-71.04Q253.78-71.12 254.22-71.12L254.22-71.12Q254.96-71.19 255.94-71.41Q256.93-71.63 257.67-71.85L257.67-71.85L258.18-71.85ZM314.28-52.81L315.45-53.39Q321.53-37.87 330.47-28.93L330.47-28.93Q333.18-37.72 334.64-47.09Q336.11-56.47 336.77-66.14L336.77-66.14L330.62-66.14L327.03-58.67Q323.07-57.50 318.24-57.79Q313.40-58.08 307.32-60.42L307.32-60.42Q311.06-68.33 314.79-77.34Q318.53-86.35 321.94-95.03Q325.34-103.71 327.91-110.67L327.91-110.67L308.86-110.67L307.47-114.92L327.76-114.92L336.47-124.80L355.22-109.64Q354.27-108.62 352.59-107.81Q350.90-107.01 348.27-106.64L348.27-106.64Q346.51-102.17 343.91-96.13Q341.31-90.09 338.31-83.42Q335.30-76.76 332.37-70.39L332.37-70.39L335.23-70.39L345.26-80.86L359.55-68.99L358.52-72.73L387.01-72.73L387.01-104.74Q379.91-104.22 372.84-104.08Q365.77-103.93 359.11-103.93L359.11-103.93L358.81-105.76Q366.36-107.74 374.74-110.45Q383.13-113.16 391.30-116.20Q399.46-119.24 406.49-122.28Q413.53-125.32 418.51-127.95L418.51-127.95L438.43-108.33Q435.21-105.69 427.66-108.62L427.66-108.62Q419.68-107.30 409.06-106.35L409.06-106.35L409.06-72.73L416.38-72.73L427.08-88.04Q427.08-88.04 429.02-86.35Q430.96-84.67 433.92-82.03Q436.89-79.39 440.11-76.43Q443.33-73.46 445.97-70.97L445.97-70.97Q445.31-68.55 441.58-68.55L441.58-68.55L409.06-68.55L409.06-25.93L412.79-25.93L422.97-40.36Q422.97-40.36 424.84-38.75Q426.71-37.13 429.60-34.64Q432.50-32.15 435.64-29.37Q438.79-26.59 441.28-24.17L441.28-24.17Q440.63-21.75 437.11-21.75L437.11-21.75L362.40-21.75L361.23-25.93L387.01-25.93L387.01-68.55L359.99-68.55L363.28-65.84Q362.55-64.60 361.38-64.05Q360.21-63.50 357.57-63.13L357.57-63.13Q356.03-51.42 352.92-40.25Q349.80-29.08 343.95-19.19L343.95-19.19Q356.10-12.89 373.13-10.88Q390.16-8.86 413.53-8.86L413.53-8.86Q417.11-8.86 423.23-8.86Q429.35-8.86 435.72-8.90Q442.09-8.94 446.56-9.01L446.56-9.01L446.56-7.18Q440.70-5.86 437.73-0.70Q434.77 4.47 434.40 10.62L434.40 10.62Q431.76 10.62 427.51 10.62Q423.27 10.62 419.02 10.62Q414.77 10.62 412.21 10.62L412.21 10.62Q394.26 10.62 380.16 9.01Q366.06 7.40 355.26 3.26Q344.46-0.88 336.47-8.57L336.47-8.57Q330.69-1.83 322.81 3.96Q314.94 9.74 304.47 14.28L304.47 14.28L303.30 12.60Q311.72 6.08 317.61-2.12Q323.51-10.33 327.32-19.78L327.32-19.78Q323.22-26.22 319.96-34.39Q316.70-42.55 314.28-52.81L314.28-52.81Z"/>
    </svg>
        