<?xml version="1.0" encoding="UTF-8" standalone="no"?>
        <svg 
    viewBox="3.5888671875 -85.9130859375 446.7041015625 57.0556640625"
    width="443.115234375"
    height="142.96875"
   xmlns="http://www.w3.org/2000/svg"
   xmlns:svg="http://www.w3.org/2000/svg">
   <path d="M13.48-112.50L12.30-116.67L37.21-116.67L45.92-127.95Q45.92-127.95 48.60-125.83Q51.27-123.71 54.93-120.67Q58.59-117.63 61.52-114.92L61.52-114.92Q61.08-112.50 57.42-112.50L57.42-112.50L13.48-112.50ZM12.74-73.83L11.57-78.00L37.79-78.00L46.22-88.92Q46.22-88.92 48.85-86.83Q51.49-84.74 55.08-81.77Q58.67-78.81 61.52-76.17L61.52-76.17Q60.86-73.83 57.42-73.83L57.42-73.83L12.74-73.83ZM12.74-54.13L11.57-58.37L37.79-58.37L46.22-69.29Q46.22-69.29 48.85-67.20Q51.49-65.11 55.08-62.15Q58.67-59.18 61.52-56.54L61.52-56.54Q60.86-54.13 57.42-54.13L57.42-54.13L12.74-54.13ZM4.83-93.46L3.59-97.63L46.07-97.63L54.57-108.91Q54.57-108.91 57.31-106.75Q60.06-104.59 63.76-101.59Q67.46-98.58 70.39-95.87L70.39-95.87Q69.73-93.46 66.28-93.46L66.28-93.46L4.83-93.46ZM75.29-127.95L75.29-127.95L105.47-120.12Q104.88-118.65 103.45-117.74Q102.03-116.82 99.32-116.82L99.32-116.82Q97.71-112.13 95.84-107.81Q93.97-103.49 91.92-99.46L91.92-99.46L117.33-99.46L127.37-112.94Q127.37-112.94 129.20-111.44Q131.03-109.94 133.89-107.59Q136.74-105.25 139.86-102.61Q142.97-99.98 145.53-97.63L145.53-97.63Q144.87-95.21 141.28-95.21L141.28-95.21L115.06-95.21L115.06-54.42L123.27-54.42L132.71-68.70Q132.71-68.70 134.44-67.13Q136.16-65.55 138.79-63.06Q141.43-60.57 144.25-57.79Q147.07-55.00 149.27-52.66L149.27-52.66Q148.61-50.24 145.17-50.24L145.17-50.24L115.06-50.24L115.06 7.76Q115.06 8.57 113.01 10.14Q110.96 11.72 107.08 13.07Q103.20 14.43 97.63 14.43L97.63 14.43L93.75 14.43L93.75-50.24L63.87-50.24L62.70-54.42L93.75-54.42L93.75-95.21L89.72-95.21Q79.91-77.71 64.97-66.58L64.97-66.58L63.28-67.68Q66.21-75.44 68.70-85.40Q71.19-95.36 72.91-106.31Q74.63-117.26 75.29-127.95ZM41.67-5.13L41.67-33.33L30.62-33.33L30.62-5.13L41.67-5.13ZM11.43 14.28L11.43-37.50L11.43-45.12L31.05-37.50L40.21-37.50L48.93-46.80L66.58-33.47Q66.06-32.67 64.71-31.79Q63.35-30.91 61.38-30.62L61.38-30.62L61.38 6.30Q61.30 6.96 58.63 8.28Q55.96 9.59 52.22 10.66Q48.49 11.72 45.12 11.72L45.12 11.72L41.67 11.72L41.67-0.88L30.62-0.88L30.62 8.28Q30.62 9.16 28.16 10.58Q25.71 12.01 21.94 13.15Q18.16 14.28 14.14 14.28L14.14 14.28L11.43 14.28ZM154.83-80.27L153.59-84.45L175.20-84.45L175.20-123.93L202.51-121.36Q202.29-119.75 201.20-118.62Q200.10-117.48 196.95-116.97L196.95-116.97L196.95-84.45L212.26-84.45L212.26-127.22L239.14-124.80Q238.84-123.19 237.78-122.06Q236.72-120.92 233.57-120.48L233.57-120.48L233.57-84.45L249.46-84.45L249.46-124.80L276.78-122.39Q276.49-120.85 275.43-119.68Q274.37-118.51 271.22-118.07L271.22-118.07L271.22-85.62L280.52-98.73Q280.52-98.73 282.35-97.16Q284.18-95.58 287.04-93.09Q289.89-90.60 292.97-87.82Q296.04-85.03 298.54-82.62L298.54-82.62Q298.10-80.27 294.29-80.27L294.29-80.27L271.22-80.27L271.22-32.52Q271.22-31.64 268.51-30.21Q265.80-28.78 261.66-27.65Q257.52-26.51 253.34-26.51L253.34-26.51L249.46-26.51L249.46-38.67L233.57-38.67L233.57-28.78Q233.57-27.91 230.90-26.48Q228.22-25.05 224.19-23.91Q220.17-22.78 216.14-22.78L216.14-22.78L212.26-22.78L212.26-80.27L196.95-80.27L196.95-4.17L260.67-4.17L272.24-20.07Q272.24-20.07 274.37-18.35Q276.49-16.63 279.71-13.88Q282.93-11.13 286.45-8.09Q289.97-5.05 292.82-2.42L292.82-2.42Q292.46-1.17 291.25-0.59Q290.04 0 288.43 0L288.43 0L196.95 0L196.95 7.03Q196.95 8.13 194.24 9.85Q191.53 11.57 187.46 13.00Q183.40 14.43 179.22 14.43L179.22 14.43L175.20 14.43L175.20-80.27L154.83-80.27ZM249.46-42.92L249.46-80.27L233.57-80.27L233.57-42.92L249.46-42.92ZM403.34-14.43L404.22-15.45Q417.92-16.55 426.71-14.43Q435.50-12.30 440.04-8.35Q444.58-4.39 445.61 0.07Q446.63 4.54 444.80 8.24Q442.97 11.94 438.90 13.48Q434.84 15.01 429.27 13.04L429.27 13.04Q426.27 8.13 421.88 3.00Q417.48-2.12 412.57-6.67Q407.67-11.21 403.34-14.43L403.34-14.43ZM393.02-90.89L393.02-127.66L420.12-125.54Q420.04-124.07 419.09-123.08Q418.14-122.09 415.36-121.66L415.36-121.66L415.36-108.91L418.07-108.91L428.39-122.97Q428.39-122.97 430.26-121.44Q432.13-119.90 435.02-117.48Q437.92-115.06 441.03-112.28Q444.14-109.50 446.70-107.08L446.70-107.08Q446.04-104.74 442.38-104.74L442.38-104.74L415.36-104.74L415.36-90.89L417.77-90.89L427.66-102.17L445.53-88.18Q444.73-87.16 443.41-86.32Q442.09-85.47 439.53-85.03L439.53-85.03L439.53-21.17Q439.53-20.51 434.88-18.42Q430.22-16.33 422.09-16.33L422.09-16.33L418.51-16.33L418.51-22.34L388.18-22.34L388.18-18.60Q388.18-17.80 386.13-16.63L386.13-16.63L408.76-4.47Q407.89-3.15 405.69-2.49Q403.49-1.83 399.46-2.42L399.46-2.42Q391.26 3.66 378.15 8.02Q365.04 12.38 350.10 14.43L350.10 14.43L349.51 12.89Q359.03 7.98 367.31 0.29Q375.59-7.40 380.57-14.72L380.57-14.72Q376.98-13.77 371.85-13.77L371.85-13.77L368.26-13.77L368.26-99.02L389.87-90.89L393.02-90.89ZM418.51-64.97L388.18-64.97L388.18-47.97L418.51-47.97L418.51-64.97ZM388.18-86.72L388.18-69.14L418.51-69.14L418.51-86.72L388.18-86.72ZM418.51-43.80L388.18-43.80L388.18-26.51L418.51-26.51L418.51-43.80ZM324.46-90.01L324.46-128.54L350.98-125.98Q350.76-124.29 349.69-123.19Q348.63-122.09 345.48-121.66L345.48-121.66L345.48-90.01L346.07-90.01L354.13-103.34Q354.13-103.34 356.65-100.78Q359.18-98.22 362.51-94.67Q365.84-91.11 368.26-88.18L368.26-88.18Q368.04-86.94 366.94-86.35Q365.84-85.77 364.38-85.77L364.38-85.77L345.48-85.77L345.48-72.88Q354.86-70.53 359.99-66.94Q365.11-63.35 366.87-59.47Q368.63-55.59 367.82-52.22Q367.02-48.85 364.45-46.84Q361.89-44.82 358.37-44.97Q354.86-45.12 351.27-48.27L351.27-48.27Q351.05-53.69 349.33-59.25Q347.61-64.82 345.48-69.43L345.48-69.43L345.48 8.42Q345.48 9.30 342.92 10.69Q340.36 12.08 336.47 13.18Q332.59 14.28 328.64 14.28L328.64 14.28L324.46 14.28L324.46-43.80Q319.92-37.65 314.69-32.08Q309.45-26.51 303.44-21.61L303.44-21.61L301.83-23.07Q307.03-31.49 311.06-41.89Q315.09-52.29 318.02-63.54Q320.95-74.78 322.78-85.77L322.78-85.77L306.88-85.77L305.71-90.01L324.46-90.01Z"/>
    </svg>
        