<?xml version="1.0" encoding="UTF-8" standalone="no"?>
        <svg 
    viewBox="3.0029296875 -86.2060546875 595.9716796875 57.0556640625"
    width="592.96875"
    height="143.26171875"
   xmlns="http://www.w3.org/2000/svg"
   xmlns:svg="http://www.w3.org/2000/svg">
   <path d="M71.85-116.67L71.85-116.67L93.90-110.82L93.90-126.93L120.48-124.51Q120.19-122.90 119.27-121.91Q118.36-120.92 115.65-120.48L115.65-120.48L115.65-86.57L120.12-86.57L129.57-99.76Q129.57-99.76 131.36-98.29Q133.15-96.83 135.86-94.52Q138.57-92.21 141.54-89.61Q144.51-87.01 146.85-84.74L146.85-84.74Q146.19-82.32 142.68-82.32L142.68-82.32L115.65-82.32L115.65-47.83L119.97-47.83L129.13-60.42Q129.13-60.42 132.02-58.04Q134.91-55.66 138.79-52.33Q142.68-49.00 145.68-46.07L145.68-46.07Q145.24-43.65 141.58-43.65L141.58-43.65L115.65-43.65L115.65 3.00L119.68 3.00L130.08-11.43Q130.08-11.43 131.98-9.81Q133.89-8.20 136.85-5.71Q139.82-3.22 143.01-0.40Q146.19 2.42 148.83 4.83L148.83 4.83Q148.17 7.18 144.43 7.18L144.43 7.18L57.42 7.18L56.25 3.00L93.90 3.00L93.90-43.65L67.53-43.65L66.28-47.83L93.90-47.83L93.90-82.32L81.30-82.32Q77.49-74.27 72.77-67.27Q68.04-60.28 62.40-54.79L62.40-54.79L60.42-55.96Q63.13-63.87 65.44-73.97Q67.75-84.08 69.43-95.07Q71.12-106.05 71.85-116.67ZM93.90-86.57L93.90-107.52Q92.87-106.93 90.60-106.93L90.60-106.93Q88.99-101.51 87.19-96.39Q85.40-91.26 83.28-86.57L83.28-86.57L93.90-86.57ZM23.73-128.10L23.73-128.10L47.39-123.12Q46.95-121.66 45.63-120.67Q44.31-119.68 41.38-119.68L41.38-119.68Q40.58-114.62 39.22-106.90Q37.87-99.17 36.18-90.16L36.18-90.16L40.80-90.16L50.24-100.34L67.53-85.47Q66.43-83.50 61.82-82.62L61.82-82.62Q60.57-69.58 58.08-57.02Q55.59-44.46 50.54-33.03L50.54-33.03Q57.28-28.56 60.28-23.55Q63.28-18.53 63.32-14.06Q63.35-9.59 61.12-6.56Q58.89-3.52 55.08-2.89Q51.27-2.27 46.66-5.13L46.66-5.13Q45.78-8.06 44.46-11.06Q43.14-14.06 41.53-17.07L41.53-17.07Q35.23-8.42 26.11-1.10Q16.99 6.23 4.17 11.87L4.17 11.87L3.00 10.18Q13.77 2.20 20.98-8.02Q28.20-18.24 32.52-30.18L32.52-30.18Q28.93-34.20 25.34-37.79L25.34-37.79L23.22-29.22Q20.65-27.32 15.49-26.99Q10.33-26.66 4.32-28.34L4.32-28.34Q6.37-35.23 8.61-44.64Q10.84-54.05 13.07-64.71Q15.31-75.37 17.29-85.99L17.29-85.99L4.32-85.99L3.00-90.16L18.02-90.16Q20.14-101.66 21.64-111.66Q23.14-121.66 23.73-128.10ZM42.48-85.99L35.38-85.99Q33.40-75.07 31.02-63.57Q28.64-52.08 26.37-42.33L26.37-42.33Q28.86-41.75 31.20-41.16Q33.54-40.58 35.67-39.92L35.67-39.92Q38.75-50.68 40.25-62.29Q41.75-73.90 42.48-85.99L42.48-85.99ZM262.21-128.69L262.21-128.69L283.23-108.03Q281.76-106.79 278.87-106.75Q275.98-106.71 271.95-108.33L271.95-108.33Q266.31-107.37 259.75-106.60Q253.20-105.83 245.87-105.18L245.87-105.18Q245.51-95.00 245.91-85.14Q246.31-75.29 247.63-66.14L247.63-66.14L263.38-66.14L275.24-81.01Q275.24-81.01 277.40-79.39Q279.57-77.78 282.86-75.22Q286.16-72.66 289.82-69.76Q293.48-66.87 296.56-64.38L296.56-64.38Q295.90-61.96 292.02-61.96L292.02-61.96L248.36-61.96Q251.29-46.07 258.07-33.40Q264.84-20.73 276.93-13.62L276.93-13.62Q280.37-11.50 282.71-14.72L282.71-14.72Q284.77-17.50 287.59-22.85Q290.41-28.20 292.82-33.03L292.82-33.03L294.14-32.67L290.99-8.13Q295.17-2.12 296.26 2.20Q297.36 6.52 294.43 9.89L294.43 9.89Q290.92 13.84 285.72 14.14Q280.52 14.43 275.06 12.49Q269.60 10.55 265.36 7.98L265.36 7.98Q253.34-0.07 245.58-10.84Q237.82-21.61 233.35-34.53Q228.88-47.46 226.83-61.96L226.83-61.96L195.78-61.96L195.78-15.01Q205.22-16.33 215.73-17.91Q226.25-19.48 237.30-21.31L237.30-21.31L237.60-19.78Q228.30-14.06 213.32-6.81Q198.34 0.44 174.76 10.33L174.76 10.33Q173.36 13.33 170.58 14.14L170.58 14.14L155.86-9.74L174.02-12.01L174.02-116.82L197.97-107.89Q209.99-110.74 222.03-114.37Q234.08-117.99 244.56-121.69Q255.03-125.39 262.21-128.69ZM195.78-102.32L195.78-66.14L226.17-66.14Q225.07-75.07 224.63-84.45Q224.19-93.82 224.12-103.49L224.12-103.49Q217.02-103.05 209.88-102.72Q202.73-102.39 195.78-102.32L195.78-102.32ZM393.75-103.49L393.75-103.49L363.72-103.49Q360.28-99.54 356.43-95.76Q352.59-91.99 348.27-88.48L348.27-88.48Q357.13-87.89 362.33-85.33Q367.53-82.76 369.69-79.25Q371.85-75.73 371.56-72.29L371.56-72.29Q385.47-87.30 393.75-103.49ZM352.51-128.69L352.51-128.69L381.45-120.78Q381.01-119.53 379.80-118.98Q378.59-118.43 375.29-118.65L375.29-118.65Q373.54-115.87 371.56-113.12Q369.58-110.38 367.38-107.67L367.38-107.67L393.60-107.67L406.93-119.97L427.22-100.93Q426.27-99.46 424.77-98.88Q423.27-98.29 420.12-98.07L420.12-98.07Q411.04-83.13 398.14-70.42Q385.25-57.71 368.70-47.68L368.70-47.68L370.02-47.24L412.21-47.24L422.39-58.52L442.97-42.63Q442.16-41.60 440.59-40.58Q439.01-39.55 436.38-38.96L436.38-38.96L436.38 7.47Q436.30 8.20 433.23 9.59Q430.15 10.99 425.83 12.16Q421.51 13.33 417.63 13.33L417.63 13.33L413.82 13.33L413.82 0.44L367.97 0.44L367.97 8.28Q367.97 8.94 365.84 10.40Q363.72 11.87 359.77 13.15Q355.81 14.43 350.24 14.43L350.24 14.43L346.22 14.43L346.22-36.18Q336.55-32.08 325.96-28.78Q315.38-25.49 303.88-23.22L303.88-23.22L303.00-24.76Q319.19-31.86 334.09-41.38Q349.00-50.90 361.38-62.26L361.38-62.26Q357.50-61.82 353.10-64.23L353.10-64.23Q351.64-69.29 348.56-74.38Q345.48-79.47 341.97-83.57L341.97-83.57Q334.20-77.71 325.74-73.02Q317.29-68.33 308.28-65.11L308.28-65.11L307.32-66.14Q316.85-72.95 325.71-83.20Q334.57-93.46 341.56-105.25Q348.56-117.04 352.51-128.69ZM367.97-3.74L413.82-3.74L413.82-43.07L367.97-43.07L367.97-3.74ZM474.61-116.38L474.61-116.38L476.22-116.38Q477.83-113.01 478.89-109.79Q479.96-106.57 480.62-103.64L480.62-103.64L513.87-103.64L513.87-128.25L541.77-126.27Q541.70-124.73 540.64-123.63Q539.58-122.53 536.43-121.95L536.43-121.95L536.43-103.64L567.33-103.64L577.81-114.18L595.97-97.05Q594.95-96.17 593.70-95.76Q592.46-95.36 589.97-95.07L589.97-95.07Q585.21-92.07 578.28-88.73Q571.36-85.40 565.21-83.42L565.21-83.42L573.27-76.46Q571.80-74.85 567.33-74.41L567.33-74.41Q561.33-70.83 554.41-67.16Q547.49-63.50 540.31-60.57L540.31-60.57L541.48-60.42Q541.04-57.20 536.43-56.54L536.43-56.54L536.43-44.09L565.94-44.09L576.64-58.23Q576.64-58.23 578.58-56.65Q580.52-55.08 583.52-52.66Q586.52-50.24 589.82-47.50Q593.12-44.75 595.83-42.33L595.83-42.33Q595.17-39.92 591.58-39.92L591.58-39.92L536.43-39.92L536.43-10.03Q536.43-2.78 534.41 2.31Q532.40 7.40 526.17 10.40Q519.95 13.40 507.28 14.58L507.28 14.58Q506.76 9.23 505.81 5.57Q504.86 1.90 502.37-0.59L502.37-0.59Q499.88-3.08 496.44-4.91Q492.99-6.74 485.52-8.13L485.52-8.13L485.52-9.89Q485.52-9.89 488.85-9.70Q492.19-9.52 496.77-9.23Q501.34-8.94 505.33-8.75Q509.33-8.57 510.72-8.57L510.72-8.57Q513.87-8.57 513.87-11.13L513.87-11.13L513.87-39.92L457.32-39.92L456.15-44.09L513.87-44.09L513.87-62.70L531.30-61.38Q534.59-65.04 537.63-69.36Q540.67-73.68 543.02-77.42L543.02-77.42L484.20-77.42L482.89-81.59L543.60-81.59L554.52-92.58L563.67-84.74Q564.84-87.89 565.98-91.88Q567.11-95.87 568.07-99.46L568.07-99.46L481.20-99.46Q482.08-91.92 480.32-86.46Q478.56-81.01 475.05-78.00L475.05-78.00Q472.49-75.81 468.90-75.66Q465.31-75.51 462.12-77.31Q458.94-79.10 457.47-82.76L457.47-82.76Q455.71-87.89 457.91-91.81Q460.11-95.73 464.43-97.92L464.43-97.92Q466.63-99.54 469.08-102.43Q471.53-105.32 473.18-108.95Q474.83-112.57 474.61-116.38Z"/>
    </svg>
        