<?xml version="1.0" encoding="UTF-8" standalone="no"?>
        <svg 
    viewBox="2.8564453125 -85.7666015625 446.9970703125 57.2021484375"
    width="444.140625"
    height="142.96875"
   xmlns="http://www.w3.org/2000/svg"
   xmlns:svg="http://www.w3.org/2000/svg">
   <path d="M30.91-122.39L30.91-122.39L59.69-114.33Q59.11-112.87 57.68-112.02Q56.25-111.18 53.54-111.18L53.54-111.18Q51.86-107.01 49.95-103.16Q48.05-99.32 46.07-95.87L46.07-95.87L63.13-95.87L63.13-128.10L90.89-125.39Q90.67-123.85 89.58-122.75Q88.48-121.66 85.33-121.22L85.33-121.22L85.33-95.87L98.22-95.87L109.94-110.23Q109.94-110.23 112.02-108.69Q114.11-107.15 117.37-104.74Q120.63-102.32 124.26-99.46Q127.88-96.61 130.96-94.04L130.96-94.04Q130.30-91.63 126.64-91.63L126.64-91.63L85.33-91.63L85.33-62.26L111.77-62.26L123.63-77.12Q123.63-77.12 125.79-75.48Q127.95-73.83 131.32-71.30Q134.69-68.77 138.39-65.88Q142.09-62.99 145.17-60.42L145.17-60.42Q144.58-58.08 140.70-58.08L140.70-58.08L87.74-58.08Q93.90-47.75 103.38-39.77Q112.87-31.79 124.22-26.26Q135.57-20.73 147.29-17.87L147.29-17.87L146.85-16.04Q140.92-14.58 136.45-9.59Q131.98-4.61 130.08 3.15L130.08 3.15Q112.94-5.64 102.17-20.36Q91.41-35.08 85.33-56.54L85.33-56.54L85.33 6.74Q85.33 7.76 82.58 9.56Q79.83 11.35 75.70 12.82Q71.56 14.28 67.38 14.28L67.38 14.28L63.13 14.28L63.13-34.35Q41.24-8.57 4.03 5.86L4.03 5.86L2.86 4.17Q14.28-3.44 23.77-13.66Q33.25-23.88 40.47-35.30Q47.68-46.73 52.22-58.08L52.22-58.08L6.01-58.08L4.83-62.26L63.13-62.26L63.13-91.63L43.36-91.63Q37.35-82.62 30.07-75.84Q22.78-69.07 14.28-64.23L14.28-64.23L12.60-65.26Q19.04-75.81 24.02-91.00Q29.00-106.20 30.91-122.39ZM189.33-31.05L215.84-29.22Q215.41-26.22 211.08-25.34L211.08-25.34L211.08-10.03Q211.08-8.72 211.96-8.17Q212.84-7.62 216.28-7.62L216.28-7.62L233.42-7.62Q236.87-7.62 240.42-7.65Q243.97-7.69 245.87-7.76L245.87-7.76Q248.88-7.98 250.63-9.74L250.63-9.74Q253.42-12.96 259.20-25.34L259.20-25.34L260.52-25.34L261.04-9.45Q265.58-7.91 267.11-5.97Q268.65-4.03 268.65-1.32L268.65-1.32Q268.65 3.00 265.36 5.31Q262.06 7.62 253.82 8.46Q245.58 9.30 230.71 9.30L230.71 9.30L212.40 9.30Q203.03 9.30 198.05 8.02Q193.07 6.74 191.20 3.26Q189.33-0.22 189.33-6.74L189.33-6.74L189.33-31.05ZM174.32-29.74L176.07-29.88Q180.54-20.43 180.73-12.89Q180.91-5.35 178.16-0.37Q175.42 4.61 171.17 6.59L171.17 6.59Q166.55 8.72 161.65 6.77Q156.74 4.83 155.27-0.44L155.27-0.44Q154.10-5.64 156.77-9.12Q159.45-12.60 163.77-14.43L163.77-14.43Q167.65-16.11 171.13-20.25Q174.61-24.39 174.32-29.74L174.32-29.74ZM258.76-29.22L259.94-30.18Q272.97-28.64 280.77-24.72Q288.57-20.80 292.02-15.93Q295.46-11.06 295.50-6.34Q295.53-1.61 293.01 1.65Q290.48 4.91 286.30 5.53Q282.13 6.15 277.22 2.86L277.22 2.86Q275.61-5.93 270.37-14.65Q265.14-23.36 258.76-29.22L258.76-29.22ZM195.12-58.08L195.12-57.13Q195.12-56.25 192.41-54.75Q189.70-53.25 185.56-52.04Q181.42-50.83 177.17-50.83L177.17-50.83L174.17-50.83L174.17-104.22L196.51-95.87L214.97-95.87L214.97-106.93L157.18-106.93L156.01-111.18L214.97-111.18L214.97-128.69L241.77-126.42Q241.55-124.73 240.49-123.63Q239.43-122.53 236.28-122.09L236.28-122.09L236.28-111.18L267.92-111.18L278.25-123.93Q278.25-123.93 280.15-122.50Q282.06-121.07 285.02-118.87Q287.99-116.67 291.21-114.15Q294.43-111.62 297.14-109.35L297.14-109.35Q296.48-106.93 292.82-106.93L292.82-106.93L236.28-106.93L236.28-95.87L253.20-95.87L262.50-106.05L281.98-91.48Q281.32-90.60 279.86-89.69Q278.39-88.77 275.98-88.18L275.98-88.18L275.98-57.93Q275.90-57.42 273.85-56.65Q271.80-55.88 268.73-55.08Q265.65-54.27 262.50-53.83L262.50-53.83Q276.20-52.22 283.34-49.00Q290.48-45.78 292.60-41.97Q294.73-38.16 293.23-34.75Q291.72-31.35 288.06-29.37Q284.40-27.39 279.97-27.76Q275.54-28.13 271.95-31.93L271.95-31.93Q270.70-34.28 268.76-36.84Q266.82-39.40 264.18-41.97L264.18-41.97Q245.58-38.89 217.02-35.52L217.02-35.52Q226.98-34.42 232.54-31.53Q238.11-28.64 240.16-24.98Q242.21-21.31 241.52-17.91Q240.82-14.50 238.22-12.27Q235.62-10.03 231.85-9.92Q228.08-9.81 224.12-12.89L224.12-12.89Q223.75-18.75 221.12-24.76Q218.48-30.76 215.26-34.79L215.26-34.79L216.14-35.38L173.88-30.47Q172.05-27.83 169.34-27.32L169.34-27.32L158.72-47.24Q167.72-47.02 182.15-46.80Q196.58-46.58 214.97-46.51L214.97-46.51L214.97-58.08L195.12-58.08ZM246.61-53.25L247.19-54.93L254.74-54.57L254.74-58.08L236.28-58.08L236.28-46.36L258.91-46.36Q254.08-50.10 246.61-53.25L246.61-53.25ZM195.12-62.26L214.97-62.26L214.97-75.15L195.12-75.15L195.12-62.26ZM236.28-75.15L236.28-62.26L254.74-62.26L254.74-75.15L236.28-75.15ZM195.12-79.32L214.97-79.32L214.97-91.63L195.12-91.63L195.12-79.32ZM236.28-91.63L236.28-79.32L254.74-79.32L254.74-91.63L236.28-91.63ZM307.98-86.57L306.74-90.75L351.12-90.75Q352.15-95.95 352.92-101.40Q353.69-106.86 354.13-112.50L354.13-112.50L321.75-112.50L320.43-116.67L397.63-116.67L407.08-127.22L426.78-112.35Q425.98-111.47 424.55-110.56Q423.12-109.64 420.78-109.06L420.78-109.06L420.78-90.75L430.22-104.37Q430.22-104.37 431.95-102.87Q433.67-101.37 436.30-98.99Q438.94-96.61 441.83-93.93Q444.73-91.26 447.00-88.92L447.00-88.92Q446.34-86.57 442.82-86.57L442.82-86.57L420.78-86.57L420.78-58.08Q420.70-57.42 417.70-56.21Q414.70-55.00 410.52-53.98Q406.35-52.95 402.76-52.95L402.76-52.95L399.17-52.95L399.17-61.38L362.99-61.38Q360.06-56.32 356.40-51.67Q352.73-47.02 348.49-42.77L348.49-42.77L361.82-37.94L403.93-37.94L413.53-48.27L433.23-33.62Q432.50-32.67 431.14-31.79Q429.79-30.91 427.51-30.47L427.51-30.47L427.51 7.03Q427.44 7.62 424.37 8.83Q421.29 10.03 417.08 11.02Q412.87 12.01 409.35 12.01L409.35 12.01L405.47 12.01L405.47 1.98L359.69 1.98L359.69 7.98Q359.69 8.94 355.11 11.35Q350.54 13.77 342.48 13.77L342.48 13.77L338.38 13.77L338.38-34.20Q331.42-28.93 322.96-24.43Q314.50-19.92 304.47-16.33L304.47-16.33L303.30-17.72Q316.77-26.00 326.22-36.99Q335.67-47.97 341.82-61.38L341.82-61.38L320.21-61.38L318.90-65.55L343.65-65.55Q347.83-75.73 350.24-86.57L350.24-86.57L307.98-86.57ZM359.69-2.27L405.47-2.27L405.47-33.76L359.69-33.76L359.69-2.27ZM399.17-90.75L399.17-112.50L379.32-112.50Q378.59-106.79 377.53-101.37Q376.46-95.95 375.15-90.75L375.15-90.75L399.17-90.75ZM365.41-65.55L399.17-65.55L399.17-86.57L373.97-86.57Q372.29-80.93 370.20-75.73Q368.12-70.53 365.41-65.55L365.41-65.55Z"/>
    </svg>
        