<?xml version="1.0" encoding="UTF-8" standalone="no"?>
        <svg 
    viewBox="3.1494140625 -85.693359375 449.267578125 56.8359375"
    width="446.1181640625"
    height="142.529296875"
   xmlns="http://www.w3.org/2000/svg"
   xmlns:svg="http://www.w3.org/2000/svg">
   <path d="M13.77-32.52L13.77-32.52Q15.45-32.52 16.30-32.92Q17.14-33.33 18.31-35.67L18.31-35.67Q19.19-37.43 20.00-39.11Q20.80-40.80 22.16-44.24Q23.51-47.68 26.11-54.57Q28.71-61.45 33.14-73.43Q37.57-85.40 44.53-104.22L44.53-104.22L46.80-103.78Q45.56-98.22 44.09-91.15Q42.63-84.08 41.16-76.61Q39.70-69.14 38.34-62.26Q36.99-55.37 36.04-50.02Q35.08-44.68 34.64-41.97L34.64-41.97Q33.98-38.09 33.51-34.09Q33.03-30.10 33.18-27.17L33.18-27.17Q33.25-23.80 34.39-20.98Q35.52-18.16 36.88-15.16Q38.23-12.16 39.22-8.39Q40.21-4.61 40.06 0.73L40.06 0.73Q39.92 6.81 35.89 10.62Q31.86 14.43 25.63 14.43L25.63 14.43Q22.85 14.43 19.92 12.82Q16.99 11.21 15.89 6.59L15.89 6.59Q17.50-1.25 17.87-8.57Q18.24-15.89 17.50-20.98Q16.77-26.07 15.01-27.32L15.01-27.32Q12.08-29.37 7.18-29.88L7.18-29.88L7.18-32.52Q7.18-32.52 8.50-32.52Q9.81-32.52 11.39-32.52Q12.96-32.52 13.77-32.52ZM3.15-91.04L4.32-91.77Q15.09-90.38 21.09-87.16Q27.10-83.94 29.26-79.98Q31.42-76.03 30.65-72.36Q29.88-68.70 27.03-66.36Q24.17-64.01 20.14-63.98Q16.11-63.94 11.87-67.38L11.87-67.38Q11.43-73.68 8.79-80.05Q6.15-86.43 3.15-91.04L3.15-91.04ZM11.28-124.95L12.30-125.68Q23.88-124.88 30.54-121.84Q37.21-118.80 39.84-114.77Q42.48-110.74 41.97-106.86Q41.46-102.98 38.67-100.31Q35.89-97.63 31.68-97.30Q27.47-96.97 22.78-100.20L22.78-100.20Q21.46-106.86 18.05-113.49Q14.65-120.12 11.28-124.95L11.28-124.95ZM96.75-73.97L118.07-72.14Q117.85-70.68 116.71-69.62Q115.58-68.55 113.09-68.26L113.09-68.26L113.09-13.04Q113.09-11.50 113.75-10.84Q114.40-10.18 116.38-10.18L116.38-10.18L122.83-10.18Q124.51-10.18 125.94-10.18Q127.37-10.18 128.25-10.18L128.25-10.18Q129.35-10.33 130.04-10.73Q130.74-11.13 131.54-12.45L131.54-12.45Q132.79-14.72 134.80-20.91Q136.82-27.10 139.23-34.50L139.23-34.50L140.70-34.50L141.14-11.13Q144.73-9.30 145.86-7.36Q147.00-5.42 147.00-2.71L147.00-2.71Q147.00 3.52 140.92 6.63Q134.84 9.74 120.26 9.74L120.26 9.74L110.08 9.74Q102.61 9.74 98.77 8.24Q94.92 6.74 93.60 3.04Q92.29-0.66 92.29-7.32L92.29-7.32L92.29-46.07Q88.99-33.91 82.84-23.14Q76.68-12.38 66.43-3.04Q56.18 6.30 40.65 14.14L40.65 14.14L39.18 12.16Q51.42 1.17 58.81-10.88Q66.21-22.92 69.98-36.22Q73.75-49.51 75.11-64.05Q76.46-78.59 76.68-94.48L76.68-94.48L62.84-94.48Q65.41-85.18 64.27-79.58Q63.13-73.97 59.95-71.59Q56.76-69.21 53.06-69.58Q49.37-69.95 46.73-72.51Q44.09-75.07 44.06-79.36Q44.02-83.64 48.27-89.14L48.27-89.14Q51.71-91.55 53.80-96.28Q55.88-101.00 56.25-107.89L56.25-107.89L57.71-107.89Q58.89-105.40 59.84-103.13Q60.79-100.85 61.52-98.73L61.52-98.73L76.68-98.73L76.68-127.81L103.78-125.39Q103.49-123.63 102.21-122.57Q100.93-121.51 98.07-121.07L98.07-121.07L97.78-98.73L121.36-98.73L131.25-108.47L147.88-92.43Q147.00-91.41 145.72-91.04Q144.43-90.67 142.02-90.45L142.02-90.45Q139.45-87.74 135.83-84.23Q132.20-80.71 128.47-77.31Q124.73-73.90 121.66-71.41L121.66-71.41L120.26-72.29L122.68-94.48L97.78-94.48Q97.56-89.21 97.38-84.05Q97.19-78.88 96.75-73.97L96.75-73.97ZM238.04-127.37L238.04-127.37L269.97-121.80Q269.17-117.92 263.82-117.48L263.82-117.48Q260.23-113.53 255.21-107.92Q250.20-102.32 246.02-97.92L246.02-97.92L266.53-97.92L277.22-110.08L295.83-95.21Q294.87-94.12 293.44-93.16Q292.02-92.21 289.38-91.63L289.38-91.63L289.38 5.57Q289.38 6.15 287.15 7.58Q284.91 9.01 280.85 10.22Q276.78 11.43 271.22 11.43L271.22 11.43L267.48 11.43L267.48-0.59L237.30-0.59L237.30 7.03Q237.30 8.20 232.80 10.40Q228.30 12.60 220.17 12.60L220.17 12.60L216.43 12.60L216.43-48.27Q214.09-45.48 210.06-45.04Q206.03-44.60 201.93-48.27L201.93-48.27Q201.71-53.69 199.95-59.25Q198.19-64.82 196.07-69.43L196.07-69.43L196.07 8.42Q196.07 9.23 193.51 10.62Q190.94 12.01 187.10 13.15Q183.25 14.28 179.22 14.28L179.22 14.28L175.05 14.28L175.05-44.09Q170.58-37.94 165.20-32.23Q159.81-26.51 153.59-21.61L153.59-21.61L151.83-23.07Q157.18-31.49 161.35-41.89Q165.53-52.29 168.53-63.54Q171.53-74.78 173.36-85.77L173.36-85.77L156.74-85.77L155.57-90.01L175.05-90.01L175.05-127.95L201.64-125.39Q201.34-123.71 200.28-122.61Q199.22-121.51 196.07-121.07L196.07-121.07L196.07-90.31L203.98-103.34Q203.98-103.34 206.07-101.22Q208.15-99.10 211.05-96.06Q213.94-93.02 216.43-90.16L216.43-90.16L216.43-106.35L238.18-98.22Q238.33-104.44 238.29-112.65Q238.26-120.85 238.04-127.37ZM214.23-85.77L196.07-85.77L196.07-72.88Q204.35-70.75 209.29-67.68Q214.23-64.60 216.43-61.23L216.43-61.23L216.43-86.28Q215.55-85.77 214.23-85.77L214.23-85.77ZM267.48-50.24L237.30-50.24L237.30-4.83L267.48-4.83L267.48-50.24ZM237.30-93.75L237.30-54.42L267.48-54.42L267.48-93.75L237.30-93.75ZM359.84-66.14L358.67-70.39L383.57-70.39L393.60-84.89Q393.60-84.89 395.47-83.28Q397.34-81.67 400.20-79.14Q403.05-76.61 406.16-73.79Q409.28-70.97 411.77-68.55L411.77-68.55Q411.11-66.14 407.52-66.14L407.52-66.14L359.84-66.14ZM363.43-15.16L351.42-37.35Q356.69-38.31 366.32-40.54Q375.95-42.77 388.07-45.81Q400.20-48.85 412.94-52.22L412.94-52.22L413.23-50.68Q406.42-45.19 395.21-37.32Q384.01-29.44 367.38-19.34L367.38-19.34Q366.14-16.11 363.43-15.16L363.43-15.16ZM313.04-9.16L302.12-32.52L319.48-37.35L319.48-81.01L305.13-81.01L303.88-85.18L319.48-85.18L319.48-124.51L346.07-122.24Q345.85-120.70 344.75-119.60Q343.65-118.51 340.50-118.07L340.50-118.07L340.50-87.45L347.39-99.90Q347.39-99.90 349.22-97.85Q351.05-95.80 353.65-92.76Q356.25-89.72 358.67-86.72L358.67-86.72Q363.13-96.24 366.61-107.01Q370.09-117.77 372.14-128.10L372.14-128.10L399.90-119.97Q399.46-118.65 398.03-117.74Q396.61-116.82 394.04-116.82L394.04-116.82Q391.77-112.43 389.10-108.00Q386.43-103.56 383.28-99.17L383.28-99.17L418.80-99.17L430.66-111.04L449.27-94.04Q447.44-91.77 442.24-90.89L442.24-90.89Q440.84-61.96 438.76-42.41Q436.67-22.85 433.30-11.32Q429.93 0.22 424.66 5.13L424.66 5.13Q419.60 9.74 413.64 11.68Q407.67 13.62 398.22 13.62L398.22 13.62Q398.22 8.50 397.27 4.54Q396.31 0.59 394.19-1.68L394.19-1.68Q388.92-7.18 375.88-9.89L375.88-9.89L376.03-11.57Q380.42-11.28 385.44-10.95Q390.45-10.62 394.85-10.40Q399.24-10.18 401.51-10.18L401.51-10.18Q405.32-10.18 407.89-12.30L407.89-12.30Q412.94-16.48 415.94-37.94Q418.95-59.40 420.63-94.92L420.63-94.92L379.98-94.92Q373.97-87.30 366.54-80.60Q359.11-73.90 350.54-69.14L350.54-69.14L349.07-70.39Q352.51-74.93 355.81-81.01L355.81-81.01L340.50-81.01L340.50-43.51L364.67-51.12L364.97-49.80Q358.01-43.51 346.22-34.31Q334.42-25.12 316.92-13.62L316.92-13.62Q315.97-10.11 313.04-9.16L313.04-9.16Z"/>
    </svg>
        