<?xml version="1.0" encoding="UTF-8" standalone="no"?>
        <svg 
    viewBox="4.1748046875 -86.4990234375 447.8759765625 57.0556640625"
    width="443.701171875"
    height="143.5546875"
   xmlns="http://www.w3.org/2000/svg"
   xmlns:svg="http://www.w3.org/2000/svg">
   <path d="M5.57-113.67L4.17-117.92L35.08-117.92L43.80-127.51L62.11-113.67Q61.45-112.79 59.95-111.91Q58.45-111.04 56.10-110.52L56.10-110.52L56.10-78.59Q56.03-78.08 53.28-77.01Q50.54-75.95 46.80-75.11Q43.07-74.27 39.92-74.27L39.92-74.27L36.62-74.27L36.62-81.59L28.49-81.59Q28.20-76.32 27.61-69.10Q27.03-61.89 26.22-54.93L26.22-54.93L36.04-54.93L46.07-64.53L60.42-52.37L69.43-52.37L69.43-123.78L92.29-115.36L111.77-115.36L121.80-128.25Q121.80-128.25 123.67-126.82Q125.54-125.39 128.43-123.16Q131.32-120.92 134.51-118.36Q137.70-115.80 140.26-113.53L140.26-113.53Q139.60-111.18 136.08-111.18L136.08-111.18L90.31-111.18L90.31-94.34L111.47-94.34L120.12-105.47Q120.12-105.47 122.86-103.34Q125.61-101.22 129.35-98.22Q133.08-95.21 136.08-92.58L136.08-92.58Q135.42-90.16 131.98-90.16L131.98-90.16L90.31-90.16L90.31-73.83L110.82-73.83L119.97-85.47Q119.97-85.47 122.83-83.28Q125.68-81.08 129.57-77.93Q133.45-74.78 136.52-72.00L136.52-72.00Q136.08-69.58 132.42-69.58L132.42-69.58L90.31-69.58L90.31-52.37L118.95-52.37L128.69-65.55Q128.69-65.55 130.48-64.09Q132.28-62.62 135.06-60.35Q137.84-58.08 140.84-55.48Q143.85-52.88 146.26-50.54L146.26-50.54Q145.61-48.12 142.02-48.12L142.02-48.12L127.81-48.12L144.58-36.04Q144.07-35.08 142.97-35.08Q141.87-35.08 140.11-35.52L140.11-35.52Q137.33-34.13 133.15-32.41Q128.98-30.69 124.37-28.93Q119.75-27.17 115.80-25.49L115.80-25.49Q122.53-19.12 131.14-14.87Q139.75-10.62 149.41-8.72L149.41-8.72L149.27-6.88Q143.48-5.20 139.34 0.11Q135.21 5.42 133.67 13.62L133.67 13.62Q116.89 4.61 108.76-11.72L108.76-11.72Q102.54-7.54 92.76-1.94Q82.98 3.66 68.70 10.99L68.70 10.99Q67.31 14.21 64.23 14.72L64.23 14.72L54.13-9.30L69.29-10.33L69.29-48.12L59.99-48.12Q58.59-47.61 56.84-47.39L56.84-47.39Q55.81-30.47 54.05-19.19Q52.29-7.91 49.48-1.25Q46.66 5.42 42.48 8.57L42.48 8.57Q38.60 11.50 33.73 12.89Q28.86 14.28 21.90 14.28L21.90 14.28Q21.90 9.96 21.31 6.63Q20.73 3.30 18.90 1.32L18.90 1.32Q15.31-3.15 5.42-5.27L5.42-5.27L5.42-7.03Q8.42-6.81 12.12-6.59Q15.82-6.37 19.04-6.19Q22.27-6.01 23.88-6.01L23.88-6.01Q27.25-6.01 28.93-7.47L28.93-7.47Q34.86-12.08 37.35-50.68L37.35-50.68L25.78-50.68L24.90-42.63Q21.39-40.58 17.07-40.03Q12.74-39.48 4.61-40.80L4.61-40.80Q5.93-49.22 7.10-59.03Q8.28-68.85 9.12-78.00Q9.96-87.16 10.33-93.60L10.33-93.60L31.79-85.77L36.62-85.77L36.62-113.67L5.57-113.67ZM98.58-48.12L98.58-48.12L90.16-48.12L90.16-12.01L107.67-13.77Q104.52-20.65 102.32-29.19Q100.12-37.72 98.58-48.12ZM122.83-48.12L100.93-48.12Q103.05-42.19 106.27-37.10Q109.50-32.01 113.53-27.76L113.53-27.76Q116.02-32.15 118.58-37.83Q121.14-43.51 122.83-48.12L122.83-48.12ZM180.76-21.75L180.76-60.13L180.76-62.55Q174.68-59.40 167.72-56.73Q160.77-54.05 153.15-52.08L153.15-52.08L152.27-53.69Q162.16-58.96 170.36-65.95Q178.56-72.95 184.94-81.15L184.94-81.15Q182.01-80.35 178.56-81.04Q175.12-81.74 171.75-84.30L171.75-84.30Q171.97-89.58 170.10-94.67Q168.24-99.76 165.31-102.91L165.31-102.91L166.19-103.64Q179.22-104.08 185.56-101.18Q191.89-98.29 193.36-94.34L193.36-94.34Q198.05-103.05 200.98-112.65L200.98-112.65L170.07-112.65L168.75-116.82L200.39-116.82L211.67-127.81L230.42-111.77Q229.76-110.52 228.44-110.05Q227.12-109.57 224.56-109.20L224.56-109.20Q220.83-100.42 215.33-92.50Q209.84-84.59 202.51-77.86L202.51-77.86L224.27-77.86L234.01-90.60Q234.01-90.60 235.84-89.21Q237.67-87.82 240.49-85.58Q243.31-83.35 246.39-80.82Q249.46-78.30 252.03-76.03L252.03-76.03Q251.37-73.68 247.78-73.68L247.78-73.68L201.93-73.68L201.12-76.46Q197.97-73.68 194.49-71.12Q191.02-68.55 187.21-66.28L187.21-66.28L203.39-60.13L245.07-60.13L254.74-70.39L264.92-62.84Q252.10-73.97 243.16-89.61Q234.23-105.25 229.47-127.95L229.47-127.95L231.30-128.83Q233.79-121.66 237.52-115.54Q241.26-109.42 246.02-104.08L246.02-104.08Q249.61-109.28 252.98-115.10Q256.35-120.92 258.18-125.10L258.18-125.10L278.54-111.33Q277.95-110.30 276.71-109.83Q275.46-109.35 272.83-109.79L272.83-109.79Q268.21-107.30 262.06-104.81Q255.91-102.32 249.61-100.20L249.61-100.20Q255.76-94.04 263.38-88.92L263.38-88.92Q267.48-93.46 271.18-98.58Q274.88-103.71 276.93-107.37L276.93-107.37L297.00-93.31Q296.34-92.14 295.13-91.70Q293.92-91.26 291.28-91.77L291.28-91.77Q286.82-90.01 281.03-88.29Q275.24-86.57 269.24-85.18L269.24-85.18Q276.34-80.93 283.78-77.60Q291.21-74.27 298.68-71.70L298.68-71.70L298.17-69.87Q291.58-68.92 286.82-64.23Q282.06-59.55 279.42-51.93L279.42-51.93L274.07-55.52Q273.49-54.86 272.31-54.05Q271.14-53.25 269.09-52.81L269.09-52.81L269.09-28.64Q269.02-28.13 265.87-27.03Q262.72-25.93 258.44-25.05Q254.15-24.17 250.63-24.17L250.63-24.17L246.61-24.17L246.61-31.20L202.51-31.20L202.51-28.20Q202.51-27.39 200.28-26.11Q198.05-24.83 194.53-23.73L194.53-23.73Q204.57-22.05 209.88-18.64Q215.19-15.23 216.80-11.21Q218.41-7.18 217.16-3.59Q215.92 0 212.73 2.23Q209.55 4.47 205.22 4.28Q200.90 4.10 196.51 0.44L196.51 0.44Q196.51-5.64 194.49-11.76Q192.48-17.87 189.48-22.34L189.48-22.34Q188.09-22.05 186.66-21.90Q185.23-21.75 183.76-21.75L183.76-21.75L180.76-21.75ZM239.14-25.05L239.14-25.05L266.24-16.77Q265.80-15.45 264.48-14.65Q263.16-13.84 260.52-13.92L260.52-13.92Q255.83-10.11 249.06-4.76Q242.29 0.59 235.47 4.98L235.47 4.98L262.35 4.98L273.93-10.47Q273.93-10.47 276.01-8.79Q278.10-7.10 281.40-4.47Q284.69-1.83 288.24 1.17Q291.80 4.17 294.73 6.74L294.73 6.74Q294.07 9.16 290.26 9.16L290.26 9.16L158.72 9.16L157.47 4.98L232.18 4.98Q234.01-1.68 235.99-10.14Q237.96-18.60 239.14-25.05ZM202.51-55.96L202.51-35.38L246.61-35.38L246.61-55.96L202.51-55.96ZM313.04 12.74L303.59-7.98Q309.59-8.42 320.03-9.59Q330.47-10.77 343.65-12.45L343.65-12.45Q344.90-18.31 346.14-25.20Q347.39-32.08 348.27-37.50L348.27-37.50L371.85-31.05Q370.83-27.98 366.14-28.20L366.14-28.20Q362.99-25.20 358.74-21.09Q354.49-16.99 350.10-13.18L350.10-13.18L375.15-16.48Q379.10-27.76 380.20-40.03Q381.30-52.29 381.30-65.26L381.30-65.26L381.30-77.27Q380.64-75.44 377.71-75.44L377.71-75.44L304.98-75.44L303.74-79.61L357.42-79.61L362.55-86.28L359.40-86.13L356.10-86.13L356.10-89.72L325.34-89.72L325.34-85.77Q325.34-85.25 323.11-84.38Q320.87-83.50 317.54-82.76Q314.21-82.03 310.99-82.03L310.99-82.03L307.76-82.03L307.76-119.53L329.37-117.63Q329.30-116.46 328.45-115.61Q327.61-114.77 325.34-114.48L325.34-114.48L325.34-93.90L331.20-93.90L331.20-126.42L355.08-124.51Q354.93-123.05 353.94-122.13Q352.95-121.22 350.24-120.78L350.24-120.78L350.24-93.90L356.10-93.90L356.10-119.53L379.61-117.63Q379.39-116.38 378.52-115.43Q377.64-114.48 375.15-114.18L375.15-114.18L375.15-90.01Q375.15-89.58 373.72-88.92Q372.29-88.26 370.02-87.60L370.02-87.60Q372.44-85.69 375.59-83.13Q378.74-80.57 381.30-78.30L381.30-78.30L381.30-121.51L403.78-113.67L407.23-113.67L416.82-125.10L434.99-110.23Q434.18-109.35 432.90-108.62Q431.62-107.89 428.98-107.37L428.98-107.37L428.98-13.33Q428.98-10.62 430.37-10.62L430.37-10.62L430.96-10.62Q431.18-10.62 431.43-10.62Q431.69-10.62 431.98-10.62L431.98-10.62Q432.57-10.62 433.15-10.91Q433.74-11.21 434.40-12.45L434.40-12.45Q435.21-13.99 436.30-17.80Q437.40-21.61 438.57-26.33Q439.75-31.05 440.70-35.38L440.70-35.38L442.24-35.38L442.97-10.99Q445.97-9.16 446.92-7.32Q447.88-5.49 447.88-2.56L447.88-2.56Q447.88 2.93 443.23 6.12Q438.57 9.30 428.54 9.30L428.54 9.30L422.83 9.30Q416.89 9.30 414.00 7.76Q411.11 6.23 410.16 2.67Q409.20-0.88 409.20-6.88L409.20-6.88L409.20-109.50L400.78-109.50L400.78-65.41Q400.78-54.57 399.57-43.51Q398.36-32.45 394.19-21.97Q390.01-11.50 381.26-2.31Q372.51 6.88 357.42 14.14L357.42 14.14L356.10 13.04Q362.26 7.10 366.61 0.51Q370.97-6.08 373.83-13.04L373.83-13.04Q364.38-8.79 350.50-3.26Q336.62 2.27 317.29 9.16L317.29 9.16Q315.82 12.30 313.04 12.74L313.04 12.74ZM311.28-34.20L311.28-65.26L311.28-72.73L330.91-65.26L349.95-65.26L358.37-74.27L376.03-61.23Q375.51-60.42 374.16-59.62Q372.80-58.81 370.83-58.37L370.83-58.37L370.83-40.94Q370.75-40.43 367.97-39.40Q365.19-38.38 361.45-37.57Q357.71-36.77 354.79-36.77L354.79-36.77L351.27-36.77L351.27-41.53L330.18-41.53L330.18-39.77Q330.18-39.11 328.23-37.94Q326.29-36.77 323.36-35.82L323.36-35.82Q332.59-32.81 336.36-28.67Q340.14-24.54 339.95-20.62Q339.77-16.70 336.95-14.17Q334.13-11.65 330.03-11.68Q325.93-11.72 322.05-15.60L322.05-15.60Q322.49-20.65 321.50-25.67Q320.51-30.69 319.04-34.64L319.04-34.64Q316.55-34.20 313.77-34.20L313.77-34.20L311.28-34.20ZM330.18-45.78L351.27-45.78L351.27-61.08L330.18-61.08L330.18-45.78Z"/>
    </svg>
        