<?xml version="1.0" encoding="UTF-8" standalone="no"?>
        <svg 
    viewBox="10.3271484375 -87.01171875 448.681640625 56.689453125"
    width="438.3544921875"
    height="143.701171875"
   xmlns="http://www.w3.org/2000/svg"
   xmlns:svg="http://www.w3.org/2000/svg">
   <path d="M58.37-42.92L58.37-89.58L58.37-97.34L78.44-89.58L88.48-89.58L88.48-101.22L56.25-101.22Q52.22-94.41 47.02-86.50Q41.82-78.59 36.91-72.58L36.91-72.58Q46.00-66.87 51.27-58.89Q56.54-50.90 58.37-42.92L58.37-42.92ZM10.33 14.43L10.33-116.53L10.33-124.66L32.23-116.53L37.50-116.53L47.24-125.98L66.14-108.91Q64.45-106.79 59.40-106.79L59.40-106.79L58.67-105.47L88.48-105.47L88.48-126.93L114.33-124.37Q114.11-122.75 113.01-121.69Q111.91-120.63 108.76-120.12L108.76-120.12L108.76-105.47L118.95-105.47L129.27-119.53Q129.27-119.53 131.14-117.99Q133.01-116.46 135.90-114.00Q138.79-111.55 141.94-108.80Q145.09-106.05 147.58-103.64L147.58-103.64Q146.92-101.22 143.26-101.22L143.26-101.22L108.76-101.22L108.76-89.58L117.11-89.58L125.83-98.88L143.70-85.47Q143.04-84.74 141.72-83.94Q140.41-83.13 138.28-82.62L138.28-82.62L138.28-39.77Q138.21-39.26 135.50-38.16Q132.79-37.06 129.02-36.15Q125.24-35.23 122.09-35.23L122.09-35.23L118.65-35.23L118.65-43.07L109.94-43.07Q113.96-34.42 120.45-28.56Q126.93-22.71 134.40-19.04Q141.87-15.38 148.97-13.33L148.97-13.33L148.68-12.01Q142.82-10.18 138.87-4.76Q134.91 0.66 133.37 8.13L133.37 8.13Q126.78 2.05 122.06-4.91Q117.33-11.87 114.11-20.73Q110.89-29.59 108.76-41.53L108.76-41.53L108.76 7.03Q108.76 8.13 106.27 9.78Q103.78 11.43 100.01 12.78Q96.24 14.14 92.43 14.14L92.43 14.14L88.48 14.14L88.48-19.63Q79.83-10.84 68.33-3.99Q56.84 2.86 42.77 7.98L42.77 7.98L41.53 6.30Q55.52-2.71 65.59-15.78Q75.66-28.86 81.15-43.07L81.15-43.07L77.56-43.07L77.56-39.62Q77.56-38.67 75.11-37.24Q72.66-35.82 68.88-34.72Q65.11-33.62 61.08-33.62L61.08-33.62L59.25-33.62Q59.03-23.00 53.98-16.66Q48.93-10.33 36.47-10.18L36.47-10.18Q36.47-14.36 35.93-19.26Q35.38-24.17 34.50-26.07L34.50-26.07Q33.40-28.27 30.32-29.74L30.32-29.74L30.32 8.13Q30.32 8.86 28.34 10.36Q26.37 11.87 22.71 13.15Q19.04 14.43 13.92 14.43L13.92 14.43L10.33 14.43ZM88.48-47.24L88.48-64.53L77.56-64.53L77.56-47.24L88.48-47.24ZM118.65-64.53L108.76-64.53L108.76-47.24L118.65-47.24L118.65-64.53ZM77.56-68.70L88.48-68.70L88.48-85.33L77.56-85.33L77.56-68.70ZM108.76-85.33L108.76-68.70L118.65-68.70L118.65-85.33L108.76-85.33ZM38.82-112.35L30.32-112.35L30.32-32.23L35.23-32.23Q37.13-32.23 38.23-33.03L38.23-33.03Q40.80-34.64 40.80-40.65L40.80-40.65Q40.80-48.41 39.11-56.73Q37.43-65.04 33.18-72.14L33.18-72.14Q34.20-77.20 35.34-84.30Q36.47-91.41 37.43-98.88Q38.38-106.35 38.82-112.35L38.82-112.35ZM198.27-0.44L198.27-74.56L222.00-72.44Q221.92-71.19 221.01-70.28Q220.09-69.36 217.68-68.99L217.68-68.99L217.68-5.42Q217.68-4.61 215.19-3.44Q212.70-2.27 209.07-1.35Q205.44-0.44 201.93-0.44L201.93-0.44L198.27-0.44ZM179.88-91.63L179.88-91.63L204.57-82.18Q204.05-80.86 202.55-80.05Q201.05-79.25 198.49-79.47L198.49-79.47Q193.29-68.92 187.21-60.13L187.21-60.13L194.38-57.42Q193.73-55.52 189.77-54.57L189.77-54.57L189.77 8.86Q189.62 9.52 187.21 10.73Q184.79 11.94 181.16 12.93Q177.54 13.92 173.73 13.92L173.73 13.92L170.07 13.92L170.07-40.50Q166.63-37.21 162.93-34.39Q159.23-31.57 155.42-29.08L155.42-29.08L153.74-30.32Q158.79-37.65 163.73-47.57Q168.68-57.50 172.89-68.81Q177.10-80.13 179.88-91.63ZM235.03-91.19L235.03-91.19L261.62-83.57Q260.60-80.42 255.76-80.42L255.76-80.42Q252.61-72.80 248.88-66.14L248.88-66.14L268.65-66.14L278.39-79.03Q278.39-79.03 280.19-77.60Q281.98-76.17 284.77-73.94Q287.55-71.70 290.59-69.14Q293.63-66.58 296.12-64.38L296.12-64.38Q295.46-61.96 291.87-61.96L291.87-61.96L282.28-61.96Q280.37-49.66 276.20-39.18Q272.02-28.71 265.06-19.92L265.06-19.92Q271.66-15.89 279.86-13.00Q288.06-10.11 297.73-8.13L297.73-8.13L297.44-6.45Q290.04-3.96 286.16 1.21Q282.28 6.37 280.96 14.72L280.96 14.72Q271.36 10.99 264.26 5.49Q257.15 0 252.03-7.18L252.03-7.18Q242.21 0.44 228.70 5.97Q215.19 11.50 197.39 14.87L197.39 14.87L196.80 13.18Q213.65 6.81 225.33-1.68Q237.01-10.18 244.34-20.58L244.34-20.58Q241.63-26.51 239.58-33.25Q237.52-39.99 235.99-47.53L235.99-47.53Q232.25-43.29 228.11-39.55Q223.97-35.82 219.58-32.67L219.58-32.67L217.82-33.76Q221.56-40.94 224.93-50.32Q228.30-59.69 230.93-70.17Q233.57-80.64 235.03-91.19ZM238.77-50.98L238.77-50.98Q243.38-39.62 250.78-31.49L250.78-31.49Q254.08-38.45 256.05-46.03Q258.03-53.61 258.91-61.96L258.91-61.96L246.46-61.96Q244.63-59.03 242.72-56.32Q240.82-53.61 238.77-50.98ZM232.76-128.39L232.76-128.39L259.64-119.24Q258.40-116.02 253.49-116.24L253.49-116.24Q252.39-114.33 251.15-112.61Q249.90-110.89 248.73-109.20L248.73-109.20L269.24-109.20L278.98-121.66Q278.98-121.66 282.06-119.31Q285.13-116.97 289.27-113.64Q293.41-110.30 296.70-107.37L296.70-107.37Q296.26-105.03 292.53-105.03L292.53-105.03L263.38-105.03Q268.36-102.76 269.97-99.61Q271.58-96.46 270.70-93.46Q269.82-90.45 267.15-88.48Q264.48-86.50 260.78-86.43Q257.08-86.35 253.20-89.28L253.20-89.28Q252.98-93.38 251.44-97.63Q249.90-101.88 247.63-105.03L247.63-105.03L245.43-105.03Q239.79-98.51 233.24-93.53Q226.68-88.55 219.58-85.18L219.58-85.18L218.12-86.43Q222.80-94.41 226.68-105.03L226.68-105.03L202.95-105.03Q208.67-102.54 210.57-99.24Q212.48-95.95 211.56-92.83Q210.64-89.72 207.82-87.74Q205.00-85.77 201.23-85.88Q197.46-85.99 193.65-89.28L193.65-89.28Q193.80-93.38 192.55-97.56Q191.31-101.73 189.62-105.03L189.62-105.03L187.06-105.03Q180.18-95.80 171.94-89.06Q163.70-82.32 154.47-77.86L154.47-77.86L153.00-79.03Q159.74-87.82 165.86-101.00Q171.97-114.18 175.20-128.54L175.20-128.54L200.54-119.09Q199.51-115.94 194.38-116.38L194.38-116.38Q193.36-114.48 192.26-112.68Q191.16-110.89 190.06-109.20L190.06-109.20L206.25-109.20L214.97-121.22Q214.97-121.22 217.05-119.42Q219.14-117.63 222.22-114.95Q225.29-112.28 228.15-109.64L228.15-109.64Q229.61-114.18 230.82-118.95Q232.03-123.71 232.76-128.39ZM361.67-105.47L362.99-106.20Q372.14-104.08 377.05-100.74Q381.96-97.41 383.53-93.75Q385.11-90.09 384.19-86.90Q383.28-83.72 380.64-81.85Q378.00-79.98 374.49-80.16Q370.97-80.35 367.53-83.57L367.53-83.57Q367.60-89.28 365.81-95.21Q364.01-101.15 361.67-105.47L361.67-105.47ZM421.95-128.25L421.95-128.25L439.53-111.47Q438.13-110.45 435.61-110.34Q433.08-110.23 429.57-111.62L429.57-111.62L416.67-109.94L439.67-102.76Q439.23-101.37 437.84-100.60Q436.45-99.83 433.96-100.05L433.96-100.05Q430.00-95.65 424.15-89.94Q418.29-84.23 412.35-79.17L412.35-79.17L420.48-79.17L429.13-90.45Q429.13-90.45 431.87-88.33Q434.62-86.21 438.28-83.17Q441.94-80.13 444.87-77.42L444.87-77.42Q444.21-75 440.84-75L440.84-75L394.92-75Q394.26-67.16 393.16-59.84L393.16-59.84L418.95-59.84L428.69-72.14Q428.69-72.14 431.65-69.84Q434.62-67.53 438.72-64.27Q442.82-61.01 446.12-58.08L446.12-58.08Q445.68-55.66 441.87-55.66L441.87-55.66L392.58-55.66Q391.85-52.37 391.15-49.15Q390.45-45.92 389.58-42.77L389.58-42.77L413.82-42.77L424.07-52.51L440.84-37.94Q439.60-36.18 434.99-35.52L434.99-35.52Q429.05-22.41 419.53-12.74L419.53-12.74Q426.20-10.25 433.56-8.72Q440.92-7.18 448.68-6.15L448.68-6.15L448.68-4.32Q442.68-2.64 438.79 2.16Q434.91 6.96 433.23 14.43L433.23 14.43Q424.95 11.28 418.21 7.40Q411.47 3.52 406.05-1.83L406.05-1.83Q388.55 9.59 362.40 14.58L362.40 14.58L361.52 12.60Q373.10 8.35 382.25 2.42Q391.41-3.52 398.36-10.99L398.36-10.99Q391.48-21.24 387.89-37.06L387.89-37.06Q382.40-20.65 371.37-7.32Q360.35 6.01 341.09 15.16L341.09 15.16L340.06 13.62Q356.10-0.29 363.50-18.02Q370.90-35.74 373.02-55.66L373.02-55.66L357.42-55.66L356.25-59.84L373.54-59.84Q374.19-67.24 374.41-75L374.41-75L358.96-75L357.71-79.17L408.18-79.17Q410.52-86.21 412.79-94.78Q415.06-103.34 416.38-109.94L416.38-109.94Q410.30-109.28 403.64-108.80Q396.97-108.33 390.01-107.89L390.01-107.89Q399.39-104.59 403.31-100.27Q407.23-95.95 407.23-91.81Q407.23-87.67 404.55-84.92Q401.88-82.18 397.89-82.07Q393.90-81.96 390.01-85.77L390.01-85.77Q390.31-91.41 388.92-97.30Q387.52-103.20 385.47-107.52L385.47-107.52Q377.42-107.23 369.32-107.04Q361.23-106.86 353.69-106.93L353.69-106.93L353.39-109.20Q362.11-110.74 371.70-113.01Q381.30-115.28 390.64-117.88Q399.98-120.48 408.11-123.16Q416.24-125.83 421.95-128.25ZM405.47-20.07L405.47-20.07Q411.11-28.64 414.48-38.53L414.48-38.53L390.16-38.53Q392.87-32.59 396.75-28.09Q400.63-23.58 405.47-20.07ZM317.58-128.10L317.58-128.10L341.09-124.80Q340.80-123.34 339.55-122.24Q338.31-121.14 335.23-120.92L335.23-120.92Q334.79-116.16 333.95-109.24Q333.11-102.32 332.08-94.19L332.08-94.19L335.82-94.19L345.12-104.22L362.11-89.72Q361.01-87.45 356.54-86.87L356.54-86.87Q355.66-73.32 353.69-60.17Q351.71-47.02 346.95-34.94L346.95-34.94Q353.32-30.98 356.18-26.40Q359.03-21.83 359.14-17.65Q359.25-13.48 357.24-10.62Q355.22-7.76 351.64-7.07Q348.05-6.37 343.65-8.86L343.65-8.86Q342.11-13.70 338.82-19.04L338.82-19.04Q333.25-10.25 324.83-2.71Q316.41 4.83 304.32 10.77L304.32 10.77L303.00 9.16Q313.04 0.95 319.37-9.52Q325.71-20.00 329.52-31.93L329.52-31.93Q328.05-33.54 326.62-35.08Q325.20-36.62 323.73-37.94L323.73-37.94L322.19-29.74Q319.70-27.76 314.61-27.32Q309.52-26.88 303.44-28.34L303.44-28.34Q305.20-35.67 307.03-45.85Q308.86-56.03 310.62-67.46Q312.38-78.88 313.77-90.01L313.77-90.01L304.61-90.01L303.30-94.19L314.28-94.19Q315.60-104.44 316.48-113.34Q317.36-122.24 317.58-128.10ZM337.50-90.01L331.49-90.01Q330.03-78.44 328.20-66.03Q326.37-53.61 324.61-43.07L324.61-43.07Q326.66-42.63 328.49-42.15Q330.32-41.67 332.08-41.24L332.08-41.24Q334.79-52.73 335.93-65.08Q337.06-77.42 337.50-90.01L337.50-90.01Z"/>
    </svg>
        