<?xml version="1.0" encoding="UTF-8" standalone="no"?>
        <svg 
    viewBox="3.0029296875 -85.400390625 446.4111328125 57.12890625"
    width="443.408203125"
    height="142.529296875"
   xmlns="http://www.w3.org/2000/svg"
   xmlns:svg="http://www.w3.org/2000/svg">
   <path d="M28.05-90.01L28.05-128.10L54.57-125.54Q54.35-123.85 53.28-122.75Q52.22-121.66 49.07-121.22L49.07-121.22L49.07-90.89L57.42-102.91Q57.42-102.91 59.73-100.85Q62.04-98.80 65.30-95.84Q68.55-92.87 71.41-90.01L71.41-90.01L90.89-90.01L90.89-127.81L117.48-125.24Q117.26-123.71 116.16-122.53Q115.06-121.36 111.91-120.92L111.91-120.92L111.91-90.01L119.68-90.01L129.27-103.34Q129.27-103.34 131.03-101.88Q132.79-100.42 135.50-98.07Q138.21-95.73 141.14-93.13Q144.07-90.53 146.41-88.18L146.41-88.18Q145.75-85.77 142.24-85.77L142.24-85.77L115.21-85.77Q119.90-69.95 128.94-58.19Q137.99-46.44 148.83-40.80L148.83-40.80L148.83-38.96Q141.72-33.62 138.21-26.66Q134.69-19.70 133.67-10.99L133.67-10.99Q127.15-19.12 122.94-31.16Q118.73-43.21 116.24-57.31Q113.75-71.41 112.35-85.77L112.35-85.77L111.91-85.77L111.91 6.59Q111.91 7.62 109.28 9.38Q106.64 11.13 102.76 12.52Q98.88 13.92 94.92 13.92L94.92 13.92L90.89 13.92L90.89-43.80Q77.05-23.80 54.79-9.74L54.79-9.74L53.10-11.28Q61.96-20.80 68.63-32.96Q75.29-45.12 79.87-58.63Q84.45-72.14 87.01-85.77L87.01-85.77L71.41-85.77L71.26-86.28Q70.39-85.77 69.14-85.77L69.14-85.77L49.07-85.77L49.07-77.86Q59.03-74.63 64.38-70.31Q69.73-65.99 71.37-61.49Q73.02-56.98 71.89-53.17Q70.75-49.37 67.79-47.20Q64.82-45.04 60.90-45.41Q56.98-45.78 53.10-49.66L53.10-49.66Q53.54-55.74 52.29-61.96Q51.05-68.19 49.07-73.54L49.07-73.54L49.07 8.28Q49.07 9.08 46.51 10.47Q43.95 11.87 40.10 13.00Q36.25 14.14 32.23 14.14L32.23 14.14L28.05 14.14L28.05-43.07Q23.22-36.84 17.36-31.27Q11.50-25.71 4.61-20.87L4.61-20.87L3.00-22.34Q9.16-30.69 13.81-41.05Q18.46-51.42 21.68-62.88Q24.90-74.34 26.88-85.77L26.88-85.77L6.59-85.77L5.42-90.01L28.05-90.01ZM198.63-65.26L197.39-69.43L230.57-69.43L230.57-98.07L204.42-98.07L203.25-102.32L230.57-102.32L230.57-127.95L257.37-125.68Q257.15-124.37 256.24-123.38Q255.32-122.39 252.61-121.95L252.61-121.95L252.61-102.32L260.38-102.32L271.07-116.97Q271.07-116.97 273.01-115.36Q274.95-113.75 277.92-111.22Q280.88-108.69 284.11-105.83Q287.33-102.98 289.97-100.49L289.97-100.49Q289.31-98.07 285.72-98.07L285.72-98.07L252.61-98.07L252.61-69.43L265.80-69.43L276.64-84.30Q276.64-84.30 278.58-82.69Q280.52-81.08 283.56-78.52Q286.60-75.95 289.89-73.06Q293.19-70.17 295.83-67.68L295.83-67.68Q295.61-66.43 294.40-65.84Q293.19-65.26 291.58-65.26L291.58-65.26L198.63-65.26ZM230.57-36.62L230.57-64.67L257.37-62.40Q257.15-60.94 256.24-59.95Q255.32-58.96 252.61-58.52L252.61-58.52L252.61-36.62L261.62-36.62L272.53-51.64Q272.53-51.64 274.51-49.99Q276.49-48.34 279.57-45.74Q282.64-43.14 285.94-40.25Q289.23-37.35 291.87-34.79L291.87-34.79Q291.21-32.37 287.55-32.37L287.55-32.37L252.61-32.37L252.61 3.44L266.38 3.44L277.81-12.30Q277.81-12.30 279.86-10.58Q281.91-8.86 285.10-6.15Q288.28-3.44 291.76-0.40Q295.24 2.64 298.02 5.27L298.02 5.27Q297.36 7.62 293.70 7.62L293.70 7.62L197.09 7.62L195.92 3.44L230.57 3.44L230.57-32.37L202.22-32.37L200.98-36.62L230.57-36.62ZM181.35-128.39L181.35-128.39L210.42-119.53Q209.40-116.16 204.42-116.38L204.42-116.38Q197.68-99.76 189.62-85.77L189.62-85.77L197.68-82.76Q197.39-81.67 196.33-80.97Q195.26-80.27 193.07-79.83L193.07-79.83L193.07 7.47Q192.92 8.35 190.28 9.81Q187.65 11.28 183.62 12.45Q179.59 13.62 175.34 13.62L175.34 13.62L171.31 13.62L171.31-60.57Q162.74-50.90 153.30-43.65L153.30-43.65L151.68-44.68Q157.25-54.93 162.93-68.66Q168.60-82.40 173.44-97.81Q178.27-113.23 181.35-128.39ZM306.15 9.74L304.98 5.57L416.09 5.57L426.42-8.13Q426.42-8.13 428.36-6.63Q430.30-5.13 433.26-2.75Q436.23-0.37 439.45 2.31Q442.68 4.98 445.39 7.32L445.39 7.32Q444.73 9.74 440.99 9.74L440.99 9.74L306.15 9.74ZM333.62-64.01L332.37-68.26L393.02-68.26L402.03-79.17Q402.03-79.17 404.81-77.12Q407.59-75.07 411.47-72.11Q415.36-69.14 418.51-66.43L418.51-66.43Q417.85-64.01 414.33-64.01L414.33-64.01L333.62-64.01ZM335.82 1.32L335.82-51.64L335.82-59.99L357.93-51.64L391.19-51.64L400.49-61.52L419.38-47.39Q418.73-46.58 417.44-45.70Q416.16-44.82 413.96-44.38L413.96-44.38L413.96-7.32Q413.89-6.67 411.04-5.31Q408.18-3.96 404.11-2.82Q400.05-1.68 396.46-1.68L396.46-1.68L392.72-1.68L392.72-8.72L356.84-8.72L356.84-5.13Q356.84-4.17 354.16-2.64Q351.49-1.10 347.35 0.11Q343.21 1.32 338.82 1.32L338.82 1.32L335.82 1.32ZM356.84-28.34L356.84-12.89L392.72-12.89L392.72-28.34L356.84-28.34ZM356.84-47.39L356.84-32.52L392.72-32.52L392.72-47.39L356.84-47.39ZM324.02-92.72L324.02-92.72L325.93-92.72Q327.10-90.31 327.83-88.07Q328.56-85.84 329.08-83.72L329.08-83.72L363.57-83.72L363.57-100.63L387.74-98.73L387.74-106.20L360.57-106.20L360.57-96.02Q360.57-94.78 355.41-93.20Q350.24-91.63 342.92-91.63L342.92-91.63L339.48-91.63L339.48-106.20L305.13-106.20L304.03-110.38L339.48-110.38L339.48-128.39L365.84-126.12Q365.77-124.66 364.64-123.67Q363.50-122.68 360.57-122.24L360.57-122.24L360.57-110.38L387.74-110.38L387.74-128.39L414.62-126.27Q414.48-124.73 413.38-123.71Q412.28-122.68 409.35-122.24L409.35-122.24L409.35-110.38L418.36-110.38L428.25-123.63Q428.25-123.63 430.04-122.17Q431.84-120.70 434.62-118.40Q437.40-116.09 440.41-113.49Q443.41-110.89 445.83-108.62L445.83-108.62Q445.17-106.20 441.58-106.20L441.58-106.20L409.35-106.20L409.35-96.75Q409.35-95.51 404.04-94.04Q398.73-92.58 391.19-92.58L391.19-92.58L387.74-92.58L387.74-96.31Q386.94-95.51 384.89-95.21L384.89-95.21L384.89-83.72L418.80-83.72L428.83-93.90L446.41-77.42Q444.87-75.66 440.55-75.44L440.55-75.44Q436.82-72.44 431.18-68.92Q425.54-65.41 420.63-63.13L420.63-63.13L419.38-64.01Q419.75-67.31 420.04-71.56Q420.34-75.81 420.48-79.47L420.48-79.47L329.88-79.47Q330.83-71.48 328.38-66.03Q325.93-60.57 321.90-58.37L321.90-58.37Q317.87-56.18 313.26-57.60Q308.64-59.03 307.18-63.72L307.18-63.72Q306.08-68.12 308.31-71.37Q310.55-74.63 314.43-76.32L314.43-76.32Q318.09-78.30 321.28-82.80Q324.46-87.30 324.02-92.72Z"/>
    </svg>
        