<?xml version="1.0" encoding="UTF-8" standalone="no"?>
        <svg 
    viewBox="4.1748046875 -86.572265625 449.560546875 56.8359375"
    width="445.3857421875"
    height="143.408203125"
   xmlns="http://www.w3.org/2000/svg"
   xmlns:svg="http://www.w3.org/2000/svg">
   <path d="M5.57-113.67L4.17-117.92L35.08-117.92L43.80-127.51L62.11-113.67Q61.45-112.79 59.95-111.91Q58.45-111.04 56.10-110.52L56.10-110.52L56.10-78.59Q56.03-78.08 53.28-77.01Q50.54-75.95 46.80-75.11Q43.07-74.27 39.92-74.27L39.92-74.27L36.62-74.27L36.62-81.59L28.49-81.59Q28.20-76.32 27.61-69.10Q27.03-61.89 26.22-54.93L26.22-54.93L36.04-54.93L46.07-64.53L60.42-52.37L69.43-52.37L69.43-123.78L92.29-115.36L111.77-115.36L121.80-128.25Q121.80-128.25 123.67-126.82Q125.54-125.39 128.43-123.16Q131.32-120.92 134.51-118.36Q137.70-115.80 140.26-113.53L140.26-113.53Q139.60-111.18 136.08-111.18L136.08-111.18L90.31-111.18L90.31-94.34L111.47-94.34L120.12-105.47Q120.12-105.47 122.86-103.34Q125.61-101.22 129.35-98.22Q133.08-95.21 136.08-92.58L136.08-92.58Q135.42-90.16 131.98-90.16L131.98-90.16L90.31-90.16L90.31-73.83L110.82-73.83L119.97-85.47Q119.97-85.47 122.83-83.28Q125.68-81.08 129.57-77.93Q133.45-74.78 136.52-72.00L136.52-72.00Q136.08-69.58 132.42-69.58L132.42-69.58L90.31-69.58L90.31-52.37L118.95-52.37L128.69-65.55Q128.69-65.55 130.48-64.09Q132.28-62.62 135.06-60.35Q137.84-58.08 140.84-55.48Q143.85-52.88 146.26-50.54L146.26-50.54Q145.61-48.12 142.02-48.12L142.02-48.12L127.81-48.12L144.58-36.04Q144.07-35.08 142.97-35.08Q141.87-35.08 140.11-35.52L140.11-35.52Q137.33-34.13 133.15-32.41Q128.98-30.69 124.37-28.93Q119.75-27.17 115.80-25.49L115.80-25.49Q122.53-19.12 131.14-14.87Q139.75-10.62 149.41-8.72L149.41-8.72L149.27-6.88Q143.48-5.20 139.34 0.11Q135.21 5.42 133.67 13.62L133.67 13.62Q116.89 4.61 108.76-11.72L108.76-11.72Q102.54-7.54 92.76-1.94Q82.98 3.66 68.70 10.99L68.70 10.99Q67.31 14.21 64.23 14.72L64.23 14.72L54.13-9.30L69.29-10.33L69.29-48.12L59.99-48.12Q58.59-47.61 56.84-47.39L56.84-47.39Q55.81-30.47 54.05-19.19Q52.29-7.91 49.48-1.25Q46.66 5.42 42.48 8.57L42.48 8.57Q38.60 11.50 33.73 12.89Q28.86 14.28 21.90 14.28L21.90 14.28Q21.90 9.96 21.31 6.63Q20.73 3.30 18.90 1.32L18.90 1.32Q15.31-3.15 5.42-5.27L5.42-5.27L5.42-7.03Q8.42-6.81 12.12-6.59Q15.82-6.37 19.04-6.19Q22.27-6.01 23.88-6.01L23.88-6.01Q27.25-6.01 28.93-7.47L28.93-7.47Q34.86-12.08 37.35-50.68L37.35-50.68L25.78-50.68L24.90-42.63Q21.39-40.58 17.07-40.03Q12.74-39.48 4.61-40.80L4.61-40.80Q5.93-49.22 7.10-59.03Q8.28-68.85 9.12-78.00Q9.96-87.16 10.33-93.60L10.33-93.60L31.79-85.77L36.62-85.77L36.62-113.67L5.57-113.67ZM98.58-48.12L98.58-48.12L90.16-48.12L90.16-12.01L107.67-13.77Q104.52-20.65 102.32-29.19Q100.12-37.72 98.58-48.12ZM122.83-48.12L100.93-48.12Q103.05-42.19 106.27-37.10Q109.50-32.01 113.53-27.76L113.53-27.76Q116.02-32.15 118.58-37.83Q121.14-43.51 122.83-48.12L122.83-48.12ZM198.27-0.44L198.27-74.56L222.00-72.44Q221.92-71.19 221.01-70.28Q220.09-69.36 217.68-68.99L217.68-68.99L217.68-5.42Q217.68-4.61 215.19-3.44Q212.70-2.27 209.07-1.35Q205.44-0.44 201.93-0.44L201.93-0.44L198.27-0.44ZM179.88-91.63L179.88-91.63L204.57-82.18Q204.05-80.86 202.55-80.05Q201.05-79.25 198.49-79.47L198.49-79.47Q193.29-68.92 187.21-60.13L187.21-60.13L194.38-57.42Q193.73-55.52 189.77-54.57L189.77-54.57L189.77 8.86Q189.62 9.52 187.21 10.73Q184.79 11.94 181.16 12.93Q177.54 13.92 173.73 13.92L173.73 13.92L170.07 13.92L170.07-40.50Q166.63-37.21 162.93-34.39Q159.23-31.57 155.42-29.08L155.42-29.08L153.74-30.32Q158.79-37.65 163.73-47.57Q168.68-57.50 172.89-68.81Q177.10-80.13 179.88-91.63ZM235.03-91.19L235.03-91.19L261.62-83.57Q260.60-80.42 255.76-80.42L255.76-80.42Q252.61-72.80 248.88-66.14L248.88-66.14L268.65-66.14L278.39-79.03Q278.39-79.03 280.19-77.60Q281.98-76.17 284.77-73.94Q287.55-71.70 290.59-69.14Q293.63-66.58 296.12-64.38L296.12-64.38Q295.46-61.96 291.87-61.96L291.87-61.96L282.28-61.96Q280.37-49.66 276.20-39.18Q272.02-28.71 265.06-19.92L265.06-19.92Q271.66-15.89 279.86-13.00Q288.06-10.11 297.73-8.13L297.73-8.13L297.44-6.45Q290.04-3.96 286.16 1.21Q282.28 6.37 280.96 14.72L280.96 14.72Q271.36 10.99 264.26 5.49Q257.15 0 252.03-7.18L252.03-7.18Q242.21 0.44 228.70 5.97Q215.19 11.50 197.39 14.87L197.39 14.87L196.80 13.18Q213.65 6.81 225.33-1.68Q237.01-10.18 244.34-20.58L244.34-20.58Q241.63-26.51 239.58-33.25Q237.52-39.99 235.99-47.53L235.99-47.53Q232.25-43.29 228.11-39.55Q223.97-35.82 219.58-32.67L219.58-32.67L217.82-33.76Q221.56-40.94 224.93-50.32Q228.30-59.69 230.93-70.17Q233.57-80.64 235.03-91.19ZM238.77-50.98L238.77-50.98Q243.38-39.62 250.78-31.49L250.78-31.49Q254.08-38.45 256.05-46.03Q258.03-53.61 258.91-61.96L258.91-61.96L246.46-61.96Q244.63-59.03 242.72-56.32Q240.82-53.61 238.77-50.98ZM232.76-128.39L232.76-128.39L259.64-119.24Q258.40-116.02 253.49-116.24L253.49-116.24Q252.39-114.33 251.15-112.61Q249.90-110.89 248.73-109.20L248.73-109.20L269.24-109.20L278.98-121.66Q278.98-121.66 282.06-119.31Q285.13-116.97 289.27-113.64Q293.41-110.30 296.70-107.37L296.70-107.37Q296.26-105.03 292.53-105.03L292.53-105.03L263.38-105.03Q268.36-102.76 269.97-99.61Q271.58-96.46 270.70-93.46Q269.82-90.45 267.15-88.48Q264.48-86.50 260.78-86.43Q257.08-86.35 253.20-89.28L253.20-89.28Q252.98-93.38 251.44-97.63Q249.90-101.88 247.63-105.03L247.63-105.03L245.43-105.03Q239.79-98.51 233.24-93.53Q226.68-88.55 219.58-85.18L219.58-85.18L218.12-86.43Q222.80-94.41 226.68-105.03L226.68-105.03L202.95-105.03Q208.67-102.54 210.57-99.24Q212.48-95.95 211.56-92.83Q210.64-89.72 207.82-87.74Q205.00-85.77 201.23-85.88Q197.46-85.99 193.65-89.28L193.65-89.28Q193.80-93.38 192.55-97.56Q191.31-101.73 189.62-105.03L189.62-105.03L187.06-105.03Q180.18-95.80 171.94-89.06Q163.70-82.32 154.47-77.86L154.47-77.86L153.00-79.03Q159.74-87.82 165.86-101.00Q171.97-114.18 175.20-128.54L175.20-128.54L200.54-119.09Q199.51-115.94 194.38-116.38L194.38-116.38Q193.36-114.48 192.26-112.68Q191.16-110.89 190.06-109.20L190.06-109.20L206.25-109.20L214.97-121.22Q214.97-121.22 217.05-119.42Q219.14-117.63 222.22-114.95Q225.29-112.28 228.15-109.64L228.15-109.64Q229.61-114.18 230.82-118.95Q232.03-123.71 232.76-128.39ZM346.51 7.98L345.26 3.74L419.24 3.74L430.08-9.74Q430.08-9.74 432.02-8.28Q433.96-6.81 437.04-4.47Q440.11-2.12 443.44 0.55Q446.78 3.22 449.56 5.57L449.56 5.57Q448.90 7.98 445.17 7.98L445.17 7.98L346.51 7.98ZM336.47-107.23L327.76-107.23L327.76-69.29L336.47-69.29L336.47-107.23ZM366.87-116.97L366.87-116.97L368.99-117.11Q370.46-114.33 371.41-111.73Q372.36-109.13 372.88-106.79L372.88-106.79L387.89-106.79L387.89-127.66L414.33-125.68Q414.11-124.22 413.16-123.23Q412.21-122.24 409.50-121.80L409.50-121.80L409.50-106.79L424.07-106.79L433.23-115.94L448.97-100.78Q447.58-99.17 443.26-99.02L443.26-99.02Q440.70-97.34 437.11-95.25Q433.52-93.16 430.08-91.33L430.08-91.33L438.57-84.59Q437.92-82.18 434.40-82.18L434.40-82.18L366.87-82.18L365.70-86.13Q362.92-85.40 359.95-86.46Q356.98-87.52 355.52-90.45L355.52-90.45L355.52-15.89Q355.44-15.23 352.84-13.95Q350.24-12.67 346.58-11.57Q342.92-10.47 339.62-10.47L339.62-10.47L336.47-10.47L336.47-21.75L327.76-21.75L327.76-9.59Q327.76-8.57 323.58-6.15Q319.41-3.74 312.01-3.74L312.01-3.74L308.57-3.74L308.57-119.24L329.74-111.47L334.94-111.47L343.80-121.07L361.23-107.37Q359.62-105.25 355.52-104.37L355.52-104.37L355.52-98.22Q356.40-100.05 358.01-101.40Q359.62-102.76 361.67-103.64L361.67-103.64Q364.16-105.47 366.03-109.28Q367.90-113.09 366.87-116.97ZM336.47-65.11L327.76-65.11L327.76-25.93L336.47-25.93L336.47-65.11ZM420.26-98.58L424.51-95.43L425.39-102.61L373.68-102.61Q374.19-96.83 372.55-92.76Q370.90-88.70 367.97-87.01L367.97-87.01L366.58-86.43L410.23-86.43L420.26-98.58ZM411.18-45.26L411.18-64.38L385.18-64.38L385.18-45.26L411.18-45.26ZM365.41-5.27L365.41-68.55L365.41-76.68L385.99-68.55L409.64-68.55L418.51-78.15L436.67-64.38Q436.01-63.57 434.69-62.77Q433.37-61.96 431.25-61.67L431.25-61.67L431.25-12.74Q431.18-12.16 428.39-10.99Q425.61-9.81 421.77-8.90Q417.92-7.98 414.62-7.98L414.62-7.98L411.18-7.98L411.18-17.43L385.18-17.43L385.18-11.57Q385.18-10.62 382.69-9.12Q380.20-7.62 376.32-6.45Q372.44-5.27 368.26-5.27L368.26-5.27L365.41-5.27ZM411.18-41.09L385.18-41.09L385.18-21.61L411.18-21.61L411.18-41.09Z"/>
    </svg>
        