<?xml version="1.0" encoding="UTF-8" standalone="no"?>
        <svg 
    viewBox="3.1494140625 -86.2060546875 446.7041015625 57.0556640625"
    width="443.5546875"
    height="143.26171875"
   xmlns="http://www.w3.org/2000/svg"
   xmlns:svg="http://www.w3.org/2000/svg">
   <path d="M80.42-4.83L80.42-71.56L80.42-76.83Q79.61-75.59 77.27-75.59L77.27-75.59L4.32-75.59L3.15-79.83L27.76-79.83Q23.51-80.05 20.07-83.72L20.07-83.72Q20.80-89.21 19.59-95.03Q18.38-100.85 16.48-105.18L16.48-105.18L6.01-105.18L4.83-109.35L29.08-109.35L29.08-128.25L54.42-126.27Q54.35-124.80 53.36-123.89Q52.37-122.97 49.66-122.39L49.66-122.39L49.66-109.35L52.22-109.35L61.38-121.95Q61.38-121.95 64.20-119.57Q67.02-117.19 70.86-113.82Q74.71-110.45 77.71-107.52L77.71-107.52Q77.05-105.18 73.68-105.18L73.68-105.18L51.64-105.18L70.39-100.78Q70.02-99.46 68.70-98.55Q67.38-97.63 64.82-97.63L64.82-97.63Q61.67-93.82 57.13-88.99Q52.59-84.16 47.83-79.83L47.83-79.83L56.10-79.83L65.11-92.07Q65.11-92.07 67.68-89.94Q70.24-87.82 73.83-84.74Q77.42-81.67 80.42-78.88L80.42-78.88L80.42-128.25L106.64-126.12Q106.57-124.58 105.47-123.49Q104.37-122.39 101.22-121.95L101.22-121.95L101.22-106.93L116.38-106.93L126.42-120.92Q126.42-120.92 128.28-119.38Q130.15-117.85 133.04-115.39Q135.94-112.94 139.09-110.23Q142.24-107.52 144.73-105.18L144.73-105.18Q144.07-102.76 140.41-102.76L140.41-102.76L101.22-102.76L101.22-91.48L116.53-91.48L125.10-100.93L143.55-87.30Q142.90-86.43 141.39-85.51Q139.89-84.59 137.55-84.16L137.55-84.16L137.55-66.14Q137.40-65.70 134.11-64.64Q130.81-63.57 126.93-62.99L126.93-62.99Q129.35-61.08 133.12-58.01Q136.89-54.93 139.97-52.22L139.97-52.22Q139.31-49.80 135.86-49.80L135.86-49.80L100.63-49.80L100.63-38.53L115.06-38.53L123.12-48.93Q123.12-48.93 125.68-46.95Q128.25-44.97 131.73-42.15Q135.21-39.33 137.99-36.77L137.99-36.77Q137.77-35.52 136.67-34.94Q135.57-34.35 134.11-34.35L134.11-34.35L100.63-34.35L100.63-22.49L117.92-22.49L126.64-33.62Q126.64-33.62 129.35-31.49Q132.06-29.37 135.83-26.37Q139.60-23.36 142.68-20.73L142.68-20.73Q141.87-18.46 139.23-18.46L139.23-18.46L139.97-8.13Q143.99-6.45 145.50-4.50Q147.00-2.56 147.00 0.15L147.00 0.15Q147.00 4.25 144.07 7.03Q141.14 9.81 134.14 11.21Q127.15 12.60 114.92 12.60L114.92 12.60L100.78 12.60Q92.65 12.60 88.22 11.13Q83.79 9.67 82.10 5.90Q80.42 2.12 80.42-4.83L80.42-4.83ZM46.95-105.18L19.78-105.18Q29.22-102.03 33.29-97.85Q37.35-93.68 37.54-89.65Q37.72-85.62 35.27-82.84Q32.81-80.05 29.08-79.83L29.08-79.83L43.51-79.83Q44.60-85.55 45.56-92.54Q46.51-99.54 46.95-105.18L46.95-105.18ZM118.07-71.56L118.07-87.30L101.22-87.30L101.22-84.59Q101.22-83.86 98.55-82.69Q95.87-81.52 91.77-80.57Q87.67-79.61 83.57-79.61L83.57-79.61L80.86-79.61L102.76-71.56L118.07-71.56ZM118.07-62.40L118.07-67.38L100.63-67.38L100.63-53.98L115.80-53.98L122.39-62.40L121.51-62.40L118.07-62.40ZM48.78-28.64L48.78-42.48L31.35-42.48L31.35-28.64L48.78-28.64ZM31.35-46.66L48.78-46.66L48.78-59.84L31.35-59.84L31.35-46.66ZM11.72 13.77L11.72-64.01L11.72-72.14L32.08-64.01L47.24-64.01L56.25-74.27L75.29-59.69Q74.63-58.81 73.13-57.90Q71.63-56.98 69.29-56.54L69.29-56.54L69.29-6.59Q69.29-0.29 67.75 4.14Q66.21 8.57 61.23 11.13Q56.25 13.70 46.07 14.58L46.07 14.58Q45.92 10.03 45.48 6.77Q45.04 3.52 43.80 1.32L43.80 1.32Q42.55-0.66 40.65-2.20Q38.75-3.74 34.35-4.61L34.35-4.61L34.35-6.45Q34.35-6.45 36.73-6.30Q39.11-6.15 41.93-6.01Q44.75-5.86 46.22-5.86L46.22-5.86Q47.75-5.86 48.27-6.59Q48.78-7.32 48.78-8.57L48.78-8.57L48.78-24.46L31.35-24.46L31.35 7.18Q31.35 8.28 28.93 9.81Q26.51 11.35 22.71 12.56Q18.90 13.77 14.72 13.77L14.72 13.77L11.72 13.77ZM137.40-18.31L137.40-18.31L100.63-18.31L100.63-10.03Q100.63-8.13 101.59-7.43Q102.54-6.74 105.62-6.74L105.62-6.74L117.33-6.74Q119.90-6.74 122.42-6.77Q124.95-6.81 126.42-6.88L126.42-6.88Q127.81-6.88 129.02-7.18Q130.22-7.47 131.10-8.28L131.10-8.28Q132.35-9.23 134.03-11.98Q135.72-14.72 137.40-18.31ZM197.24-76.68L197.24-117.77L197.24-118.07L195.48-117.77Q192.85-109.79 189.99-102.28Q187.13-94.78 183.91-87.89L183.91-87.89L189.48-85.77Q188.96-84.81 187.94-84.05Q186.91-83.28 184.64-82.98L184.64-82.98L184.64 8.86Q184.57 9.52 182.15 10.80Q179.74 12.08 176.11 13.18Q172.49 14.28 168.75 14.28L168.75 14.28L165.16 14.28L165.16-56.84Q162.67-53.69 160.07-50.68Q157.47-47.68 154.61-44.97L154.61-44.97L152.86-46.07Q156.96-56.54 160.95-70.31Q164.94-84.08 168.20-99.17Q171.46-114.26 173.36-128.69L173.36-128.69L197.24-122.24L197.24-123.63L218.26-116.24L264.33-116.24L273.78-127.22L291.87-111.91Q290.19-109.94 285.13-108.91L285.13-108.91Q284.40-100.85 284.03-90.86Q283.67-80.86 283.70-70.35Q283.74-59.84 284.18-49.99Q284.62-40.14 285.53-32.30Q286.45-24.46 287.84-19.92L287.84-19.92Q288.28-18.24 288.90-18.31Q289.53-18.38 290.11-19.92L290.11-19.92Q291.43-23.80 292.79-28.45Q294.14-33.11 295.02-37.06L295.02-37.06L296.56-36.77L294.43-6.88Q299.19 10.99 292.38 13.48L292.38 13.48Q287.62 15.16 283.78 13.26Q279.93 11.35 277.15 7.36Q274.37 3.37 272.83-1.17L272.83-1.17Q270.26-8.57 268.76-19.04Q267.26-29.52 266.53-42.08Q265.80-54.64 265.65-68.41L265.65-68.41Q264.55-67.53 263.09-67.38L263.09-67.38L263.09-26.51Q263.09-21.09 262.32-17.14Q261.55-13.18 258.80-10.88Q256.05-8.57 250.20-7.98L250.20-7.98Q250.20-11.43 249.94-14.58Q249.68-17.72 249.02-19.63L249.02-19.63Q248.14-21.75 246.61-23.07L246.61-23.07L246.61 5.86Q246.46 6.52 243.64 8.06Q240.82 9.59 235.99 9.59L235.99 9.59L233.72 9.59L233.72-67.97L229.03-67.97L229.03-10.62Q229.03-9.67 225.77-8.06Q222.51-6.45 218.55-6.45L218.55-6.45L216.58-6.45L216.58-77.71L229.61-72.14L233.72-72.14L233.72-89.28L216.43-89.28L215.41-93.02L215.41-76.83Q215.41-66.36 214.67-54.38Q213.94-42.41 211.12-30.21Q208.30-18.02 202.11-6.63Q195.92 4.76 185.08 14.14L185.08 14.14L183.47 13.04Q189.99-0.29 192.88-15.53Q195.78-30.76 196.51-46.40Q197.24-62.04 197.24-76.68L197.24-76.68ZM246.61-67.97L246.61-26.51L249.32-26.37Q250.93-26.37 250.93-28.64L250.93-28.64L250.93-67.97L246.61-67.97ZM254.88-77.71L265.65-69.87L265.65-90.16Q264.77-89.28 262.79-89.28L262.79-89.28L246.61-89.28L246.61-72.14L249.90-72.14L254.88-77.71ZM243.60-93.46L251.88-104.37Q251.88-104.37 254.15-102.50Q256.42-100.63 259.64-97.89Q262.87-95.14 265.65-92.58L265.65-92.58L265.94-112.06L215.41-112.06L215.41-93.46L243.60-93.46ZM371.70-4.47L359.99-25.34Q364.60-25.93 372.69-27.32Q380.79-28.71 390.93-30.58Q401.07-32.45 411.77-34.64L411.77-34.64L412.06-33.03Q406.57-28.71 397.67-22.60Q388.77-16.48 375.59-8.42L375.59-8.42Q374.63-5.20 371.70-4.47L371.70-4.47ZM367.68-49.66L386.87-49.80L395.73-61.08Q395.73-61.08 398.44-58.92Q401.15-56.76 404.88-53.72Q408.62-50.68 411.62-47.97L411.62-47.97Q410.96-45.63 407.52-45.63L407.52-45.63L368.85-45.63L367.68-49.66ZM382.76-128.39L382.76-128.39L409.50-118.80Q408.25-115.50 403.34-115.94L403.34-115.94Q402.25-114.18 401.07-112.46Q399.90-110.74 398.73-109.20L398.73-109.20L419.24-109.20L428.98-121.66Q428.98-121.66 432.06-119.31Q435.13-116.97 439.27-113.64Q443.41-110.30 446.70-107.37L446.70-107.37Q446.26-105.03 442.53-105.03L442.53-105.03L412.50-105.03Q418.29-102.61 420.41-99.21Q422.53-95.80 421.84-92.43Q421.14-89.06 418.51-86.79Q415.87-84.52 412.02-84.38Q408.18-84.23 404.08-87.30L404.08-87.30Q403.86-91.92 401.99-96.64Q400.12-101.37 397.49-105.03L397.49-105.03L395.43-105.03Q386.57-94.78 375.59-88.18L375.59-88.18L397.78-82.03Q397.34-80.71 395.91-79.72Q394.48-78.74 391.77-78.74L391.77-78.74Q390.82-76.98 389.76-75.15Q388.70-73.32 387.45-71.56L387.45-71.56L415.50-71.56L426.27-82.18L444.43-66.58Q443.55-65.55 441.98-64.78Q440.41-64.01 437.84-63.57L437.84-63.57Q437.04-41.75 435.53-27.36Q434.03-12.96 431.32-4.65Q428.61 3.66 424.22 7.32L424.22 7.32Q420.04 10.99 414.77 12.60Q409.50 14.21 401.22 14.14L401.22 14.14Q401.22 9.38 400.49 5.75Q399.76 2.12 397.63 0L397.63 0Q392.94-4.98 381.45-7.47L381.45-7.47L381.45-9.16Q385.18-8.86 389.61-8.57Q394.04-8.28 397.85-8.13Q401.66-7.98 403.49-7.98L403.49-7.98Q406.86-7.98 408.76-9.59L408.76-9.59Q412.21-12.38 414.11-27.10Q416.02-41.82 416.97-67.38L416.97-67.38L384.45-67.38Q380.93-62.62 376.72-58.12Q372.51-53.61 367.68-49.66L367.68-49.66Q364.38-47.09 360.97-44.75Q357.57-42.41 353.83-40.50L353.83-40.50L352.22-41.67Q354.20-44.60 356.10-48.16Q358.01-51.71 359.69-55.52L359.69-55.52L343.36-55.52L343.36-27.76L363.87-30.76L364.23-29.22Q357.35-24.61 346.33-18.20Q335.30-11.79 319.19-3.59L319.19-3.59Q317.72-0.44 314.72 0.29L314.72 0.29L305.86-22.92L323.36-25.05L323.36-55.52L308.28-55.52L307.03-59.69L323.36-59.69L323.36-86.72L348.93-84.59Q348.71-83.13 347.61-81.99Q346.51-80.86 343.36-80.42L343.36-80.42L343.36-61.23L350.39-73.17Q350.39-73.17 352.26-71.30Q354.13-69.43 356.80-66.58Q359.47-63.72 361.96-60.86L361.96-60.86Q366.36-72.73 368.85-84.74L368.85-84.74L367.38-84.01L365.84-85.18Q368.55-89.28 371.19-94.45Q373.83-99.61 376.03-105.47L376.03-105.47Q375.15-105.03 373.68-105.03L373.68-105.03L347.97-105.03Q354.64-102.69 357.02-99.32Q359.40-95.95 358.70-92.65Q358.01-89.36 355.19-87.19Q352.37-85.03 348.45-85.07Q344.53-85.11 340.65-88.48L340.65-88.48Q340.80-92.58 339.62-96.64Q338.45-100.71 336.77-103.93L336.77-103.93Q330.25-94.92 322.34-88.51Q314.43-82.10 305.42-77.86L305.42-77.86L303.88-79.03Q310.77-87.82 316.59-100.93Q322.41-114.04 325.20-128.54L325.20-128.54L350.83-119.68Q349.58-116.46 344.68-116.67L344.68-116.67Q343.65-114.70 342.55-112.87Q341.46-111.04 340.36-109.20L340.36-109.20L353.39-109.20L362.11-121.22Q362.11-121.22 364.64-119.06Q367.16-116.89 370.68-113.82Q374.19-110.74 377.12-108.03L377.12-108.03Q378.81-112.87 380.31-118.03Q381.81-123.19 382.76-128.39Z"/>
    </svg>
        