<?xml version="1.0" encoding="UTF-8" standalone="no"?>
        <svg 
    viewBox="3.5888671875 -85.83984375 447.4365234375 56.982421875"
    width="443.84765625"
    height="142.822265625"
   xmlns="http://www.w3.org/2000/svg"
   xmlns:svg="http://www.w3.org/2000/svg">
   <path d="M13.48-112.50L12.30-116.67L37.21-116.67L45.92-127.95Q45.92-127.95 48.60-125.83Q51.27-123.71 54.93-120.67Q58.59-117.63 61.52-114.92L61.52-114.92Q61.08-112.50 57.42-112.50L57.42-112.50L13.48-112.50ZM12.74-73.83L11.57-78.00L37.79-78.00L46.22-88.92Q46.22-88.92 48.85-86.83Q51.49-84.74 55.08-81.77Q58.67-78.81 61.52-76.17L61.52-76.17Q60.86-73.83 57.42-73.83L57.42-73.83L12.74-73.83ZM12.74-54.13L11.57-58.37L37.79-58.37L46.22-69.29Q46.22-69.29 48.85-67.20Q51.49-65.11 55.08-62.15Q58.67-59.18 61.52-56.54L61.52-56.54Q60.86-54.13 57.42-54.13L57.42-54.13L12.74-54.13ZM4.83-93.46L3.59-97.63L46.07-97.63L54.57-108.91Q54.57-108.91 57.31-106.75Q60.06-104.59 63.76-101.59Q67.46-98.58 70.39-95.87L70.39-95.87Q69.73-93.46 66.28-93.46L66.28-93.46L4.83-93.46ZM75.29-127.95L75.29-127.95L105.47-120.12Q104.88-118.65 103.45-117.74Q102.03-116.82 99.32-116.82L99.32-116.82Q97.71-112.13 95.84-107.81Q93.97-103.49 91.92-99.46L91.92-99.46L117.33-99.46L127.37-112.94Q127.37-112.94 129.20-111.44Q131.03-109.94 133.89-107.59Q136.74-105.25 139.86-102.61Q142.97-99.98 145.53-97.63L145.53-97.63Q144.87-95.21 141.28-95.21L141.28-95.21L115.06-95.21L115.06-54.42L123.27-54.42L132.71-68.70Q132.71-68.70 134.44-67.13Q136.16-65.55 138.79-63.06Q141.43-60.57 144.25-57.79Q147.07-55.00 149.27-52.66L149.27-52.66Q148.61-50.24 145.17-50.24L145.17-50.24L115.06-50.24L115.06 7.76Q115.06 8.57 113.01 10.14Q110.96 11.72 107.08 13.07Q103.20 14.43 97.63 14.43L97.63 14.43L93.75 14.43L93.75-50.24L63.87-50.24L62.70-54.42L93.75-54.42L93.75-95.21L89.72-95.21Q79.91-77.71 64.97-66.58L64.97-66.58L63.28-67.68Q66.21-75.44 68.70-85.40Q71.19-95.36 72.91-106.31Q74.63-117.26 75.29-127.95ZM41.67-5.13L41.67-33.33L30.62-33.33L30.62-5.13L41.67-5.13ZM11.43 14.28L11.43-37.50L11.43-45.12L31.05-37.50L40.21-37.50L48.93-46.80L66.58-33.47Q66.06-32.67 64.71-31.79Q63.35-30.91 61.38-30.62L61.38-30.62L61.38 6.30Q61.30 6.96 58.63 8.28Q55.96 9.59 52.22 10.66Q48.49 11.72 45.12 11.72L45.12 11.72L41.67 11.72L41.67-0.88L30.62-0.88L30.62 8.28Q30.62 9.16 28.16 10.58Q25.71 12.01 21.94 13.15Q18.16 14.28 14.14 14.28L14.14 14.28L11.43 14.28ZM226.83-111.47L228.88-128.10L254.22-125.10Q253.56-121.29 248.22-120.63L248.22-120.63L247.05-111.47L257.08-111.47L266.09-120.78L283.81-107.52Q283.15-106.79 281.76-105.98Q280.37-105.18 278.10-104.74L278.10-104.74L278.10-90.45L284.99-102.47Q284.99-102.47 287.26-100.01Q289.53-97.56 292.57-94.15Q295.61-90.75 297.73-87.89L297.73-87.89Q297.07-85.47 293.85-85.47L293.85-85.47L204.93-85.47L203.69-89.72L223.68-89.72L226.17-107.23L214.53-107.23L213.13-111.47L226.83-111.47ZM243.75-89.72L258.62-89.72L258.62-107.23L246.46-107.23L243.75-89.72ZM214.82-10.77L214.82-33.76L214.82-41.67L236.43-33.76L245.21-33.76L245.21-47.97L263.09-46.51L263.09-50.24L231.59-50.24Q231.59-49.44 229.03-48.05Q226.46-46.66 222.55-45.52Q218.63-44.38 214.67-44.38L214.67-44.38L211.96-44.38L211.96-82.62L232.47-74.85L261.62-74.85L270.63-84.74L289.67-70.53Q288.94-69.58 287.48-68.70Q286.01-67.82 283.67-67.38L283.67-67.38L283.67-51.12Q283.67-50.61 280.81-49.48Q277.95-48.34 274.00-47.35Q270.04-46.36 266.67-46.36L266.67-46.36L265.06-46.36L270.48-45.92Q270.19-44.68 269.38-43.80Q268.58-42.92 266.24-42.48L266.24-42.48L266.24-33.76L270.63-33.76L279.27-44.97Q279.27-44.97 281.98-42.85Q284.69-40.72 288.32-37.68Q291.94-34.64 294.87-31.93L294.87-31.93Q294.43-29.52 290.84-29.52L290.84-29.52L266.24-29.52L266.24-10.77L272.53-10.77L281.69-23.07Q281.69-23.07 284.51-20.76Q287.33-18.46 291.14-15.16Q294.95-11.87 298.02-9.01L298.02-9.01Q297.36-6.59 293.85-6.59L293.85-6.59L266.24-6.59L266.24 9.45Q266.24 10.11 263.56 11.28Q260.89 12.45 256.90 13.44Q252.91 14.43 249.02 14.43L249.02 14.43L245.21 14.43L245.21-6.59L199.80-6.59L198.63-10.77L214.82-10.77ZM234.30-10.77L245.21-10.77L245.21-29.52L234.30-29.52L234.30-10.77ZM231.59-70.68L231.59-54.42L263.09-54.42L263.09-70.68L231.59-70.68ZM161.13-1.98L152.12-26.07L169.48-29.22L169.48-65.84L156.74-65.84L155.57-70.02L169.48-70.02L169.48-107.52L155.27-107.52L154.03-111.77L184.50-111.77L193.95-125.68Q193.95-125.68 195.67-124.15Q197.39-122.61 200.02-120.19Q202.66-117.77 205.52-115.03Q208.37-112.28 210.57-109.94L210.57-109.94Q210.13-107.52 206.54-107.52L206.54-107.52L190.50-107.52L190.50-72.73L196.51-82.76Q196.51-82.76 198.85-80.35Q201.20-77.93 204.31-74.52Q207.42-71.12 209.69-68.26L209.69-68.26Q209.25-65.84 205.81-65.84L205.81-65.84L190.50-65.84L190.50-33.47L209.69-37.65L209.99-36.18Q203.47-30.98 192.44-23.36Q181.42-15.75 165.45-6.15L165.45-6.15Q164.21-2.64 161.13-1.98L161.13-1.98ZM424.37-128.39L424.37-128.39L443.12-111.18Q439.89-108.69 433.08-111.18L433.08-111.18Q426.05-109.79 416.09-108.47Q406.13-107.15 396.02-106.35L396.02-106.35L396.02-92.43L396.02-90.89L420.26-90.89L430.08-104.08Q430.08-104.08 431.84-102.61Q433.59-101.15 436.34-98.84Q439.09-96.53 442.05-93.93Q445.02-91.33 447.44-89.14L447.44-89.14Q447.00-86.72 443.26-86.72L443.26-86.72L426.93-86.72L426.93-49.37Q426.93-48.56 422.86-46.40Q418.80-44.24 411.47-43.80L411.47-43.80L428.83-30.62Q428.17-29.81 426.86-28.89Q425.54-27.98 423.12-27.47L423.12-27.47L423.12 8.13Q423.05 8.72 419.93 9.85Q416.82 10.99 412.50 11.94Q408.18 12.89 404.52 12.89L404.52 12.89L400.63 12.89L400.63 2.42L351.12 2.42L351.12 7.47Q351.12 8.50 348.34 10.11Q345.56 11.72 341.24 13.00Q336.91 14.28 332.37 14.28L332.37 14.28L329.37 14.28L329.37-42.92L328.49-42.77Q328.27-46.80 327.76-49.80Q327.25-52.81 325.63-54.57L325.63-54.57Q324.32-56.32 322.12-57.75Q319.92-59.18 314.87-59.99L314.87-59.99L314.87-61.82Q314.87-61.82 316.74-61.71Q318.60-61.60 321.24-61.45Q323.88-61.30 326.22-61.19Q328.56-61.08 329.52-61.08L329.52-61.08Q331.93-61.08 331.93-63.13L331.93-63.13L331.93-74.27L316.19-68.26Q314.79-65.26 311.87-64.53L311.87-64.53L303.88-84.74Q308.50-85.11 315.78-85.80Q323.07-86.50 331.93-87.60L331.93-87.60L331.93-101.88L308.28-101.88L307.03-106.05L331.93-106.05L331.93-127.81L357.71-125.54Q357.35-122.31 352.51-121.66L352.51-121.66L352.51-110.23L358.52-118.80Q358.52-118.80 361.34-116.38Q364.16-113.96 368.01-110.56Q371.85-107.15 374.85-104.22L374.85-104.22Q374.19-101.88 370.83-101.88L370.83-101.88L352.51-101.88L352.51-90.45L369.87-93.16L370.02-91.19Q366.36-89.43 362.00-87.30Q357.64-85.18 352.51-82.98L352.51-82.98L352.51-63.28Q352.51-57.13 351.09-52.99Q349.66-48.85 345.19-46.44Q340.72-44.02 331.49-43.07L331.49-43.07L352.37-35.08L399.17-35.08L407.08-43.80L405.32-43.80L405.32-86.72L395.87-86.72Q395.43-81.15 393.60-75.22Q391.77-69.29 387.60-63.50Q383.42-57.71 376.03-52.62Q368.63-47.53 356.98-43.80L356.98-43.80L356.10-45.48Q364.75-52.37 368.85-60.35Q372.95-68.33 374.19-76.61Q375.44-84.89 375.44-92.72L375.44-92.72L375.44-120.26L399.61-113.53Q406.71-117.26 413.38-121.33Q420.04-125.39 424.37-128.39ZM400.63-1.83L400.63-30.91L351.12-30.91L351.12-1.83L400.63-1.83Z"/>
    </svg>
        