<?xml version="1.0" encoding="UTF-8" standalone="no"?>
        <svg 
    viewBox="3.0029296875 -85.83984375 448.828125 56.982421875"
    width="445.8251953125"
    height="142.822265625"
   xmlns="http://www.w3.org/2000/svg"
   xmlns:svg="http://www.w3.org/2000/svg">
   <path d="M28.05-90.01L28.05-128.10L54.57-125.54Q54.35-123.85 53.28-122.75Q52.22-121.66 49.07-121.22L49.07-121.22L49.07-90.89L57.42-102.91Q57.42-102.91 59.73-100.85Q62.04-98.80 65.30-95.84Q68.55-92.87 71.41-90.01L71.41-90.01L90.89-90.01L90.89-127.81L117.48-125.24Q117.26-123.71 116.16-122.53Q115.06-121.36 111.91-120.92L111.91-120.92L111.91-90.01L119.68-90.01L129.27-103.34Q129.27-103.34 131.03-101.88Q132.79-100.42 135.50-98.07Q138.21-95.73 141.14-93.13Q144.07-90.53 146.41-88.18L146.41-88.18Q145.75-85.77 142.24-85.77L142.24-85.77L115.21-85.77Q119.90-69.95 128.94-58.19Q137.99-46.44 148.83-40.80L148.83-40.80L148.83-38.96Q141.72-33.62 138.21-26.66Q134.69-19.70 133.67-10.99L133.67-10.99Q127.15-19.12 122.94-31.16Q118.73-43.21 116.24-57.31Q113.75-71.41 112.35-85.77L112.35-85.77L111.91-85.77L111.91 6.59Q111.91 7.62 109.28 9.38Q106.64 11.13 102.76 12.52Q98.88 13.92 94.92 13.92L94.92 13.92L90.89 13.92L90.89-43.80Q77.05-23.80 54.79-9.74L54.79-9.74L53.10-11.28Q61.96-20.80 68.63-32.96Q75.29-45.12 79.87-58.63Q84.45-72.14 87.01-85.77L87.01-85.77L71.41-85.77L71.26-86.28Q70.39-85.77 69.14-85.77L69.14-85.77L49.07-85.77L49.07-77.86Q59.03-74.63 64.38-70.31Q69.73-65.99 71.37-61.49Q73.02-56.98 71.89-53.17Q70.75-49.37 67.79-47.20Q64.82-45.04 60.90-45.41Q56.98-45.78 53.10-49.66L53.10-49.66Q53.54-55.74 52.29-61.96Q51.05-68.19 49.07-73.54L49.07-73.54L49.07 8.28Q49.07 9.08 46.51 10.47Q43.95 11.87 40.10 13.00Q36.25 14.14 32.23 14.14L32.23 14.14L28.05 14.14L28.05-43.07Q23.22-36.84 17.36-31.27Q11.50-25.71 4.61-20.87L4.61-20.87L3.00-22.34Q9.16-30.69 13.81-41.05Q18.46-51.42 21.68-62.88Q24.90-74.34 26.88-85.77L26.88-85.77L6.59-85.77L5.42-90.01L28.05-90.01ZM156.74-75.88L155.42-80.13L178.93-80.13L189.92-91.19L208.96-73.32Q207.71-71.78 204.27-71.12L204.27-71.12L214.01-71.12L214.01-97.92L230.57-96.46Q234.74-100.27 238.70-104.77Q242.65-109.28 245.58-113.09L245.58-113.09L177.76-113.09L176.37-117.33L246.90-117.33L258.33-128.39L277.37-112.06Q275.83-110.38 271.22-109.94L271.22-109.94Q264.26-106.20 255.87-102.47Q247.49-98.73 238.92-95.73L238.92-95.73L241.04-95.58Q240.60-92.14 235.77-91.48L235.77-91.48L235.77-73.83L241.48-81.45L250.20-73.83Q248.88-83.72 247.92-94.92L247.92-94.92L249.76-95.43Q253.13-79.61 258.76-66.14L258.76-66.14Q261.69-70.24 264.66-75Q267.63-79.76 270.15-84.19Q272.68-88.62 274.22-91.92L274.22-91.92L296.41-74.85Q295.75-73.83 294.43-73.39Q293.12-72.95 290.41-73.54L290.41-73.54Q284.11-70.90 276.31-67.97Q268.51-65.04 260.38-62.55L260.38-62.55Q267.41-47.46 276.97-36.07Q286.52-24.68 297.73-18.16L297.73-18.16L297.14-16.63Q291.65-15.31 287.11-10.58Q282.57-5.86 280.22 1.68L280.22 1.68Q269.17-9.59 262.21-25.78L262.21-25.78Q261.18-25.20 259.50-25.20L259.50-25.20L235.77-25.20L235.77-9.16Q235.77-2.12 233.94 2.75Q232.10 7.62 226.25 10.47Q220.39 13.33 208.37 14.43L208.37 14.43Q207.93 9.45 207.13 5.93Q206.32 2.42 204.13 0.15L204.13 0.15Q202.00-2.12 198.89-3.81Q195.78-5.49 189.18-6.74L189.18-6.74L189.18-8.57Q189.18-8.57 191.97-8.39Q194.75-8.20 198.67-8.02Q202.59-7.84 206.07-7.65Q209.55-7.47 210.86-7.47L210.86-7.47Q214.01-7.47 214.01-9.89L214.01-9.89L214.01-25.20L188.23-25.20L187.06-29.37L214.01-29.37L214.01-46.66L198.63-46.66L197.39-50.83L214.01-50.83L214.01-66.87L202.51-66.87L201.93-68.85Q199.15-55.00 193.29-41.46Q187.43-27.91 177.65-16.26Q167.87-4.61 153.30 3.59L153.30 3.59L152.12 2.42Q166.48-16.70 173.14-36.44Q179.81-56.18 180.91-75.88L180.91-75.88L156.74-75.88ZM235.77-46.66L235.77-29.37L238.62-29.37L247.49-41.67Q247.49-41.67 249.46-40.06Q251.44-38.45 254.33-35.96Q257.23-33.47 260.08-30.91L260.08-30.91Q257.37-38.31 255.18-47.09L255.18-47.09Q254.44-46.66 253.05-46.66L253.05-46.66L235.77-46.66ZM235.77-66.87L235.77-52.08L242.87-61.67Q242.87-61.67 244.59-60.17Q246.31-58.67 248.91-56.36Q251.51-54.05 254.08-51.78L254.08-51.78Q253.34-55.37 252.65-59.18Q251.95-62.99 251.22-66.87L251.22-66.87L251.07-66.87L235.77-66.87ZM410.08-118.51L410.08-118.51Q406.71-111.11 400.63-104.33Q394.56-97.56 386.76-91.92Q378.96-86.28 370.53-82.18L370.53-82.18L370.83-81.88Q370.09-81.01 368.55-80.09Q367.02-79.17 364.82-78.74L364.82-78.74L364.82-44.38Q369.07-50.24 372.44-57.71Q375.81-65.19 377.27-70.83L377.27-70.83L385.18-66.43L385.18-73.54L368.55-73.54L367.24-77.71L383.72-77.71L391.48-86.72L404.88-76.68L404.37-77.86L419.24-77.86L427.22-87.01L444.58-73.83Q443.92-72.88 442.46-72.07Q440.99-71.26 438.72-70.83L438.72-70.83L438.72-8.42Q438.72-1.90 437.33 2.78Q435.94 7.47 431.40 10.25Q426.86 13.04 417.33 13.92L417.33 13.92Q417.04 9.08 416.49 5.46Q415.94 1.83 414.62-0.44L414.62-0.44Q413.23-2.78 411.00-4.32Q408.76-5.86 404.37-6.74L404.37-6.74L404.37-8.86Q404.37-8.86 406.09-8.75Q407.81-8.64 410.27-8.53Q412.72-8.42 414.92-8.35Q417.11-8.28 418.07-8.28L418.07-8.28Q420.78-8.28 420.78-10.99L420.78-10.99L420.78-28.20Q416.82-24.90 412.24-21.90Q407.67-18.90 402.61-16.48L402.61-16.48L402.61-7.62Q402.61-1.25 401.29 3.30Q399.98 7.84 395.58 10.58Q391.19 13.33 382.03 14.28L382.03 14.28Q381.81 9.52 381.26 5.97Q380.71 2.42 379.47 0.29L379.47 0.29Q378.15-2.05 376.03-3.55Q373.90-5.05 369.73-5.86L369.73-5.86L369.73-8.13Q369.73-8.13 372.47-7.91Q375.22-7.69 378.33-7.51Q381.45-7.32 382.62-7.32L382.62-7.32Q385.18-7.32 385.18-10.03L385.18-10.03L385.18-25.93Q380.13-22.12 374.01-18.60Q367.90-15.09 361.38-12.60L361.38-12.60L359.84-14.28L363.43-18.46L346.36-18.46L346.36 10.03Q346.22 10.69 341.82 12.41Q337.43 14.14 329.52 14.14L329.52 14.14L325.63 14.14L325.63-18.46L305.13-18.46L303.88-22.63L325.63-22.63L325.63-40.80Q325.63-40.06 323.44-38.78Q321.24-37.50 317.83-36.44Q314.43-35.38 310.77-35.38L310.77-35.38L308.28-35.38L308.28-93.16L325.63-86.28L325.63-102.03L305.27-102.03L304.03-106.20L325.63-106.20L325.63-128.25L351.93-126.27Q351.71-124.58 350.61-123.56Q349.51-122.53 346.36-121.95L346.36-121.95L346.36-107.08L355.37-119.38Q355.37-119.38 357.13-117.92Q358.89-116.46 361.60-114.15Q364.31-111.84 367.27-109.24Q370.24-106.64 372.58-104.37L372.58-104.37Q371.92-102.03 368.41-102.03L368.41-102.03L346.36-102.03L346.36-87.60L353.25-95.07L367.38-84.45Q373.39-90.60 378.66-98.33Q383.94-106.05 387.49-113.89Q391.04-121.73 392.07-128.10L392.07-128.10L417.48-122.83Q417.11-121.58 415.87-120.89Q414.62-120.19 411.62-119.82L411.62-119.82Q415.21-114.77 421.55-111.00Q427.88-107.23 435.13-104.88Q442.38-102.54 448.68-101.51L448.68-101.51L448.83-99.76Q443.26-97.71 440.22-92.58Q437.18-87.45 436.67-81.74L436.67-81.74Q427.00-87.23 420.01-97.01Q413.01-106.79 410.08-118.51ZM411.62-71.12L411.62-71.12L420.78-65.84L420.78-73.68L408.76-73.68Q407.96-72.73 406.42-71.92Q404.88-71.12 402.61-70.68L402.61-70.68L402.61-48.12Q405.62-53.76 408.03-60.13Q410.45-66.50 411.62-71.12ZM378.74-44.97L378.74-44.97L385.18-41.24L385.18-53.10Q380.93-49.58 375.77-46.40Q370.61-43.21 364.97-40.94L364.97-40.94L363.87-42.11Q362.11-41.16 357.68-39.84Q353.25-38.53 349.51-38.53L349.51-38.53L346.36-38.53L346.36-23.73L354.93-36.18Q354.93-36.18 356.91-34.39Q358.89-32.59 361.89-29.92Q364.89-27.25 367.82-24.46L367.82-24.46Q375.37-35.52 378.74-44.97ZM412.94-46.80L412.94-46.80L420.78-42.48L420.78-54.57Q416.89-51.34 412.21-48.19Q407.52-45.04 402.61-42.63L402.61-42.63L402.61-23.22Q406.20-29.00 408.91-35.41Q411.62-41.82 412.94-46.80ZM325.63-45.48L346.36-45.48L346.36-61.52L325.63-61.52L325.63-45.48ZM325.63-65.70L346.36-65.70L346.36-81.74L325.63-81.74L325.63-65.70Z"/>
    </svg>
        