<?xml version="1.0" encoding="UTF-8" standalone="no"?>
        <svg 
    viewBox="5.56640625 -86.279296875 445.6787109375 57.12890625"
    width="440.1123046875"
    height="143.408203125"
   xmlns="http://www.w3.org/2000/svg"
   xmlns:svg="http://www.w3.org/2000/svg">
   <path d="M6.74 6.45L5.57 2.27L62.55 2.27L62.55-54.57L17.87-54.57L16.63-58.81L62.55-58.81L62.55-108.91L12.60-108.91L11.43-113.09L105.03-113.09L117.11-128.54Q117.11-128.54 119.35-126.86Q121.58-125.17 125.02-122.50Q128.47-119.82 132.20-116.86Q135.94-113.89 139.01-111.33L139.01-111.33Q138.43-108.91 134.69-108.91L134.69-108.91L86.57-108.91L86.57-58.81L101.07-58.81L112.79-73.54Q112.79-73.54 114.92-71.92Q117.04-70.31 120.34-67.79Q123.63-65.26 127.22-62.40Q130.81-59.55 133.81-56.98L133.81-56.98Q133.15-54.57 129.42-54.57L129.42-54.57L86.57-54.57L86.57 2.27L111.04 2.27L123.49-13.48Q123.49-13.48 125.72-11.79Q127.95-10.11 131.47-7.40Q134.99-4.69 138.83-1.65Q142.68 1.39 145.83 4.03L145.83 4.03Q145.17 6.45 141.28 6.45L141.28 6.45L6.74 6.45ZM241.63-108.33L241.48-127.22L268.51-124.80Q267.85-121.36 262.79-120.48L262.79-120.48L262.65-89.87L268.80-89.87L279.42-100.49L297.00-85.18Q296.12-84.16 294.54-83.31Q292.97-82.47 290.41-82.03L290.41-82.03Q290.19-62.62 289.86-48.63Q289.53-34.64 288.87-25.05Q288.21-15.45 287.15-9.23Q286.08-3.00 284.36 0.77Q282.64 4.54 280.22 7.03L280.22 7.03Q276.27 10.99 271.22 12.78Q266.16 14.58 259.94 14.58L259.94 14.58Q260.08 9.38 259.64 5.93Q259.20 2.49 258.03 0.44L258.03 0.44Q256.42-1.83 254.08-3.44Q251.73-5.05 247.78-6.15L247.78-6.15L247.78-7.98Q250.49-7.69 254.15-7.51Q257.81-7.32 259.94-7.32L259.94-7.32Q262.79-7.32 264.62-9.16L264.62-9.16Q266.82-11.28 268.03-19.45Q269.24-27.61 269.75-43.69Q270.26-59.77 270.63-85.62L270.63-85.62L262.50-85.62Q262.28-67.97 260.71-53.14Q259.13-38.31 254.55-26.00Q249.98-13.70 240.93-3.74Q231.88 6.23 216.72 14.14L216.72 14.14L215.26 12.01Q220.46 6.74 224.34 0.99Q228.22-4.76 231.01-10.99L231.01-10.99Q220.75-6.81 205.33-1.65Q189.92 3.52 168.02 10.03L168.02 10.03Q166.41 12.96 163.33 13.48L163.33 13.48L154.47-9.30Q159.23-9.45 166.77-9.78Q174.32-10.11 183.76-10.77L183.76-10.77L183.76-23.36L161.28-23.36L160.03-27.61L183.76-27.61L183.76-40.06L158.42-40.06L157.18-44.24L183.76-44.24L183.76-57.42L177.47-57.42L177.47-53.98Q177.47-53.10 173.40-51.53Q169.34-49.95 162.16-49.95L162.16-49.95L158.86-49.95L158.86-92.72L178.93-85.03L209.40-85.03L216.58-93.02Q214.82-92.36 211.89-91.77Q208.96-91.19 204.93-91.19L204.93-91.19L199.66-91.19L199.66-105.18L187.79-105.18L187.79-94.63Q187.79-94.12 184.24-92.36Q180.69-90.60 173.22-90.60L173.22-90.60L168.16-90.60L168.16-105.18L154.83-105.18L153.74-109.35L168.16-109.35L168.16-128.10L191.97-126.12Q191.89-124.80 190.98-123.89Q190.06-122.97 187.79-122.53L187.79-122.53L187.79-109.35L199.66-109.35L199.66-128.10L224.12-126.12Q223.97-124.80 223.06-123.74Q222.14-122.68 219.73-122.24L219.73-122.24L219.73-109.35L220.68-109.35L228.44-120.78Q228.44-120.78 230.60-118.87Q232.76-116.97 235.84-114.11Q238.92-111.25 241.63-108.33L241.63-108.33ZM232.98-85.62L231.59-89.87L241.63-89.87L241.63-106.64Q240.82-105.18 238.33-105.18L238.33-105.18L219.73-105.18L219.73-95.21Q219.73-94.92 218.99-94.34L218.99-94.34L235.03-82.47Q234.38-81.52 233.17-80.82Q231.96-80.13 229.32-79.61L229.32-79.61L229.32-55.66Q229.32-55.22 227.20-54.27Q225.07-53.32 221.12-52.66L221.12-52.66Q223.46-50.61 226.94-47.75Q230.42-44.90 233.13-42.48L233.13-42.48Q232.47-40.06 229.03-40.06L229.03-40.06L203.25-40.06L203.25-27.61L209.55-27.61L217.38-37.94Q217.38-37.94 219.84-35.93Q222.29-33.91 225.66-31.09Q229.03-28.27 231.74-25.78L231.74-25.78Q231.08-23.36 227.71-23.36L227.71-23.36L203.25-23.36L203.25-12.01L232.47-14.14Q238.48-28.71 240.05-46.33Q241.63-63.94 241.63-85.62L241.63-85.62L232.98-85.62ZM209.40-44.24L215.41-52.08L213.43-52.08L209.84-52.08L209.84-57.42L203.25-57.42L203.25-44.24L209.40-44.24ZM177.47-80.86L177.47-61.67L183.76-61.67L183.76-80.86L177.47-80.86ZM203.25-61.67L209.84-61.67L209.84-80.86L203.25-80.86L203.25-61.67ZM400.49-19.48L400.49-23.73L397.49-23.73L397.49-7.47Q397.49-6.15 398.29-5.64Q399.10-5.13 402.03-5.13L402.03-5.13L413.96-5.13L412.35-5.71Q411.11-9.45 408.18-13.22Q405.25-16.99 402.47-19.48L402.47-19.48L400.49-19.48ZM348.78-27.91L400.49-27.91L400.49-39.92L348.78-39.92L348.78-27.91ZM324.46-120.78L324.46-120.78L326.22-120.78Q327.39-118.36 328.13-116.05Q328.86-113.75 329.37-111.62L329.37-111.62L363.72-111.62L363.72-128.83L390.89-126.93Q390.67-125.32 389.65-124.22Q388.62-123.12 385.47-122.68L385.47-122.68L385.47-111.62L416.97-111.62L427.22-121.95L445.02-105.18Q444.14-104.15 442.86-103.78Q441.58-103.42 439.23-103.20L439.23-103.20Q436.30-100.93 432.02-98.51Q427.73-96.09 423.63-94.19L423.63-94.19L429.93-88.48Q429.27-86.13 425.68-86.13L425.68-86.13L400.63-86.13L400.63-76.83L408.33-84.89L427.08-70.83Q426.49-70.02 425.21-69.14Q423.93-68.26 421.80-67.97L421.80-67.97L421.80-25.20Q421.66-24.61 419.46-23.47Q417.26-22.34 413.96-21.31L413.96-21.31Q419.60-20.58 422.35-18.35Q425.10-16.11 425.46-13.40Q425.83-10.69 424.37-8.39Q422.90-6.08 420.12-5.13L420.12-5.13L425.54-5.27Q428.17-5.27 429.57-7.03L429.57-7.03Q432.13-10.18 437.11-22.19L437.11-22.19L438.57-22.19L439.01-6.59Q443.12-5.13 444.40-3.30Q445.68-1.46 445.68 1.17L445.68 1.17Q445.68 5.05 442.93 7.43Q440.19 9.81 433.04 10.91Q425.90 12.01 412.79 12.01L412.79 12.01L397.49 12.01Q389.14 12.01 384.78 10.69Q380.42 9.38 378.92 6.01Q377.42 2.64 377.42-3.59L377.42-3.59L377.42-23.73L372.44-23.73Q367.75-5.93 350.46 2.86Q333.18 11.65 304.98 14.58L304.98 14.58L304.61 12.89Q323.58 7.62 333.98-0.48Q344.38-8.57 347.83-20.73L347.83-20.73Q346.07-19.04 341.05-17.25Q336.04-15.45 330.76-15.45L330.76-15.45L327.76-15.45L327.76-83.57L348.63-75.44L348.63-86.13L326.07-86.13L325.20-89.28Q323.88-87.89 322.05-87.01L322.05-87.01Q319.26-85.55 316.08-85.80Q312.89-86.06 310.33-87.93Q307.76-89.79 306.88-93.16L306.88-93.16Q305.64-97.85 308.06-101.29Q310.47-104.74 314.58-106.49L314.58-106.49Q318.02-108.11 321.39-112.06Q324.76-116.02 324.46-120.78ZM348.78-44.09L400.49-44.09L400.49-55.22L348.78-55.22L348.78-44.09ZM348.78-59.40L400.49-59.40L400.49-70.83L348.78-70.83L348.78-59.40ZM368.26-86.13L368.26-75L380.57-75L380.57-86.13L368.26-86.13ZM380.57-90.31L380.57-105.47L406.05-103.49Q405.91-101.95 404.81-100.85Q403.71-99.76 400.63-99.32L400.63-99.32L400.63-90.31L403.05-90.31L412.65-103.34L418.51-98.36L418.65-107.37L330.18-107.37Q330.69-101.81 329.59-97.45Q328.49-93.09 326.07-90.31L326.07-90.31L348.63-90.31L348.63-105.47L373.68-103.49Q373.54-101.95 372.40-100.85Q371.26-99.76 368.26-99.32L368.26-99.32L368.26-90.31L380.57-90.31Z"/>
    </svg>
        