<?xml version="1.0" encoding="UTF-8" standalone="no"?>
        <svg 
    viewBox="2.8564453125 -86.1328125 448.828125 56.982421875"
    width="445.9716796875"
    height="143.115234375"
   xmlns="http://www.w3.org/2000/svg"
   xmlns:svg="http://www.w3.org/2000/svg">
   <path d="M62.26-105.62L63.87-105.47Q66.87-94.48 65.66-87.56Q64.45-80.64 60.97-77.16Q57.50-73.68 53.32-73.13Q49.15-72.58 45.92-74.41Q42.70-76.25 42.19-79.94Q41.67-83.64 45.63-88.62L45.63-88.62Q50.46-91.04 55.19-95.51Q59.91-99.98 62.26-105.62L62.26-105.62ZM2.86-104.88L3.74-105.62Q13.77-107.01 19.45-105.69Q25.12-104.37 27.28-101.59Q29.44-98.80 28.78-95.65Q28.13-92.50 25.42-90.12Q22.71-87.74 18.75-87.34Q14.79-86.94 10.33-89.72L10.33-89.72Q10.11-94.12 7.87-98.29Q5.64-102.47 2.86-104.88L2.86-104.88ZM12.89-124.66L13.92-125.68Q23.73-127.66 29.81-126.71Q35.89-125.76 38.82-123.08Q41.75-120.41 42.08-117.15Q42.41-113.89 40.58-111.15Q38.75-108.40 35.34-107.26Q31.93-106.13 27.47-107.89L27.47-107.89Q25.42-112.57 21.13-117.26Q16.85-121.95 12.89-124.66L12.89-124.66ZM14.43-74.56L14.43-74.56Q16.63-74.56 17.50-74.85Q18.38-75.15 20.07-76.98L20.07-76.98Q21.24-78.22 22.19-79.32Q23.14-80.42 24.76-82.32Q26.37-84.23 29.33-87.78Q32.30-91.33 37.35-97.41Q42.41-103.49 50.39-113.09L50.39-113.09L52.37-112.35Q50.61-108.98 48.01-104.19Q45.41-99.39 42.74-94.48Q40.06-89.58 38.05-85.69Q36.04-81.81 35.38-80.27L35.38-80.27Q34.42-77.78 33.65-75.26Q32.89-72.73 32.89-70.83L32.89-70.83Q32.96-68.55 34.50-66.69Q36.04-64.82 37.46-62.40Q38.89-59.99 38.67-56.10L38.67-56.10Q38.60-52.51 35.08-49.88Q31.57-47.24 24.17-47.24L24.17-47.24Q21.31-47.24 18.90-48.74Q16.48-50.24 15.45-52.81L15.45-52.81Q16.70-59.55 16.22-64.27Q15.75-68.99 13.48-70.17L13.48-70.17Q11.94-70.97 10.40-71.45Q8.86-71.92 6.74-72.14L6.74-72.14L6.74-74.56Q6.74-74.56 8.24-74.56Q9.74-74.56 11.57-74.56Q13.40-74.56 14.43-74.56ZM114.92-39.92L125.68-54.57Q125.68-54.57 127.70-52.95Q129.71-51.34 132.75-48.82Q135.79-46.29 139.16-43.43Q142.53-40.58 145.17-38.09L145.17-38.09Q144.58-35.67 140.84-35.67L140.84-35.67L89.14-35.67Q95.36-28.71 104.70-23.47Q114.04-18.24 124.88-14.83Q135.72-11.43 146.56-9.89L146.56-9.89L146.26-8.13Q140.04-6.45 135.64-1.10Q131.25 4.25 129.42 12.45L129.42 12.45Q113.16 5.57 102.87-5.79Q92.58-17.14 86.28-34.06L86.28-34.06L86.28 9.01Q86.28 9.74 83.39 10.99Q80.49 12.23 76.10 13.26Q71.70 14.28 67.24 14.28L67.24 14.28L63.13 14.28L63.13-16.77Q52.22-7.76 38.01-0.73Q23.80 6.30 7.47 11.13L7.47 11.13L6.59 9.59Q16.04 4.03 24.28-3.48Q32.52-10.99 39.15-19.34Q45.78-27.69 50.24-35.67L50.24-35.67L9.16-35.67L7.98-39.92L63.13-39.92L63.13-56.54Q58.74-53.98 53.61-51.82Q48.49-49.66 42.63-47.83L42.63-47.83L41.82-49.51Q54.64-57.50 61.67-67.53Q68.70-77.56 71.59-89.36Q74.49-101.15 74.85-114.62L74.85-114.62L55.52-114.62L54.13-118.80L103.34-118.80L113.67-128.54L130.96-113.96Q129.42-112.06 124.80-111.18L124.80-111.18L124.51-103.78Q134.69-100.05 140.11-95.18Q145.53-90.31 147.22-85.36Q148.90-80.42 147.77-76.35Q146.63-72.29 143.55-69.98Q140.48-67.68 136.45-68.04Q132.42-68.41 128.39-72.44L128.39-72.44Q128.98-79.17 127.70-86.10Q126.42-93.02 124.22-99.02L124.22-99.02Q123.34-85.47 121.98-77.09Q120.63-68.70 118.32-63.94Q116.02-59.18 112.50-56.54L112.50-56.54Q105.40-51.12 93.60-51.12L93.60-51.12Q93.68-55.66 93.27-59.03Q92.87-62.40 91.48-64.38L91.48-64.38Q90.16-66.50 88.04-68.01Q85.91-69.51 82.18-70.53L82.18-70.53L82.18-72.29Q84.81-72.07 88.40-71.89Q91.99-71.70 94.04-71.70L94.04-71.70Q96.83-71.70 98.36-73.02L98.36-73.02Q100.85-75.07 102.39-84.81Q103.93-94.56 104.88-114.62L104.88-114.62L96.90-114.62Q95.21-96.61 88.48-82.54Q81.74-68.48 66.87-58.81L66.87-58.81L91.77-56.69Q91.55-55.15 90.49-54.02Q89.43-52.88 86.28-52.37L86.28-52.37L86.28-39.92L114.92-39.92ZM180.03-128.39L180.03-128.39L209.25-119.68Q208.30-116.53 203.10-116.53L203.10-116.53Q199.58-107.52 195.63-99.24Q191.67-90.97 187.21-83.57L187.21-83.57L196.66-80.13Q196.29-78.96 195.26-78.26Q194.24-77.56 191.97-77.12L191.97-77.12L191.97-26.88Q202.66-39.77 210.13-55.85Q217.60-71.92 222.44-88.18L222.44-88.18L195.26-88.18L194.09-92.43L223.54-92.43Q226.10-101.66 227.82-110.52Q229.54-119.38 230.57-127.37L230.57-127.37L261.04-119.38Q260.52-118.07 259.39-117.11Q258.25-116.16 255.32-115.94L255.32-115.94Q253.64-110.30 251.55-104.41Q249.46-98.51 246.90-92.43L246.90-92.43L265.21-92.43L276.42-108.03Q276.42-108.03 278.50-106.31Q280.59-104.59 283.74-101.88Q286.89-99.17 290.33-96.17Q293.77-93.16 296.56-90.60L296.56-90.60Q295.90-88.18 292.24-88.18L292.24-88.18L245.07-88.18Q242.14-81.45 238.55-74.67Q234.96-67.90 230.57-61.38L230.57-61.38L238.62-58.37L263.09-58.37L272.68-68.99L292.24-53.98Q291.50-53.10 290.11-52.11Q288.72-51.12 286.38-50.68L286.38-50.68L286.38 6.01Q286.23 6.59 283.23 7.84Q280.22 9.08 276.05 10.11Q271.88 11.13 268.21 11.13L268.21 11.13L264.62 11.13L264.62-1.98L236.57-1.98L236.57 6.74Q236.57 7.91 231.96 10.40Q227.34 12.89 219.14 12.89L219.14 12.89L215.26 12.89L215.26-42.11Q210.21-36.99 204.42-32.26Q198.63-27.54 191.97-23.36L191.97-23.36L191.97 8.28Q191.89 9.01 189.26 10.44Q186.62 11.87 182.59 13.07Q178.56 14.28 174.32 14.28L174.32 14.28L170.21 14.28L170.21-59.99Q166.33-55.37 162.05-51.31Q157.76-47.24 153.30-43.65L153.30-43.65L151.68-44.68Q157.10-55.00 162.56-68.77Q168.02-82.54 172.60-97.92Q177.17-113.31 180.03-128.39ZM264.62-54.13L236.57-54.13L236.57-6.15L264.62-6.15L264.62-54.13ZM319.19-36.77L321.31-37.21Q327.25-31.64 329.66-26.44Q332.08-21.24 332.01-17.03Q331.93-12.82 330.14-10.33Q328.34-7.84 325.78-7.69Q323.22-7.54 320.87-10.47L320.87-10.47Q321.75-16.77 321.09-24.06Q320.43-31.35 319.19-36.77L319.19-36.77ZM328.20-39.33L330.18-40.06Q337.28-35.82 340.69-31.42Q344.09-27.03 344.71-23.25Q345.34-19.48 343.98-17.03Q342.63-14.58 340.21-14.17Q337.79-13.77 335.23-16.19L335.23-16.19Q335.01-21.83 332.78-28.27Q330.54-34.72 328.20-39.33L328.20-39.33ZM311.28-35.52L311.28-35.52L313.18-35.52Q317.50-24.54 317.83-17.43Q318.16-10.33 316.19-6.59Q314.21-2.86 311.28-1.94Q308.35-1.03 305.90-2.42Q303.44-3.81 302.93-6.99Q302.42-10.18 305.42-14.58L305.42-14.58Q307.98-17.94 309.56-23.66Q311.13-29.37 311.28-35.52ZM336.62-42.33L338.09-43.51Q343.95-42.63 347.64-40.83Q351.34-39.04 353.39-36.91L353.39-36.91L354.27-48.49L328.49-48.49L328.49-43.95Q328.49-43.07 324.87-41.02Q321.24-38.96 314.87-38.96L314.87-38.96L311.87-38.96L311.87-122.68L330.47-115.65L350.98-115.65L359.55-126.78Q359.55-126.78 362.26-124.66Q364.97-122.53 368.66-119.53Q372.36-116.53 375.29-113.82L375.29-113.82Q374.63-111.47 371.26-111.47L371.26-111.47L351.64-111.47L351.64-94.78L352.51-94.78L359.69-104.52Q359.69-104.52 362.73-101.99Q365.77-99.46 368.99-96.46L368.99-96.46L366.58-105.32L385.18-105.03Q386.65-110.74 387.82-117.04Q388.99-123.34 389.72-128.39L389.72-128.39L415.80-123.12Q415.43-121.66 414.15-120.74Q412.87-119.82 410.23-119.82L410.23-119.82Q407.30-116.60 403.05-112.65Q398.80-108.69 394.19-105.03L394.19-105.03L421.51-105.18Q417.77-111.18 413.53-115.65L413.53-115.65L414.77-116.53Q425.90-115.36 432.50-112.17Q439.09-108.98 441.91-104.92Q444.73-100.85 444.58-96.94Q444.43-93.02 442.05-90.31Q439.67-87.60 435.90-87.12Q432.13-86.65 427.81-89.58L427.81-89.58Q427.22-92.14 426.31-94.89Q425.39-97.63 424.07-100.20L424.07-100.20Q416.75-98.07 407.41-95.65Q398.07-93.24 386.43-90.31L386.43-90.31L404.74-83.28Q404.15-81.88 402.65-81.12Q401.15-80.35 398.73-80.57L398.73-80.57Q393.16-70.90 385.91-64.20Q378.66-57.50 370.17-53.25L370.17-53.25L375.88-48.49Q374.19-46.51 369.73-45.92L369.73-45.92Q369.07-36.11 368.23-28.42Q367.38-20.73 366.14-14.87L366.14-14.87Q373.10-23.14 378.96-35.60Q384.81-48.05 387.74-62.26L387.74-62.26L411.18-55.08Q410.67-53.61 409.28-52.70Q407.89-51.78 405.32-51.93L405.32-51.93Q404.30-49.88 403.27-48.05Q402.25-46.22 401.22-44.38L401.22-44.38L413.82-44.38L424.37-54.27L441.43-39.48Q440.19-37.43 435.57-37.06L435.57-37.06Q429.20-23.07 418.80-12.89L418.80-12.89Q424.88-10.40 432.39-8.83Q439.89-7.25 448.83-6.45L448.83-6.45L448.68-4.83Q442.90-2.34 440.04 2.38Q437.18 7.10 436.52 14.58L436.52 14.58Q426.12 11.94 418.84 7.58Q411.55 3.22 406.35-3.00L406.35-3.00Q387.74 9.30 358.96 13.92L358.96 13.92L358.23 12.01Q384.30 3.08 399.32-13.92L399.32-13.92Q397.19-18.02 395.54-22.60Q393.90-27.17 392.43-32.23L392.43-32.23Q386.87-25.85 380.53-21.06Q374.19-16.26 367.38-12.89L367.38-12.89L365.99-13.92Q364.09-4.83 361.45 0.51Q358.81 5.86 355.37 8.57L355.37 8.57Q351.86 11.28 347.64 12.45Q343.43 13.62 338.38 13.62L338.38 13.62Q338.53 10.25 338.12 7.51Q337.72 4.76 336.47 3.15L336.47 3.15Q334.06-0.15 327.76-1.68L327.76-1.68L327.91-3.74Q330.62-3.52 334.31-3.33Q338.01-3.15 340.06-3.15L340.06-3.15Q343.14-3.15 344.82-4.61L344.82-4.61Q346.88-6.23 348.67-11.28Q350.46-16.33 351.93-25.34L351.93-25.34Q349.73-24.90 347.09-26.37L347.09-26.37Q346.22-30.54 343.10-35.08Q339.99-39.62 336.62-42.33L336.62-42.33ZM383.28-89.58L383.28-89.58L376.98-88.04Q375.15-85.18 372.14-84.89L372.14-84.89L370.53-90.89Q369.58-90.60 368.70-90.60L368.70-90.60L351.64-90.60L351.64-73.54L352.51-73.54L359.69-83.28Q359.69-83.28 361.93-81.37Q364.16-79.47 367.16-76.79Q370.17-74.12 372.58-71.70L372.58-71.70Q372.14-69.29 368.70-69.29L368.70-69.29L351.64-69.29L351.64-52.66L352.95-52.66L361.23-60.72L366.43-56.25Q371.85-62.55 376.25-71.08Q380.64-79.61 383.28-89.58ZM404.74-69.43L404.74-91.77L425.10-90.16Q424.88-87.01 420.92-86.57L420.92-86.57L420.92-72.73Q420.92-71.70 421.33-71.34Q421.73-70.97 423.27-70.97L423.27-70.97L428.25-70.97Q429.71-70.97 430.88-70.97Q432.06-70.97 432.71-70.97L432.71-70.97Q434.33-70.97 435.28-72.29L435.28-72.29Q436.23-73.68 437.62-77.27Q439.01-80.86 440.84-85.77L440.84-85.77L442.53-85.77L442.82-72.00Q445.75-70.68 446.59-69.18Q447.44-67.68 447.44-65.55L447.44-65.55Q447.44-60.94 442.64-58.74Q437.84-56.54 426.42-56.54L426.42-56.54L418.07-56.54Q412.13-56.54 409.28-57.75Q406.42-58.96 405.58-61.78Q404.74-64.60 404.74-69.43L404.74-69.43ZM414.33-40.21L414.33-40.21L398.58-40.21L394.48-34.79Q398.22-26.95 404.88-21.02L404.88-21.02Q410.89-29.74 414.33-40.21ZM335.52-111.47L328.49-111.47L328.49-94.78L335.52-94.78L335.52-111.47ZM335.52-90.60L328.49-90.60L328.49-73.54L335.52-73.54L335.52-90.60ZM335.52-69.29L328.49-69.29L328.49-52.66L335.52-52.66L335.52-69.29Z"/>
    </svg>
        