<?xml version="1.0" encoding="UTF-8" standalone="no"?>
        <svg 
    viewBox="5.87548828125 -87.48779296875 446.4111328125 58.04443359375"
    width="440.53564453125"
    height="145.5322265625"
   xmlns="http://www.w3.org/2000/svg"
   xmlns:svg="http://www.w3.org/2000/svg">
   <path d="M30.62-78.15L29.37-82.32L42.33-82.32L49.95-91.33Q49.95-91.33 52.29-89.61Q54.64-87.89 57.93-85.40Q61.23-82.91 63.87-80.57L63.87-80.57Q63.28-78.15 59.99-78.15L59.99-78.15L30.62-78.15ZM25.20-60.57L24.02-64.82L40.50-64.82L48.78-75.29Q48.78-75.29 51.34-73.28Q53.91-71.26 57.39-68.41Q60.86-65.55 63.72-62.99L63.72-62.99Q63.06-60.57 59.69-60.57L59.69-60.57L25.20-60.57ZM90.16-60.57L88.92-64.82L106.05-64.82L114.62-75.15Q114.62-75.15 117.30-73.17Q119.97-71.19 123.67-68.37Q127.37-65.55 130.37-62.99L130.37-62.99Q129.71-60.57 126.27-60.57L126.27-60.57L90.16-60.57ZM24.61 14.72L24.61-46.80L24.61-55.37L46.95-46.80L104.74-46.80L114.18-57.13L133.52-42.48Q132.86-41.53 131.36-40.61Q129.86-39.70 127.51-39.18L127.51-39.18L127.51 9.01Q127.44 9.52 124.48 10.69Q121.51 11.87 117.41 12.82Q113.31 13.77 109.79 13.77L109.79 13.77L106.20 13.77L106.20 3.88L45.63 3.88L45.63 7.98Q45.63 9.01 42.92 10.62Q40.21 12.23 36.07 13.48Q31.93 14.72 27.61 14.72L27.61 14.72L24.61 14.72ZM85.77-0.29L106.20-0.29L106.20-19.78L85.77-19.78L85.77-0.29ZM45.63-19.78L45.63-0.29L64.82-0.29L64.82-19.78L45.63-19.78ZM85.77-24.02L106.20-24.02L106.20-42.63L85.77-42.63L85.77-24.02ZM45.63-42.63L45.63-24.02L64.82-24.02L64.82-42.63L45.63-42.63ZM89.72-78.15L88.48-82.32L101.37-82.32L109.20-91.63Q109.20-91.63 110.96-90.38Q112.72-89.14 115.36-87.16Q117.99-85.18 120.63-83.13L120.63-83.13Q121.07-86.57 121.33-90.34Q121.58-94.12 121.80-97.34L121.80-97.34L85.99-97.34L85.99-55.08Q85.99-54.35 81.37-52.51Q76.76-50.68 68.55-50.68L68.55-50.68L64.67-50.68L64.67-97.34L29.74-97.34Q31.27-88.48 28.60-82.47Q25.93-76.46 21.31-74.27L21.31-74.27Q16.92-72.00 12.34-73.57Q7.76-75.15 6.30-79.98L6.30-79.98Q5.05-84.67 7.47-88.00Q9.89-91.33 13.92-93.16L13.92-93.16Q17.80-95.14 20.76-100.20Q23.73-105.25 22.92-111.47L22.92-111.47L24.76-111.62Q27.47-106.13 28.78-101.51L28.78-101.51L64.67-101.51L64.67-114.92L21.61-114.92L20.43-119.09L105.62-119.09L115.65-130.81Q115.65-130.81 118.80-128.61Q121.95-126.42 126.27-123.27Q130.59-120.12 134.11-117.33L134.11-117.33Q133.45-114.92 129.93-114.92L129.93-114.92L85.99-114.92L85.99-101.51L120.26-101.51L130.52-111.91L148.17-95.07Q146.63-93.38 142.38-93.16L142.38-93.16Q138.43-88.84 132.35-83.79Q126.27-78.74 120.92-75.44L120.92-75.44L119.68-76.32L119.97-78.15L119.68-78.15L89.72-78.15ZM252.17-123.12L253.20-124.07Q263.75-125.17 269.49-123.19Q275.24-121.22 277.15-117.81Q279.05-114.40 278.10-111.18L278.10-111.18Q281.03-109.50 286.05-106.42Q291.06-103.34 295.17-100.63L295.17-100.63Q294.73-97.92 291.28-97.63L291.28-97.63L251.51-93.31Q255.03-84.67 260.89-78.11Q266.75-71.56 276.42-67.97L276.42-67.97Q278.47-67.31 279.64-67.38Q280.81-67.46 281.84-68.70L281.84-68.70Q283.45-71.04 285.79-75.73Q288.13-80.42 289.82-84.59L289.82-84.59L291.14-84.30L289.38-65.11Q294.43-60.28 295.39-57.57Q296.34-54.86 294.87-52.08L294.87-52.08Q292.60-47.53 287.95-46.55Q283.30-45.56 277.99-46.62Q272.68-47.68 268.36-49.51L268.36-49.51Q252.69-56.03 243.90-66.61Q235.11-77.20 230.27-90.89L230.27-90.89L200.68-87.60L199.07-91.63L228.88-94.92Q226.68-102.25 225.11-110.19Q223.54-118.14 222.29-126.64L222.29-126.64L249.90-124.80Q249.68-123.34 248.55-122.20Q247.41-121.07 244.92-120.63L244.92-120.63Q245.95-114.33 247.16-108.47Q248.36-102.61 250.20-97.34L250.20-97.34L266.67-99.17L270.48-104.88Q266.97-104.37 263.23-106.35L263.23-106.35Q261.99-110.96 258.69-115.65Q255.40-120.34 252.17-123.12L252.17-123.12ZM186.62-128.54L186.62-128.54L214.67-116.82Q214.09-115.50 212.48-114.73Q210.86-113.96 208.23-114.33L208.23-114.33Q204.71-109.20 200.83-104.88Q196.95-100.56 192.92-96.75L192.92-96.75L199.95-94.19Q199.22-92.07 195.26-91.19L195.26-91.19L195.26-47.68Q195.12-46.95 192.52-45.70Q189.92-44.46 185.89-43.47Q181.86-42.48 177.61-42.48L177.61-42.48L173.58-42.48L173.58-82.47Q168.82-79.83 163.92-77.56Q159.01-75.29 154.03-73.32L154.03-73.32L152.86-74.71Q159.16-80.64 165.49-89.10Q171.83-97.56 177.36-107.67Q182.89-117.77 186.62-128.54ZM214.67-3.30L214.67-53.10L241.92-50.98Q241.70-49.44 240.64-48.34Q239.58-47.24 236.43-46.66L236.43-46.66L236.43-3.30L259.79-3.30L259.79-41.38L286.08-39.18Q285.94-37.79 284.95-36.80Q283.96-35.82 281.25-35.38L281.25-35.38L281.25 6.74Q281.25 7.40 278.50 8.50Q275.76 9.59 271.69 10.44Q267.63 11.28 263.53 11.28L263.53 11.28L259.79 11.28L259.79 0.88L191.67 0.88L191.67 9.30Q191.67 9.96 188.96 11.06Q186.25 12.16 182.15 13.04Q178.05 13.92 174.02 13.92L174.02 13.92L170.21 13.92L170.21-40.21L196.51-37.94Q196.36-36.62 195.37-35.63Q194.38-34.64 191.67-34.20L191.67-34.20L191.67-3.30L214.67-3.30ZM344.38-80.86L344.38-80.86L367.02-70.83Q366.58-69.65 365.41-68.99Q364.23-68.33 361.67-68.55L361.67-68.55Q357.13-63.57 350.54-58.78Q343.95-53.98 336.04-50.02Q328.13-46.07 319.78-43.65L319.78-43.65L318.60-45.26Q324.24-49.95 329.26-56.18Q334.28-62.40 338.20-68.88Q342.11-75.37 344.38-80.86ZM305.13-107.37L304.03-111.62L338.67-111.62L338.67-128.10L364.53-125.83Q364.38-124.37 363.35-123.38Q362.33-122.39 359.40-121.95L359.40-121.95L359.40-111.62L389.14-111.62L389.14-128.10L415.36-125.98Q415.21-124.44 414.11-123.41Q413.01-122.39 410.08-121.95L410.08-121.95L410.08-111.62L419.24-111.62L428.69-124.07Q428.69-124.07 431.65-121.73Q434.62-119.38 438.65-116.05Q442.68-112.72 445.83-109.79L445.83-109.79Q445.17-107.37 441.58-107.37L441.58-107.37L410.08-107.37L410.08-99.61Q410.08-98.51 405.03-97.27Q399.98-96.02 392.58-96.02L392.58-96.02L389.14-96.02L389.14-100.05Q388.84-97.63 385.03-97.05L385.03-97.05L385.03-86.57L418.80-86.57L428.83-96.61L446.41-80.27Q444.87-78.52 440.55-78.30L440.55-78.30Q436.60-75.51 430.74-72.51Q424.88-69.51 419.38-67.38L419.38-67.38Q422.46-63.72 422.83-59.95Q423.19-56.18 421.40-53.21Q419.60-50.24 416.13-49.04Q412.65-47.83 408.03-49.37L408.03-49.37Q405.03-54.13 400.34-59.18Q395.65-64.23 390.34-68.63Q385.03-73.02 380.27-76.03L380.27-76.03L381.30-77.27Q394.34-78.30 402.87-76.14Q411.40-73.97 416.09-70.53L416.09-70.53Q416.97-73.32 417.92-76.43Q418.87-79.54 419.53-82.32L419.53-82.32L329.22-82.32Q330.40-74.12 327.98-68.48Q325.56-62.84 321.31-60.57L321.31-60.57Q317.14-58.37 312.45-59.84Q307.76-61.30 306.30-66.14L306.30-66.14Q304.98-70.90 307.36-74.23Q309.74-77.56 313.62-79.32L313.62-79.32Q317.29-81.30 320.47-85.88Q323.66-90.45 323.07-96.02L323.07-96.02L324.90-96.17Q326.15-93.53 326.95-91.15Q327.76-88.77 328.34-86.57L328.34-86.57L363.72-86.57L363.72-102.47L389.14-100.34L389.14-107.37L359.40-107.37L359.40-99.02Q359.40-97.85 354.38-96.46Q349.37-95.07 342.11-95.07L342.11-95.07L338.67-95.07L338.67-107.37L305.13-107.37ZM393.02 0L393.02-24.17L356.98-24.17L356.98 0L393.02 0ZM381.59-55.66L381.59-55.66Q376.54-49.22 368.63-42.96Q360.72-36.69 351.12-31.20L351.12-31.20L359.11-28.34L391.63-28.34L398.36-35.52Q393.09-39.84 388.81-44.82Q384.52-49.80 381.59-55.66ZM393.02 13.33L393.02 4.17L356.98 4.17L356.98 8.13Q356.98 9.23 352.48 11.76Q347.97 14.28 339.92 14.28L339.92 14.28L336.04 14.28L336.04-23.36Q328.93-20.21 321.46-17.58Q313.99-14.94 306.59-13.04L306.59-13.04L305.86-14.72Q315.38-19.41 324.61-25.96Q333.84-32.52 341.67-39.88Q349.51-47.24 355.00-54.49Q360.50-61.74 362.55-67.97L362.55-67.97L391.48-60.72Q391.04-59.25 389.43-58.48Q387.82-57.71 383.86-57.28L383.86-57.28Q389.06-52.95 396.61-49.88Q404.15-46.80 412.76-44.75Q421.36-42.70 430.04-41.56Q438.72-40.43 446.26-40.06L446.26-40.06L446.26-37.79Q439.97-35.67 436.30-29.77Q432.64-23.88 431.98-18.16L431.98-18.16Q428.54-19.26 425.06-20.54Q421.58-21.83 418.36-23.36L418.36-23.36Q417.04-22.05 414.33-21.46L414.33-21.46L414.33 8.57Q414.26 9.16 411.29 10.29Q408.33 11.43 404.26 12.38Q400.20 13.33 396.75 13.33L396.75 13.33L393.02 13.33Z"/>
    </svg>
        