<?xml version="1.0" encoding="UTF-8" standalone="no"?>
        <svg 
    viewBox="10.3271484375 -86.68212890625 448.3154296875 57.82470703125"
    width="437.98828125"
    height="144.5068359375"
   xmlns="http://www.w3.org/2000/svg"
   xmlns:svg="http://www.w3.org/2000/svg">
   <path d="M58.37-42.92L58.37-89.58L58.37-97.34L78.44-89.58L88.48-89.58L88.48-101.22L56.25-101.22Q52.22-94.41 47.02-86.50Q41.82-78.59 36.91-72.58L36.91-72.58Q46.00-66.87 51.27-58.89Q56.54-50.90 58.37-42.92L58.37-42.92ZM10.33 14.43L10.33-116.53L10.33-124.66L32.23-116.53L37.50-116.53L47.24-125.98L66.14-108.91Q64.45-106.79 59.40-106.79L59.40-106.79L58.67-105.47L88.48-105.47L88.48-126.93L114.33-124.37Q114.11-122.75 113.01-121.69Q111.91-120.63 108.76-120.12L108.76-120.12L108.76-105.47L118.95-105.47L129.27-119.53Q129.27-119.53 131.14-117.99Q133.01-116.46 135.90-114.00Q138.79-111.55 141.94-108.80Q145.09-106.05 147.58-103.64L147.58-103.64Q146.92-101.22 143.26-101.22L143.26-101.22L108.76-101.22L108.76-89.58L117.11-89.58L125.83-98.88L143.70-85.47Q143.04-84.74 141.72-83.94Q140.41-83.13 138.28-82.62L138.28-82.62L138.28-39.77Q138.21-39.26 135.50-38.16Q132.79-37.06 129.02-36.15Q125.24-35.23 122.09-35.23L122.09-35.23L118.65-35.23L118.65-43.07L109.94-43.07Q113.96-34.42 120.45-28.56Q126.93-22.71 134.40-19.04Q141.87-15.38 148.97-13.33L148.97-13.33L148.68-12.01Q142.82-10.18 138.87-4.76Q134.91 0.66 133.37 8.13L133.37 8.13Q126.78 2.05 122.06-4.91Q117.33-11.87 114.11-20.73Q110.89-29.59 108.76-41.53L108.76-41.53L108.76 7.03Q108.76 8.13 106.27 9.78Q103.78 11.43 100.01 12.78Q96.24 14.14 92.43 14.14L92.43 14.14L88.48 14.14L88.48-19.63Q79.83-10.84 68.33-3.99Q56.84 2.86 42.77 7.98L42.77 7.98L41.53 6.30Q55.52-2.71 65.59-15.78Q75.66-28.86 81.15-43.07L81.15-43.07L77.56-43.07L77.56-39.62Q77.56-38.67 75.11-37.24Q72.66-35.82 68.88-34.72Q65.11-33.62 61.08-33.62L61.08-33.62L59.25-33.62Q59.03-23.00 53.98-16.66Q48.93-10.33 36.47-10.18L36.47-10.18Q36.47-14.36 35.93-19.26Q35.38-24.17 34.50-26.07L34.50-26.07Q33.40-28.27 30.32-29.74L30.32-29.74L30.32 8.13Q30.32 8.86 28.34 10.36Q26.37 11.87 22.71 13.15Q19.04 14.43 13.92 14.43L13.92 14.43L10.33 14.43ZM88.48-47.24L88.48-64.53L77.56-64.53L77.56-47.24L88.48-47.24ZM118.65-64.53L108.76-64.53L108.76-47.24L118.65-47.24L118.65-64.53ZM77.56-68.70L88.48-68.70L88.48-85.33L77.56-85.33L77.56-68.70ZM108.76-85.33L108.76-68.70L118.65-68.70L118.65-85.33L108.76-85.33ZM38.82-112.35L30.32-112.35L30.32-32.23L35.23-32.23Q37.13-32.23 38.23-33.03L38.23-33.03Q40.80-34.64 40.80-40.65L40.80-40.65Q40.80-48.41 39.11-56.73Q37.43-65.04 33.18-72.14L33.18-72.14Q34.20-77.20 35.34-84.30Q36.47-91.41 37.43-98.88Q38.38-106.35 38.82-112.35L38.82-112.35ZM188.67-39.18L190.06-39.77Q201.34-34.86 207.39-28.97Q213.43-23.07 215.37-17.21Q217.31-11.35 216.10-6.63Q214.89-1.90 211.56 0.77Q208.23 3.44 203.72 3.00Q199.22 2.56 194.68-2.12L194.68-2.12Q195.12-11.57 193.25-21.20Q191.38-30.83 188.67-39.18L188.67-39.18ZM168.46-41.67L167.29-45.92L213.13-45.92L213.13-67.24L240.45-65.11Q240.31-63.72 239.39-62.77Q238.48-61.82 235.62-61.38L235.62-61.38L235.62-45.92L254.52-45.92L265.21-60.42Q265.21-60.42 267.19-58.85Q269.17-57.28 272.20-54.75Q275.24-52.22 278.54-49.40Q281.84-46.58 284.55-44.09L284.55-44.09Q284.18-42.85 282.97-42.26Q281.76-41.67 280.22-41.67L280.22-41.67L168.46-41.67ZM242.87-40.50L242.87-40.50L272.83-32.67Q272.39-31.20 271.03-30.32Q269.68-29.44 266.97-29.52L266.97-29.52Q263.53-24.68 258.65-18.68Q253.78-12.67 248.07-6.48Q242.36-0.29 236.43 5.13L236.43 5.13L265.80 5.13L276.78-9.74Q276.78-9.74 278.76-8.13Q280.74-6.52 283.81-3.96Q286.89-1.39 290.26 1.50Q293.63 4.39 296.41 6.88L296.41 6.88Q295.75 9.30 292.02 9.30L292.02 9.30L155.13 9.30L153.88 5.13L233.86 5.13Q235.69-1.76 237.45-9.85Q239.21-17.94 240.60-25.96Q241.99-33.98 242.87-40.50ZM252.91-74.85L252.91-92.29L197.68-92.29L197.68-74.85L252.91-74.85ZM197.68-96.46L252.91-96.46L252.91-113.23L197.68-113.23L197.68-96.46ZM175.63-60.86L175.63-117.48L175.63-126.27L198.93-117.48L251.37-117.48L261.04-128.10L281.10-112.94Q280.44-112.06 279.02-111.15Q277.59-110.23 275.24-109.79L275.24-109.79L275.24-68.55Q275.17-68.04 272.06-66.87Q268.95-65.70 264.66-64.71Q260.38-63.72 256.79-63.72L256.79-63.72L252.91-63.72L252.91-70.68L197.68-70.68L197.68-67.82Q197.68-66.72 194.86-65.11Q192.04-63.50 187.72-62.18Q183.40-60.86 178.78-60.86L178.78-60.86L175.63-60.86ZM330.32-84.30L329.08-88.48L341.38-88.48L348.49-96.90Q348.49-96.90 350.68-95.25Q352.88-93.60 355.92-91.22Q358.96-88.84 361.52-86.72L361.52-86.72Q361.08-84.30 357.57-84.30L357.57-84.30L330.32-84.30ZM327.61-69.58L326.37-73.83L341.38-73.83L348.93-82.47Q348.93-82.47 351.20-80.79Q353.47-79.10 356.65-76.68Q359.84-74.27 362.55-72.00L362.55-72.00Q361.89-69.58 358.52-69.58L358.52-69.58L327.61-69.58ZM388.04-69.58L386.87-73.83L403.93-73.83L411.77-82.98Q411.77-82.98 414.15-81.19Q416.53-79.39 419.82-76.87Q423.12-74.34 425.83-72.00L425.83-72.00Q425.39-69.58 421.95-69.58L421.95-69.58L388.04-69.58ZM374.41-44.38L373.83-46.36L392.72-46.36L392.72-65.70L418.07-63.43Q417.85-62.11 416.89-61.08Q415.94-60.06 413.09-59.69L413.09-59.69L413.09-46.36L419.68-46.36L428.69-58.67Q428.69-58.67 431.51-56.32Q434.33-53.98 438.10-50.68Q441.87-47.39 444.87-44.53L444.87-44.53Q444.43-42.11 440.84-42.11L440.84-42.11L416.67-42.11Q422.02-33.62 430.63-27.50Q439.23-21.39 448.32-18.16L448.32-18.16L448.02-16.63Q436.74-13.48 432.93 2.71L432.93 2.71Q424.80-4.98 420.48-16.15Q416.16-27.32 413.67-42.11L413.67-42.11L413.09-42.11L413.09 8.72Q413.09 9.45 410.52 10.69Q407.96 11.94 404.11 12.93Q400.27 13.92 396.46 13.92L396.46 13.92L392.72 13.92L392.72-17.72Q386.65-11.50 378.99-6.41Q371.34-1.32 362.11 2.86L362.11 2.86L360.86 1.03Q370.46-7.18 376.57-18.42Q382.69-29.66 385.99-42.11L385.99-42.11L375-42.11L374.41-44.09Q374.19-42.99 373.10-42.41Q372.00-41.82 370.53-41.82L370.53-41.82L350.83-41.82L350.83-37.65Q360.13-36.55 365.26-33.84Q370.39-31.13 372.18-27.72Q373.97-24.32 373.28-21.17Q372.58-18.02 370.09-15.97Q367.60-13.92 364.12-13.88Q360.64-13.84 356.98-16.77L356.98-16.77Q356.98-21.61 355.22-26.55Q353.47-31.49 350.83-35.08L350.83-35.08L350.83 8.86Q350.83 9.59 348.30 10.80Q345.78 12.01 342.04 12.96Q338.31 13.92 334.64 13.92L334.64 13.92L330.91 13.92L330.91-16.77Q319.92-5.42 303.88 2.86L303.88 2.86L302.71 1.03Q310.77-7.25 316.30-18.60Q321.83-29.96 324.90-41.82L324.90-41.82L307.98-41.82L306.74-46.07L330.91-46.07L330.91-65.99L355.81-63.72Q355.59-62.40 354.57-61.41Q353.54-60.42 350.83-59.99L350.83-59.99L350.83-46.07L351.27-46.07L359.55-57.28Q359.55-57.28 362.11-55.19Q364.67-53.10 368.15-50.10Q371.63-47.09 374.41-44.38L374.41-44.38ZM388.48-84.30L387.30-88.48L401.73-88.48L408.91-97.05Q408.91-97.05 410.67-95.80Q412.43-94.56 415.03-92.58Q417.63-90.60 420.12-88.48L420.12-88.48L421.07-99.76L384.89-99.76L384.89-66.28Q384.89-65.77 380.31-64.01Q375.73-62.26 367.53-62.26L367.53-62.26L363.57-62.26L363.57-99.76L327.76-99.76Q329.22-91.19 326.55-85.44Q323.88-79.69 319.34-77.56L319.34-77.56Q315.16-75.66 310.80-77.23Q306.45-78.81 305.13-83.42L305.13-83.42Q303.96-88.04 306.37-91.22Q308.79-94.41 312.74-96.02L312.74-96.02Q316.33-97.78 319.30-102.32Q322.27-106.86 321.61-112.35L321.61-112.35L323.58-112.50Q324.68-110.23 325.49-108.11Q326.29-105.98 326.88-103.93L326.88-103.93L363.57-103.93L363.57-114.48L319.04-114.48L317.87-118.65L406.49-118.65L416.24-130.08Q416.24-130.08 419.24-127.92Q422.24-125.76 426.38-122.68Q430.52-119.60 433.96-116.82L433.96-116.82Q433.30-114.48 429.79-114.48L429.79-114.48L384.89-114.48L384.89-103.93L419.53-103.93L429.13-113.67L445.97-97.78Q445.02-96.75 443.77-96.42Q442.53-96.09 440.26-95.87L440.26-95.87Q436.52-92.72 431.07-88.95Q425.61-85.18 420.92-82.76L420.92-82.76L419.53-83.72L419.68-84.45L418.36-84.30L388.48-84.30Z"/>
    </svg>
        