<?xml version="1.0" encoding="UTF-8" standalone="no"?>
        <svg 
    viewBox="5.56640625 -87.01171875 446.8505859375 57.275390625"
    width="441.2841796875"
    height="144.287109375"
   xmlns="http://www.w3.org/2000/svg"
   xmlns:svg="http://www.w3.org/2000/svg">
   <path d="M6.74 6.45L5.57 2.27L62.55 2.27L62.55-54.57L17.87-54.57L16.63-58.81L62.55-58.81L62.55-108.91L12.60-108.91L11.43-113.09L105.03-113.09L117.11-128.54Q117.11-128.54 119.35-126.86Q121.58-125.17 125.02-122.50Q128.47-119.82 132.20-116.86Q135.94-113.89 139.01-111.33L139.01-111.33Q138.43-108.91 134.69-108.91L134.69-108.91L86.57-108.91L86.57-58.81L101.07-58.81L112.79-73.54Q112.79-73.54 114.92-71.92Q117.04-70.31 120.34-67.79Q123.63-65.26 127.22-62.40Q130.81-59.55 133.81-56.98L133.81-56.98Q133.15-54.57 129.42-54.57L129.42-54.57L86.57-54.57L86.57 2.27L111.04 2.27L123.49-13.48Q123.49-13.48 125.72-11.79Q127.95-10.11 131.47-7.40Q134.99-4.69 138.83-1.65Q142.68 1.39 145.83 4.03L145.83 4.03Q145.17 6.45 141.28 6.45L141.28 6.45L6.74 6.45ZM261.91-69.87L286.96-67.82Q286.52-64.97 282.57-64.38L282.57-64.38L282.57-7.62Q282.57-0.88 280.92 3.70Q279.27 8.28 274.00 10.88Q268.73 13.48 257.89 14.43L257.89 14.43Q257.52 9.89 256.90 6.63Q256.27 3.37 254.74 1.17L254.74 1.17Q252.98-0.81 250.52-2.34Q248.07-3.88 242.72-4.83L242.72-4.83L242.72-6.74Q242.72-6.74 244.78-6.63Q246.83-6.52 249.76-6.37Q252.69-6.23 255.32-6.12Q257.96-6.01 259.06-6.01L259.06-6.01Q260.74-6.01 261.33-6.48Q261.91-6.96 261.91-8.13L261.91-8.13L261.91-69.87ZM233.42-66.72L257.23-64.82Q257.01-63.35 256.05-62.37Q255.10-61.38 252.32-60.86L252.32-60.86L252.32-17.07Q252.32-16.33 249.87-15.12Q247.41-13.92 243.75-12.96Q240.09-12.01 236.43-12.01L236.43-12.01L233.42-12.01L233.42-66.72ZM232.47-115.65L232.47-115.65Q226.90-108.25 218.23-100.93Q209.55-93.60 198.93-87.05Q188.31-80.49 176.81-75.22Q165.31-69.95 154.03-66.58L154.03-66.58L153.15-68.12Q162.89-73.75 172.34-81.37Q181.79-88.99 189.84-97.49Q197.90-105.98 203.50-114.26Q209.11-122.53 211.23-129.42L211.23-129.42L243.02-121.22Q242.43-119.53 240.67-118.69Q238.92-117.85 234.74-117.33L234.74-117.33Q240.09-112.21 247.89-108.58Q255.69-104.96 264.66-102.58Q273.63-100.20 282.53-98.80Q291.43-97.41 298.97-96.75L298.97-96.75L298.83-94.19Q294.21-92.80 290.84-89.21Q287.48-85.62 285.42-81.12Q283.37-76.61 282.71-72.29L282.71-72.29Q272.09-76.68 262.32-82.76Q252.54-88.84 244.81-97.01Q237.08-105.18 232.47-115.65ZM227.27-82.03L237.30-94.19Q237.30-94.19 240.45-91.92Q243.60-89.65 247.92-86.43Q252.25-83.20 255.76-80.27L255.76-80.27Q255.10-77.86 251.51-77.86L251.51-77.86L197.24-77.86L196.07-82.03L227.27-82.03ZM188.82-23.88L188.82 7.47Q188.82 8.50 186.47 10.03Q184.13 11.57 180.32 12.74Q176.51 13.92 172.34 13.92L172.34 13.92L169.34 13.92L169.34-71.41L189.62-63.28L203.25-63.28L211.96-73.17L230.57-59.11Q229.91-58.23 228.41-57.24Q226.90-56.25 224.56-55.81L224.56-55.81L224.56-4.32Q224.56 1.32 223.13 5.27Q221.70 9.23 217.05 11.50Q212.40 13.77 202.81 14.58L202.81 14.58Q202.66 10.62 202.33 7.80Q202.00 4.98 200.98 3.15L200.98 3.15Q199.95 1.61 198.38 0.22Q196.80-1.17 192.92-1.98L192.92-1.98L192.92-3.74Q192.92-3.74 194.79-3.63Q196.66-3.52 198.93-3.41Q201.20-3.30 202.37-3.30L202.37-3.30Q203.83-3.30 204.31-3.92Q204.79-4.54 204.79-5.71L204.79-5.71L204.79-15.45Q202.81-13.33 199.33-12.63Q195.85-11.94 191.97-14.58L191.97-14.58Q191.75-16.92 190.91-19.30Q190.06-21.68 188.82-23.88L188.82-23.88ZM188.82-46.95L188.82-29.37Q195.26-29.30 199.11-27.98Q202.95-26.66 204.79-24.61L204.79-24.61L204.79-37.79Q202.73-35.67 199.29-35.12Q195.85-34.57 192.11-37.06L192.11-37.06Q192.04-39.62 191.05-42.22Q190.06-44.82 188.82-46.95L188.82-46.95ZM188.82-59.11L188.82-51.64Q195.26-51.49 199.11-50.17Q202.95-48.85 204.79-46.80L204.79-46.80L204.79-59.11L188.82-59.11ZM393.02-87.60L390.89-91.63L370.02-91.63Q367.60-88.70 364.71-85.99Q361.82-83.28 358.81-80.71L358.81-80.71L362.84-79.17L384.89-79.17L393.02-87.60ZM408.18-128.54L408.18-128.54L425.24-111.04Q422.31-108.54 415.06-111.62L415.06-111.62Q407.89-110.67 399.35-109.83Q390.82-108.98 381.45-108.33L381.45-108.33Q378.08-101.88 373.54-95.87L373.54-95.87L413.82-95.87L424.95-109.20Q424.95-109.20 427.00-107.74Q429.05-106.27 432.28-103.97Q435.50-101.66 439.05-99.02Q442.60-96.39 445.53-94.04L445.53-94.04Q444.87-91.63 441.14-91.63L441.14-91.63L395.43-91.63Q401.44-87.30 409.94-84.08Q418.43-80.86 427.99-78.88Q437.55-76.90 446.85-76.17L446.85-76.17L446.70-74.56Q441.28-72.95 437.51-68.15Q433.74-63.35 432.28-55.96L432.28-55.96Q416.53-61.30 405.91-71.26L405.91-71.26L405.91-54.42Q405.83-53.76 403.13-52.59Q400.42-51.42 396.72-50.46Q393.02-49.51 389.87-49.51L389.87-49.51L386.43-49.51L386.43-55.66L362.11-55.66L362.11-53.10Q362.11-52.37 359.62-51.05Q357.13-49.73 353.32-48.63Q349.51-47.53 345.63-47.53L345.63-47.53L343.07-47.53L343.07-70.17Q334.13-65.11 323.95-61.27Q313.77-57.42 302.42-54.57L302.42-54.57L301.83-56.25Q316.33-62.92 327.80-72.00Q339.26-81.08 346.66-91.63L346.66-91.63L306.01-91.63L304.83-95.87L349.51-95.87Q351.05-98.58 352.48-101.26Q353.91-103.93 354.93-106.64L354.93-106.64Q344.75-106.35 334.57-106.13Q324.39-105.91 314.87-106.05L314.87-106.05L314.58-108.33Q326.37-109.86 339.40-112.21Q352.44-114.55 365.22-117.30Q378.00-120.04 389.10-122.94Q400.20-125.83 408.18-128.54ZM347.53 2.86L347.53-30.03L347.53-37.50L367.24-30.03L381.88-30.03L390.45-39.18L408.18-25.93Q407.59-25.20 406.27-24.32Q404.96-23.44 402.91-23.07L402.91-23.07L402.91-6.45L410.52-6.15Q413.09-6.15 413.09-8.72L413.09-8.72L413.09-40.50L338.23-40.50L338.23 7.62Q338.23 8.64 335.52 10.22Q332.81 11.79 328.64 13.04Q324.46 14.28 320.07 14.28L320.07 14.28L316.92 14.28L316.92-53.39L339.92-44.68L411.62-44.68L420.92-55.22L440.70-40.21Q440.04-39.33 438.61-38.42Q437.18-37.50 434.84-37.06L434.84-37.06L434.84-6.59Q434.84-0.29 433.19 4.21Q431.54 8.72 426.27 11.35Q421.00 13.99 410.08 14.87L410.08 14.87Q409.86 10.25 409.39 6.85Q408.91 3.44 407.52 1.17L407.52 1.17Q406.64-0.15 405.51-1.28Q404.37-2.42 402.47-3.30L402.47-3.30Q401.44-2.56 398.80-1.54Q396.17-0.51 392.91 0.26Q389.65 1.03 386.87 1.03L386.87 1.03L383.42 1.03L383.42-6.01L366.58-6.01L366.58-2.71Q366.58-1.98 364.12-0.62Q361.67 0.73 357.86 1.79Q354.05 2.86 350.10 2.86L350.10 2.86L347.53 2.86ZM386.43-59.84L386.43-75L362.11-75L362.11-59.84L386.43-59.84ZM383.42-10.18L383.42-25.78L366.58-25.78L366.58-10.18L383.42-10.18Z"/>
    </svg>
        