<?xml version="1.0" encoding="UTF-8" standalone="no"?>
        <svg 
    viewBox="3.0029296875 -85.3271484375 447.8759765625 57.0556640625"
    width="444.873046875"
    height="142.3828125"
   xmlns="http://www.w3.org/2000/svg"
   xmlns:svg="http://www.w3.org/2000/svg">
   <path d="M28.05-90.01L28.05-128.10L54.57-125.54Q54.35-123.85 53.28-122.75Q52.22-121.66 49.07-121.22L49.07-121.22L49.07-90.89L57.42-102.91Q57.42-102.91 59.73-100.85Q62.04-98.80 65.30-95.84Q68.55-92.87 71.41-90.01L71.41-90.01L90.89-90.01L90.89-127.81L117.48-125.24Q117.26-123.71 116.16-122.53Q115.06-121.36 111.91-120.92L111.91-120.92L111.91-90.01L119.68-90.01L129.27-103.34Q129.27-103.34 131.03-101.88Q132.79-100.42 135.50-98.07Q138.21-95.73 141.14-93.13Q144.07-90.53 146.41-88.18L146.41-88.18Q145.75-85.77 142.24-85.77L142.24-85.77L115.21-85.77Q119.90-69.95 128.94-58.19Q137.99-46.44 148.83-40.80L148.83-40.80L148.83-38.96Q141.72-33.62 138.21-26.66Q134.69-19.70 133.67-10.99L133.67-10.99Q127.15-19.12 122.94-31.16Q118.73-43.21 116.24-57.31Q113.75-71.41 112.35-85.77L112.35-85.77L111.91-85.77L111.91 6.59Q111.91 7.62 109.28 9.38Q106.64 11.13 102.76 12.52Q98.88 13.92 94.92 13.92L94.92 13.92L90.89 13.92L90.89-43.80Q77.05-23.80 54.79-9.74L54.79-9.74L53.10-11.28Q61.96-20.80 68.63-32.96Q75.29-45.12 79.87-58.63Q84.45-72.14 87.01-85.77L87.01-85.77L71.41-85.77L71.26-86.28Q70.39-85.77 69.14-85.77L69.14-85.77L49.07-85.77L49.07-77.86Q59.03-74.63 64.38-70.31Q69.73-65.99 71.37-61.49Q73.02-56.98 71.89-53.17Q70.75-49.37 67.79-47.20Q64.82-45.04 60.90-45.41Q56.98-45.78 53.10-49.66L53.10-49.66Q53.54-55.74 52.29-61.96Q51.05-68.19 49.07-73.54L49.07-73.54L49.07 8.28Q49.07 9.08 46.51 10.47Q43.95 11.87 40.10 13.00Q36.25 14.14 32.23 14.14L32.23 14.14L28.05 14.14L28.05-43.07Q23.22-36.84 17.36-31.27Q11.50-25.71 4.61-20.87L4.61-20.87L3.00-22.34Q9.16-30.69 13.81-41.05Q18.46-51.42 21.68-62.88Q24.90-74.34 26.88-85.77L26.88-85.77L6.59-85.77L5.42-90.01L28.05-90.01ZM181.05-80.86L183.03-81.45Q195.19-71.48 202.26-61.05Q209.33-50.61 212.11-40.94Q214.89-31.27 214.23-23.66Q213.57-16.04 210.39-11.61Q207.20-7.18 202.29-7.18Q197.39-7.18 191.67-12.89L191.67-12.89Q192.26-29.66 188.96-47.20Q185.67-64.75 181.05-80.86L181.05-80.86ZM161.28-90.31L160.03-94.48L213.28-94.48L213.28-125.68L241.19-123.63Q241.11-122.17 240.01-121.07Q238.92-119.97 235.77-119.38L235.77-119.38L235.77-94.48L257.89-94.48L269.82-109.79Q269.82-109.79 272.06-108.14Q274.29-106.49 277.70-103.86Q281.10-101.22 284.84-98.25Q288.57-95.29 291.58-92.72L291.58-92.72Q290.92-90.31 287.11-90.31L287.11-90.31L161.28-90.31ZM245.43-83.86L245.43-83.86L276.64-76.98Q276.12-75.51 274.84-74.41Q273.56-73.32 270.63-73.17L270.63-73.17Q266.97-63.21 261.69-50.17Q256.42-37.13 249.98-23.36Q243.53-9.59 236.43 2.56L236.43 2.56L262.21 2.56L274.66-13.18Q274.66-13.18 276.93-11.46Q279.20-9.74 282.68-7.07Q286.16-4.39 290.00-1.35Q293.85 1.68 297.00 4.32L297.00 4.32Q296.34 6.74 292.53 6.74L292.53 6.74L155.13 6.74L153.88 2.56L231.74 2.56Q233.86-7.18 235.84-18.42Q237.82-29.66 239.65-41.27Q241.48-52.88 242.94-63.79Q244.41-74.71 245.43-83.86ZM329.74-45.63L329.74-66.58L354.57-64.38Q354.35-62.99 353.36-62.04Q352.37-61.08 349.66-60.57L349.66-60.57L349.66-45.63L351.12-45.63L359.69-58.08Q359.69-58.08 361.89-56.10Q364.09-54.13 367.16-51.23Q370.24-48.34 373.02-45.63L373.02-45.63L393.16-45.63L393.16-66.28L418.36-64.01Q418.14-62.70 417.19-61.67Q416.24-60.64 413.53-60.28L413.53-60.28L413.53-45.63L418.51-45.63L428.10-59.40Q428.10-59.40 429.86-57.90Q431.62-56.40 434.33-53.98Q437.04-51.56 439.97-48.85Q442.90-46.14 445.17-43.80L445.17-43.80Q444.80-41.38 441.14-41.38L441.14-41.38L415.36-41.38Q420.56-32.15 429.38-25.60Q438.21-19.04 447.88-15.89L447.88-15.89L447.58-14.28Q436.08-11.06 432.42 5.27L432.42 5.27Q424.80-1.76 420.48-11.46Q416.16-21.17 413.53-34.20L413.53-34.20L413.53 8.86Q413.53 9.59 410.96 10.80Q408.40 12.01 404.55 12.96Q400.71 13.92 396.90 13.92L396.90 13.92L393.16 13.92L393.16-19.78Q386.28-12.38 377.45-6.30Q368.63-0.22 358.23 4.61L358.23 4.61L356.98 2.86Q367.02-5.71 374.27-17.36Q381.52-29.00 385.62-41.38L385.62-41.38L373.02-41.38L372.88-41.82Q372.00-41.38 370.83-41.38L370.83-41.38L349.66-41.38L349.66-38.38Q359.18-37.13 364.42-34.31Q369.65-31.49 371.37-28.09Q373.10-24.68 372.22-21.53Q371.34-18.38 368.66-16.37Q365.99-14.36 362.33-14.43Q358.67-14.50 354.93-17.58L354.93-17.58Q354.79-22.27 353.28-27.06Q351.78-31.86 349.66-35.67L349.66-35.67L349.66 8.86Q349.66 9.59 347.13 10.84Q344.60 12.08 340.87 13.11Q337.13 14.14 333.47 14.14L333.47 14.14L329.74 14.14L329.74-14.43Q324.32-9.01 317.83-4.28Q311.35 0.44 304.03 4.47L304.03 4.47L302.71 2.71Q310.91-5.86 316.59-17.61Q322.27-29.37 325.49-41.38L325.49-41.38L306.45-41.38L305.27-45.63L329.74-45.63ZM362.84-109.64L362.84-128.25L390.60-125.83Q390.38-124.37 389.28-123.23Q388.18-122.09 385.03-121.66L385.03-121.66L385.03-109.64L407.89-109.64L418.51-123.78Q418.51-123.78 420.48-122.20Q422.46-120.63 425.50-118.21Q428.54-115.80 431.84-113.05Q435.13-110.30 437.84-107.89L437.84-107.89Q437.62-106.64 436.41-106.05Q435.21-105.47 433.67-105.47L433.67-105.47L390.01-105.47Q396.17-99.98 404.92-95.76Q413.67-91.55 423.60-88.70Q433.52-85.84 443.12-84.59L443.12-84.59L442.97-82.98Q437.33-81.37 433.37-76.57Q429.42-71.78 427.95-64.38L427.95-64.38Q412.65-70.46 402.43-80.60Q392.21-90.75 385.77-105.47L385.77-105.47L385.03-105.47L385.03-65.99Q385.03-65.26 382.25-64.09Q379.47-62.92 375.22-62.00Q370.97-61.08 366.58-61.08L366.58-61.08L362.84-61.08L362.84-90.89Q353.03-82.03 339.73-75.37Q326.44-68.70 310.47-64.23L310.47-64.23L309.45-65.84Q322.85-73.02 333.07-83.57Q343.29-94.12 349.37-105.47L349.37-105.47L314.72-105.47L313.48-109.64L362.84-109.64Z"/>
    </svg>
        