<?xml version="1.0" encoding="UTF-8" standalone="no"?>
        <svg 
    viewBox="3.0029296875 -85.9130859375 447.29216202445656 56.7626953125"
    width="444.28923233695656"
    height="142.67578125"
   xmlns="http://www.w3.org/2000/svg"
   xmlns:svg="http://www.w3.org/2000/svg">
   <path d="M28.05-90.01L28.05-128.10L54.57-125.54Q54.35-123.85 53.28-122.75Q52.22-121.66 49.07-121.22L49.07-121.22L49.07-90.89L57.42-102.91Q57.42-102.91 59.73-100.85Q62.04-98.80 65.30-95.84Q68.55-92.87 71.41-90.01L71.41-90.01L90.89-90.01L90.89-127.81L117.48-125.24Q117.26-123.71 116.16-122.53Q115.06-121.36 111.91-120.92L111.91-120.92L111.91-90.01L119.68-90.01L129.27-103.34Q129.27-103.34 131.03-101.88Q132.79-100.42 135.50-98.07Q138.21-95.73 141.14-93.13Q144.07-90.53 146.41-88.18L146.41-88.18Q145.75-85.77 142.24-85.77L142.24-85.77L115.21-85.77Q119.90-69.95 128.94-58.19Q137.99-46.44 148.83-40.80L148.83-40.80L148.83-38.96Q141.72-33.62 138.21-26.66Q134.69-19.70 133.67-10.99L133.67-10.99Q127.15-19.12 122.94-31.16Q118.73-43.21 116.24-57.31Q113.75-71.41 112.35-85.77L112.35-85.77L111.91-85.77L111.91 6.59Q111.91 7.62 109.28 9.38Q106.64 11.13 102.76 12.52Q98.88 13.92 94.92 13.92L94.92 13.92L90.89 13.92L90.89-43.80Q77.05-23.80 54.79-9.74L54.79-9.74L53.10-11.28Q61.96-20.80 68.63-32.96Q75.29-45.12 79.87-58.63Q84.45-72.14 87.01-85.77L87.01-85.77L71.41-85.77L71.26-86.28Q70.39-85.77 69.14-85.77L69.14-85.77L49.07-85.77L49.07-77.86Q59.03-74.63 64.38-70.31Q69.73-65.99 71.37-61.49Q73.02-56.98 71.89-53.17Q70.75-49.37 67.79-47.20Q64.82-45.04 60.90-45.41Q56.98-45.78 53.10-49.66L53.10-49.66Q53.54-55.74 52.29-61.96Q51.05-68.19 49.07-73.54L49.07-73.54L49.07 8.28Q49.07 9.08 46.51 10.47Q43.95 11.87 40.10 13.00Q36.25 14.14 32.23 14.14L32.23 14.14L28.05 14.14L28.05-43.07Q23.22-36.84 17.36-31.27Q11.50-25.71 4.61-20.87L4.61-20.87L3.00-22.34Q9.16-30.69 13.81-41.05Q18.46-51.42 21.68-62.88Q24.90-74.34 26.88-85.77L26.88-85.77L6.59-85.77L5.42-90.01L28.05-90.01ZM156.74-89.72L155.57-93.90L213.57-93.90L213.57-127.37L241.63-125.24Q241.41-123.71 240.34-122.61Q239.28-121.51 236.13-121.07L236.13-121.07L236.13-93.90L261.04-93.90L273.12-110.38Q273.12-110.38 275.35-108.62Q277.59-106.86 280.96-104.04Q284.33-101.22 287.99-98.03Q291.65-94.85 294.58-92.07L294.58-92.07Q293.92-89.72 290.26-89.72L290.26-89.72L271.07-89.72Q266.75-72.14 258.87-56.65Q251.00-41.16 238.48-28.20L238.48-28.20Q251.00-20.36 265.47-15.16Q279.93-9.96 295.17-6.45L295.17-6.45L294.87-4.47Q286.67-3.37 280.92 1.54Q275.17 6.45 272.09 14.58L272.09 14.58Q257.96 9.16 245.84 1.87Q233.72-5.42 223.97-15.45L223.97-15.45Q210.64-5.42 193.40 2.05Q176.15 9.52 154.32 14.14L154.32 14.14L153.59 12.74Q173.14 5.13 188.23-4.91Q203.32-14.94 214.23-27.03L214.23-27.03Q205.52-38.67 199.37-54.16Q193.21-69.65 189.77-89.72L189.77-89.72L156.74-89.72ZM244.34-89.72L192.33-89.72Q196.95-73.24 205.04-60.79Q213.13-48.34 223.83-38.96L223.83-38.96Q232.03-50.61 237.05-63.35Q242.07-76.10 244.34-89.72L244.34-89.72ZM324.90-83.28L324.90-83.28L326.37-83.42Q333.18-69.80 334.39-59.18Q335.60-48.56 333.11-40.94Q330.62-33.33 326.07-28.78L326.07-28.78Q323.00-25.42 319.15-24.54Q315.31-23.66 311.76-25.01Q308.20-26.37 306.01-29.74L306.01-29.74Q303.30-34.20 304.69-38.53Q306.08-42.85 309.89-45.92L309.89-45.92Q313.77-48.63 317.32-54.13Q320.87-59.62 323.03-67.13Q325.20-74.63 324.90-83.28ZM345.78-124.22L346.22-125.68Q362.33-125.54 372.91-122.79Q383.50-120.04 389.43-115.72Q395.36-111.40 397.49-106.53Q399.61-101.66 398.69-97.23Q397.78-92.80 394.74-89.76Q391.70-86.72 387.27-86.10Q382.84-85.47 378.00-88.33L378.00-88.33Q376.32-93.16 372.25-99.43Q368.19-105.69 361.60-112.21Q355.00-118.73 345.78-124.22L345.78-124.22ZM408.33-83.57L409.35-84.59Q423.41-78.88 431.69-72.22Q439.97-65.55 443.59-58.74Q447.22-51.93 447.29-45.89Q447.36-39.84 444.91-35.34Q442.46-30.83 438.50-28.67Q434.55-26.51 430.11-27.58Q425.68-28.64 421.95-33.76L421.95-33.76Q422.39-40.72 421.47-49.48Q420.56-58.23 417.48-67.13Q414.40-76.03 408.33-83.57L408.33-83.57ZM343.51-10.62L343.51-94.48L370.53-91.92Q370.24-90.45 369.10-89.39Q367.97-88.33 365.26-87.89L365.26-87.89L365.26-17.43Q365.26-14.94 366.72-13.99Q368.19-13.04 372.14-13.04L372.14-13.04L387.60-13.04Q391.11-13.04 394.19-13.07Q397.27-13.11 399.17-13.33L399.17-13.33Q400.93-13.48 402.17-13.95Q403.42-14.43 404.37-15.75L404.37-15.75Q406.05-18.09 408.40-23.77Q410.74-29.44 413.53-37.35L413.53-37.35L415.06-37.35L415.65-14.87Q420.26-12.96 421.88-10.84Q423.49-8.72 423.49-5.57L423.49-5.57Q423.49-0.66 420.15 2.56Q416.82 5.79 408.51 7.40Q400.20 9.01 385.18 9.01L385.18 9.01L368.26 9.01Q358.89 9.01 353.47 7.47Q348.05 5.93 345.78 1.68Q343.51-2.56 343.51-10.62L343.51-10.62Z"/>
    </svg>
        