<?xml version="1.0" encoding="UTF-8" standalone="no"?>
        <svg 
    viewBox="3.8818359375 -85.7666015625 446.8505859375 56.9091796875"
    width="442.96875"
    height="142.67578125"
   xmlns="http://www.w3.org/2000/svg"
   xmlns:svg="http://www.w3.org/2000/svg">
   <path d="M5.13-109.20L4.03-113.38L38.67-113.38L38.67-128.25L64.53-125.98Q64.38-124.51 63.35-123.52Q62.33-122.53 59.40-122.09L59.40-122.09L59.40-113.38L89.14-113.38L89.14-128.25L115.36-125.98Q115.21-124.51 114.11-123.52Q113.01-122.53 110.08-122.09L110.08-122.09L110.08-113.38L119.82-113.38L128.98-125.24Q128.98-125.24 131.87-123.01Q134.77-120.78 138.68-117.63Q142.60-114.48 145.68-111.62L145.68-111.62Q145.02-109.20 141.58-109.20L141.58-109.20L110.08-109.20L110.08-103.64Q110.08-102.61 105.10-101.48Q100.12-100.34 92.58-100.34L92.58-100.34L89.14-100.34L89.14-109.20L59.40-109.20L59.40-103.05Q59.40-102.03 54.49-100.82Q49.58-99.61 42.11-99.61L42.11-99.61L38.67-99.61L38.67-109.20L5.13-109.20ZM19.04-31.05L19.04-55.08L42.77-52.81Q42.55-51.34 41.46-50.35Q40.36-49.37 37.79-48.93L37.79-48.93L37.79-39.62L42.92-39.62L42.92-55.08L62.99-53.25Q62.92-52.22 62.18-51.49Q61.45-50.76 59.40-50.39L59.40-50.39L59.40-35.52Q59.40-35.01 57.28-34.17Q55.15-33.33 52.04-32.63Q48.93-31.93 45.92-31.93L45.92-31.93L42.92-31.93L42.92-35.38L37.79-35.38L37.79-30.91L37.65-26.73L64.23-26.73L64.23-60.28L22.49-60.28L21.17-64.53L64.23-64.53L64.23-74.71L5.13-74.71L3.88-78.88L64.23-78.88L64.23-88.77L23.58-88.77L22.19-93.02L64.23-93.02L64.23-106.05L89.14-103.64Q88.84-102.39 87.96-101.55Q87.08-100.71 84.74-100.34L84.74-100.34L84.74-93.02L102.76-93.02L111.18-101.88L128.39-88.92Q127.81-88.26 126.67-87.56Q125.54-86.87 123.63-86.43L123.63-86.43L123.63-78.88L124.22-78.88L132.57-89.72Q132.57-89.72 135.21-87.67Q137.84-85.62 141.39-82.69Q144.95-79.76 147.88-77.12L147.88-77.12Q147.22-74.71 143.85-74.71L143.85-74.71L123.63-74.71L123.63-60.57Q123.56-60.06 120.81-59.07Q118.07-58.08 114.33-57.24Q110.60-56.40 107.52-56.40L107.52-56.40L104.08-56.40L104.08-60.28L84.74-60.28L84.74-26.73L111.77-26.73L111.77-35.38L106.20-35.38Q105.98-34.86 103.86-34.06Q101.73-33.25 98.73-32.59Q95.73-31.93 92.87-31.93L92.87-31.93L89.72-31.93L89.72-55.08L110.08-53.25Q109.86-52.22 109.13-51.45Q108.40-50.68 106.35-50.24L106.35-50.24L106.35-39.62L111.77-39.62L111.77-54.93L136.82-52.66Q136.60-51.20 135.50-50.06Q134.40-48.93 131.25-48.49L131.25-48.49L131.25 9.74Q131.25 10.40 128.80 11.54Q126.34 12.67 122.64 13.55Q118.95 14.43 115.21 14.43L115.21 14.43L111.77 14.43L111.77-9.16L106.93-9.16L106.93 6.01Q106.93 6.67 104.66 7.87Q102.39 9.08 98.99 10.11Q95.58 11.13 92.07 11.13L92.07 11.13L89.72 11.13L89.72-20.21L107.37-13.33L111.77-13.33L111.77-22.49L84.74-22.49L84.74 9.01Q84.74 9.74 82.21 10.99Q79.69 12.23 75.95 13.26Q72.22 14.28 68.55 14.28L68.55 14.28L64.23 14.28L64.23-22.49L37.21-22.49Q36.47-17.72 34.94-13.33L34.94-13.33L40.94-13.33L48.12-20.73L63.13-9.74Q62.70-9.16 61.71-8.57Q60.72-7.98 59.25-7.62L59.25-7.62L59.25 7.18Q59.18 7.76 56.80 8.79Q54.42 9.81 51.12 10.62Q47.83 11.43 45.12 11.43L45.12 11.43L42.11 11.43L42.11-9.16L33.47-9.16Q30.40-2.27 24.50 3.70Q18.60 9.67 8.72 13.92L8.72 13.92L7.47 12.60Q12.60 6.45 15.05-0.92Q17.50-8.28 18.27-16.04Q19.04-23.80 19.04-31.05L19.04-31.05ZM104.08-78.88L104.08-88.77L84.74-88.77L84.74-78.88L104.08-78.88ZM84.74-64.53L104.08-64.53L104.08-74.71L84.74-74.71L84.74-64.53ZM222.14-127.66L222.14-127.66L247.78-117.33Q246.31-114.33 241.48-114.77L241.48-114.77Q234.89-103.71 226.43-95.40Q217.97-87.08 208.08-81.59L208.08-81.59L206.40-82.76Q211.16-91.04 215.41-103.09Q219.65-115.14 222.14-127.66ZM252.47-126.12L253.78-126.93Q266.89-123.71 274.66-118.76Q282.42-113.82 285.83-108.33Q289.23-102.83 289.20-97.89Q289.16-92.94 286.56-89.72Q283.96-86.50 279.68-86.06Q275.39-85.62 270.48-89.28L270.48-89.28Q268.43-98.80 263.20-108.65Q257.96-118.51 252.47-126.12L252.47-126.12ZM258.62 1.46L236.57 1.46L236.57 8.57Q236.57 9.59 232.18 11.94Q227.78 14.28 219.87 14.28L219.87 14.28L216.14 14.28L216.14-36.62Q212.40-33.76 208.52-31.24Q204.64-28.71 200.68-26.51L200.68-26.51L199.80-27.76Q206.03-34.64 211.74-43.65Q217.46-52.66 222.07-62.59Q226.68-72.51 229.72-82.03Q232.76-91.55 233.72-99.46L233.72-99.46L262.94-93.16Q262.65-91.70 261.25-90.86Q259.86-90.01 256.49-89.72L256.49-89.72Q260.38-79.98 267.22-72.14Q274.07-64.31 282.24-58.70Q290.41-53.10 298.17-49.95L298.17-49.95L298.17-48.12Q291.21-45.92 287.18-39.92Q283.15-33.91 281.98-27.17L281.98-27.17L278.54-30.62L278.54 6.01Q278.47 6.81 275.90 8.50Q273.34 10.18 269.57 11.61Q265.80 13.04 262.21 13.04L262.21 13.04L258.62 13.04L258.62 1.46ZM236.57-40.21L236.57-2.71L258.62-2.71L258.62-40.21L236.57-40.21ZM254.74-88.04L254.74-88.04Q250.85-76.68 244.15-66.54Q237.45-56.40 229.03-47.83L229.03-47.83L238.62-44.38L257.52-44.38L264.92-51.93Q257.45-67.97 254.74-88.04ZM201.27-80.27L201.27-80.27L218.99-70.17Q218.33-68.99 216.72-68.41Q215.11-67.82 212.84-68.41L212.84-68.41Q209.84-66.14 206.47-64.16Q203.10-62.18 199.51-60.57L199.51-60.57Q205.81-57.06 208.45-53.03Q211.08-49.00 210.83-45.34Q210.57-41.67 208.34-39.29Q206.10-36.91 202.70-36.73Q199.29-36.55 195.63-39.48L195.63-39.48Q195.04-44.17 193.14-49.22Q191.24-54.27 188.96-58.81L188.96-58.81L188.96 8.28Q188.96 8.86 187.02 10.25Q185.08 11.65 181.49 12.89Q177.91 14.14 173.07 14.14L173.07 14.14L169.48 14.14L169.48-44.53Q161.72-38.38 153.00-33.47L153.00-33.47L151.68-35.08Q159.01-42.92 165.45-52.88Q171.90-62.84 176.88-73.61Q181.86-84.38 184.79-94.63L184.79-94.63L156.30-94.63L154.98-98.88L169.48-98.88L169.48-128.25L194.38-126.27Q194.17-124.73 193.10-123.63Q192.04-122.53 188.96-122.09L188.96-122.09L188.96-101.22L196.80-108.91L211.52-94.48Q210.42-92.50 205.81-92.07L205.81-92.07Q202.88-85.11 198.82-78.19Q194.75-71.26 189.48-64.67L189.48-64.67Q191.16-64.23 192.63-63.68Q194.09-63.13 195.48-62.55L195.48-62.55Q197.02-66.06 198.56-70.75Q200.10-75.44 201.27-80.27ZM408.47-26.37L409.64-27.17Q422.61-25.71 430.37-22.01Q438.13-18.31 441.61-13.62Q445.09-8.94 445.17-4.43Q445.24 0.07 442.75 3.26Q440.26 6.45 435.97 7.10Q431.69 7.76 426.64 4.61L426.64 4.61Q424.15-3.59 418.87-11.90Q413.60-20.21 408.47-26.37L408.47-26.37ZM331.35-26.37L331.35-26.37L333.18-26.22Q335.74-17.43 334.97-10.44Q334.20-3.44 331.09 1.21Q327.98 5.86 323.58 7.76L323.58 7.76Q320.58 9.23 317.03 8.86Q313.48 8.50 310.62 6.41Q307.76 4.32 306.88 0.59L306.88 0.59Q305.64-4.47 308.35-8.06Q311.06-11.65 315.31-13.33L315.31-13.33Q318.46-14.28 321.90-16.19Q325.34-18.09 327.98-20.69Q330.62-23.29 331.35-26.37ZM328.05-123.27L328.05-123.27L329.88-123.27Q330.83-120.70 331.46-118.25Q332.08-115.80 332.37-113.53L332.37-113.53L364.82-113.53L364.82-126.78L391.63-124.80Q391.41-123.34 390.34-122.24Q389.28-121.14 386.13-120.63L386.13-120.63L386.13-113.53L418.95-113.53L429.27-123.78L446.85-106.93Q445.97-106.05 444.73-105.65Q443.48-105.25 441.14-105.18L441.14-105.18Q436.74-102.03 430.30-98.14Q423.85-94.26 418.65-91.77L418.65-91.77L417.48-92.72L417.77-94.04L408.18-94.04Q410.08-92.58 414.44-89.21Q418.80-85.84 422.24-82.76L422.24-82.76Q421.80-80.42 418.21-80.42L418.21-80.42L386.13-80.42L386.13-70.83L414.77-70.83L424.22-82.47Q424.22-82.47 427.15-80.27Q430.08-78.08 434.11-74.93Q438.13-71.78 441.43-68.99L441.43-68.99Q440.77-66.58 437.26-66.58L437.26-66.58L417.11-66.58L432.28-55.52Q431.76-54.86 430.59-54.09Q429.42-53.32 427.51-52.95L427.51-52.95L427.51-34.50Q427.51-33.84 424.73-32.59Q421.95-31.35 418.03-30.29Q414.11-29.22 410.67-29.22L410.67-29.22L406.93-29.22L406.93-34.35L343.95-34.35L343.95-32.52Q343.95-31.71 341.27-30.32Q338.60-28.93 334.57-27.83Q330.54-26.73 326.37-26.73L326.37-26.73L323.73-26.73L323.73-66.58L314.58-66.58L313.33-70.83L364.82-70.83L364.82-80.42L328.64-80.42L327.47-84.59L364.82-84.59L364.82-94.04L329.08-94.04Q326.51-90.31 322.78-88.48L322.78-88.48Q319.85-87.01 316.59-87.23Q313.33-87.45 310.69-89.32Q308.06-91.19 307.03-94.63L307.03-94.63Q305.79-99.39 308.24-102.80Q310.69-106.20 314.87-108.03L314.87-108.03Q317.72-109.06 320.69-111.29Q323.66-113.53 325.74-116.60Q327.83-119.68 328.05-123.27ZM398.73-84.59L406.20-94.04L386.13-94.04L386.13-84.59L398.73-84.59ZM364.82-98.22L364.82-107.37L390.31-105.32Q390.16-104.08 389.32-103.20Q388.48-102.32 386.13-101.88L386.13-101.88L386.13-98.22L398.22-98.22L406.93-109.06L418.80-99.90L420.12-109.35L332.89-109.35Q333.11-103.13 331.20-98.22L331.20-98.22L364.82-98.22ZM412.35-66.58L326.51-66.58L345.26-59.55L405.62-59.55L412.35-66.58ZM343.95-55.37L343.95-38.53L352.66-38.53L352.66-55.37L343.95-55.37ZM406.93-38.53L406.93-55.37L397.78-55.37L397.78-38.53L406.93-38.53ZM379.47-55.37L370.68-55.37L370.68-38.53L379.47-38.53L379.47-55.37ZM360.86-29.52L361.96-30.47Q372.88-32.08 379.72-30.73Q386.57-29.37 389.98-26.29Q393.38-23.22 393.90-19.59Q394.41-15.97 392.58-12.93Q390.75-9.89 387.16-8.64Q383.57-7.40 378.74-9.16L378.74-9.16Q376.83-12.89 373.68-16.85Q370.53-20.80 367.02-24.17L367.02-24.17Q366.58-21.31 362.55-20.73L362.55-20.73L362.55-8.28Q362.55-6.88 363.35-6.45Q364.16-6.01 367.53-6.01L367.53-6.01L383.28-6.01Q386.94-6.01 390.31-6.01Q393.68-6.01 395.21-6.15L395.21-6.15Q398.44-6.37 399.90-7.76L399.90-7.76Q401.15-9.23 402.94-12.41Q404.74-15.60 406.93-20.58L406.93-20.58L408.62-20.58L409.06-7.62Q413.09-6.15 414.44-4.36Q415.80-2.56 415.80 0L415.80 0Q415.80 4.03 412.79 6.56Q409.79 9.08 402.21 10.25Q394.63 11.43 380.86 11.43L380.86 11.43L363.57 11.43Q355.08 11.43 350.61 10.14Q346.14 8.86 344.53 5.53Q342.92 2.20 342.92-4.03L342.92-4.03L342.92-26.22L366.72-24.46Q365.19-25.93 363.72-27.25Q362.26-28.56 360.86-29.52L360.86-29.52Z"/>
    </svg>
        