<?xml version="1.0" encoding="UTF-8" standalone="no"?>
        <svg 
    viewBox="4.0283203125 -85.7666015625 449.267578125 56.9091796875"
    width="445.2392578125"
    height="142.67578125"
   xmlns="http://www.w3.org/2000/svg"
   xmlns:svg="http://www.w3.org/2000/svg">
   <path d="M23.07-31.64L23.07-90.60L23.07-99.32L46.22-90.60L63.13-90.60L63.13-128.25L90.45-126.12Q90.31-124.66 89.39-123.67Q88.48-122.68 85.62-122.24L85.62-122.24L85.62-109.94L104.52-109.94L116.09-124.22Q116.09-124.22 118.18-122.64Q120.26-121.07 123.52-118.62Q126.78-116.16 130.37-113.38Q133.96-110.60 136.96-108.18L136.96-108.18Q136.30-105.76 132.57-105.76L132.57-105.76L85.62-105.76L85.62-90.60L102.91-90.60L112.65-101.22L132.42-86.13Q131.69-85.18 130.26-84.30Q128.83-83.42 126.42-82.98L126.42-82.98L126.42-40.21Q126.34-39.55 123.38-38.12Q120.41-36.69 116.20-35.52Q111.99-34.35 108.18-34.35L108.18-34.35L104.37-34.35L104.37-41.82L85.62-41.82L85.62-22.49L113.09-22.49L124.95-37.21Q124.95-37.21 127.11-35.60Q129.27-33.98 132.64-31.46Q136.01-28.93 139.75-26.07Q143.48-23.22 146.56-20.73L146.56-20.73Q145.90-18.31 142.02-18.31L142.02-18.31L85.62-18.31L85.62 9.59Q85.55 10.25 80.79 12.08Q76.03 13.92 67.38 13.92L67.38 13.92L63.13 13.92L63.13-18.31L5.27-18.31L4.03-22.49L63.13-22.49L63.13-41.82L44.82-41.82L44.82-38.38Q44.82-37.35 42.08-35.74Q39.33-34.13 35.05-32.89Q30.76-31.64 26.22-31.64L26.22-31.64L23.07-31.64ZM104.37-68.70L104.37-86.43L44.82-86.43L44.82-68.70L104.37-68.70ZM44.82-64.53L44.82-46.07L104.37-46.07L104.37-64.53L44.82-64.53ZM230.27 2.86L230.27-40.50L230.27-48.93L253.34-40.50L260.38-40.50L260.38-77.12L251.22-77.12L251.22-71.41Q251.15-70.83 246.72-69.25Q242.29-67.68 234.16-67.68L234.16-67.68L230.27-67.68L230.27-108.47L218.12-108.47L218.12-70.02Q218.12-69.51 213.68-67.90Q209.25-66.28 201.27-66.28L201.27-66.28L197.53-66.28L197.53-77.12L188.67-77.12L188.67-40.50L196.07-40.50L205.66-50.54L224.12-36.47Q223.39-35.52 221.92-34.72Q220.46-33.91 218.12-33.47L218.12-33.47L218.12 2.86L230.27 2.86ZM167.43-21.75L167.43-81.30L167.43-89.72L189.33-81.30L197.53-81.30L197.53-108.47L162.01-108.47L160.77-112.65L257.23-112.65L269.24-127.95Q269.24-127.95 271.47-126.27Q273.71-124.58 277.11-121.98Q280.52-119.38 284.29-116.42Q288.06-113.45 291.14-110.82L291.14-110.82Q290.48-108.47 286.67-108.47L286.67-108.47L251.22-108.47L251.22-81.30L258.91-81.30L268.36-91.77L287.99-76.98Q287.33-76.03 285.94-75.07Q284.55-74.12 282.13-73.68L282.13-73.68L282.13-29.88Q282.06-29.30 279.05-28.16Q276.05-27.03 271.88-26.04Q267.70-25.05 264.18-25.05L264.18-25.05L260.38-25.05L260.38-36.33L251.22-36.33L251.22 2.86L262.06 2.86L274.37-12.89Q274.37-12.89 276.60-11.17Q278.83-9.45 282.31-6.77Q285.79-4.10 289.60-1.06Q293.41 1.98 296.56 4.61L296.56 4.61Q295.90 7.03 292.02 7.03L292.02 7.03L154.98 7.03L153.74 2.86L197.53 2.86L197.53-36.33L188.67-36.33L188.67-28.34Q188.67-27.39 186.04-25.82Q183.40-24.24 179.22-23.00Q175.05-21.75 170.58-21.75L170.58-21.75L167.43-21.75ZM310.62-0.15L300.73-23.22L314.14-26.51L314.14-65.70L304.98-65.70L303.74-69.87L314.14-69.87L314.14-108.76L304.61-108.76L303.44-112.94L325.49-112.94L334.20-124.95Q334.20-124.95 336.88-122.64Q339.55-120.34 343.18-117.11Q346.80-113.89 349.66-111.18L349.66-111.18Q349.22-108.76 345.63-108.76L345.63-108.76L333.18-108.76L333.18-71.56L338.38-79.98Q338.38-79.98 341.13-77.16Q343.87-74.34 346.80-71.12L346.80-71.12L346.95-92.72L338.38-92.72L337.21-96.90L353.25-96.90L353.25-128.25L378.30-126.27Q378.22-124.80 377.20-123.82Q376.17-122.83 373.54-122.39L373.54-122.39L373.54-98.22L380.27-108.47L389.28-100.05Q391.55-113.67 392.29-127.22L392.29-127.22L420.26-120.78Q419.60-117.63 414.48-117.11L414.48-117.11Q413.01-113.01 411.25-109.13Q409.50-105.25 407.67-101.51L407.67-101.51L423.12-101.51L432.13-115.21Q432.13-115.21 433.81-113.67Q435.50-112.13 438.06-109.75Q440.63-107.37 443.33-104.70Q446.04-102.03 448.17-99.76L448.17-99.76Q447.51-97.34 443.99-97.34L443.99-97.34L405.47-97.34Q402.98-92.94 400.27-88.95Q397.56-84.96 394.48-81.45L394.48-81.45L425.68-81.45L434.25-90.01L449.27-75.59Q447.80-74.19 443.55-73.97L443.55-73.97Q440.63-70.61 436.19-65.84Q431.76-61.08 428.25-58.08L428.25-58.08L426.64-58.81L427.22-77.27L423.49-77.27L423.49-42.63L425.39-42.63L432.57-53.25Q432.57-53.25 434.80-51.16Q437.04-49.07 440.04-46.18Q443.04-43.29 445.39-40.80L445.39-40.80Q444.73-38.38 441.43-38.38L441.43-38.38L423.49-38.38L423.49-7.76Q425.61-7.32 427.88-7.18Q430.15-7.03 432.57-7.03L432.57-7.03Q435.06-7.03 439.53-7.03Q443.99-7.03 447.14-7.03L447.14-7.03L447.14-5.42Q443.77-4.47 442.20 0.51Q440.63 5.49 440.84 12.01L440.84 12.01Q439.01 12.01 436.05 12.01Q433.08 12.01 431.40 12.01L431.40 12.01Q422.90 12.01 416.31 9.05Q409.72 6.08 405.10-0.99Q400.49-8.06 398.07-20.43L398.07-20.43Q395.65-9.96 391.81-1.32Q387.96 7.32 382.18 14.14L382.18 14.14L379.98 12.74Q384.59-2.20 386.28-20.00Q387.96-37.79 386.87-56.25L386.87-56.25L405.47-54.42L405.47-77.27L392.87-77.27L392.29-79.03Q390.53-77.12 388.66-75.37Q386.79-73.61 384.89-72.00L384.89-72.00L383.13-73.02Q385.84-81.52 387.89-92.72L387.89-92.72L364.53-92.72Q364.38-86.72 364.27-80.79Q364.16-74.85 363.87-68.99L363.87-68.99L366.14-68.99L375.29-78.00L390.89-64.67Q389.28-62.62 384.59-61.96L384.59-61.96Q384.08-43.65 383.24-31.27Q382.40-18.90 381.04-11.06Q379.69-3.22 377.64 1.28Q375.59 5.79 372.73 8.42L372.73 8.42Q369.14 11.57 364.71 13.00Q360.28 14.43 354.93 14.43L354.93 14.43Q355.00 10.33 354.60 7.36Q354.20 4.39 353.10 2.71L353.10 2.71Q352.00 1.10 350.54-0.04Q349.07-1.17 346.80-1.98L346.80-1.98Q343.80 2.42 340.14 6.48Q336.47 10.55 331.93 14.28L331.93 14.28L330.18 12.74Q335.67 2.27 338.96-8.75Q342.26-19.78 343.95-31.05L343.95-31.05Q341.67-28.93 339.04-26.29Q336.40-23.66 333.18-20.73L333.18-20.73L333.18-20.43L332.67-20.21Q328.86-16.77 324.35-12.85Q319.85-8.94 314.72-4.61L314.72-4.61Q313.70-1.32 310.62-0.15L310.62-0.15ZM405.47-18.31L405.47-50.98Q404.59-50.32 402.61-50.10L402.61-50.10Q401.73-38.60 399.90-28.49L399.90-28.49Q401.15-25.49 402.50-22.92Q403.86-20.36 405.47-18.31L405.47-18.31ZM367.68-64.82L367.68-64.82L363.72-64.82Q362.84-48.27 359.69-32.96Q356.54-17.65 348.27-4.47L348.27-4.47L355.66-4.17Q358.45-4.17 360.13-5.71L360.13-5.71Q362.26-7.54 363.72-13.99Q365.19-20.43 366.10-32.78Q367.02-45.12 367.68-64.82ZM345.63-65.70L333.18-65.70L333.18-31.79L344.53-35.08Q345.56-42.77 346.00-50.43Q346.44-58.08 346.66-65.84L346.66-65.84L345.63-65.70Z"/>
    </svg>
        