<?xml version="1.0" encoding="UTF-8" standalone="no"?>
        <svg 
    viewBox="3.1494140625 -86.0595703125 445.166015625 56.9091796875"
    width="442.0166015625"
    height="142.96875"
   xmlns="http://www.w3.org/2000/svg"
   xmlns:svg="http://www.w3.org/2000/svg">
   <path d="M31.64-54.42L30.32-58.67L94.34-58.67L104.37-68.55L121.66-52.37Q120.04-50.76 115.65-50.54L115.65-50.54Q110.82-48.19 103.78-45.89Q96.75-43.58 90.16-41.97L90.16-41.97Q89.58-39.70 85.47-38.96L85.47-38.96L85.47-30.32L117.77-30.32L128.10-43.95Q128.10-43.95 130.00-42.44Q131.91-40.94 134.88-38.60Q137.84-36.25 141.10-33.54Q144.36-30.83 147.00-28.49L147.00-28.49Q146.34-26.07 142.68-26.07L142.68-26.07L85.47-26.07L85.47-9.16Q85.47-2.20 83.72 2.64Q81.96 7.47 76.32 10.25Q70.68 13.04 59.11 13.92L59.11 13.92Q58.74 9.08 58.01 5.64Q57.28 2.20 55.37-0.15L55.37-0.15Q53.54-2.27 50.83-3.92Q48.12-5.57 42.11-6.59L42.11-6.59L42.11-8.57Q42.11-8.57 44.60-8.39Q47.09-8.20 50.54-8.02Q53.98-7.84 57.02-7.65Q60.06-7.47 61.23-7.47L61.23-7.47Q63.72-7.47 63.72-9.74L63.72-9.74L63.72-26.07L4.98-26.07L3.74-30.32L63.72-30.32L63.72-44.82L84.16-43.21Q86.50-45.70 88.95-48.67Q91.41-51.64 93.31-54.42L93.31-54.42L31.64-54.42ZM63.72-105.76L63.72-128.39L90.89-126.12Q90.82-124.58 89.72-123.49Q88.62-122.39 85.47-121.80L85.47-121.80L85.47-105.76L115.36-105.76L125.83-119.38Q125.83-119.38 127.77-117.88Q129.71-116.38 132.68-114.04Q135.64-111.69 138.94-109.02Q142.24-106.35 144.87-103.93L144.87-103.93Q144.21-101.51 140.55-101.51L140.55-101.51L91.48-101.51Q97.85-95.43 107.12-91.04Q116.38-86.65 126.71-83.75Q137.04-80.86 146.56-79.17L146.56-79.17L146.26-77.56Q140.26-75.88 136.34-70.86Q132.42-65.84 130.66-58.08L130.66-58.08Q116.02-65.33 105.03-75.81Q94.04-86.28 87.60-101.51L87.60-101.51L85.47-101.51L85.47-68.70Q85.47-68.04 82.76-66.91Q80.05-65.77 75.92-64.82Q71.78-63.87 67.53-63.87L67.53-63.87L63.72-63.87L63.72-85.77Q52.51-76.03 37.32-68.63Q22.12-61.23 4.17-56.25L4.17-56.25L3.15-57.93Q18.82-65.92 31.20-77.67Q43.58-89.43 51.12-101.51L51.12-101.51L6.74-101.51L5.57-105.76L63.72-105.76ZM192.77 9.01L191.53 4.83L268.36 4.83L279.13-8.72Q279.13-8.72 281.10-7.25Q283.08-5.79 286.16-3.44Q289.23-1.10 292.57 1.57Q295.90 4.25 298.68 6.59L298.68 6.59Q298.02 9.01 294.29 9.01L294.29 9.01L192.77 9.01ZM160.47 0.88L151.32-23.07L167.87-26.51L167.87-65.11L155.27-65.11L154.03-69.29L167.87-69.29L167.87-107.52L153.74-107.52L152.56-111.77L183.03-111.77L192.48-125.68Q192.48-125.68 194.17-124.15Q195.85-122.61 198.52-120.19Q201.20-117.77 204.02-115.03Q206.84-112.28 209.11-109.94L209.11-109.94Q208.67-107.52 205.08-107.52L205.08-107.52L188.82-107.52L188.82-71.85L194.97-82.03Q194.97-82.03 197.35-79.58Q199.73-77.12 202.84-73.75Q205.96-70.39 208.23-67.53L208.23-67.53Q207.79-65.11 204.27-65.11L204.27-65.11L188.82-65.11L188.82-31.35L208.23-36.18L208.52-34.79Q202.08-29.37 191.27-21.42Q180.47-13.48 164.72-3.44L164.72-3.44Q163.70-0.07 160.47 0.88L160.47 0.88ZM211.38-78.88L210.13-83.13L258.18-83.13L268.21-95.21L273.63-91.33L274.80-101.22L219.43-101.22Q219.87-94.92 217.68-90.60Q215.48-86.28 211.82-84.59L211.82-84.59Q208.08-82.91 203.72-84.45Q199.37-85.99 198.12-90.60L198.12-90.60Q197.17-95.07 199.51-98.18Q201.86-101.29 205.66-102.76L205.66-102.76Q208.67-104.22 211.52-107.56Q214.38-110.89 213.87-114.77L213.87-114.77L215.84-114.77Q218.04-109.86 218.99-105.47L218.99-105.47L236.57-105.47L236.57-128.25L263.38-126.12Q263.16-124.80 262.24-123.82Q261.33-122.83 258.62-122.39L258.62-122.39L258.62-105.47L273.49-105.47L282.57-114.62L298.32-99.46Q296.92-97.85 292.68-97.63L292.68-97.63Q289.60-95.73 285.24-93.16Q280.88-90.60 277.08-88.77L277.08-88.77Q279.42-87.01 281.95-85.07Q284.47-83.13 286.52-81.30L286.52-81.30Q285.86-78.88 282.28-78.88L282.28-78.88L211.38-78.88ZM260.38-38.53L232.47-38.53L232.47-18.90L260.38-18.90L260.38-38.53ZM232.47-61.82L232.47-42.77L260.38-42.77L260.38-61.82L232.47-61.82ZM212.26-3.30L212.26-65.99L212.26-74.27L233.28-65.99L258.91-65.99L267.92-75.73L286.38-61.82Q285.64-61.01 284.36-60.21Q283.08-59.40 280.96-58.96L280.96-58.96L280.96-10.99Q280.88-10.33 278.06-9.16Q275.24-7.98 271.33-6.99Q267.41-6.01 263.96-6.01L263.96-6.01L260.38-6.01L260.38-14.72L232.47-14.72L232.47-9.74Q232.47-8.79 229.94-7.25Q227.42-5.71 223.46-4.50Q219.51-3.30 215.26-3.30L215.26-3.30L212.26-3.30ZM306.74-89.72L305.57-93.90L363.57-93.90L363.57-127.37L391.63-125.24Q391.41-123.71 390.34-122.61Q389.28-121.51 386.13-121.07L386.13-121.07L386.13-93.90L411.04-93.90L423.12-110.38Q423.12-110.38 425.35-108.62Q427.59-106.86 430.96-104.04Q434.33-101.22 437.99-98.03Q441.65-94.85 444.58-92.07L444.58-92.07Q443.92-89.72 440.26-89.72L440.26-89.72L421.07-89.72Q416.75-72.14 408.87-56.65Q401.00-41.16 388.48-28.20L388.48-28.20Q401.00-20.36 415.47-15.16Q429.93-9.96 445.17-6.45L445.17-6.45L444.87-4.47Q436.67-3.37 430.92 1.54Q425.17 6.45 422.09 14.58L422.09 14.58Q407.96 9.16 395.84 1.87Q383.72-5.42 373.97-15.45L373.97-15.45Q360.64-5.42 343.40 2.05Q326.15 9.52 304.32 14.14L304.32 14.14L303.59 12.74Q323.14 5.13 338.23-4.91Q353.32-14.94 364.23-27.03L364.23-27.03Q355.52-38.67 349.37-54.16Q343.21-69.65 339.77-89.72L339.77-89.72L306.74-89.72ZM394.34-89.72L342.33-89.72Q346.95-73.24 355.04-60.79Q363.13-48.34 373.83-38.96L373.83-38.96Q382.03-50.61 387.05-63.35Q392.07-76.10 394.34-89.72L394.34-89.72Z"/>
    </svg>
        