<?xml version="1.0" encoding="UTF-8" standalone="no"?>
        <svg 
    viewBox="3.5888671875 -85.7666015625 447.5830078125 56.9091796875"
    width="443.994140625"
    height="142.67578125"
   xmlns="http://www.w3.org/2000/svg"
   xmlns:svg="http://www.w3.org/2000/svg">
   <path d="M13.48-112.50L12.30-116.67L37.21-116.67L45.92-127.95Q45.92-127.95 48.60-125.83Q51.27-123.71 54.93-120.67Q58.59-117.63 61.52-114.92L61.52-114.92Q61.08-112.50 57.42-112.50L57.42-112.50L13.48-112.50ZM12.74-73.83L11.57-78.00L37.79-78.00L46.22-88.92Q46.22-88.92 48.85-86.83Q51.49-84.74 55.08-81.77Q58.67-78.81 61.52-76.17L61.52-76.17Q60.86-73.83 57.42-73.83L57.42-73.83L12.74-73.83ZM12.74-54.13L11.57-58.37L37.79-58.37L46.22-69.29Q46.22-69.29 48.85-67.20Q51.49-65.11 55.08-62.15Q58.67-59.18 61.52-56.54L61.52-56.54Q60.86-54.13 57.42-54.13L57.42-54.13L12.74-54.13ZM4.83-93.46L3.59-97.63L46.07-97.63L54.57-108.91Q54.57-108.91 57.31-106.75Q60.06-104.59 63.76-101.59Q67.46-98.58 70.39-95.87L70.39-95.87Q69.73-93.46 66.28-93.46L66.28-93.46L4.83-93.46ZM75.29-127.95L75.29-127.95L105.47-120.12Q104.88-118.65 103.45-117.74Q102.03-116.82 99.32-116.82L99.32-116.82Q97.71-112.13 95.84-107.81Q93.97-103.49 91.92-99.46L91.92-99.46L117.33-99.46L127.37-112.94Q127.37-112.94 129.20-111.44Q131.03-109.94 133.89-107.59Q136.74-105.25 139.86-102.61Q142.97-99.98 145.53-97.63L145.53-97.63Q144.87-95.21 141.28-95.21L141.28-95.21L115.06-95.21L115.06-54.42L123.27-54.42L132.71-68.70Q132.71-68.70 134.44-67.13Q136.16-65.55 138.79-63.06Q141.43-60.57 144.25-57.79Q147.07-55.00 149.27-52.66L149.27-52.66Q148.61-50.24 145.17-50.24L145.17-50.24L115.06-50.24L115.06 7.76Q115.06 8.57 113.01 10.14Q110.96 11.72 107.08 13.07Q103.20 14.43 97.63 14.43L97.63 14.43L93.75 14.43L93.75-50.24L63.87-50.24L62.70-54.42L93.75-54.42L93.75-95.21L89.72-95.21Q79.91-77.71 64.97-66.58L64.97-66.58L63.28-67.68Q66.21-75.44 68.70-85.40Q71.19-95.36 72.91-106.31Q74.63-117.26 75.29-127.95ZM41.67-5.13L41.67-33.33L30.62-33.33L30.62-5.13L41.67-5.13ZM11.43 14.28L11.43-37.50L11.43-45.12L31.05-37.50L40.21-37.50L48.93-46.80L66.58-33.47Q66.06-32.67 64.71-31.79Q63.35-30.91 61.38-30.62L61.38-30.62L61.38 6.30Q61.30 6.96 58.63 8.28Q55.96 9.59 52.22 10.66Q48.49 11.72 45.12 11.72L45.12 11.72L41.67 11.72L41.67-0.88L30.62-0.88L30.62 8.28Q30.62 9.16 28.16 10.58Q25.71 12.01 21.94 13.15Q18.16 14.28 14.14 14.28L14.14 14.28L11.43 14.28ZM233.42 11.43L233.42-102.76L233.42-111.62L255.03-102.76L266.24-102.76L276.27-113.82L295.68-98.36Q294.87-97.41 293.44-96.53Q292.02-95.65 289.82-95.07L289.82-95.07L289.82 0.73Q289.67 1.68 286.78 3.48Q283.89 5.27 279.68 6.77Q275.46 8.28 271.36 8.28L271.36 8.28L267.77 8.28L267.77-8.13L254.37-8.13L254.37 3.88Q254.37 5.20 251.95 6.96Q249.54 8.72 245.51 10.07Q241.48 11.43 236.87 11.43L236.87 11.43L233.42 11.43ZM254.37-12.30L267.77-12.30L267.77-98.58L254.37-98.58L254.37-12.30ZM173.22-94.63L173.22-126.78L200.24-124.37Q199.88-122.68 198.71-121.66Q197.53-120.63 194.68-120.12L194.68-120.12L194.24-94.63L202.66-94.63L213.72-105.76L231.74-89.87Q229.91-87.52 225.15-86.72L225.15-86.72Q224.71-62.48 224.05-46.36Q223.39-30.25 222.18-20.29Q220.97-10.33 218.88-4.72Q216.80 0.88 213.43 4.03L213.43 4.03Q205.44 11.87 191.97 11.87L191.97 11.87Q191.97 6.45 191.53 2.82Q191.09-0.81 189.77-2.86L189.77-2.86Q188.09-5.35 185.49-6.99Q182.89-8.64 178.49-9.89L178.49-9.89L178.64-11.72Q181.71-11.35 185.82-11.17Q189.92-10.99 192.11-10.99L192.11-10.99Q195.04-10.99 197.09-12.74L197.09-12.74Q199.58-15.01 201.01-23.51Q202.44-32.01 203.21-48.38Q203.98-64.75 204.42-90.45L204.42-90.45L194.09-90.45Q193.58-75.95 191.82-61.74Q190.06-47.53 185.82-34.09Q181.57-20.65 173.77-8.42Q165.97 3.81 153.44 14.43L153.44 14.43L151.46 12.45Q160.55-3.37 165.16-20.29Q169.78-37.21 171.39-54.82Q173.00-72.44 173.22-90.45L173.22-90.45L156.74-90.45L155.42-94.63L173.22-94.63ZM394.63-51.42L355.08-51.42L355.08-27.76L394.63-27.76L394.63-51.42ZM355.08-79.61L355.08-55.66L394.63-55.66L394.63-79.61L355.08-79.61ZM394.63-23.58L355.08-23.58L355.08 2.71L394.63 2.71L394.63-23.58ZM324.90-118.21L324.90-118.21L326.73-118.21Q327.91-115.28 328.75-112.50Q329.59-109.72 330.18-107.08L330.18-107.08L363.43-107.08L363.43-128.25L391.33-126.27Q391.26-124.73 390.20-123.63Q389.14-122.53 385.99-121.95L385.99-121.95L385.99-107.08L419.68-107.08L429.93-117.33L447.58-100.63Q446.70-99.61 445.42-99.28Q444.14-98.95 441.72-98.73L441.72-98.73Q437.33-95.07 430.59-91.04Q423.85-87.01 417.92-84.45L417.92-84.45L423.27-80.71Q422.39-79.54 420.92-78.81Q419.46-78.08 416.38-77.56L416.38-77.56L416.38 2.71L417.92 2.71L428.25-12.30Q428.25-12.30 430.15-10.66Q432.06-9.01 435.02-6.37Q437.99-3.74 441.14-0.84Q444.29 2.05 446.85 4.47L446.85 4.47Q446.19 6.88 442.53 6.88L442.53 6.88L305.86 6.88L304.61 2.71L334.20 2.71L334.20-92.07L356.25-83.86L393.16-83.86L402.03-95.21L416.09-85.62Q417.26-89.36 418.47-94.04Q419.68-98.73 420.63-102.91L420.63-102.91L330.76-102.91Q331.64-94.48 329.26-88.51Q326.88-82.54 322.78-79.61L322.78-79.61Q320.07-77.64 316.74-77.49Q313.40-77.34 310.51-78.96Q307.62-80.57 306.30-83.86L306.30-83.86Q304.76-88.48 306.85-92.07Q308.94-95.65 312.89-97.78L312.89-97.78Q315.60-99.39 318.38-102.47Q321.17-105.54 323.03-109.61Q324.90-113.67 324.90-118.21Z"/>
    </svg>
        