<?xml version="1.0" encoding="UTF-8" standalone="no"?>
        <svg 
    viewBox="5.56640625 -86.97509765625 448.0224609375 57.82470703125"
    width="442.4560546875"
    height="144.7998046875"
   xmlns="http://www.w3.org/2000/svg"
   xmlns:svg="http://www.w3.org/2000/svg">
   <path d="M6.74 6.45L5.57 2.27L62.55 2.27L62.55-54.57L17.87-54.57L16.63-58.81L62.55-58.81L62.55-108.91L12.60-108.91L11.43-113.09L105.03-113.09L117.11-128.54Q117.11-128.54 119.35-126.86Q121.58-125.17 125.02-122.50Q128.47-119.82 132.20-116.86Q135.94-113.89 139.01-111.33L139.01-111.33Q138.43-108.91 134.69-108.91L134.69-108.91L86.57-108.91L86.57-58.81L101.07-58.81L112.79-73.54Q112.79-73.54 114.92-71.92Q117.04-70.31 120.34-67.79Q123.63-65.26 127.22-62.40Q130.81-59.55 133.81-56.98L133.81-56.98Q133.15-54.57 129.42-54.57L129.42-54.57L86.57-54.57L86.57 2.27L111.04 2.27L123.49-13.48Q123.49-13.48 125.72-11.79Q127.95-10.11 131.47-7.40Q134.99-4.69 138.83-1.65Q142.68 1.39 145.83 4.03L145.83 4.03Q145.17 6.45 141.28 6.45L141.28 6.45L6.74 6.45ZM162.16-114.62L160.99-118.80L203.39-118.80L212.26-129.79Q212.26-129.79 215.04-127.66Q217.82-125.54 221.59-122.57Q225.37-119.60 228.44-116.97L228.44-116.97Q227.78-114.62 224.27-114.62L224.27-114.62L162.16-114.62ZM185.23-99.61L186.77-100.34Q195.04-99.39 198.71-96.90Q202.37-94.41 202.59-91.59Q202.81-88.77 200.72-86.68Q198.63-84.59 195.37-84.34Q192.11-84.08 188.82-86.87L188.82-86.87Q189.11-90.31 187.98-93.82Q186.84-97.34 185.23-99.61L185.23-99.61ZM249.46-99.76L250.78-100.49Q259.64-99.83 263.67-97.30Q267.70-94.78 268.14-91.77Q268.58-88.77 266.56-86.43Q264.55-84.08 261.15-83.68Q257.74-83.28 254.22-86.13L254.22-86.13Q254.22-89.79 252.72-93.60Q251.22-97.41 249.46-99.76L249.46-99.76ZM188.67-74.56L219.14-74.56L219.14-83.13Q216.65-82.18 213.24-81.45Q209.84-80.71 207.13-80.71L207.13-80.71L203.83-80.71L203.83-101.88L184.94-101.88L184.94-84.74Q184.94-83.86 181.46-82.14Q177.98-80.42 173.36-79.61L173.36-79.61L188.67-74.56ZM240.16-79.98L240.16-74.56L267.48-74.56L271.95-80.71L268.95-80.71L268.95-101.88L248.88-101.88L248.88-85.77Q248.88-84.38 243.90-82.62L243.90-82.62Q243.46-80.57 240.16-79.98L240.16-79.98ZM230.13-84.45L230.13-106.05L230.13-113.38L249.46-106.05L267.63-106.05L275.68-114.62L230.42-114.62L229.17-118.80L268.80-118.80L277.95-130.22Q277.95-130.22 280.81-128.03Q283.67-125.83 287.55-122.75Q291.43-119.68 294.58-116.97L294.58-116.97Q293.92-114.62 290.41-114.62L290.41-114.62L275.98-114.62L293.26-102.17Q292.68-101.37 291.50-100.63Q290.33-99.90 288.43-99.61L288.43-99.61L288.43-84.89Q288.43-84.59 287.37-84.08Q286.30-83.57 284.69-83.13L284.69-83.13Q287.55-80.64 290.66-77.89Q293.77-75.15 296.26-72.73L296.26-72.73Q295.61-70.39 292.02-70.39L292.02-70.39L252.76-70.39L252.76-59.40L263.53-59.40L272.39-68.70L290.70-55.22Q290.04-54.42 288.72-53.61Q287.40-52.81 285.28-52.37L285.28-52.37L285.28-39.18Q285.21-38.53 282.42-37.32Q279.64-36.11 275.79-35.08Q271.95-34.06 268.65-34.06L268.65-34.06L265.06-34.06L265.06-37.21L185.23-37.21Q184.72-28.56 182.08-19.45Q179.44-10.33 172.85-1.94Q166.26 6.45 153.88 12.89L153.88 12.89L152.86 11.87Q158.42 3.37 160.88-6.45Q163.33-16.26 163.95-26.44Q164.58-36.62 164.58-46.22L164.58-46.22L164.58-82.62L166.04-82.18L166.04-113.38L185.52-106.05L202.66-106.05L210.42-114.18L226.83-102.32Q226.25-101.66 225.22-101.04Q224.19-100.42 222.58-100.05L222.58-100.05L222.58-85.03L230.13-84.45ZM200.24-70.39L185.52-70.39L185.52-59.40L200.24-59.40L200.24-70.39ZM233.42-70.39L219.14-70.39L219.14-59.40L233.42-59.40L233.42-70.39ZM200.24-55.22L185.52-55.22L185.52-46.22L185.52-41.38L200.24-41.38L200.24-55.22ZM265.06-41.38L265.06-55.22L252.76-55.22L252.76-41.38L265.06-41.38ZM233.42-55.22L219.14-55.22L219.14-41.38L233.42-41.38L233.42-55.22ZM274.22-34.35L274.22-34.35L292.02-20.87Q291.36-19.85 290.08-19.41Q288.79-18.97 286.38-19.63L286.38-19.63Q280.96-18.31 273.60-17.21Q266.24-16.11 259.06-15.45L259.06-15.45L259.06-7.62Q259.06-6.45 259.64-5.93Q260.23-5.42 262.35-5.42L262.35-5.42L270.78-5.42Q272.68-5.42 274.51-5.42Q276.34-5.42 277.51-5.57L277.51-5.57Q279.93-5.57 281.40-6.59L281.40-6.59Q283.89-8.57 287.40-15.60L287.40-15.60L288.87-15.60L289.53-6.59Q293.19-4.91 294.43-3.15Q295.68-1.39 295.68 1.03L295.68 1.03Q295.68 6.88 289.53 9.16Q283.37 11.43 268.07 11.43L268.07 11.43L256.49 11.43Q248.95 11.43 245.14 10.03Q241.33 8.64 240.05 5.27Q238.77 1.90 238.77-4.03L238.77-4.03L238.77-18.31Q237.96-17.72 236.28-17.72L236.28-17.72L212.11-17.72L212.11-8.13L238.18-9.01L238.18-7.18Q231.08-3.81 219.87 0.66Q208.67 5.13 192.11 11.13L192.11 11.13Q190.65 14.06 187.65 14.58L187.65 14.58L178.49-7.32L192.11-7.47L192.11-36.04L216.28-34.06Q216.21-32.96 215.41-32.01Q214.60-31.05 212.11-30.76L212.11-30.76L212.11-21.90L217.53-21.90L225.59-32.89Q225.59-32.89 227.75-31.09Q229.91-29.30 232.98-26.66Q236.06-24.02 238.77-21.46L238.77-21.46L238.77-35.82L263.67-34.06Q263.23-30.76 259.06-30.18L259.06-30.18L259.06-21.46Q263.53-24.68 267.63-28.23Q271.73-31.79 274.22-34.35ZM408.91-126.12L408.91-126.12L433.52-119.24Q433.08-117.92 431.73-117.04Q430.37-116.16 427.81-116.24L427.81-116.24Q424.22-112.06 418.84-106.75Q413.45-101.44 407.67-96.61L407.67-96.61L419.24-96.61L428.39-108.62Q428.39-108.62 431.25-106.35Q434.11-104.08 437.95-100.85Q441.80-97.63 444.87-94.78L444.87-94.78Q444.43-92.43 440.84-92.43L440.84-92.43L421.95-92.43L421.95-66.87L429.42-78.15Q429.42-78.15 431.98-75.77Q434.55-73.39 437.92-70.09Q441.28-66.80 443.85-64.01L443.85-64.01Q443.19-61.67 439.82-61.67L439.82-61.67L421.95-61.67L421.95-35.38L429.42-46.66Q429.42-46.66 431.98-44.27Q434.55-41.89 437.92-38.60Q441.28-35.30 443.85-32.52L443.85-32.52Q443.19-30.18 439.82-30.18L439.82-30.18L421.95-30.18L421.95-1.83L430.96-14.28Q430.96-14.28 432.71-12.78Q434.47-11.28 437.15-8.97Q439.82-6.67 442.75-4.06Q445.68-1.46 448.02 0.73L448.02 0.73Q447.58 3.15 443.99 3.15L443.99 3.15L393.02 3.15L393.02 8.13Q393.02 9.23 388.62 11.68Q384.23 14.14 376.46 14.14L376.46 14.14L372.73 14.14L372.73-64.97Q370.53-62.33 368.04-59.99Q365.55-57.64 362.99-55.52L362.99-55.52L361.23-56.54Q362.18-58.81 363.21-61.27Q364.23-63.72 365.26-66.28L365.26-66.28L357.71-66.28L357.71-9.16Q357.71-2.78 356.14 2.23Q354.57 7.25 349.55 10.40Q344.53 13.55 334.35 14.43L334.35 14.43Q334.13 9.67 333.54 6.12Q332.96 2.56 331.49 0.44L331.49 0.44Q330.03-1.68 327.58-3.33Q325.12-4.98 319.78-5.86L319.78-5.86L319.78-7.76Q319.78-7.76 321.75-7.65Q323.73-7.54 326.48-7.40Q329.22-7.25 331.75-7.14Q334.28-7.03 335.38-7.03L335.38-7.03Q337.06-7.03 337.65-7.80Q338.23-8.57 338.23-9.89L338.23-9.89L338.23-35.82Q324.10-17.43 302.86-4.47L302.86-4.47L301.32-6.15Q308.57-13.92 314.47-23.91Q320.36-33.91 324.79-44.82Q329.22-55.74 332.08-66.28L332.08-66.28L304.03-66.28L303.00-70.53L313.04-70.53L313.04-109.64L306.88-109.64L305.71-113.82L347.39-113.82L356.98-127.22Q356.98-127.22 358.78-125.76Q360.57-124.29 363.28-121.95Q365.99-119.60 368.99-116.97Q372.00-114.33 374.41-112.06L374.41-112.06Q373.75-109.64 370.17-109.64L370.17-109.64L357.71-109.64L357.71-75.73L361.96-84.30L368.41-75.73Q372.14-87.60 374.82-101.04Q377.49-114.48 378.59-127.95L378.59-127.95L405.62-121.22Q404.59-117.99 399.76-117.77L399.76-117.77Q398.14-112.35 396.42-107.30Q394.70-102.25 392.72-97.49L392.72-97.49L395.07-96.61L402.76-96.61Q404.66-103.34 406.35-111.55Q408.03-119.75 408.91-126.12ZM338.23-109.64L331.05-109.64L331.05-70.53L338.23-70.53L338.23-109.64ZM402.47-65.84L402.47-92.43L393.02-92.43L393.02-65.84L402.47-65.84ZM402.47-34.35L402.47-61.67L393.02-61.67L393.02-34.35L402.47-34.35ZM402.47-1.03L402.47-30.18L393.02-30.18L393.02-1.03L402.47-1.03Z"/>
    </svg>
        