<?xml version="1.0" encoding="UTF-8" standalone="no"?>
        <svg 
    viewBox="1.8310546875 -86.6455078125 449.560546875 57.4951171875"
    width="447.7294921875"
    height="144.140625"
   xmlns="http://www.w3.org/2000/svg"
   xmlns:svg="http://www.w3.org/2000/svg">
   <path d="M43.21-83.72L44.68-84.45Q54.35-81.81 58.56-77.89Q62.77-73.97 62.95-70.17Q63.13-66.36 60.68-63.76Q58.23-61.16 54.46-61.01Q50.68-60.86 47.09-64.53L47.09-64.53Q47.53-69.43 46.33-74.71Q45.12-79.98 43.21-83.72L43.21-83.72ZM41.38-56.10L65.70-56.10L65.70-88.48L41.38-88.48L41.38-56.10ZM91.48-84.89L91.48-84.89L108.03-77.86L108.03-88.48L83.72-88.48L83.72-56.10L108.03-56.10L108.03-74.71Q107.08-74.49 105.47-74.71L105.47-74.71Q103.49-72.88 100.38-70.42Q97.27-67.97 94.01-65.44Q90.75-62.92 88.33-60.86L88.33-60.86L86.87-62.26Q87.67-65.48 88.59-69.76Q89.50-74.05 90.27-78.11Q91.04-82.18 91.48-84.89ZM58.81-116.24L57.42-120.48L89.14-120.48L94.48-129.57L109.50-119.97Q108.40-118.65 105.40-117.74Q102.39-116.82 98.73-116.38L98.73-116.38L98.73-116.24L96.61-116.24Q100.85-111.99 108.73-108.54Q116.60-105.10 126.75-102.83Q136.89-100.56 147.88-99.90L147.88-99.90L148.02-98.07Q142.24-95.87 137.81-90.42Q133.37-84.96 132.13-78.88L132.13-78.88L127.95-80.86L127.95-49.95Q127.88-49.37 125.24-48.27Q122.61-47.17 118.95-46.29Q115.28-45.41 112.06-45.26L112.06-45.26L125.39-35.23Q124.73-34.35 123.34-33.36Q121.95-32.37 119.53-31.93L119.53-31.93L119.53 9.30Q119.46 9.89 116.46 11.06Q113.45 12.23 109.28 13.18Q105.10 14.14 101.51 14.14L101.51 14.14L97.78 14.14L97.78 3.88L51.64 3.88L51.64 7.98Q51.64 8.94 48.89 10.51Q46.14 12.08 41.93 13.33Q37.72 14.58 33.33 14.58L33.33 14.58L30.32 14.58L30.32-43.80Q29.15-43.65 28.02-43.58Q26.88-43.51 25.49-43.51L25.49-43.51L21.90-43.51L21.90-82.98Q17.43-81.01 12.67-79.47Q7.91-77.93 2.86-76.83L2.86-76.83L1.83-78.30Q10.55-83.79 18.13-91.22Q25.71-98.66 31.46-106.68Q37.21-114.70 40.50-121.95L40.50-121.95L63.57-109.20Q63.06-108.11 61.78-107.52Q60.50-106.93 57.93-107.37L57.93-107.37Q54.49-103.78 50.35-100.23Q46.22-96.68 41.38-93.46L41.38-93.46L43.51-92.72L106.64-92.72L108.33-94.48Q103.27-99.24 99.32-104.70Q95.36-110.16 93.02-116.24L93.02-116.24L58.81-116.24ZM51.64-0.29L97.78-0.29L97.78-16.19L51.64-16.19L51.64-0.29ZM51.64-20.43L97.78-20.43L97.78-35.38L51.64-35.38L51.64-20.43ZM108.03-48.49L108.03-51.93L41.38-51.93L41.38-49.22Q41.38-47.61 36.77-45.78L36.77-45.78L52.81-39.62L96.31-39.62L105.76-50.10L108.03-48.49ZM229.47-123.78L230.42-124.95Q242.58-127.29 250.63-126.20Q258.69-125.10 263.16-121.98Q267.63-118.87 269.02-114.95Q270.41-111.04 269.13-107.52Q267.85-104.00 264.44-102.17Q261.04-100.34 255.91-101.51L255.91-101.51Q252.98-105.62 248.47-109.86Q243.97-114.11 238.95-117.77Q233.94-121.44 229.47-123.78L229.47-123.78ZM162.16-112.50L160.99-116.67L184.35-116.67L192.92-128.10Q192.92-128.10 195.59-125.94Q198.27-123.78 201.93-120.70Q205.59-117.63 208.52-114.92L208.52-114.92Q207.86-112.50 204.42-112.50L204.42-112.50L162.16-112.50ZM161.43-73.83L160.18-78.00L185.08-78.00L193.36-89.14Q193.36-89.14 195.96-86.98Q198.56-84.81 202.08-81.81Q205.59-78.81 208.37-76.17L208.37-76.17Q207.93-73.83 204.27-73.83L204.27-73.83L161.43-73.83ZM161.43-54.13L160.18-58.37L185.08-58.37L193.36-69.43Q193.36-69.43 195.96-67.31Q198.56-65.19 202.08-62.18Q205.59-59.18 208.37-56.54L208.37-56.54Q207.93-54.13 204.27-54.13L204.27-54.13L161.43-54.13ZM154.17-93.46L153.00-97.63L189.77-97.63L198.27-108.91Q198.27-108.91 200.90-106.75Q203.54-104.59 207.13-101.59Q210.72-98.58 213.57-95.87L213.57-95.87Q213.13-93.46 209.55-93.46L209.55-93.46L154.17-93.46ZM220.02-89.43L219.29-93.60L240.75-93.60L249.76-104.08L268.95-89.28Q268.07-88.11 266.35-87.08Q264.62-86.06 261.91-85.33L261.91-85.33Q263.89-70.97 267.77-59.84L267.77-59.84Q269.24-64.89 270.70-70.35Q272.17-75.81 273.34-80.64Q274.51-85.47 275.10-88.62L275.10-88.62L298.68-74.71Q298.10-73.68 296.56-73.02Q295.02-72.36 292.68-73.02L292.68-73.02Q289.01-69.80 282.53-64.64Q276.05-59.47 269.53-55.08L269.53-55.08Q274.95-41.75 282.60-33.76Q290.26-25.78 298.83-20.87L298.83-20.87L298.17-19.34Q292.24-17.65 287.73-12.23Q283.23-6.81 281.40 0.59L281.40 0.59Q275.17-7.76 271.33-17.40Q267.48-27.03 265.28-39.59Q263.09-52.15 261.91-69.29L261.91-69.29L261.91-6.59Q261.91-0.44 260.27 3.92Q258.62 8.28 253.31 10.88Q248.00 13.48 237.16 14.43L237.16 14.43Q236.79 10.03 235.99 6.81Q235.18 3.59 233.42 1.68L233.42 1.68Q231.52-0.37 228.59-1.94Q225.66-3.52 219.58-4.47L219.58-4.47L219.58-6.45Q219.58-6.45 222.11-6.30Q224.63-6.15 228.15-5.93Q231.67-5.71 234.81-5.57Q237.96-5.42 239.28-5.42L239.28-5.42Q241.19-5.42 241.81-6.19Q242.43-6.96 242.43-8.57L242.43-8.57L242.43-63.72L240.75-63.43Q239.21-52.66 235.36-41.64Q231.52-30.62 224.78-20.62Q218.04-10.62 207.57-2.86L207.57-2.86L207.57 5.27Q207.57 5.93 205.04 7.18Q202.51 8.42 198.85 9.45Q195.19 10.47 191.97 10.47L191.97 10.47L188.67 10.47L188.67-0.88L178.78-0.88L178.78 8.42Q178.78 9.23 176.44 10.62Q174.10 12.01 170.40 13.15Q166.70 14.28 162.74 14.28L162.74 14.28L160.03 14.28L160.03-45.12L179.37-37.50L187.35-37.50L195.78-46.51L212.99-33.47Q212.33-32.67 211.05-31.86Q209.77-31.05 207.57-30.76L207.57-30.76L207.57-7.98Q212.33-16.04 215.26-25.74Q218.19-35.45 219.73-45.67Q221.26-55.88 221.85-65.55L221.85-65.55L207.93-65.55L206.54-69.73L220.53-69.73L229.47-79.32L242.43-68.85L242.43-89.43L220.02-89.43ZM188.67-5.13L188.67-33.33L178.78-33.33L178.78-5.13L188.67-5.13ZM346.51 7.98L345.26 3.74L419.24 3.74L430.08-9.74Q430.08-9.74 432.02-8.28Q433.96-6.81 437.04-4.47Q440.11-2.12 443.44 0.55Q446.78 3.22 449.56 5.57L449.56 5.57Q448.90 7.98 445.17 7.98L445.17 7.98L346.51 7.98ZM336.47-107.23L327.76-107.23L327.76-69.29L336.47-69.29L336.47-107.23ZM366.87-116.97L366.87-116.97L368.99-117.11Q370.46-114.33 371.41-111.73Q372.36-109.13 372.88-106.79L372.88-106.79L387.89-106.79L387.89-127.66L414.33-125.68Q414.11-124.22 413.16-123.23Q412.21-122.24 409.50-121.80L409.50-121.80L409.50-106.79L424.07-106.79L433.23-115.94L448.97-100.78Q447.58-99.17 443.26-99.02L443.26-99.02Q440.70-97.34 437.11-95.25Q433.52-93.16 430.08-91.33L430.08-91.33L438.57-84.59Q437.92-82.18 434.40-82.18L434.40-82.18L366.87-82.18L365.70-86.13Q362.92-85.40 359.95-86.46Q356.98-87.52 355.52-90.45L355.52-90.45L355.52-15.89Q355.44-15.23 352.84-13.95Q350.24-12.67 346.58-11.57Q342.92-10.47 339.62-10.47L339.62-10.47L336.47-10.47L336.47-21.75L327.76-21.75L327.76-9.59Q327.76-8.57 323.58-6.15Q319.41-3.74 312.01-3.74L312.01-3.74L308.57-3.74L308.57-119.24L329.74-111.47L334.94-111.47L343.80-121.07L361.23-107.37Q359.62-105.25 355.52-104.37L355.52-104.37L355.52-98.22Q356.40-100.05 358.01-101.40Q359.62-102.76 361.67-103.64L361.67-103.64Q364.16-105.47 366.03-109.28Q367.90-113.09 366.87-116.97ZM336.47-65.11L327.76-65.11L327.76-25.93L336.47-25.93L336.47-65.11ZM420.26-98.58L424.51-95.43L425.39-102.61L373.68-102.61Q374.19-96.83 372.55-92.76Q370.90-88.70 367.97-87.01L367.97-87.01L366.58-86.43L410.23-86.43L420.26-98.58ZM411.18-45.26L411.18-64.38L385.18-64.38L385.18-45.26L411.18-45.26ZM365.41-5.27L365.41-68.55L365.41-76.68L385.99-68.55L409.64-68.55L418.51-78.15L436.67-64.38Q436.01-63.57 434.69-62.77Q433.37-61.96 431.25-61.67L431.25-61.67L431.25-12.74Q431.18-12.16 428.39-10.99Q425.61-9.81 421.77-8.90Q417.92-7.98 414.62-7.98L414.62-7.98L411.18-7.98L411.18-17.43L385.18-17.43L385.18-11.57Q385.18-10.62 382.69-9.12Q380.20-7.62 376.32-6.45Q372.44-5.27 368.26-5.27L368.26-5.27L365.41-5.27ZM411.18-41.09L385.18-41.09L385.18-21.61L411.18-21.61L411.18-41.09Z"/>
    </svg>
        