<?xml version="1.0" encoding="UTF-8" standalone="no"?>
        <svg 
    viewBox="3.1494140625 -85.07080078125 445.5322265625 55.92041015625"
    width="442.3828125"
    height="140.9912109375"
   xmlns="http://www.w3.org/2000/svg"
   xmlns:svg="http://www.w3.org/2000/svg">
   <path d="M58.52-53.10L58.52-53.10L87.89-50.83Q87.67-49.29 86.54-48.23Q85.40-47.17 82.76-46.80L82.76-46.80Q82.32-43.43 81.85-40.17Q81.37-36.91 80.57-33.76L80.57-33.76L98.22-33.76L98.22-58.23L38.53-58.23L38.53-50.24Q38.53-49.58 35.85-48.41Q33.18-47.24 29.22-46.25Q25.27-45.26 21.46-45.26L21.46-45.26L17.58-45.26L17.58-112.50L42.77-110.23Q42.55-109.13 41.75-108.22Q40.94-107.30 38.53-106.93L38.53-106.93L38.53-62.40L96.75-62.40L106.49-72.58L125.54-58.37Q124.88-57.42 123.41-56.62Q121.95-55.81 119.53-55.37L119.53-55.37L119.53-33.76L120.12-33.76L130.37-48.27Q130.37-48.27 132.24-46.66Q134.11-45.04 136.96-42.52Q139.82-39.99 142.86-37.17Q145.90-34.35 148.32-31.93L148.32-31.93Q147.95-29.52 144.14-29.52L144.14-29.52L84.01-29.52Q90.09-21.24 99.94-16.66Q109.79-12.08 121.91-10.14Q134.03-8.20 146.85-7.62L146.85-7.62L147.00-6.01Q140.84-3.88 137.00 1.32Q133.15 6.52 131.69 14.28L131.69 14.28Q118.95 10.77 109.09 5.60Q99.24 0.44 92.18-7.95Q85.11-16.33 80.86-29.52L80.86-29.52L79.47-29.52Q77.27-21.90 72.69-15.01Q68.12-8.13 59.73-2.38Q51.34 3.37 37.72 7.69Q24.10 12.01 3.74 14.58L3.74 14.58L3.15 12.74Q20.95 8.35 31.68 1.90Q42.41-4.54 47.97-12.52Q53.54-20.51 55.81-29.52L55.81-29.52L4.61-29.52L3.44-33.76L56.69-33.76Q57.57-38.38 57.97-43.25Q58.37-48.12 58.52-53.10ZM104.08-85.62L104.08-111.62L69.73-111.62L69.73-85.62L104.08-85.62ZM48.93-70.17L48.93-115.80L48.93-124.07L70.68-115.80L102.61-115.80L111.91-125.98L131.40-111.47Q130.74-110.52 129.24-109.61Q127.73-108.69 125.39-108.18L125.39-108.18L125.39-77.27Q125.32-76.76 122.35-75.70Q119.38-74.63 115.32-73.75Q111.25-72.88 107.89-72.88L107.89-72.88L104.08-72.88L104.08-81.45L69.73-81.45L69.73-76.46Q69.73-75.59 67.05-74.08Q64.38-72.58 60.28-71.37Q56.18-70.17 51.93-70.17L51.93-70.17L48.93-70.17ZM163.04 12.74L153.59-7.98Q159.59-8.42 170.03-9.59Q180.47-10.77 193.65-12.45L193.65-12.45Q194.90-18.31 196.14-25.20Q197.39-32.08 198.27-37.50L198.27-37.50L221.85-31.05Q220.83-27.98 216.14-28.20L216.14-28.20Q212.99-25.20 208.74-21.09Q204.49-16.99 200.10-13.18L200.10-13.18L225.15-16.48Q229.10-27.76 230.20-40.03Q231.30-52.29 231.30-65.26L231.30-65.26L231.30-77.27Q230.64-75.44 227.71-75.44L227.71-75.44L154.98-75.44L153.74-79.61L207.42-79.61L212.55-86.28L209.40-86.13L206.10-86.13L206.10-89.72L175.34-89.72L175.34-85.77Q175.34-85.25 173.11-84.38Q170.87-83.50 167.54-82.76Q164.21-82.03 160.99-82.03L160.99-82.03L157.76-82.03L157.76-119.53L179.37-117.63Q179.30-116.46 178.45-115.61Q177.61-114.77 175.34-114.48L175.34-114.48L175.34-93.90L181.20-93.90L181.20-126.42L205.08-124.51Q204.93-123.05 203.94-122.13Q202.95-121.22 200.24-120.78L200.24-120.78L200.24-93.90L206.10-93.90L206.10-119.53L229.61-117.63Q229.39-116.38 228.52-115.43Q227.64-114.48 225.15-114.18L225.15-114.18L225.15-90.01Q225.15-89.58 223.72-88.92Q222.29-88.26 220.02-87.60L220.02-87.60Q222.44-85.69 225.59-83.13Q228.74-80.57 231.30-78.30L231.30-78.30L231.30-121.51L253.78-113.67L257.23-113.67L266.82-125.10L284.99-110.23Q284.18-109.35 282.90-108.62Q281.62-107.89 278.98-107.37L278.98-107.37L278.98-13.33Q278.98-10.62 280.37-10.62L280.37-10.62L280.96-10.62Q281.18-10.62 281.43-10.62Q281.69-10.62 281.98-10.62L281.98-10.62Q282.57-10.62 283.15-10.91Q283.74-11.21 284.40-12.45L284.40-12.45Q285.21-13.99 286.30-17.80Q287.40-21.61 288.57-26.33Q289.75-31.05 290.70-35.38L290.70-35.38L292.24-35.38L292.97-10.99Q295.97-9.16 296.92-7.32Q297.88-5.49 297.88-2.56L297.88-2.56Q297.88 2.93 293.23 6.12Q288.57 9.30 278.54 9.30L278.54 9.30L272.83 9.30Q266.89 9.30 264.00 7.76Q261.11 6.23 260.16 2.67Q259.20-0.88 259.20-6.88L259.20-6.88L259.20-109.50L250.78-109.50L250.78-65.41Q250.78-54.57 249.57-43.51Q248.36-32.45 244.19-21.97Q240.01-11.50 231.26-2.31Q222.51 6.88 207.42 14.14L207.42 14.14L206.10 13.04Q212.26 7.10 216.61 0.51Q220.97-6.08 223.83-13.04L223.83-13.04Q214.38-8.79 200.50-3.26Q186.62 2.27 167.29 9.16L167.29 9.16Q165.82 12.30 163.04 12.74L163.04 12.74ZM161.28-34.20L161.28-65.26L161.28-72.73L180.91-65.26L199.95-65.26L208.37-74.27L226.03-61.23Q225.51-60.42 224.16-59.62Q222.80-58.81 220.83-58.37L220.83-58.37L220.83-40.94Q220.75-40.43 217.97-39.40Q215.19-38.38 211.45-37.57Q207.71-36.77 204.79-36.77L204.79-36.77L201.27-36.77L201.27-41.53L180.18-41.53L180.18-39.77Q180.18-39.11 178.23-37.94Q176.29-36.77 173.36-35.82L173.36-35.82Q182.59-32.81 186.36-28.67Q190.14-24.54 189.95-20.62Q189.77-16.70 186.95-14.17Q184.13-11.65 180.03-11.68Q175.93-11.72 172.05-15.60L172.05-15.60Q172.49-20.65 171.50-25.67Q170.51-30.69 169.04-34.64L169.04-34.64Q166.55-34.20 163.77-34.20L163.77-34.20L161.28-34.20ZM180.18-45.78L201.27-45.78L201.27-61.08L180.18-61.08L180.18-45.78ZM358.23-126.27L358.23-126.27L375.44-108.18L375.44-119.53L399.02-108.91L416.38-108.91L425.83-119.68L445.53-104.52Q443.99-102.32 439.67-101.22L439.67-101.22L439.67-25.93Q439.67-18.97 437.92-14.06Q436.16-9.16 430.66-6.26Q425.17-3.37 413.82-2.42L413.82-2.42Q413.60-7.54 412.94-11.35Q412.28-15.16 410.67-17.43L410.67-17.43Q408.98-19.78 406.53-21.46Q404.08-23.14 398.73-24.32L398.73-24.32L398.73-26.07Q398.73-26.07 400.78-25.96Q402.83-25.85 405.76-25.71Q408.69-25.56 411.29-25.45Q413.89-25.34 415.06-25.34L415.06-25.34Q416.75-25.34 417.33-26.11Q417.92-26.88 417.92-28.20L417.92-28.20L417.92-104.74L396.90-104.74L396.90 7.62Q396.90 8.42 394.85 10.00Q392.80 11.57 388.88 12.93Q384.96 14.28 379.47 14.28L379.47 14.28L375.44 14.28L375.44-105.91Q373.39-104.96 369.73-106.05L369.73-106.05Q361.67-103.27 351.86-101.40Q342.04-99.54 333.62-98.58L333.62-98.58L333.62-65.55L346.07-65.55L356.25-79.61Q356.25-79.61 358.12-78.08Q359.99-76.54 362.88-74.12Q365.77-71.70 368.88-68.92Q372.00-66.14 374.56-63.72L374.56-63.72Q373.90-61.38 370.17-61.38L370.17-61.38L333.62-61.38L333.62-19.63L345.48-19.63L356.10-34.64Q356.10-34.64 358.08-33.00Q360.06-31.35 363.06-28.78Q366.06-26.22 369.36-23.29Q372.66-20.36 375.29-17.87L375.29-17.87Q374.63-15.45 370.97-15.45L370.97-15.45L333.62-15.45L333.62-2.27Q333.47-1.25 329.04 1.25Q324.61 3.74 315.31 3.74L315.31 3.74L312.45 3.74L312.45-114.62L333.18-106.20Q339.26-110.67 345.74-116.02Q352.22-121.36 358.23-126.27Z"/>
    </svg>
        