<?xml version="1.0" encoding="UTF-8" standalone="no"?>
        <svg 
    viewBox="3.0029296875 -85.6201171875 446.6121826171875 57.0556640625"
    width="443.6092529296875"
    height="142.67578125"
   xmlns="http://www.w3.org/2000/svg"
   xmlns:svg="http://www.w3.org/2000/svg">
   <path d="M28.05-90.01L28.05-128.10L54.57-125.54Q54.35-123.85 53.28-122.75Q52.22-121.66 49.07-121.22L49.07-121.22L49.07-90.89L57.42-102.91Q57.42-102.91 59.73-100.85Q62.04-98.80 65.30-95.84Q68.55-92.87 71.41-90.01L71.41-90.01L90.89-90.01L90.89-127.81L117.48-125.24Q117.26-123.71 116.16-122.53Q115.06-121.36 111.91-120.92L111.91-120.92L111.91-90.01L119.68-90.01L129.27-103.34Q129.27-103.34 131.03-101.88Q132.79-100.42 135.50-98.07Q138.21-95.73 141.14-93.13Q144.07-90.53 146.41-88.18L146.41-88.18Q145.75-85.77 142.24-85.77L142.24-85.77L115.21-85.77Q119.90-69.95 128.94-58.19Q137.99-46.44 148.83-40.80L148.83-40.80L148.83-38.96Q141.72-33.62 138.21-26.66Q134.69-19.70 133.67-10.99L133.67-10.99Q127.15-19.12 122.94-31.16Q118.73-43.21 116.24-57.31Q113.75-71.41 112.35-85.77L112.35-85.77L111.91-85.77L111.91 6.59Q111.91 7.62 109.28 9.38Q106.64 11.13 102.76 12.52Q98.88 13.92 94.92 13.92L94.92 13.92L90.89 13.92L90.89-43.80Q77.05-23.80 54.79-9.74L54.79-9.74L53.10-11.28Q61.96-20.80 68.63-32.96Q75.29-45.12 79.87-58.63Q84.45-72.14 87.01-85.77L87.01-85.77L71.41-85.77L71.26-86.28Q70.39-85.77 69.14-85.77L69.14-85.77L49.07-85.77L49.07-77.86Q59.03-74.63 64.38-70.31Q69.73-65.99 71.37-61.49Q73.02-56.98 71.89-53.17Q70.75-49.37 67.79-47.20Q64.82-45.04 60.90-45.41Q56.98-45.78 53.10-49.66L53.10-49.66Q53.54-55.74 52.29-61.96Q51.05-68.19 49.07-73.54L49.07-73.54L49.07 8.28Q49.07 9.08 46.51 10.47Q43.95 11.87 40.10 13.00Q36.25 14.14 32.23 14.14L32.23 14.14L28.05 14.14L28.05-43.07Q23.22-36.84 17.36-31.27Q11.50-25.71 4.61-20.87L4.61-20.87L3.00-22.34Q9.16-30.69 13.81-41.05Q18.46-51.42 21.68-62.88Q24.90-74.34 26.88-85.77L26.88-85.77L6.59-85.77L5.42-90.01L28.05-90.01ZM174.02-118.80L174.02-118.80L175.78-118.80Q177.25-115.80 178.20-112.87Q179.15-109.94 179.88-107.23L179.88-107.23L213.43-107.23L213.43-128.39L241.33-126.42Q241.26-124.88 240.20-123.78Q239.14-122.68 235.99-122.09L235.99-122.09L235.99-107.23L267.77-107.23L277.95-117.48L295.68-100.78Q294.73-99.76 293.44-99.43Q292.16-99.10 289.82-98.88L289.82-98.88Q286.08-96.24 280.92-93.38Q275.76-90.53 270.63-88.18L270.63-88.18L275.83-83.86Q275.61-82.62 274.40-82.03Q273.19-81.45 271.66-81.45L271.66-81.45L236.43-81.45Q238.62-72.66 242.18-65.22Q245.73-57.79 250.20-51.64L250.20-51.64Q255.69-58.45 260.85-66.06Q266.02-73.68 268.80-79.03L268.80-79.03L291.87-62.84Q291.36-61.82 290.04-61.30Q288.72-60.79 286.08-61.38L286.08-61.38Q279.79-57.64 271.40-53.69Q263.01-49.73 254.08-46.51L254.08-46.51Q262.87-36.04 273.93-28.71Q284.99-21.39 296.70-16.19L296.70-16.19L296.26-14.58Q282.35-12.67 276.27 2.86L276.27 2.86Q264.84-6.23 256.42-17.54Q248.00-28.86 242.43-44.35Q236.87-59.84 233.86-81.45L233.86-81.45L233.57-81.45Q226.17-74.71 215.41-68.99L215.41-68.99Q224.34-62.33 230.02-53.91Q235.69-45.48 238.62-36.55Q241.55-27.61 242.03-19.15Q242.50-10.69 241.00-3.85Q239.50 3.00 236.43 7.03L236.43 7.03Q233.28 11.13 226.90 12.71Q220.53 14.28 211.67 14.28L211.67 14.28Q211.45 5.27 207.93 0.88L207.93 0.88Q204.93-2.78 195.12-5.57L195.12-5.57L195.12-7.03Q198.27-6.74 202.11-6.48Q205.96-6.23 209.33-6.04Q212.70-5.86 214.53-5.86L214.53-5.86Q216.06-5.86 217.24-6.19Q218.41-6.52 218.99-7.47L218.99-7.47Q220.02-9.52 220.75-12.93Q221.48-16.33 221.70-20.87L221.70-20.87Q207.50-13.40 189.88-7.73Q172.27-2.05 153.88 0.44L153.88 0.44L153.00-1.32Q165.97-5.64 178.56-12.41Q191.16-19.19 201.86-27.50Q212.55-35.82 219.87-44.68L219.87-44.68L219.43-46.66Q211.30-42.11 201.16-37.90Q191.02-33.69 180.03-30.25Q169.04-26.81 158.28-24.61L158.28-24.61L157.47-26.22Q167.72-30.76 178.02-37.54Q188.31-44.31 197.17-52.04Q206.03-59.77 211.96-67.24L211.96-67.24Q200.46-61.38 186.91-56.95Q173.36-52.51 159.01-49.51L159.01-49.51L158.28-51.12Q171.75-56.91 183.69-65.19Q195.63-73.46 203.83-81.45L203.83-81.45L178.78-81.45L177.61-85.62L246.61-85.62L257.08-99.02L265.06-92.72Q266.09-95.29 266.89-97.92Q267.70-100.56 268.36-103.05L268.36-103.05L180.47-103.05Q181.57-94.63 179.08-88.81Q176.59-82.98 172.19-80.42L172.19-80.42Q169.34-78.59 166.00-78.66Q162.67-78.74 159.85-80.53Q157.03-82.32 155.86-85.77L155.86-85.77Q154.39-90.75 156.74-94.37Q159.08-98.00 163.33-100.05L163.33-100.05Q165.89-101.44 168.46-104.30Q171.02-107.15 172.67-110.93Q174.32-114.70 174.02-118.80ZM306.45-113.67L305.13-117.92L343.95-117.92L352.66-127.51L370.97-113.67Q370.24-112.79 368.77-111.91Q367.31-111.04 364.97-110.52L364.97-110.52L364.97-76.03Q364.89-75.51 362.15-74.52Q359.40-73.54 355.66-72.69Q351.93-71.85 348.78-71.85L348.78-71.85L345.48-71.85L345.48-79.83L329.08-79.83Q328.64-74.41 327.98-67.02Q327.32-59.62 326.51-52.51L326.51-52.51L346.22-52.51L356.25-62.11L373.32-47.68Q371.48-45.63 366.87-44.97L366.87-44.97Q365.99-35.52 364.86-27.87Q363.72-20.21 362.26-14.28L362.26-14.28L382.03-15.31Q383.86-28.42 385.36-42.74Q386.87-57.06 388.00-71.48Q389.14-85.91 389.94-99.50Q390.75-113.09 391.04-124.80L391.04-124.80L420.48-120.63Q420.12-119.02 418.87-117.77Q417.63-116.53 414.62-116.09L414.62-116.09Q412.43-102.47 408.62-85.51Q404.81-68.55 399.54-50.50Q394.26-32.45 387.74-15.60L387.74-15.60L422.53-18.16Q420.26-28.71 416.64-39.04Q413.01-49.37 408.62-58.52L408.62-58.52L410.38-59.25Q424.07-50.02 432.06-40.03Q440.04-30.03 443.44-20.62Q446.85-11.21 446.59-3.63Q446.34 3.96 443.33 8.50Q440.33 13.04 435.61 13.33Q430.88 13.62 425.39 8.28L425.39 8.28Q425.39-2.12 423.63-12.45L423.63-12.45Q415.36-8.20 403.67-3.00Q391.99 2.20 375.88 8.72L375.88 8.72Q374.19 11.79 371.12 12.30L371.12 12.30L361.38-10.77Q359.33-3.37 356.51 1.35Q353.69 6.08 350.10 8.72L350.10 8.72Q345.92 11.50 340.98 12.82Q336.04 14.14 329.22 14.14L329.22 14.14Q329.37 10.03 328.82 6.70Q328.27 3.37 326.51 1.32L326.51 1.32Q322.85-3.08 313.33-5.13L313.33-5.13L313.48-6.88Q316.41-6.67 320.03-6.48Q323.66-6.30 326.84-6.15Q330.03-6.01 331.64-6.01L331.64-6.01Q334.94-6.01 337.06-7.32L337.06-7.32Q343.95-12.60 347.39-48.27L347.39-48.27L326.07-48.27L325.20-40.65Q321.68-38.60 317.32-38.12Q312.96-37.65 304.98-38.96L304.98-38.96Q306.23-47.39 307.43-57.20Q308.64-67.02 309.56-76.17Q310.47-85.33 310.99-91.77L310.99-91.77L332.37-84.01L345.48-84.01L345.48-113.67L306.45-113.67Z"/>
    </svg>
        