<?xml version="1.0" encoding="UTF-8" standalone="no"?>
        <svg 
    viewBox="3.0029296875 -85.546875 448.828125 56.982421875"
    width="445.8251953125"
    height="142.529296875"
   xmlns="http://www.w3.org/2000/svg"
   xmlns:svg="http://www.w3.org/2000/svg">
   <path d="M28.05-90.01L28.05-128.10L54.57-125.54Q54.35-123.85 53.28-122.75Q52.22-121.66 49.07-121.22L49.07-121.22L49.07-90.89L57.42-102.91Q57.42-102.91 59.73-100.85Q62.04-98.80 65.30-95.84Q68.55-92.87 71.41-90.01L71.41-90.01L90.89-90.01L90.89-127.81L117.48-125.24Q117.26-123.71 116.16-122.53Q115.06-121.36 111.91-120.92L111.91-120.92L111.91-90.01L119.68-90.01L129.27-103.34Q129.27-103.34 131.03-101.88Q132.79-100.42 135.50-98.07Q138.21-95.73 141.14-93.13Q144.07-90.53 146.41-88.18L146.41-88.18Q145.75-85.77 142.24-85.77L142.24-85.77L115.21-85.77Q119.90-69.95 128.94-58.19Q137.99-46.44 148.83-40.80L148.83-40.80L148.83-38.96Q141.72-33.62 138.21-26.66Q134.69-19.70 133.67-10.99L133.67-10.99Q127.15-19.12 122.94-31.16Q118.73-43.21 116.24-57.31Q113.75-71.41 112.35-85.77L112.35-85.77L111.91-85.77L111.91 6.59Q111.91 7.62 109.28 9.38Q106.64 11.13 102.76 12.52Q98.88 13.92 94.92 13.92L94.92 13.92L90.89 13.92L90.89-43.80Q77.05-23.80 54.79-9.74L54.79-9.74L53.10-11.28Q61.96-20.80 68.63-32.96Q75.29-45.12 79.87-58.63Q84.45-72.14 87.01-85.77L87.01-85.77L71.41-85.77L71.26-86.28Q70.39-85.77 69.14-85.77L69.14-85.77L49.07-85.77L49.07-77.86Q59.03-74.63 64.38-70.31Q69.73-65.99 71.37-61.49Q73.02-56.98 71.89-53.17Q70.75-49.37 67.79-47.20Q64.82-45.04 60.90-45.41Q56.98-45.78 53.10-49.66L53.10-49.66Q53.54-55.74 52.29-61.96Q51.05-68.19 49.07-73.54L49.07-73.54L49.07 8.28Q49.07 9.08 46.51 10.47Q43.95 11.87 40.10 13.00Q36.25 14.14 32.23 14.14L32.23 14.14L28.05 14.14L28.05-43.07Q23.22-36.84 17.36-31.27Q11.50-25.71 4.61-20.87L4.61-20.87L3.00-22.34Q9.16-30.69 13.81-41.05Q18.46-51.42 21.68-62.88Q24.90-74.34 26.88-85.77L26.88-85.77L6.59-85.77L5.42-90.01L28.05-90.01ZM154.98-104.88L153.88-109.06L168.02-109.06L168.02-127.81L191.38-125.83Q191.31-124.58 190.47-123.63Q189.62-122.68 187.50-122.24L187.50-122.24L187.50-109.06L198.49-109.06L198.49-127.81L222.73-125.83Q222.51-124.58 221.59-123.56Q220.68-122.53 218.41-122.09L218.41-122.09L218.41-109.06L219.29-109.06L226.98-120.48Q226.98-120.48 229.25-118.43Q231.52-116.38 234.67-113.31Q237.82-110.23 240.45-107.23L240.45-107.23Q239.79-104.88 236.57-104.88L236.57-104.88L218.41-104.88L218.41-94.78Q218.41-94.26 214.89-92.50Q211.38-90.75 203.69-90.75L203.69-90.75L198.49-90.75L198.49-104.88L187.50-104.88L187.50-94.34Q187.50-93.90 185.30-92.61Q183.11-91.33 178.49-90.75L178.49-90.75L195.26-87.60Q194.97-86.35 193.91-85.73Q192.85-85.11 189.92-85.18L189.92-85.18L186.33-78.59L206.98-78.59L217.02-88.62L234.01-73.97Q233.13-72.95 231.63-72.25Q230.13-71.56 227.56-71.12L227.56-71.12Q227.27-51.05 226.76-37.32Q226.25-23.58 225.18-14.76Q224.12-5.93 222.29-0.81Q220.46 4.32 217.53 7.03L217.53 7.03Q210.35 13.92 197.24 13.92L197.24 13.92Q197.24 9.30 196.77 5.97Q196.29 2.64 194.68 0.73L194.68 0.73Q190.94-3.74 182.37-5.71L182.37-5.71L182.37-7.47Q186.25-7.25 191.09-6.99Q195.92-6.74 198.12-6.74L198.12-6.74Q201.34-6.74 202.81-8.42L202.81-8.42Q205.81-11.21 207.02-26.84Q208.23-42.48 208.67-74.41L208.67-74.41L183.62-74.41Q179.81-68.70 175.63-63.87L175.63-63.87L181.35-61.67L184.20-61.67L191.09-68.85L205.37-58.23Q204.79-57.50 203.61-56.80Q202.44-56.10 200.83-55.81L200.83-55.81L200.83-20.87Q200.76-20.36 198.63-19.37Q196.51-18.38 193.54-17.58Q190.58-16.77 188.09-16.77L188.09-16.77L185.38-16.77L185.38-25.63L179.37-25.63L179.37-16.04Q179.37-15.38 176.00-13.70Q172.63-12.01 166.77-12.01L166.77-12.01L164.14-12.01L164.14-52.66Q161.65-50.54 158.97-48.71Q156.30-46.88 153.44-45.26L153.44-45.26L152.12-46.36Q156.23-51.64 159.67-58.96Q163.11-66.28 165.67-74.41Q168.24-82.54 169.63-90.31L169.63-90.31L168.02-90.31L168.02-104.88L154.98-104.88ZM185.38-57.42L179.37-57.42L179.37-29.88L185.38-29.88L185.38-57.42ZM243.02-127.95L243.02-127.95L271.51-121.51Q271.07-120.04 269.71-119.09Q268.36-118.14 265.65-118.07L265.65-118.07Q262.50-104.88 258.33-93.90L258.33-93.90L268.95-93.90L279.42-107.89Q279.42-107.89 281.36-106.31Q283.30-104.74 286.23-102.32Q289.16-99.90 292.38-97.19Q295.61-94.48 298.17-92.07L298.17-92.07Q297.51-89.72 293.99-89.72L293.99-89.72L287.11-89.72Q285.72-72.51 281.95-56.73Q278.17-40.94 270.12-27.47L270.12-27.47Q281.76-13.77 299.12-5.27L299.12-5.27L298.68-3.74Q291.14-2.05 286.67 2.34Q282.20 6.74 280.22 13.92L280.22 13.92Q273.56 8.64 268.43 1.87Q263.31-4.91 259.50-12.89L259.50-12.89Q251.88-4.54 241.44 2.31Q231.01 9.16 217.02 14.14L217.02 14.14L216.14 12.74Q229.39 3.66 238.26-7.36Q247.12-18.38 252.61-30.91L252.61-30.91Q250.05-39.33 248.25-48.67Q246.46-58.01 245.21-68.12L245.21-68.12Q241.99-62.92 238.18-58.41Q234.38-53.91 230.13-49.95L230.13-49.95L228.30-50.98Q232.03-61.08 235.11-73.79Q238.18-86.50 240.27-100.42Q242.36-114.33 243.02-127.95ZM257.89-46.07L257.89-46.07Q260.74-56.40 262.13-67.38Q263.53-78.37 263.82-89.72L263.82-89.72L256.64-89.72Q254.74-85.18 252.69-81.04Q250.63-76.90 248.36-73.02L248.36-73.02Q251.81-58.01 257.89-46.07ZM410.08-118.51L410.08-118.51Q406.71-111.11 400.63-104.33Q394.56-97.56 386.76-91.92Q378.96-86.28 370.53-82.18L370.53-82.18L370.83-81.88Q370.09-81.01 368.55-80.09Q367.02-79.17 364.82-78.74L364.82-78.74L364.82-44.38Q369.07-50.24 372.44-57.71Q375.81-65.19 377.27-70.83L377.27-70.83L385.18-66.43L385.18-73.54L368.55-73.54L367.24-77.71L383.72-77.71L391.48-86.72L404.88-76.68L404.37-77.86L419.24-77.86L427.22-87.01L444.58-73.83Q443.92-72.88 442.46-72.07Q440.99-71.26 438.72-70.83L438.72-70.83L438.72-8.42Q438.72-1.90 437.33 2.78Q435.94 7.47 431.40 10.25Q426.86 13.04 417.33 13.92L417.33 13.92Q417.04 9.08 416.49 5.46Q415.94 1.83 414.62-0.44L414.62-0.44Q413.23-2.78 411.00-4.32Q408.76-5.86 404.37-6.74L404.37-6.74L404.37-8.86Q404.37-8.86 406.09-8.75Q407.81-8.64 410.27-8.53Q412.72-8.42 414.92-8.35Q417.11-8.28 418.07-8.28L418.07-8.28Q420.78-8.28 420.78-10.99L420.78-10.99L420.78-28.20Q416.82-24.90 412.24-21.90Q407.67-18.90 402.61-16.48L402.61-16.48L402.61-7.62Q402.61-1.25 401.29 3.30Q399.98 7.84 395.58 10.58Q391.19 13.33 382.03 14.28L382.03 14.28Q381.81 9.52 381.26 5.97Q380.71 2.42 379.47 0.29L379.47 0.29Q378.15-2.05 376.03-3.55Q373.90-5.05 369.73-5.86L369.73-5.86L369.73-8.13Q369.73-8.13 372.47-7.91Q375.22-7.69 378.33-7.51Q381.45-7.32 382.62-7.32L382.62-7.32Q385.18-7.32 385.18-10.03L385.18-10.03L385.18-25.93Q380.13-22.12 374.01-18.60Q367.90-15.09 361.38-12.60L361.38-12.60L359.84-14.28L363.43-18.46L346.36-18.46L346.36 10.03Q346.22 10.69 341.82 12.41Q337.43 14.14 329.52 14.14L329.52 14.14L325.63 14.14L325.63-18.46L305.13-18.46L303.88-22.63L325.63-22.63L325.63-40.80Q325.63-40.06 323.44-38.78Q321.24-37.50 317.83-36.44Q314.43-35.38 310.77-35.38L310.77-35.38L308.28-35.38L308.28-93.16L325.63-86.28L325.63-102.03L305.27-102.03L304.03-106.20L325.63-106.20L325.63-128.25L351.93-126.27Q351.71-124.58 350.61-123.56Q349.51-122.53 346.36-121.95L346.36-121.95L346.36-107.08L355.37-119.38Q355.37-119.38 357.13-117.92Q358.89-116.46 361.60-114.15Q364.31-111.84 367.27-109.24Q370.24-106.64 372.58-104.37L372.58-104.37Q371.92-102.03 368.41-102.03L368.41-102.03L346.36-102.03L346.36-87.60L353.25-95.07L367.38-84.45Q373.39-90.60 378.66-98.33Q383.94-106.05 387.49-113.89Q391.04-121.73 392.07-128.10L392.07-128.10L417.48-122.83Q417.11-121.58 415.87-120.89Q414.62-120.19 411.62-119.82L411.62-119.82Q415.21-114.77 421.55-111.00Q427.88-107.23 435.13-104.88Q442.38-102.54 448.68-101.51L448.68-101.51L448.83-99.76Q443.26-97.71 440.22-92.58Q437.18-87.45 436.67-81.74L436.67-81.74Q427.00-87.23 420.01-97.01Q413.01-106.79 410.08-118.51ZM411.62-71.12L411.62-71.12L420.78-65.84L420.78-73.68L408.76-73.68Q407.96-72.73 406.42-71.92Q404.88-71.12 402.61-70.68L402.61-70.68L402.61-48.12Q405.62-53.76 408.03-60.13Q410.45-66.50 411.62-71.12ZM378.74-44.97L378.74-44.97L385.18-41.24L385.18-53.10Q380.93-49.58 375.77-46.40Q370.61-43.21 364.97-40.94L364.97-40.94L363.87-42.11Q362.11-41.16 357.68-39.84Q353.25-38.53 349.51-38.53L349.51-38.53L346.36-38.53L346.36-23.73L354.93-36.18Q354.93-36.18 356.91-34.39Q358.89-32.59 361.89-29.92Q364.89-27.25 367.82-24.46L367.82-24.46Q375.37-35.52 378.74-44.97ZM412.94-46.80L412.94-46.80L420.78-42.48L420.78-54.57Q416.89-51.34 412.21-48.19Q407.52-45.04 402.61-42.63L402.61-42.63L402.61-23.22Q406.20-29.00 408.91-35.41Q411.62-41.82 412.94-46.80ZM325.63-45.48L346.36-45.48L346.36-61.52L325.63-61.52L325.63-45.48ZM325.63-65.70L346.36-65.70L346.36-81.74L325.63-81.74L325.63-65.70Z"/>
    </svg>
        