<?xml version="1.0" encoding="UTF-8" standalone="no"?>
        <svg 
    viewBox="3.0029296875 -85.25390625 295.9716796875 56.982421875"
    width="292.96875"
    height="142.236328125"
   xmlns="http://www.w3.org/2000/svg"
   xmlns:svg="http://www.w3.org/2000/svg">
   <path d="M28.05-90.01L28.05-128.10L54.57-125.54Q54.35-123.85 53.28-122.75Q52.22-121.66 49.07-121.22L49.07-121.22L49.07-90.89L57.42-102.91Q57.42-102.91 59.73-100.85Q62.04-98.80 65.30-95.84Q68.55-92.87 71.41-90.01L71.41-90.01L90.89-90.01L90.89-127.81L117.48-125.24Q117.26-123.71 116.16-122.53Q115.06-121.36 111.91-120.92L111.91-120.92L111.91-90.01L119.68-90.01L129.27-103.34Q129.27-103.34 131.03-101.88Q132.79-100.42 135.50-98.07Q138.21-95.73 141.14-93.13Q144.07-90.53 146.41-88.18L146.41-88.18Q145.75-85.77 142.24-85.77L142.24-85.77L115.21-85.77Q119.90-69.95 128.94-58.19Q137.99-46.44 148.83-40.80L148.83-40.80L148.83-38.96Q141.72-33.62 138.21-26.66Q134.69-19.70 133.67-10.99L133.67-10.99Q127.15-19.12 122.94-31.16Q118.73-43.21 116.24-57.31Q113.75-71.41 112.35-85.77L112.35-85.77L111.91-85.77L111.91 6.59Q111.91 7.62 109.28 9.38Q106.64 11.13 102.76 12.52Q98.88 13.92 94.92 13.92L94.92 13.92L90.89 13.92L90.89-43.80Q77.05-23.80 54.79-9.74L54.79-9.74L53.10-11.28Q61.96-20.80 68.63-32.96Q75.29-45.12 79.87-58.63Q84.45-72.14 87.01-85.77L87.01-85.77L71.41-85.77L71.26-86.28Q70.39-85.77 69.14-85.77L69.14-85.77L49.07-85.77L49.07-77.86Q59.03-74.63 64.38-70.31Q69.73-65.99 71.37-61.49Q73.02-56.98 71.89-53.17Q70.75-49.37 67.79-47.20Q64.82-45.04 60.90-45.41Q56.98-45.78 53.10-49.66L53.10-49.66Q53.54-55.74 52.29-61.96Q51.05-68.19 49.07-73.54L49.07-73.54L49.07 8.28Q49.07 9.08 46.51 10.47Q43.95 11.87 40.10 13.00Q36.25 14.14 32.23 14.14L32.23 14.14L28.05 14.14L28.05-43.07Q23.22-36.84 17.36-31.27Q11.50-25.71 4.61-20.87L4.61-20.87L3.00-22.34Q9.16-30.69 13.81-41.05Q18.46-51.42 21.68-62.88Q24.90-74.34 26.88-85.77L26.88-85.77L6.59-85.77L5.42-90.01L28.05-90.01ZM232.98-57.28L232.98-127.95L258.62-125.68Q258.40-124.15 257.30-123.05Q256.20-121.95 253.05-121.51L253.05-121.51L253.05-113.53L268.65-113.53L277.51-124.66Q277.51-124.66 280.30-122.57Q283.08-120.48 286.89-117.48Q290.70-114.48 293.85-111.77L293.85-111.77Q293.19-109.35 289.67-109.35L289.67-109.35L253.05-109.35L253.05-97.19L267.11-97.19L275.54-107.52Q275.54-107.52 278.17-105.54Q280.81-103.56 284.44-100.74Q288.06-97.92 290.99-95.43L290.99-95.43Q290.33-93.02 286.96-93.02L286.96-93.02L253.05-93.02L253.05-80.13L270.78-80.13L279.57-91.19Q279.57-91.19 282.35-89.10Q285.13-87.01 288.98-84.01Q292.82-81.01 295.97-78.30L295.97-78.30Q295.31-75.88 291.72-75.88L291.72-75.88L253.05-75.88L253.05-62.11Q253.05-61.38 250.56-60.24Q248.07-59.11 244.23-58.19Q240.38-57.28 236.43-57.28L236.43-57.28L232.98-57.28ZM166.63-64.01L157.18-80.57Q163.40-80.86 175.01-81.77Q186.62-82.69 200.24-83.86L200.24-83.86Q200.83-86.21 201.05-88.66Q201.27-91.11 201.27-93.60L201.27-93.60L167.29-93.60L165.89-97.78L201.27-97.78L201.27-109.64L162.30-109.64L160.99-113.82L201.27-113.82L201.27-127.81L225.44-125.54Q225.22-124.00 224.19-123.01Q223.17-122.02 220.53-121.66L220.53-121.66L220.53-94.19Q220.39-86.87 218.04-80.38Q215.70-73.90 209.91-68.52Q204.13-63.13 193.87-59.03Q183.62-54.93 167.72-52.22L167.72-52.22L166.92-53.69Q180.47-58.45 187.79-64.49Q195.12-70.53 198.27-77.71L198.27-77.71Q192.77-75.59 185.85-72.99Q178.93-70.39 170.43-67.38L170.43-67.38Q169.34-64.60 166.63-64.01L166.63-64.01ZM200.10-37.50L200.10-46.22L186.47-46.22L200.10-37.50ZM184.50-29.37L184.50-29.37L200.10-19.78L200.10-36.91Q199.44-36.04 198.27-35.71Q197.09-35.38 194.82-35.82L194.82-35.82Q188.67-31.93 179.44-28.31Q170.21-24.68 160.77-22.63L160.77-22.63L159.30-24.46Q165.60-28.71 171.64-34.83Q177.69-40.94 181.49-46.22L181.49-46.22L159.74-46.22L158.42-50.39L198.63-50.39L206.98-59.84L225.15-46.22Q224.49-45.26 222.99-44.38Q221.48-43.51 218.99-43.07L218.99-43.07L218.99-4.83Q218.99 0.66 217.49 4.54Q215.99 8.42 211.12 10.77Q206.25 13.11 196.22 13.92L196.22 13.92Q196.00 10.11 195.41 7.29Q194.82 4.47 193.36 2.71L193.36 2.71Q191.89 1.10 189.51-0.29Q187.13-1.68 182.08-2.56L182.08-2.56L182.08-4.32Q182.08-4.32 183.98-4.21Q185.89-4.10 188.56-3.96Q191.24-3.81 193.73-3.70Q196.22-3.59 197.39-3.59L197.39-3.59Q200.10-3.59 200.10-6.30L200.10-6.30L200.10-16.19L197.68-16.33Q190.36-10.47 179.00-5.42Q167.65-0.37 155.27 2.12L155.27 2.12L154.03 0.29Q160.25-3.44 166.19-8.57Q172.12-13.70 176.88-19.15Q181.64-24.61 184.50-29.37ZM249.32-29.74L249.32-29.74L265.50-19.92L265.50-46.66L248.22-46.66L263.82-36.47Q263.16-35.45 261.95-35.01Q260.74-34.57 258.33-35.08L258.33-35.08Q251.88-31.13 242.36-27.80Q232.84-24.46 223.02-22.63L223.02-22.63L221.70-24.46Q228.08-28.71 234.45-35.05Q240.82-41.38 244.63-46.66L244.63-46.66L226.83-46.66L225.44-50.83L263.96-50.83L273.12-61.08L292.53-46.51Q291.72-45.63 290.30-44.64Q288.87-43.65 286.52-43.36L286.52-43.36L286.52-5.27Q286.52 0.37 284.88 4.36Q283.23 8.35 277.99 10.69Q272.75 13.04 262.06 13.77L262.06 13.77Q261.84 9.89 261.29 6.96Q260.74 4.03 259.20 2.27L259.20 2.27Q257.89 0.66 255.65-0.73Q253.42-2.12 248.22-3.00L248.22-3.00L248.22-4.83Q248.22-4.83 250.05-4.69Q251.88-4.54 254.44-4.39Q257.01-4.25 259.39-4.14Q261.77-4.03 262.79-4.03L262.79-4.03Q265.50-4.03 265.50-6.74L265.50-6.74L265.50-15.89L263.53-16.19Q256.13-9.89 244.59-4.47Q233.06 0.95 220.39 3.74L220.39 3.74L219.14 1.98Q225.44-2.12 231.30-7.58Q237.16-13.04 241.85-18.86Q246.53-24.68 249.32-29.74Z"/>
    </svg>
        