<?xml version="1.0" encoding="UTF-8" standalone="no"?>
        <svg 
    viewBox="2.5634765625 -86.3525390625 448.53515625 57.2021484375"
    width="445.9716796875"
    height="143.5546875"
   xmlns="http://www.w3.org/2000/svg"
   xmlns:svg="http://www.w3.org/2000/svg">
   <path d="M67.53-53.39L27.03-53.39L27.03-45.48L67.53-45.48L67.53-53.39ZM27.03-59.99L27.03-57.57L67.53-57.57L67.53-63.72L62.40-63.57L58.37-63.57Q51.86-63.57 50.32-66.03Q48.78-68.48 48.78-74.12L48.78-74.12L48.78-82.98L44.38-82.98Q44.09-78.88 42.59-74.67Q41.09-70.46 37.43-66.65Q33.76-62.84 27.03-59.99L27.03-59.99ZM20.73-119.38L20.73-119.38L43.51-110.67Q43.07-109.50 41.60-108.62Q40.14-107.74 37.65-108.03L37.65-108.03Q36.18-106.05 34.42-104.19Q32.67-102.32 30.76-100.49L30.76-100.49L58.67-100.49L66.58-110.38L64.97-116.09L33.91-116.09L32.52-120.26L61.67-120.26L66.43-128.98L80.57-120.12Q79.32-118.65 75.73-117.70Q72.14-116.75 68.12-116.38L68.12-116.38Q71.92-112.57 78.59-109.61Q85.25-106.64 93.02-105.18L93.02-105.18L93.02-123.27L113.23-113.96L120.12-113.96L130.22-123.93L149.71-106.35Q148.32-104.30 142.97-104.08L142.97-104.08Q140.19-99.17 136.23-92.58Q132.28-85.99 127.77-79.36Q123.27-72.73 118.95-67.68L118.95-67.68Q127.66-62.62 133.19-55.85Q138.72-49.07 141.36-41.78Q143.99-34.50 143.99-27.91L143.99-27.91Q143.99-16.19 138.61-9.19Q133.23-2.20 119.24-2.12L119.24-2.12Q119.24-6.52 118.69-11.61Q118.14-16.70 117.11-18.75L117.11-18.75Q115.58-21.46 111.33-22.78L111.33-22.78L111.33 8.57Q111.33 9.59 107.30 11.94Q103.27 14.28 96.31 14.28L96.31 14.28L93.02 14.28L93.02-23.88Q92.14-22.19 89.43-22.19L89.43-22.19L54.93-22.19Q54.57-20.73 54.20-19.37Q53.83-18.02 53.39-16.63L53.39-16.63Q64.38-16.26 71.19-13.59Q78.00-10.91 81.34-7.10Q84.67-3.30 85.07 0.59Q85.47 4.47 83.61 7.43Q81.74 10.40 78.19 11.39Q74.63 12.38 70.02 10.33L70.02 10.33Q67.46 4.39 62.37-1.83Q57.28-8.06 51.93-12.74L51.93-12.74Q49.00-6.59 43.36-1.61Q37.72 3.37 28.13 7.32Q18.53 11.28 3.74 14.28L3.74 14.28L2.56 12.30Q14.72 7.76 21.57 2.60Q28.42-2.56 31.57-8.72Q34.72-14.87 35.67-22.19L35.67-22.19L6.59-22.19L5.42-26.37L36.18-26.37Q36.47-29.88 36.55-33.54Q36.62-37.21 36.62-41.24L36.62-41.24L27.03-41.24L27.03-36.77Q27.03-35.96 23.33-34.31Q19.63-32.67 13.18-32.67L13.18-32.67L10.18-32.67L10.18-87.01L4.83-84.89L3.15-86.43Q8.86-92.14 13.55-101.22Q18.24-110.30 20.73-119.38ZM67.53-35.82L67.53-41.24L56.69-41.24Q56.62-37.21 56.36-33.51Q56.10-29.81 55.66-26.37L55.66-26.37L65.99-26.37L73.54-36.04L70.53-35.82L67.53-35.82ZM31.20-87.16L31.20-96.31L25.78-96.31Q24.02-94.92 22.08-93.64Q20.14-92.36 18.16-91.19L18.16-91.19L28.49-87.16L31.20-87.16ZM48.78-96.31L44.53-96.31L44.53-87.16L48.78-87.16L48.78-96.31ZM73.54-96.31L61.82-96.31L61.82-87.16L66.87-87.16L74.12-95.43L73.54-96.31ZM78.88-36.77L78.88-36.77Q81.52-34.72 85.58-31.42Q89.65-28.13 93.02-25.20L93.02-25.20L93.02-97.63Q90.75-95.73 88.92-93.31Q87.08-90.89 86.13-88.18L86.13-88.18L90.75-84.59Q89.94-83.57 88.70-82.87Q87.45-82.18 84.89-81.74L84.89-81.74L84.89-39.62Q84.89-38.45 78.88-36.77ZM27.03-82.98L27.03-64.23Q29.74-68.48 30.40-73.24Q31.05-78.00 31.20-82.98L31.20-82.98L27.03-82.98ZM67.53-82.98L61.82-82.98L61.82-77.12Q61.82-75.15 62.99-75.15L62.99-75.15L64.23-75.15Q64.45-75.15 64.75-75.15Q65.04-75.15 65.41-75.15L65.41-75.15L67.53-75.29L67.53-82.98ZM121.66-109.79L121.66-109.79L111.33-109.79L111.33-24.90L119.09-24.90Q121.00-24.90 122.09-25.63L122.09-25.63Q123.56-26.66 124.40-28.60Q125.24-30.54 125.24-33.91L125.24-33.91Q125.24-42.11 122.97-50.94Q120.70-59.77 115.06-67.24L115.06-67.24Q116.24-72.51 117.52-80.05Q118.80-87.60 119.90-95.51Q121.00-103.42 121.66-109.79ZM177.76-128.25L177.76-128.25L206.98-119.68Q206.03-116.53 200.98-116.53L200.98-116.53L199.07-111.77L234.16-111.77L234.16-128.10L261.04-125.83Q260.74-124.29 259.68-123.12Q258.62-121.95 255.47-121.51L255.47-121.51L255.47-111.77L266.82-111.77L277.66-125.83Q277.66-125.83 279.64-124.29Q281.62-122.75 284.66-120.30Q287.70-117.85 291.03-115.10Q294.36-112.35 297.14-109.94L297.14-109.94Q296.78-108.69 295.57-108.11Q294.36-107.52 292.82-107.52L292.82-107.52L274.51-107.52L293.12-93.75Q292.53-92.94 291.21-92.14Q289.89-91.33 287.84-90.89L287.84-90.89L287.84-64.67Q287.77-64.09 283.85-62.73Q279.93-61.38 275.39-60.57L275.39-60.57Q284.11-59.33 288.57-55.99Q293.04-52.66 293.99-48.71Q294.95-44.75 293.19-41.53Q291.43-38.31 287.70-37.35L287.70-37.35Q290.48-35.23 293.74-32.63Q297.00-30.03 299.56-27.76L299.56-27.76Q298.90-25.34 295.39-25.34L295.39-25.34L270.63-25.34L270.63-7.76Q270.63-0.95 268.98 3.66Q267.33 8.28 262.17 10.95Q257.01 13.62 246.46 14.58L246.46 14.58Q246.24 9.96 245.73 6.56Q245.21 3.15 243.75 0.88L243.75 0.88Q242.50-1.10 240.31-2.64Q238.11-4.17 233.42-5.13L233.42-5.13L233.42-5.86Q232.40-2.49 229.32-0.33Q226.25 1.83 222.14 1.72Q218.04 1.61 213.87-1.98L213.87-1.98Q213.79-8.06 211.78-14.03Q209.77-20.00 207.13-24.32L207.13-24.32L208.23-25.05Q218.48-23.80 224.23-20.80Q229.98-17.80 232.14-14.10Q234.30-10.40 233.72-7.03L233.72-7.03L247.34-6.30Q249.61-6.30 249.61-8.28L249.61-8.28L249.61-25.34L195.63-25.34L194.38-29.52L249.61-29.52L249.61-43.65L275.54-41.53Q275.17-38.45 270.63-37.79L270.63-37.79L270.63-29.52L271.22-29.52L279.27-39.77Q277.81-42.48 275.79-45.15Q273.78-47.83 271.51-50.39L271.51-50.39Q260.67-47.24 245.36-43.51Q230.05-39.77 208.81-34.94L208.81-34.94Q207.20-32.15 204.27-31.64L204.27-31.64L196.36-52.08Q202.22-51.93 212.07-52.11Q221.92-52.29 234.16-52.66L234.16-52.66L234.16-63.72L224.27-63.72L224.27-61.96Q224.27-61.01 221.48-59.47Q218.70-57.93 214.49-56.73Q210.28-55.52 205.96-55.52L205.96-55.52L202.95-55.52L202.95-106.49L225.29-98.07L234.16-98.07L234.16-107.52L199.66-107.52L198.78-110.82Q192.92-96.68 185.67-84.74L185.67-84.74L193.80-81.74Q193.14-79.61 189.18-78.74L189.18-78.74L189.18 8.28Q188.96 9.01 186.44 10.40Q183.91 11.79 180.03 12.96Q176.15 14.14 172.05 14.14L172.05 14.14L168.16 14.14L168.16-60.72Q164.65-56.84 160.88-53.28Q157.10-49.73 153.15-46.51L153.15-46.51L151.46-47.53Q156.67-57.50 161.76-70.79Q166.85-84.08 171.02-98.88Q175.20-113.67 177.76-128.25ZM261.18-59.99L262.21-61.08L266.09-61.23L266.09-63.72L255.47-63.72L255.47-53.25L268.21-53.69Q266.38-55.52 264.62-57.13Q262.87-58.74 261.18-59.99L261.18-59.99ZM264.62-98.07L273.49-107.52L255.47-107.52L255.47-98.07L264.62-98.07ZM266.09-82.98L266.09-93.90L255.47-93.90L255.47-82.98L266.09-82.98ZM266.09-67.97L266.09-78.74L255.47-78.74L255.47-67.97L266.09-67.97ZM234.16-78.74L224.27-78.74L224.27-67.97L234.16-67.97L234.16-78.74ZM224.27-93.90L224.27-82.98L234.16-82.98L234.16-93.90L224.27-93.90ZM411.62-35.52L391.04-35.52L391.04-22.05L411.62-22.05L411.62-35.52ZM391.04-52.51L391.04-39.77L411.62-39.77L411.62-52.51L391.04-52.51ZM342.11-7.76L342.11-106.05L365.84-103.78Q365.63-102.47 364.60-101.48Q363.57-100.49 360.86-100.05L360.86-100.05L360.86-80.86Q365.99-89.65 370.35-102.32Q374.71-114.99 376.98-128.25L376.98-128.25L402.91-119.82Q401.66-116.60 396.75-116.82L396.75-116.82Q395.65-114.62 394.41-112.39Q393.16-110.16 391.77-108.18L391.77-108.18L416.09-108.18L426.42-122.09Q426.42-122.09 428.32-120.56Q430.22-119.02 433.15-116.60Q436.08-114.18 439.27-111.44Q442.46-108.69 445.02-106.35L445.02-106.35Q444.58-103.93 440.84-103.93L440.84-103.93L428.98-103.93Q423.85-92.87 414.77-83.72L414.77-83.72Q429.35-80.13 448.54-79.17L448.54-79.17L448.17-77.42Q442.24-74.78 439.42-69.87Q436.60-64.97 436.08-57.42L436.08-57.42L429.79-58.96L438.43-52.37Q437.70-51.42 436.27-50.54Q434.84-49.66 432.42-49.22L432.42-49.22L432.42-6.74Q432.42-0.44 430.92 4.03Q429.42 8.50 424.48 11.10Q419.53 13.70 409.35 14.58L409.35 14.58Q409.20 9.96 408.80 6.67Q408.40 3.37 407.23 1.17L407.23 1.17Q406.20-0.81 404.41-2.42Q402.61-4.03 398.58-4.83L398.58-4.83L398.58-6.59Q398.58-6.59 400.67-6.48Q402.76-6.37 405.32-6.26Q407.89-6.15 409.20-6.15L409.20-6.15Q410.67-6.15 411.15-6.77Q411.62-7.40 411.62-8.57L411.62-8.57L411.62-17.87L391.04-17.87L391.04 8.42Q391.04 9.45 386.65 11.87Q382.25 14.28 374.41 14.28L374.41 14.28L370.68 14.28L370.68-59.11L360.86-56.40L360.86-13.18Q360.86-12.38 358.52-11.10Q356.18-9.81 352.66-8.79Q349.15-7.76 345.63-7.76L345.63-7.76L342.11-7.76ZM378.88-61.82L393.16-56.69L410.08-56.69L416.09-63.57Q407.30-67.46 400.78-72.58L400.78-72.58Q391.04-66.36 378.88-61.82L378.88-61.82ZM382.47-96.02L382.47-96.02Q378.00-90.82 372.91-86.72Q367.82-82.62 362.40-79.32L362.40-79.32L360.86-80.42L360.86-58.96Q370.46-63.43 378.30-69.10Q386.13-74.78 392.07-81.30L392.07-81.30Q389.28-84.59 386.98-88.26Q384.67-91.92 382.47-96.02ZM388.92-103.93L385.33-99.32Q390.67-93.75 398.58-89.72L398.58-89.72Q403.13-96.61 405.62-103.93L405.62-103.93L388.92-103.93ZM321.75-128.25L321.75-128.25L348.12-119.97Q347.17-116.82 342.11-116.82L342.11-116.82Q336.91-99.10 329.88-84.74L329.88-84.74L339.33-81.30Q338.82-80.27 337.72-79.54Q336.62-78.81 334.50-78.44L334.50-78.44L334.50 9.01Q334.42 9.67 332.01 10.91Q329.59 12.16 325.96 13.22Q322.34 14.28 318.60 14.28L318.60 14.28L315.01 14.28L315.01-60.86Q312.30-57.42 309.45-54.27Q306.59-51.12 303.44-48.27L303.44-48.27L301.68-49.37Q306.08-59.40 310.07-72.36Q314.06-85.33 317.10-99.72Q320.14-114.11 321.75-128.25Z"/>
    </svg>
        