<?xml version="1.0" encoding="UTF-8" standalone="no"?>
        <svg 
    viewBox="3.0029296875 -86.865234375 445.8251953125 56.54296875"
    width="442.822265625"
    height="143.408203125"
   xmlns="http://www.w3.org/2000/svg"
   xmlns:svg="http://www.w3.org/2000/svg">
   <path d="M28.34-82.47L28.34-97.92L41.53-96.90L41.53-107.37L5.13-107.37L4.03-111.62L41.53-111.62L41.53-128.10L67.38-125.98Q67.24-124.44 66.14-123.41Q65.04-122.39 62.11-121.95L62.11-121.95L62.11-111.62L86.43-111.62L86.43-128.10L112.79-125.98Q112.72-124.44 111.58-123.41Q110.45-122.39 107.37-121.95L107.37-121.95L107.37-111.62L119.53-111.62L129.13-124.07Q129.13-124.07 132.06-121.73Q134.99-119.38 138.94-116.05Q142.90-112.72 145.97-109.79L145.97-109.79Q145.31-107.37 141.72-107.37L141.72-107.37L107.37-107.37L107.37-99.90Q107.37-98.80 102.32-97.34L102.32-97.34L120.92-96.02Q120.78-94.78 120.01-93.97Q119.24-93.16 116.82-92.72L116.82-92.72L116.82-82.47L118.21-82.47L127.66-94.78Q127.66-94.78 130.59-92.47Q133.52-90.16 137.51-86.87Q141.50-83.57 144.73-80.71L144.73-80.71Q144.07-78.30 140.55-78.30L140.55-78.30L116.82-78.30L116.82-59.55Q116.82-58.59 114.11-56.95Q111.40-55.30 107.41-53.98Q103.42-52.66 99.61-52.66L99.61-52.66L97.05-52.66L97.05-59.99L83.28-59.99L83.28-55.22Q83.28-54.42 80.60-53.21Q77.93-52.00 73.97-51.05Q70.02-50.10 66.14-50.10L66.14-50.10L62.99-50.10L62.99-78.30L48.63-78.30L48.63-47.24L112.65-47.24L122.24-59.11Q122.24-59.11 125.24-56.87Q128.25-54.64 132.39-51.45Q136.52-48.27 139.82-45.48L139.82-45.48Q139.16-43.07 135.57-43.07L135.57-43.07L90.31-43.07Q89.14-41.38 85.47-40.80L85.47-40.80L85.47-29.52L117.77-29.52L127.81-41.97Q127.81-41.97 130.96-39.62Q134.11-37.28 138.43-33.98Q142.75-30.69 146.26-27.76L146.26-27.76Q145.61-25.34 142.02-25.34L142.02-25.34L90.31-25.34Q97.12-20.87 106.38-17.40Q115.65-13.92 125.90-11.65Q136.16-9.38 145.83-8.57L145.83-8.57L145.53-6.74Q139.89-5.20 135.86-0.29Q131.84 4.61 130.37 12.16L130.37 12.16Q114.70 6.67 103.71-2.60Q92.72-11.87 85.47-24.90L85.47-24.90L85.47 10.47Q85.47 11.21 82.80 12.30Q80.13 13.40 76.06 14.28Q72.00 15.16 67.82 15.16L67.82 15.16L64.23 15.16L64.23-14.58Q53.54-5.35 38.20 1.03Q22.85 7.40 3.74 11.28L3.74 11.28L3.00 9.45Q17.94 3.52 29.37-5.57Q40.80-14.65 47.53-25.34L47.53-25.34L4.98-25.34L3.74-29.52L64.23-29.52L64.23-43.07L48.63-43.07L48.63-39.92Q48.63-38.96 45.92-37.43Q43.21-35.89 39.22-34.68Q35.23-33.47 31.35-33.47L31.35-33.47L28.34-33.47L28.34-78.30L6.88-78.30L5.71-82.47L28.34-82.47ZM62.99-82.47L62.99-98.73L86.43-96.75L86.43-107.37L62.11-107.37L62.11-99.17Q62.11-98.36 59.73-97.38Q57.35-96.39 53.54-95.87L53.54-95.87Q53.32-94.48 52.37-93.53Q51.42-92.58 48.63-92.07L48.63-92.07L48.63-82.47L62.99-82.47ZM97.05-64.23L97.05-78.30L83.28-78.30L83.28-64.23L97.05-64.23ZM83.28-82.47L97.05-82.47L97.05-96.46Q93.68-96.02 89.87-96.02L89.87-96.02L87.74-96.02Q87.67-94.85 86.68-94.01Q85.69-93.16 83.28-92.87L83.28-92.87L83.28-82.47ZM253.64-68.12L253.64-89.43L274.07-87.74Q273.78-84.59 269.82-84.16L269.82-84.16L269.82-72.29Q269.82-71.19 270.26-70.86Q270.70-70.53 272.24-70.53L272.24-70.53L277.08-70.53Q278.54-70.53 279.71-70.53Q280.88-70.53 281.54-70.53L281.54-70.53Q282.35-70.53 283.08-70.68Q283.81-70.83 284.40-71.41L284.40-71.41Q285.21-72.29 286.45-74.56Q287.70-76.83 289.01-80.13L289.01-80.13L290.70-80.13L291.14-71.41Q294.07-70.02 295.02-68.52Q295.97-67.02 295.97-64.82L295.97-64.82Q295.97-60.06 291.21-57.42Q286.45-54.79 275.10-54.79L275.10-54.79L266.82-54.79Q261.04-54.79 258.22-55.99Q255.40-57.20 254.52-60.10Q253.64-62.99 253.64-68.12L253.64-68.12ZM176.73-20.73L176.73-97.78Q175.78-95.65 171.75-95.21L171.75-95.21L171.75-20.73L176.73-20.73ZM234.74-61.67L234.74-61.67L259.79-53.25Q259.35-51.93 257.78-51.05Q256.20-50.17 253.64-50.24L253.64-50.24Q252.17-47.90 250.71-45.67Q249.24-43.43 247.63-41.38L247.63-41.38L260.38-41.38L271.66-51.64L289.23-36.04Q287.92-33.98 283.08-33.62L283.08-33.62Q279.64-27.76 275.50-22.67Q271.36-17.58 266.38-13.04L266.38-13.04Q280.08-9.01 298.68-7.62L298.68-7.62L298.54-6.01Q292.31-3.30 289.38 1.65Q286.45 6.59 285.72 14.28L285.72 14.28Q274.51 11.57 266.20 7.32Q257.89 3.08 251.51-2.56L251.51-2.56Q228.08 10.69 193.65 14.28L193.65 14.28L193.07 12.45Q208.37 8.28 220.86 1.98Q233.35-4.32 242.72-12.74L242.72-12.74Q237.74-19.70 234.16-28.05L234.16-28.05Q228.88-24.10 223.17-21.13Q217.46-18.16 211.52-15.89L211.52-15.89L210.72-16.63L210.72-9.59Q210.72-8.86 208.96-7.80Q207.20-6.74 204.57-5.93Q201.93-5.13 199.22-5.13L199.22-5.13L196.51-5.13L196.51-16.48L171.75-16.48L171.75-4.32Q171.75-3.59 169.96-2.49Q168.16-1.39 165.42-0.55Q162.67 0.29 159.89 0.29L159.89 0.29L157.18 0.29L157.18-101.37L176.73-99.46L176.73-123.93L197.53-121.95Q197.24-120.26 196.07-119.17Q194.90-118.07 191.97-117.63L191.97-117.63L191.97-20.73L196.51-20.73L196.51-102.03L212.70-100.34L212.26-102.03L232.32-101.88Q233.50-108.62 234.38-115.69Q235.25-122.75 235.77-128.25L235.77-128.25L262.94-123.12Q262.21-119.90 257.37-119.68L257.37-119.68Q254.59-116.02 250.67-111.33Q246.75-106.64 242.43-102.03L242.43-102.03L270.63-102.47Q265.94-109.64 260.38-114.77L260.38-114.77L261.62-115.65Q273.41-114.18 280.55-110.63Q287.70-107.08 290.95-102.69Q294.21-98.29 294.43-94.08Q294.65-89.87 292.49-86.94Q290.33-84.01 286.67-83.35Q283.01-82.69 278.54-85.47L278.54-85.47Q277.88-88.33 276.67-91.22Q275.46-94.12 273.93-96.90L273.93-96.90Q266.38-94.78 256.97-92.36Q247.56-89.94 235.99-87.16L235.99-87.16L252.61-82.18Q252.17-80.93 251.04-80.20Q249.90-79.47 247.34-79.32L247.34-79.32Q242.50-68.55 233.61-60.75Q224.71-52.95 210.72-50.24L210.72-50.24L210.72-18.16Q218.26-25.49 224.82-36.88Q231.37-48.27 234.74-61.67ZM210.72-95.87L210.72-52.81Q218.99-58.45 223.13-67.16Q227.27-75.88 228.74-85.33L228.74-85.33L223.32-84.16Q221.70-81.08 218.70-80.86L218.70-80.86L213.87-96.75Q213.35-96.53 212.55-96.24Q211.74-95.95 210.72-95.87L210.72-95.87ZM260.52-37.21L260.52-37.21L244.04-37.21Q242.50-35.38 240.75-33.73Q238.99-32.08 237.30-30.62L237.30-30.62Q239.79-27.54 242.91-24.94Q246.02-22.34 249.76-20.07L249.76-20.07Q256.49-27.98 260.52-37.21ZM322.78-113.23L322.78-113.23L324.61-113.23Q325.85-110.74 326.70-108.33Q327.54-105.91 328.20-103.64L328.20-103.64L363.57-103.64L363.57-128.25L391.48-126.27Q391.41-124.73 390.34-123.63Q389.28-122.53 386.13-121.95L386.13-121.95L386.13-103.64L416.97-103.64L427.51-114.18L445.68-97.05Q444.65-96.17 443.37-95.76Q442.09-95.36 439.67-95.07L439.67-95.07Q435.35-92.14 428.98-88.92Q422.61-85.69 416.82-83.72L416.82-83.72L425.83-76.17Q425.17-73.83 421.66-73.83L421.66-73.83L386.13-73.83L386.13-49.22L416.24-49.22L426.78-62.99Q426.78-62.99 428.72-61.49Q430.66-59.99 433.63-57.57Q436.60-55.15 439.89-52.44Q443.19-49.73 445.83-47.39L445.83-47.39Q445.17-44.97 441.58-44.97L441.58-44.97L386.13-44.97L386.13-11.72Q386.13-4.47 384.12 1.10Q382.10 6.67 375.92 10.14Q369.73 13.62 357.28 14.58L357.28 14.58Q357.06 9.01 356.07 4.91Q355.08 0.81 352.81-1.68L352.81-1.68Q350.68-4.03 347.28-5.90Q343.87-7.76 336.47-9.01L336.47-9.01L336.47-10.77Q336.47-10.77 339.55-10.62Q342.63-10.47 346.95-10.22Q351.27-9.96 355.11-9.78Q358.96-9.59 360.42-9.59L360.42-9.59Q363.57-9.59 363.57-12.45L363.57-12.45L363.57-44.97L306.30-44.97L305.13-49.22L363.57-49.22L363.57-73.83L328.78-73.83L327.61-78.00L396.02-78.00L406.64-91.48L414.62-85.33Q415.50-88.48 416.42-92.29Q417.33-96.09 417.92-99.46L417.92-99.46L329.08-99.46Q330.47-91.33 328.45-85.58Q326.44-79.83 322.49-77.27L322.49-77.27Q319.85-75.51 316.55-75.62Q313.26-75.73 310.40-77.53Q307.54-79.32 306.45-82.76L306.45-82.76Q304.98-87.67 307.32-91.26Q309.67-94.85 313.77-96.90L313.77-96.90Q315.89-98.22 318.13-100.78Q320.36-103.34 321.75-106.57Q323.14-109.79 322.78-113.23Z"/>
    </svg>
        