<?xml version="1.0" encoding="iso-8859-1"?>
<!-- Uploaded to: SVG Repo, www.svgrepo.com, Generator: SVG Repo Mixer Tools -->
<svg fill="#000000" height="800px" width="800px" version="1.1" id="Layer_1" xmlns="http://www.w3.org/2000/svg" xmlns:xlink="http://www.w3.org/1999/xlink" viewBox="0 0 512 512" xml:space="preserve" style="fill:#f9eced;">
<g>
	<g>
		<path d="M499.677,426.489c4.428,0,8.017-3.589,8.017-8.017V84.977c0-2.1-0.862-4.183-2.347-5.668l-76.96-76.96
			C426.9,0.863,424.817,0,422.716,0H106.324C92.473,0,81.205,11.268,81.205,25.119v9.086H12.261c-6.987,0-10.615,8.738-5.669,13.685
			l62.741,62.741L6.592,173.371c-4.946,4.947-1.319,13.685,5.669,13.685h68.944v299.825c0,13.851,11.268,25.119,25.119,25.119
			h376.251c13.851,0,25.119-11.268,25.119-25.119v-34.205c0-4.427-3.588-8.017-8.017-8.017c-4.428,0-8.017,3.589-8.017,8.017v34.205
			c0,5.01-4.076,9.086-9.086,9.086H106.324c-5.01,0-9.086-4.076-9.086-9.086V187.056h51.841c4.428,0,8.017-3.589,8.017-8.017
			s-3.588-8.017-8.017-8.017H31.615l54.724-54.724c3.131-3.131,3.131-8.207,0-11.337L31.615,50.238h348.88v120.785H183.284
			c-4.428,0-8.017,3.589-8.017,8.017s3.588,8.017,8.017,8.017h205.228c4.428,0,8.017-3.589,8.017-8.017V42.221
			c0-4.427-3.588-8.017-8.017-8.017H97.238v-9.086c0-5.01,4.076-9.086,9.086-9.086H414.7v51.841
			c0,13.851,11.268,25.119,25.119,25.119h51.841v325.478C491.66,422.9,495.248,426.489,499.677,426.489z M439.819,76.96
			c-5.01,0-9.086-4.076-9.086-9.086V27.37l49.589,49.59H439.819z"/>
	</g>
</g>
<g>
	<g>
		<path d="M191.835,128.267h-26.188v-9.62h9.086c4.428,0,8.017-3.589,8.017-8.017s-3.588-8.017-8.017-8.017h-9.086v-9.62h26.188
			c4.428,0,8.017-3.589,8.017-8.017s-3.588-8.017-8.017-8.017h-34.205c-4.428,0-8.017,3.589-8.017,8.017v51.307
			c0,4.427,3.588,8.017,8.017,8.017h34.205c4.428,0,8.017-3.589,8.017-8.017S196.264,128.267,191.835,128.267z"/>
	</g>
</g>
<g>
	<g>
		<path d="M311.551,128.267h-26.188v-9.62h9.086c4.428,0,8.017-3.589,8.017-8.017s-3.588-8.017-8.017-8.017h-9.086v-9.62h26.188
			c4.428,0,8.017-3.589,8.017-8.017s-3.588-8.017-8.017-8.017h-34.205c-4.428,0-8.017,3.589-8.017,8.017v51.307
			c0,4.427,3.588,8.017,8.017,8.017h34.205c4.428,0,8.017-3.589,8.017-8.017S315.98,128.267,311.551,128.267z"/>
	</g>
</g>
<g>
	<g>
		<path d="M244.225,110.629l14.138-21.207c2.456-3.683,1.46-8.661-2.223-11.117c-3.683-2.456-8.661-1.46-11.116,2.223
			l-10.432,15.649l-10.432-15.649c-2.456-3.683-7.433-4.679-11.117-2.223c-3.683,2.455-4.68,7.433-2.223,11.117l14.138,21.207
			l-14.138,21.207c-2.456,3.685-1.461,8.662,2.223,11.118c3.637,2.426,8.695,1.41,11.117-2.223l10.432-15.649l10.432,15.649
			c2.615,3.922,8.22,4.721,11.833,1.687c3.086-2.591,3.741-7.23,1.507-10.581L244.225,110.629z"/>
	</g>
</g>
<g>
	<g>
		<path d="M414.165,239.432H174.733c-9.136,0-16.568,7.432-16.568,16.568v179.574c0,9.136,7.432,16.568,16.568,16.568h239.432
			c9.136,0,16.568-7.432,16.568-16.568V256C430.733,246.864,423.301,239.432,414.165,239.432z M414.7,324.944h-44.359
			c-4.428,0-8.017,3.589-8.017,8.017s3.588,8.017,8.017,8.017H414.7v94.597c0,0.295-0.24,0.534-0.534,0.534H174.733
			c-0.294,0-0.534-0.239-0.534-0.534v-94.597h171.557c4.428,0,8.017-3.589,8.017-8.017s-3.588-8.017-8.017-8.017H174.199V256
			c0-0.295,0.239-0.534,0.534-0.534h239.432c0.294,0,0.534,0.239,0.534,0.534V324.944z"/>
	</g>
</g>
<g>
	<g>
		<path d="M311.551,265.086c-13.851,0-25.119,11.268-25.119,25.119c0,13.851,11.268,25.119,25.119,25.119
			c13.851,0,25.119-11.268,25.119-25.119C336.67,276.354,325.402,265.086,311.551,265.086z M311.551,299.29
			c-5.01,0-9.086-4.076-9.086-9.086c0-5.01,4.076-9.086,9.086-9.086c5.01,0,9.086,4.076,9.086,9.086
			C320.637,295.215,316.561,299.29,311.551,299.29z"/>
	</g>
</g>
<g>
	<g>
		<path d="M251.693,265.086c-13.851,0-25.119,11.268-25.119,25.119c0,13.851,11.268,25.119,25.119,25.119
			s25.119-11.268,25.119-25.119C276.812,276.354,265.544,265.086,251.693,265.086z M251.693,299.29c-5.01,0-9.086-4.076-9.086-9.086
			c0-5.01,4.076-9.086,9.086-9.086s9.086,4.076,9.086,9.086C260.779,295.215,256.703,299.29,251.693,299.29z"/>
	</g>
</g>
<g>
	<g>
		<path d="M371.41,265.086c-13.851,0-25.119,11.268-25.119,25.119c0,13.851,11.268,25.119,25.119,25.119
			c13.851,0,25.119-11.268,25.119-25.119C396.528,276.354,385.26,265.086,371.41,265.086z M371.41,299.29
			c-5.01,0-9.086-4.076-9.086-9.086c0-5.01,4.076-9.086,9.086-9.086c5.01,0,9.086,4.076,9.086,9.086
			C380.495,295.215,376.419,299.29,371.41,299.29z"/>
	</g>
</g>
<g>
	<g>
		<path d="M248.42,382.509l-34.205-29.929c-3.287-2.875-8.436-2.532-11.312,0.755c-2.877,3.288-2.532,8.436,0.755,11.312
			l27.309,23.895l-27.309,23.895c-3.071,2.688-3.611,7.402-1.229,10.714c2.72,3.783,8.278,4.424,11.787,1.353l34.205-29.929
			C252.016,391.43,252.016,385.656,248.42,382.509z"/>
	</g>
</g>
<g>
	<g>
		<path d="M285.898,410.455h-17.102c-4.428,0-8.017,3.589-8.017,8.017c0,4.427,3.588,8.017,8.017,8.017h17.102
			c4.428,0,8.017-3.589,8.017-8.017C293.915,414.044,290.325,410.455,285.898,410.455z"/>
	</g>
</g>
</svg>