<?xml version="1.0" encoding="iso-8859-1"?>
<!-- Generator: Adobe Illustrator 19.0.0, SVG Export Plug-In . SVG Version: 6.00 Build 0)  -->
<svg version="1.1" id="Layer_1" xmlns="http://www.w3.org/2000/svg" xmlns:xlink="http://www.w3.org/1999/xlink" x="0px" y="0px"
	 viewBox="0 0 503.467 503.467" style="enable-background:new 0 0 503.467 503.467;" xml:space="preserve">
<g transform="translate(1 5)">
	<path style="fill:#E4F2DE;" d="M191,204.067v51.2H71.533V84.6H191v51.2V204.067z M191,204.067h273.067V135.8H191V204.067z"/>
	<path style="fill:#80D6FA;" d="M498.2,127.267V212.6c0,4.267-3.413,8.533-8.533,8.533H472.6c-5.12,0-8.533-4.267-8.533-8.533
		v-8.533V135.8v-8.533c0-4.267,3.413-8.533,8.533-8.533h17.067C494.787,118.733,498.2,123,498.2,127.267z M208.067,41.933v34.133
		c0,4.267-3.413,8.533-8.533,8.533H191H71.533H63c-4.267,0-8.533-4.267-8.533-8.533V41.933c0-4.267,4.267-8.533,8.533-8.533h136.533
		C204.653,33.4,208.067,37.667,208.067,41.933z M208.067,263.8v34.133c0,4.267-3.413,8.533-8.533,8.533H63
		c-4.267,0-8.533-4.267-8.533-8.533V263.8c0-4.267,4.267-8.533,8.533-8.533h8.533H191h8.533
		C204.653,255.267,208.067,259.533,208.067,263.8z"/>
	<path style="fill:#AAB1BA;" d="M259.267,425.933v34.133h-256v-34.133c0-9.387,7.68-17.067,17.067-17.067H242.2
		C251.587,408.867,259.267,416.547,259.267,425.933"/>
</g>
<path style="fill:#51565F;" d="M260.267,469.333h-256c-2.56,0-4.267-1.707-4.267-4.267v-34.133C0,418.987,9.387,409.6,21.333,409.6
	H243.2c11.947,0,21.333,9.387,21.333,21.333v34.133C264.533,467.627,262.827,469.333,260.267,469.333z M8.533,460.8H256v-29.867
	c0-6.827-5.973-12.8-12.8-12.8H21.333c-6.827,0-12.8,5.973-12.8,12.8V460.8z M166.4,384h-0.853c-1.707-0.853-3.413-2.56-3.413-4.267
	v-0.853l8.533-34.133c0.853-2.56,2.56-3.413,5.12-3.413c1.707,0.853,3.413,2.56,3.413,4.267v0.853l-8.533,34.133
	C169.813,382.293,168.107,384,166.4,384z M98.133,384c-1.707,0-3.413-1.707-4.267-3.413l-8.533-34.133V345.6
	c0-1.707,1.707-3.413,3.413-4.267c2.56-0.853,4.267,0.853,5.12,3.413l8.533,34.133v0.853c0,1.707-1.707,3.413-3.413,4.267H98.133z
	 M226.133,384c-0.853,0-2.56,0-3.413-0.853s-0.853-1.707-0.853-3.413c0-1.707,0-2.56,0.853-3.413l34.133-34.133
	c1.707-1.707,4.267-1.707,5.973,0c0.853,0.853,0.853,1.707,0.853,3.413s0,2.56-0.853,3.413l-34.133,34.133
	C228.693,384,226.987,384,226.133,384z M38.4,384c-0.853,0-2.56,0-3.413-0.853L0.853,349.013C0,348.16,0,347.307,0,345.6
	s0-2.56,0.853-3.413c1.707-1.707,4.267-1.707,5.973,0L40.96,376.32c0.853,0.853,0.853,1.707,0.853,3.413c0,1.706,0,2.56-0.853,3.413
	S39.253,384,38.4,384z M200.533,315.733H64c-6.827,0-12.8-5.973-12.8-12.8V268.8c0-6.827,5.973-12.8,12.8-12.8h4.267V123.733
	c0-2.56,1.707-4.267,4.267-4.267c2.56,0,4.267,1.707,4.267,4.267v136.533c0,2.56-1.707,4.267-4.267,4.267H64
	c-2.56,0-4.267,1.707-4.267,4.267v34.133c0,2.56,1.707,4.267,4.267,4.267h136.533c2.56,0,4.267-1.707,4.267-4.267V268.8
	c0-2.56-1.707-4.267-4.267-4.267h-93.867c-2.56,0-4.267-1.707-4.267-4.267c0-2.56,1.707-4.267,4.267-4.267h93.867
	c6.827,0,12.8,5.973,12.8,12.8v34.133C213.333,309.76,207.36,315.733,200.533,315.733z M490.667,230.4H473.6
	c-6.827,0-12.8-5.973-12.8-12.8v-4.267H226.133c-2.56,0-4.267-1.707-4.267-4.267c0-2.56,1.707-4.267,4.267-4.267h238.933
	c2.56,0,4.267,1.707,4.267,4.267v8.533c0,2.56,1.707,4.267,4.267,4.267h17.067c2.56,0,4.267-1.707,4.267-4.267v-85.333
	c0-2.56-1.707-4.267-4.267-4.267H473.6c-2.56,0-4.267,1.707-4.267,4.267v42.667c0,2.56-1.707,4.267-4.267,4.267
	s-4.267-1.707-4.267-4.267v-42.667c0-6.827,5.973-12.8,12.8-12.8h17.067c6.827,0,12.8,5.973,12.8,12.8V217.6
	C503.467,224.427,497.493,230.4,490.667,230.4z M192,230.4c-2.56,0-4.267-1.707-4.267-4.267V89.6c0-2.56,1.707-4.267,4.267-4.267
	h8.533c2.56,0,4.267-1.707,4.267-4.267V46.933c0-2.56-1.707-4.267-4.267-4.267H64c-2.56,0-4.267,1.707-4.267,4.267v34.133
	c0,2.56,1.707,4.267,4.267,4.267h93.867c2.56,0,4.267,1.707,4.267,4.267c0,2.56-1.707,4.267-4.267,4.267H64
	c-6.827,0-12.8-5.973-12.8-12.8V46.933c0-6.827,5.973-12.8,12.8-12.8h136.533c6.827,0,12.8,5.973,12.8,12.8v34.133
	c0,6.827-5.973,12.8-12.8,12.8h-4.267v132.267C196.267,228.693,194.56,230.4,192,230.4z M430.933,145.067h-204.8
	c-2.56,0-4.267-1.707-4.267-4.267c0-2.56,1.707-4.267,4.267-4.267h204.8c2.56,0,4.267,1.707,4.267,4.267
	C435.2,143.36,433.493,145.067,430.933,145.067z"/>
<g>
</g>
<g>
</g>
<g>
</g>
<g>
</g>
<g>
</g>
<g>
</g>
<g>
</g>
<g>
</g>
<g>
</g>
<g>
</g>
<g>
</g>
<g>
</g>
<g>
</g>
<g>
</g>
<g>
</g>
</svg>
