<?xml version="1.0" encoding="iso-8859-1"?>
<!-- Generator: Adobe Illustrator 19.0.0, SVG Export Plug-In . SVG Version: 6.00 Build 0)  -->
<svg version="1.1" id="Layer_1" xmlns="http://www.w3.org/2000/svg" xmlns:xlink="http://www.w3.org/1999/xlink" x="0px" y="0px"
	 viewBox="0 0 503.467 503.467" style="enable-background:new 0 0 503.467 503.467;" xml:space="preserve">
<g transform="translate(1 1)">
	<path style="fill:#FFD0A1;" d="M276.333,344.6v59.733c0,4.267-3.413,8.533-8.533,8.533h-34.133c-5.12,0-8.533-4.267-8.533-8.533
		V344.6v-76.8c0-4.267,3.413-8.533,8.533-8.533H267.8c5.12,0,8.533,4.267,8.533,8.533V344.6z"/>
	<path style="fill:#80D6FA;" d="M412.867,105.667V344.6H276.333v-76.8c0-4.267-3.413-8.533-8.533-8.533h-34.133
		c-5.12,0-8.533,4.267-8.533,8.533v76.8H88.6V105.667h68.267H191h119.467H344.6H412.867z M498.2,139.8v170.667
		c0,18.773-15.36,34.133-34.133,34.133h-51.2V105.667h51.2C482.84,105.667,498.2,121.027,498.2,139.8z M88.6,105.667V344.6H37.4
		c-18.773,0-34.133-15.36-34.133-34.133V139.8c0-18.773,15.36-34.133,34.133-34.133H88.6z M498.2,310.467v153.6
		c0,18.773-15.36,34.133-34.133,34.133H37.4c-18.773,0-34.133-15.36-34.133-34.133v-153.6c0,18.773,15.36,34.133,34.133,34.133h51.2
		h136.533v59.733c0,4.267,3.413,8.533,8.533,8.533H267.8c5.12,0,8.533-4.267,8.533-8.533V344.6h136.533h51.2
		C482.84,344.6,498.2,329.24,498.2,310.467z"/>
	<path style="fill:#AAB1BA;" d="M344.6,71.533v34.133h-34.133V71.533c0-18.773-15.36-34.133-34.133-34.133h-51.2
		C206.36,37.4,191,52.76,191,71.533v34.133h-34.133V71.533c0-34.987,32.427-68.267,68.267-68.267h51.2
		C312.173,3.267,344.6,35.693,344.6,71.533"/>
</g>
<path style="fill:#51565F;" d="M465.067,503.467H38.4c-21.333,0-38.4-17.067-38.4-38.4V371.2c0-2.56,1.707-4.267,4.267-4.267
	s4.267,1.707,4.267,4.267v93.867c0,16.213,13.653,29.867,29.867,29.867h426.667c16.213,0,29.867-13.653,29.867-29.867V371.2
	c0-2.56,1.707-4.267,4.267-4.267c2.56,0,4.267,1.707,4.267,4.267v93.867C503.467,486.4,486.4,503.467,465.067,503.467z
	 M268.8,418.133h-34.133c-6.827,0-12.8-5.973-12.8-12.8v-25.6c0-2.56,1.707-4.267,4.267-4.267s4.267,1.707,4.267,4.267v25.6
	c0,2.56,1.707,4.267,4.267,4.267H268.8c2.56,0,4.267-1.707,4.267-4.267v-25.6c0-2.56,1.707-4.267,4.267-4.267
	s4.267,1.707,4.267,4.267v25.6C281.6,412.16,275.627,418.133,268.8,418.133z M465.067,349.867H277.333
	c-2.56,0-4.267-1.707-4.267-4.267v-76.8c0-2.56-1.707-4.267-4.267-4.267h-34.133c-2.56,0-4.267,1.707-4.267,4.267v76.8
	c0,2.56-1.707,4.267-4.267,4.267H38.4c-21.333,0-38.4-17.067-38.4-38.4V140.8c0-21.333,17.067-38.4,38.4-38.4h426.667
	c21.333,0,38.4,17.067,38.4,38.4v170.667C503.467,332.8,486.4,349.867,465.067,349.867z M281.6,341.333h183.467
	c16.213,0,29.867-13.653,29.867-29.867V140.8c0-16.213-13.653-29.867-29.867-29.867h-46.933v200.533c0,2.56-1.707,4.267-4.267,4.267
	s-4.267-1.707-4.267-4.267V110.933H93.867v200.533c0,2.56-1.707,4.267-4.267,4.267c-2.56,0-4.267-1.707-4.267-4.267V110.933H38.4
	c-16.213,0-29.867,13.653-29.867,29.867v170.667c0,16.213,13.653,29.867,29.867,29.867h183.467V268.8c0-6.827,5.973-12.8,12.8-12.8
	H268.8c6.827,0,12.8,5.973,12.8,12.8V341.333z M345.6,76.8c-2.56,0-4.267-1.707-4.267-4.267c0-33.28-30.72-64-64-64h-51.2
	c-33.28,0-64,30.72-64,64c0,2.56-1.707,4.267-4.267,4.267c-2.56,0-4.267-1.707-4.267-4.267C153.6,34.987,188.587,0,226.133,0h51.2
	c37.547,0,72.533,34.987,72.533,72.533C349.867,75.093,348.16,76.8,345.6,76.8z M311.467,76.8c-2.56,0-4.267-1.707-4.267-4.267
	c0-16.213-13.653-29.867-29.867-29.867h-51.2c-16.213,0-29.867,13.653-29.867,29.867c0,2.56-1.707,4.267-4.267,4.267
	s-4.267-1.707-4.267-4.267c0-21.333,17.067-38.4,38.4-38.4h51.2c21.333,0,38.4,17.067,38.4,38.4
	C315.733,75.093,314.027,76.8,311.467,76.8z"/>
<g>
</g>
<g>
</g>
<g>
</g>
<g>
</g>
<g>
</g>
<g>
</g>
<g>
</g>
<g>
</g>
<g>
</g>
<g>
</g>
<g>
</g>
<g>
</g>
<g>
</g>
<g>
</g>
<g>
</g>
</svg>
