<?xml version="1.0" encoding="iso-8859-1"?>
<!-- Generator: Adobe Illustrator 19.0.0, SVG Export Plug-In . SVG Version: 6.00 Build 0)  -->
<svg version="1.1" id="Layer_1" xmlns="http://www.w3.org/2000/svg" xmlns:xlink="http://www.w3.org/1999/xlink" x="0px" y="0px"
	 viewBox="0 0 503.467 503.467" style="enable-background:new 0 0 503.467 503.467;" xml:space="preserve">
<g transform="translate(1 3)">
	<path style="fill:#E4F2DE;" d="M481.133,52.467V342.6c0,18.773-15.36,34.133-34.133,34.133H250.733H54.467
		c-18.773,0-34.133-15.36-34.133-34.133V52.467H481.133L481.133,52.467L481.133,52.467z M498.2,18.333v34.133h-17.067h-460.8H3.267
		V18.333h247.467H498.2L498.2,18.333L498.2,18.333z"/>
	<path style="fill:#80D6FA;" d="M344.6,206.067H242.2v102.4c-56.32,0-102.4-46.08-102.4-102.4s46.08-102.4,102.4-102.4
		S344.6,149.747,344.6,206.067"/>
	<path style="fill:#FFD0A1;" d="M276.333,240.2h83.627c-6.827,42.667-40.96,76.8-83.627,83.627V240.2z"/>
</g>
<path style="fill:#51565F;" d="M311.467,503.467c-0.853,0-2.56,0-3.413-0.853L273.92,468.48c-0.853-0.853-0.853-1.707-0.853-3.413
	s0-2.56,0.853-3.413c1.707-1.707,4.267-1.707,5.973,0l34.133,34.133c0.853,0.853,0.853,1.707,0.853,3.413
	c0,1.707,0,2.56-0.853,3.413S312.32,503.467,311.467,503.467z M192,503.467c-0.853,0-2.56,0-3.413-0.853
	c-1.707-1.707-1.707-4.267,0-5.973l58.88-58.88v-23.893c0-2.56,1.707-4.267,4.267-4.267c2.56,0,4.267,1.707,4.267,4.267v25.6
	c0,0.853-0.853,2.56-0.853,3.413l-59.733,59.733C194.56,503.467,192.853,503.467,192,503.467z M448,384H55.467
	c-21.333,0-38.4-17.067-38.4-38.4v-256c0-2.56,1.707-4.267,4.267-4.267S25.6,87.04,25.6,89.6v256
	c0,16.213,13.653,29.867,29.867,29.867H448c16.213,0,29.867-13.653,29.867-29.867V55.467c0-2.56,1.707-4.267,4.267-4.267h12.8V25.6
	H8.533v25.6H448c2.56,0,4.267,1.707,4.267,4.267c0,2.56-1.707,4.267-4.267,4.267H4.267C1.707,59.733,0,58.027,0,55.467V21.333
	c0-2.56,1.707-4.267,4.267-4.267h243.2v-12.8c0-2.56,1.707-4.267,4.267-4.267C254.293,0,256,1.707,256,4.267v12.8h243.2
	c2.56,0,4.267,1.707,4.267,4.267v34.133c0,2.56-1.707,4.267-4.267,4.267h-12.8V345.6C486.4,366.933,469.333,384,448,384z
	 M277.333,331.093c-0.853,0-1.707,0-2.56-0.853c-0.853-0.853-1.707-1.707-1.707-3.413V243.2c0-2.56,1.707-4.267,4.267-4.267h83.627
	c0.853,0,2.56,0.853,3.413,1.707c0.853,0.853,0.853,2.56,0.853,3.413C357.547,288.427,322.56,323.413,277.333,331.093
	C278.187,331.093,277.333,331.093,277.333,331.093z M281.6,247.467v74.24c36.693-8.533,66.56-37.547,74.24-74.24H281.6z
	 M243.2,315.733c-58.88,0-106.667-47.787-106.667-106.667S184.32,102.4,243.2,102.4s106.667,47.787,106.667,106.667
	c0,2.56-1.707,4.267-4.267,4.267h-98.133v98.133C247.467,314.027,245.76,315.733,243.2,315.733z M243.2,110.933
	c-53.76,0-98.133,44.373-98.133,98.133c0,52.907,41.813,95.573,93.867,98.133v-98.133c0-2.56,1.707-4.267,4.267-4.267h98.133
	C338.773,152.747,296.107,110.933,243.2,110.933z"/>
<g>
</g>
<g>
</g>
<g>
</g>
<g>
</g>
<g>
</g>
<g>
</g>
<g>
</g>
<g>
</g>
<g>
</g>
<g>
</g>
<g>
</g>
<g>
</g>
<g>
</g>
<g>
</g>
<g>
</g>
</svg>
