<?xml version="1.0" encoding="iso-8859-1"?>
<!-- Generator: Adobe Illustrator 19.0.0, SVG Export Plug-In . SVG Version: 6.00 Build 0)  -->
<svg version="1.1" id="Layer_1" xmlns="http://www.w3.org/2000/svg" xmlns:xlink="http://www.w3.org/1999/xlink" x="0px" y="0px"
	 viewBox="0 0 503.467 503.467" style="enable-background:new 0 0 503.467 503.467;" xml:space="preserve">
<g transform="translate(1 3)">
	<path style="fill:#E4F2DE;" d="M481.133,52.467V342.6c0,18.773-15.36,34.133-34.133,34.133H250.733H54.467
		c-18.773,0-34.133-15.36-34.133-34.133V52.467H481.133z M498.2,18.333v34.133h-17.067h-460.8H3.267V18.333h247.467H498.2z"/>
	<path style="fill:#80D6FA;" d="M191,180.467c14.507,0,25.6,11.093,25.6,25.6c0,6.827-2.56,13.653-7.68,17.92
		c-4.267,4.267-11.093,7.68-17.92,7.68c-6.827,0-13.653-2.56-17.92-7.68c-4.267-4.267-7.68-11.093-7.68-17.92
		C165.4,191.56,176.493,180.467,191,180.467z M370.2,137.8c14.507,0,25.6,11.093,25.6,25.6S384.707,189,370.2,189
		c-6.827,0-13.653-2.56-17.92-7.68c-4.267-4.267-7.68-11.093-7.68-17.92C344.6,148.893,355.693,137.8,370.2,137.8z"/>
</g>
<path style="fill:#51565F;" d="M311.467,503.467c-0.853,0-2.56,0-3.413-0.853L273.92,468.48c-0.853-0.853-0.853-1.707-0.853-3.413
	s0-2.56,0.853-3.413c1.707-1.707,4.267-1.707,5.973,0l34.133,34.133c0.853,0.853,0.853,1.707,0.853,3.413
	c0,1.707,0,2.56-0.853,3.413S312.32,503.467,311.467,503.467z M192,503.467c-0.853,0-2.56,0-3.413-0.853
	c-1.707-1.707-1.707-4.267,0-5.973l58.88-58.88v-23.893c0-2.56,1.707-4.267,4.267-4.267c2.56,0,4.267,1.707,4.267,4.267v25.6
	c0,0.853-0.853,2.56-0.853,3.413l-59.733,59.733C194.56,503.467,192.853,503.467,192,503.467z M448,384H55.467
	c-21.333,0-38.4-17.067-38.4-38.4v-256c0-2.56,1.707-4.267,4.267-4.267S25.6,87.04,25.6,89.6v256
	c0,16.213,13.653,29.867,29.867,29.867H448c16.213,0,29.867-13.653,29.867-29.867V55.467c0-2.56,1.707-4.267,4.267-4.267h12.8V25.6
	H8.533v25.6H448c2.56,0,4.267,1.707,4.267,4.267c0,2.56-1.707,4.267-4.267,4.267H4.267C1.707,59.733,0,58.027,0,55.467V21.333
	c0-2.56,1.707-4.267,4.267-4.267h243.2v-12.8c0-2.56,1.707-4.267,4.267-4.267C254.293,0,256,1.707,256,4.267v12.8h243.2
	c2.56,0,4.267,1.707,4.267,4.267v34.133c0,2.56-1.707,4.267-4.267,4.267h-12.8V345.6C486.4,366.933,469.333,384,448,384z
	 M106.667,298.667c-0.853,0-2.56,0-3.413-0.853c-0.853-0.853-0.853-1.707-0.853-3.413s0-2.56,0.853-3.413l64.853-64.853
	c-3.413-5.12-5.973-11.093-5.973-17.92c0-16.213,13.653-29.867,29.867-29.867s29.867,13.653,29.867,29.867
	c0,6.827-2.56,12.8-5.973,17.92l44.373,44.373l87.04-87.04c-3.413-5.12-5.973-11.093-5.973-17.92
	c0-16.213,13.653-29.867,29.867-29.867c16.213,0,29.867,13.653,29.867,29.867s-13.653,29.867-29.867,29.867
	c-6.827,0-12.8-2.56-17.92-5.973l-90.453,90.453c-1.707,1.707-4.267,1.707-5.973,0l-47.787-47.787
	c-5.12,3.413-11.093,5.973-17.92,5.973s-12.8-2.56-17.92-5.973l-64.853,64.853C109.227,298.667,107.52,298.667,106.667,298.667z
	 M192,187.733c-11.947,0-21.333,9.387-21.333,21.333c0,11.947,9.387,21.333,21.333,21.333c11.947,0,21.333-9.387,21.333-21.333
	C213.333,197.12,203.947,187.733,192,187.733z M356.693,181.76c3.413,3.413,9.387,5.973,14.507,5.973
	c11.947,0,21.333-9.387,21.333-21.333s-9.387-21.333-21.333-21.333c-11.947,0-21.333,9.387-21.333,21.333
	C349.867,172.373,352.427,177.493,356.693,181.76C355.84,180.907,355.84,180.907,356.693,181.76L356.693,181.76z"/>
<g>
</g>
<g>
</g>
<g>
</g>
<g>
</g>
<g>
</g>
<g>
</g>
<g>
</g>
<g>
</g>
<g>
</g>
<g>
</g>
<g>
</g>
<g>
</g>
<g>
</g>
<g>
</g>
<g>
</g>
</svg>
