<?xml version="1.0" encoding="iso-8859-1"?>
<!-- Generator: Adobe Illustrator 19.0.0, SVG Export Plug-In . SVG Version: 6.00 Build 0)  -->
<svg version="1.1" id="Layer_1" xmlns="http://www.w3.org/2000/svg" xmlns:xlink="http://www.w3.org/1999/xlink" x="0px" y="0px"
	 viewBox="0 0 503.467 503.467" style="enable-background:new 0 0 503.467 503.467;" xml:space="preserve">
<g transform="translate(1 3)">
	<path style="fill:#E4F2DE;" d="M20.333,52.467H3.267V18.333H498.2v34.133h-17.067V342.6c0,18.773-15.36,34.133-34.133,34.133
		h-98.133l0,0H152.6H54.467c-18.773,0-34.133-15.36-34.133-34.133V52.467z"/>
	<path style="fill:#80D6FA;" d="M105.667,291.4H139.8v-51.2h-34.133V291.4z M378.733,291.4h34.133V137.8h-34.133V291.4z
		 M173.933,291.4h34.133V171.933h-34.133V291.4z M242.2,291.4h34.133v-85.333H242.2V291.4z M310.467,291.4H344.6V171.933h-34.133
		V291.4z"/>
</g>
<path style="fill:#51565F;" d="M311.467,503.467c-0.853,0-2.56,0-3.413-0.853L273.92,468.48c-1.707-1.707-1.707-4.267,0-5.973
	c1.707-1.707,4.267-1.707,5.973,0l34.133,34.133c1.707,1.707,1.707,4.267,0,5.973C314.027,503.467,312.32,503.467,311.467,503.467z
	 M192,503.467c-0.853,0-2.56,0-3.413-0.853c-1.707-1.707-1.707-4.267,0-5.973l58.88-58.88v-23.893c0-2.56,1.707-4.267,4.267-4.267
	c2.56,0,4.267,1.707,4.267,4.267v25.6c0,0.853-0.853,2.56-0.853,3.413l-59.733,59.733C194.56,503.467,192.853,503.467,192,503.467z
	 M448,384H55.467c-21.333,0-38.4-17.067-38.4-38.4v-256c0-2.56,1.707-4.267,4.267-4.267S25.6,87.04,25.6,89.6v256
	c0,16.213,13.653,29.867,29.867,29.867H448c16.213,0,29.867-13.653,29.867-29.867V55.467c0-2.56,1.707-4.267,4.267-4.267h12.8V25.6
	H8.533v25.6H448c2.56,0,4.267,1.707,4.267,4.267c0,2.56-1.707,4.267-4.267,4.267H4.267C1.707,59.733,0,58.027,0,55.467V21.333
	c0-2.56,1.707-4.267,4.267-4.267h243.2v-12.8c0-2.56,1.707-4.267,4.267-4.267C254.293,0,256,1.707,256,4.267v12.8h243.2
	c2.56,0,4.267,1.707,4.267,4.267v34.133c0,2.56-1.707,4.267-4.267,4.267h-12.8V345.6C486.4,366.933,469.333,384,448,384z
	 M379.733,298.667H345.6c-2.56,0-4.267-1.707-4.267-4.267V179.2h-25.6v115.2c0,2.56-1.707,4.267-4.267,4.267h-34.133
	c-2.56,0-4.267-1.707-4.267-4.267v-81.067h-25.6V294.4c0,2.56-1.707,4.267-4.267,4.267h-34.133c-2.56,0-4.267-1.707-4.267-4.267
	V179.2h-25.6v115.2c0,2.56-1.707,4.267-4.267,4.267H140.8c-2.56,0-4.267-1.707-4.267-4.267v-46.933h-25.6V294.4
	c0,2.56-1.707,4.267-4.267,4.267s-4.267-1.707-4.267-4.267v-51.2c0-2.56,1.707-4.267,4.267-4.267H140.8
	c2.56,0,4.267,1.707,4.267,4.267v46.933h25.6v-115.2c0-2.56,1.707-4.267,4.267-4.267h34.133c2.56,0,4.267,1.707,4.267,4.267v115.2
	h25.6v-81.067c0-2.56,1.707-4.267,4.267-4.267h34.133c2.56,0,4.267,1.707,4.267,4.267v81.067h25.6v-115.2
	c0-2.56,1.707-4.267,4.267-4.267H345.6c2.56,0,4.267,1.707,4.267,4.267v115.2h25.6V140.8c0-2.56,1.707-4.267,4.267-4.267H396.8
	c2.56,0,4.267,1.707,4.267,4.267c0,2.56-1.707,4.267-4.267,4.267H384V294.4C384,296.96,382.293,298.667,379.733,298.667z"/>
<g>
</g>
<g>
</g>
<g>
</g>
<g>
</g>
<g>
</g>
<g>
</g>
<g>
</g>
<g>
</g>
<g>
</g>
<g>
</g>
<g>
</g>
<g>
</g>
<g>
</g>
<g>
</g>
<g>
</g>
</svg>
