<?xml version="1.0" encoding="iso-8859-1"?>
<!-- Generator: Adobe Illustrator 19.0.0, SVG Export Plug-In . SVG Version: 6.00 Build 0)  -->
<svg version="1.1" id="Layer_1" xmlns="http://www.w3.org/2000/svg" xmlns:xlink="http://www.w3.org/1999/xlink" x="0px" y="0px"
	 viewBox="0 0 503.33 503.33" style="enable-background:new 0 0 503.33 503.33;" xml:space="preserve">
<polygon style="fill:#FFD0A1;" points="251.52,59.772 4.053,443.772 498.987,443.772 "/>
<path style="fill:#51565F;" d="M498.987,448.038c-1.707,0-2.56-0.853-3.413-1.707l-53.76-83.627h-66.56v76.8h89.6
	c2.56,0,4.267,1.707,4.267,4.267c0,2.56-1.707,4.267-4.267,4.267H4.053c-1.707,0-3.413-0.853-3.413-2.56
	c-0.853-1.707-0.853-3.413,0-4.267l247.467-384c1.707-2.56,5.973-2.56,6.827,0l247.467,384c1.707,1.707,0.853,4.267-0.853,5.973
	C500.693,448.038,499.84,448.038,498.987,448.038z M255.787,439.505H366.72v-76.8H255.787V439.505z M136.32,439.505h110.933v-76.8
	H136.32V439.505z M11.733,439.505h116.053v-76.8H93.653c-2.56,0-4.267-1.707-4.267-4.267c0-2.56,1.707-4.267,4.267-4.267h93.867
	v-76.8h-70.827L11.733,439.505z M315.52,354.172h120.32L331.733,192.038h-75.947v76.8h98.133c2.56,0,4.267,1.707,4.267,4.267
	c0,2.56-1.707,4.267-4.267,4.267h-38.4L315.52,354.172L315.52,354.172z M196.053,354.172h110.933v-76.8H196.053V354.172z
	 M121.813,268.838h125.44v-76.8h-43.52c-2.56,0-4.267-1.707-4.267-4.267s1.707-4.267,4.267-4.267H325.76L250.666,67.452
	L121.813,268.838z"/>
<g>
</g>
<g>
</g>
<g>
</g>
<g>
</g>
<g>
</g>
<g>
</g>
<g>
</g>
<g>
</g>
<g>
</g>
<g>
</g>
<g>
</g>
<g>
</g>
<g>
</g>
<g>
</g>
<g>
</g>
</svg>
