<?xml version="1.0" encoding="iso-8859-1"?>
<!-- Generator: Adobe Illustrator 19.0.0, SVG Export Plug-In . SVG Version: 6.00 Build 0)  -->
<svg version="1.1" id="Layer_1" xmlns="http://www.w3.org/2000/svg" xmlns:xlink="http://www.w3.org/1999/xlink" x="0px" y="0px"
	 viewBox="0 0 503.467 503.467" style="enable-background:new 0 0 503.467 503.467;" xml:space="preserve">
<g transform="translate(1 3)">
	<path style="fill:#80D6FA;" d="M139.801,479.133H71.534v-128l68.267-68.267l68.267-68.267v264.533H139.801L139.801,479.133z
		 M276.334,206.067v273.067h-68.267V214.6l20.48-20.48l0,0c4.267,7.68,12.8,11.947,22.187,11.947c6.827,0,13.653-2.56,17.92-7.68
		L276.334,206.067z M344.601,291.4v187.733h-68.267V206.067l41.813,41.813c-4.267,4.267-7.68,11.093-7.68,17.92
		c0,14.507,11.093,25.6,25.6,25.6c2.56,0,5.12,0,7.68-1.707L344.601,291.4z M412.867,189v290.133h-68.267V291.4l-0.853-1.707
		c10.24-3.413,17.92-12.8,17.92-23.893c0-6.827-2.56-13.653-7.68-17.92L412.867,189z M71.534,351.133v128H54.467
		c-18.773,0-34.133-15.36-34.133-34.133v-34.133l0.853-1.707c2.56,0.853,5.12,1.707,7.68,1.707c14.507,0,25.6-11.093,25.6-25.6
		c0-5.12-1.707-9.387-3.413-13.653l0,0L71.534,351.133z M481.134,153.16V445c0,18.773-15.36,34.133-34.133,34.133h-34.133V189
		l41.813-41.813c4.267,4.267,11.093,7.68,17.92,7.68C476.014,154.867,478.574,154.013,481.134,153.16L481.134,153.16z"/>
	<path style="fill:#E4F2DE;" d="M481.134,52.467v51.2l-0.853,1.707c-2.56-0.853-5.12-1.707-7.68-1.707
		c-14.507,0-25.6,11.093-25.6,25.6c0,6.827,2.56,13.653,7.68,17.92L412.867,189l-58.88,58.88c-4.267-4.267-11.093-7.68-17.92-7.68
		s-13.653,2.56-17.92,7.68l-41.813-41.813l-7.68-7.68c4.267-4.267,7.68-11.093,7.68-17.92c0-14.507-11.093-25.6-25.6-25.6
		c-14.507,0-25.6,11.093-25.6,25.6c0,5.12,1.707,9.387,3.413,13.653l0,0l-20.48,20.48l-68.267,68.267l-68.267,68.267l-20.48,20.48
		l0,0c-4.267-7.68-12.8-11.947-22.187-11.947c-3.413,0-5.973,0.853-8.533,1.707l0,0V52.467c0-18.773,15.36-34.133,34.133-34.133
		h392.533C465.774,18.333,481.134,33.693,481.134,52.467"/>
	<path style="fill:#FFD0A1;" d="M51.054,371.613c2.56,3.413,3.413,8.533,3.413,13.653c0,14.507-11.093,25.6-25.6,25.6
		c-2.56,0-5.12,0-7.68-1.707c-10.24-3.413-17.92-12.8-17.92-23.893s6.827-20.48,17.067-23.893c2.56-0.853,5.12-1.707,8.533-1.707
		C38.254,359.667,45.934,364.787,51.054,371.613z M480.28,105.374c10.24,3.413,17.92,12.8,17.92,23.893s-6.827,20.48-17.067,23.893
		c-2.56,0.853-5.973,1.707-8.533,1.707c-6.827,0-13.653-2.56-17.92-7.68c-4.267-4.267-7.68-11.093-7.68-17.92
		c0-14.507,11.093-25.6,25.6-25.6C475.161,103.667,477.721,104.52,480.28,105.374z M353.987,247.88
		c4.267,4.267,7.68,11.093,7.68,17.92c0,11.093-7.68,20.48-17.92,23.893c-2.56,0.853-5.12,1.707-7.68,1.707
		c-14.507,0-25.6-11.093-25.6-25.6c0-6.827,2.56-13.653,7.68-17.92c4.267-4.267,11.093-7.68,17.92-7.68
		S349.721,242.76,353.987,247.88z M250.734,154.867c14.507,0,25.6,11.093,25.6,25.6c0,6.827-2.56,13.653-7.68,17.92
		c-4.267,4.267-11.093,7.68-17.92,7.68c-9.387,0-17.067-5.12-22.187-11.947c-2.56-4.267-3.413-8.533-3.413-13.653
		C225.134,165.96,236.227,154.867,250.734,154.867z"/>
</g>
<path style="fill:#51565F;" d="M448.001,486.4H55.467c-21.333,0-38.4-17.067-38.4-38.4c0-2.56,1.707-4.267,4.267-4.267
	s4.267,1.707,4.267,4.267c0,16.213,13.653,29.867,29.867,29.867h12.8v-38.4c0-2.56,1.707-4.267,4.267-4.267s4.267,1.707,4.267,4.267
	v38.4h59.733V328.533c0-2.56,1.707-4.267,4.267-4.267c2.56,0,4.267,1.707,4.267,4.267v149.333h59.733v-217.6
	c0-2.56,1.707-4.267,4.267-4.267s4.267,1.707,4.267,4.267v217.6h59.733v-217.6c0-2.56,1.707-4.267,4.267-4.267
	s4.267,1.707,4.267,4.267v217.6h59.733V328.533c0-2.56,1.707-4.267,4.267-4.267c2.56,0,4.267,1.707,4.267,4.267v149.333h59.733
	V243.2c0-2.56,1.707-4.267,4.267-4.267s4.267,1.707,4.267,4.267v234.667h29.867c16.213,0,29.867-13.653,29.867-29.867V162.133
	c-7.68,0.853-16.213-0.853-22.187-5.973l-94.72,94.72c3.413,5.12,5.973,11.093,5.973,17.92c0,16.213-13.653,29.867-29.867,29.867
	S307.2,285.013,307.2,268.8c0-6.827,2.56-12.8,5.973-17.92l-43.52-43.52c-5.12,3.413-11.093,5.973-17.92,5.973
	c-8.533,0-17.067-4.267-22.187-10.24L57.173,375.467c1.707,3.413,2.56,7.68,2.56,12.8c0,16.213-13.653,29.867-29.867,29.867
	S0,404.48,0,388.267c0-11.947,6.827-22.187,17.067-27.307V55.467c0-21.333,17.067-38.4,38.4-38.4H448
	c21.333,0,38.4,17.067,38.4,38.4v17.067c0,2.56-1.707,4.267-4.267,4.267s-4.267-1.707-4.267-4.267V55.467
	c0-16.213-13.653-29.867-29.867-29.867H55.467C39.253,25.6,25.6,39.254,25.6,55.467V358.4c10.24-1.707,20.48,2.56,26.453,9.387
	l172.373-172.373c-1.707-3.413-2.56-7.68-2.56-12.8c0-16.213,13.653-29.867,29.867-29.867S281.6,166.4,281.6,182.613
	c0,6.827-2.56,12.8-5.973,17.92l43.52,43.52c5.12-3.413,11.093-5.973,17.92-5.973s12.8,2.56,17.92,5.973l94.72-94.72
	c-3.413-5.12-5.973-11.093-5.973-17.92c0-16.213,13.653-29.867,29.867-29.867s29.867,13.653,29.867,29.867
	c0,11.947-6.827,22.187-17.067,27.307V448C486.401,469.333,469.334,486.4,448.001,486.4z M29.867,366.933
	c-11.947,0-21.333,9.387-21.333,21.333S17.921,409.6,29.867,409.6s21.333-9.387,21.333-21.333S41.814,366.933,29.867,366.933z
	 M337.067,247.467c-11.947,0-21.333,9.387-21.333,21.333s9.387,21.333,21.333,21.333s21.333-9.387,21.333-21.333
	S349.014,247.467,337.067,247.467z M251.734,162.133c-11.947,0-21.333,9.387-21.333,21.333c0,11.947,9.387,21.333,21.333,21.333
	c11.947,0,21.333-9.387,21.333-21.333C273.067,171.52,263.68,162.133,251.734,162.133z M459.094,147.627
	c3.413,3.413,9.387,5.973,14.507,5.973c11.947,0,21.333-9.387,21.333-21.333c0-11.947-9.387-21.333-21.333-21.333
	c-11.947,0-21.333,9.387-21.333,21.333C452.267,138.24,454.827,143.36,459.094,147.627
	C458.241,146.774,458.241,146.774,459.094,147.627L459.094,147.627z"/>
<g>
</g>
<g>
</g>
<g>
</g>
<g>
</g>
<g>
</g>
<g>
</g>
<g>
</g>
<g>
</g>
<g>
</g>
<g>
</g>
<g>
</g>
<g>
</g>
<g>
</g>
<g>
</g>
<g>
</g>
</svg>
