<?xml version="1.0" encoding="utf-8"?>

<svg xmlns="http://www.w3.org/2000/svg" xmlns:xlink="http://www.w3.org/1999/xlink" 
  height="512" width="512" viewBox="0 0 512 512">

  <rect width="512" height="512" stroke="red" fill="white"></rect>

  <text x="2" y="12" font-size="12" text-anchor="start" fill="red">0</text>
  <path d="M256  64 H0 H512" stroke="lightgray" fill="white"></path>
  <text x="2" y="64" font-size="12" text-anchor="start" fill="red">64</text>
  <path d="M256 128 H0 H512" stroke="lightgray" fill="white"></path>
  <text x="2" y="128" font-size="12" text-anchor="start" fill="red">128</text>
  <path d="M256 192 H0 H512" stroke="lightgray" fill="white"></path>
  <text x="2" y="192" font-size="12" text-anchor="start" fill="red">192</text>
  <path d="M256 256 H0 H512" stroke="lightgray" fill="white"></path>
  <text x="2" y="256" font-size="12" text-anchor="start" fill="red">256</text>
  <path d="M256 320 H0 H512" stroke="lightgray" fill="white"></path>
  <text x="2" y="320" font-size="12" text-anchor="start" fill="red">320</text>
  <path d="M256 384 H0 H512" stroke="lightgray" fill="white"></path>
  <text x="2" y="384" font-size="12" text-anchor="start" fill="red">384</text>
  <path d="M256 448 H0 H512" stroke="lightgray" fill="white"></path>
  <text x="2" y="448" font-size="12" text-anchor="start" fill="red">448</text>
  <text x="2" y="512" font-size="12" text-anchor="start" fill="red">512</text>

  <path d="M64  0 V512" stroke="lightgray" fill="white"></path>
  <text x="64" y="12" font-size="12" text-anchor="start" fill="red">64</text>
  <path d="M128  0 V512" stroke="lightgray" fill="white"></path>
  <text x="128" y="12" font-size="12" text-anchor="start" fill="red">128</text>
  <path d="M195  0 V512" stroke="lightgray" fill="white"></path>
  <text x="192" y="12" font-size="12" text-anchor="start" fill="red">192</text>
  <path d="M256  0 V512" stroke="lightgray" fill="white"></path>
  <text x="256" y="12" font-size="12" text-anchor="start" fill="red">256</text>
  <path d="M320  0 V512" stroke="lightgray" fill="white"></path>
  <text x="320" y="12" font-size="12" text-anchor="start" fill="red">320</text>
  <path d="M384  0 V512" stroke="lightgray" fill="white"></path>
  <text x="384" y="12" font-size="12" text-anchor="start" fill="red">384</text>
  <path d="M448  0 V512" stroke="lightgray" fill="white"></path>
  <text x="448" y="12" font-size="12" text-anchor="start" fill="red">448</text>
  <text x="512" y="12" font-size="12" text-anchor="start" fill="red">512</text>


  <path d="M256 256 V270 V242 M256 256 H270 H242" stroke="black" fill="white"></path>
  <text x="256" y="256" font-size="16" text-anchor="middle" fill="red">(256, 256)</text>

  <circle cx="150" cy="100" r="80" fill="rgba(255,128,128,0.5)" transform="translate(100,50)"></circle>

  <circle cx="150" cy="100" r="82" fill="none" stroke="Crimson" 
 transform="translate(100,50)"></circle>

  <defs>
    <path id="a1" d="M0 50 C150 150 100 -50 300 50" stroke="#000" fill="none" transform="translate(175,215)"></path>
  </defs>

  <text>
     <textPath href="#a1">這是隨著路徑跑的文字，很酷吧
    </textPath>
  </text>

  <g transform="translate(64,448)">
    <circle fill="#FF4343" stroke="#890000" stroke-width="2" cx="40" cy="40" r="6"></circle>
    <circle fill="#FF4343" stroke="#890000" stroke-width="2" cx="0" cy="0" r="6"></circle>
    <circle fill="#FF4343" stroke="#890000" stroke-width="2" cx="60" cy="40" r="6"></circle>
    <circle fill="#FF4343" stroke="#890000" stroke-width="2" cx="100" cy="0" r="6"></circle>

    <circle fill="#FF4343" stroke="#890000" stroke-width="2" cx="140" cy="-40" r="6"></circle>
    <circle fill="#FF4343" stroke="#890000" stroke-width="2" cx="150" cy="-40" r="6"></circle>
    <circle fill="#FF4343" stroke="#890000" stroke-width="2" cx="200" cy="0" r="6"></circle>

    <circle fill="#FF4343" stroke="#890000" stroke-width="2" cx="250" cy="40" r="6"></circle>
    <circle fill="#FF4343" stroke="#890000" stroke-width="2" cx="300" cy="0" r="6"></circle>

    <circle fill="#FF4343" stroke="#890000" stroke-width="2" cx="350" cy="-40" r="6"></circle>
    <circle fill="#FF4343" stroke="#890000" stroke-width="2" cx="400" cy="0" r="6"></circle>

    <path d="M0 0 C40 40,60 40,100 0 S150 -40, 200 0 Q250 40, 300 0 T400 0" stroke="black" fill="none"></path>
  </g>

</svg>

    